<svg width="31" height="36" viewBox="0 0 31 36" fill="none" xmlns="http://www.w3.org/2000/svg">
<path d="M10.6012 13.1012C11.1731 13.9814 14.8824 19.7011 15.4235 20.5385V23.1484L14.4303 22.5781C14.4241 22.5763 14.4183 22.5734 14.4132 22.5695L14.3378 22.5267L14.3036 22.5062L14.2745 22.489C14.2633 22.4814 14.2512 22.475 14.2385 22.4702L13.8703 22.2476H13.86C13.7539 22.1911 3.90878 16.5039 3.86596 16.4782C3.86045 16.4754 3.85528 16.472 3.85055 16.4679C3.78034 16.4303 1.23216 14.9575 0.285156 14.413V11.7929L7.85092 8.85938C8.82703 10.3664 10.5241 12.9848 10.6012 13.1012ZM1.63973 13.1543L13.4131 19.9511L7.52383 10.875L1.63973 13.1543Z" fill="white"/>
<path d="M27.3064 22.7579V24.496C27.3046 24.583 27.2852 24.6687 27.2493 24.7479C27.2134 24.8271 27.1617 24.8981 27.0974 24.9567C27.085 24.9711 27.0713 24.9843 27.0564 24.9961C26.996 25.0483 26.9312 25.0953 26.8628 25.1365C26.8269 25.1588 26.7875 25.1793 26.7498 25.1982C26.6626 25.2407 26.5721 25.2762 26.4792 25.3043C26.4176 25.3249 26.3542 25.342 26.2874 25.3574C25.7072 25.4988 25.0954 25.4258 24.5647 25.1519C24.253 24.9704 24.0938 24.7341 24.0938 24.496V18.23L27.3064 16.4062V22.7579Z" fill="white"/>
<path d="M14.2716 22.4832L14.2305 22.4609C14.2432 22.4658 14.2552 22.4721 14.2664 22.4798L14.2716 22.4832Z" fill="white"/>
<path d="M6.50781 25.0658C6.54035 25.0419 6.57117 25.0179 6.60029 24.9922C6.57125 25.0189 6.54035 25.0435 6.50781 25.0658Z" fill="white"/>
<path d="M19.5391 27.8828C19.5904 27.9136 19.6469 27.9462 19.7103 27.9753C19.6513 27.9481 19.5941 27.9172 19.5391 27.8828Z" fill="white"/>
<path d="M0.285156 11.7863L15.4287 3.18788L22.9979 0.257812C22.8643 0.334874 7.89031 8.83052 7.85263 8.85449L0.285156 11.7863Z" fill="white"/>
<path d="M13.414 19.9468L1.64062 13.1499L7.52473 10.8672L13.414 19.9468Z" fill="#FF4F4F"/>
<path d="M22.3603 19.8994V27.2733C22.3603 27.5114 22.2028 27.7477 21.8894 27.9292C21.3589 28.2038 20.7469 28.2768 20.1666 28.1347C20.1204 28.1244 20.0725 28.1124 20.0262 28.0987C19.9161 28.067 19.8089 28.0258 19.706 27.9754C19.6478 27.9463 19.5912 27.9155 19.5347 27.883C19.4693 27.8403 19.4085 27.7909 19.3532 27.7357C19.2891 27.6765 19.2375 27.6051 19.2013 27.5257C19.1651 27.4463 19.1452 27.3605 19.1426 27.2733V21.033L22.3552 19.2109L22.3603 19.8994Z" fill="white"/>
<path d="M3.8427 16.4602C3.84742 16.4642 3.8526 16.4677 3.85811 16.4705L6.84982 18.1984V24.4918C6.84739 24.5787 6.82749 24.6643 6.7913 24.7435C6.75512 24.8226 6.70339 24.8937 6.63919 24.9524C6.62677 24.9668 6.61301 24.98 6.59809 24.9918C6.56898 25.0175 6.53815 25.0415 6.50561 25.0654C6.47308 25.0894 6.43883 25.11 6.40286 25.1322C6.36675 25.1555 6.32897 25.1761 6.28984 25.1939C6.20349 25.2357 6.11421 25.2712 6.02269 25.3001C5.95933 25.3206 5.89597 25.3377 5.82918 25.3531C5.25005 25.4944 4.63937 25.4214 4.10985 25.1476C3.79646 24.9661 3.64062 24.7298 3.64062 24.4918V16.3438C3.7057 16.3814 3.76735 16.4225 3.8427 16.4602Z" fill="white"/>
<path d="M12.5508 16.1016C12.5987 16.1769 12.6467 16.2505 12.6946 16.3225C12.6467 16.2574 12.5987 16.182 12.5508 16.1016Z" fill="white"/>
<path d="M1.19968 25.1774L1.25105 25.2065L1.68431 25.4565L1.72199 25.4788L15.4065 33.3802L30.5534 24.6345V26.5183L15.403 35.2605L0.257812 26.5165V24.6328L0.663672 24.8674L0.680797 24.8777L0.773271 24.9308L1.19968 25.1774Z" fill="#5F646B"/>
<path d="M18.8223 21.2173C18.8873 21.1813 18.949 21.147 19.0124 21.1094L18.8223 21.2173Z" fill="white"/>
<path d="M15.4242 20.5336L7.85156 8.85449C7.88924 8.83052 22.8632 0.334874 22.9968 0.257812L30.5694 11.9353C28.0058 13.3926 15.4841 20.4994 15.4242 20.5336Z" fill="#DAE0E5"/>
<path d="M11.8496 27.277V21.0864L13.8532 22.244V30.1848C13.8532 30.4211 14.0108 30.6592 14.3242 30.839C15.3363 31.4229 17.0641 31.0102 17.0641 30.1848V22.2183L19.1465 21.0367V27.277C19.1491 27.3642 19.1691 27.45 19.2053 27.5294C19.2414 27.6088 19.2931 27.6802 19.3572 27.7394C19.4129 27.7941 19.4737 27.8434 19.5387 27.8867C19.5938 27.9211 19.651 27.9519 19.7099 27.9791C19.8132 28.0287 19.9203 28.07 20.0302 28.1024C20.0764 28.1161 20.1244 28.1281 20.1706 28.1384C20.7508 28.2805 21.3629 28.2075 21.8934 27.9329C22.2067 27.7514 22.3643 27.515 22.3643 27.277V19.903L24.0939 20.8997V24.4959C24.0939 24.734 24.2532 24.9703 24.5648 25.1518C25.0962 25.424 25.708 25.4951 26.2876 25.3522C26.3544 25.3368 26.4177 25.3196 26.4794 25.2991C26.5723 25.271 26.6628 25.2355 26.75 25.1929C26.7876 25.1741 26.827 25.1535 26.863 25.1313C26.9313 25.0906 26.9961 25.0442 27.0565 24.9926C27.0702 24.9789 27.0856 24.9652 27.0976 24.9515C27.1619 24.8929 27.2135 24.8218 27.2495 24.7426C27.2854 24.6634 27.3048 24.5777 27.3065 24.4908V22.7578L30.55 24.6295L15.403 33.3752L1.71343 25.4738L1.67575 25.4515L1.56958 25.3916L1.50964 25.3522L1.44799 25.3162L0.685934 24.8744L0.668809 24.8641L0.257812 24.6295L3.63826 22.6773V24.4959C3.63826 24.734 3.7941 24.9703 4.10748 25.1518C4.63667 25.423 5.24595 25.4942 5.82339 25.3522C5.89018 25.3368 5.95354 25.3196 6.0169 25.2991C6.10842 25.2702 6.1977 25.2348 6.28405 25.1929C6.32318 25.1752 6.36095 25.1546 6.39707 25.1313C6.43259 25.111 6.46689 25.0887 6.49982 25.0645C6.53236 25.0388 6.5649 25.0148 6.5923 24.9908C6.60722 24.979 6.62098 24.9659 6.6334 24.9515C6.69824 24.8939 6.75088 24.8239 6.78824 24.7457C6.82559 24.6675 6.84689 24.5825 6.85088 24.4959V20.8244L8.63701 19.7969V27.2804C8.63701 27.5185 8.79455 27.7548 9.10794 27.9363C9.45965 28.1153 9.84869 28.2086 10.2433 28.2086C10.6379 28.2086 11.027 28.1153 11.3787 27.9363C11.6921 27.7497 11.8496 27.515 11.8496 27.277Z" fill="#DAE0E5"/>
<path d="M16.0266 22.8032L15.4238 23.1457V20.5359C15.4838 20.5016 28.0055 13.3948 30.5691 11.9375V14.549L16.2955 22.6508L16.2681 22.6679L16.2184 22.6953L16.1003 22.7621L16.0266 22.8032Z" fill="#C2C7CC"/>
<path d="M6.40234 25.1371C6.44002 25.1154 6.47427 25.0931 6.50509 25.0703C6.4727 25.0953 6.43834 25.1176 6.40234 25.1371Z" fill="white"/>
<path d="M8.97408 19.4252L11.8493 21.0846V27.2752C11.8493 27.5133 11.6918 27.7496 11.3784 27.9311C11.0267 28.1101 10.6377 28.2034 10.243 28.2034C9.8484 28.2034 9.45937 28.1101 9.10765 27.9311C8.79427 27.7496 8.63672 27.5133 8.63672 27.2752V19.2266C8.74974 19.2951 8.86277 19.3567 8.97408 19.4252Z" fill="white"/>
<path d="M14.4306 22.5801L14.4786 22.6058C14.8211 22.801 15.3862 23.1298 15.4239 23.1503L16.2681 22.6726L16.2955 22.6554L17.0644 22.2188V30.1852C17.0644 31.0055 15.3348 31.4234 14.3244 30.8394C14.0111 30.6682 13.8535 30.4216 13.8535 30.1852V22.2444H13.8638L13.9032 22.2684L14.0213 22.3352L14.0419 22.3489L14.2748 22.4825L14.3022 22.4979L14.3364 22.5184L14.4118 22.5612C14.4169 22.5651 14.4227 22.568 14.4289 22.5698L14.4306 22.5801Z" fill="white"/>
<path d="M27.3047 22.7578L30.5481 24.6296" stroke="#3A3A3A" stroke-width="0.513746" stroke-linecap="round" stroke-linejoin="round"/>
<path d="M22.3594 19.8984L24.0924 20.8985" stroke="#3A3A3A" stroke-width="0.513746" stroke-linecap="round" stroke-linejoin="round"/>
<path d="M19.5391 27.8828C19.5941 27.9172 19.6513 27.9481 19.7103 27.9753" stroke="#3A3A3A" stroke-width="0.513746" stroke-linecap="round" stroke-linejoin="round"/>
<path d="M18.8223 21.2173L19.0124 21.1094" stroke="#3A3A3A" stroke-width="0.513746" stroke-linecap="round" stroke-linejoin="round"/>
<path d="M14.2715 22.4844L14.3006 22.5015" stroke="#3A3A3A" stroke-width="0.513746" stroke-linecap="round" stroke-linejoin="round"/>
<path d="M6.84961 20.82L8.63573 19.7891" stroke="#3A3A3A" stroke-width="0.513746" stroke-linecap="round" stroke-linejoin="round"/>
<path d="M6.50781 25.0658C6.54035 25.0419 6.57117 25.0179 6.60029 24.9922" stroke="#3A3A3A" stroke-width="0.513746" stroke-linecap="round" stroke-linejoin="round"/>
<path d="M6.40234 25.1371C6.44002 25.1154 6.47427 25.0931 6.50509 25.0703" stroke="#3A3A3A" stroke-width="0.513746" stroke-linecap="round" stroke-linejoin="round"/>
<path d="M0.257812 24.6241L3.63826 22.6719" stroke="#3A3A3A" stroke-width="0.513746" stroke-linecap="round" stroke-linejoin="round"/>
<path d="M2.39781 25.8615L2.22656 25.7656" stroke="#3A3A3A" stroke-width="0.513746" stroke-linecap="round" stroke-linejoin="round"/>
<path d="M2.74027 26.057L2.60156 25.9766" stroke="#3A3A3A" stroke-width="0.513746" stroke-linecap="round" stroke-linejoin="round"/>
<path d="M30.55 24.625V26.5087L15.403 35.2595L0.257812 26.5156V24.6319L0.663672 24.8665L0.680797 24.8767L0.773271 24.9298L1.68089 25.4538L1.71856 25.4761L15.403 33.3775L30.55 24.625Z" stroke="#3A3A3A" stroke-width="0.513746" stroke-linecap="round" stroke-linejoin="round"/>
<path d="M16.2969 22.6539L16.3756 22.6094" stroke="#3A3A3A" stroke-width="0.513746" stroke-linecap="round" stroke-linejoin="round"/>
<path d="M14.2324 22.4609C14.2451 22.4658 14.2572 22.4721 14.2684 22.4798" stroke="#3A3A3A" stroke-width="0.513746" stroke-linecap="round" stroke-linejoin="round"/>
<path d="M17.0644 22.2188V30.1852C17.0644 31.0055 15.3348 31.4234 14.3244 30.8394C14.0111 30.6682 13.8535 30.4216 13.8535 30.1852V22.2444" stroke="#3A3A3A" stroke-width="0.513746" stroke-linecap="round" stroke-linejoin="round"/>
<path d="M11.8493 21.0846V27.2752C11.8493 27.5133 11.6918 27.7496 11.3784 27.9311C11.0267 28.1101 10.6377 28.2034 10.243 28.2034C9.8484 28.2034 9.45937 28.1101 9.10765 27.9311C8.79427 27.7496 8.63672 27.5133 8.63672 27.2752V19.2266" stroke="#3A3A3A" stroke-width="0.513746" stroke-linecap="round" stroke-linejoin="round"/>
<path d="M4.61328 16.9062L4.78453 17.0124" stroke="#3A3A3A" stroke-width="0.513746" stroke-linecap="round" stroke-linejoin="round"/>
<path d="M6.84982 18.1984V24.4918C6.84739 24.5787 6.82749 24.6643 6.7913 24.7435C6.75512 24.8226 6.70339 24.8937 6.63919 24.9524C6.62677 24.9668 6.61301 24.98 6.59809 24.9918C6.57069 25.0158 6.53815 25.0398 6.50561 25.0654C6.47269 25.0897 6.43838 25.112 6.40286 25.1322C6.36675 25.1555 6.32897 25.1761 6.28984 25.1939C6.20349 25.2357 6.11421 25.2712 6.02269 25.3001C5.95933 25.3206 5.89597 25.3377 5.82918 25.3531C5.25005 25.4944 4.63937 25.4214 4.10985 25.1476C3.79646 24.9661 3.64062 24.7298 3.64062 24.4918V16.3438" stroke="#3A3A3A" stroke-width="0.513746" stroke-linecap="round" stroke-linejoin="round"/>
<path d="M22.3603 19.2109V27.2733C22.3603 27.5114 22.2028 27.7477 21.8894 27.9292C21.3589 28.2038 20.7469 28.2768 20.1666 28.1347C20.1204 28.1244 20.0725 28.1124 20.0262 28.0987C19.9161 28.067 19.8089 28.0258 19.706 27.9754C19.6478 27.9463 19.5912 27.9155 19.5347 27.883C19.4693 27.8403 19.4085 27.7909 19.3532 27.7357C19.2891 27.6765 19.2375 27.6051 19.2013 27.5257C19.1651 27.4463 19.1452 27.3605 19.1426 27.2733V21.033" stroke="#3A3A3A" stroke-width="0.513746" stroke-linecap="round" stroke-linejoin="round"/>
<path d="M27.3064 16.4062V24.496C27.3046 24.583 27.2852 24.6687 27.2493 24.7479C27.2134 24.8271 27.1617 24.8981 27.0974 24.9567C27.085 24.9711 27.0713 24.9843 27.0564 24.9961C26.996 25.0483 26.9312 25.0953 26.8628 25.1365C26.8269 25.1588 26.7875 25.1793 26.7498 25.1982C26.6626 25.2407 26.5721 25.2762 26.4792 25.3043C26.4176 25.3249 26.3542 25.342 26.2874 25.3574C25.7072 25.4988 25.0954 25.4258 24.5647 25.1519C24.253 24.9704 24.0938 24.7341 24.0938 24.496V18.23" stroke="#3A3A3A" stroke-width="0.513746" stroke-linecap="round" stroke-linejoin="round"/>
<path d="M13.5938 17.7188L13.7205 17.9174" stroke="#3A3A3A" stroke-width="0.513746" stroke-linecap="round" stroke-linejoin="round"/>
<path d="M12.5508 16.1016C12.5987 16.1769 12.6467 16.2505 12.6946 16.3225" stroke="#3A3A3A" stroke-width="0.513746" stroke-linecap="round" stroke-linejoin="round"/>
<path d="M15.425 23.1484L14.4317 22.5782C14.4255 22.5764 14.4197 22.5735 14.4146 22.5696L14.3392 22.5268L14.305 22.5062L14.2776 22.4908L14.2365 22.4686L13.8717 22.2477H13.8615C13.7553 22.1911 3.91021 16.504 3.86739 16.4783C3.86188 16.4755 3.85671 16.472 3.85198 16.468C3.78177 16.4303 3.71498 16.3892 3.64648 16.3516" stroke="#3A3A3A" stroke-width="0.513746" stroke-linecap="round" stroke-linejoin="round"/>
<path d="M3.63724 16.3415L0.277344 14.3995V11.788L15.4277 3.18788L22.9969 0.257812" stroke="#3A3A3A" stroke-width="0.513746" stroke-linecap="round" stroke-linejoin="round"/>
<path d="M7.85263 8.85938L0.285156 11.7912" stroke="#3A3A3A" stroke-width="0.513746" stroke-linecap="round" stroke-linejoin="round"/>
<path d="M12.0834 6.45312L11.9121 6.55416" stroke="#3A3A3A" stroke-width="0.513746" stroke-linecap="round" stroke-linejoin="round"/>
<path d="M15.4242 20.5336L7.85156 8.85449C7.88924 8.83052 22.8632 0.334874 22.9968 0.257812L30.5694 11.9353" stroke="#3A3A3A" stroke-width="0.513746" stroke-linecap="round" stroke-linejoin="round"/>
<path d="M30.5691 11.9375V14.549L16.2955 22.6508L16.2681 22.6679L16.2184 22.6953L16.1003 22.7621L16.0266 22.8032L15.4238 23.1457V20.5359C15.4838 20.5016 28.0055 13.3948 30.5691 11.9375Z" stroke="#3A3A3A" stroke-width="0.513746" stroke-linecap="round" stroke-linejoin="round"/>
<path d="M13.414 19.9512L7.52473 10.875L1.64062 13.1543L13.414 19.9512Z" stroke="#3A3A3A" stroke-width="0.513746" stroke-linecap="round" stroke-linejoin="round"/>
</svg>
