<svg width="24" height="24" viewBox="0 0 24 24" fill="none" xmlns="http://www.w3.org/2000/svg">
<path d="M12.0004 13.847C11.8704 13.847 11.7404 13.817 11.6304 13.747C11.2704 13.537 11.1504 13.077 11.3504 12.727L12.2004 11.247H11.3604C10.8604 11.247 10.4504 11.027 10.2304 10.657C10.0104 10.277 10.0304 9.81697 10.2804 9.37697L11.3504 7.51697C11.5604 7.15697 12.0204 7.03697 12.3704 7.23697C12.7304 7.44697 12.8504 7.90697 12.6504 8.25697L11.8004 9.74697H12.6404C13.1404 9.74697 13.5504 9.96697 13.7704 10.337C13.9904 10.717 13.9704 11.177 13.7204 11.617L12.6504 13.477C12.5104 13.717 12.2604 13.847 12.0004 13.847Z" fill="#334155"/>
<path d="M14.7691 19.7483H9.25914C8.81914 19.7483 8.25914 19.6983 7.88914 19.3183C7.52914 18.9483 7.53914 18.4883 7.54914 18.1783V17.2883C5.02914 15.6083 3.36914 12.6883 3.36914 9.90834C3.36914 7.27834 4.54914 4.81834 6.59914 3.16834C8.64914 1.51834 11.3391 0.898338 13.9691 1.47834C16.4691 2.02834 18.6291 3.69834 19.7491 5.94834C21.9191 10.3183 19.8291 15.0483 16.4891 17.2983V18.0483C16.4991 18.3383 16.5091 18.8683 16.0991 19.2883C15.7891 19.5883 15.3491 19.7483 14.7691 19.7483ZM9.03914 18.2383C9.08914 18.2383 9.15914 18.2483 9.24914 18.2483H14.7691C14.8691 18.2483 14.9391 18.2383 14.9791 18.2283C14.9791 18.1983 14.9791 18.1583 14.9791 18.1283V16.8683C14.9791 16.6083 15.1191 16.3583 15.3391 16.2283C18.2991 14.4383 20.2591 10.3483 18.3891 6.59834C17.4691 4.74834 15.6891 3.37834 13.6291 2.92834C11.4491 2.44834 9.21914 2.95834 7.51914 4.32834C5.81914 5.69834 4.84914 7.72834 4.84914 9.90834C4.84914 12.6883 6.76914 15.0883 8.66914 16.2383C8.89914 16.3783 9.02914 16.6183 9.02914 16.8783V18.2283C9.03914 18.2283 9.03914 18.2283 9.03914 18.2383Z" fill="#334155"/>
<mask id="path-3-inside-1_4418_29387" fill="white">
<path d="M15.4993 22.7475C15.4293 22.7475 15.3593 22.7375 15.2893 22.7175C13.1293 22.0975 10.8593 22.0975 8.69928 22.7175C8.29928 22.8275 7.88928 22.5975 7.76928 22.1975C7.64928 21.7975 7.88928 21.3875 8.28928 21.2675C10.7093 20.5775 13.2793 20.5775 15.6993 21.2675C16.0993 21.3775 16.3293 21.7975 16.2193 22.1975C16.1293 22.5375 15.8293 22.7475 15.4993 22.7475Z"/>
</mask>
<path d="M15.4993 22.7475C15.4293 22.7475 15.3593 22.7375 15.2893 22.7175C13.1293 22.0975 10.8593 22.0975 8.69928 22.7175C8.29928 22.8275 7.88928 22.5975 7.76928 22.1975C7.64928 21.7975 7.88928 21.3875 8.28928 21.2675C10.7093 20.5775 13.2793 20.5775 15.6993 21.2675C16.0993 21.3775 16.3293 21.7975 16.2193 22.1975C16.1293 22.5375 15.8293 22.7475 15.4993 22.7475Z" fill="#292D32"/>
<path d="M15.2893 22.7175L14.8409 24.2794L14.8429 24.28L15.2893 22.7175ZM8.69928 22.7175L9.13016 24.2843L9.1389 24.2819L9.14761 24.2794L8.69928 22.7175ZM8.28928 21.2675L7.84371 19.7048L7.833 19.7078L7.82234 19.711L8.28928 21.2675ZM15.6993 21.2675L15.2537 22.8302L15.261 22.8323L15.2684 22.8343L15.6993 21.2675ZM16.2193 22.1975L14.6524 21.7666L14.6504 21.7741L14.6484 21.7817L16.2193 22.1975ZM15.4993 22.7475V21.1225C15.5862 21.1225 15.6664 21.1352 15.7357 21.155L15.2893 22.7175L14.8429 24.28C15.0522 24.3398 15.2723 24.3725 15.4993 24.3725V22.7475ZM15.2893 22.7175L15.7376 21.1556C13.2846 20.4515 10.7039 20.4515 8.25095 21.1556L8.69928 22.7175L9.14761 24.2794C11.0146 23.7435 12.9739 23.7435 14.8409 24.2794L15.2893 22.7175ZM8.69928 22.7175L8.2684 21.1507C8.73355 21.0227 9.19623 21.2988 9.32575 21.7306L7.76928 22.1975L6.21281 22.6644C6.58233 23.8962 7.86501 24.6322 9.13016 24.2843L8.69928 22.7175ZM7.76928 22.1975L9.32575 21.7306C9.48277 22.254 9.15061 22.7057 8.75622 22.824L8.28928 21.2675L7.82234 19.711C6.62795 20.0693 5.81578 21.341 6.21281 22.6644L7.76928 22.1975ZM8.28928 21.2675L8.73485 22.8302C10.8636 22.2233 13.125 22.2233 15.2537 22.8302L15.6993 21.2675L16.1448 19.7048C13.4336 18.9317 10.555 18.9317 7.84371 19.7048L8.28928 21.2675ZM15.6993 21.2675L15.2684 22.8343C14.7739 22.6983 14.5326 22.2025 14.6524 21.7666L16.2193 22.1975L17.7861 22.6284C18.126 21.3925 17.4247 20.0567 16.1302 19.7007L15.6993 21.2675ZM16.2193 22.1975L14.6484 21.7817C14.7579 21.3679 15.1352 21.1225 15.4993 21.1225V22.7475V24.3725C16.5234 24.3725 17.5007 23.7071 17.7902 22.6133L16.2193 22.1975Z" fill="#334155" mask="url(#path-3-inside-1_4418_29387)"/>
</svg>
