<svg width="48" height="35" viewBox="0 0 48 35" fill="none" xmlns="http://www.w3.org/2000/svg">
<path d="M24.3152 13.5445C14.8133 13.559 8.4863 17.9588 8.98618 22.6787L12.7704 22.0177L8.4326 26.7005L0.310547 24.1928L4.23524 23.5091C2.89258 17.0582 11.246 10.8571 24.1066 10.7188L24.3152 13.5445Z" fill="#C2C7CC"/>
<path d="M8.42446 27.0155C8.39358 27.0156 8.36289 27.0107 8.33357 27.0011L0.21978 24.4954C0.152332 24.4742 0.0940172 24.4309 0.0542792 24.3724C0.0145412 24.3139 -0.00429382 24.2437 0.000823815 24.1732C0.00535808 24.1039 0.0330811 24.038 0.0795366 23.9863C0.125992 23.9346 0.188482 23.9001 0.256962 23.8882L3.86768 23.2561C3.52892 21.1657 4.15274 19.069 5.6813 17.1707C9.01729 13.0312 15.9062 10.5029 24.1046 10.4141C24.1829 10.4143 24.2582 10.444 24.3156 10.4972C24.373 10.5504 24.4083 10.6232 24.4145 10.7012L24.621 13.527C24.6242 13.5695 24.6185 13.6122 24.6042 13.6523C24.59 13.6925 24.5676 13.7293 24.5384 13.7604C24.5093 13.7916 24.4742 13.8164 24.4351 13.8335C24.396 13.8506 24.3538 13.8594 24.3112 13.8595C18.4448 13.8595 13.4129 15.5761 10.8516 18.4287C9.76918 19.6288 9.22592 20.9756 9.27136 22.3141L12.7168 21.711C12.7808 21.6996 12.8468 21.7086 12.9054 21.7368C12.964 21.7649 13.0123 21.8108 13.0434 21.868C13.0745 21.9251 13.0868 21.9905 13.0786 22.055C13.0704 22.1195 13.0421 22.1798 12.9978 22.2274L8.65994 26.9102C8.63047 26.9435 8.59421 26.9702 8.5536 26.9883C8.51298 27.0065 8.46895 27.0158 8.42446 27.0155ZM1.6306 24.2827L8.3315 26.3483L11.9174 22.4815L9.04001 22.9855C8.99791 22.9927 8.95479 22.9912 8.91325 22.9813C8.87171 22.9714 8.83262 22.9531 8.79833 22.9276C8.76561 22.9029 8.73816 22.8719 8.71758 22.8364C8.69701 22.801 8.68373 22.7618 8.67853 22.7211C8.50501 21.0872 9.09165 19.4594 10.393 18.0176C13.0143 15.0844 18.0854 13.3142 23.9828 13.2419L23.8196 11.0379C16.0446 11.1804 9.29615 13.6695 6.16259 17.5632C4.67947 19.4078 4.11556 21.4425 4.53281 23.4482C4.54119 23.4889 4.54134 23.5309 4.53325 23.5717C4.52516 23.6125 4.50899 23.6512 4.4857 23.6857C4.46242 23.7201 4.43248 23.7496 4.39764 23.7723C4.36281 23.795 4.32379 23.8105 4.28287 23.8179L1.6306 24.2827Z" fill="#373A3A"/>
<path d="M35.3682 9.37481V12.2667C35.3591 12.6326 35.2761 12.9928 35.1242 13.3258C34.9722 13.6588 34.7545 13.9576 34.4841 14.2043C34.4193 14.2573 34.3502 14.305 34.2776 14.3468L26.517 18.8292C25.3148 19.5232 24.3398 18.7858 24.3398 17.1767C24.3592 16.3314 24.5779 15.5026 24.9781 14.7578C25.3219 14.0479 25.8543 13.4462 26.517 13.0186L34.2776 8.53617C34.3433 8.49928 34.4125 8.46885 34.4841 8.44528C34.9882 8.29862 35.3682 8.6787 35.3682 9.37481ZM27.0045 16.902C27.3208 16.6979 27.5845 16.4221 27.774 16.0969C27.9635 15.7717 28.0736 15.4063 28.0952 15.0305C28.0952 14.3406 27.6118 14.0617 27.0148 14.4108C26.7013 14.6142 26.44 14.8884 26.252 15.2113C26.064 15.5342 25.9545 15.8969 25.9324 16.2699C25.9221 16.966 26.4055 17.2469 27.0045 16.902Z" fill="#C2C7CC"/>
<path d="M34.4812 14.2118V20.5119L20.1251 28.7992C18.9766 29.4623 17.2333 29.5346 16.2418 28.9603C15.7894 28.7001 15.5684 28.3407 15.5684 27.9854V9.87188C15.5684 10.2354 15.7894 10.5845 16.2418 10.8448C17.2374 11.4211 18.9766 11.3488 20.1251 10.6857L34.4812 2.39844V8.46106C34.4096 8.48462 34.3404 8.51506 34.2747 8.55194L26.5141 13.0344C25.8514 13.462 25.319 14.0637 24.9752 14.7736C24.575 15.5184 24.3563 16.3472 24.3369 17.1925C24.3369 18.7933 25.3119 19.5308 26.5141 18.845L34.2747 14.3626C34.3476 14.3181 34.4167 14.2677 34.4812 14.2118Z" fill="white"/>
<path d="M34.4812 2.39672L20.1251 10.684C18.9766 11.3471 17.2333 11.4194 16.2418 10.8431C15.7894 10.5828 15.5684 10.2337 15.5684 9.87016C15.5684 9.42812 15.8906 8.96542 16.5206 8.5998L30.8747 0.3125C31.3745 1.24203 32.4693 1.81834 34.4812 2.39672Z" fill="#FF4F4F"/>
<path d="M28.0924 15.0316C28.072 15.4064 27.9635 15.7712 27.7758 16.0964C27.5881 16.4215 27.3265 16.6979 27.0121 16.903C26.413 17.248 25.9297 16.9671 25.9297 16.2833C25.9518 15.9103 26.0612 15.5477 26.2492 15.2248C26.4373 14.9018 26.6986 14.6276 27.0121 14.4243C27.5987 14.0628 28.0924 14.3416 28.0924 15.0316Z" fill="#373A3A"/>
<path d="M17.9346 11.5422C17.292 11.5588 16.656 11.4094 16.088 11.1085C15.553 10.8007 15.2617 10.3586 15.2617 9.86908C15.2617 9.29897 15.6645 8.73918 16.3689 8.33225L30.7209 0.0408217C30.7569 0.0203259 30.7966 0.00721242 30.8378 0.00224714C30.8789 -0.00271815 30.9206 0.000564348 30.9605 0.0119029C31.0004 0.0229906 31.0377 0.0420745 31.07 0.0679958C31.1023 0.0939172 31.129 0.126135 31.1485 0.162694C31.5822 0.97242 32.5407 1.51361 34.5691 2.09406C34.6275 2.11102 34.6795 2.14475 34.7188 2.19106C34.7581 2.23737 34.783 2.29422 34.7902 2.35452C34.7975 2.41483 34.7869 2.47594 34.7597 2.53026C34.7325 2.58458 34.6899 2.62971 34.6373 2.66004L20.2812 10.9473C19.5627 11.3428 18.7548 11.5477 17.9346 11.5422ZM30.7787 0.728676L16.6767 8.86518C16.1706 9.1585 15.8793 9.52412 15.8793 9.86701C15.8793 10.2099 16.1623 10.4351 16.3978 10.5714C17.2902 11.0878 18.9261 11.0155 19.9714 10.4123L33.7098 2.47826C32.1503 1.97632 31.2703 1.44545 30.7787 0.728676Z" fill="#373A3A"/>
<path d="M34.4817 8.76824C34.3995 8.76824 34.3207 8.7356 34.2626 8.67749C34.2045 8.61939 34.1719 8.54058 34.1719 8.4584V2.39578C34.1719 2.31361 34.2045 2.2348 34.2626 2.17669C34.3207 2.11858 34.3995 2.08594 34.4817 2.08594C34.5639 2.08594 34.6427 2.11858 34.7008 2.17669C34.7589 2.2348 34.7916 2.31361 34.7916 2.39578V8.4584C34.7916 8.54058 34.7589 8.61939 34.7008 8.67749C34.6427 8.7356 34.5639 8.76824 34.4817 8.76824Z" fill="#373A3A"/>
<path d="M17.9346 29.6611C17.2923 29.6773 16.6565 29.5287 16.088 29.2293C15.553 28.9216 15.2617 28.4816 15.2617 27.99V9.87234C15.2617 9.79017 15.2944 9.71136 15.3525 9.65325C15.4106 9.59514 15.4894 9.5625 15.5716 9.5625C15.6537 9.5625 15.7325 9.59514 15.7907 9.65325C15.8488 9.71136 15.8814 9.79017 15.8814 9.87234V27.9879C15.8814 28.2502 16.0652 28.5002 16.3999 28.6923C17.2922 29.2066 18.9282 29.1343 19.9734 28.5312L34.1746 20.3327V14.2122C34.1746 14.1301 34.2073 14.0512 34.2654 13.9931C34.3235 13.935 34.4023 13.9024 34.4845 13.9024C34.5666 13.9024 34.6454 13.935 34.7035 13.9931C34.7617 14.0512 34.7943 14.1301 34.7943 14.2122V20.5124C34.7943 20.5668 34.78 20.6203 34.7528 20.6674C34.7256 20.7146 34.6865 20.7537 34.6394 20.7809L20.2812 29.0682C19.5625 29.463 18.7546 29.6671 17.9346 29.6611Z" fill="#373A3A"/>
<path d="M25.6468 19.4023C25.3968 19.404 25.1508 19.3391 24.9342 19.2144C24.3578 18.8818 24.0273 18.1423 24.0273 17.1859C24.0458 16.2902 24.2766 15.4116 24.7007 14.6225C25.0696 13.8622 25.6415 13.2188 26.3532 12.7634L34.1159 8.27892C34.2009 8.23024 34.291 8.19077 34.3844 8.16118C34.5212 8.11295 34.6676 8.09811 34.8113 8.11787C34.955 8.13763 35.0919 8.19143 35.2107 8.27478C35.504 8.48135 35.6651 8.87795 35.6651 9.37163V12.2635C35.6574 12.675 35.565 13.0805 35.3937 13.4547C35.2224 13.8289 34.9759 14.1638 34.6695 14.4386C34.5915 14.5038 34.5078 14.5619 34.4195 14.6121L26.659 19.0945C26.3543 19.2839 26.0053 19.39 25.6468 19.4023ZM34.7025 8.72716C34.6582 8.72798 34.6143 8.73564 34.5724 8.74988C34.5213 8.76584 34.4721 8.78731 34.4257 8.81391L26.6652 13.2963C26.0528 13.6933 25.5617 14.2516 25.2461 14.9096C24.8686 15.6088 24.6619 16.3874 24.6429 17.1818C24.6429 17.9109 24.8619 18.4542 25.2399 18.6732C25.6179 18.8921 26.0537 18.731 26.3553 18.5575L34.1159 14.0751C34.1742 14.0422 34.2295 14.0042 34.2811 13.9615C34.516 13.7439 34.705 13.4816 34.8373 13.1901C34.9696 12.8985 35.0425 12.5835 35.0516 12.2635V9.37163C35.0624 9.26311 35.0495 9.15354 35.0139 9.05047C34.9782 8.94741 34.9206 8.85331 34.845 8.77467C34.8037 8.74422 34.7538 8.72759 34.7025 8.72716Z" fill="#373A3A"/>
<path d="M26.5196 17.352C26.3666 17.3529 26.2162 17.313 26.0838 17.2363C25.9264 17.1327 25.7998 16.9887 25.7173 16.8193C25.6348 16.6499 25.5994 16.4615 25.6149 16.2737C25.6352 15.8442 25.7583 15.4258 25.974 15.0537C26.1897 14.6817 26.4916 14.3669 26.8542 14.1358C27.0051 14.0169 27.1882 13.946 27.3798 13.9322C27.5714 13.9184 27.7628 13.9624 27.9291 14.0584C28.0955 14.1545 28.2292 14.2983 28.313 14.4711C28.3969 14.644 28.4269 14.838 28.3993 15.0282C28.3783 15.4578 28.2549 15.8763 28.0393 16.2485C27.8237 16.6208 27.5222 16.9361 27.16 17.1681C26.9663 17.2844 26.7455 17.3478 26.5196 17.352ZM27.4843 14.5593C27.3682 14.5671 27.2559 14.604 27.1579 14.6667C26.8901 14.8448 26.6674 15.0827 26.5071 15.3616C26.3469 15.6404 26.2536 15.9527 26.2346 16.2737C26.2059 16.3539 26.2063 16.4416 26.2357 16.5215C26.2651 16.6014 26.3216 16.6684 26.3953 16.7109C26.4691 16.7535 26.5554 16.7688 26.6392 16.7542C26.7231 16.7396 26.7992 16.696 26.8542 16.6311C27.1217 16.4535 27.3445 16.2163 27.5051 15.9382C27.6656 15.6601 27.7596 15.3486 27.7796 15.0282C27.7903 14.9485 27.7812 14.8674 27.7531 14.7922C27.725 14.7169 27.6788 14.6496 27.6185 14.5964C27.5776 14.5737 27.531 14.563 27.4843 14.5655V14.5593Z" fill="#373A3A"/>
<path d="M23.627 31.8669C33.1392 31.8525 39.4579 27.4527 38.958 22.7327L35.1717 23.3937L39.5096 18.7109L47.6234 21.2165L43.6987 21.9023C45.0372 28.3512 36.6755 34.5543 23.8191 34.6906L23.627 31.8669Z" fill="#C2C7CC"/>
<path d="M23.8337 35.0071C23.7557 35.0068 23.6806 34.977 23.6236 34.9238C23.5665 34.8706 23.5316 34.7978 23.5259 34.7199L23.3194 31.8962C23.3159 31.8538 23.3213 31.8111 23.3353 31.7708C23.3492 31.7306 23.3713 31.6937 23.4002 31.6624C23.4292 31.6311 23.4643 31.6062 23.5033 31.5892C23.5424 31.5722 23.5845 31.5635 23.6271 31.5637C29.4935 31.5637 34.5275 29.8471 37.0888 26.9945C38.1754 25.7861 38.7186 24.4476 38.6732 23.1029L35.2256 23.706C35.1616 23.7174 35.0956 23.7084 35.037 23.6802C34.9784 23.6521 34.9302 23.6062 34.8991 23.549C34.868 23.4919 34.8557 23.4265 34.8639 23.362C34.8721 23.2975 34.9004 23.2372 34.9447 23.1896L39.2825 18.5048C39.3222 18.4622 39.3731 18.4317 39.4294 18.4167C39.4857 18.4017 39.545 18.4029 39.6006 18.4201L47.7144 20.9277C47.7808 20.9484 47.8383 20.9908 47.8777 21.0482C47.917 21.1055 47.9359 21.1744 47.9314 21.2437C47.9269 21.3131 47.8992 21.379 47.8527 21.4307C47.8062 21.4824 47.7437 21.517 47.6752 21.5288L44.0665 22.1485C44.4032 24.2389 43.7794 26.3376 42.2529 28.2359C38.9149 32.3817 32.028 34.91 23.8296 34.9967L23.8337 35.0071ZM23.9597 32.1813L24.1229 34.3832C31.8958 34.2428 38.6443 31.7516 41.7778 27.8579C43.263 26.0133 43.8269 23.9787 43.4097 21.9709C43.4013 21.9301 43.4013 21.8881 43.4094 21.8473C43.4176 21.8065 43.4338 21.7678 43.4572 21.7333C43.4809 21.6987 43.5115 21.6693 43.547 21.6469C43.5825 21.6245 43.6222 21.6097 43.6637 21.6032L46.3139 21.1405L39.6151 19.0749L36.023 22.9355L38.9025 22.4336C38.9443 22.4263 38.9872 22.4276 39.0284 22.4376C39.0697 22.4475 39.1085 22.4659 39.1424 22.4914C39.1763 22.517 39.2046 22.5493 39.2255 22.5862C39.2464 22.6232 39.2595 22.664 39.2639 22.7063C39.4375 24.3402 38.8508 25.9658 37.5474 27.4097C34.9199 30.3346 29.8571 32.1069 23.9597 32.1813Z" fill="#373A3A"/>
</svg>
