<svg width="20" height="20" viewBox="0 0 20 20" fill="none" xmlns="http://www.w3.org/2000/svg">
<path d="M6.04223 9.9974C6.04223 9.65573 6.32556 9.3724 6.66723 9.3724H9.16723V6.2474C9.16723 5.78906 8.79223 5.41406 8.3339 5.41406H6.47556C3.85056 5.41406 1.56723 7.56406 1.66723 10.1807C1.71723 11.3724 2.21723 12.4474 3.0089 13.2391C3.84223 14.0641 4.98389 14.5807 6.25056 14.5807H8.3339C8.79223 14.5807 9.16723 14.2057 9.16723 13.7474V10.6224H6.66723C6.32556 10.6224 6.04223 10.3391 6.04223 9.9974Z" fill="#334155"/>
<path d="M16.9923 6.75573C16.159 5.93073 15.0173 5.41406 13.7507 5.41406H11.6673C11.209 5.41406 10.834 5.78906 10.834 6.2474V9.3724H13.334C13.6757 9.3724 13.959 9.65573 13.959 9.9974C13.959 10.3391 13.6757 10.6224 13.334 10.6224H10.834V13.7474C10.834 14.2057 11.209 14.5807 11.6673 14.5807H13.5257C16.1507 14.5807 18.434 12.4307 18.3257 9.81406C18.284 8.6224 17.7757 7.5474 16.9923 6.75573Z" fill="#292D32"/>
<path d="M10.8327 9.375H9.16602V10.625H10.8327V9.375Z" fill="#292D32"/>
</svg>

