<svg width="33" height="36" viewBox="0 0 33 36" fill="none" xmlns="http://www.w3.org/2000/svg">
<path d="M26.7441 35.2478L32.133 32.1369L31.6708 30.1765C31.4398 29.1969 31.0109 28.2748 30.4104 27.467C29.8099 26.6592 29.0506 25.9828 28.179 25.4793L19.1105 20.25L13.7266 23.3543L22.7918 28.5969C23.6632 29.0997 24.4225 29.7756 25.023 30.5828C25.6235 31.39 26.0525 32.3116 26.2835 33.2908L26.7441 35.2478Z" fill="#5F646B" stroke="#373A3A" stroke-width="0.49882" stroke-linecap="round" stroke-linejoin="round"/>
<path d="M9.55433 0.25L2.97656 11.643L6.86237 9.40002V23.3437L12.2463 20.236V6.29071L16.1321 4.04768L9.55433 0.25Z" fill="#5F646B" stroke="#373A3A" stroke-width="0.49882" stroke-linecap="round" stroke-linejoin="round"/>
<path d="M0.25 23.2266V25.3765L11.392 31.8096V29.658L0.25 23.2266Z" fill="white"/>
<path d="M0.25 21.1406V23.229L11.392 29.6605V27.5737L0.25 21.1406Z" fill="white"/>
<path d="M0.25 18.9766V21.1414L11.392 27.5746V25.408L0.25 18.9766Z" fill="white"/>
<path d="M0.25 18.9771L11.3903 25.4103L32.0082 13.5051L20.8679 7.07031L0.25 18.9771ZM13.4687 17.7733C12.0005 16.9287 12.0005 15.5519 13.4687 14.7056C14.9369 13.8593 17.3179 13.8593 18.7895 14.7056C20.261 15.5519 20.2577 16.9287 18.7895 17.7733C17.3213 18.618 14.9419 18.623 13.4687 17.7733Z" fill="white"/>
<path d="M11.3926 29.663V31.8146L32.0154 19.9094V17.7578L11.3926 29.663Z" fill="#C2C7CC"/>
<path d="M11.3926 27.577V29.6638L32.0154 17.7586V15.6719L11.3926 27.577Z" fill="#C2C7CC"/>
<path d="M11.3926 25.4035V27.57L32.0154 15.6649V13.5L11.3926 25.4035Z" fill="#C2C7CC"/>
<path d="M13.4683 14.7051C12.0001 15.5514 12.0001 16.9281 13.4683 17.7728C14.9365 18.6175 17.3176 18.6241 18.7891 17.7728C20.2606 16.9215 20.2573 15.5514 18.7891 14.7051C17.3209 13.8587 14.9415 13.8587 13.4683 14.7051Z" fill="#FF4F4F"/>
<path d="M23.2294 10.5041L20.8717 9.14062L18.4707 10.529" stroke="#373A3A" stroke-width="0.49882" stroke-linecap="round" stroke-linejoin="round"/>
<path d="M26.0706 12.1406L28.4283 13.5024L26.0273 14.8891" stroke="#373A3A" stroke-width="0.49882" stroke-linecap="round" stroke-linejoin="round"/>
<path d="M6.22528 17.5938L3.83594 18.9738L6.19203 20.3339" stroke="#373A3A" stroke-width="0.49882" stroke-linecap="round" stroke-linejoin="round"/>
<path d="M13.7839 21.9609L11.3929 23.341L9.03516 21.9792" stroke="#373A3A" stroke-width="0.49882" stroke-linecap="round" stroke-linejoin="round"/>
<path d="M13.4683 17.7728C12.0001 16.9281 12.0001 15.5514 13.4683 14.7051C14.9365 13.8587 17.3176 13.8587 18.7891 14.7051C20.2606 15.5514 20.2573 16.9281 18.7891 17.7728C17.3209 18.6175 14.9415 18.6225 13.4683 17.7728Z" stroke="#373A3A" stroke-width="0.49882" stroke-linecap="round" stroke-linejoin="round"/>
<path d="M11.392 25.4086L32.0148 13.5051L20.8712 7.07031L0.25 18.9771L11.392 25.4086Z" stroke="#373A3A" stroke-width="0.49882" stroke-linecap="round" stroke-linejoin="round"/>
<path d="M32.0148 13.5V19.9032L11.392 31.8083L0.25 25.3752V18.9721" stroke="#373A3A" stroke-width="0.49882" stroke-linecap="round" stroke-linejoin="round"/>
<path d="M32.0148 17.7578L11.392 29.663L0.25 23.2315" stroke="#373A3A" stroke-width="0.49882" stroke-linecap="round" stroke-linejoin="round"/>
<path d="M32.0148 15.6719L11.392 27.577L0.25 21.1439" stroke="#373A3A" stroke-width="0.49882" stroke-linecap="round" stroke-linejoin="round"/>
<path d="M11.3926 25.4062V31.8094" stroke="#373A3A" stroke-width="0.49882" stroke-linecap="round" stroke-linejoin="round"/>
</svg>
