<svg width="43" height="25" viewBox="0 0 43 25" fill="none" xmlns="http://www.w3.org/2000/svg">
<path d="M12.8882 12.7311L6.64155 16.3394L0.392578 12.7311L6.64155 9.125L12.8882 12.7311Z" fill="white"/>
<path fill-rule="evenodd" clip-rule="evenodd" d="M6.64343 16.6875C6.58198 16.6875 6.52438 16.6714 6.47061 16.6391L0.221643 13.0331C0.11565 12.9708 0.0488281 12.8579 0.0488281 12.7335C0.0488281 12.6114 0.11565 12.4962 0.221643 12.434L6.47061 8.82791C6.57661 8.7657 6.70795 8.7657 6.81624 8.82791L13.0629 12.434C13.1689 12.4962 13.2357 12.6114 13.2357 12.7335C13.2357 12.8579 13.1689 12.9708 13.0629 13.0331L6.81624 16.6391C6.76094 16.6714 6.70334 16.6875 6.64343 16.6875ZM1.08572 12.7335L6.64343 15.941L12.1988 12.7335L6.64343 9.52607L1.08572 12.7335Z" fill="#3A3A3A"/>
<path d="M41.7007 12.7311L35.4517 16.3394L29.2051 12.7311L35.4517 9.125L41.7007 12.7311Z" fill="white"/>
<path fill-rule="evenodd" clip-rule="evenodd" d="M35.4517 16.6875C35.3918 16.6875 35.3342 16.6714 35.2789 16.6391L29.0322 13.0331C28.9262 12.9708 28.8594 12.8579 28.8594 12.7335C28.8594 12.6114 28.9262 12.4962 29.0322 12.434L35.2789 8.82791C35.3872 8.7657 35.5185 8.7657 35.6245 8.82791L41.8735 12.434C41.9795 12.4962 42.0463 12.6114 42.0463 12.7335C42.0463 12.8579 41.9795 12.9708 41.8735 13.0331L35.6245 16.6391C35.5707 16.6714 35.5131 16.6875 35.4517 16.6875ZM29.8963 12.7335L35.4517 15.941L41.0094 12.7335L35.4517 9.52607L29.8963 12.7335Z" fill="#3A3A3A"/>
<path d="M21.0468 24.9979C20.9869 24.9979 20.9293 24.9825 20.874 24.9518L17.8716 23.2167C17.7656 23.1568 17.6758 22.9315 17.6758 22.8094C17.6758 22.685 17.685 22.4108 17.791 22.3486C17.9223 22.2726 18.1666 22.56 18.2772 22.6522L21.0468 24.2536L23.8395 22.6407C24.0054 22.5462 24.2634 22.298 24.3579 22.4639C24.4547 22.6298 24.351 23.143 24.1851 23.2398L21.2196 24.9518C21.1659 24.9825 21.1083 24.9979 21.0468 24.9979Z" fill="#3A3A3A"/>
<path d="M21.0498 0.804688L27.2964 4.41305L21.0498 8.01912L14.8008 4.41305L21.0498 0.804688Z" fill="white"/>
<path fill-rule="evenodd" clip-rule="evenodd" d="M21.0454 8.36548C20.9855 8.36548 20.9279 8.35012 20.8726 8.3194L14.6259 4.71102C14.5199 4.65111 14.4531 4.53591 14.4531 4.41379C14.4531 4.28936 14.5199 4.17646 14.6259 4.11424L20.8749 0.505869C20.9809 0.44596 21.1122 0.44596 21.2205 0.505869L27.4672 4.11424C27.5732 4.17646 27.64 4.28936 27.64 4.41379C27.64 4.53591 27.5732 4.65111 27.4672 4.71102L21.2182 8.3194C21.1645 8.35012 21.1069 8.36548 21.0454 8.36548ZM15.49 4.41379L21.0454 7.62122L26.6031 4.41379L21.0477 1.20635L15.49 4.41379Z" fill="#3A3A3A"/>
<path d="M14.7733 21.2572C14.7134 21.2587 14.6558 21.2433 14.6005 21.2111L8.70406 17.8078C8.59807 17.7456 8.53125 17.6327 8.53125 17.5082C8.53125 17.3861 8.59807 17.2709 8.70406 17.2087L29.3657 5.27988C29.5317 5.18541 29.7436 5.24301 29.8381 5.40661C29.9349 5.57251 29.8773 5.78449 29.7114 5.87896L9.56814 17.5082L14.9461 20.612C15.112 20.7088 15.1673 20.9208 15.0729 21.0843C15.0083 21.1973 14.8931 21.2572 14.7733 21.2572Z" fill="#3A3A3A"/>
<path d="M28.8692 18.3388C28.8093 18.3388 28.7516 18.3234 28.6963 18.2927L26.3115 16.9148C26.2032 16.8549 26.1387 16.7397 26.1387 16.6175C26.1387 16.4931 26.2032 16.3779 26.3115 16.318L28.2954 15.1705C28.4613 15.076 28.6733 15.1336 28.7678 15.2972C28.8622 15.4631 28.8069 15.6751 28.641 15.7696L27.1756 16.6175L29.042 17.6936C29.2079 17.7904 29.2632 18.0024 29.1687 18.166C29.1042 18.2766 28.989 18.3388 28.8692 18.3388Z" fill="#3A3A3A"/>
<path d="M30.1014 19.8861C29.9816 19.8861 29.8664 19.8239 29.8019 19.7133C29.7074 19.5474 29.7627 19.3377 29.9286 19.241L33.007 17.4644L30.5231 16.0289C30.3572 15.9322 30.2996 15.7202 30.3964 15.5566C30.4908 15.3907 30.7028 15.3331 30.8687 15.4298L33.8711 17.1649C33.9794 17.2248 34.0439 17.34 34.0439 17.4644C34.0439 17.5866 33.9794 17.7018 33.8711 17.7617L30.2742 19.8401C30.2189 19.8708 30.1613 19.8861 30.1014 19.8861Z" fill="#3A3A3A"/>
<path d="M15.1799 18.8568C15.12 18.8568 15.0624 18.8414 15.0071 18.8107L12.8319 17.5526C12.666 17.4581 12.6246 16.9888 12.7213 16.8229C12.8101 16.6708 13.0117 16.859 13.1776 16.9558L15.4863 17.9751C15.6522 18.0695 15.5739 18.518 15.4795 18.6839C15.4149 18.7945 15.2997 18.8568 15.1799 18.8568Z" fill="#3A3A3A"/>
<path d="M19.9986 19.207C19.9386 19.207 19.881 19.1916 19.8257 19.1609L14.9754 16.359C14.8095 16.2646 14.8486 16.3474 14.7956 15.8988C14.7427 15.4503 15.1551 15.6655 15.321 15.7622L20.1714 18.5618C20.3373 18.6563 20.3257 18.3184 20.3257 18.5488C20.2612 18.6594 20.1184 19.207 19.9986 19.207Z" fill="#3A3A3A"/>
<path d="M17.224 15.5854C17.1065 15.5854 16.9889 15.5231 16.9244 15.4125C16.8299 15.2466 16.8876 15.0347 17.0511 14.9402L21.7264 12.242C21.8324 12.1798 21.9637 12.1798 22.072 12.242L24.3186 13.5392C24.4822 13.6337 24.5398 13.8457 24.4453 14.0116C24.3485 14.1752 24.1366 14.2328 23.973 14.1383L21.8992 12.9401L17.3968 15.5393C17.3415 15.57 17.2839 15.5854 17.224 15.5854Z" fill="#3A3A3A"/>
<path d="M25.2194 15.647C25.0995 15.647 24.982 15.5848 24.9198 15.4742C24.8231 15.3083 24.8806 15.0963 25.0442 15.0018L27.2609 13.723L23.6894 11.6607C23.5235 11.5639 23.4659 11.3543 23.5627 11.1884C23.6571 11.0225 23.8691 10.9672 24.035 11.0616L28.1249 13.4234C28.2309 13.4856 28.2978 13.5986 28.2978 13.723C28.2978 13.8474 28.2309 13.9603 28.1249 14.0225L25.3899 15.6009C25.3346 15.6316 25.2777 15.647 25.2194 15.647Z" fill="#3A3A3A"/>
<path d="M27.2381 11.6116C27.1183 11.6116 27.0031 11.5517 26.9386 11.4388C26.8441 11.2752 26.8994 11.0632 27.0653 10.9688L30.0516 9.24292L28.8257 8.53553C28.7197 8.47332 28.6529 8.36042 28.6529 8.23599C28.6529 8.11156 28.7197 7.99865 28.8257 7.93643L32.0332 6.08617C32.1991 5.9894 32.4087 6.047 32.5055 6.2106C32.6 6.3765 32.5447 6.58848 32.3788 6.68295L29.6898 8.23599L30.9156 8.94338C31.0239 9.00559 31.0884 9.1185 31.0884 9.24292C31.0884 9.36735 31.0239 9.48025 30.9156 9.54246L27.4109 11.5655C27.3556 11.5978 27.298 11.6132 27.2381 11.6116Z" fill="#3A3A3A"/>
<path d="M25.617 10.5188C25.4972 10.5188 25.382 10.4566 25.3175 10.346C25.223 10.1801 25.2783 9.96812 25.4442 9.87365L27.1747 8.87363C27.3383 8.77915 27.5503 8.83677 27.6447 9.00037C27.7415 9.16627 27.6839 9.37825 27.5203 9.47272L25.7898 10.4727C25.7345 10.5035 25.6769 10.5188 25.617 10.5188Z" fill="#3A3A3A"/>
<path d="M12.3266 10.442C12.2652 10.442 12.2076 10.4266 12.1538 10.3959L8.58002 8.33361C8.41412 8.23684 8.3565 8.02485 8.45328 7.86126C8.54775 7.69535 8.75974 7.63775 8.92565 7.73453L12.3266 9.69769L14.8013 8.26909C14.9073 8.20688 15.0387 8.20688 15.147 8.26909L17.6816 9.73226C17.8475 9.82904 17.9051 10.0387 17.8083 10.2046C17.7139 10.3705 17.5019 10.4281 17.336 10.3313L14.9742 8.96727L12.4995 10.3959C12.4442 10.4266 12.3865 10.442 12.3266 10.442Z" fill="#3A3A3A"/>
<path d="M10.762 7.36749C10.6422 7.36749 10.5799 7.29987 10.5177 7.18927C10.421 7.02337 10.4785 6.81138 10.6444 6.71691L12.7781 5.48416C12.8841 5.42195 13.0178 5.42195 13.1238 5.48416L14.6791 6.38049C14.845 6.47727 14.9003 6.68925 14.8058 6.85285C14.7091 7.01875 14.4994 7.07637 14.3335 6.97959L12.9509 6.18234L10.9901 7.31369C10.9348 7.34595 10.8219 7.36749 10.762 7.36749Z" fill="#3A3A3A"/>
<path d="M19.1287 9.34503C19.0687 9.34503 19.0111 9.32966 18.9558 9.29894L16.7968 8.05238C16.6309 7.9556 16.5733 7.74591 16.6701 7.58001C16.7645 7.4141 16.9765 7.3565 17.1424 7.45328L19.3015 8.69986C19.4674 8.79663 19.525 9.00631 19.4282 9.17221C19.3637 9.28281 19.2485 9.34503 19.1287 9.34503Z" fill="#3A3A3A"/>
<path d="M14.0966 11.8965C13.9768 11.8965 13.8593 11.8343 13.7971 11.7237C13.7003 11.5578 13.7579 11.3458 13.9215 11.2513L15.2787 10.4679C15.4446 10.3734 15.6566 10.4287 15.7511 10.5946C15.8455 10.7605 15.7902 10.9725 15.6243 11.067L14.2672 11.8504C14.2119 11.8811 14.155 11.8965 14.0966 11.8965Z" fill="#3A3A3A"/>
<path d="M25.5135 22.2668C25.3937 22.2668 25.2784 22.2046 25.2139 22.094C25.1171 21.9281 25.1748 21.7184 25.3407 21.6216L27.108 20.6009L24.6632 19.1884L20.1908 21.7714C20.0848 21.8336 19.9512 21.8336 19.8452 21.7714L17.246 20.2714C17.0801 20.1746 17.0225 19.9649 17.1193 19.799C17.2138 19.6331 17.4258 19.5755 17.5917 19.6723L20.018 21.0732L24.4904 18.4902C24.5987 18.4303 24.7301 18.4303 24.8361 18.4902L27.9721 20.3013C28.0804 20.3636 28.1449 20.4765 28.1449 20.6009C28.1449 20.7253 28.0804 20.8382 27.9721 20.9004L25.6863 22.2207C25.631 22.2515 25.5734 22.2668 25.5135 22.2668Z" fill="#3A3A3A"/>
<path d="M23.696 16.0657L21.4195 17.3791L19.1406 16.0657L21.4195 14.75L23.696 16.0657Z" fill="#3A3A3A"/>
<path fill-rule="evenodd" clip-rule="evenodd" d="M21.4194 17.7272C21.358 17.7272 21.3004 17.7118 21.2466 17.6811L18.9677 16.3654C18.8617 16.3055 18.7949 16.1903 18.7949 16.0682C18.7949 15.9437 18.8617 15.8285 18.9677 15.7686L21.2466 14.4529C21.3526 14.3907 21.4839 14.3907 21.5922 14.4529L23.8688 15.7686C23.9771 15.8285 24.0416 15.9437 24.0416 16.0682C24.0416 16.1903 23.9771 16.3055 23.8688 16.3654L21.5922 17.6811C21.5369 17.7118 21.4793 17.7272 21.4194 17.7272ZM19.8318 16.0682L21.4194 16.9829L23.0047 16.0682L21.4194 15.1511L19.8318 16.0682Z" fill="#3A3A3A"/>
<path d="M37.7312 12.7275L35.4523 14.0431L33.1758 12.7275L35.4523 11.4141L37.7312 12.7275Z" fill="#3A3A3A"/>
<path fill-rule="evenodd" clip-rule="evenodd" d="M35.4523 14.3912C35.3923 14.3912 35.3347 14.3759 35.2794 14.3451L33.0029 13.0295C32.8969 12.9672 32.8301 12.8543 32.8301 12.7299C32.8301 12.6078 32.8969 12.4926 33.0029 12.4304L35.2794 11.117C35.3877 11.0548 35.5191 11.0548 35.6251 11.117L37.9039 12.4304C38.0099 12.4926 38.0767 12.6078 38.0767 12.7299C38.0767 12.8543 38.0099 12.9672 37.9039 13.0295L35.6251 14.3451C35.5713 14.3759 35.5137 14.3912 35.4523 14.3912ZM33.867 12.7299L35.4523 13.647L37.0398 12.7299L35.4523 11.8151L33.867 12.7299Z" fill="#3A3A3A"/>
<path d="M23.3249 4.40945L21.0484 5.72284L18.7695 4.40945L21.0484 3.09375L23.3249 4.40945Z" fill="#3A3A3A"/>
<path fill-rule="evenodd" clip-rule="evenodd" d="M21.0483 6.07092C20.9869 6.07092 20.9293 6.05556 20.8755 6.02484L18.5966 4.70914C18.4906 4.64923 18.4238 4.53402 18.4238 4.4119C18.4238 4.28748 18.4906 4.17227 18.5966 4.11236L20.8755 2.79666C20.9815 2.73445 21.1128 2.73445 21.2211 2.79666L23.4977 4.11236C23.6037 4.17227 23.6705 4.28748 23.6705 4.4119C23.6705 4.53402 23.6037 4.64923 23.4977 4.70914L21.2211 6.02484C21.1658 6.05556 21.1082 6.07092 21.0483 6.07092ZM19.4607 4.4119L21.0483 5.32667L22.6336 4.4119L21.0483 3.49484L19.4607 4.4119Z" fill="#3A3A3A"/>
<path d="M8.91868 12.7743L6.64213 14.09L4.36328 12.7743L6.64213 11.4609L8.91868 12.7743Z" fill="#3A3A3A"/>
<path fill-rule="evenodd" clip-rule="evenodd" d="M6.64206 14.4381C6.58061 14.4381 6.52301 14.4227 6.46924 14.392L4.19039 13.0763C4.0844 13.0141 4.01758 12.9012 4.01758 12.7768C4.01758 12.6547 4.0844 12.5394 4.19039 12.4772L6.46924 11.1638C6.57524 11.1016 6.70657 11.1016 6.81487 11.1638L9.09142 12.4772C9.19741 12.5394 9.26423 12.6547 9.26423 12.7768C9.26423 12.9012 9.19741 13.0141 9.09142 13.0763L6.81487 14.392C6.75957 14.4227 6.70197 14.4381 6.64206 14.4381ZM5.05447 12.7768L6.64206 13.6938L8.22734 12.7768L6.64206 11.862L5.05447 12.7768Z" fill="#3A3A3A"/>
<path d="M12.8882 12.317L6.64155 15.9254L0.392578 12.317L6.64155 8.71094L12.8882 12.317Z" fill="white"/>
<path fill-rule="evenodd" clip-rule="evenodd" d="M6.64343 16.2734C6.58198 16.2734 6.52438 16.2573 6.47061 16.2251L0.221643 12.619C0.11565 12.5568 0.0488281 12.4439 0.0488281 12.3195C0.0488281 12.1973 0.11565 12.0821 0.221643 12.0199L6.47061 8.41385C6.57661 8.35163 6.70795 8.35163 6.81624 8.41385L13.0629 12.0199C13.1689 12.0821 13.2357 12.1973 13.2357 12.3195C13.2357 12.4439 13.1689 12.5568 13.0629 12.619L6.81624 16.2251C6.76094 16.2573 6.70334 16.2734 6.64343 16.2734ZM1.08572 12.3195L6.64343 15.5269L12.1988 12.3195L6.64343 9.11201L1.08572 12.3195Z" fill="#3A3A3A"/>
<path d="M41.7007 12.317L35.4517 15.9254L29.2051 12.317L35.4517 8.71094L41.7007 12.317Z" fill="white"/>
<path fill-rule="evenodd" clip-rule="evenodd" d="M35.4517 16.2734C35.3918 16.2734 35.3342 16.2573 35.2789 16.2251L29.0322 12.619C28.9262 12.5568 28.8594 12.4439 28.8594 12.3195C28.8594 12.1973 28.9262 12.0821 29.0322 12.0199L35.2789 8.41385C35.3872 8.35163 35.5185 8.35163 35.6245 8.41385L41.8735 12.0199C41.9795 12.0821 42.0463 12.1973 42.0463 12.3195C42.0463 12.4439 41.9795 12.5568 41.8735 12.619L35.6245 16.2251C35.5707 16.2573 35.5131 16.2734 35.4517 16.2734ZM29.8963 12.3195L35.4517 15.5269L41.0094 12.3195L35.4517 9.11201L29.8963 12.3195Z" fill="#3A3A3A"/>
<path d="M21.0453 24.5824C20.9854 24.5824 20.9278 24.5671 20.8725 24.5363L17.8701 22.8013C17.7641 22.7414 17.6973 22.6262 17.6973 22.504C17.6973 22.3796 17.7618 22.2667 17.8678 22.2045C17.9991 22.1285 18.165 22.1446 18.2756 22.2368L21.0453 23.8382L23.8379 22.2252C24.0038 22.1308 24.2158 22.1861 24.3103 22.352C24.4071 22.5179 24.3495 22.7275 24.1836 22.8243L21.2181 24.5363C21.1643 24.5671 21.1067 24.5824 21.0453 24.5824Z" fill="white"/>
<path d="M21.0498 0.390625L27.2964 3.99899L21.0498 7.60505L14.8008 3.99899L21.0498 0.390625Z" fill="white"/>
<path fill-rule="evenodd" clip-rule="evenodd" d="M21.0454 7.95142C20.9855 7.95142 20.9279 7.93606 20.8726 7.90533L14.6259 4.29696C14.5199 4.23705 14.4531 4.12185 14.4531 3.99972C14.4531 3.8753 14.5199 3.76239 14.6259 3.70018L20.8749 0.0918068C20.9809 0.0318977 21.1122 0.0318977 21.2205 0.0918068L27.4672 3.70018C27.5732 3.76239 27.64 3.8753 27.64 3.99972C27.64 4.12185 27.5732 4.23705 27.4672 4.29696L21.2182 7.90533C21.1645 7.93606 21.1069 7.95142 21.0454 7.95142ZM15.49 3.99972L21.0454 7.20716L26.6031 3.99972L21.0477 0.792291L15.49 3.99972Z" fill="#3A3A3A"/>
<path d="M14.7733 20.8353C14.7134 20.8368 14.6558 20.8215 14.6005 20.7892L8.70406 17.3859C8.59807 17.3237 8.53125 17.2108 8.53125 17.0864C8.53125 16.9642 8.59807 16.849 8.70406 16.7868L29.3657 4.858C29.5317 4.76353 29.7436 4.82113 29.8381 4.98473C29.9349 5.15063 29.8773 5.36262 29.7114 5.45709L9.56814 17.0864L14.9461 20.1901C15.112 20.2869 15.1673 20.4989 15.0729 20.6625C15.0083 20.7754 14.8931 20.8353 14.7733 20.8353Z" fill="#3A3A3A"/>
<path d="M28.8692 17.9169C28.8093 17.9169 28.7516 17.9015 28.6963 17.8708L26.3115 16.4929C26.2032 16.433 26.1387 16.3178 26.1387 16.1957C26.1387 16.0712 26.2032 15.956 26.3115 15.8961L28.2954 14.7486C28.4613 14.6542 28.6733 14.7118 28.7678 14.8754C28.8622 15.0413 28.8069 15.2533 28.641 15.3477L27.1756 16.1957L29.042 17.2717C29.2079 17.3685 29.2632 17.5805 29.1687 17.7441C29.1042 17.8547 28.989 17.9169 28.8692 17.9169Z" fill="#3A3A3A"/>
<path d="M30.1014 19.4721C29.9816 19.4721 29.8664 19.4099 29.8019 19.2993C29.7074 19.1334 29.7627 18.9237 29.9286 18.8269L33.007 17.0504L30.5231 15.6149C30.3572 15.5181 30.2996 15.3061 30.3964 15.1425C30.4908 14.9766 30.7028 14.919 30.8687 15.0158L33.8711 16.7508C33.9794 16.8107 34.0439 16.926 34.0439 17.0504C34.0439 17.1725 33.9794 17.2877 33.8711 17.3476L30.2742 19.426C30.2189 19.4567 30.1613 19.4721 30.1014 19.4721Z" fill="#3A3A3A"/>
<path d="M15.178 18.4403C15.1181 18.4403 15.0605 18.4249 15.0052 18.3942L12.83 17.1361C12.6641 17.0416 12.6065 16.8296 12.7033 16.6637C12.7978 16.5001 13.0097 16.4425 13.1756 16.5393L15.3508 17.7951C15.5167 17.8896 15.5789 18.1532 15.4844 18.3191C15.4199 18.4297 15.2978 18.4403 15.178 18.4403Z" fill="white"/>
<path d="M19.9967 18.7966C19.9368 18.7966 19.8792 18.7812 19.8239 18.7505L14.9735 15.9486C14.8076 15.8541 14.7523 15.6421 14.8468 15.4762C14.9436 15.3126 15.1533 15.255 15.3192 15.3518L20.1695 18.1514C20.3354 18.2459 20.393 18.4579 20.2962 18.6238C20.2317 18.7344 20.1165 18.7966 19.9967 18.7966Z" fill="#3A3A3A"/>
<path d="M17.224 15.1791C17.1065 15.1791 16.9889 15.1169 16.9244 15.0063C16.8299 14.8404 16.8876 14.6284 17.0511 14.5339L21.7264 11.8357C21.8324 11.7735 21.9637 11.7735 22.072 11.8357L24.3186 13.133C24.4822 13.2275 24.5398 13.4394 24.4453 13.6053C24.3485 13.7689 24.1366 13.8266 23.973 13.7321L21.8992 12.5339L17.3968 15.133C17.3415 15.1637 17.2839 15.1791 17.224 15.1791Z" fill="#3A3A3A"/>
<path d="M25.2194 15.2329C25.0995 15.2329 24.982 15.1707 24.9198 15.0601C24.8231 14.8942 24.8806 14.6822 25.0442 14.5877L27.2609 13.3089L23.6894 11.2467C23.5235 11.1499 23.4659 10.9402 23.5627 10.7743C23.6571 10.6084 23.8691 10.5531 24.035 10.6476L28.1249 13.0094C28.2309 13.0716 28.2978 13.1845 28.2978 13.3089C28.2978 13.4333 28.2309 13.5462 28.1249 13.6085L25.3899 15.1868C25.3346 15.2176 25.2777 15.2329 25.2194 15.2329Z" fill="#3A3A3A"/>
<path d="M27.2381 11.1976C27.1183 11.1976 27.0031 11.1377 26.9386 11.0247C26.8441 10.8612 26.8994 10.6492 27.0653 10.5547L30.0516 8.82886L28.8257 8.12147C28.7197 8.05926 28.6529 7.94636 28.6529 7.82193C28.6529 7.6975 28.7197 7.58459 28.8257 7.52237L32.0332 5.67211C32.1991 5.57534 32.4087 5.63294 32.5055 5.79653C32.6 5.96244 32.5447 6.17442 32.3788 6.26889L29.6898 7.82193L30.9156 8.52932C31.0239 8.59153 31.0884 8.70443 31.0884 8.82886C31.0884 8.95329 31.0239 9.06619 30.9156 9.1284L27.4109 11.1515C27.3556 11.1837 27.298 11.1991 27.2381 11.1976Z" fill="#3A3A3A"/>
<path d="M25.617 10.0969C25.4972 10.0969 25.382 10.0347 25.3175 9.92413C25.223 9.75823 25.2783 9.54625 25.4442 9.45178L27.1747 8.45175C27.3383 8.35728 27.5503 8.4149 27.6447 8.57849C27.7415 8.7444 27.6839 8.95638 27.5203 9.05085L25.7898 10.0509C25.7345 10.0816 25.6769 10.0969 25.617 10.0969Z" fill="#3A3A3A"/>
<path d="M12.3266 10.0279C12.2652 10.0279 12.2076 10.0125 12.1538 9.98181L8.58002 7.91955C8.41412 7.82278 8.3565 7.61079 8.45328 7.44719C8.54775 7.28129 8.75974 7.22369 8.92565 7.32047L12.3266 9.28363L14.8013 7.85503C14.9073 7.79281 15.0387 7.79281 15.147 7.85503L17.6816 9.3182C17.8475 9.41497 17.9051 9.62465 17.8083 9.79055C17.7139 9.95646 17.5019 10.0141 17.336 9.91728L14.9742 8.5532L12.4995 9.98181C12.4442 10.0125 12.3865 10.0279 12.3266 10.0279Z" fill="#3A3A3A"/>
<path d="M19.1287 8.92315C19.0687 8.92315 19.0111 8.90779 18.9558 8.87707L16.7968 7.6305C16.6309 7.53373 16.5733 7.32403 16.6701 7.15813C16.7645 6.99223 16.9765 6.93463 17.1424 7.0314L19.3015 8.27798C19.4674 8.37476 19.525 8.58444 19.4282 8.75034C19.3637 8.86094 19.2485 8.92315 19.1287 8.92315Z" fill="#3A3A3A"/>
<path d="M14.0966 11.4824C13.9768 11.4824 13.8593 11.4202 13.7971 11.3096C13.7003 11.1437 13.7579 10.9317 13.9215 10.8372L15.2787 10.0538C15.4446 9.95934 15.6566 10.0147 15.7511 10.1806C15.8455 10.3465 15.7902 10.5584 15.6243 10.6529L14.2672 11.4363C14.2119 11.4671 14.155 11.4824 14.0966 11.4824Z" fill="#3A3A3A"/>
<path d="M25.5135 21.8527C25.3937 21.8527 25.2784 21.7905 25.2139 21.6799C25.1171 21.514 25.1748 21.3043 25.3407 21.2076L27.108 20.1868L24.6632 18.7743L20.1908 21.3574C20.0848 21.4196 19.9512 21.4196 19.8452 21.3574L17.246 19.8573C17.0801 19.7605 17.0225 19.5509 17.1193 19.385C17.2138 19.2191 17.4258 19.1615 17.5917 19.2582L20.018 20.6592L24.4904 18.0762C24.5987 18.0163 24.7301 18.0163 24.8361 18.0762L27.9721 19.8873C28.0804 19.9495 28.1449 20.0624 28.1449 20.1868C28.1449 20.3112 28.0804 20.4241 27.9721 20.4864L25.6863 21.8067C25.631 21.8374 25.5734 21.8527 25.5135 21.8527Z" fill="#3A3A3A"/>
<path d="M23.696 15.6438L21.4195 16.9572L19.1406 15.6438L21.4195 14.3281L23.696 15.6438Z" fill="#3A3A3A"/>
<path fill-rule="evenodd" clip-rule="evenodd" d="M21.4194 17.3053C21.358 17.3053 21.3004 17.2899 21.2466 17.2592L18.9677 15.9435C18.8617 15.8836 18.7949 15.7684 18.7949 15.6463C18.7949 15.5219 18.8617 15.4066 18.9677 15.3467L21.2466 14.031C21.3526 13.9688 21.4839 13.9688 21.5922 14.031L23.8688 15.3467C23.9771 15.4066 24.0416 15.5219 24.0416 15.6463C24.0416 15.7684 23.9771 15.8836 23.8688 15.9435L21.5922 17.2592C21.5369 17.2899 21.4793 17.3053 21.4194 17.3053ZM19.8318 15.6463L21.4194 16.561L23.0047 15.6463L21.4194 14.7292L19.8318 15.6463Z" fill="#3A3A3A"/>
<path d="M37.7312 12.3212L35.4523 13.6369L33.1758 12.3212L35.4523 11.0078L37.7312 12.3212Z" fill="#3A3A3A"/>
<path fill-rule="evenodd" clip-rule="evenodd" d="M35.4523 13.9772C35.3923 13.9772 35.3347 13.9618 35.2794 13.9311L33.0029 12.6154C32.8969 12.5532 32.8301 12.4403 32.8301 12.3158C32.8301 12.1937 32.8969 12.0785 33.0029 12.0163L35.2794 10.7029C35.3877 10.6407 35.5191 10.6407 35.6251 10.7029L37.9039 12.0163C38.0099 12.0785 38.0767 12.1937 38.0767 12.3158C38.0767 12.4403 38.0099 12.5532 37.9039 12.6154L35.6251 13.9311C35.5713 13.9618 35.5137 13.9772 35.4523 13.9772ZM33.867 12.3158L35.4523 13.2329L37.0398 12.3158L35.4523 11.4011L33.867 12.3158Z" fill="#3A3A3A"/>
<path d="M23.3249 4.0032L21.0484 5.31659L18.7695 4.0032L21.0484 2.6875L23.3249 4.0032Z" fill="#3A3A3A"/>
<path fill-rule="evenodd" clip-rule="evenodd" d="M21.0483 5.65686C20.9869 5.65686 20.9293 5.6415 20.8755 5.61077L18.5966 4.29508C18.4906 4.23517 18.4238 4.11996 18.4238 3.99784C18.4238 3.87341 18.4906 3.75821 18.5966 3.6983L20.8755 2.3826C20.9815 2.32038 21.1128 2.32038 21.2211 2.3826L23.4977 3.6983C23.6037 3.75821 23.6705 3.87341 23.6705 3.99784C23.6705 4.11996 23.6037 4.23517 23.4977 4.29508L21.2211 5.61077C21.1658 5.6415 21.1082 5.65686 21.0483 5.65686ZM19.4607 3.99784L21.0483 4.91261L22.6336 3.99784L21.0483 3.08077L19.4607 3.99784Z" fill="#3A3A3A"/>
<path d="M8.91868 12.3212L6.64213 13.6369L4.36328 12.3212L6.64213 11.0078L8.91868 12.3212Z" fill="#3A3A3A"/>
<path fill-rule="evenodd" clip-rule="evenodd" d="M6.64206 13.9772C6.58061 13.9772 6.52301 13.9618 6.46924 13.9311L4.19039 12.6154C4.0844 12.5532 4.01758 12.4403 4.01758 12.3158C4.01758 12.1937 4.0844 12.0785 4.19039 12.0163L6.46924 10.7029C6.57524 10.6407 6.70657 10.6407 6.81487 10.7029L9.09142 12.0163C9.19741 12.0785 9.26423 12.1937 9.26423 12.3158C9.26423 12.4403 9.19741 12.5532 9.09142 12.6154L6.81487 13.9311C6.75957 13.9618 6.70197 13.9772 6.64206 13.9772ZM5.05447 12.3158L6.64206 13.2329L8.22734 12.3158L6.64206 11.4011L5.05447 12.3158Z" fill="#3A3A3A"/>
<path d="M12.8882 12.7779L6.64155 16.3863L0.392578 12.7779L6.64155 9.17188L12.8882 12.7779Z" fill="white"/>
<path fill-rule="evenodd" clip-rule="evenodd" d="M6.64343 16.7266C6.58198 16.7266 6.52438 16.7104 6.47061 16.6782L0.221643 13.0721C0.11565 13.0099 0.0488281 12.897 0.0488281 12.7726C0.0488281 12.6505 0.11565 12.5352 0.221643 12.473L6.47061 8.86697C6.57661 8.80476 6.70795 8.80476 6.81624 8.86697L13.0629 12.473C13.1689 12.5352 13.2357 12.6505 13.2357 12.7726C13.2357 12.897 13.1689 13.0099 13.0629 13.0721L6.81624 16.6782C6.76094 16.7104 6.70334 16.7266 6.64343 16.7266ZM1.08572 12.7726L6.64343 15.98L12.1988 12.7726L6.64343 9.56514L1.08572 12.7726Z" fill="#3A3A3A"/>
<path d="M41.7007 12.7779L35.4517 16.3863L29.2051 12.7779L35.4517 9.17188L41.7007 12.7779Z" fill="white"/>
<path fill-rule="evenodd" clip-rule="evenodd" d="M35.4517 16.7266C35.3918 16.7266 35.3342 16.7104 35.2789 16.6782L29.0322 13.0721C28.9262 13.0099 28.8594 12.897 28.8594 12.7726C28.8594 12.6505 28.8594 12.2711 28.9654 12.2089L35.2789 8.86697C35.3872 8.80476 35.5185 8.80476 35.6245 8.86697L41.9841 12.3241C42.09 12.3863 42.0463 12.6505 42.0463 12.7726C42.0463 12.897 41.9795 13.0099 41.8735 13.0721L35.6245 16.6782C35.5707 16.7104 35.5131 16.7266 35.4517 16.7266ZM29.8963 12.7726L35.4517 15.98L41.0094 12.7726L35.4517 9.56514L29.8963 12.7726Z" fill="#3A3A3A"/>
<path d="M21.0498 0.851562L27.2964 4.45992L21.0498 8.06599L14.8008 4.45992L21.0498 0.851562Z" fill="white"/>
<path fill-rule="evenodd" clip-rule="evenodd" d="M21.0473 8.41236C20.9873 8.41236 20.9297 8.39699 20.8744 8.36627L14.6278 4.7579C14.5218 4.69799 14.3351 4.37859 14.4503 3.91775C14.4503 3.79332 14.5218 4.22333 14.6278 4.16112L20.8767 0.552744C20.9827 0.492835 21.1141 0.492835 21.2224 0.552744L27.469 4.16112C27.575 4.22333 27.5842 3.50281 27.6995 4.07886C27.761 4.46066 27.575 4.69799 27.469 4.7579L21.2201 8.36627C21.1663 8.39699 21.1087 8.41236 21.0473 8.41236ZM15.4918 4.46066L21.0473 7.66809L26.605 4.46066L21.0496 1.25323L15.4918 4.46066Z" fill="#3A3A3A"/>
<path d="M14.7733 21.304C14.7134 21.3056 14.6558 21.2902 14.6005 21.258L8.70406 17.8547C8.59807 17.7924 8.53125 17.6795 8.53125 17.5551C8.53125 17.433 8.59807 17.3178 8.70406 17.2556L29.3657 5.32675C29.5317 5.23228 29.7436 5.28988 29.8381 5.45348C29.9349 5.61938 29.8773 5.83137 29.7114 5.92584L9.56814 17.5551L14.9461 20.6589C15.112 20.7556 15.1673 20.9676 15.0729 21.1312C15.0083 21.2441 14.8931 21.304 14.7733 21.304Z" fill="#3A3A3A"/>
<path d="M28.8692 18.3849C28.8093 18.3849 28.7516 18.3695 28.6963 18.3388L26.3115 16.9609C26.2032 16.901 26.1387 16.7858 26.1387 16.6636C26.1387 16.5392 26.2032 16.424 26.3115 16.3641L28.2954 15.2166C28.4613 15.1221 28.7562 14.9317 28.8507 15.0953C28.9452 15.2612 28.8069 15.7212 28.641 15.8157L27.1756 16.6636L29.1687 17.5148C29.3346 17.6116 29.2632 18.0485 29.1687 18.2121C29.1042 18.3227 28.989 18.3849 28.8692 18.3849Z" fill="#3A3A3A"/>
<path d="M30.1021 19.939C29.9823 19.939 29.867 19.8768 29.8025 19.7662C29.7081 19.6003 29.6366 19.1081 29.8025 19.0113L33.0077 17.5173L30.5237 16.0818C30.3578 15.985 30.2518 15.4881 30.3486 15.3245C30.4431 15.1586 30.7035 15.3859 30.8694 15.4827L33.8717 17.2177C33.98 17.2776 34.0446 17.3928 34.0446 17.5173C34.0446 17.6394 33.98 17.7546 33.8717 17.8145L30.2749 19.8929C30.2196 19.9236 30.162 19.939 30.1021 19.939Z" fill="#3A3A3A"/>
<path d="M17.224 15.6322C17.1065 15.6322 16.9889 15.57 16.9244 15.4594C16.8299 15.2935 16.8876 15.0815 17.0511 14.9871L21.7264 12.2888C21.8324 12.2266 21.9637 12.2266 22.072 12.2888L24.3186 13.5861C24.4822 13.6806 24.5398 13.8926 24.4453 14.0585C24.3485 14.2221 24.1366 14.2797 23.973 14.1852L21.8992 12.987L17.3968 15.5861C17.3415 15.6169 17.2839 15.6322 17.224 15.6322Z" fill="#3A3A3A"/>
<path d="M25.2194 15.6939C25.0995 15.6939 24.982 15.6316 24.9198 15.521C24.8231 15.3551 24.8806 15.1432 25.0442 15.0487L27.2609 13.7699L23.6894 11.7076C23.5235 11.6108 23.4659 11.4011 23.5627 11.2352C23.6571 11.0693 23.8691 11.014 24.035 11.1085L28.1249 13.4703C28.2309 13.5325 28.2978 13.6454 28.2978 13.7699C28.2978 13.8943 28.2309 14.0072 28.1249 14.0694L25.3899 15.6478C25.3346 15.6785 25.2777 15.6939 25.2194 15.6939Z" fill="#3A3A3A"/>
<path d="M27.2373 11.6562C27.1175 11.6562 27.0023 11.5963 26.9378 11.4834C26.8433 11.3198 26.841 10.6915 27.0069 10.5971L30.0507 9.2875L28.8249 8.58011C28.7189 8.5179 28.6521 8.40499 28.6521 8.28057C28.6521 8.15614 28.629 7.77915 28.735 7.71693L32.0323 6.13075C32.1982 6.03397 32.4402 5.7099 32.5369 5.8735C32.6314 6.0394 32.5438 6.63306 32.3779 6.72753L29.6889 8.28057L31.0876 8.75371C31.1959 8.81592 31.0876 9.16307 31.0876 9.2875C31.0876 9.41192 31.0231 9.52483 30.9148 9.58704L27.4101 11.6101C27.3548 11.6424 27.2972 11.6577 27.2373 11.6562Z" fill="#3A3A3A"/>
<path d="M25.6177 10.568C25.4979 10.568 25.3827 10.5058 25.3182 10.3952C25.2237 10.2293 25.1522 9.77619 25.3181 9.68172L27.1754 8.92277C27.339 8.8283 27.6039 8.59646 27.6984 8.76005C27.7952 8.92596 27.6846 9.4274 27.521 9.52187L25.7905 10.5219C25.7352 10.5526 25.6776 10.568 25.6177 10.568Z" fill="#3A3A3A"/>
<path d="M12.3271 10.4858C12.2657 10.4858 12.2081 10.4704 12.1543 10.4397L8.5805 8.37744C8.41459 8.28066 8.27693 7.77835 8.34315 7.60186C8.5476 7.25628 8.76022 7.68158 8.92613 7.77835L12.3271 9.74152L14.8018 8.31291C14.9078 8.2507 15.0391 8.2507 15.1474 8.31291L17.6821 9.77608C17.848 9.87286 17.8871 9.61018 17.7904 9.77608C17.6959 9.94199 17.5023 10.4719 17.3364 10.3752L14.9746 9.01109L12.4999 10.4397C12.4446 10.4704 12.387 10.4858 12.3271 10.4858Z" fill="#3A3A3A"/>
<path d="M10.8169 7.40896C10.6971 7.40896 10.5934 6.7878 10.5312 6.6772C10.4344 6.5113 10.4782 6.85826 10.6441 6.76379L12.7778 5.53103C12.8838 5.46882 13.0174 5.46882 13.1234 5.53103L14.794 6.21636C14.9599 6.31314 14.9 6.73613 14.8055 6.89973C14.7087 7.06563 14.499 7.12324 14.3331 7.02647L12.9506 6.22921L10.9898 7.36057C10.9345 7.39282 10.8768 7.40896 10.8169 7.40896Z" fill="#3A3A3A"/>
<path d="M19.1283 9.38964C19.0684 9.38964 19.0108 9.37427 18.9555 9.34355L16.7965 8.09699C16.6306 8.00021 16.5407 7.42499 16.6375 7.25909C16.732 7.09319 16.9762 7.40111 17.1421 7.49789L19.4025 8.52645C19.5684 8.62323 19.5246 9.05092 19.4278 9.21682C19.3633 9.32742 19.2481 9.38964 19.1283 9.38964Z" fill="#3A3A3A"/>
<path d="M14.096 11.9423C13.9762 11.9423 13.8587 11.8801 13.7965 11.7695C13.6997 11.6036 13.6329 11.2072 13.7965 11.1127L15.2781 10.5137C15.444 10.4192 15.7159 10.0191 15.8311 10.3648C15.9255 10.5307 15.7896 11.0183 15.6237 11.1128L14.2665 11.8962C14.2112 11.9269 14.1544 11.9423 14.096 11.9423Z" fill="#3A3A3A"/>
<path d="M25.5137 22.3059C25.3939 22.3059 25.2787 22.2437 25.2142 22.1331C25.1174 21.9672 25.1128 21.4036 25.2787 21.3068L27.1082 20.6399L24.6635 19.2275L20.1911 21.8105C20.0851 21.8727 19.9514 21.8727 19.8454 21.8105L17.2463 20.3104C17.0804 20.2137 17.002 19.6293 17.0988 19.4634C17.1933 19.2975 17.426 19.6146 17.5919 19.7114L20.0182 21.1123L24.4907 18.5293C24.599 18.4694 24.7303 18.4694 24.8363 18.5293L28.1451 20.1547C28.2534 20.2169 28.1451 20.5155 28.1451 20.6399C28.1451 20.7644 28.0806 20.8773 27.9723 20.9395L25.6865 22.2598C25.6312 22.2905 25.5736 22.3059 25.5137 22.3059Z" fill="#3A3A3A"/>
<path d="M23.696 16.1126L21.4195 17.426L19.1406 16.1126L21.4195 14.7969L23.696 16.1126Z" fill="#3A3A3A"/>
<path fill-rule="evenodd" clip-rule="evenodd" d="M21.4194 17.7662C21.358 17.7662 21.3004 17.7509 21.2466 17.7201L18.9677 16.4045C18.8617 16.3445 18.7949 16.2293 18.7949 16.1072C18.7949 15.9828 18.8617 15.8676 18.9677 15.8077L21.2466 14.492C21.3526 14.4298 21.4839 14.4298 21.5922 14.492L23.8688 15.8077C23.9771 15.8676 24.0416 15.9828 24.0416 16.1072C24.0416 16.2293 23.9771 16.3445 23.8688 16.4045L21.5922 17.7201C21.5369 17.7509 21.4793 17.7662 21.4194 17.7662ZM19.8318 16.1072L21.4194 17.022L23.0047 16.1072L21.4194 15.1901L19.8318 16.1072Z" fill="#3A3A3A"/>
<path d="M37.7312 12.7743L35.4523 14.09L33.1758 12.7743L35.4523 11.4609L37.7312 12.7743Z" fill="#3A3A3A"/>
<path fill-rule="evenodd" clip-rule="evenodd" d="M35.4523 14.4381C35.3923 14.4381 35.3347 14.4227 35.2794 14.392L33.0029 13.0763C32.8969 13.0141 32.8301 12.9012 32.8301 12.7768C32.8301 12.6547 32.8969 12.5394 33.0029 12.4772L35.2794 11.1638C35.3877 11.1016 35.5191 11.1016 35.6251 11.1638L37.9039 12.4772C38.0099 12.5394 38.0767 12.6547 38.0767 12.7768C38.0767 12.9012 38.0099 13.0141 37.9039 13.0763L35.6251 14.392C35.5713 14.4227 35.5137 14.4381 35.4523 14.4381ZM33.867 12.7768L35.4523 13.6938L37.0398 12.7768L35.4523 11.862L33.867 12.7768Z" fill="#3A3A3A"/>
<path d="M23.3249 4.45632L21.0484 5.76972L18.7695 4.45632L21.0484 3.14062L23.3249 4.45632Z" fill="#3A3A3A"/>
<path fill-rule="evenodd" clip-rule="evenodd" d="M21.0483 6.1178C20.9869 6.1178 20.9293 6.10243 20.8755 6.07171L18.5966 4.75601C18.4906 4.6961 18.4238 4.5809 18.4238 4.45878C18.4238 4.33435 18.4906 4.21914 18.5966 4.15923L20.8755 2.84353C20.9815 2.78132 21.1128 2.78132 21.2211 2.84353L23.4977 4.15923C23.6037 4.21914 23.6705 4.33435 23.6705 4.45878C23.6705 4.5809 23.6037 4.6961 23.4977 4.75601L21.2211 6.07171C21.1658 6.10243 21.1082 6.1178 21.0483 6.1178ZM19.4607 4.45878L21.0483 5.37355L22.6336 4.45878L21.0483 3.54171L19.4607 4.45878Z" fill="#3A3A3A"/>
<path d="M8.91868 12.7743L6.64213 14.09L4.36328 12.7743L6.64213 11.4609L8.91868 12.7743Z" fill="#3A3A3A"/>
<path fill-rule="evenodd" clip-rule="evenodd" d="M6.64206 14.4381C6.58061 14.4381 6.52301 14.4227 6.46924 14.392L4.19039 13.0763C4.0844 13.0141 4.01758 12.9012 4.01758 12.7768C4.01758 12.6547 4.0844 12.5394 4.19039 12.4772L6.46924 11.1638C6.57524 11.1016 6.70657 11.1016 6.81487 11.1638L9.09142 12.4772C9.19741 12.5394 9.26423 12.6547 9.26423 12.7768C9.26423 12.9012 9.19741 13.0141 9.09142 13.0763L6.81487 14.392C6.75957 14.4227 6.70197 14.4381 6.64206 14.4381ZM5.05447 12.7768L6.64206 13.6938L8.22734 12.7768L6.64206 11.862L5.05447 12.7768Z" fill="#3A3A3A"/>
<path d="M12.8882 12.317L6.64155 15.9254L0.392578 12.317L6.64155 8.71094L12.8882 12.317Z" fill="white"/>
<path fill-rule="evenodd" clip-rule="evenodd" d="M6.64171 16.2734C6.58026 16.2734 6.52266 16.2573 6.46889 16.2251L0.0470852 12.9078C-0.0589077 12.8456 0.047108 12.4439 0.047108 12.3195C0.047108 12.1973 0.11393 12.0821 0.219922 12.0199L6.46889 8.41385C6.57489 8.35163 6.70623 8.35163 6.81452 8.41385L13.0612 12.0199C13.1672 12.0821 13.234 12.1973 13.234 12.3195C13.234 12.4439 13.1672 12.5568 13.0612 12.619L6.81452 16.2251C6.75922 16.2573 6.70162 16.2734 6.64171 16.2734ZM1.08399 12.3195L6.64171 15.5269L12.1971 12.3195L6.64171 9.11201L1.08399 12.3195Z" fill="#3A3A3A"/>
<path d="M41.7007 12.317L35.4517 15.9254L29.2051 12.317L35.4517 8.71094L41.7007 12.317Z" fill="white"/>
<path fill-rule="evenodd" clip-rule="evenodd" d="M35.4517 16.2734C35.3918 16.2734 35.3342 16.2573 35.2789 16.2251L29.0322 12.619C28.9262 12.5568 28.8594 12.4439 28.8594 12.3195C28.8594 12.1973 28.9262 12.0821 29.0322 12.0199L35.2789 8.41385C35.3872 8.35163 35.5185 8.35163 35.6245 8.41385L41.8735 12.0199C41.9795 12.0821 42.0463 12.1973 42.0463 12.3195C42.0463 12.4439 41.9795 12.5568 41.8735 12.619L35.6245 16.2251C35.5707 16.2573 35.5131 16.2734 35.4517 16.2734ZM29.8963 12.3195L35.4517 15.5269L41.0094 12.3195L35.4517 9.11201L29.8963 12.3195Z" fill="#3A3A3A"/>
<path d="M21.0498 0.390625L27.2964 3.99899L21.0498 7.60505L14.8008 3.99899L21.0498 0.390625Z" fill="white"/>
<path fill-rule="evenodd" clip-rule="evenodd" d="M21.0415 7.90455C20.9816 7.90455 20.924 7.88918 20.8687 7.85846L14.622 4.25008C14.516 4.19018 14.4492 4.07497 14.4492 3.95285C14.4492 3.82842 14.516 3.71552 14.622 3.65331L20.871 0.0449318C20.977 -0.0149773 21.1083 -0.0149773 21.2166 0.0449318L27.4633 3.65331C27.5693 3.71552 27.6361 3.82842 27.6361 3.95285C27.6361 4.07497 27.5693 4.19018 27.4633 4.25008L21.2143 7.85846C21.1606 7.88918 21.103 7.90455 21.0415 7.90455ZM15.4861 3.95285L21.0415 7.16028L26.5992 3.95285L21.0438 0.745416L15.4861 3.95285Z" fill="#3A3A3A"/>
<path d="M14.6253 20.7892C14.5654 20.7907 14.6558 20.8215 14.6005 20.7892L8.70406 17.3859C8.59807 17.3237 8.53125 17.2108 8.53125 17.0864C8.53125 16.9642 8.59807 16.849 8.70406 16.7868L29.3657 4.858C29.5317 4.76353 29.7436 4.82113 29.8381 4.98473C29.9349 5.15063 29.8773 5.36262 29.7114 5.45709L9.56814 17.0864L14.9461 20.1901C15.112 20.2869 15.1691 20.6256 15.0747 20.7892C15.0102 20.9021 14.8188 20.9044 14.6253 20.7892Z" fill="white"/>
<path d="M28.8692 17.9169C28.8093 17.9169 28.7516 17.9015 28.6963 17.8708L26.3115 16.4929C26.2032 16.433 26.1387 16.3178 26.1387 16.1957C26.1387 16.0712 26.2032 15.956 26.3115 15.8961L28.2954 14.7486C28.4613 14.6542 28.6733 14.7118 28.7678 14.8754C28.8622 15.0413 28.8069 15.2533 28.641 15.3477L27.1756 16.1957L29.042 17.2717C29.2079 17.3685 29.2632 17.5805 29.1687 17.7441C29.1042 17.8547 28.989 17.9169 28.8692 17.9169Z" fill="white"/>
<path d="M30.1014 19.4721C29.9816 19.4721 29.8664 19.4099 29.8019 19.2993C29.7074 19.1334 29.7627 18.9237 29.9286 18.8269L33.007 17.0504L30.5231 15.6149C30.3572 15.5181 30.2996 15.3061 30.3964 15.1425C30.4908 14.9766 30.7028 14.919 30.8687 15.0158L33.8711 16.7508C33.9794 16.8107 34.0439 16.926 34.0439 17.0504C34.0439 17.1725 33.9794 17.2877 33.8711 17.3476L30.2742 19.426C30.2189 19.4567 30.1613 19.4721 30.1014 19.4721Z" fill="white"/>
<path d="M19.9967 18.7966C19.9368 18.7966 19.8792 18.7812 19.8239 18.7505L14.9735 15.9486C14.8076 15.8541 14.7523 15.6421 14.8468 15.4762C14.9436 15.3126 15.1533 15.255 15.3192 15.3518L20.1695 18.1514C20.3354 18.2459 20.393 18.4579 20.2962 18.6238C20.2317 18.7344 20.1165 18.7966 19.9967 18.7966Z" fill="white"/>
<path d="M17.224 15.1791C17.1065 15.1791 16.9889 15.1169 16.9244 15.0063C16.8299 14.8404 16.8876 14.6284 17.0511 14.5339L21.7264 11.8357C21.8324 11.7735 21.9637 11.7735 22.072 11.8357L24.3186 13.133C24.4822 13.2275 24.5398 13.4394 24.4453 13.6053C24.3485 13.7689 24.1366 13.8266 23.973 13.7321L21.8992 12.5339L17.3968 15.133C17.3415 15.1637 17.2839 15.1791 17.224 15.1791Z" fill="white"/>
<path d="M25.2194 15.2329C25.0995 15.2329 24.982 15.1707 24.9198 15.0601C24.8231 14.8942 24.8806 14.6822 25.0442 14.5877L27.2609 13.3089L23.6894 11.2467C23.5235 11.1499 23.4659 10.9402 23.5627 10.7743C23.6571 10.6084 23.8691 10.5531 24.035 10.6476L28.1249 13.0094C28.2309 13.0716 28.2978 13.1845 28.2978 13.3089C28.2978 13.4333 28.2309 13.5462 28.1249 13.6085L25.3899 15.1868C25.3346 15.2176 25.2777 15.2329 25.2194 15.2329Z" fill="white"/>
<path d="M27.2381 11.1976C27.1183 11.1976 27.0031 11.1377 26.9386 11.0247C26.8441 10.8612 26.8994 10.6492 27.0653 10.5547L30.0516 8.82886L28.8257 8.12147C28.7197 8.05926 28.6529 7.94636 28.6529 7.82193C28.6529 7.6975 28.7197 7.58459 28.8257 7.52237L32.0332 5.67211C32.1991 5.57534 32.4087 5.63294 32.5055 5.79653C32.6 5.96244 32.5447 6.17442 32.3788 6.26889L29.6898 7.82193L30.9156 8.52932C31.0239 8.59153 31.0884 8.70443 31.0884 8.82886C31.0884 8.95329 31.0239 9.06619 30.9156 9.1284L27.4109 11.1515C27.3556 11.1837 27.298 11.1991 27.2381 11.1976Z" fill="white"/>
<path d="M25.617 10.0969C25.4972 10.0969 25.382 10.0347 25.3175 9.92413C25.223 9.75823 25.2783 9.54625 25.4442 9.45178L27.1747 8.45175C27.3383 8.35728 27.5503 8.4149 27.6447 8.57849C27.7415 8.7444 27.6839 8.95638 27.5203 9.05085L25.7898 10.0509C25.7345 10.0816 25.6769 10.0969 25.617 10.0969Z" fill="white"/>
<path d="M12.3266 10.0279C12.2652 10.0279 12.2076 10.0125 12.1538 9.98181L8.58002 7.91955C8.41412 7.82278 8.3565 7.61079 8.45328 7.44719C8.54775 7.28129 8.75974 7.22369 8.92565 7.32047L12.3266 9.28363L14.8013 7.85503C14.9073 7.79281 15.0387 7.79281 15.147 7.85503L17.6816 9.3182C17.8475 9.41497 18.0019 9.85817 17.9051 10.0241C17.8106 10.19 17.5019 10.0141 17.336 9.91728L14.9742 8.5532L12.4995 9.98181C12.4442 10.0125 12.3865 10.0279 12.3266 10.0279Z" fill="white"/>
<path d="M10.6759 7.18481C10.5561 7.18481 10.5077 7.18021 10.4455 7.06961C10.3487 6.9037 10.5077 6.4442 10.6736 6.34972L12.8073 5.11697C12.9132 5.05476 13.0469 5.05476 13.1529 5.11697L14.7082 6.01331C14.8741 6.11008 14.9294 6.32207 14.835 6.48566C14.7382 6.65157 14.5285 6.70918 14.3626 6.61241L12.9801 5.81515L11.0215 7.06961C10.9662 7.10186 10.7358 7.18481 10.6759 7.18481Z" fill="white"/>
<path d="M19.1287 8.92315C19.0687 8.92315 19.0111 8.90779 18.9558 8.87707L16.7968 7.6305C16.6309 7.53373 16.5733 7.32403 16.6701 7.15813C16.7645 6.99223 16.9765 6.93463 17.1424 7.0314L19.3015 8.27798C19.4674 8.37476 19.525 8.58444 19.4282 8.75034C19.3637 8.86094 19.2485 8.92315 19.1287 8.92315Z" fill="white"/>
<path d="M14.1022 11.5179C13.9824 11.5179 13.8188 11.5469 13.7566 11.4363C13.6598 11.2704 13.7082 10.9211 13.8718 10.8267L15.2773 10.0538C15.4432 9.95934 15.6552 10.0147 15.7497 10.1806C15.8441 10.3465 15.7888 10.5584 15.6229 10.6529L14.2658 11.4363C14.2105 11.4671 14.1606 11.5179 14.1022 11.5179Z" fill="white"/>
<path d="M25.5135 21.8527C25.3937 21.8527 25.2784 21.7905 25.2139 21.6799C25.1171 21.514 25.1748 21.3043 25.3407 21.2076L27.108 20.1868L24.6632 18.7743L20.1908 21.3574C20.0848 21.4196 19.9512 21.4196 19.8452 21.3574L17.246 19.8573C17.0801 19.7605 17.0225 19.5509 17.1193 19.385C17.2138 19.2191 17.4258 19.1615 17.5917 19.2582L20.018 20.6592L24.4904 18.0762C24.5987 18.0163 24.7301 18.0163 24.8361 18.0762L27.9721 19.8873C28.0804 19.9495 28.1449 20.0624 28.1449 20.1868C28.1449 20.3112 28.0804 20.4241 27.9721 20.4864L25.6863 21.8067C25.631 21.8374 25.5734 21.8527 25.5135 21.8527Z" fill="white"/>
<path d="M23.696 15.6438L21.4195 16.9572L19.1406 15.6438L21.4195 14.3281L23.696 15.6438Z" fill="white"/>
<path fill-rule="evenodd" clip-rule="evenodd" d="M21.4194 17.3053C21.358 17.3053 21.3004 17.2899 21.2466 17.2592L18.9677 15.9435C18.8617 15.8836 18.7949 15.7684 18.7949 15.6463C18.7949 15.5219 18.8617 15.4066 18.9677 15.3467L21.2466 14.031C21.3526 13.9688 21.4839 13.9688 21.5922 14.031L23.8688 15.3467C23.9771 15.4066 24.0416 15.5219 24.0416 15.6463C24.0416 15.7684 23.9771 15.8836 23.8688 15.9435L21.5922 17.2592C21.5369 17.2899 21.4793 17.3053 21.4194 17.3053ZM19.8318 15.6463L21.4194 16.561L23.0047 15.6463L21.4194 14.7292L19.8318 15.6463Z" fill="white"/>
<path d="M37.7312 12.3212L35.4523 13.6369L33.1758 12.3212L35.4523 11.0078L37.7312 12.3212Z" fill="#FF4F4F"/>
<path fill-rule="evenodd" clip-rule="evenodd" d="M35.4523 13.9772C35.3923 13.9772 35.3347 13.9618 35.2794 13.9311L33.0029 12.6154C32.8969 12.5532 32.8301 12.4403 32.8301 12.3158C32.8301 12.1937 32.8969 12.0785 33.0029 12.0163L35.2794 10.7029C35.3877 10.6407 35.5191 10.6407 35.6251 10.7029L37.9039 12.0163C38.0099 12.0785 38.0767 12.1937 38.0767 12.3158C38.0767 12.4403 38.0099 12.5532 37.9039 12.6154L35.6251 13.9311C35.5713 13.9618 35.5137 13.9772 35.4523 13.9772ZM33.867 12.3158L35.4523 13.2329L37.0398 12.3158L35.4523 11.4011L33.867 12.3158Z" fill="#3A3A3A"/>
<path d="M23.3249 4.0032L21.0484 5.31659L18.7695 4.0032L21.0484 2.6875L23.3249 4.0032Z" fill="#FF4F4F"/>
<path fill-rule="evenodd" clip-rule="evenodd" d="M21.0483 5.65686C20.9869 5.65686 20.9293 5.6415 20.8755 5.61077L18.5966 4.29508C18.4906 4.23517 18.4238 4.11996 18.4238 3.99784C18.4238 3.87341 18.4906 3.75821 18.5966 3.6983L20.8755 2.3826C20.9815 2.32038 21.1128 2.32038 21.2211 2.3826L23.4977 3.6983C23.6037 3.75821 23.6705 3.87341 23.6705 3.99784C23.6705 4.11996 23.6037 4.23517 23.4977 4.29508L21.2211 5.61077C21.1658 5.6415 21.1082 5.65686 21.0483 5.65686ZM19.4607 3.99784L21.0483 4.91261L22.6336 3.99784L21.0483 3.08077L19.4607 3.99784Z" fill="#3A3A3A"/>
<path d="M8.91868 12.3212L6.64213 13.6369L4.36328 12.3212L6.64213 11.0078L8.91868 12.3212Z" fill="#FF4F4F"/>
<path fill-rule="evenodd" clip-rule="evenodd" d="M6.64206 13.9772C6.58061 13.9772 6.52301 13.9618 6.46924 13.9311L4.19039 12.6154C4.0844 12.5532 4.01758 12.4403 4.01758 12.3158C4.01758 12.1937 4.0844 12.0785 4.19039 12.0163L6.46924 10.7029C6.57524 10.6407 6.70657 10.6407 6.81487 10.7029L9.09142 12.0163C9.19741 12.0785 9.26423 12.1937 9.26423 12.3158C9.26423 12.4403 9.19741 12.5532 9.09142 12.6154L6.81487 13.9311C6.75957 13.9618 6.70197 13.9772 6.64206 13.9772ZM5.05447 12.3158L6.64206 13.2329L8.22734 12.3158L6.64206 11.4011L5.05447 12.3158Z" fill="#3A3A3A"/>
</svg>
