<svg width="20" height="20" viewBox="0 0 20 20" fill="none" xmlns="http://www.w3.org/2000/svg">
<path d="M12.3757 3.29427V6.46094H11.1257V3.29427C11.1257 3.06927 10.9257 2.96094 10.7923 2.96094C10.7507 2.96094 10.709 2.96927 10.6673 2.98594L4.05898 5.4776C3.61732 5.64427 3.33398 6.06094 3.33398 6.53594V7.09427C2.57565 7.66094 2.08398 8.56927 2.08398 9.59427V6.53594C2.08398 5.54427 2.69232 4.66094 3.61732 4.31094L10.234 1.81094C10.4173 1.74427 10.609 1.71094 10.7923 1.71094C11.6257 1.71094 12.3757 2.38594 12.3757 3.29427Z" fill="#292D32"/>
<path d="M17.9159 12.0807V12.9141C17.9159 13.1391 17.7409 13.3224 17.5076 13.3307H16.2909C15.8493 13.3307 15.4493 13.0057 15.4159 12.5724C15.3909 12.3141 15.4909 12.0724 15.6576 11.9057C15.8076 11.7474 16.0159 11.6641 16.2409 11.6641H17.4993C17.7409 11.6724 17.9159 11.8557 17.9159 12.0807Z" fill="#292D32"/>
<path d="M16.234 10.7943H17.084C17.5423 10.7943 17.9173 10.4193 17.9173 9.96094V9.59427C17.9173 7.86927 16.509 6.46094 14.784 6.46094H5.21732C4.50898 6.46094 3.85898 6.69427 3.33398 7.09427C2.57565 7.66094 2.08398 8.56927 2.08398 9.59427V15.2026C2.08398 16.9276 3.49232 18.3359 5.21732 18.3359H14.784C16.509 18.3359 17.9173 16.9276 17.9173 15.2026V15.0443C17.9173 14.5859 17.5423 14.2109 17.084 14.2109H16.359C15.559 14.2109 14.7923 13.7193 14.584 12.9443C14.409 12.3109 14.6173 11.7026 15.034 11.2943C15.3423 10.9776 15.7673 10.7943 16.234 10.7943ZM11.6673 10.6276H5.83398C5.49232 10.6276 5.20898 10.3443 5.20898 10.0026C5.20898 9.66094 5.49232 9.3776 5.83398 9.3776H11.6673C12.009 9.3776 12.2923 9.66094 12.2923 10.0026C12.2923 10.3443 12.009 10.6276 11.6673 10.6276Z" fill="#292D32"/>
</svg>
