<svg width="20" height="20" viewBox="0 0 20 20" fill="none" xmlns="http://www.w3.org/2000/svg">
<path d="M13.3334 17.5V15.8333C13.3334 14.9493 12.9822 14.1014 12.357 13.4763C11.7319 12.8512 10.8841 12.5 10 12.5H5.00002C4.11597 12.5 3.26812 12.8512 2.643 13.4763C2.01788 14.1014 1.66669 14.9493 1.66669 15.8333V17.5" stroke="#6A7282" stroke-width="1.66667" stroke-linecap="round" stroke-linejoin="round"/>
<path d="M7.50002 9.16667C9.34097 9.16667 10.8334 7.67428 10.8334 5.83333C10.8334 3.99238 9.34097 2.5 7.50002 2.5C5.65907 2.5 4.16669 3.99238 4.16669 5.83333C4.16669 7.67428 5.65907 9.16667 7.50002 9.16667Z" stroke="#6A7282" stroke-width="1.66667" stroke-linecap="round" stroke-linejoin="round"/>
<path d="M18.3335 17.501V15.8344C18.3329 15.0958 18.0871 14.3784 17.6346 13.7946C17.1821 13.2109 16.5486 12.794 15.8335 12.6094" stroke="#6A7282" stroke-width="1.66667" stroke-linecap="round" stroke-linejoin="round"/>
<path d="M13.3335 2.60938C14.0505 2.79296 14.686 3.20996 15.1399 3.79463C15.5937 4.37931 15.84 5.0984 15.84 5.83854C15.84 6.57868 15.5937 7.29777 15.1399 7.88245C14.686 8.46712 14.0505 8.88412 13.3335 9.06771" stroke="#6A7282" stroke-width="1.66667" stroke-linecap="round" stroke-linejoin="round"/>
</svg>
