<svg width="20" height="20" viewBox="0 0 20 20" fill="none" xmlns="http://www.w3.org/2000/svg">
<path d="M15.3333 8.24464V13.5963C15.3333 14.9963 15.3333 15.6964 15.0608 16.2312C14.8212 16.7016 14.4387 17.0841 13.9683 17.3238C13.4335 17.5963 12.7335 17.5963 11.3333 17.5963H7.66667C6.26653 17.5963 5.56647 17.5963 5.03169 17.3238C4.56128 17.0841 4.17883 16.7016 3.93915 16.2312C3.66667 15.6964 3.66667 14.9963 3.66667 13.5963V8.24409M17 10.0963L12.4723 5.06619C11.4426 3.92222 10.9278 3.35024 10.3213 3.13907C9.78883 2.9536 9.20917 2.95364 8.67658 3.13919C8.07025 3.35044 7.55551 3.92251 6.52595 5.06664L2 10.0963M11.1667 10.0963C11.1667 11.0167 10.4205 11.7629 9.5 11.7629C8.5795 11.7629 7.83333 11.0167 7.83333 10.0963C7.83333 9.17575 8.5795 8.42955 9.5 8.42955C10.4205 8.42955 11.1667 9.17575 11.1667 10.0963Z" stroke="#6A7282" stroke-width="1.5" stroke-linecap="round" stroke-linejoin="round"/>
</svg>
