<svg width="16" height="16" viewBox="0 0 16 16" fill="none" xmlns="http://www.w3.org/2000/svg">
<g clip-path="url(#clip0_2778_26562)">
<path d="M1.3335 3.9987C1.7335 4.33203 2.1335 4.66536 3.00016 4.66536C4.66683 4.66536 4.66683 3.33203 6.3335 3.33203C7.20016 3.33203 7.60016 3.66536 8.00016 3.9987C8.40016 4.33203 8.80016 4.66536 9.66683 4.66536C11.3335 4.66536 11.3335 3.33203 13.0002 3.33203C13.8668 3.33203 14.2668 3.66536 14.6668 3.9987M1.3335 11.9987C1.7335 12.332 2.1335 12.6654 3.00016 12.6654C4.66683 12.6654 4.66683 11.332 6.3335 11.332C7.20016 11.332 7.60016 11.6654 8.00016 11.9987C8.40016 12.332 8.80016 12.6654 9.66683 12.6654C11.3335 12.6654 11.3335 11.332 13.0002 11.332C13.8668 11.332 14.2668 11.6654 14.6668 11.9987M1.3335 7.9987C1.7335 8.33203 2.1335 8.66536 3.00016 8.66536C4.66683 8.66536 4.66683 7.33203 6.3335 7.33203C7.20016 7.33203 7.60016 7.66536 8.00016 7.9987C8.40016 8.33203 8.80016 8.66536 9.66683 8.66536C11.3335 8.66536 11.3335 7.33203 13.0002 7.33203C13.8668 7.33203 14.2668 7.66536 14.6668 7.9987" stroke="#8C8C8C" stroke-width="1.5" stroke-linecap="round" stroke-linejoin="round"/>
</g>
<defs>
<clipPath id="clip0_2778_26562">
<rect width="16" height="16" fill="white"/>
</clipPath>
</defs>
</svg>
