<svg width="140" height="140" viewBox="0 0 140 140" fill="none" xmlns="http://www.w3.org/2000/svg">
<g clip-path="url(#clip0_31349_30414)">
<path d="M133.75 75.4558C134.308 75.7401 134.503 76.4079 134.182 76.9474L110.431 116.936C110.11 117.475 109.397 117.681 108.839 117.397L48.9207 86.8665C48.3603 86.5809 48.166 85.9131 48.4864 85.3736L72.2381 45.385C72.5586 44.8456 73.2716 44.64 73.832 44.9255L133.75 75.4558Z" fill="black"/>
<path d="M109.375 117.584C109.183 117.584 108.99 117.541 108.812 117.45L48.8938 86.9196C48.608 86.774 48.4031 86.5298 48.3169 86.232C48.231 85.9351 48.2734 85.6205 48.4363 85.3463L72.1879 45.3577C72.5227 44.7939 73.2714 44.578 73.8572 44.8764L133.776 75.4067C134.06 75.5515 134.264 75.7951 134.35 76.0923C134.436 76.3895 134.394 76.7043 134.231 76.9787L110.479 116.967C110.246 117.359 109.814 117.583 109.375 117.584ZM73.2907 44.8566C72.8915 44.8566 72.4982 45.06 72.2866 45.4164L48.5349 85.4049C48.3883 85.6515 48.3501 85.9339 48.4271 86.1999C48.5044 86.467 48.6887 86.6862 48.9459 86.8173L108.864 117.348C109.396 117.618 110.076 117.421 110.38 116.909L134.132 76.9201C134.279 76.6732 134.317 76.3906 134.24 76.1243C134.163 75.8578 133.979 75.6393 133.723 75.5089L73.8051 44.9787C73.6457 44.8979 73.4694 44.8561 73.2907 44.8566Z" fill="#111111"/>
<path d="M77.9524 56.8821L71.3147 53.5L67.5195 59.8895L74.1572 63.2717L77.9524 56.8821Z" fill="white"/>
<path d="M74.1599 63.3317C74.1509 63.3317 74.142 63.3296 74.1339 63.3255L67.4962 59.9434C67.4892 59.9399 67.483 59.9349 67.478 59.9289C67.473 59.9228 67.4693 59.9158 67.4671 59.9083C67.4649 59.9007 67.4643 59.8928 67.4653 59.885C67.4663 59.8772 67.4689 59.8698 67.473 59.863L71.2681 53.4734C71.2755 53.4609 71.2875 53.4516 71.3015 53.4476C71.3155 53.4435 71.3305 53.445 71.3435 53.4516L77.9812 56.8337C77.9882 56.8373 77.9944 56.8422 77.9994 56.8483C78.0044 56.8543 78.0082 56.8613 78.0103 56.8689C78.0125 56.8764 78.0131 56.8843 78.0121 56.8921C78.0111 56.8999 78.0085 56.9074 78.0044 56.9141L74.2092 63.3037C74.2042 63.3122 74.1969 63.3193 74.1883 63.3242C74.1796 63.3291 74.1699 63.3317 74.1599 63.3317ZM67.6028 59.8689L74.138 63.1988L77.8745 56.908L71.3393 53.5781L67.6028 59.8689Z" fill="#111111"/>
<path d="M86.1672 61.0696L79.5295 57.6875L75.7344 64.077L82.372 67.4592L86.1672 61.0696Z" fill="white"/>
<path d="M82.3746 67.5192C82.3656 67.5192 82.3567 67.5171 82.3486 67.513L75.711 64.1309C75.704 64.1274 75.6978 64.1224 75.6928 64.1164C75.6878 64.1103 75.6841 64.1033 75.682 64.0958C75.6798 64.0882 75.6792 64.0803 75.6801 64.0726C75.6811 64.0648 75.6837 64.0573 75.6877 64.0505L79.4829 57.6609C79.4903 57.6484 79.5023 57.6391 79.5163 57.6351C79.5303 57.631 79.5453 57.6325 79.5583 57.6391L86.1959 61.0212C86.203 61.0248 86.2092 61.0297 86.2142 61.0358C86.2192 61.0418 86.2229 61.0488 86.2251 61.0564C86.2273 61.0639 86.2279 61.0718 86.2268 61.0796C86.2258 61.0874 86.2232 61.0949 86.2192 61.1016L82.424 67.4912C82.4189 67.4997 82.4117 67.5068 82.4031 67.5117C82.3944 67.5167 82.3846 67.5192 82.3746 67.5192ZM75.8176 64.0565L82.3528 67.3863L86.0892 61.0956L79.554 57.7657L75.8176 64.0565Z" fill="#111111"/>
<path d="M94.3821 65.2571L87.7444 61.875L83.9492 68.2646L90.5869 71.6467L94.3821 65.2571Z" fill="white"/>
<path d="M90.5896 71.6989C90.5806 71.6989 90.5716 71.6968 90.5636 71.6927L83.9259 68.3106C83.9189 68.307 83.9127 68.3021 83.9077 68.296C83.9027 68.29 83.899 68.283 83.8968 68.2754C83.8946 68.2679 83.894 68.26 83.895 68.2522C83.896 68.2444 83.8986 68.2369 83.9027 68.2302L87.6978 61.8406C87.7053 61.828 87.7172 61.8188 87.7312 61.8148C87.7452 61.8107 87.7602 61.8121 87.7732 61.8188L94.4108 65.2009C94.4178 65.2044 94.4241 65.2094 94.4291 65.2154C94.4341 65.2215 94.4378 65.2285 94.44 65.236C94.4421 65.2436 94.4427 65.2515 94.4417 65.2592C94.4407 65.267 94.4381 65.2745 94.4341 65.2813L90.6389 71.6708C90.6339 71.6794 90.6266 71.6865 90.618 71.6914C90.6093 71.6963 90.5996 71.6989 90.5896 71.6989ZM84.0325 68.2361L90.5677 71.566L94.3042 65.2752L87.769 61.9453L84.0325 68.2361Z" fill="#111111"/>
<path d="M102.597 69.4368L95.9593 66.0547L92.1641 72.4443L98.8018 75.8264L102.597 69.4368Z" fill="white"/>
<path d="M98.8005 75.8863C98.7914 75.8863 98.7825 75.8842 98.7745 75.8801L92.1368 72.498C92.1298 72.4945 92.1236 72.4895 92.1186 72.4835C92.1136 72.4775 92.1099 72.4704 92.1077 72.4629C92.1055 72.4554 92.1049 72.4474 92.1059 72.4397C92.107 72.4319 92.1096 72.4244 92.1136 72.4176L95.9087 66.0281C95.9162 66.0156 95.9281 66.0063 95.9421 66.0023C95.9561 65.9982 95.9712 65.9996 95.9841 66.0063L102.622 69.3884C102.629 69.3919 102.635 69.3969 102.64 69.4029C102.645 69.409 102.649 69.416 102.651 69.4235C102.653 69.431 102.654 69.4389 102.653 69.4467C102.652 69.4545 102.649 69.462 102.645 69.4687L98.8499 75.8583C98.8448 75.8669 98.8376 75.874 98.8289 75.8789C98.8202 75.8838 98.8104 75.8864 98.8005 75.8863ZM92.2434 72.4236L98.7787 75.7535L102.515 69.4627L95.9799 66.1329L92.2434 72.4236Z" fill="#111111"/>
<path d="M110.812 73.6243L104.174 70.2422L100.379 76.6318L107.017 80.0139L110.812 73.6243Z" fill="white"/>
<path d="M107.015 80.0738C107.006 80.0738 106.997 80.0717 106.989 80.0676L100.352 76.6855C100.345 76.682 100.338 76.677 100.333 76.671C100.328 76.665 100.325 76.6579 100.323 76.6504C100.32 76.6429 100.32 76.6349 100.321 76.6272C100.322 76.6194 100.324 76.6119 100.328 76.6051L104.124 70.2156C104.131 70.2031 104.143 70.1938 104.157 70.1898C104.171 70.1857 104.186 70.1871 104.199 70.1938L110.837 73.5759C110.844 73.5794 110.85 73.5843 110.855 73.5904C110.86 73.5964 110.864 73.6034 110.866 73.611C110.868 73.6185 110.869 73.6264 110.868 73.6342C110.867 73.642 110.864 73.6495 110.86 73.6562L107.065 80.0458C107.06 80.0543 107.052 80.0614 107.044 80.0664C107.035 80.0713 107.025 80.0739 107.015 80.0738ZM100.458 76.6111L106.994 79.9409L110.73 73.6502L104.195 70.3203L100.458 76.6111Z" fill="#111111"/>
<path d="M119.024 77.8105L112.389 74.4297L108.594 80.8192L115.229 84.2001L119.024 77.8105Z" fill="white"/>
<path d="M115.228 84.2523C115.219 84.2523 115.21 84.2502 115.202 84.2461L108.567 80.8652C108.56 80.8617 108.553 80.8567 108.548 80.8507C108.543 80.8446 108.54 80.8376 108.537 80.8301C108.535 80.8225 108.535 80.8146 108.536 80.8068C108.537 80.7991 108.539 80.7916 108.543 80.7848L112.338 74.3953C112.346 74.3827 112.358 74.3735 112.372 74.3694C112.386 74.3654 112.401 74.3668 112.414 74.3735L119.049 77.7543C119.056 77.7578 119.062 77.7628 119.067 77.7688C119.072 77.7749 119.076 77.7819 119.078 77.7894C119.08 77.797 119.081 77.8049 119.08 77.8127C119.079 77.8204 119.076 77.8279 119.072 77.8347L115.277 84.2243C115.272 84.2328 115.265 84.2399 115.256 84.2448C115.247 84.2498 115.238 84.2523 115.228 84.2523ZM108.673 80.7908L115.206 84.1194L118.942 77.8286L112.41 74.5001L108.673 80.7908Z" fill="#111111"/>
<path d="M127.238 81.9914L120.6 78.6094L116.805 84.999L123.442 88.381L127.238 81.9914Z" fill="white"/>
<path d="M123.441 88.4411C123.432 88.4411 123.423 88.4389 123.415 88.4348L116.777 85.0527C116.77 85.0492 116.764 85.0442 116.759 85.0382C116.754 85.0321 116.751 85.0251 116.748 85.0176C116.746 85.01 116.746 85.0021 116.747 84.9943C116.748 84.9866 116.75 84.9791 116.754 84.9723L120.549 78.5828C120.557 78.5702 120.569 78.561 120.583 78.5569C120.597 78.5529 120.612 78.5543 120.625 78.561L127.262 81.943C127.269 81.9466 127.276 81.9515 127.281 81.9576C127.286 81.9636 127.289 81.9706 127.292 81.9782C127.294 81.9857 127.294 81.9936 127.293 82.0014C127.292 82.0092 127.29 82.0167 127.286 82.0234L123.49 88.413C123.485 88.4216 123.478 88.4287 123.47 88.4336C123.461 88.4385 123.451 88.4411 123.441 88.4411ZM116.884 84.9782L123.419 88.3081L127.156 82.0173L120.621 78.6875L116.884 84.9782Z" fill="#111111"/>
<path d="M73.4016 64.554L66.7639 61.1719L62.9688 67.5615L69.6064 70.9436L73.4016 64.554Z" fill="white"/>
<path d="M69.6052 70.9958C69.5961 70.9958 69.5872 70.9937 69.5792 70.9895L62.9415 67.6074C62.9345 67.6039 62.9283 67.5989 62.9233 67.5929C62.9183 67.5868 62.9146 67.5798 62.9124 67.5723C62.9102 67.5648 62.9096 67.5568 62.9106 67.5491C62.9116 67.5413 62.9143 67.5338 62.9183 67.527L66.7134 61.1375C66.7208 61.1249 66.7328 61.1157 66.7468 61.1116C66.7608 61.1076 66.7758 61.109 66.7888 61.1157L73.4265 64.4977C73.4335 64.5013 73.4397 64.5062 73.4447 64.5123C73.4497 64.5183 73.4534 64.5253 73.4556 64.5329C73.4578 64.5404 73.4584 64.5483 73.4574 64.5561C73.4563 64.5639 73.4537 64.5714 73.4497 64.5781L69.6546 70.9677C69.6495 70.9763 69.6422 70.9834 69.6336 70.9883C69.6249 70.9932 69.6151 70.9958 69.6052 70.9958ZM63.0481 67.533L69.5834 70.8629L73.3198 64.5721L66.7846 61.2422L63.0481 67.533Z" fill="#111111"/>
<path d="M81.6164 68.7337L74.9787 65.3516L71.1836 71.7412L77.8212 75.1233L81.6164 68.7337Z" fill="white"/>
<path d="M77.82 75.1832C77.811 75.1832 77.8021 75.1811 77.794 75.177L71.1564 71.7949C71.1494 71.7914 71.1432 71.7864 71.1381 71.7804C71.1331 71.7743 71.1294 71.7673 71.1272 71.7598C71.1251 71.7522 71.1245 71.7443 71.1255 71.7365C71.1265 71.7287 71.1291 71.7213 71.1331 71.7145L74.9283 65.325C74.9357 65.3124 74.9476 65.3032 74.9616 65.2991C74.9757 65.2951 74.9907 65.2965 75.0037 65.3032L81.6414 68.6852C81.6484 68.6888 81.6546 68.6937 81.6596 68.6998C81.6646 68.7058 81.6683 68.7128 81.6705 68.7204C81.6727 68.7279 81.6733 68.7358 81.6723 68.7436C81.6712 68.7514 81.6686 68.7589 81.6646 68.7656L77.8694 75.1552C77.8643 75.1637 77.8571 75.1708 77.8484 75.1757C77.8398 75.1807 77.83 75.1832 77.82 75.1832ZM71.263 71.7205L77.7981 75.0503L81.5346 68.7596L74.9994 65.4298L71.263 71.7205Z" fill="#111111"/>
<path d="M89.8313 72.9211L83.1936 69.5391L79.3984 75.9286L86.0361 79.3107L89.8313 72.9211Z" fill="white"/>
<path d="M86.0348 79.3707C86.0258 79.3707 86.0169 79.3686 86.0089 79.3645L79.3712 75.9824C79.3642 75.9789 79.358 75.9739 79.353 75.9679C79.348 75.9618 79.3443 75.9548 79.3421 75.9473C79.3399 75.9397 79.3393 75.9318 79.3403 75.924C79.3413 75.9162 79.3439 75.9088 79.348 75.902L83.1431 69.5125C83.1505 69.4999 83.1625 69.4907 83.1765 69.4866C83.1905 69.4826 83.2055 69.484 83.2185 69.4907L89.8562 72.8727C89.8632 72.8763 89.8694 72.8812 89.8744 72.8873C89.8794 72.8933 89.8831 72.9003 89.8853 72.9079C89.8875 72.9154 89.8881 72.9233 89.887 72.9311C89.886 72.9389 89.8834 72.9464 89.8794 72.9531L86.0842 79.3427C86.0791 79.3512 86.0719 79.3583 86.0633 79.3632C86.0546 79.3681 86.0448 79.3707 86.0348 79.3707ZM79.4778 75.9079L86.013 79.2378L89.7495 72.947L83.2143 69.6172L79.4778 75.9079Z" fill="#111111"/>
<path d="M98.0422 77.1086L91.4045 73.7266L87.6094 80.1162L94.247 83.4982L98.0422 77.1086Z" fill="white"/>
<path d="M94.2458 83.5505C94.2367 83.5505 94.2278 83.5483 94.2198 83.5442L87.5821 80.1621C87.5751 80.1586 87.5689 80.1536 87.5639 80.1476C87.5589 80.1415 87.5552 80.1345 87.553 80.127C87.5508 80.1194 87.5502 80.1115 87.5513 80.1037C87.5523 80.0959 87.5549 80.0884 87.5589 80.0817L91.3541 73.6922C91.3615 73.6796 91.3734 73.6704 91.3874 73.6663C91.4014 73.6623 91.4165 73.6637 91.4294 73.6704L98.0671 77.0524C98.0741 77.056 98.0803 77.0609 98.0853 77.067C98.0903 77.073 98.094 77.08 98.0962 77.0876C98.0984 77.0951 98.099 77.103 98.098 77.1108C98.097 77.1186 98.0944 77.1261 98.0903 77.1328L94.2952 83.5224C94.2901 83.531 94.2829 83.5381 94.2742 83.543C94.2655 83.5479 94.2557 83.5505 94.2458 83.5505ZM87.6888 80.0877L94.224 83.4176L97.9604 77.1268L91.4252 73.7969L87.6888 80.0877Z" fill="#111111"/>
<path d="M106.257 81.2884L99.6194 77.9062L95.8242 84.2959L102.462 87.6779L106.257 81.2884Z" fill="white"/>
<path d="M102.461 87.738C102.452 87.738 102.443 87.7359 102.435 87.7317L95.797 84.3497C95.79 84.3461 95.7838 84.3412 95.7788 84.3352C95.7738 84.3291 95.7701 84.3221 95.7679 84.3146C95.7657 84.307 95.7651 84.2991 95.7661 84.2913C95.7671 84.2835 95.7697 84.276 95.7738 84.2693L99.569 77.8797C99.5764 77.8671 99.5883 77.8579 99.6023 77.8538C99.6163 77.8498 99.6314 77.8512 99.6444 77.8579L106.282 81.24C106.289 81.2435 106.295 81.2484 106.3 81.2545C106.305 81.2605 106.309 81.2675 106.311 81.2751C106.313 81.2826 106.314 81.2905 106.313 81.2983C106.312 81.3061 106.309 81.3136 106.305 81.3203L102.51 87.7099C102.505 87.7185 102.498 87.7256 102.489 87.7305C102.48 87.7354 102.471 87.738 102.461 87.738ZM95.9036 84.2752L102.439 87.6051L106.175 81.3143L99.64 77.9844L95.9036 84.2752Z" fill="#111111"/>
<path d="M114.469 85.4746L107.834 82.0938L104.039 88.4833L110.674 91.8642L114.469 85.4746Z" fill="white"/>
<path d="M110.673 91.9242C110.664 91.9242 110.655 91.9221 110.647 91.9179L104.012 88.5372C104.005 88.5336 103.999 88.5287 103.994 88.5226C103.989 88.5166 103.985 88.5096 103.983 88.502C103.981 88.4945 103.98 88.4866 103.981 88.4788C103.982 88.471 103.985 88.4635 103.989 88.4568L107.784 82.0672C107.791 82.0546 107.803 82.0454 107.817 82.0413C107.831 82.0373 107.846 82.0387 107.859 82.0454L114.494 85.4262C114.501 85.4298 114.508 85.4347 114.513 85.4407C114.518 85.4468 114.521 85.4538 114.523 85.4613C114.526 85.4689 114.526 85.4768 114.525 85.4846C114.524 85.4924 114.522 85.4999 114.518 85.5066L110.722 91.8961C110.717 91.9047 110.71 91.9118 110.701 91.9167C110.693 91.9217 110.683 91.9242 110.673 91.9242ZM104.119 88.4627L110.651 91.7913L114.388 85.5006L107.855 82.1719L104.119 88.4627Z" fill="#111111"/>
<path d="M122.683 89.6633L116.045 86.2812L112.25 92.6708L118.888 96.0529L122.683 89.6633Z" fill="white"/>
<path d="M118.886 96.1052C118.877 96.1052 118.868 96.103 118.86 96.0989L112.223 92.7169C112.216 92.7133 112.21 92.7084 112.205 92.7023C112.2 92.6963 112.196 92.6893 112.194 92.6817C112.191 92.6742 112.191 92.6663 112.192 92.6585C112.193 92.6507 112.195 92.6432 112.2 92.6365L115.995 86.2469C116.002 86.2343 116.014 86.2251 116.028 86.221C116.042 86.2169 116.057 86.2184 116.07 86.2251L122.708 89.6072C122.715 89.6107 122.721 89.6157 122.726 89.6217C122.731 89.6278 122.735 89.6348 122.737 89.6423C122.739 89.6499 122.74 89.6578 122.739 89.6656C122.738 89.6733 122.735 89.6808 122.731 89.6876L118.936 96.0771C118.931 96.0857 118.923 96.0928 118.915 96.0977C118.906 96.1026 118.896 96.1052 118.886 96.1052ZM112.329 92.6424L118.865 95.9722L122.601 89.6815L116.066 86.3516L112.329 92.6424Z" fill="#111111"/>
<path d="M68.8469 72.218L62.2093 68.8359L58.4141 75.2255L65.0518 78.6076L68.8469 72.218Z" fill="white"/>
<path d="M65.0505 78.6677C65.0414 78.6677 65.0325 78.6655 65.0245 78.6614L58.3868 75.2794C58.3798 75.2758 58.3736 75.2709 58.3686 75.2648C58.3636 75.2588 58.3599 75.2518 58.3577 75.2442C58.3555 75.2367 58.3549 75.2288 58.3559 75.221C58.357 75.2132 58.3596 75.2057 58.3636 75.199L62.1587 68.8094C62.1661 68.7968 62.178 68.7876 62.1921 68.7835C62.2061 68.7794 62.2211 68.7809 62.2341 68.7876L68.8717 72.1696C68.8787 72.1732 68.8849 72.1781 68.8899 72.1842C68.895 72.1902 68.8987 72.1972 68.9008 72.2048C68.903 72.2123 68.9036 72.2202 68.9026 72.228C68.9016 72.2358 68.899 72.2433 68.895 72.25L65.0999 78.6396C65.0948 78.6482 65.0876 78.6553 65.0789 78.6602C65.0702 78.6651 65.0604 78.6677 65.0505 78.6677ZM58.4934 75.2049L65.0287 78.5348L68.7651 72.244L62.2299 68.9142L58.4934 75.2049Z" fill="#111111"/>
<path d="M77.0617 76.4055L70.4241 73.0234L66.6289 79.413L73.2666 82.7951L77.0617 76.4055Z" fill="white"/>
<path d="M73.2653 82.8474C73.2563 82.8474 73.2474 82.8452 73.2393 82.8411L66.6017 79.459C66.5947 79.4555 66.5885 79.4506 66.5835 79.4445C66.5785 79.4385 66.5747 79.4315 66.5726 79.4239C66.5704 79.4164 66.5698 79.4085 66.5708 79.4007C66.5718 79.3929 66.5744 79.3854 66.5784 79.3787L70.3736 72.9891C70.381 72.9765 70.3929 72.9672 70.407 72.9632C70.421 72.9591 70.436 72.9606 70.449 72.9673L77.0866 76.3494C77.0936 76.3529 77.0998 76.3579 77.1048 76.3639C77.1099 76.3699 77.1136 76.377 77.1157 76.3845C77.1179 76.392 77.1185 76.4 77.1175 76.4077C77.1165 76.4155 77.1139 76.423 77.1099 76.4298L73.3147 82.8193C73.3096 82.8279 73.3024 82.835 73.2937 82.8399C73.2851 82.8448 73.2753 82.8474 73.2653 82.8474ZM66.7083 79.3846L73.2435 82.7145L76.98 76.4237L70.4447 73.0938L66.7083 79.3846Z" fill="#111111"/>
<path d="M85.2766 80.5852L78.639 77.2031L74.8438 83.5927L81.4814 86.9748L85.2766 80.5852Z" fill="white"/>
<path d="M81.4801 87.0349C81.4711 87.0349 81.4622 87.0327 81.4541 87.0286L74.8165 83.6465C74.8095 83.643 74.8033 83.638 74.7983 83.632C74.7933 83.6259 74.7896 83.6189 74.7874 83.6114C74.7852 83.6039 74.7846 83.596 74.7856 83.5882C74.7866 83.5804 74.7892 83.5729 74.7932 83.5662L78.5884 77.1766C78.5958 77.164 78.6077 77.1547 78.6218 77.1507C78.6358 77.1466 78.6508 77.1481 78.6638 77.1548L85.3014 80.5369C85.3084 80.5404 85.3146 80.5454 85.3196 80.5514C85.3246 80.5574 85.3284 80.5645 85.3305 80.572C85.3327 80.5795 85.3333 80.5875 85.3323 80.5952C85.3313 80.603 85.3287 80.6105 85.3247 80.6173L81.5295 87.0068C81.5244 87.0154 81.5172 87.0225 81.5085 87.0274C81.4999 87.0323 81.4901 87.0349 81.4801 87.0349ZM74.9231 83.5721L81.4583 86.9019L85.1948 80.6112L78.6595 77.2813L74.9231 83.5721Z" fill="#111111"/>
<path d="M93.4875 84.7727L86.8498 81.3906L83.0547 87.7802L89.6923 91.1623L93.4875 84.7727Z" fill="white"/>
<path d="M89.6911 91.2223C89.6821 91.2223 89.6731 91.2202 89.6651 91.216L83.0275 87.834C83.0205 87.8304 83.0143 87.8255 83.0092 87.8195C83.0042 87.8134 83.0005 87.8064 82.9983 87.7989C82.9962 87.7913 82.9956 87.7834 82.9966 87.7756C82.9976 87.7678 83.0002 87.7603 83.0042 87.7536L86.7994 81.3641C86.8068 81.3515 86.8187 81.3422 86.8327 81.3382C86.8468 81.3341 86.8618 81.3356 86.8748 81.3423L93.5124 84.7243C93.5194 84.7279 93.5256 84.7328 93.5306 84.7388C93.5356 84.7449 93.5393 84.7519 93.5415 84.7594C93.5437 84.767 93.5443 84.7749 93.5433 84.7827C93.5423 84.7905 93.5397 84.798 93.5356 84.8047L89.7405 91.1942C89.7354 91.2028 89.7282 91.2099 89.7195 91.2148C89.7108 91.2197 89.7011 91.2223 89.6911 91.2223ZM83.1341 87.7595L89.6693 91.0893L93.4057 84.7986L86.8705 81.4688L83.1341 87.7595Z" fill="#111111"/>
<path d="M101.702 88.9602L95.0647 85.5781L91.2695 91.9677L97.9072 95.3498L101.702 88.9602Z" fill="white"/>
<path d="M97.906 95.402C97.897 95.402 97.8881 95.3998 97.88 95.3957L91.2423 92.0137C91.2353 92.0101 91.2291 92.0052 91.2241 91.9991C91.2191 91.9931 91.2154 91.9861 91.2132 91.9785C91.211 91.971 91.2104 91.9631 91.2114 91.9553C91.2124 91.9475 91.215 91.94 91.2191 91.9333L95.0142 85.5437C95.0216 85.5312 95.0336 85.5219 95.0476 85.5179C95.0616 85.5138 95.0766 85.5153 95.0896 85.5219L101.727 88.904C101.734 88.9076 101.74 88.9125 101.745 88.9186C101.75 88.9246 101.754 88.9316 101.756 88.9391C101.758 88.9467 101.759 88.9546 101.758 88.9624C101.757 88.9701 101.755 88.9776 101.751 88.9844L97.9554 95.3739C97.9503 95.3825 97.9431 95.3896 97.9344 95.3945C97.9257 95.3994 97.916 95.402 97.906 95.402ZM91.349 91.9392L97.8842 95.269L101.621 88.9783L95.0854 85.6485L91.349 91.9392Z" fill="#111111"/>
<path d="M109.915 93.1464L103.28 89.7656L99.4844 96.1552L106.12 99.536L109.915 93.1464Z" fill="white"/>
<path d="M106.118 99.5883C106.109 99.5883 106.1 99.5862 106.092 99.5821L99.4572 96.2012C99.4501 96.1977 99.4439 96.1927 99.4389 96.1867C99.4339 96.1806 99.4302 96.1736 99.428 96.1661C99.4258 96.1585 99.4252 96.1506 99.4263 96.1428C99.4273 96.1351 99.4299 96.1276 99.4339 96.1208L103.229 89.7312C103.236 89.7187 103.248 89.7094 103.262 89.7054C103.276 89.7013 103.291 89.7028 103.304 89.7094L109.94 93.0902C109.947 93.0938 109.953 93.0987 109.958 93.1047C109.963 93.1108 109.967 93.1178 109.969 93.1253C109.971 93.1329 109.972 93.1408 109.971 93.1486C109.97 93.1564 109.967 93.1639 109.963 93.1706L106.168 99.5602C106.163 99.5688 106.155 99.5759 106.147 99.5808C106.138 99.5857 106.128 99.5883 106.118 99.5883ZM99.5638 96.1267L106.097 99.4554L109.833 93.1646L103.3 89.8361L99.5638 96.1267Z" fill="#111111"/>
<path d="M118.128 97.3274L111.49 93.9453L107.695 100.335L114.333 103.717L118.128 97.3274Z" fill="white"/>
<path d="M114.336 103.777C114.327 103.777 114.318 103.775 114.31 103.771L107.672 100.389C107.665 100.385 107.659 100.38 107.654 100.374C107.649 100.368 107.645 100.361 107.643 100.354C107.641 100.346 107.64 100.338 107.641 100.33C107.642 100.323 107.645 100.315 107.649 100.308L111.444 93.9187C111.451 93.9062 111.463 93.8969 111.477 93.8929C111.491 93.8888 111.506 93.8903 111.519 93.8969L118.157 97.279C118.164 97.2825 118.17 97.2875 118.175 97.2935C118.18 97.2996 118.184 97.3066 118.186 97.3141C118.188 97.3217 118.189 97.3296 118.188 97.3374C118.187 97.3451 118.184 97.3526 118.18 97.3594L114.385 103.749C114.38 103.758 114.373 103.765 114.364 103.77C114.355 103.774 114.346 103.777 114.336 103.777ZM107.779 100.314L114.314 103.644L118.05 97.3533L111.515 94.0234L107.779 100.314Z" fill="#111111"/>
<path d="M64.2922 79.8821L57.6545 76.5L53.8594 82.8895L60.497 86.2717L64.2922 79.8821Z" fill="white"/>
<path d="M60.4958 86.3317C60.4868 86.3317 60.4779 86.3296 60.4698 86.3255L53.8322 82.9434C53.8251 82.9398 53.8189 82.9349 53.8139 82.9288C53.8089 82.9228 53.8052 82.9158 53.803 82.9082C53.8008 82.9007 53.8002 82.8928 53.8013 82.885C53.8023 82.8772 53.8049 82.8697 53.8089 82.863L57.6041 76.4735C57.6115 76.4609 57.6235 76.4516 57.6375 76.4476C57.6515 76.4435 57.6665 76.445 57.6795 76.4516L64.3171 79.8337C64.3242 79.8372 64.3304 79.8422 64.3354 79.8482C64.3404 79.8543 64.3441 79.8613 64.3463 79.8688C64.3485 79.8764 64.3491 79.8843 64.348 79.8921C64.347 79.8999 64.3444 79.9074 64.3404 79.9141L60.5452 86.3037C60.5402 86.3123 60.5329 86.3193 60.5243 86.3243C60.5156 86.3292 60.5058 86.3318 60.4958 86.3317ZM53.9388 82.869L60.474 86.1989L64.2105 79.9081L57.6753 76.5782L53.9388 82.869Z" fill="#111111"/>
<path d="M72.5071 84.0696L65.8694 80.6875L62.0742 87.077L68.7119 90.4592L72.5071 84.0696Z" fill="white"/>
<path d="M68.7107 90.5193C68.7016 90.5193 68.6927 90.5172 68.6847 90.5131L62.047 87.1309C62.04 87.1273 62.0338 87.1224 62.0288 87.1163C62.0238 87.1103 62.0201 87.1033 62.0179 87.0957C62.0157 87.0882 62.0151 87.0803 62.0161 87.0725C62.0171 87.0647 62.0197 87.0572 62.0238 87.0505L65.8189 80.661C65.8263 80.6484 65.8382 80.6391 65.8523 80.6351C65.8663 80.631 65.8813 80.6325 65.8943 80.6391L72.5319 84.0212C72.5389 84.0247 72.5451 84.0297 72.5502 84.0357C72.5552 84.0418 72.5589 84.0488 72.5611 84.0563C72.5632 84.0639 72.5638 84.0718 72.5628 84.0796C72.5618 84.0874 72.5592 84.0949 72.5552 84.1016L68.76 90.4912C68.755 90.4998 68.7478 90.5069 68.7391 90.5118C68.7304 90.5167 68.7206 90.5193 68.7107 90.5193ZM62.1537 87.0565L68.6889 90.3864L72.4253 84.0956L65.8901 80.7657L62.1537 87.0565Z" fill="#111111"/>
<path d="M80.7218 88.2571L74.0842 84.875L70.2891 91.2646L76.9267 94.6467L80.7218 88.2571Z" fill="white"/>
<path d="M76.9255 94.6989C76.9165 94.6989 76.9076 94.6968 76.8995 94.6927L70.2618 91.3106C70.2548 91.307 70.2486 91.3021 70.2436 91.296C70.2386 91.29 70.2349 91.283 70.2327 91.2754C70.2305 91.2679 70.2299 91.26 70.2309 91.2522C70.232 91.2444 70.2346 91.2369 70.2386 91.2302L74.0337 84.8406C74.0412 84.8281 74.0531 84.8188 74.0671 84.8148C74.0811 84.8107 74.0962 84.8122 74.1091 84.8188L80.7468 88.2009C80.7538 88.2044 80.76 88.2094 80.7651 88.2154C80.7701 88.2215 80.7738 88.2285 80.776 88.236C80.7781 88.2435 80.7787 88.2515 80.7777 88.2592C80.7767 88.267 80.7741 88.2745 80.7701 88.2813L76.9749 94.6709C76.9698 94.6794 76.9626 94.6865 76.9539 94.6914C76.9453 94.6964 76.9355 94.6989 76.9255 94.6989ZM70.3685 91.2361L76.9037 94.566L80.6402 88.2752L74.1049 84.9453L70.3685 91.2361Z" fill="#111111"/>
<path d="M88.9328 92.4368L82.2951 89.0547L78.5 95.4443L85.1377 98.8264L88.9328 92.4368Z" fill="white"/>
<path d="M85.1403 98.8865C85.1313 98.8865 85.1224 98.8843 85.1143 98.8802L78.4766 95.4981C78.4696 95.4945 78.4635 95.4896 78.4585 95.4835C78.4535 95.4775 78.4498 95.4705 78.4476 95.4629C78.4454 95.4554 78.4448 95.4475 78.4458 95.4397C78.4468 95.4319 78.4493 95.4245 78.4533 95.4177L82.2485 89.0281C82.2559 89.0156 82.2678 89.0063 82.2819 89.0023C82.2959 88.9982 82.3109 88.9996 82.3239 89.0063L88.9616 92.3884C88.9686 92.392 88.9748 92.3969 88.9798 92.4029C88.9848 92.409 88.9885 92.416 88.9907 92.4235C88.9929 92.4311 88.9935 92.439 88.9925 92.4468C88.9915 92.4546 88.9888 92.4621 88.9848 92.4688L85.1897 98.8583C85.1846 98.8669 85.1774 98.874 85.1687 98.879C85.1601 98.8839 85.1503 98.8865 85.1403 98.8865ZM78.5833 95.4237L85.1185 98.7535L88.855 92.4628L82.3197 89.1329L78.5833 95.4237Z" fill="#111111"/>
<path d="M97.1477 96.6243L90.51 93.2422L86.7148 99.6318L93.3525 103.014L97.1477 96.6243Z" fill="white"/>
<path d="M93.3513 103.074C93.3422 103.074 93.3333 103.072 93.3253 103.068L86.6876 99.6856C86.6806 99.6821 86.6744 99.6771 86.6694 99.6711C86.6644 99.665 86.6607 99.658 86.6585 99.6505C86.6563 99.6429 86.6557 99.635 86.6567 99.6272C86.6577 99.6194 86.6603 99.6119 86.6644 99.6052L90.4595 93.2156C90.467 93.2031 90.4789 93.1938 90.4929 93.1898C90.5069 93.1857 90.5219 93.1871 90.5349 93.1938L97.1726 96.5759C97.1796 96.5795 97.1858 96.5844 97.1908 96.5904C97.1958 96.5965 97.1995 96.6035 97.2017 96.611C97.2039 96.6186 97.2045 96.6265 97.2035 96.6343C97.2024 96.6421 97.1998 96.6496 97.1958 96.6563L93.4007 103.046C93.3956 103.054 93.3883 103.061 93.3797 103.066C93.371 103.071 93.3612 103.074 93.3513 103.074ZM86.7942 99.6111L93.3294 102.941L97.0659 96.6502L90.5307 93.3203L86.7942 99.6111Z" fill="#111111"/>
<path d="M105.36 100.81L98.7249 97.4297L94.9297 103.819L101.565 107.2L105.36 100.81Z" fill="white"/>
<path d="M101.564 107.26C101.555 107.26 101.546 107.258 101.538 107.254L94.9025 103.873C94.8955 103.87 94.8893 103.865 94.8842 103.859C94.8792 103.853 94.8755 103.846 94.8733 103.838C94.8712 103.83 94.8706 103.823 94.8716 103.815C94.8726 103.807 94.8752 103.799 94.8792 103.793L98.6744 97.4031C98.6818 97.3906 98.6937 97.3813 98.7077 97.3773C98.7218 97.3732 98.7368 97.3747 98.7498 97.3813L105.385 100.762C105.392 100.766 105.398 100.771 105.403 100.777C105.408 100.783 105.412 100.79 105.414 100.797C105.416 100.805 105.417 100.813 105.416 100.821C105.415 100.828 105.412 100.836 105.408 100.843L101.613 107.232C101.608 107.241 101.601 107.248 101.592 107.253C101.583 107.258 101.574 107.26 101.564 107.26ZM95.0091 103.799L101.542 107.127L105.278 100.837L98.7455 97.5079L95.0091 103.799Z" fill="#111111"/>
<path d="M113.573 104.999L106.936 101.617L103.141 108.007L109.778 111.389L113.573 104.999Z" fill="white"/>
<path d="M109.782 111.441C109.773 111.441 109.764 111.439 109.756 111.435L103.118 108.053C103.111 108.049 103.105 108.044 103.1 108.038C103.095 108.032 103.091 108.025 103.089 108.017C103.087 108.01 103.086 108.002 103.087 107.994C103.088 107.986 103.091 107.979 103.095 107.972L106.89 101.583C106.897 101.57 106.909 101.561 106.923 101.557C106.937 101.553 106.952 101.554 106.965 101.561L113.603 104.943C113.61 104.946 113.616 104.951 113.621 104.957C113.626 104.963 113.63 104.97 113.632 104.978C113.634 104.986 113.635 104.993 113.634 105.001C113.633 105.009 113.63 105.017 113.626 105.023L109.831 111.413C109.826 111.421 109.819 111.428 109.81 111.433C109.801 111.438 109.792 111.441 109.782 111.441ZM103.225 107.978L109.76 111.308L113.496 105.017L106.961 101.687L103.225 107.978ZM81.2856 53.0051C80.9896 52.8543 80.6146 52.9644 80.4453 53.2494C80.2762 53.5342 80.3766 53.8866 80.6726 54.0374C80.9686 54.1883 81.346 54.0794 81.5152 53.7946C81.6844 53.5096 81.5817 53.156 81.2856 53.0051Z" fill="#111111"/>
<path d="M80.9563 54.1643C80.8503 54.1643 80.7437 54.1406 80.6455 54.0905C80.4886 54.0105 80.3761 53.8764 80.3287 53.7127C80.2811 53.5484 80.3047 53.3742 80.395 53.2221C80.5792 52.912 80.99 52.7926 81.3107 52.956C81.4684 53.0363 81.5815 53.1714 81.6292 53.3362C81.6767 53.5005 81.6534 53.6744 81.5635 53.8258C81.4355 54.0413 81.1976 54.1643 80.9563 54.1643ZM81.0009 52.9972C80.7996 52.9972 80.6007 53.1003 80.4936 53.2807C80.4197 53.4052 80.4002 53.5473 80.4389 53.6807C80.4773 53.8136 80.5692 53.9229 80.6975 53.9883C80.9667 54.1255 81.3108 54.0262 81.4647 53.7671C81.5383 53.6433 81.5575 53.5016 81.5188 53.3681C81.48 53.234 81.3876 53.124 81.2585 53.0582C81.1787 53.0178 81.0904 52.9969 81.0009 52.9972ZM89.4992 57.1928C89.2032 57.0419 88.8257 57.1508 88.6564 57.4357C88.4873 57.7206 88.5901 58.0742 88.8861 58.225C89.1796 58.3746 89.5572 58.2658 89.7263 57.9809C89.8957 57.6959 89.7928 57.3423 89.4992 57.1928Z" fill="#111111"/>
<path d="M89.1669 58.3518C89.0616 58.3518 88.9558 58.3283 88.8583 58.2786C88.7006 58.1983 88.5875 58.0632 88.5397 57.8983C88.4922 57.7341 88.5155 57.5602 88.6053 57.4089C88.7895 57.0989 89.2014 56.9799 89.5235 57.1442C89.6798 57.2238 89.7921 57.3581 89.8396 57.5223C89.8873 57.687 89.864 57.8612 89.7739 58.0128C89.6458 58.2284 89.4079 58.3518 89.1669 58.3518ZM89.2114 57.1846C89.0097 57.1846 88.8108 57.2874 88.704 57.4675C88.6305 57.5912 88.6113 57.7329 88.6499 57.8664C88.6887 58.0005 88.7812 58.1105 88.9103 58.1763C89.1782 58.3128 89.5213 58.2131 89.6752 57.9541C89.7489 57.8301 89.7681 57.6881 89.7293 57.5542C89.6906 57.4207 89.599 57.3114 89.4713 57.2463C89.3908 57.2055 89.3017 57.1843 89.2114 57.1846ZM97.7096 61.3795C97.416 61.23 97.0385 61.3388 96.8693 61.6238C96.7001 61.9086 96.8029 62.2623 97.0965 62.4118C97.3925 62.5627 97.7699 62.4538 97.9391 62.169C98.1083 61.8839 98.0056 61.5304 97.7096 61.3795Z" fill="#111111"/>
<path d="M97.3816 62.5316C97.2757 62.5316 97.1691 62.5079 97.0708 62.4578C96.9145 62.3781 96.8023 62.2438 96.7547 62.0795C96.707 61.9149 96.7303 61.7408 96.8203 61.5893C97.0045 61.2792 97.4152 61.1598 97.736 61.3233C97.8936 61.4036 98.0067 61.5385 98.0544 61.7033C98.1021 61.8676 98.0787 62.0416 97.9888 62.193C97.8608 62.4085 97.623 62.5316 97.3816 62.5316ZM97.4263 61.3644C97.2249 61.3644 97.0261 61.4675 96.919 61.6479C96.8454 61.7718 96.8262 61.9138 96.8649 62.0476C96.9036 62.1811 96.9952 62.2904 97.1229 62.3555C97.3921 62.4926 97.7363 62.3935 97.8901 62.1344C97.9637 62.0106 97.9829 61.8687 97.9442 61.7352C97.9054 61.6012 97.813 61.4912 97.6839 61.4255C97.604 61.385 97.5158 61.3641 97.4263 61.3644ZM105.925 65.56C105.629 65.4091 105.254 65.5193 105.084 65.8043C104.915 66.0891 105.016 66.4414 105.312 66.5923C105.607 66.7431 105.985 66.6342 106.154 66.3494C106.323 66.0644 106.221 65.7108 105.925 65.56Z" fill="#111111"/>
<path d="M105.597 66.719C105.491 66.719 105.384 66.6953 105.286 66.6452C105.129 66.5653 105.017 66.4311 104.969 66.2674C104.922 66.1031 104.945 65.9289 105.036 65.7767C105.22 65.4667 105.631 65.3473 105.951 65.5107C106.109 65.5909 106.222 65.726 106.27 65.8908C106.317 66.0551 106.294 66.2291 106.204 66.3805C106.076 66.596 105.838 66.719 105.597 66.719ZM105.642 65.5519C105.44 65.5519 105.241 65.655 105.134 65.8354C105.06 65.9599 105.041 66.102 105.08 66.2355C105.118 66.3684 105.21 66.4777 105.338 66.543C105.607 66.68 105.952 66.5809 106.105 66.3219C106.179 66.1981 106.198 66.0563 106.159 65.9227C106.121 65.7887 106.028 65.6787 105.899 65.613C105.819 65.5725 105.731 65.5516 105.642 65.5519ZM114.14 69.7474C113.844 69.5966 113.466 69.7054 113.297 69.9904C113.128 70.2753 113.231 70.6289 113.527 70.7797C113.823 70.9305 114.198 70.8205 114.367 70.5356C114.536 70.2506 114.436 69.8982 114.14 69.7474Z" fill="#111111"/>
<path d="M113.811 70.9065C113.706 70.9065 113.6 70.883 113.503 70.8333C113.345 70.753 113.232 70.618 113.184 70.4531C113.137 70.2888 113.16 70.1149 113.25 69.9637C113.434 69.6536 113.846 69.5346 114.168 69.6989C114.325 69.7788 114.437 69.913 114.485 70.0768C114.532 70.2411 114.509 70.4153 114.418 70.5675C114.29 70.7832 114.052 70.9065 113.811 70.9065ZM113.856 69.7393C113.654 69.7393 113.455 69.8422 113.349 70.0223C113.275 70.146 113.256 70.2877 113.294 70.4212C113.333 70.5553 113.426 70.6652 113.555 70.731C113.823 70.8674 114.166 70.7678 114.32 70.5088C114.394 70.3843 114.413 70.2421 114.375 70.1086C114.336 69.9756 114.244 69.8664 114.116 69.801C114.035 69.7602 113.946 69.7391 113.856 69.7393ZM122.354 73.9343C122.061 73.7848 121.683 73.8936 121.514 74.1786C121.345 74.4634 121.448 74.817 121.741 74.9666C122.037 75.1174 122.415 75.0085 122.584 74.7237C122.753 74.4387 122.65 74.0851 122.354 73.9343Z" fill="#111111"/>
<path d="M122.026 75.0862C121.92 75.0862 121.814 75.0625 121.715 75.0124C121.559 74.9328 121.447 74.7984 121.399 74.6342C121.351 74.4695 121.375 74.2955 121.465 74.144C121.649 73.8338 122.06 73.7145 122.381 73.8779C122.538 73.9582 122.651 74.0932 122.699 74.258C122.747 74.4224 122.723 74.5963 122.633 74.7477C122.505 74.9631 122.267 75.0862 122.026 75.0862ZM122.071 73.919C121.869 73.919 121.671 74.0222 121.563 74.2026C121.49 74.3264 121.471 74.4684 121.509 74.6022C121.548 74.7357 121.64 74.845 121.767 74.9101C122.036 75.0473 122.381 74.9481 122.535 74.689C122.608 74.5652 122.627 74.4235 122.589 74.2899C122.55 74.1559 122.457 74.0459 122.328 73.9801C122.249 73.9396 122.16 73.9187 122.071 73.919Z" fill="#111111"/>
<path d="M135.149 79.2745L134.301 76.125C134.372 76.39 134.338 76.684 134.182 76.9475L110.43 116.936C110.11 117.476 109.397 117.681 108.839 117.397L48.9202 86.8665C48.6331 86.7203 48.4421 86.4737 48.3672 86.1954L49.2156 89.3449C49.2906 89.6232 49.4816 89.8698 49.7686 90.016L109.687 120.546C110.245 120.831 110.958 120.625 111.279 120.086L135.03 80.097C135.187 79.8335 135.22 79.5395 135.149 79.2745Z" fill="white"/>
<path d="M110.223 120.734C110.031 120.734 109.838 120.691 109.66 120.6L49.7414 90.0699C49.4485 89.9206 49.2418 89.6694 49.159 89.3626L48.3106 86.2131C48.3066 86.1984 48.3087 86.1827 48.3163 86.1695C48.3238 86.1563 48.3364 86.1467 48.3511 86.1427C48.3658 86.1388 48.3814 86.1408 48.3946 86.1484C48.4078 86.156 48.4175 86.1685 48.4214 86.1832C48.4956 86.4583 48.6815 86.6838 48.9451 86.8181L108.864 117.348C109.395 117.619 110.075 117.422 110.38 116.91L134.131 76.9209C134.274 76.6806 134.314 76.4049 134.244 76.1442L134.244 76.1426C134.242 76.1354 134.242 76.1278 134.242 76.1203C134.243 76.1128 134.246 76.1056 134.25 76.0991C134.253 76.0925 134.258 76.0868 134.264 76.0822C134.27 76.0776 134.277 76.0742 134.284 76.0723C134.292 76.0703 134.299 76.0698 134.307 76.0708C134.314 76.0718 134.322 76.0742 134.328 76.078C134.335 76.0817 134.34 76.0867 134.345 76.0927C134.349 76.0987 134.353 76.1055 134.355 76.1128L135.203 79.2623C135.282 79.5535 135.237 79.8613 135.078 80.1289L111.327 120.118C111.094 120.51 110.661 120.734 110.223 120.734ZM48.5488 86.6561L49.2699 89.3327C49.3441 89.6078 49.53 89.8332 49.7936 89.9675L109.712 120.498C110.243 120.768 110.924 120.572 111.228 120.059L134.98 80.0703C135.123 79.8295 135.163 79.5531 135.092 79.2921L134.371 76.6146C134.345 76.7433 134.297 76.8667 134.23 76.9795L110.478 116.968C110.143 117.532 109.396 117.748 108.811 117.451L48.893 86.9204C48.759 86.8521 48.6431 86.7626 48.5488 86.6561Z" fill="#111111"/>
<path d="M125.812 71.4125C126.531 69.793 126.863 68.3731 126.661 67.7518C126.615 67.6096 126.543 67.5163 126.45 67.4688L126.986 67.7423C127.079 67.7898 127.151 67.8831 127.197 68.0253C127.398 68.6459 127.068 70.0631 126.351 71.68L125.812 71.4125Z" fill="white"/>
<path d="M126.35 71.7323C126.341 71.7323 126.332 71.7302 126.324 71.7263L125.786 71.4588C125.773 71.4523 125.762 71.4408 125.757 71.4269C125.752 71.413 125.753 71.3977 125.759 71.3842C126.468 69.7858 126.8 68.3649 126.605 67.7644C126.565 67.6401 126.503 67.5561 126.423 67.5149L126.422 67.5148C126.409 67.5079 126.399 67.4958 126.394 67.4814C126.389 67.4669 126.391 67.4511 126.397 67.4376C126.404 67.424 126.416 67.4137 126.431 67.4091C126.445 67.4044 126.461 67.4056 126.475 67.4125L127.011 67.686C127.119 67.7415 127.2 67.848 127.25 68.0025C127.456 68.6371 127.132 70.0531 126.402 71.6981C126.398 71.7083 126.391 71.7169 126.381 71.723C126.372 71.729 126.361 71.7322 126.35 71.7323ZM125.886 71.3804L126.322 71.5968C127.012 70.0236 127.334 68.6307 127.141 68.0379C127.101 67.9135 127.039 67.8295 126.958 67.7883L126.683 67.6478C126.694 67.6731 126.705 67.7003 126.714 67.729C126.919 68.358 126.601 69.7541 125.886 71.3804Z" fill="#111111"/>
<path d="M122.251 74.6819L121.715 74.4083C122.051 73.0651 122.787 71.3711 123.683 69.8777C124.931 67.7964 126.174 66.6243 126.733 66.9096L127.269 67.1831C126.71 66.8979 125.467 68.0699 124.219 70.1512C123.323 71.6447 122.587 73.3386 122.251 74.6819Z" fill="white"/>
<path d="M122.25 74.742C122.241 74.742 122.232 74.7398 122.224 74.7357L121.688 74.4622C121.676 74.4563 121.667 74.4466 121.661 74.4348C121.656 74.423 121.655 74.4097 121.658 74.3971C121.995 73.0487 122.733 71.3492 123.632 69.8509C124.892 67.7513 126.148 66.5499 126.758 66.8613L127.294 67.1348C127.308 67.1418 127.318 67.1538 127.323 67.1683C127.327 67.1827 127.326 67.1985 127.319 67.212C127.312 67.2256 127.3 67.2359 127.286 67.2406C127.271 67.2453 127.255 67.244 127.242 67.2371C126.782 67.0026 125.613 67.9395 124.267 70.1836C123.373 71.6727 122.64 73.3606 122.305 74.6987C122.303 74.7071 122.299 74.7148 122.294 74.7215C122.288 74.7281 122.281 74.7334 122.274 74.737C122.266 74.7402 122.258 74.7419 122.25 74.742ZM121.781 74.3808L122.212 74.6008C122.557 73.2639 123.285 71.5969 124.168 70.1244C125.233 68.3497 126.295 67.2167 126.967 67.0966L126.706 66.9634C126.246 66.7287 125.077 67.6657 123.731 69.9099C122.847 71.3827 122.12 73.0499 121.781 74.3808Z" fill="#111111"/>
<path d="M127.507 67.5032C127.74 68.2202 127.344 69.8783 126.496 71.757L126.351 71.6759C127.067 70.059 127.398 68.6418 127.196 68.0212C126.905 67.1241 125.6 68.1748 124.287 70.3635C123.494 71.6843 122.844 73.1818 122.546 74.3711L122.25 74.6818C122.586 73.3385 123.322 71.6446 124.218 70.1512C125.701 67.6777 127.177 66.4884 127.507 67.5032Z" fill="#111111"/>
<path d="M122.249 74.7419C122.24 74.7419 122.231 74.7399 122.224 74.7361C122.216 74.7323 122.209 74.7267 122.204 74.7198C122.198 74.713 122.194 74.7049 122.193 74.6964C122.191 74.6879 122.191 74.6791 122.193 74.6706C122.531 73.3222 123.269 71.6227 124.167 70.1244C125.318 68.2063 126.485 67.0134 127.14 67.0894C127.278 67.105 127.462 67.1869 127.56 67.4882C127.799 68.2236 127.411 69.8695 126.547 71.7834C126.544 71.7906 126.539 71.7971 126.533 71.8025C126.527 71.8078 126.52 71.8118 126.513 71.8143C126.505 71.8168 126.497 71.8177 126.489 71.817C126.482 71.8162 126.474 71.8138 126.467 71.8099L126.321 71.7287C126.309 71.7217 126.299 71.7103 126.295 71.6968C126.29 71.6832 126.291 71.6684 126.297 71.6554C127.004 70.0597 127.335 68.6413 127.14 68.0417C127.084 67.8693 126.992 67.7781 126.859 67.763C126.419 67.7137 125.467 68.5077 124.335 70.3958C123.545 71.7123 122.897 73.2046 122.601 74.3878C122.598 74.3974 122.593 74.4062 122.586 74.4134L122.29 74.7241C122.279 74.7358 122.264 74.7419 122.249 74.7419ZM127.077 67.2006C126.463 67.2006 125.346 68.3828 124.266 70.1834C123.42 71.594 122.717 73.1828 122.361 74.4838L122.493 74.3451C122.793 73.1539 123.444 71.6569 124.236 70.3367C125.255 68.6379 126.29 67.583 126.872 67.6489C126.996 67.663 127.162 67.7364 127.25 68.0062C127.454 68.6346 127.137 70.0294 126.423 71.6539L126.468 71.6792C127.29 69.842 127.676 68.2151 127.451 67.5235C127.388 67.3283 127.279 67.2205 127.127 67.2033C127.11 67.2014 127.093 67.2005 127.077 67.2006Z" fill="#111111"/>
<path d="M117.582 67.2177C118.313 65.5816 118.652 64.1434 118.448 63.5169C118.402 63.375 118.33 63.2818 118.237 63.2344L118.773 63.5079C118.866 63.5553 118.938 63.6485 118.984 63.7904C119.188 64.4169 118.849 65.855 118.118 67.4909L117.582 67.2177Z" fill="white"/>
<path d="M118.121 67.5511C118.112 67.5511 118.103 67.549 118.095 67.5448L117.559 67.2716C117.546 67.2649 117.536 67.2534 117.531 67.2396C117.526 67.2257 117.526 67.2105 117.532 67.197C118.254 65.5808 118.593 64.1442 118.396 63.5374C118.356 63.4132 118.295 63.3293 118.214 63.2882C118.207 63.2848 118.201 63.2801 118.197 63.2743C118.192 63.2686 118.188 63.262 118.186 63.2548C118.183 63.2476 118.182 63.2401 118.183 63.2325C118.184 63.225 118.186 63.2177 118.189 63.211C118.192 63.2043 118.197 63.1983 118.203 63.1934C118.209 63.1885 118.215 63.1848 118.222 63.1825C118.23 63.1802 118.237 63.1793 118.245 63.1799C118.252 63.1805 118.26 63.1825 118.266 63.186L118.802 63.4595C118.911 63.515 118.991 63.6212 119.041 63.7755C119.25 64.4174 118.917 65.8512 118.173 67.5171C118.169 67.5272 118.161 67.5358 118.152 67.5418C118.143 67.5478 118.132 67.5511 118.121 67.5511ZM117.659 67.1941L118.093 67.4151C118.798 65.8215 119.127 64.4108 118.932 63.8109C118.892 63.6868 118.831 63.6029 118.75 63.5618L118.474 63.4211C118.486 63.4464 118.496 63.4734 118.506 63.502C118.712 64.1376 118.388 65.5494 117.659 67.1941Z" fill="#111111"/>
<path d="M114.04 70.4549L113.504 70.1814C113.84 68.8381 114.576 67.1442 115.472 65.6508C116.72 63.5693 117.963 62.3978 118.522 62.683L119.058 62.9566C118.499 62.6713 117.256 63.8428 116.008 65.9243C115.112 67.4177 114.376 69.1117 114.04 70.4549Z" fill="white"/>
<path d="M114.039 70.5151C114.03 70.5151 114.021 70.513 114.013 70.5088L113.477 70.2353C113.465 70.2294 113.456 70.2198 113.45 70.208C113.445 70.1961 113.444 70.1829 113.447 70.1703C113.784 68.8218 114.522 67.1223 115.421 65.6241C116.681 63.5246 117.937 62.3232 118.547 62.6348L119.083 62.9083C119.097 62.9152 119.107 62.9272 119.112 62.9417C119.117 62.9562 119.115 62.9719 119.108 62.9855C119.102 62.999 119.089 63.0093 119.075 63.014C119.061 63.0187 119.045 63.0174 119.031 63.0105C118.572 62.7761 117.402 63.7126 116.056 65.9567C115.162 67.4458 114.429 69.1337 114.094 70.4717C114.091 70.4841 114.084 70.4951 114.074 70.5029C114.064 70.5108 114.052 70.5151 114.039 70.5151ZM113.57 70.1539L114.001 70.3739C114.346 69.037 115.074 67.3701 115.957 65.8975C117.022 64.123 118.084 62.9902 118.756 62.87L118.495 62.7369C118.035 62.5022 116.866 63.439 115.52 65.6831C114.636 67.1558 113.909 68.823 113.57 70.1539Z" fill="#111111"/>
<path d="M119.296 63.2762C119.531 63.9983 119.128 65.6745 118.268 67.5703L118.119 67.4947C118.85 65.8587 119.189 64.4207 118.985 63.7942C118.694 62.898 117.389 63.9487 116.076 66.1374C115.284 67.4582 114.633 68.9557 114.335 70.145L114.039 70.4547C114.375 69.1115 115.111 67.4175 116.007 65.9241C117.49 63.4507 118.967 62.2624 119.296 63.2762Z" fill="#111111"/>
<path d="M114.038 70.5149C114.029 70.5149 114.021 70.5129 114.013 70.509C114.005 70.5052 113.998 70.4996 113.993 70.4928C113.987 70.4859 113.984 70.4779 113.982 70.4694C113.98 70.4609 113.98 70.452 113.982 70.4436C114.32 69.0952 115.058 67.3957 115.956 65.8974C117.107 63.9795 118.274 62.7875 118.929 62.8627C119.067 62.8783 119.252 62.9602 119.349 63.2612C119.59 64.0027 119.195 65.664 118.319 67.5967C118.315 67.6038 118.311 67.6102 118.305 67.6154C118.299 67.6206 118.293 67.6247 118.285 67.6272C118.278 67.6298 118.27 67.6308 118.263 67.6303C118.255 67.6298 118.247 67.6277 118.24 67.6241L118.092 67.5485C118.079 67.5419 118.069 67.5304 118.064 67.5165C118.059 67.5027 118.06 67.4874 118.066 67.474C118.788 65.8578 119.127 64.4215 118.93 63.8146C118.874 63.6426 118.782 63.5516 118.649 63.5365C118.208 63.4851 117.257 64.2813 116.124 66.1697C115.334 67.4862 114.686 68.9785 114.39 70.1617C114.388 70.1713 114.383 70.1802 114.376 70.1874L114.079 70.4972C114.074 70.5028 114.068 70.5072 114.06 70.5103C114.053 70.5133 114.046 70.5149 114.038 70.5149ZM118.866 62.9739C118.252 62.9739 117.135 64.156 116.055 65.9564C115.208 67.3673 114.506 68.9567 114.15 70.2578L114.282 70.119C114.583 68.9279 115.234 67.4309 116.026 66.1107C117.045 64.4116 118.079 63.3552 118.662 63.4225C118.785 63.4365 118.951 63.5098 119.039 63.7792C119.245 64.4148 118.921 65.8265 118.193 67.4711L118.239 67.4946C119.074 65.6382 119.467 63.9944 119.24 63.2966C119.177 63.1017 119.068 62.994 118.916 62.9768C118.899 62.9749 118.883 62.9739 118.866 62.9739Z" fill="#111111"/>
<path d="M109.363 63.0224C110.094 61.3863 110.433 59.9481 110.229 59.3216C110.183 59.1796 110.112 59.0865 110.019 59.0391L110.555 59.3126C110.648 59.36 110.719 59.4532 110.765 59.5951C110.969 60.2216 110.63 61.6596 109.899 63.2956L109.363 63.0224Z" fill="white"/>
<path d="M109.902 63.3478C109.893 63.3478 109.884 63.3457 109.876 63.3416L109.34 63.0684C109.327 63.0617 109.317 63.0503 109.312 63.0364C109.307 63.0225 109.308 63.0073 109.314 62.9939C110.036 61.3775 110.375 59.941 110.178 59.3342C110.137 59.21 110.076 59.1262 109.995 59.085C109.982 59.0781 109.972 59.0661 109.967 59.0516C109.962 59.0372 109.963 59.0214 109.97 59.0079C109.977 58.9943 109.989 58.9841 110.004 58.9794C110.018 58.9747 110.034 58.9759 110.047 58.9828L110.048 58.9829L110.584 59.2563C110.692 59.3117 110.773 59.418 110.823 59.5723C111.031 60.2142 110.699 61.648 109.955 63.3139C109.95 63.324 109.943 63.3326 109.933 63.3386C109.924 63.3446 109.913 63.3478 109.902 63.3478ZM109.441 62.9909L109.874 63.212C110.579 61.6184 110.909 60.2077 110.714 59.6078C110.673 59.4836 110.612 59.3997 110.531 59.3586L110.256 59.218C110.267 59.2432 110.277 59.2702 110.287 59.2989C110.493 59.9344 110.169 61.3462 109.441 62.9909Z" fill="#111111"/>
<path d="M105.821 66.2518L105.285 65.9783C105.621 64.635 106.357 62.9411 107.253 61.4476C108.501 59.3662 109.745 58.1947 110.304 58.4799L110.84 58.7534C110.281 58.4682 109.037 59.6396 107.789 61.7212C106.893 63.2146 106.157 64.9085 105.821 66.2518Z" fill="white"/>
<path d="M105.82 66.3119C105.811 66.312 105.802 66.3098 105.794 66.3057L105.258 66.0322C105.246 66.0263 105.237 66.0166 105.232 66.0048C105.226 65.993 105.225 65.9797 105.228 65.9671C105.566 64.6187 106.304 62.9191 107.202 61.4209C108.462 59.3215 109.718 58.1201 110.329 58.4316L110.865 58.7051C110.871 58.7085 110.877 58.7133 110.882 58.719C110.887 58.7247 110.891 58.7314 110.893 58.7385C110.895 58.7457 110.896 58.7533 110.896 58.7608C110.895 58.7683 110.893 58.7756 110.89 58.7823C110.886 58.789 110.881 58.795 110.876 58.7999C110.87 58.8048 110.863 58.8085 110.856 58.8108C110.849 58.8132 110.841 58.814 110.834 58.8135C110.826 58.8129 110.819 58.8108 110.812 58.8074C110.353 58.573 109.183 59.5094 107.837 61.7535C106.944 63.2426 106.21 64.9304 105.876 66.2686C105.872 66.2809 105.865 66.2919 105.855 66.2998C105.845 66.3076 105.833 66.3119 105.82 66.3119ZM105.351 65.9507L105.782 66.1708C106.127 64.8338 106.855 63.1669 107.739 61.6944C108.803 59.9199 109.865 58.787 110.537 58.6668L110.276 58.5338C109.817 58.2993 108.647 59.2359 107.301 61.4799C106.417 62.9526 105.691 64.6198 105.351 65.9507Z" fill="#111111"/>
<path d="M111.077 59.073C111.312 59.7951 110.909 61.4714 110.049 63.3672L109.901 63.2916C110.631 61.6556 110.97 60.2175 110.767 59.591C110.475 58.6949 109.17 59.7455 107.857 61.9343C107.065 63.255 106.414 64.7526 106.117 65.9418L105.82 66.2516C106.156 64.9083 106.892 63.2144 107.788 61.7209C109.272 59.2476 110.748 58.0593 111.077 59.073Z" fill="#111111"/>
<path d="M105.819 66.3117C105.81 66.3117 105.802 66.3097 105.794 66.3059C105.786 66.3021 105.779 66.2965 105.774 66.2896C105.769 66.2828 105.765 66.2748 105.763 66.2662C105.761 66.2577 105.761 66.2489 105.763 66.2404C106.101 64.892 106.839 63.1925 107.738 61.6942C108.888 59.7763 110.055 58.5852 110.71 58.6595C110.848 58.6752 111.033 58.757 111.131 59.058C111.372 59.7996 110.977 61.4609 110.1 63.3935C110.097 63.4006 110.092 63.407 110.086 63.4122C110.081 63.4174 110.074 63.4215 110.067 63.424C110.059 63.4266 110.052 63.4276 110.044 63.4271C110.036 63.4266 110.029 63.4245 110.022 63.4209L109.873 63.3453C109.86 63.3387 109.85 63.3272 109.845 63.3133C109.84 63.2995 109.841 63.2842 109.847 63.2708C110.569 61.6547 110.908 60.2183 110.711 59.6115C110.655 59.4395 110.563 59.3485 110.43 59.3333C109.989 59.2836 109.038 60.0781 107.905 61.9665C107.116 63.2831 106.467 64.7754 106.171 65.9585C106.169 65.9682 106.164 65.977 106.157 65.9842L105.861 66.294C105.855 66.2996 105.849 66.3041 105.842 66.3071C105.835 66.3102 105.827 66.3118 105.819 66.3117ZM110.647 58.7708C110.034 58.7708 108.916 59.9528 107.836 61.7533C106.99 63.1641 106.287 64.7535 105.931 66.0546L106.064 65.9159C106.364 64.7248 107.015 63.2277 107.807 61.9075C108.826 60.2085 109.86 59.1532 110.443 59.2193C110.567 59.2334 110.732 59.3066 110.82 59.5761C111.026 60.2117 110.702 61.6233 109.974 63.2679L110.02 63.2914C110.856 61.435 111.248 59.7913 111.022 59.0935C110.958 58.8985 110.849 58.7909 110.697 58.7736C110.681 58.7717 110.664 58.7708 110.647 58.7708Z" fill="#111111"/>
<path d="M101.129 58.8271C101.86 57.191 102.199 55.7527 101.995 55.1263C101.949 54.9843 101.877 54.8912 101.784 54.8438L102.32 55.1173C102.413 55.1647 102.485 55.2578 102.531 55.3998C102.735 56.0263 102.396 57.4643 101.665 59.1003L101.129 58.8271Z" fill="white"/>
<path d="M101.668 59.1604C101.659 59.1604 101.65 59.1583 101.642 59.1542L101.106 58.881C101.092 58.8743 101.082 58.8628 101.077 58.8489C101.073 58.8351 101.073 58.8199 101.079 58.8064C101.801 57.1901 102.14 55.7536 101.943 55.1468C101.903 55.0227 101.842 54.9388 101.761 54.8976L101.761 54.8976C101.747 54.8907 101.737 54.8786 101.732 54.8642C101.728 54.8497 101.729 54.8339 101.736 54.8204C101.743 54.8068 101.755 54.7966 101.769 54.7919C101.784 54.7872 101.8 54.7884 101.813 54.7953L102.349 55.0689C102.458 55.1243 102.538 55.2306 102.588 55.3848C102.797 56.0268 102.464 57.4606 101.72 59.1265C101.716 59.1366 101.708 59.1452 101.699 59.1512C101.69 59.1572 101.679 59.1604 101.668 59.1604ZM101.206 58.8034L101.64 59.0245C102.345 57.4309 102.674 56.0202 102.479 55.4203C102.439 55.2961 102.378 55.2123 102.297 55.1712L102.021 55.0305C102.033 55.0558 102.043 55.0827 102.052 55.1114C102.259 55.747 101.935 57.1587 101.206 58.8034Z" fill="#111111"/>
<path d="M97.5868 62.0643L97.0508 61.7908C97.3869 60.4475 98.1227 58.7536 99.0185 57.2601C100.267 55.1787 101.51 54.0072 102.069 54.2924L102.605 54.5659C102.046 54.2807 100.803 55.4521 99.5545 57.5337C98.6587 59.0271 97.9229 60.721 97.5868 62.0643Z" fill="white"/>
<path d="M97.5856 62.1245C97.5766 62.1245 97.5676 62.1224 97.5595 62.1182L97.0235 61.8447C97.0119 61.8388 97.0027 61.8292 96.9973 61.8174C96.992 61.8055 96.9908 61.7922 96.9939 61.7796C97.3313 60.4312 98.0693 58.7317 98.9681 57.2334C100.227 55.134 101.484 53.9325 102.094 54.2441L102.63 54.5177C102.644 54.5246 102.654 54.5367 102.659 54.5511C102.663 54.5656 102.662 54.5814 102.655 54.5949C102.648 54.6085 102.636 54.6187 102.622 54.6234C102.607 54.6281 102.592 54.6269 102.578 54.62C102.118 54.3853 100.949 55.322 99.6025 57.5661C98.7093 59.0551 97.9761 60.743 97.6413 62.0811C97.6382 62.0935 97.631 62.1045 97.6209 62.1124C97.6108 62.1202 97.5984 62.1245 97.5856 62.1245ZM97.1165 61.7633L97.5478 61.9833C97.8928 60.6464 98.6209 58.9794 99.5042 57.507C100.569 55.7323 101.631 54.5994 102.303 54.4794L102.042 54.3463C101.582 54.1119 100.413 55.0484 99.0666 57.2925C98.1831 58.7652 97.4562 60.4323 97.1165 61.7633Z" fill="#111111"/>
<path d="M102.843 54.8855C103.078 55.6076 102.674 57.2839 101.815 59.1797L101.666 59.104C102.397 57.4681 102.736 56.03 102.532 55.4035C102.241 54.5074 100.936 55.558 99.623 57.7468C98.8307 59.0675 98.18 60.5651 97.8824 61.7543L97.5859 62.0641C97.9221 60.7208 98.6578 59.0269 99.5537 57.5334C101.037 55.0601 102.514 53.8718 102.843 54.8855Z" fill="#111111"/>
<path d="M97.5886 62.1243C97.5799 62.1243 97.5713 62.1223 97.5635 62.1184C97.5556 62.1146 97.5488 62.109 97.5434 62.1022C97.5381 62.0953 97.5343 62.0873 97.5325 62.0788C97.5307 62.0703 97.5308 62.0614 97.5329 62.053C97.8703 60.7046 98.6084 59.005 99.5071 57.5068C100.658 55.5889 101.824 54.3967 102.48 54.4721C102.618 54.4877 102.802 54.5696 102.9 54.8706C103.141 55.6121 102.746 57.2734 101.869 59.2061C101.866 59.2132 101.862 59.2196 101.856 59.2248C101.85 59.23 101.843 59.2341 101.836 59.2366C101.829 59.2392 101.821 59.2402 101.813 59.2397C101.806 59.2391 101.798 59.237 101.791 59.2335L101.643 59.1579C101.63 59.1513 101.62 59.1398 101.615 59.1259C101.61 59.1121 101.61 59.0968 101.616 59.0834C102.338 57.4672 102.677 56.0309 102.48 55.424C102.424 55.252 102.332 55.161 102.199 55.1459C101.759 55.095 100.808 55.8907 99.6749 57.7791C98.8851 59.0956 98.2368 60.5879 97.9407 61.7711C97.9383 61.7807 97.9334 61.7896 97.9265 61.7968L97.6301 62.1066C97.6248 62.1122 97.6183 62.1166 97.6112 62.1197C97.604 62.1227 97.5964 62.1243 97.5886 62.1243ZM102.417 54.5833C101.803 54.5833 100.685 55.7654 99.6055 57.5658C98.7592 58.9766 98.0565 60.5659 97.7003 61.8671L97.833 61.7284C98.1335 60.5373 98.7845 59.0401 99.5764 57.72C100.596 56.0209 101.63 54.9652 102.212 55.0319C102.336 55.0459 102.502 55.1191 102.589 55.3886C102.796 56.0242 102.472 57.4358 101.743 59.0804L101.79 59.1039C102.625 57.2475 103.018 55.6037 102.791 54.906C102.728 54.711 102.619 54.6034 102.467 54.5861C102.45 54.5842 102.433 54.5833 102.417 54.5833Z" fill="#111111"/>
<path d="M92.918 54.6552C93.6488 53.0191 93.9877 51.5809 93.7841 50.9544C93.738 50.8125 93.6664 50.7193 93.5734 50.6719L94.1094 50.9454C94.2024 50.9928 94.274 51.086 94.3202 51.2279C94.5237 51.8544 94.1849 53.2925 93.4542 54.9284L92.918 54.6552Z" fill="white"/>
<path d="M93.4529 54.9807C93.4439 54.9807 93.435 54.9786 93.4269 54.9744L92.8907 54.7012C92.8776 54.6945 92.8676 54.6831 92.8627 54.6692C92.8578 54.6553 92.8584 54.6401 92.8644 54.6267C93.5864 53.0104 93.9256 51.5739 93.7284 50.967C93.688 50.8428 93.6267 50.759 93.5461 50.7178C93.5326 50.7109 93.5224 50.6989 93.5177 50.6844C93.513 50.67 93.5142 50.6542 93.5211 50.6407C93.528 50.6272 93.54 50.6169 93.5545 50.6122C93.5689 50.6075 93.5847 50.6087 93.5982 50.6156L93.5986 50.6158L94.1343 50.8891C94.243 50.9446 94.3234 51.0509 94.3735 51.2051C94.5821 51.8471 94.2494 53.2808 93.5053 54.9467C93.5008 54.9569 93.4935 54.9654 93.4842 54.9715C93.4749 54.9775 93.464 54.9807 93.4529 54.9807ZM92.9913 54.6238L93.4251 54.8448C94.1301 53.2513 94.4593 51.8405 94.2644 51.2406C94.2241 51.1164 94.1627 51.0326 94.0822 50.9914L93.8065 50.8508C93.8179 50.876 93.8283 50.903 93.8376 50.9317C94.0441 51.5673 93.7199 52.9791 92.9913 54.6238Z" fill="#111111"/>
<path d="M89.372 57.8846L88.8359 57.6111C89.1721 56.2678 89.9078 54.5739 90.8037 53.0805C92.0523 50.999 93.2955 49.8275 93.8545 50.1127L94.3905 50.3862C93.8315 50.101 92.5883 51.2725 91.3397 53.354C90.4438 54.8474 89.7081 56.5413 89.372 57.8846Z" fill="white"/>
<path d="M89.3708 57.9448C89.3617 57.9448 89.3528 57.9427 89.3447 57.9385L88.8087 57.665C88.7971 57.6591 88.7879 57.6495 88.7825 57.6377C88.7771 57.6258 88.7759 57.6126 88.7791 57.6C89.1165 56.2515 89.8545 54.552 90.7532 53.0538C92.0125 50.9543 93.2688 49.7528 93.8793 50.0645L94.4153 50.338C94.4289 50.3449 94.4392 50.3569 94.4439 50.3714C94.4486 50.3859 94.4473 50.4016 94.4404 50.4152C94.4335 50.4287 94.4215 50.439 94.407 50.4437C94.3925 50.4484 94.3768 50.4471 94.3632 50.4402C93.9034 50.2057 92.7338 51.1422 91.3876 53.3864C90.4944 54.8755 89.7612 56.5634 89.4264 57.9014C89.4233 57.9138 89.4161 57.9248 89.406 57.9326C89.396 57.9405 89.3836 57.9448 89.3708 57.9448ZM88.9016 57.5836L89.3329 57.8037C89.6779 56.4667 90.406 54.7998 91.2892 53.3272C92.3537 51.5527 93.4161 50.4199 94.088 50.2997L93.8272 50.1666C93.3675 49.932 92.1977 50.8687 90.8516 53.1128C89.9682 54.5855 89.2414 56.2527 88.9016 57.5836Z" fill="#111111"/>
<path d="M94.6281 50.7059C94.8627 51.428 94.4596 53.1042 93.5997 55L93.4513 54.9244C94.1821 53.2884 94.5209 51.8503 94.3174 51.2239C94.0262 50.3277 92.721 51.3783 91.4081 53.5671C90.6158 54.8878 89.9652 56.3854 89.6675 57.5746L89.3711 57.8844C89.7072 56.5411 90.443 54.8472 91.3388 53.3538C92.8225 50.8805 94.2987 49.692 94.6281 50.7059Z" fill="#111111"/>
<path d="M89.3738 57.9446C89.365 57.9446 89.3564 57.9426 89.3486 57.9387C89.3408 57.9349 89.3339 57.9293 89.3286 57.9225C89.3232 57.9156 89.3195 57.9076 89.3177 57.8991C89.3159 57.8905 89.316 57.8817 89.3181 57.8733C89.6555 56.5249 90.3935 54.8254 91.2922 53.3271C92.4427 51.4092 93.609 50.2172 94.265 50.2924C94.4027 50.308 94.5875 50.3899 94.6853 50.6909C94.9262 51.4324 94.5313 53.0937 93.6545 55.0264C93.6514 55.0335 93.6468 55.0398 93.641 55.0451C93.6353 55.0503 93.6286 55.0543 93.6213 55.0569C93.614 55.0595 93.6062 55.0605 93.5985 55.06C93.5907 55.0594 93.5832 55.0573 93.5763 55.0538L93.4279 54.9782C93.4148 54.9716 93.4047 54.9601 93.3998 54.9462C93.3949 54.9324 93.3956 54.9171 93.4016 54.9037C94.1235 53.2875 94.4625 51.8512 94.2654 51.2443C94.2095 51.0723 94.1176 50.9813 93.9845 50.9662C93.544 50.9146 92.5927 51.711 91.46 53.5994C90.6703 54.9159 90.0219 56.4082 89.7258 57.5914C89.7234 57.601 89.7185 57.6099 89.7116 57.6171L89.4152 57.9269C89.4099 57.9325 89.4034 57.9369 89.3963 57.94C89.3892 57.943 89.3815 57.9446 89.3738 57.9446ZM94.2019 50.4036C93.5883 50.4036 92.4707 51.5857 91.3907 53.3861C90.5444 54.797 89.8418 56.3864 89.4855 57.6875L89.6183 57.5487C89.9187 56.3576 90.5697 54.8605 91.3616 53.5404C92.3808 51.8414 93.4154 50.7852 93.9975 50.8522C94.1212 50.8662 94.2871 50.9395 94.3746 51.2089C94.5811 51.8445 94.2571 53.2562 93.5286 54.9008L93.5749 54.9243C94.4102 53.0679 94.803 51.4241 94.5763 50.7263C94.5129 50.5313 94.4038 50.4237 94.2521 50.4065C94.2354 50.4046 94.2187 50.4036 94.2019 50.4036Z" fill="#111111"/>
<path d="M84.7188 50.4755C85.4496 48.8394 85.7884 47.4012 85.5849 46.7747C85.5388 46.6328 85.4672 46.5396 85.3742 46.4922L85.9102 46.7657C86.0032 46.8132 86.0748 46.9063 86.121 47.0482C86.3245 47.6747 85.9857 49.1128 85.2549 50.7487L84.7188 50.4755Z" fill="white"/>
<path d="M85.2537 50.801C85.2448 50.801 85.2358 50.7989 85.2277 50.7948L84.6915 50.5215C84.6784 50.5148 84.6683 50.5034 84.6634 50.4895C84.6585 50.4756 84.6591 50.4604 84.6651 50.447C85.3871 48.8307 85.7263 47.3942 85.5291 46.7873C85.4889 46.6633 85.4276 46.5796 85.3473 46.5384L85.3469 46.5382C85.3334 46.5313 85.3231 46.5193 85.3184 46.5048C85.3137 46.4903 85.315 46.4746 85.3219 46.461C85.3288 46.4474 85.3408 46.4372 85.3553 46.4325C85.3698 46.4278 85.3855 46.429 85.3991 46.436L85.3995 46.4362L85.9351 46.7095C86.0437 46.7649 86.1242 46.8712 86.1743 47.0255C86.3829 47.6674 86.0502 49.1011 85.3061 50.767C85.3015 50.7772 85.2942 50.7857 85.2849 50.7918C85.2756 50.7978 85.2648 50.801 85.2537 50.801ZM84.7921 50.4441L85.2258 50.6651C85.9309 49.0716 86.2601 47.6609 86.0652 47.061C86.0248 46.9368 85.9635 46.8529 85.8829 46.8118L85.6072 46.6711C85.6186 46.6964 85.6289 46.7234 85.6382 46.7519C85.8448 47.3876 85.5207 48.7994 84.7921 50.4441Z" fill="#111111"/>
<path d="M81.1727 53.7049L80.6367 53.4314C80.9728 52.0881 81.7086 50.3942 82.6044 48.9008C83.853 46.8193 85.0963 45.6478 85.6553 45.933L86.1913 46.2066C85.6323 45.9213 84.3891 47.0928 83.1405 49.1743C82.2446 50.6677 81.5089 52.3617 81.1727 53.7049Z" fill="white"/>
<path d="M81.1755 53.7652C81.1665 53.7652 81.1575 53.763 81.1494 53.7589L80.6134 53.4853C80.6018 53.4794 80.5926 53.4698 80.5872 53.458C80.5818 53.4461 80.5806 53.4329 80.5838 53.4203C80.9212 52.0718 81.6592 50.3723 82.5579 48.8741C83.8173 46.7746 85.0735 45.573 85.684 45.8848L86.2201 46.1583C86.2336 46.1652 86.2439 46.1773 86.2486 46.1917C86.2533 46.2062 86.252 46.222 86.2451 46.2355C86.2382 46.2491 86.2262 46.2593 86.2117 46.264C86.1972 46.2687 86.1815 46.2675 86.1679 46.2606C85.7082 46.0261 84.5385 46.9626 83.1924 49.2067C82.2991 50.6958 81.5659 52.3837 81.2311 53.7218C81.228 53.7342 81.2209 53.7452 81.2108 53.753C81.2007 53.7609 81.1883 53.7651 81.1755 53.7652ZM80.7064 53.4039L81.1377 53.624C81.4827 52.287 82.2108 50.6201 83.0941 49.1476C84.1585 47.3731 85.2209 46.2402 85.8928 46.1201L85.632 45.987C85.1723 45.7526 84.0026 46.689 82.6564 48.9332C81.773 50.4058 81.0462 52.073 80.7064 53.4039Z" fill="#111111"/>
<path d="M86.4289 46.5262C86.6635 47.2483 86.2604 48.9245 85.4005 50.8203L85.2521 50.7447C85.9829 49.1087 86.3217 47.6707 86.1181 47.0442C85.8269 46.1481 84.5219 47.1987 83.2089 49.3875C82.4166 50.7082 81.766 52.2058 81.4683 53.395L81.1719 53.7048C81.508 52.3615 82.2438 50.6676 83.1396 49.1741C84.6233 46.7008 86.0995 45.5124 86.4289 46.5262Z" fill="#111111"/>
<path d="M81.1745 53.7649C81.1658 53.7648 81.1572 53.7628 81.1494 53.759C81.1416 53.7552 81.1347 53.7496 81.1294 53.7427C81.124 53.7359 81.1203 53.7279 81.1184 53.7193C81.1166 53.7108 81.1168 53.702 81.1189 53.6935C81.4563 52.3451 82.1943 50.6456 83.093 49.1473C84.2435 47.2295 85.4104 46.0385 86.0658 46.1126C86.2035 46.1283 86.3883 46.2101 86.4861 46.5111C86.727 47.2527 86.3321 48.9139 85.4554 50.8467C85.4522 50.8537 85.4476 50.8601 85.4419 50.8653C85.4362 50.8705 85.4294 50.8746 85.4221 50.8771C85.4148 50.8797 85.407 50.8807 85.3993 50.8802C85.3916 50.8797 85.384 50.8776 85.3771 50.874L85.2287 50.7985C85.2156 50.7918 85.2056 50.7803 85.2007 50.7664C85.1958 50.7526 85.1964 50.7374 85.2024 50.7239C85.9243 49.1077 86.2634 47.6714 86.0663 47.0646C86.0104 46.8926 85.9185 46.8016 85.7854 46.7864C85.3453 46.7362 84.3936 47.5312 83.2608 49.4197C82.471 50.7362 81.8228 52.2286 81.5267 53.4116C81.5242 53.4213 81.5194 53.4301 81.5125 53.4373L81.2161 53.7471C81.2107 53.7527 81.2043 53.7572 81.1971 53.7602C81.19 53.7633 81.1823 53.7649 81.1745 53.7649ZM86.0026 46.2239C85.3889 46.2239 84.2714 47.406 83.1914 49.2064C82.3451 50.6172 81.6424 52.2066 81.2862 53.5077L81.4189 53.369C81.7193 52.1779 82.3703 50.6809 83.1623 49.3606C84.1815 47.6616 85.2158 46.6071 85.7982 46.6724C85.9219 46.6865 86.0877 46.7598 86.1753 47.0292C86.3818 47.6647 86.0578 49.0764 85.3293 50.721L85.3756 50.7445C86.2109 48.8881 86.6037 47.2444 86.3769 46.5466C86.3136 46.3516 86.2045 46.244 86.0528 46.2267C86.0361 46.2248 86.0194 46.2239 86.0026 46.2239ZM118.369 84.7806C118.314 84.7807 118.261 84.7607 118.219 84.7244C118.177 84.6881 118.15 84.638 118.142 84.5832C118.134 84.5284 118.147 84.4726 118.177 84.4262C118.207 84.3797 118.253 84.3458 118.306 84.3305L125.609 82.2253C125.668 82.2084 125.73 82.2155 125.784 82.2449C125.837 82.2744 125.876 82.3238 125.893 82.3822C125.91 82.4407 125.903 82.5035 125.873 82.5568C125.844 82.6101 125.795 82.6495 125.736 82.6664L118.433 84.7716C118.412 84.7776 118.391 84.7806 118.369 84.7806Z" fill="#111111"/>
<path d="M123.016 87.1508C122.967 87.1508 122.918 87.1346 122.879 87.1048C122.839 87.075 122.81 87.0331 122.796 86.9854L120.806 80.1452C120.798 80.1162 120.795 80.0859 120.799 80.056C120.802 80.026 120.811 79.997 120.826 79.9706C120.84 79.9441 120.86 79.9208 120.883 79.902C120.907 79.8831 120.934 79.8691 120.963 79.8607C120.992 79.8523 121.022 79.8496 121.052 79.8529C121.082 79.8562 121.111 79.8654 121.137 79.8799C121.164 79.8944 121.187 79.914 121.206 79.9375C121.225 79.961 121.239 79.9881 121.247 80.017L123.237 86.8572C123.247 86.8914 123.249 86.9275 123.242 86.9625C123.236 86.9976 123.221 87.0307 123.2 87.0591C123.179 87.0876 123.151 87.1108 123.119 87.1267C123.087 87.1426 123.052 87.1509 123.016 87.1508ZM101.05 95.933C100.995 95.9331 100.941 95.9131 100.899 95.8768C100.858 95.8405 100.83 95.7904 100.823 95.7355C100.815 95.6807 100.827 95.625 100.857 95.5785C100.887 95.5321 100.933 95.4981 100.987 95.4829L108.29 93.3777C108.348 93.3613 108.41 93.3687 108.463 93.3982C108.516 93.4277 108.555 93.4769 108.572 93.5351C108.589 93.5933 108.582 93.6558 108.553 93.7089C108.524 93.762 108.475 93.8015 108.417 93.8187L101.114 95.924C101.093 95.93 101.072 95.933 101.05 95.933Z" fill="#111111"/>
<path d="M105.694 98.2944C105.644 98.2944 105.596 98.2783 105.556 98.2484C105.517 98.2186 105.488 98.1767 105.474 98.129L103.484 91.2888C103.476 91.2598 103.473 91.2295 103.476 91.1996C103.48 91.1696 103.489 91.1406 103.503 91.1142C103.518 91.0877 103.537 91.0645 103.561 91.0456C103.584 91.0267 103.611 91.0127 103.64 91.0043C103.669 90.9959 103.7 90.9932 103.73 90.9965C103.759 90.9998 103.789 91.009 103.815 91.0235C103.841 91.038 103.865 91.0576 103.883 91.0811C103.902 91.1047 103.916 91.1317 103.925 91.1606L105.915 98.0008C105.925 98.035 105.926 98.0711 105.92 98.1061C105.914 98.1412 105.899 98.1743 105.878 98.2027C105.856 98.2312 105.829 98.2544 105.797 98.2703C105.765 98.2862 105.73 98.2945 105.694 98.2944ZM80.9602 75.7045C80.9048 75.7045 80.8513 75.6845 80.8095 75.6483C80.7677 75.612 80.7404 75.5618 80.7327 75.507C80.725 75.4522 80.7373 75.3964 80.7675 75.35C80.7976 75.3036 80.8435 75.2696 80.8967 75.2543L88.1997 73.1491C88.258 73.1328 88.3204 73.1402 88.3733 73.1697C88.4262 73.1992 88.4653 73.2484 88.4821 73.3066C88.4989 73.3648 88.4919 73.4273 88.4629 73.4804C88.4338 73.5335 88.3849 73.573 88.3268 73.5902L81.0238 75.6954C81.0031 75.7014 80.9817 75.7045 80.9602 75.7045Z" fill="#111111"/>
<path d="M85.6059 78.0727C85.5562 78.0727 85.5079 78.0565 85.4682 78.0267C85.4284 77.9969 85.3995 77.9549 85.3856 77.9072L83.3958 71.0671C83.3789 71.0086 83.3858 70.9458 83.4151 70.8924C83.4444 70.8391 83.4937 70.7996 83.5521 70.7826C83.6106 70.7656 83.6734 70.7725 83.7268 70.8018C83.7801 70.8311 83.8196 70.8804 83.8366 70.9389L85.8264 77.7791C85.8363 77.8133 85.8382 77.8493 85.8318 77.8844C85.8254 77.9194 85.8109 77.9525 85.7895 77.981C85.7681 78.0095 85.7404 78.0326 85.7085 78.0486C85.6767 78.0645 85.6415 78.0727 85.6059 78.0727Z" fill="#111111"/>
</g>
<g clip-path="url(#clip1_31349_30414)">
<path d="M105.606 30.0271C106.847 30.1794 107.682 31.2896 107.474 32.5084L92.2703 121.179C92.0618 122.395 90.8877 123.259 89.6468 123.106L21.4468 114.737C20.2059 114.585 19.3703 113.475 19.5788 112.259L34.7819 23.5881C34.9909 22.3693 36.165 21.5057 37.4059 21.658L105.606 30.0271Z" fill="white"/>
<path d="M89.9292 123.176C89.8331 123.176 89.7363 123.17 89.6391 123.158L21.4391 114.789C20.8184 114.713 20.2771 114.403 19.9147 113.916C19.5582 113.437 19.4184 112.843 19.5212 112.244L34.7244 23.5733C34.9381 22.3273 36.1439 21.4402 37.4122 21.5958L105.612 29.9651C106.233 30.0412 106.774 30.3511 107.136 30.8378C107.493 31.3173 107.633 31.9124 107.53 32.5132L92.3264 121.184C92.1293 122.333 91.0864 123.176 89.9292 123.176ZM37.122 21.6933C36.0194 21.6933 35.0259 22.4973 34.838 23.5928L19.6348 112.263C19.5374 112.831 19.6697 113.394 20.0072 113.848C20.3506 114.309 20.864 114.603 21.4531 114.675L89.6531 123.044C90.8614 123.192 92.0096 122.349 92.2128 121.164L107.416 32.4937C107.514 31.9243 107.381 31.3606 107.043 30.9065C106.7 30.4454 106.187 30.1517 105.598 30.0794L37.3981 21.7101C37.3065 21.6989 37.2143 21.6933 37.122 21.6933Z" fill="#111111"/>
<path d="M38.6105 25.0391L23.7383 111.779L88.4379 119.719L103.31 32.9786L38.6105 25.0391Z" fill="white"/>
<path d="M88.437 119.779C88.4347 119.779 88.4323 119.779 88.4299 119.779L23.7303 111.839C23.7226 111.838 23.7151 111.836 23.7083 111.832C23.7016 111.828 23.6957 111.822 23.6911 111.816C23.6864 111.81 23.6831 111.803 23.6813 111.795C23.6795 111.788 23.6792 111.78 23.6805 111.772L38.5527 25.0322C38.5552 25.0176 38.5632 25.0046 38.5751 24.9957C38.587 24.9869 38.6018 24.983 38.6165 24.9848L103.316 32.9244C103.324 32.9253 103.331 32.9279 103.338 32.9318C103.345 32.9357 103.351 32.941 103.355 32.9472C103.36 32.9535 103.363 32.9606 103.365 32.9682C103.367 32.9757 103.367 32.9836 103.366 32.9913L88.4937 119.731C88.4914 119.745 88.4845 119.757 88.4741 119.766C88.4637 119.774 88.4506 119.779 88.437 119.779ZM23.8043 111.732L88.3895 119.658L103.242 33.0313L38.657 25.1057L23.8043 111.732Z" fill="#111111"/>
<path d="M108.182 32.7065L107.216 31.0625C107.461 31.4783 107.563 31.9812 107.474 32.504L92.2704 121.175C92.0619 122.391 90.8879 123.254 89.6469 123.102L21.4468 114.733C20.7379 114.646 20.1612 114.246 19.8359 113.693L20.802 115.337C21.1272 115.89 21.7039 116.29 22.4129 116.377L90.6129 124.746C91.8539 124.898 93.0279 124.035 93.2364 122.819L108.44 34.148C108.529 33.6252 108.427 33.1223 108.182 32.7065Z" fill="white"/>
<path d="M90.8951 124.82C90.799 124.82 90.7022 124.815 90.605 124.803L22.405 116.434C21.7024 116.347 21.0996 115.958 20.7514 115.365L19.7853 113.721C19.7775 113.708 19.7754 113.693 19.7792 113.678C19.783 113.663 19.7926 113.65 19.8058 113.643C19.819 113.635 19.8347 113.633 19.8495 113.636C19.8643 113.64 19.8769 113.65 19.8847 113.663C20.2146 114.224 20.7862 114.593 21.453 114.675L89.6529 123.044C90.8611 123.192 92.0095 122.349 92.2127 121.164L107.416 32.4939C107.501 31.9992 107.414 31.5142 107.166 31.0914C107.158 31.0782 107.156 31.0625 107.16 31.0477C107.163 31.0329 107.173 31.0203 107.186 31.0125C107.199 31.0048 107.215 31.0026 107.23 31.0064C107.245 31.0103 107.257 31.0198 107.265 31.033L108.231 32.6769C108.49 33.1172 108.584 33.6429 108.496 34.1574L93.2924 122.828C93.0952 123.977 92.0523 124.82 90.8951 124.82ZM20.2385 114.265L20.8507 115.307C21.1807 115.869 21.7523 116.237 22.419 116.319L90.619 124.688C91.8274 124.837 92.9756 123.993 93.1788 122.808L108.382 34.1379C108.467 33.6431 108.38 33.1581 108.132 32.7353L107.516 31.688C107.572 31.9599 107.577 32.2399 107.529 32.5134L92.3262 121.184C92.1129 122.428 90.9073 123.315 89.6389 123.159L21.4389 114.79C20.9825 114.734 20.5682 114.55 20.2385 114.265ZM74.6603 19.3069L74.6604 19.307L74.6601 19.3056C74.4118 17.8982 74.103 17.2343 73.9711 16.9507C73.6989 16.381 73.1407 15.9604 72.4373 15.875C71.3161 15.7387 70.2533 16.5096 70.062 17.598C69.9904 18.0055 70.0512 18.3999 70.2141 18.7409L70.2156 18.7442C70.2958 18.9181 70.3637 19.1403 70.4182 19.3544C70.4672 19.549 70.515 19.7745 70.5612 20.0305C70.5268 19.8357 70.5314 19.6306 70.5805 19.4222C70.8073 18.459 71.8989 17.7895 73.0201 17.9257C73.9009 18.0328 74.5363 18.6028 74.6606 19.3082L74.6603 19.3069Z" fill="#111111"/>
<path d="M70.5629 20.0909C70.5494 20.0909 70.5364 20.0862 70.526 20.0775C70.5157 20.0689 70.5087 20.0569 70.5063 20.0436C70.4607 19.7909 70.4128 19.5648 70.3641 19.3712C70.3006 19.1217 70.2336 18.9197 70.1651 18.771C69.99 18.4043 69.9357 17.997 70.0071 17.5908C70.2031 16.475 71.2973 15.681 72.4461 15.8206C73.1436 15.9054 73.7339 16.3196 74.0249 16.9286C74.158 17.2148 74.4687 17.883 74.7182 19.2959L74.7192 19.301C74.7218 19.316 74.7184 19.3314 74.7097 19.3439C74.701 19.3563 74.6877 19.3649 74.6727 19.3676C74.6653 19.369 74.6577 19.3689 74.6503 19.3674C74.6429 19.3658 74.6359 19.3628 74.6297 19.3585C74.6234 19.3543 74.6181 19.3488 74.614 19.3425C74.6099 19.3361 74.6071 19.329 74.6058 19.3216L74.6057 19.3207C74.4826 18.6228 73.8434 18.0862 73.015 17.9856C71.9243 17.8529 70.8582 18.5046 70.6384 19.4381C70.5922 19.6344 70.5859 19.8313 70.6197 20.0233C70.6212 20.0316 70.6209 20.0401 70.6187 20.0482C70.6165 20.0564 70.6126 20.0639 70.6072 20.0704C70.6017 20.0768 70.595 20.082 70.5873 20.0856C70.5797 20.0891 70.5713 20.0909 70.5629 20.0909ZM72.1825 15.9199C71.1888 15.9199 70.2919 16.6355 70.1205 17.6107C70.0533 17.9932 70.1043 18.3764 70.2679 18.7189C70.3412 18.8779 70.4106 19.0865 70.4758 19.343C70.4874 19.3891 70.499 19.4369 70.5104 19.4865C70.5151 19.4615 70.5203 19.4367 70.5262 19.4118C70.759 18.423 71.8815 17.7322 73.0289 17.8713C73.6615 17.9482 74.1906 18.2673 74.4867 18.719C74.267 17.7227 74.0313 17.2156 73.9208 16.9779C73.647 16.405 73.0904 16.015 72.4322 15.935C72.3493 15.9249 72.2659 15.9199 72.1825 15.9199ZM79.3235 19.3506C79.2524 18.9521 79.1554 18.4623 79.0126 17.9242C79.0062 17.8998 78.9996 17.8757 78.993 17.8514C78.9813 17.8083 78.9696 17.7652 78.9573 17.7216C78.9453 17.6788 78.933 17.6365 78.9207 17.5942C78.912 17.5644 78.9035 17.5347 78.8945 17.5046C78.8813 17.4607 78.8678 17.4171 78.8542 17.3736C78.8438 17.3398 78.8334 17.3062 78.8226 17.2721C78.8163 17.2527 78.8099 17.2334 78.8035 17.2141C78.6633 16.7821 78.4918 16.3328 78.2801 15.8834C78.2753 15.8731 78.2708 15.8625 78.2659 15.8522C78.2704 15.8619 78.2746 15.8715 78.2791 15.8811C78.2726 15.8674 78.2667 15.8538 78.2601 15.8401C78.8095 16.9898 79.0145 18.319 78.7731 19.6932L77.9592 24.3248C78.0927 24.6041 78.205 24.9992 78.2932 25.5001L79.2584 21.4011C79.4239 20.6985 79.4393 20.0072 79.3235 19.3506Z" fill="#111111"/>
<path d="M78.2902 25.5552H78.2885C78.2752 25.5548 78.2625 25.5498 78.2525 25.5412C78.2424 25.5325 78.2357 25.5206 78.2334 25.5076C78.1461 25.0121 78.0353 24.6217 77.9041 24.3472C77.8989 24.3363 77.8972 24.3242 77.8993 24.3124L78.7131 19.6808C78.9362 18.4115 78.7814 17.1399 78.2657 15.9934C78.2522 15.9639 78.2385 15.9347 78.2248 15.9055L78.2049 15.8623C78.1988 15.8486 78.1982 15.833 78.2034 15.8189C78.2086 15.8048 78.2192 15.7933 78.2327 15.7868C78.2463 15.7804 78.2619 15.7795 78.2761 15.7843C78.2903 15.7892 78.3021 15.7994 78.3089 15.8128L78.3141 15.8237C78.3143 15.8241 78.3145 15.8245 78.3147 15.8249L78.3154 15.8263C78.3343 15.866 78.3526 15.9057 78.3706 15.9457C78.5502 16.3366 78.713 16.756 78.8552 17.1938L78.8742 17.2521C78.8822 17.2771 78.8899 17.3018 78.8975 17.3265L78.9061 17.354C78.9197 17.3977 78.9333 17.4415 78.9465 17.4856L78.9728 17.5756C78.9852 17.6181 78.9975 17.6606 79.0096 17.7036C79.022 17.7474 79.0337 17.7906 79.0454 17.8339L79.0651 17.9071C79.1831 18.352 79.2823 18.8067 79.3771 19.338V19.3381C79.4971 20.0191 79.4749 20.7168 79.3113 21.4118L78.3461 25.5108C78.3432 25.5234 78.3361 25.5347 78.3259 25.5427C78.3157 25.5508 78.3031 25.5552 78.2902 25.5552ZM78.016 24.3143C78.1237 24.5446 78.2175 24.8491 78.2958 25.2221L79.1993 21.3854C79.3593 20.7057 79.381 20.0237 79.2637 19.3581C79.1695 18.83 79.071 18.3783 78.9538 17.9365L78.9342 17.8639C78.9226 17.8211 78.9109 17.7782 78.8987 17.7347C78.8867 17.6921 78.8745 17.6499 78.8623 17.6078L78.8534 17.5776C78.9601 18.2715 78.9521 18.9865 78.8266 19.7007L78.016 24.3143Z" fill="#111111"/>
<path d="M65.0583 18.022C65.704 14.3475 69.2974 11.741 73.0832 12.2011C76.8713 12.6615 79.4176 16.0141 78.772 19.6886L77.9581 24.3202L78.7831 24.4205C84.598 25.1271 88.5093 30.2743 87.5171 35.9206L51.0938 31.494C52.0859 25.8477 57.6046 21.8466 63.4196 22.5533L64.2445 22.6536L65.0583 18.022ZM74.1234 18.0897C74.3146 17.0014 73.5616 16.0098 72.4379 15.8733C71.3166 15.737 70.2539 16.5079 70.0627 17.5962C69.8714 18.6846 70.6241 19.6784 71.7454 19.8147C72.869 19.9512 73.9322 19.1781 74.1234 18.0897Z" fill="black"/>
<path d="M87.5163 35.9809C87.5139 35.9809 87.5116 35.9807 87.5093 35.9804L51.0859 31.5539C51.0781 31.5529 51.0706 31.5504 51.0638 31.5465C51.0571 31.5426 51.0512 31.5373 51.0465 31.531C51.0418 31.5248 51.0385 31.5176 51.0367 31.51C51.0349 31.5024 51.0347 31.4945 51.036 31.4868C52.0315 25.8215 57.5893 21.7892 63.4255 22.4989L64.1962 22.5925L65.0006 18.0148C65.6506 14.316 69.2791 11.6836 73.0892 12.1466C74.9651 12.3745 76.5951 13.3047 77.679 14.7658C78.7301 16.1826 79.138 17.9354 78.8277 19.7012L78.0244 24.2731L78.7891 24.3659C81.6606 24.715 84.1556 26.1388 85.8146 28.3752C87.4237 30.5444 88.0482 33.2285 87.573 35.9332C87.5706 35.9465 87.5637 35.9586 87.5533 35.9673C87.5429 35.9761 87.5298 35.9808 87.5163 35.9809ZM51.1602 31.4469L87.4687 35.8595C87.9209 33.2044 87.3015 30.5729 85.722 28.4438C84.082 26.233 81.6149 24.8255 78.7751 24.4804L77.9502 24.38C77.9424 24.3791 77.9349 24.3766 77.9282 24.3727C77.9214 24.3687 77.9155 24.3635 77.9109 24.3572C77.9062 24.3509 77.9029 24.3438 77.9011 24.3361C77.8993 24.3285 77.899 24.3207 77.9004 24.313L78.7142 19.6814C79.019 17.9469 78.6185 16.2256 77.5864 14.8344C76.5216 13.3989 74.9195 12.485 73.0752 12.261C69.3248 11.8049 65.7536 14.3952 65.1141 18.0347L64.3003 22.6663C64.2976 22.6808 64.2895 22.6937 64.2777 22.7024C64.2659 22.7112 64.2512 22.7151 64.2365 22.7135L63.4116 22.6133C57.656 21.9138 52.1736 25.8723 51.1602 31.4469ZM72.0007 19.8904C71.9135 19.8904 71.8257 19.8852 71.7375 19.8745C71.1719 19.8057 70.6801 19.5249 70.3528 19.0837C70.0345 18.6546 69.911 18.1238 70.0049 17.589C70.201 16.4732 71.2952 15.6792 72.4439 15.8188C73.0116 15.8878 73.5047 16.169 73.8323 16.6106C74.1498 17.0387 74.273 17.5684 74.1792 18.1024C73.998 19.1335 73.0503 19.8904 72.0007 19.8904ZM72.1804 15.918C71.1868 15.918 70.2899 16.6336 70.1185 17.6089C70.0301 18.1123 70.1462 18.6117 70.4454 19.0151C70.7537 19.4306 71.2175 19.6953 71.7514 19.7601C71.8351 19.7703 71.9186 19.7753 72.0012 19.7753C72.9962 19.7754 73.8942 19.0589 74.0658 18.0825C74.154 17.5799 74.0383 17.0816 73.7398 16.6792C73.4312 16.2632 72.9661 15.9983 72.4301 15.9332C72.3473 15.9231 72.2639 15.918 72.1804 15.918Z" fill="#111111"/>
</g>
<g clip-path="url(#clip2_31349_30414)">
<path d="M51.5172 43.3029L44.5877 42.4526C44.0663 42.3886 43.569 42.752 43.4807 43.2668L42.3143 50.0697C42.226 50.5846 42.5807 51.0525 43.1022 51.1165L50.0317 51.9668C50.5531 52.0308 51.0503 51.6674 51.1385 51.1526L52.305 44.3497C52.3933 43.8348 52.0386 43.3669 51.5172 43.3029Z" fill="white"/>
<path d="M50.1535 52.0339C50.1117 52.0339 50.0697 52.0313 50.0274 52.0262L43.0978 51.1759C42.8274 51.1426 42.5912 51.0071 42.4328 50.7942C42.2768 50.5845 42.2155 50.3247 42.2605 50.0626L43.4269 43.2597C43.52 42.7169 44.045 42.3306 44.5974 42.3983L51.5269 43.2487C51.7973 43.2819 52.0335 43.4174 52.1918 43.6302C52.3479 43.8399 52.4091 44.0998 52.3641 44.362L51.1978 51.1647C51.1118 51.6659 50.6574 52.0339 50.1535 52.0339ZM44.4708 42.5051C44.0214 42.5051 43.6164 42.8326 43.5398 43.279L42.3734 50.0819C42.3338 50.3128 42.3876 50.5414 42.5247 50.7258C42.6643 50.9134 42.8728 51.0328 43.1119 51.0621L50.0414 51.9125C50.5338 51.973 51.0019 51.6288 51.0848 51.1453L52.2511 44.3425C52.2907 44.1115 52.237 43.8828 52.0999 43.6985C51.9603 43.511 51.7519 43.3916 51.5129 43.3622L44.5834 42.5119C44.546 42.5073 44.5084 42.5051 44.4708 42.5051Z" fill="#111111"/>
<path d="M50.8113 45.2221C50.7447 45.2142 50.6773 45.2203 50.6132 45.2399C50.5492 45.2595 50.4899 45.2922 50.4392 45.336L46.5825 48.6273L44.9886 46.7697C44.9152 46.6843 44.8146 46.6345 44.7081 46.6215C44.6425 46.6137 44.5761 46.6195 44.5128 46.6384C44.4495 46.6572 44.3907 46.6889 44.3401 46.7313C44.1417 46.8959 44.1099 47.1794 44.2703 47.3661L46.1599 49.5638C46.2326 49.6472 46.3337 49.7006 46.4436 49.7137L46.4737 49.7173C46.5979 49.7243 46.7195 49.6817 46.8142 49.6003L51.0301 46.0025C51.2262 45.835 51.2526 45.5508 51.089 45.3664C51.0155 45.2834 50.9161 45.235 50.8113 45.2221Z" fill="#111111"/>
<path d="M46.4979 49.7442C46.4885 49.7442 46.4791 49.7439 46.4697 49.7434L46.4377 49.7395C46.3208 49.7254 46.2133 49.6687 46.1358 49.5801L44.2461 47.3822C44.2066 47.3363 44.1768 47.283 44.1583 47.2255C44.1398 47.1679 44.1331 47.1072 44.1385 47.047C44.1497 46.915 44.2139 46.7942 44.3194 46.7067C44.4286 46.6159 44.5706 46.5734 44.7092 46.5906C44.8266 46.6049 44.9327 46.6611 45.0079 46.7485L46.5832 48.5845L50.4181 45.3117C50.5278 45.2179 50.6716 45.1738 50.8122 45.1912C50.9277 45.2054 51.0327 45.26 51.108 45.345C51.1483 45.3904 51.1792 45.4434 51.1986 45.5009C51.2181 45.5584 51.2258 45.6192 51.2214 45.6798C51.2123 45.8116 51.1501 45.933 51.0462 46.0218L46.8304 49.6196C46.7363 49.7004 46.6191 49.7442 46.4979 49.7442ZM44.6487 46.6442C44.5417 46.6446 44.4382 46.6823 44.356 46.7508C44.2624 46.8285 44.2055 46.9354 44.1957 47.0518C44.1909 47.1045 44.1968 47.1576 44.2129 47.2079C44.2291 47.2583 44.2551 47.3048 44.2896 47.3449L46.1792 49.5427C46.2474 49.6205 46.342 49.6704 46.4447 49.6828L46.4748 49.6865C46.5895 49.6926 46.7029 49.6536 46.7932 49.5762L51.0091 45.9783C51.1011 45.8996 51.1563 45.7922 51.1643 45.6758C51.1682 45.6229 51.1615 45.5696 51.1444 45.5193C51.1274 45.469 51.1004 45.4227 51.0652 45.383C50.9991 45.3084 50.9069 45.2605 50.8054 45.248C50.6805 45.2329 50.5529 45.2719 50.4554 45.3553L46.577 48.6652L44.9644 46.7859C44.8986 46.7093 44.8055 46.6601 44.7022 46.6475C44.6845 46.6452 44.6666 46.6441 44.6487 46.6442Z" fill="#111111"/>
<path d="M48.92 58.4748L41.9905 57.6244C41.4691 57.5605 40.9713 57.9266 40.883 58.4413L39.7166 65.2441C39.6284 65.759 39.9831 66.2269 40.5045 66.2909L47.434 67.1412C47.9555 67.2052 48.4526 66.8418 48.5409 66.327L49.7073 59.5241C49.7955 59.0094 49.4414 58.5387 48.92 58.4748Z" fill="white"/>
<path d="M47.552 67.2084C47.5102 67.2084 47.4681 67.2059 47.4258 67.2007L40.4963 66.3503C40.2258 66.3171 39.9897 66.1816 39.8312 65.9687C39.6751 65.759 39.614 65.4992 39.6589 65.237L40.8254 58.4342C40.9186 57.89 41.4437 57.5025 41.9963 57.5702L48.9258 58.4205C49.1953 58.4536 49.4309 58.589 49.5894 58.802C49.7462 59.0126 49.8077 59.2734 49.7626 59.5364L48.5962 66.3392C48.5102 66.8405 48.0559 67.2084 47.552 67.2084ZM41.87 57.677C41.4204 57.677 41.0151 58.0057 40.9383 58.4536L39.7719 65.2564C39.7323 65.4873 39.786 65.716 39.9232 65.9004C40.0628 66.0879 40.2712 66.2074 40.5103 66.2367L47.4399 67.087C47.9322 67.1473 48.4003 66.8033 48.4832 66.3199L49.6496 59.5171C49.6893 59.2853 49.6353 59.0556 49.4974 58.8704C49.3579 58.6828 49.1499 58.5635 48.9118 58.5342L41.9823 57.6839C41.945 57.6793 41.9075 57.677 41.87 57.677Z" fill="#111111"/>
<path d="M48.2097 60.394C48.1432 60.3861 48.0757 60.3922 48.0116 60.4118C47.9476 60.4314 47.8883 60.4641 47.8376 60.5079L43.9815 63.7965L42.387 61.9417C42.3132 61.8557 42.2122 61.8055 42.1052 61.7923C41.9796 61.7769 41.8458 61.8128 41.7385 61.9031C41.5402 62.0677 41.5084 62.3512 41.6687 62.538L43.5583 64.7357C43.631 64.8191 43.7321 64.8725 43.842 64.8855L43.8721 64.8892C43.9963 64.8962 44.1179 64.8537 44.2126 64.7722L48.4285 61.1746C48.6245 61.0068 48.651 60.7227 48.4874 60.5383C48.414 60.4553 48.3146 60.4069 48.2097 60.394Z" fill="#111111"/>
<path d="M43.8967 64.9161C43.8872 64.9161 43.8777 64.9158 43.8681 64.9152L43.8361 64.9114C43.7193 64.8973 43.6117 64.8405 43.5342 64.752L41.6445 62.5542C41.6051 62.5083 41.5752 62.455 41.5568 62.3974C41.5383 62.3398 41.5316 62.2791 41.537 62.2188C41.5481 62.0869 41.6123 61.9661 41.7178 61.8786C41.8263 61.7872 41.968 61.7442 42.1063 61.7614C42.2242 61.7759 42.3307 61.8324 42.4063 61.9206L43.9821 63.7536L47.8165 60.4836C47.9262 60.3897 48.0698 60.3458 48.2107 60.3631C48.3261 60.3773 48.4312 60.4318 48.5064 60.5168C48.5468 60.5622 48.5776 60.6152 48.5971 60.6727C48.6165 60.7302 48.6243 60.7911 48.6198 60.8516C48.6107 60.9834 48.5485 61.1049 48.4447 61.1938L44.2288 64.7915C44.1348 64.8723 44.0178 64.9161 43.8967 64.9161ZM42.0464 61.815C41.9395 61.8154 41.8362 61.8535 41.7545 61.9225C41.6609 62.0002 41.6039 62.1071 41.594 62.2236C41.5893 62.2762 41.5952 62.3293 41.6113 62.3797C41.6274 62.4301 41.6535 62.4767 41.688 62.5168L43.5775 64.7145C43.6457 64.7923 43.7403 64.8422 43.8431 64.8545L43.8731 64.8582C43.9873 64.8643 44.1012 64.8255 44.1915 64.7479L48.4074 61.1501C48.4995 61.0714 48.5546 60.9639 48.5626 60.8475C48.5665 60.7946 48.5598 60.7414 48.5428 60.6911C48.5257 60.6408 48.4988 60.5944 48.4635 60.5547C48.3975 60.4802 48.3053 60.4322 48.2037 60.4198C48.0788 60.4044 47.9512 60.4435 47.8538 60.527L43.9759 63.8341L42.3628 61.9577C42.2965 61.8804 42.203 61.8308 42.0994 61.8181C42.0818 61.816 42.0641 61.815 42.0464 61.815Z" fill="#111111"/>
<path d="M46.3183 73.6467L39.3887 72.7963C38.8673 72.7324 38.3696 73.0984 38.2818 73.6105L37.1149 80.4162C37.0271 80.9283 37.3814 81.399 37.9028 81.463L44.8324 82.3133C45.3538 82.3773 45.8514 82.0112 45.9392 81.4991L47.1061 74.6934C47.1939 74.1813 46.8397 73.7107 46.3183 73.6467Z" fill="white"/>
<path d="M44.9503 82.3805C44.9082 82.3805 44.866 82.3779 44.8242 82.3728L37.8946 81.5225C37.6248 81.4894 37.3889 81.3538 37.2303 81.1406C37.0739 80.9303 37.0124 80.6706 37.0572 80.4092L38.2241 73.6036C38.3172 73.0608 38.8423 72.674 39.3946 72.7422L46.3241 73.5926C46.5938 73.6256 46.8297 73.7612 46.9883 73.9744C47.1447 74.1846 47.2062 74.4443 47.1613 74.7057L45.9945 81.5114C45.9085 82.0126 45.4543 82.3805 44.9503 82.3805ZM39.268 72.849C38.8186 72.849 38.4136 73.1766 38.3371 73.623L37.1702 80.4286C37.1307 80.6588 37.1847 80.8874 37.3222 81.0722C37.4619 81.26 37.6702 81.3795 37.9085 81.4088L44.8381 82.2592C45.3305 82.3191 45.7986 81.9755 45.8814 81.4921L47.0483 74.6864C47.0878 74.4561 47.0338 74.2275 46.8963 74.0427C46.7566 73.855 46.5484 73.7354 46.3101 73.7062L39.3805 72.8558C39.3432 72.8513 39.3056 72.849 39.268 72.849Z" fill="#111111"/>
<path d="M43.7167 88.8186L36.7872 87.9682C36.2658 87.9042 35.768 88.2702 35.6802 88.7824L34.5134 95.5879C34.4256 96.1 34.7799 96.5707 35.3013 96.6347L42.2308 97.485C42.7522 97.549 43.2498 97.1829 43.3376 96.6708L44.5045 89.8653C44.5923 89.353 44.2381 88.8826 43.7167 88.8186Z" fill="white"/>
<path d="M42.3489 97.5489C42.3071 97.5489 42.265 97.5464 42.2226 97.5411L35.2931 96.6909C35.0233 96.6578 34.7874 96.5222 34.6288 96.309C34.4724 96.0987 34.4109 95.8391 34.4557 95.5776L35.6226 88.7721C35.7156 88.2294 36.2406 87.8428 36.793 87.9108L43.7225 88.7612C43.9923 88.7943 44.2282 88.9298 44.3867 89.1429C44.5431 89.3531 44.6045 89.6129 44.5597 89.8743L43.3929 96.6799C43.307 97.181 42.8527 97.5489 42.3489 97.5489ZM36.6664 88.0175C36.217 88.0175 35.812 88.3451 35.7356 88.7915L34.5687 95.5969C34.5292 95.8272 34.5832 96.0558 34.7207 96.2406C34.8605 96.4284 35.0687 96.5479 35.3071 96.5772L42.2366 97.4275C42.729 97.4881 43.1971 97.1439 43.28 96.6605L44.4468 89.8549C44.4863 89.6247 44.4323 89.396 44.2948 89.2112C44.1551 89.0235 43.9469 88.904 43.7086 88.8747L36.779 88.0243C36.7417 88.0198 36.7041 88.0175 36.6664 88.0175ZM71.1091 48.3182C71.1067 48.3182 71.1044 48.3181 71.102 48.3178L56.9646 46.5829C56.9571 46.582 56.9499 46.5796 56.9433 46.5759C56.9368 46.5722 56.931 46.5672 56.9264 46.5613C56.917 46.5493 56.9128 46.5341 56.9147 46.5191C56.9165 46.504 56.9243 46.4902 56.9363 46.4809C56.9483 46.4715 56.9635 46.4673 56.9786 46.4692L71.116 48.204C71.1306 48.2056 71.1441 48.2128 71.1536 48.224C71.1631 48.2353 71.1679 48.2497 71.167 48.2644C71.1661 48.2791 71.1596 48.2929 71.1488 48.3029C71.138 48.3129 71.1238 48.3184 71.1091 48.3182ZM84.5366 49.9659C84.5342 49.9659 84.5319 49.9658 84.5295 49.9655L74.7251 48.7624C74.7176 48.7615 74.7104 48.7591 74.7038 48.7554C74.6973 48.7517 74.6915 48.7467 74.6869 48.7408C74.6822 48.7349 74.6788 48.7281 74.6768 48.7208C74.6748 48.7136 74.6742 48.706 74.6751 48.6985C74.6771 48.6835 74.6849 48.6698 74.6969 48.6605C74.7088 48.6512 74.724 48.6469 74.739 48.6486L84.5435 49.8518C84.558 49.8535 84.5713 49.8607 84.5807 49.8719C84.59 49.8831 84.5948 49.8975 84.5939 49.9121C84.593 49.9267 84.5866 49.9404 84.5759 49.9504C84.5653 49.9604 84.5512 49.9659 84.5366 49.9659ZM76.9569 52.7784C76.9545 52.7784 76.9522 52.7783 76.9498 52.778L56.336 50.2484C56.3285 50.2475 56.3213 50.2451 56.3148 50.2414C56.3082 50.2377 56.3025 50.2328 56.2978 50.2268C56.2932 50.2209 56.2898 50.2141 56.2878 50.2069C56.2857 50.1996 56.2852 50.192 56.2861 50.1846C56.2881 50.1695 56.2959 50.1559 56.3078 50.1465C56.3198 50.1372 56.3349 50.1329 56.35 50.1347L76.9638 52.6643C76.9783 52.666 76.9916 52.6732 77.001 52.6844C77.0103 52.6956 77.0151 52.71 77.0142 52.7246C77.0133 52.7392 77.0069 52.7529 76.9962 52.7629C76.9856 52.7729 76.9715 52.7784 76.9569 52.7784ZM76.5704 64.4793C76.5681 64.4793 76.5657 64.4792 76.5633 64.4789L54.3632 61.7546C54.3558 61.7537 54.3485 61.7513 54.342 61.7476C54.3354 61.7439 54.3297 61.739 54.3251 61.7331C54.3157 61.7211 54.3115 61.7059 54.3133 61.6908C54.3152 61.6757 54.323 61.662 54.3349 61.6526C54.3469 61.6433 54.3621 61.6391 54.3772 61.6409L76.5773 64.3652C76.5918 64.3669 76.6051 64.3741 76.6145 64.3853C76.6239 64.3965 76.6286 64.4109 76.6277 64.4255C76.6268 64.44 76.6204 64.4537 76.6097 64.4637C76.5991 64.4738 76.585 64.4793 76.5704 64.4793ZM90.2163 66.1539C90.214 66.1539 90.2116 66.1538 90.2092 66.1535L80.1863 64.9235C80.1789 64.9226 80.1716 64.9203 80.1651 64.9165C80.1585 64.9128 80.1528 64.9079 80.1481 64.902C80.1435 64.896 80.1401 64.8892 80.1381 64.882C80.1361 64.8747 80.1355 64.8672 80.1364 64.8597C80.1384 64.8447 80.1462 64.831 80.1581 64.8217C80.1701 64.8123 80.1852 64.8081 80.2003 64.8098L90.2232 66.0398C90.2377 66.0415 90.251 66.0487 90.2604 66.0599C90.2698 66.0711 90.2745 66.0855 90.2736 66.1001C90.2728 66.1147 90.2663 66.1284 90.2557 66.1384C90.245 66.1484 90.231 66.1539 90.2163 66.1539ZM64.2015 66.7042C64.1992 66.7042 64.1968 66.7041 64.1944 66.7038L53.7347 65.4203C53.7272 65.4194 53.72 65.417 53.7134 65.4133C53.7069 65.4096 53.7011 65.4046 53.6965 65.3987C53.6918 65.3927 53.6884 65.386 53.6864 65.3787C53.6844 65.3715 53.6838 65.3639 53.6848 65.3564C53.6867 65.3414 53.6945 65.3277 53.7065 65.3184C53.7184 65.309 53.7336 65.3048 53.7487 65.3065L64.2084 66.5901C64.2229 66.5918 64.2362 66.599 64.2456 66.6102C64.255 66.6214 64.2597 66.6358 64.2588 66.6504C64.258 66.665 64.2515 66.6787 64.2409 66.6887C64.2302 66.6987 64.2162 66.7042 64.2015 66.7042ZM81.0542 80.5205C81.0518 80.5205 81.0494 80.5203 81.0471 80.52L51.7619 76.9263C51.7468 76.9245 51.7331 76.9167 51.7237 76.9048C51.7144 76.8928 51.7101 76.8776 51.712 76.8625C51.7129 76.8551 51.7153 76.8478 51.719 76.8413C51.7227 76.8347 51.7276 76.829 51.7336 76.8243C51.7395 76.8197 51.7463 76.8163 51.7536 76.8143C51.7608 76.8123 51.7684 76.8118 51.7759 76.8127L81.061 80.4064C81.0755 80.4082 81.0887 80.4155 81.0979 80.4267C81.1072 80.4379 81.1119 80.4522 81.111 80.4667C81.1101 80.4812 81.1038 80.4948 81.0932 80.5048C81.0827 80.5148 81.0687 80.5204 81.0542 80.5205ZM67.8418 82.6419C67.8394 82.6419 67.837 82.6417 67.8346 82.6414L51.1334 80.5919C51.1257 80.5913 51.1183 80.589 51.1115 80.5854C51.1048 80.5818 51.0988 80.5769 51.094 80.5709C51.0891 80.5649 51.0856 80.558 51.0834 80.5507C51.0813 80.5433 51.0807 80.5355 51.0817 80.5279C51.0826 80.5203 51.0851 80.513 51.0889 80.5063C51.0927 80.4997 51.0979 80.4938 51.104 80.4892C51.1101 80.4846 51.1171 80.4812 51.1246 80.4794C51.132 80.4775 51.1398 80.4771 51.1474 80.4783L67.8486 82.5278C67.863 82.5296 67.8762 82.5369 67.8855 82.5481C67.8948 82.5593 67.8995 82.5736 67.8986 82.5881C67.8977 82.6026 67.8914 82.6162 67.8808 82.6262C67.8703 82.6362 67.8563 82.6418 67.8418 82.6419ZM58.8142 93.2796C58.8119 93.2796 58.8095 93.2794 58.8071 93.2791L49.161 92.0954C49.1459 92.0935 49.1322 92.0858 49.1228 92.0738C49.1135 92.0618 49.1093 92.0467 49.1111 92.0316C49.112 92.0241 49.1143 92.0169 49.118 92.0103C49.1217 92.0037 49.1267 91.998 49.1326 91.9934C49.1386 91.9887 49.1454 91.9853 49.1527 91.9833C49.1599 91.9813 49.1675 91.9808 49.175 91.9818L58.8211 93.1655C58.8355 93.1673 58.8487 93.1746 58.858 93.1858C58.8673 93.1969 58.8719 93.2112 58.8711 93.2257C58.8702 93.2403 58.8638 93.2539 58.8533 93.2639C58.8427 93.2739 58.8288 93.2795 58.8142 93.2796ZM81.6476 96.0816C81.6452 96.0816 81.6429 96.0814 81.6406 96.0811L62.4303 93.7238C62.4152 93.7219 62.4015 93.7142 62.3922 93.7022C62.3828 93.6902 62.3786 93.6751 62.3804 93.66C62.3813 93.6525 62.3836 93.6453 62.3873 93.6387C62.391 93.6321 62.396 93.6264 62.4019 93.6217C62.4079 93.6171 62.4147 93.6137 62.422 93.6117C62.4292 93.6097 62.4368 93.6092 62.4443 93.6102L81.6545 95.9675C81.669 95.9693 81.6822 95.9766 81.6914 95.9878C81.7007 95.999 81.7054 96.0133 81.7045 96.0278C81.7036 96.0423 81.6973 96.0559 81.6867 96.0659C81.6761 96.0759 81.6622 96.0815 81.6476 96.0816ZM73.1559 98.7823C73.1536 98.7823 73.1512 98.7821 73.1489 98.7818L48.5326 95.7611C48.5175 95.7592 48.5037 95.7514 48.4944 95.7395C48.485 95.7275 48.4808 95.7123 48.4827 95.6973C48.4835 95.6898 48.4859 95.6825 48.4895 95.6759C48.4932 95.6694 48.4982 95.6636 48.5041 95.659C48.5101 95.6543 48.5169 95.6509 48.5242 95.6489C48.5315 95.647 48.5391 95.6464 48.5465 95.6474L73.1629 98.6682C73.1773 98.67 73.1905 98.6773 73.1998 98.6885C73.209 98.6997 73.2137 98.714 73.2128 98.7285C73.212 98.743 73.2056 98.7566 73.195 98.7666C73.1845 98.7766 73.1705 98.7822 73.1559 98.7823Z" fill="#111111"/>
</g>
<defs>
<clipPath id="clip0_31349_30414">
<rect width="86.968" height="75.992" fill="white" transform="translate(48.2734 44.7422)"/>
</clipPath>
<clipPath id="clip1_31349_30414">
<rect width="89.04" height="112.728" fill="white" transform="translate(19.4883 12.0938)"/>
</clipPath>
<clipPath id="clip2_31349_30414">
<rect width="55.832" height="56.392" fill="white" transform="translate(34.4414 42.3906)"/>
</clipPath>
</defs>
</svg>
