<svg width="20" height="21" viewBox="0 0 20 21" fill="none" xmlns="http://www.w3.org/2000/svg">
<path d="M13.9269 19.4553H5.73545C5.3996 19.4553 5.12109 19.1768 5.12109 18.8409C5.12109 18.5051 5.3996 18.2266 5.73545 18.2266H13.9269C14.2628 18.2266 14.5413 18.5051 14.5413 18.8409C14.5413 19.1768 14.2628 19.4553 13.9269 19.4553Z" fill="#FF4F4F"/>
<path d="M14.7431 2.46094H4.91331C3.10299 2.46094 1.63672 3.92721 1.63672 5.73753V13.1099C1.63672 14.9202 3.10299 16.3865 4.91331 16.3865H14.7431C16.5534 16.3865 18.0197 14.9202 18.0197 13.1099V5.73753C18.0197 3.92721 16.5534 2.46094 14.7431 2.46094ZM8.18171 6.8188C8.64043 6.8188 9.00905 7.18742 9.00905 7.63795C9.00905 8.08848 8.64043 8.4571 8.1899 8.4571C7.73937 8.4571 7.37075 8.08848 7.37075 7.63795C7.37075 7.18742 7.73118 6.8188 8.18171 6.8188ZM5.60139 6.8188C6.06012 6.8188 6.42873 7.18742 6.42873 7.63795C6.42873 8.08848 6.06012 8.4571 5.60959 8.4571C5.15905 8.4571 4.79044 8.08848 4.79044 7.63795C4.79044 7.18742 5.14267 6.8188 5.60139 6.8188ZM14.1369 12.9952H5.53586C5.19182 12.9952 4.91331 12.7167 4.91331 12.3808C4.91331 12.045 5.18363 11.7665 5.51948 11.7665H14.1451C14.481 11.7665 14.7595 12.045 14.7595 12.3808C14.7595 12.7167 14.481 12.9952 14.1369 12.9952ZM14.1369 8.25231H11.1225C10.7866 8.25231 10.5081 7.9738 10.5081 7.63795C10.5081 7.3021 10.7866 7.02359 11.1225 7.02359H14.1369C14.4728 7.02359 14.7513 7.3021 14.7513 7.63795C14.7513 7.9738 14.481 8.25231 14.1369 8.25231Z" fill="#FF4F4F"/>
</svg>
