<svg width="99" height="105" viewBox="0 0 99 105" fill="none" xmlns="http://www.w3.org/2000/svg">
<g clip-path="url(#clip0_31349_30391)">
<path d="M84.6032 19.5154C84.2728 17.1002 82.9013 14.8274 80.5494 13.242C75.707 9.97833 68.5132 10.8474 64.5138 15.1793C60.5144 19.5113 47.2996 33.8259 47.2996 33.8259C46.9526 34.2018 46.647 34.5913 46.3711 34.9893L47.7122 44.7907C47.9882 44.3927 48.2937 44.0033 48.6408 43.6273L65.8549 24.9808C69.8543 20.6488 77.0482 19.7798 81.8905 23.0434C84.2425 24.6284 85.6136 26.9017 85.9444 29.3168L84.6032 19.5154Z" fill="black"/>
<path d="M47.7114 45.1615C47.6825 45.1615 47.6536 45.1581 47.6247 45.151C47.4766 45.1147 47.3655 44.9907 47.3447 44.8383L46.0036 35.0369C45.9906 34.9433 46.0132 34.8478 46.0673 34.7703C46.3736 34.3292 46.688 33.9356 47.0284 33.5668L64.2426 14.9203C68.3597 10.4595 75.7662 9.56497 80.7545 12.9267C83.1134 14.5166 84.6105 16.8367 84.9694 19.46L86.3106 29.2603V29.2618C86.3387 29.4667 86.1968 29.6557 85.9942 29.6838C85.7883 29.7123 85.6046 29.5685 85.5768 29.364C85.2472 26.956 83.8653 24.8206 81.6845 23.3509C76.9855 20.1838 70.0061 21.0286 66.1252 25.2321L48.9111 43.8786C48.5929 44.2231 48.2999 44.5904 48.0147 45.0019C47.9444 45.1034 47.8303 45.1615 47.7114 45.1615ZM46.7573 35.0814L47.9562 43.8434C48.0899 43.6798 48.2273 43.5218 48.3692 43.3679L65.5833 24.7213C69.7009 20.261 77.1081 19.366 82.0953 22.7278C83.3538 23.5763 84.3672 24.6322 85.0931 25.8315L84.2357 19.5626C83.9057 17.1542 82.5238 15.0191 80.3434 13.5494C75.6443 10.3824 68.6645 11.2267 64.7841 15.4306L47.5699 34.0772C47.284 34.3872 47.0169 34.7167 46.7573 35.0814Z" fill="#111111"/>
<path d="M88.5811 4.53893C98.7862 11.4171 100.23 24.4395 91.8016 33.5692L74.5874 52.2157C71.9644 55.057 68.6887 57.1906 65.1142 58.576C60.7393 60.27 55.9169 60.8403 51.289 60.2138C47.5493 59.7061 43.9388 58.4143 40.7984 56.2979C37.6583 54.1816 35.3519 51.4811 33.9012 48.4945C38.022 45.0893 44.4066 44.6194 48.8286 47.5996C53.2531 50.5817 59.6377 50.1121 63.7586 46.7065C64.1475 46.3845 64.5168 46.0382 64.8642 45.6622L82.0783 27.0157C86.0773 22.6837 85.3914 16.5035 80.549 13.2395C75.7067 9.97586 68.5128 10.8449 64.5134 15.1769L47.2993 33.8234C46.9522 34.1994 46.6467 34.5888 46.3707 34.9868C41.7428 34.36 36.9179 34.9288 32.543 36.6228C33.2874 33.3299 34.953 30.1112 37.5761 27.2699L54.7902 8.62337C63.2182 -0.505946 78.3786 -2.33772 88.5811 4.53893Z" fill="white"/>
<path d="M55.0044 60.8344C53.7466 60.8344 52.4884 60.7501 51.2391 60.5812C47.349 60.0529 43.6674 58.678 40.5925 56.6058C37.5165 54.5329 35.0876 51.7837 33.5679 48.656C33.492 48.4998 33.5323 48.3111 33.666 48.201C37.9502 44.6614 44.5567 44.2675 49.0335 47.2848C53.2521 50.1283 59.4811 49.7538 63.5235 46.4134C63.909 46.094 64.2691 45.754 64.5928 45.4035L81.8069 26.757C83.6755 24.7331 84.5459 22.2386 84.257 19.7324C83.9714 17.2529 82.5814 15.0564 80.3432 13.5478C75.6438 10.3807 68.6644 11.2251 64.7839 15.429L47.5697 34.0755C47.2512 34.4204 46.9582 34.7877 46.6734 35.1985C46.5938 35.313 46.4586 35.3718 46.3208 35.3546C41.7285 34.7327 37.0087 35.291 32.6745 36.9692C32.5464 37.019 32.4027 36.9924 32.2993 36.9022C32.196 36.8116 32.1508 36.6708 32.1812 36.536C32.9597 33.0922 34.7312 29.7986 37.3046 27.0109L54.5188 8.36433C63.0657 -0.893419 78.4376 -2.75141 88.7864 4.22373C93.7883 7.59522 96.8962 12.5188 97.5377 18.0875C98.1859 23.7132 96.2447 29.3006 92.072 33.8209L74.8578 52.4674C72.2907 55.248 68.9673 57.4801 65.2465 58.9221C61.9753 60.1888 58.4919 60.8344 55.0047 60.8344H55.0044ZM34.3661 48.5942C35.8353 51.4924 38.1247 54.0423 41.0033 55.9823C43.9852 57.992 47.5582 59.3254 51.3372 59.8387C55.9277 60.4603 60.6449 59.9013 64.9809 58.2226C68.5973 56.8211 71.8252 54.6546 74.3156 51.9567L91.5298 33.3101C95.5517 28.9535 97.424 23.578 96.8014 18.1744C96.1854 12.8277 93.1928 8.09473 88.3749 4.84718C78.315 -1.93325 63.3701 -0.126184 55.0603 8.87544L37.8461 27.522C35.532 30.0285 33.8901 32.9548 33.0705 36.0234C37.2661 34.5188 41.7844 34.0227 46.1971 34.5832C46.4612 34.217 46.7338 33.8823 47.0271 33.5648L64.2413 14.9182C68.3584 10.4575 75.7649 9.56292 80.7532 12.9247C83.1755 14.5573 84.6807 16.944 84.9918 19.6456C85.3063 22.3734 84.367 25.0802 82.3477 27.2674L65.1335 45.9139C64.7868 46.2887 64.4028 46.6519 63.9916 46.9923C59.7071 50.5327 53.1002 50.9258 48.6216 47.9071C44.4837 45.1182 38.4102 45.4271 34.3653 48.5938L34.3661 48.5942Z" fill="#111111"/>
<path d="M98.4651 27.5593L97.124 17.7578C97.8614 23.1479 96.1381 28.8743 91.8028 33.5702L74.5886 52.2167C71.9656 55.058 68.6899 57.1916 65.1154 58.577C60.7405 60.271 55.9181 60.8413 51.2902 60.2149C47.5505 59.7071 43.94 58.4153 40.7996 56.2989C37.6595 54.1826 35.3531 51.4821 33.9023 48.4955L35.2435 58.297C36.6943 61.2839 39.0006 63.984 42.1407 66.1004C45.2808 68.2167 48.8916 69.5086 52.6314 70.0163C57.2593 70.6431 62.0816 70.0725 66.4565 68.3785C70.0311 66.993 73.3067 64.8595 75.9297 62.0182L93.1439 43.3716C97.4792 38.6754 99.2026 32.9494 98.4651 27.5593Z" fill="black"/>
<path d="M56.3468 70.6405C55.089 70.6405 53.8308 70.5566 52.5815 70.3874C48.6911 69.859 45.0099 68.4841 41.935 66.4115C38.859 64.3382 36.43 61.5894 34.9103 58.4617C34.8929 58.4258 34.8814 58.3876 34.8759 58.3479L33.5347 48.5464C33.5099 48.3645 33.6196 48.1907 33.7929 48.1372C33.9688 48.0829 34.154 48.1653 34.2337 48.33C35.6959 51.3394 38.0371 53.9871 41.0042 55.987C43.9861 57.9967 47.5592 59.33 51.3382 59.8434C55.9283 60.4646 60.6462 59.9059 64.9819 58.2273C68.5983 56.8258 71.8261 54.6592 74.3166 51.9614L91.5307 33.3148C95.6571 28.8451 97.5123 23.3385 96.756 17.8091C96.7279 17.6043 96.8694 17.4152 97.0723 17.3867C97.2749 17.3568 97.4616 17.5017 97.4898 17.7065C97.4909 17.7125 97.4916 17.7181 97.4923 17.7241L98.8309 27.5079C99.6187 33.265 97.6949 38.9899 93.4137 43.6274L76.1996 62.2735C73.6325 65.0542 70.309 67.2862 66.5882 68.7282C63.317 69.9949 59.834 70.6405 56.3468 70.6405ZM35.6015 58.1854C37.0648 61.1727 39.396 63.8009 42.3457 65.7888C45.3273 67.7985 48.9007 69.1322 52.6797 69.6452C57.2705 70.2664 61.9877 69.7081 66.3234 68.0291C69.9398 66.6276 73.1676 64.4607 75.6581 61.7628L92.8722 43.1166C96.9986 38.6469 98.8539 33.1403 98.0975 27.6109L97.4605 22.9581C96.8779 26.8691 95.0423 30.6095 92.0726 33.8259L74.8584 52.4725C72.2913 55.2531 68.9679 57.4852 65.2471 58.9271C60.7951 60.6511 55.9513 61.224 51.24 60.5863C47.3499 60.058 43.6683 58.683 40.5934 56.6108C38.1049 54.9337 36.0396 52.814 34.537 50.4089L35.6011 58.1857L35.6015 58.1854Z" fill="#111111"/>
<path d="M33.9026 48.4926C33.5137 48.8146 33.1397 49.1613 32.7945 49.535L15.5784 68.1838C13.5221 70.4114 12.705 73.1268 13.055 75.6832L14.3962 85.4846C14.0462 82.9283 14.8632 80.2124 16.92 77.9849L34.136 59.3361C34.4812 58.9624 34.8553 58.6156 35.2442 58.2936L33.903 48.4922L33.9026 48.4926Z" fill="black"/>
<path d="M14.3929 85.8585C14.2107 85.8585 14.0522 85.7229 14.0266 85.5353L12.6855 75.7339C12.3036 72.9432 13.2336 70.1712 15.3048 67.9275L32.5208 49.2787C32.8578 48.9136 33.2427 48.5515 33.6649 48.2022C33.7686 48.1161 33.9097 48.0936 34.0349 48.143C34.1597 48.1924 34.2482 48.3063 34.2664 48.4403L35.6075 58.2418C35.6253 58.3709 35.5753 58.5001 35.4757 58.5829C35.0783 58.9124 34.7175 59.2516 34.4038 59.5913L17.1878 78.2401C15.2715 80.3156 14.4096 82.8701 14.76 85.4327C14.7881 85.6376 14.6466 85.8267 14.4437 85.8551C14.4266 85.8574 14.4092 85.8585 14.3925 85.8585H14.3929ZM33.6264 49.2263C33.4256 49.4128 33.2367 49.6011 33.063 49.7898L15.847 68.4386C13.9307 70.5142 13.0688 73.0686 13.4192 75.6313L14.2755 81.8875C14.6914 80.3961 15.4915 78.9803 16.6463 77.7293L33.8623 59.0805C34.1556 58.763 34.486 58.447 34.846 58.1388L33.6264 49.2263Z" fill="#111111"/>
<path d="M65.1143 58.5781C64.3698 61.871 62.7042 65.0897 60.0812 67.931L42.8652 86.5798C34.439 95.7068 19.2812 97.5401 9.07612 90.662C4.12118 87.3223 1.23147 82.5324 0.535156 77.4433L1.8763 87.2448C2.57262 92.3339 5.46232 97.1237 10.4173 100.463C20.6224 107.342 35.7802 105.508 44.2063 96.3812L61.4223 77.7324C64.0453 74.8911 65.7109 71.6724 66.4554 68.3796L65.1143 58.5781Z" fill="black"/>
<path d="M24.5964 104.998C19.5011 104.998 14.438 103.623 10.2112 100.774C5.33962 97.4911 2.24917 92.7042 1.50878 87.2954L0.168741 77.5022C0.168741 77.4995 0.168 77.4962 0.16763 77.4939C0.139481 77.2891 0.280966 77.1 0.483935 77.0716C0.687273 77.0431 0.873204 77.1865 0.901353 77.3913C1.61248 82.5849 4.58849 87.1868 9.2812 90.3497C19.3404 97.1294 34.2844 95.3238 42.5936 86.3237L59.8096 67.6749C62.2937 64.9841 64.003 61.8092 64.7526 58.4939C64.7923 58.3175 64.9478 58.1973 65.1301 58.2033C65.3086 58.2112 65.4564 58.3471 65.4805 58.5261L66.8216 68.3275C66.8279 68.3725 66.826 68.4182 66.8157 68.4623C66.0371 71.9065 64.2656 75.2001 61.6926 77.9874L44.4766 96.6362C39.4212 102.112 31.9762 104.999 24.5964 104.999V104.998ZM1.60211 82.5122L2.2425 87.1928C2.95363 92.3863 5.92963 96.9882 10.6223 100.151C20.6815 106.932 35.6256 105.125 43.9347 96.1251L61.1507 77.4763C63.6182 74.8035 65.3212 71.653 66.0786 68.3616L64.9904 60.4088C64.0686 63.2138 62.4856 65.8738 60.3518 68.1856L43.1358 86.8344C34.5896 96.0914 19.2192 97.9472 8.87045 90.9728C5.57296 88.7501 3.09104 85.8388 1.60248 82.5118L1.60211 82.5122Z" fill="#111111"/>
<path d="M56.8598 38.9044C59.9998 41.0207 62.3088 43.7227 63.7599 46.7097C59.6391 50.1148 53.2545 50.5848 48.8299 47.6027C44.4079 44.6221 38.0233 45.0921 33.9025 48.4976C33.5136 48.8196 33.1395 49.1664 32.7943 49.5401L15.5783 68.1889C11.5793 72.5208 12.2675 78.6988 17.1098 81.9628C21.9522 85.2264 29.1442 84.3596 33.1432 80.0277L50.3592 61.3789C50.7044 61.0052 51.0144 60.615 51.2903 60.217C55.9182 60.8438 60.7406 60.2731 65.1155 58.5791C64.3711 61.872 62.7055 65.0907 60.0824 67.932L42.8664 86.5808C34.4403 95.7079 19.2825 97.5411 9.07739 90.663C-1.1251 83.7863 -2.57107 70.7624 5.85508 61.635L23.0711 42.9862C25.6941 40.1449 28.9698 38.0113 32.5443 36.6259C36.9192 34.9319 41.7442 34.3631 46.3721 34.9899C50.1096 35.4999 53.7197 36.7876 56.8601 38.904L56.8598 38.9044Z" fill="white"/>
<path d="M23.255 95.1926C18.1596 95.1926 13.0965 93.8173 8.86976 90.9685C3.86815 87.5974 0.759919 82.6735 0.11842 77.1036C-0.529374 71.4783 1.41068 65.8916 5.5819 61.3736L22.7979 42.7248C25.3654 39.9442 28.6884 37.7121 32.4089 36.2701C36.8586 34.5473 41.7025 33.9748 46.4185 34.6125C50.3145 35.1442 53.995 36.5184 57.0629 38.5865C60.1407 40.6609 62.5704 43.4104 64.0897 46.5381C64.1657 46.6943 64.1253 46.883 63.9916 46.9931C59.7085 50.5327 53.1009 50.9266 48.6219 47.9075C44.4051 45.0655 38.1765 45.4399 34.1341 48.7807C33.7378 49.1087 33.3771 49.4483 33.0626 49.7887L15.8466 68.4375C13.9788 70.4606 13.1088 72.9544 13.3973 75.4591C13.6828 77.9386 15.0733 80.1351 17.3126 81.6445C22.0112 84.8115 28.9895 83.9687 32.8696 79.7655L50.0857 61.1167C50.4086 60.767 50.7109 60.3899 50.9842 59.9953C51.0638 59.8807 51.1968 59.8208 51.3368 59.8391C55.9269 60.4607 60.6445 59.902 64.9805 58.223C65.1086 58.1736 65.2527 58.1994 65.3557 58.2901C65.459 58.3807 65.5042 58.5215 65.4738 58.6563C64.6953 62.1004 62.9238 65.394 60.3507 68.1814L43.1347 86.8302C38.0794 92.306 30.6344 95.1922 23.255 95.1926ZM42.6481 35.1082C39.2506 35.1082 35.859 35.7366 32.6741 36.97C29.0581 38.3715 25.8302 40.5381 23.3398 43.2359L6.12376 61.8847C2.10329 66.2395 0.232127 71.6135 0.854365 77.0171C1.47031 82.3649 4.46261 87.0983 9.28051 90.3454C19.3397 97.1251 34.2838 95.3199 42.5929 86.3194L59.8089 67.6706C62.1226 65.1645 63.7645 62.2382 64.5842 59.1693C60.3878 60.6749 55.8706 61.1725 51.4598 60.6109C51.202 60.967 50.9227 61.3081 50.6275 61.6279L33.4115 80.2766C29.2947 84.7355 21.889 85.6293 16.9018 82.2676C14.4788 80.6346 12.9732 78.2472 12.6617 75.5459C12.3476 72.8192 13.2865 70.1135 15.3051 67.9267L32.5211 49.2779C32.8582 48.9129 33.243 48.5508 33.6652 48.2014C37.949 44.6611 44.5555 44.2671 49.033 47.2848C53.172 50.0748 59.2463 49.7662 63.2916 46.5996C61.8226 43.7014 59.5326 41.1506 56.6521 39.2095C53.6772 37.2044 50.1042 35.8714 46.32 35.355C45.1022 35.1903 43.874 35.1082 42.6481 35.1082Z" fill="#111111"/>
</g>
<defs>
<clipPath id="clip0_31349_30391">
<rect width="99" height="105" fill="white"/>
</clipPath>
</defs>
</svg>
