<svg width="130" height="113" viewBox="0 0 130 113" fill="none" xmlns="http://www.w3.org/2000/svg">
<g clip-path="url(#clip0_31349_30357)">
<path d="M129.499 28.6462C128.653 21.6379 126.24 16.4566 122.36 15.7033L42.8164 0.257812C48.4104 1.17096 50.3971 11.9152 50.2952 18.8437C50.2215 26.9908 48.9138 34.557 44.9865 39.1363L124.53 54.5817C129.437 48.9252 130.466 37.5053 129.499 28.6462Z" fill="black"/>
<path d="M124.53 54.7452C124.52 54.7452 124.509 54.7442 124.499 54.7421L44.9554 39.2967C44.898 39.2856 44.8508 39.245 44.8315 39.19C44.8123 39.1352 44.8238 39.0742 44.8618 39.0298C48.273 35.0523 50.0459 28.2602 50.1311 18.8421C50.2273 12.3063 48.3841 1.67564 43.0579 0.471035L42.7854 0.418177C42.6972 0.401158 42.639 0.316716 42.655 0.228674C42.6709 0.140468 42.7546 0.0813909 42.8435 0.0959555C42.9365 0.111338 43.0293 0.129176 43.1212 0.149959L122.392 15.5425C126.096 16.2617 128.746 21.0304 129.663 28.6264C129.663 28.6271 129.663 28.6277 129.663 28.6282C130.57 36.9407 129.803 48.7534 124.655 54.6884C124.623 54.7249 124.578 54.7452 124.53 54.7452ZM45.2915 39.0287L124.468 54.4027C129.491 48.524 130.233 36.8782 129.336 28.6649C128.437 21.2199 125.883 16.5538 122.329 15.8637L44.6503 0.780329C46.3832 1.84764 47.8144 4.04035 48.8486 7.24473C49.9156 10.5516 50.5181 14.8884 50.4599 18.846C50.3742 28.3104 48.6831 34.9175 45.2915 39.0287Z" fill="#111111"/>
<path d="M42.8198 0.261112C41.6401 0.0320056 40.3283 0.202035 38.887 0.840587C38.0265 1.22172 37.1185 1.77125 36.1662 2.50128C30.5331 6.81797 25.7351 13.1922 21.6797 20.493C15.169 32.2147 10.5727 46.3246 7.50853 58.1406C2.13264 78.8754 0.191775 97.2078 0.171875 97.3914L79.7158 112.837C79.7357 112.653 81.6765 94.3209 87.0524 73.5859C90.1164 61.7699 94.7127 47.6601 101.224 35.9385C105.279 28.6377 110.077 22.2633 115.71 17.9468C116.662 17.2168 117.57 16.6673 118.431 16.2861C119.872 15.6476 121.184 15.4775 122.364 15.7066L42.8198 0.261112Z" fill="white"/>
<path d="M79.7078 112.999C79.6987 112.999 79.6898 112.998 79.681 112.996L0.136911 97.5511C0.0530336 97.5347 -0.00420049 97.4575 0.00484513 97.3729C0.0875714 96.6018 2.07152 78.4418 7.34578 58.0988C11.2658 42.9824 16.0389 30.303 21.5326 20.4131C25.9654 12.4322 30.854 6.36203 36.0625 2.37083C37.0067 1.64685 37.9335 1.08145 38.8166 0.69017C40.247 0.0563637 41.6035 -0.141977 42.848 0.0995666L122.392 15.5451C122.481 15.5623 122.539 15.6484 122.522 15.7371C122.504 15.8258 122.417 15.8834 122.329 15.8663C121.151 15.6379 119.861 15.829 118.494 16.4347C117.634 16.8158 116.73 17.3678 115.807 18.0756C110.635 22.0393 105.775 28.0754 101.364 36.0169C95.884 45.8835 91.1212 58.5371 87.2086 73.626C81.9402 93.9456 79.9587 112.083 79.877 112.845C79.8721 112.891 79.8477 112.936 79.8107 112.963C79.7806 112.985 79.7443 112.999 79.7078 112.999ZM0.34825 97.2587L79.5685 112.641C79.7972 110.578 81.8284 93.0662 86.89 73.5442C90.8097 58.4286 95.5827 45.7492 101.077 35.8587C105.51 27.8777 110.398 21.8076 115.607 17.8164C116.55 17.0927 117.477 16.5273 118.361 16.1357C119.088 15.8135 119.796 15.6038 120.48 15.5071L42.785 0.420806C41.6083 0.192518 40.3177 0.383495 38.9505 0.989154C38.091 1.36996 37.1869 1.92211 36.2633 2.63005C31.0909 6.59391 26.2315 12.63 21.8206 20.5714C16.3404 30.4373 11.5776 43.0909 7.66468 58.1806C2.57841 77.7976 0.555641 95.3797 0.34825 97.2587Z" fill="#111111"/>
<path d="M49.786 35.5699C41.0957 33.8824 32.4068 32.1952 23.7164 30.5078C23.1451 31.7913 22.5924 33.088 22.0586 34.3928L48.1282 39.4549C48.6621 38.15 49.2147 36.8534 49.786 35.5699Z" fill="black"/>
<path d="M48.1286 39.6184C48.1183 39.6184 48.1078 39.6174 48.0972 39.6153L22.0274 34.5532C21.9791 34.5437 21.9376 34.5134 21.9143 34.4704C21.8909 34.4273 21.8881 34.3761 21.9067 34.3308C22.4493 33.0051 23.0076 31.6964 23.5667 30.441C23.5976 30.3715 23.6729 30.3322 23.7484 30.3468L49.8182 35.409C49.8674 35.4187 49.9095 35.4498 49.9325 35.4941C49.9557 35.5383 49.9572 35.5905 49.9369 35.636C49.3797 36.8874 48.8227 38.193 48.2809 39.5163C48.2553 39.5789 48.1944 39.6184 48.1286 39.6184ZM22.2868 34.2704L48.0275 39.2685C48.5271 38.051 49.0396 36.849 49.5529 35.6913L23.8142 30.6935C23.3002 31.8507 22.7871 33.0525 22.2868 34.2704Z" fill="#111111"/>
<path d="M90.3572 43.4493L80.8414 41.6016C80.2701 42.885 79.7174 44.1818 79.1836 45.4866L88.6994 47.3343C89.2333 46.0294 89.7857 44.7328 90.3572 43.4493Z" fill="black"/>
<path d="M88.6995 47.4979C88.6891 47.4979 88.6786 47.4969 88.6681 47.4948L79.1524 45.6471C79.1041 45.6376 79.0626 45.6073 79.0393 45.5643C79.0159 45.5212 79.0131 45.47 79.0317 45.4247C79.5726 44.1024 80.1312 42.7937 80.6915 41.5349C80.7224 41.4652 80.7977 41.4256 80.8732 41.4407L90.3891 43.2884C90.4382 43.2981 90.4803 43.3292 90.5034 43.3735C90.5266 43.4177 90.528 43.4699 90.5078 43.5154C89.9495 44.7694 89.3924 46.0752 88.8518 47.3958C88.8261 47.4585 88.7653 47.4979 88.6995 47.4979ZM79.4116 45.3641L88.5982 47.1479C89.0969 45.9321 89.6093 44.7305 90.1236 43.5705L80.9387 41.7873C80.4238 42.9475 79.9105 44.1492 79.4116 45.3641Z" fill="#111111"/>
<path d="M37.8645 45.5043C31.6472 44.2971 25.4309 43.09 19.2135 41.8828C18.7484 43.2007 18.301 44.5172 17.8711 45.8275L36.5222 49.449C36.9521 48.1387 37.3994 46.8222 37.8645 45.5043Z" fill="black"/>
<path d="M36.5226 49.6123C36.5122 49.6123 36.5016 49.6113 36.491 49.6092L17.8401 45.9877C17.7939 45.9787 17.7538 45.9503 17.7298 45.9099C17.7057 45.8695 17.7005 45.8207 17.7153 45.7762C18.1533 44.4412 18.6054 43.1129 19.0588 41.8282C19.0858 41.7513 19.1649 41.7061 19.2455 41.7219L37.8964 45.3434C37.9433 45.3525 37.9839 45.3813 38.0077 45.4226C38.0314 45.4638 38.036 45.5134 38.0201 45.5581C37.5675 46.8404 37.1163 48.1665 36.6789 49.4994C36.6563 49.5676 36.5925 49.6123 36.5226 49.6123ZM18.0855 45.7019L36.4113 49.2603C36.8149 48.0332 37.23 46.8129 37.6467 45.6283L19.322 42.0703C18.905 43.2544 18.4896 44.4746 18.0855 45.7019Z" fill="#111111"/>
<path d="M85.8582 54.8165C83.4759 54.3539 80.2997 53.7372 77.9175 53.2746C77.4449 53.1828 76.8149 53.0606 76.3424 52.9688C75.8773 54.2866 75.4299 55.6031 75 56.9135L84.5158 58.7612C84.9459 57.4509 85.3931 56.1343 85.8582 54.8165Z" fill="black"/>
<path d="M84.5164 58.9244C84.5061 58.9244 84.4954 58.9234 84.4849 58.9213L74.969 57.0735C74.9228 57.0645 74.8827 57.0362 74.8587 56.9958C74.8347 56.9554 74.8294 56.9066 74.8442 56.8621C75.2822 55.5271 75.7343 54.1987 76.1877 52.9141C76.2147 52.8372 76.294 52.7922 76.3744 52.8077L85.8902 54.6555C85.9371 54.6646 85.9777 54.6935 86.0016 54.7347C86.0252 54.7759 86.0298 54.8255 86.0139 54.8702C85.5613 56.1525 85.11 57.4786 84.6727 58.8115C84.6501 58.8797 84.5862 58.9244 84.5164 58.9244ZM75.2144 56.7878L84.4051 58.5724C84.8087 57.3454 85.2238 56.125 85.6406 54.9404L76.4509 53.1561C76.0338 54.3403 75.6185 55.5605 75.2144 56.7878Z" fill="#111111"/>
<path d="M58.1714 14.843L35.6438 10.4688C34.8391 11.4336 34.0556 12.4405 33.293 13.4843C40.8025 14.9424 48.3108 16.4005 55.8205 17.8586C56.5831 16.8148 57.3666 15.8079 58.1714 14.843Z" fill="black"/>
<path d="M55.8208 18.0297C55.8104 18.0297 55.7997 18.0287 55.7894 18.0266L33.2618 13.6524C33.2066 13.6418 33.1609 13.6037 33.1403 13.5518C33.1198 13.4997 33.1273 13.4408 33.1604 13.3957C33.9312 12.3408 34.7243 11.3234 35.5177 10.3718C35.556 10.3256 35.6167 10.3039 35.6757 10.3157L58.2033 14.6898C58.2603 14.7008 58.3072 14.7408 58.3266 14.7955C58.3462 14.8498 58.3355 14.9105 58.2983 14.9551C57.5094 15.9011 56.7206 16.9129 55.9539 17.9622C55.9224 18.0051 55.8728 18.0297 55.8208 18.0297ZM33.5788 13.3804L55.7496 17.6855C56.4438 16.7387 57.1556 15.8229 57.8691 14.9585L35.7086 10.6557C34.9925 11.5175 34.2771 12.4328 33.5788 13.3804Z" fill="#111111"/>
<path d="M102.285 23.4102L92.7688 21.5625C91.9641 22.5274 91.1806 23.5343 90.418 24.578L99.9338 26.4258C100.696 25.382 101.48 24.3751 102.285 23.4102Z" fill="black"/>
<path d="M99.9339 26.5894C99.9236 26.5894 99.9129 26.5885 99.9025 26.5863L90.3869 24.7388C90.3318 24.7281 90.2859 24.69 90.2653 24.6381C90.2448 24.5861 90.2523 24.5272 90.2854 24.482C91.0569 23.4258 91.8501 22.4084 92.6427 21.4579C92.681 21.412 92.7415 21.3894 92.8007 21.4018L102.316 23.2496C102.373 23.2605 102.42 23.3006 102.44 23.3553C102.459 23.4096 102.449 23.4703 102.411 23.5148C101.624 24.4594 100.835 25.4712 100.067 26.522C100.036 26.5649 99.9861 26.5894 99.9339 26.5894ZM90.7034 24.4668L99.8625 26.2451C100.558 25.297 101.269 24.3812 101.982 23.5181L92.8334 21.7419C92.118 22.6027 91.4026 23.5181 90.7034 24.4668Z" fill="#111111"/>
<path d="M42.912 22.473C38.3311 21.5835 33.7511 20.6941 29.1704 19.8047C28.4869 20.9687 27.8234 22.1601 27.1797 23.374C31.7604 24.2634 36.3406 25.1528 40.9213 26.0423C41.565 24.8285 42.2285 23.637 42.912 22.473Z" fill="black"/>
<path d="M40.9219 26.2057C40.9115 26.2057 40.901 26.2048 40.8905 26.2026L27.1487 23.5344C27.0975 23.5244 27.0543 23.491 27.0318 23.4443C27.0092 23.3977 27.0104 23.3432 27.0347 23.2974C27.6883 22.0655 28.3593 20.8625 29.029 19.7219C29.0644 19.6618 29.1343 19.6301 29.2025 19.6438L42.9441 22.3121C42.9964 22.3222 43.0405 22.3569 43.0626 22.4052C43.0846 22.4535 43.0816 22.5094 43.0547 22.5553C42.3853 23.6954 41.7166 24.8941 41.0676 26.1182C41.0385 26.1728 40.9821 26.2057 40.9219 26.2057ZM27.4293 23.2555L40.8336 25.8581C41.4293 24.7381 42.0407 23.6401 42.6539 22.5893L29.254 19.9875C28.6415 21.0338 28.0286 22.1317 27.4293 23.2555Z" fill="#111111"/>
<path d="M95.8112 32.7384L86.2954 30.8906C85.6119 32.0546 84.9484 33.246 84.3047 34.4599L93.8205 36.3077C94.4644 35.0939 95.1279 33.9024 95.8112 32.7384Z" fill="black"/>
<path d="M93.8208 36.471C93.8104 36.471 93.7999 36.47 93.7894 36.4679L84.2737 34.6201C84.2225 34.6101 84.1793 34.5768 84.1568 34.5301C84.1342 34.4835 84.1354 34.429 84.1597 34.3832C84.8112 33.155 85.482 31.9522 86.1539 30.8076C86.1892 30.7476 86.2591 30.7163 86.3274 30.7296L95.8432 32.5773C95.8955 32.5875 95.9396 32.6222 95.9616 32.6704C95.9837 32.7187 95.9805 32.7747 95.9537 32.8205C95.2847 33.9598 94.616 35.1585 93.9665 36.3834C93.9374 36.4381 93.8811 36.471 93.8208 36.471ZM84.5541 34.3411L93.7326 36.1234C94.3286 35.0027 94.9403 33.9047 95.5531 32.8545L86.379 31.0731C85.7647 32.1225 85.1516 33.2205 84.5541 34.3411Z" fill="#111111"/>
<path d="M39.5105 57.8287C31.5424 56.2816 23.5759 54.7346 15.6078 53.1875C15.2431 54.454 14.8947 55.7047 14.5625 56.9349L38.4651 61.5762C38.7974 60.3459 39.1457 59.0952 39.5105 57.8287Z" fill="black"/>
<path d="M38.4657 61.7395C38.4554 61.7395 38.4447 61.7385 38.4342 61.7364L14.5314 57.095C14.4866 57.0863 14.4475 57.0595 14.4233 57.021C14.3993 56.9826 14.3922 56.9358 14.4041 56.8919C14.7432 55.6358 15.0951 54.3742 15.4501 53.1421C15.4734 53.0604 15.5561 53.01 15.6395 53.0266L39.5422 57.6678C39.5874 57.6766 39.6269 57.7039 39.6509 57.7429C39.6749 57.782 39.6815 57.8293 39.6686 57.8735C39.3134 59.1072 38.9619 60.3671 38.6241 61.6184C38.6047 61.6909 38.5386 61.7395 38.4657 61.7395ZM14.7675 56.8075L38.3465 61.3862C38.6568 60.2398 38.9784 59.0871 39.3032 57.955L15.7247 53.3766C15.4002 54.5055 15.0787 55.6582 14.7675 56.8075Z" fill="#111111"/>
<path d="M82.2487 66.129L72.7328 64.2812C72.3681 65.5477 72.0197 66.7985 71.6875 68.0286L81.2033 69.8764C81.515 68.7516 81.9276 67.2511 82.2487 66.129Z" fill="black"/>
<path d="M81.2075 70.0395C81.1971 70.0395 81.1864 70.0385 81.1759 70.0364L71.6603 68.1886C71.6155 68.1799 71.5764 68.1531 71.5522 68.1146C71.5282 68.0762 71.5211 68.0294 71.533 67.9855C71.8716 66.7318 72.2234 65.4703 72.579 64.2357C72.6025 64.1542 72.6847 64.1041 72.7684 64.1202L82.2843 65.9679C82.3293 65.9768 82.369 66.0039 82.393 66.0429C82.417 66.082 82.4236 66.1293 82.4109 66.1733C82.1509 67.0819 81.8331 68.2303 81.5529 69.2436L81.3657 69.9193C81.346 69.9914 81.28 70.0395 81.2075 70.0395ZM71.8961 67.9011L81.0891 69.6862L81.2356 69.1569C81.4989 68.2056 81.7948 67.1352 82.0456 66.2553L72.8533 64.4704C72.5285 65.6012 72.2069 66.7539 71.8961 67.9011Z" fill="#111111"/>
<path d="M106.22 19.8785C106.21 19.8785 106.199 19.8776 106.189 19.8754L38.6604 6.79329C38.5712 6.77611 38.513 6.69003 38.5304 6.60133C38.5479 6.51263 38.6342 6.45388 38.7233 6.47205L106.252 19.5542C106.341 19.5714 106.399 19.6574 106.382 19.7461C106.366 19.8244 106.297 19.8785 106.22 19.8785Z" fill="#111111"/>
<path d="M77.7015 87.188C77.6913 87.188 77.6813 87.187 77.6709 87.185L9.96614 74.504C9.87683 74.4873 9.81812 74.4017 9.83489 74.313C9.85167 74.2242 9.93801 74.1661 10.0268 74.1824L77.7316 86.8635C77.8209 86.8802 77.8797 86.9658 77.8629 87.0545C77.8482 87.1332 77.7792 87.188 77.7015 87.188Z" fill="#111111"/>
<path d="M58.4999 94.999C58.4896 94.999 58.4789 94.998 58.4683 94.9958L25.2033 88.5509C25.1142 88.5337 25.056 88.4477 25.0734 88.359C25.0905 88.2701 25.1773 88.2122 25.2663 88.2297L58.5313 94.6748C58.6205 94.692 58.6787 94.778 58.6613 94.8667C58.646 94.9448 58.5771 94.999 58.4999 94.999Z" fill="#111111"/>
<path d="M63.5756 104.318C63.5654 104.318 63.5549 104.317 63.5445 104.315L17.5788 95.5353C17.4897 95.5183 17.4313 95.4323 17.4482 95.3436C17.4653 95.2551 17.552 95.1973 17.6408 95.2137L63.6065 103.994C63.6957 104.011 63.7541 104.096 63.7371 104.185C63.7218 104.264 63.6528 104.318 63.5756 104.318Z" fill="#111111"/>
</g>
<defs>
<clipPath id="clip0_31349_30357">
<rect width="130" height="113" fill="white"/>
</clipPath>
</defs>
</svg>
