<svg width="119" height="104" viewBox="0 0 119 104" fill="none" xmlns="http://www.w3.org/2000/svg">
<path d="M117.846 82.07L112.425 63.3577L102.035 27.4928C101.269 24.8486 99.24 22.5901 96.6993 21.5637L45.0862 0.730325C43.808 0.214542 42.4994 0.0507962 41.2889 0.221035C40.078 0.391273 38.965 0.895654 38.0773 1.71612L2.09657 34.8702C0.332903 36.5019 -0.286897 39.1331 0.479111 41.7773L16.2893 96.3545C17.4767 100.453 21.5662 103.329 25.4184 102.787L113.012 90.4671C116.872 89.9242 119.033 86.169 117.846 82.07Z" fill="#090909"/>
<path d="M24.4803 103.013C20.8572 103.013 17.2446 100.224 16.1371 96.4003L0.326903 41.8231C-0.452238 39.1332 0.184651 36.425 1.98899 34.7556L37.97 1.60138C38.8645 0.774575 40.0046 0.24359 41.2666 0.0660664C42.5241 -0.110665 43.8653 0.0687586 45.1453 0.585333L96.7583 21.4189C99.3301 22.4576 101.41 24.7689 102.187 27.4507L117.997 82.0279C118.612 84.1509 118.356 86.3106 117.293 87.9535C116.342 89.4242 114.829 90.3732 113.034 90.6258L25.4401 102.946C25.1221 102.991 24.8014 103.013 24.4803 103.013V103.013ZM42.2227 0.316752C41.9149 0.316752 41.6103 0.337656 41.3106 0.37978C40.1127 0.548277 39.0316 1.05123 38.1844 1.83449L2.20355 34.9884C0.487985 36.5756 -0.114726 39.1609 0.63087 41.7349L16.4411 96.3121C17.6044 100.328 21.6209 103.163 25.3961 102.632L112.99 90.3119C114.693 90.0723 116.127 89.1736 117.028 87.7812C118.04 86.2156 118.283 84.1507 117.693 82.1159L101.883 27.5388C101.133 24.9483 99.1236 22.7157 96.64 21.7125L45.0269 0.878935C44.1044 0.506628 43.1501 0.316594 42.2227 0.316594V0.316752Z" fill="#111111"/>
<path d="M74.255 0.25L51.7363 3.41739L33.4394 5.99092L10.9219 9.15814L23.0055 50.8707L56.195 64.2646C57.4699 64.7808 58.7764 64.9447 59.9875 64.7745C61.1982 64.6043 62.3131 64.0997 63.2041 63.2788L86.3378 41.9603L74.255 0.25Z" fill="white"/>
<path d="M59.0566 64.9996C58.089 64.9996 57.0958 64.8016 56.1378 64.4135L22.9484 51.0197C22.9261 51.0108 22.9062 50.9969 22.8902 50.979C22.8741 50.9612 22.8623 50.94 22.8556 50.917L10.772 9.20425C10.7656 9.18245 10.764 9.15952 10.7673 9.13705C10.7705 9.11457 10.7786 9.09306 10.791 9.07399C10.8033 9.05492 10.8196 9.03873 10.8387 9.02653C10.8579 9.01433 10.8794 9.0064 10.9019 9.00329L74.235 0.0952985C74.2727 0.0899818 74.3111 0.0984573 74.3431 0.119169C74.375 0.139881 74.3985 0.17144 74.4091 0.208052L86.4919 41.9182C86.5085 41.9759 86.4913 42.0381 86.4471 42.0788L63.3133 63.3974C62.4153 64.2249 61.2735 64.756 60.0116 64.9334C59.6952 64.9776 59.3761 64.9997 59.0566 64.9994V64.9996ZM23.1381 50.7548L56.2562 64.1199C57.4817 64.6162 58.765 64.7889 59.9674 64.6198C61.1654 64.4513 62.2482 63.948 63.0988 63.1645L86.1606 41.9124L74.1432 0.428174L11.1269 9.29166L23.1382 50.7548H23.1381Z" fill="#111111"/>
<path d="M102.037 27.4923L63.2064 63.276C62.3154 64.0969 61.2005 64.6015 59.9899 64.7717C58.7789 64.9421 57.4722 64.7781 56.1975 64.2618L0.480469 41.7767L16.2907 96.3539C17.4781 100.453 21.5676 103.329 25.4198 102.787L113.014 90.4663C116.873 89.9235 119.034 86.1684 117.847 82.0694L102.037 27.4923Z" fill="white"/>
<path d="M24.48 103.012C20.857 103.012 17.2443 100.223 16.1367 96.4L0.326484 41.8228C0.318288 41.7943 0.318255 41.764 0.326387 41.7355C0.334519 41.707 0.35049 41.6813 0.372483 41.6614C0.394476 41.6415 0.421608 41.6282 0.450793 41.623C0.479977 41.6177 0.510042 41.6208 0.537567 41.6318L56.2547 64.1169C57.4803 64.6132 58.7635 64.786 59.9659 64.6169C61.1639 64.4484 62.2469 63.9451 63.0974 63.1614L101.928 27.3777C101.948 27.3595 101.972 27.3466 101.998 27.3403C102.024 27.334 102.051 27.3345 102.077 27.3418C102.103 27.349 102.127 27.3628 102.146 27.3817C102.165 27.4007 102.179 27.4242 102.187 27.4501L117.997 82.0273C118.612 84.1503 118.355 86.31 117.293 87.9527C116.342 89.4235 114.829 90.3724 113.034 90.625L25.4399 102.946C25.1219 102.99 24.8011 103.013 24.48 103.012ZM0.72096 42.0474L16.4407 96.3118C17.6042 100.328 21.6211 103.164 25.3957 102.632L112.99 90.3116C114.693 90.072 116.126 89.1733 117.027 87.7809C118.04 86.2153 118.282 84.1504 117.693 82.1156L101.954 27.7842L63.3116 63.3946C62.4137 64.2221 61.2718 64.7532 60.0099 64.9307C58.7524 65.1076 57.4128 64.9279 56.1362 64.4108L0.72096 42.0474Z" fill="#111111"/>
<path d="M57.7166 10.7031L31.9883 14.322L33.2932 18.8267L59.0215 15.208L57.7166 10.7031Z" fill="white"/>
<path d="M33.2905 18.9795C33.2563 18.9795 33.223 18.9683 33.1956 18.9477C33.1683 18.9271 33.1483 18.8981 33.1388 18.8652L31.8337 14.3605C31.8273 14.3387 31.8257 14.3157 31.829 14.2933C31.8322 14.2708 31.8403 14.2493 31.8526 14.2302C31.865 14.2111 31.8813 14.1949 31.9004 14.1827C31.9196 14.1705 31.9411 14.1626 31.9636 14.1595L57.692 10.5406C57.7298 10.5353 57.7681 10.5437 57.8001 10.5645C57.8321 10.5852 57.8555 10.6168 57.8661 10.6534L59.171 15.1583C59.1774 15.1801 59.179 15.203 59.1758 15.2255C59.1725 15.248 59.1644 15.2695 59.1521 15.2885C59.1398 15.3076 59.1235 15.3238 59.1043 15.336C59.0852 15.3482 59.0636 15.3561 59.0411 15.3592L33.3128 18.978C33.3055 18.979 33.298 18.9796 33.2905 18.9795ZM32.1884 14.4477L33.4045 18.6452L58.8161 15.071L57.6001 10.8735L32.1884 14.4477ZM21.9762 26.5125C21.9365 26.5119 21.8985 26.4964 21.8697 26.469C21.8409 26.4417 21.8234 26.4046 21.8207 26.3649C21.8179 26.3253 21.8302 26.2861 21.8549 26.2551C21.8797 26.224 21.9152 26.2034 21.9544 26.1973L73.6189 18.9305C73.6395 18.9275 73.6604 18.9286 73.6806 18.9338C73.7007 18.9389 73.7197 18.948 73.7363 18.9606C73.7529 18.9731 73.7668 18.9888 73.7774 19.0068C73.7879 19.0247 73.7947 19.0446 73.7975 19.0652C73.8004 19.0858 73.7992 19.1068 73.794 19.1269C73.7888 19.147 73.7797 19.1659 73.7672 19.1826C73.7547 19.1992 73.7391 19.2131 73.7212 19.2237C73.7032 19.2342 73.6834 19.2411 73.6629 19.244L21.9984 26.5109C21.991 26.512 21.9835 26.5125 21.9761 26.5125H21.9762ZM24.9777 36.8741C24.9381 36.8734 24.9001 36.8579 24.8713 36.8306C24.8425 36.8033 24.825 36.7662 24.8222 36.7265C24.8195 36.6869 24.8317 36.6477 24.8564 36.6167C24.8812 36.5856 24.9167 36.565 24.9559 36.5589L76.6204 29.292C76.641 29.2891 76.6619 29.2903 76.682 29.2956C76.7021 29.3008 76.721 29.3099 76.7376 29.3224C76.7542 29.3349 76.7682 29.3506 76.7787 29.3685C76.7892 29.3864 76.7962 29.4062 76.799 29.4268C76.8019 29.4474 76.8007 29.4683 76.7955 29.4885C76.7903 29.5086 76.7812 29.5275 76.7687 29.5441C76.7562 29.5607 76.7406 29.5747 76.7227 29.5852C76.7048 29.5958 76.685 29.6027 76.6644 29.6056L24.9999 36.8725C24.9925 36.8736 24.9851 36.8741 24.9776 36.8741H24.9777ZM27.9794 47.2355C27.9398 47.2349 27.9018 47.2194 27.873 47.192C27.8442 47.1647 27.8267 47.1276 27.8239 47.088C27.8212 47.0483 27.8334 47.0091 27.8581 46.9781C27.8829 46.9471 27.9184 46.9265 27.9576 46.9204L79.6221 39.6535C79.6636 39.6476 79.7058 39.6585 79.7393 39.6838C79.7728 39.7091 79.7949 39.7467 79.8007 39.7882C79.8066 39.8298 79.7957 39.872 79.7704 39.9055C79.7452 39.9391 79.7076 39.9612 79.6661 39.967L28.0016 47.2339C27.9942 47.235 27.9867 47.2355 27.9793 47.2355H27.9794Z" fill="#111111"/>
</svg>
