<svg width="24" height="24" viewBox="0 0 24 24" fill="none" xmlns="http://www.w3.org/2000/svg">
<path d="M12 22C17.52 22 22 17.52 22 12C22 6.48 17.52 2 12 2C6.48 2 2 6.48 2 12C2 17.52 6.48 22 12 22ZM8.5 11.25L13.69 11.25L11.97 9.53C11.68 9.24 11.68 8.76 11.97 8.47C12.12 8.32 12.31 8.25 12.5 8.25C12.69 8.25 12.88 8.32 13.03 8.47L16.03 11.47C16.32 11.76 16.32 12.24 16.03 12.53L13.03 15.53C12.74 15.82 12.26 15.82 11.97 15.53C11.68 15.24 11.68 14.76 11.97 14.47L13.69 12.75L8.5 12.75C8.09 12.75 7.75 12.41 7.75 12C7.75 11.59 8.09 11.25 8.5 11.25Z" fill="#FF9292"/>
</svg>
