<svg width="52" height="52" viewBox="0 0 52 52" fill="none" xmlns="http://www.w3.org/2000/svg">
<path d="M9.37747 8.76123C10.2681 10.2794 10.511 11.838 10.511 16.352V20.4814L8.30463 20.4005C6.48284 20.36 6.01727 20.279 5.67315 19.9551C5.43024 19.7325 5.18734 19.611 5.12661 19.692C4.88371 19.9349 5.28855 21.8782 5.73388 22.5057C6.52332 23.6999 7.35325 24.0845 9.01311 24.0845H10.511V25.9063V27.7281H8.62851C7.15083 27.7281 6.58405 27.6472 5.95654 27.3233C5.51121 27.1006 5.12661 26.9185 5.08613 26.9185C4.90395 26.9185 5.28855 28.8819 5.59218 29.5094C5.77436 29.8738 6.21969 30.4203 6.60429 30.7037C7.19131 31.1491 7.57591 31.2503 8.9119 31.3312L10.511 31.4325V35.3999C10.511 39.9139 10.3288 41.3309 9.49892 42.849L8.93214 43.9219H16.6849C26.6036 43.9219 28.729 43.6385 32.4738 41.8167C36.3603 39.9139 38.8501 36.9788 40.267 32.728L40.7123 31.3312L43.2021 31.4122C45.3073 31.4527 45.7526 31.5337 46.117 31.8575C46.3599 32.0802 46.6028 32.1814 46.6635 32.1207C46.8862 31.898 46.3599 29.6916 45.9753 29.1451C45.1859 28.0925 44.3762 27.7281 42.777 27.7281H41.2791V25.9063V24.0845H43.1616C44.6393 24.0845 45.2061 24.1655 45.8336 24.4894C46.2789 24.7121 46.6635 24.8942 46.704 24.8942C46.9065 24.8942 46.4611 22.9105 46.117 22.2425C45.4693 20.947 44.7203 20.5827 42.5341 20.4612L40.6314 20.3397L40.267 19.2264C38.6476 14.1861 34.8826 10.5223 29.6601 8.92316C26.7452 8.03251 25.0449 7.89081 16.7254 7.89081H8.87141L9.37747 8.76123ZM26.2999 10.2187C29.4172 11.2105 31.7046 13.0931 33.0203 15.7853C33.7086 17.2022 34.3968 19.3479 34.3968 20.1171C34.3968 20.4005 33.5061 20.441 25.1866 20.441H15.9764V15.0565V9.67212L20.5916 9.75309C24.215 9.83406 25.4295 9.93527 26.2999 10.2187ZM34.9231 24.9954C34.9838 25.5015 34.9838 26.3112 34.9231 26.8172L34.7814 27.7281H25.3688H15.9764V25.9063V24.0845H25.3688H34.7814L34.9231 24.9954ZM34.3968 31.7563C34.3968 32.5458 33.3847 35.3392 32.6357 36.6145C31.7451 38.0921 29.9233 39.8734 28.567 40.5617C26.219 41.756 25.0854 41.9584 20.3892 42.0596L15.9764 42.1406V36.7561V31.3717H25.1866C34.1741 31.3717 34.3968 31.3717 34.3968 31.7563Z" fill="black"/>
</svg>
