<svg width="696" height="464" viewBox="0 0 696 464" fill="none" xmlns="http://www.w3.org/2000/svg">
<g clip-path="url(#clip0_47540_27146)">
<path d="M696 0H0V464H696V0Z" fill="white"/>
<path d="M219.338 366.29C222.527 363.449 226.538 361.697 230.789 361.288C259.045 358.473 401.446 345.258 429.283 362.082C460.216 380.781 419.087 380.257 379.76 385.488C342.583 390.425 192.066 390.767 219.338 366.29Z" fill="#EDE4FF"/>
<path d="M465.838 258.226C413.383 339.245 320.804 325.631 276.074 285.12C276.074 285.12 226.648 238.16 264.657 192.008C280.719 172.498 283.013 152.318 286.931 134.306C292.285 109.712 300.665 89.1622 351.308 79.8941C385.373 73.6599 418.161 86.9404 442.455 110.265C480.731 147.006 497.926 208.669 465.838 258.226Z" fill="#F6F2FF"/>
<path d="M465.839 258.225C413.383 339.243 320.805 325.63 276.075 285.119C276.075 285.119 235.781 246.836 255.932 205.431C258.099 200.977 260.966 196.489 264.658 192.007C280.719 172.498 283.014 152.32 286.931 134.304C286.958 134.775 289.416 177.135 335.586 163.276C371.462 152.507 400.427 115.606 442.456 110.258C463.998 130.93 478.862 159.512 482.015 189.376C484.475 212.582 479.866 236.559 465.839 258.225Z" fill="#EDE4FF"/>
<path d="M465.838 258.226C413.382 339.245 320.803 325.631 276.074 285.12C276.074 285.12 257.29 267.274 251.788 242.774C249.23 231.39 249.539 218.569 255.931 205.433C275.355 216.518 318.839 236.388 350.562 214.112C385.885 189.303 441.726 151.857 482.018 189.385C482.438 193.334 482.647 197.302 482.646 201.273C482.634 220.67 477.479 240.246 465.838 258.226Z" fill="#E4DBFA"/>
<path d="M465.839 258.226C413.383 339.245 320.805 325.631 276.075 285.121C276.075 285.121 257.292 267.274 251.789 242.775C251.789 242.775 270.838 270.276 322.478 276.639C378.973 283.604 429.382 210.983 482.647 201.273C482.635 220.671 477.48 240.246 465.839 258.226Z" fill="#BEB2DA"/>
<path d="M327.594 79.4688C291.537 88.1033 285.953 123.755 285.953 123.755" stroke="#E4DBFA" stroke-width="5" stroke-miterlimit="10" stroke-linecap="round"/>
<path d="M333.516 78.7631C333.516 78.7631 346.106 75.9464 351.091 75.8438" stroke="#E4DBFA" stroke-width="5" stroke-miterlimit="10" stroke-linecap="round"/>
<path d="M214.091 168.965C218.296 191.245 247.018 197.8 260.467 179.547C270.453 165.991 279.149 146.316 269.669 124.897C252.137 85.2847 207.892 133.59 213.9 167.945C213.964 168.29 214.027 168.629 214.091 168.965Z" fill="#F6F2FF"/>
<path d="M396.025 136.03C396.025 136.03 392.265 138.219 392.914 140.45C393.562 142.681 386.587 137.367 389.222 134.934C391.858 132.501 400.654 127.082 400.238 130.758C399.822 134.434 396.025 136.03 396.025 136.03Z" fill="#72120C"/>
<path d="M377.142 144.425C377.142 144.425 389.906 144.259 391.083 146.22C392.259 148.182 386.745 152.236 385.283 152.455C383.821 152.673 376.696 148.096 376.782 146.875C376.851 146.052 376.971 145.234 377.142 144.425Z" fill="#949A9B"/>
<path d="M377.903 112.992C377.903 112.992 374.862 117.575 373.929 122.279C372.997 126.983 372.267 132.053 373.929 135.218C375.592 138.382 379.201 139.557 379.201 139.557C379.201 139.557 378.065 145.397 376.849 146.654C375.632 147.911 377.011 156.144 379.201 156.063C381.392 155.983 384.149 155.739 386.46 152.008C388.771 148.276 389.237 150.521 389.237 150.521C389.237 150.521 389.482 140.705 390.575 139.278C391.668 137.85 395.258 134.412 396.262 132.221C396.262 132.221 398.392 132.768 400.034 131.796C401.676 130.823 402.923 127.05 400.825 126.381C400.825 126.381 403.775 120.389 403.167 118.017C402.559 115.645 393.193 109.201 391.423 108.715C389.653 108.228 377.903 112.992 377.903 112.992Z" fill="#FED194"/>
<path d="M373.34 152.457C373.34 152.457 371.555 155.457 372.86 158.639C374.164 161.822 378.266 166.79 382.015 165.351C385.764 163.911 391.235 156.197 391.244 154.062C391.253 151.926 384.793 152.872 384.014 153.379C383.234 153.886 381.353 154.726 380.313 156.764C380.313 156.764 376.914 149.936 373.34 152.457Z" fill="#949A9B"/>
<path d="M245.293 363.476C248.746 363.476 251.546 360.676 251.546 357.222C251.546 353.769 248.746 350.969 245.293 350.969C241.839 350.969 239.039 353.769 239.039 357.222C239.039 360.676 241.839 363.476 245.293 363.476Z" fill="white"/>
<path d="M245.916 364.276C244.522 364.399 243.122 364.105 241.895 363.432C240.667 362.76 239.667 361.738 239.02 360.497C238.373 359.255 238.109 357.85 238.26 356.459C238.412 355.067 238.973 353.752 239.872 352.679C240.772 351.606 241.969 350.824 243.312 350.432C244.656 350.04 246.086 350.055 247.421 350.475C248.756 350.895 249.937 351.702 250.814 352.793C251.69 353.884 252.224 355.211 252.346 356.605C252.428 357.531 252.326 358.464 252.047 359.351C251.768 360.237 251.317 361.06 250.72 361.773C250.123 362.485 249.391 363.073 248.567 363.502C247.743 363.932 246.842 364.195 245.916 364.276ZM244.763 351.177C243.567 351.282 242.429 351.74 241.492 352.492C240.556 353.244 239.864 354.257 239.503 355.402C239.143 356.548 239.13 357.775 239.466 358.928C239.803 360.08 240.474 361.107 241.394 361.879C242.314 362.651 243.443 363.132 244.637 363.262C245.83 363.393 247.036 363.166 248.101 362.611C249.166 362.056 250.043 361.198 250.62 360.145C251.197 359.092 251.449 357.891 251.344 356.695C251.203 355.09 250.43 353.608 249.196 352.573C247.962 351.539 246.368 351.037 244.763 351.177Z" fill="#FFB113"/>
<path d="M246.234 367.86C244.13 368.045 242.018 367.602 240.165 366.587C238.313 365.571 236.803 364.03 235.826 362.156C234.85 360.283 234.451 358.162 234.68 356.062C234.909 353.962 235.756 351.977 237.113 350.358C238.47 348.739 240.277 347.559 242.305 346.967C244.333 346.375 246.491 346.398 248.506 347.032C250.521 347.667 252.302 348.884 253.625 350.531C254.948 352.178 255.753 354.181 255.938 356.285C256.186 359.107 255.303 361.911 253.483 364.082C251.663 366.253 249.056 367.612 246.234 367.86ZM244.679 350.162C243.284 350.285 241.958 350.819 240.866 351.695C239.775 352.572 238.968 353.753 238.548 355.088C238.128 356.423 238.113 357.853 238.505 359.196C238.898 360.54 239.68 361.737 240.752 362.636C241.825 363.536 243.14 364.097 244.532 364.248C245.923 364.4 247.329 364.136 248.57 363.489C249.811 362.842 250.833 361.842 251.506 360.614C252.178 359.387 252.472 357.987 252.349 356.593C252.183 354.724 251.281 352.998 249.843 351.794C248.405 350.59 246.547 350.006 244.679 350.17V350.162Z" fill="black"/>
<path d="M243.717 357.54C243.745 357.856 243.866 358.157 244.064 358.404C244.263 358.651 244.53 358.834 244.833 358.929C245.135 359.024 245.459 359.028 245.764 358.939C246.068 358.85 246.339 358.673 246.543 358.43C246.747 358.187 246.874 357.889 246.908 357.574C246.942 357.258 246.882 356.94 246.736 356.659C246.589 356.378 246.362 356.146 246.084 355.994C245.806 355.842 245.489 355.775 245.173 355.803C244.963 355.821 244.759 355.881 244.573 355.978C244.386 356.075 244.22 356.209 244.085 356.37C243.95 356.531 243.848 356.718 243.785 356.918C243.722 357.119 243.699 357.33 243.717 357.54Z" fill="#FFB113"/>
<path d="M244.511 357.465C244.525 357.623 244.585 357.774 244.684 357.897C244.784 358.021 244.918 358.112 245.069 358.16C245.22 358.208 245.382 358.209 245.534 358.165C245.687 358.12 245.822 358.032 245.924 357.91C246.026 357.788 246.089 357.639 246.106 357.482C246.123 357.324 246.093 357.165 246.02 357.024C245.946 356.884 245.833 356.768 245.694 356.692C245.555 356.616 245.396 356.583 245.238 356.597C245.027 356.616 244.831 356.718 244.695 356.881C244.558 357.044 244.492 357.254 244.511 357.465Z" fill="black"/>
<path d="M372.938 107.636C372.987 108.125 373.07 108.609 373.188 109.086C371.351 110.523 368.609 112.05 367.218 112.67C366.338 113.06 364.506 113.834 362.477 114.789C360.611 115.67 358.579 116.703 356.975 117.734C355.983 118.37 355.154 119.007 354.626 119.605C352.314 122.221 349.625 117.17 349.625 117.17C349.625 117.17 357.607 107.194 360.284 104.517C362.581 102.221 371.064 97.4116 373.421 96.0969L374.031 95.7578L373.734 101.536C373.734 101.536 373.512 101.724 373.169 102.04C372.075 103.039 369.741 105.304 369.23 106.828C368.563 108.838 368.664 108.39 368.664 108.39C368.664 108.39 370.731 108.432 373.646 104.416C373.877 104.096 374.179 103.834 374.528 103.651C374.878 103.468 375.265 103.369 375.66 103.362C373.835 104.04 372.713 105.453 372.938 107.636Z" fill="#FED194"/>
<path d="M368.453 105.161C368.788 104.67 369.163 104.209 369.574 103.78C369.979 103.354 370.402 102.949 370.843 102.564C371.286 102.178 371.748 101.815 372.229 101.478C372.712 101.127 373.23 100.828 373.776 100.586C373.412 101.054 373.022 101.501 372.607 101.924C372.198 102.342 371.773 102.742 371.331 103.125C370.889 103.507 370.432 103.872 369.96 104.218C369.483 104.57 368.979 104.886 368.453 105.161Z" fill="#F59D4E"/>
<path d="M351.87 175.043C342.16 176.415 327.94 167 324.898 158.642C323.746 155.468 324.809 150.425 326.747 145.196C329.913 136.65 335.408 127.607 337.355 125.417C340.494 121.888 343.043 121.79 343.043 121.79L348.014 116.094C353.219 116.29 355.598 120.155 355.598 120.155L351.285 126.204C351.285 126.204 352.854 127.969 352.169 131.696C351.483 135.423 346.382 147.381 346.382 147.381C353.445 146.463 356.897 146.868 358.28 147.165C358.539 147.214 358.793 147.286 359.04 147.381C359.04 147.381 359.057 147.573 359.086 147.925C359.382 151.694 360.756 173.787 351.87 175.043Z" fill="white"/>
<path opacity="0.54" d="M346.381 147.378C346.381 147.378 344.125 154.048 341.473 156.896C338.821 159.744 347.743 157.831 353.434 146.82C353.439 146.82 347.95 147.186 346.381 147.378Z" fill="#D2D7DB"/>
<path opacity="0.54" d="M351.87 175.042C342.16 176.414 327.94 166.999 324.898 158.641C323.746 155.467 324.809 150.424 326.747 145.195C324.281 159.288 346.858 174.908 350.006 163.959C353.155 153.01 358.271 147.167 358.271 147.167C358.271 147.167 358.579 147.442 359.077 147.927C359.382 151.693 360.756 173.786 351.87 175.042Z" fill="#D2D7DB"/>
<path d="M410.166 341.366C410.166 341.4 410.166 341.436 410.166 341.47C409.993 343.935 409.699 347.15 409.404 350.148C408.958 354.8 408.497 358.922 408.497 358.922L400.338 360.273L399.757 349.687L399.281 341.009L398.702 330.435L398.227 321.793C398.227 321.793 403.518 320.72 407.09 325.41C409.212 328.211 410.732 333.045 410.166 341.366Z" fill="#FED194"/>
<path d="M410.164 341.363C405.22 342.494 399.274 341.013 399.274 341.013L398.695 330.439C399.653 328.82 401.328 327.316 404.088 326.181C405.042 325.776 406.052 325.517 407.083 325.414C409.211 328.207 410.731 333.042 410.164 341.363Z" fill="#F59D4E"/>
<path d="M409.397 350.141C408.951 354.793 408.49 358.915 408.49 358.915L400.332 360.265L399.75 349.68C400.391 350.019 404.439 351.925 409.397 350.141Z" fill="#FFB113"/>
<path d="M409.927 362.652C409.95 362.975 409.889 364.157 409.927 364.408C410.207 366.044 410.689 367.02 401.41 369.973C390.703 373.382 384.085 374.057 380.374 369.676C377.046 365.738 387.526 363.225 400.038 355.812C399.974 355.982 398.729 361.322 408.824 357.707C409.243 357.558 409.392 358.095 409.472 358.534C409.798 360.265 409.82 361.077 409.927 362.652Z" fill="#070208"/>
<path d="M401.411 369.973C390.703 373.382 384.086 374.057 380.375 369.676C380.375 369.676 384.597 372.534 391.26 371.297C396.701 370.284 406.78 365.836 409.928 364.414C410.208 366.038 410.69 367.02 401.411 369.973Z" fill="#FFB113"/>
<path d="M398.842 360.808C398.758 360.847 398.662 360.853 398.575 360.824C398.487 360.795 398.414 360.733 398.37 360.652C397.264 358.598 396.025 358.087 396.013 358.082C395.923 358.048 395.851 357.979 395.812 357.891C395.773 357.804 395.771 357.704 395.805 357.614C395.84 357.525 395.909 357.453 395.996 357.414C396.084 357.375 396.184 357.373 396.273 357.407C396.333 357.431 397.76 358.002 399.007 360.31C399.051 360.395 399.061 360.494 399.033 360.585C399.005 360.677 398.942 360.754 398.858 360.799L398.842 360.808Z" fill="white"/>
<path d="M396.421 362.043C396.338 362.083 396.243 362.09 396.155 362.062C396.067 362.035 395.993 361.975 395.948 361.894C394.842 359.84 393.603 359.329 393.591 359.324C393.502 359.29 393.429 359.221 393.39 359.133C393.352 359.046 393.349 358.946 393.384 358.857C393.418 358.767 393.487 358.695 393.574 358.656C393.662 358.617 393.762 358.615 393.851 358.649C393.911 358.673 395.338 359.244 396.585 361.552C396.607 361.594 396.621 361.64 396.626 361.687C396.63 361.734 396.626 361.782 396.612 361.828C396.598 361.873 396.575 361.915 396.545 361.952C396.515 361.989 396.478 362.019 396.436 362.041L396.421 362.043Z" fill="white"/>
<path d="M393.54 363.702C393.457 363.742 393.362 363.749 393.275 363.721C393.187 363.694 393.113 363.634 393.067 363.554C391.961 361.5 390.722 360.988 390.71 360.982C390.625 360.945 390.556 360.876 390.52 360.79C390.484 360.704 390.483 360.607 390.516 360.52C390.55 360.433 390.616 360.362 390.701 360.323C390.785 360.283 390.882 360.278 390.971 360.309C391.03 360.331 392.458 360.903 393.704 363.21C393.726 363.252 393.74 363.298 393.745 363.345C393.75 363.392 393.745 363.44 393.731 363.485C393.717 363.531 393.695 363.573 393.664 363.61C393.634 363.647 393.597 363.677 393.555 363.699L393.54 363.702Z" fill="white"/>
<path d="M366.048 337.195C366.048 337.23 366.048 337.265 366.048 337.3C365.876 339.764 365.581 342.979 365.287 345.976C364.841 350.628 364.38 354.75 364.38 354.75L356.221 356.101L355.64 345.516L355.164 336.837L354.585 326.265L354.109 317.621C354.109 317.621 359.401 316.549 362.973 321.238C365.103 324.038 366.617 328.875 366.048 337.195Z" fill="#FED194"/>
<path d="M366.047 337.192C361.102 338.324 355.157 336.841 355.157 336.841L354.578 326.269C355.536 324.649 357.21 323.146 359.971 322.01C360.925 321.605 361.935 321.346 362.966 321.242C365.101 324.035 366.615 328.871 366.047 337.192Z" fill="#F59D4E"/>
<path d="M365.28 345.975C364.834 350.627 364.373 354.749 364.373 354.749L356.214 356.1L355.633 345.516C356.274 345.853 360.322 347.761 365.28 345.975Z" fill="#FFB113"/>
<path d="M365.818 358.488C365.84 358.809 365.779 359.993 365.818 360.243C366.098 361.879 366.579 362.854 357.301 365.809C346.593 369.218 339.975 369.892 336.265 365.512C332.936 361.574 343.417 359.059 355.928 351.648C355.864 351.816 354.619 357.151 364.714 353.543C365.134 353.394 365.283 353.93 365.363 354.37C365.689 356.101 365.711 356.913 365.818 358.488Z" fill="#070208"/>
<path d="M357.302 365.803C346.594 369.211 339.976 369.885 336.266 365.505C336.266 365.505 340.488 368.362 347.15 367.125C352.592 366.114 362.67 361.665 365.819 360.242C366.098 361.866 366.58 362.848 357.302 365.803Z" fill="#FFB113"/>
<path d="M354.726 356.64C354.644 356.68 354.549 356.687 354.461 356.659C354.373 356.631 354.3 356.571 354.255 356.491C353.148 354.437 351.91 353.924 351.898 353.92C351.812 353.883 351.744 353.814 351.708 353.728C351.672 353.642 351.67 353.545 351.704 353.458C351.738 353.371 351.804 353.3 351.888 353.26C351.973 353.221 352.07 353.216 352.158 353.246C352.217 353.268 353.645 353.841 354.891 356.147C354.914 356.189 354.928 356.235 354.932 356.283C354.937 356.33 354.932 356.378 354.919 356.423C354.905 356.468 354.882 356.511 354.852 356.547C354.822 356.584 354.785 356.614 354.743 356.637L354.726 356.64Z" fill="white"/>
<path d="M352.306 357.874C352.223 357.914 352.128 357.921 352.04 357.893C351.952 357.866 351.878 357.806 351.833 357.725C350.727 355.672 349.488 355.16 349.476 355.154C349.39 355.117 349.322 355.048 349.286 354.962C349.25 354.876 349.248 354.779 349.282 354.692C349.316 354.605 349.382 354.534 349.466 354.495C349.551 354.455 349.648 354.45 349.736 354.48C349.796 354.503 351.223 355.075 352.47 357.382C352.492 357.424 352.506 357.47 352.511 357.517C352.515 357.564 352.51 357.612 352.497 357.657C352.483 357.703 352.46 357.745 352.43 357.782C352.4 357.818 352.363 357.849 352.321 357.871L352.306 357.874Z" fill="white"/>
<path d="M349.429 359.535C349.345 359.574 349.249 359.58 349.161 359.551C349.073 359.522 349 359.46 348.956 359.379C347.85 357.325 346.611 356.813 346.599 356.809C346.509 356.774 346.437 356.706 346.398 356.618C346.359 356.53 346.357 356.431 346.391 356.341C346.426 356.252 346.495 356.179 346.582 356.14C346.67 356.102 346.77 356.099 346.859 356.134C346.919 356.157 348.346 356.728 349.593 359.037C349.615 359.078 349.629 359.124 349.633 359.172C349.638 359.219 349.633 359.267 349.62 359.312C349.606 359.357 349.583 359.4 349.553 359.436C349.523 359.473 349.486 359.504 349.444 359.526L349.429 359.535Z" fill="white"/>
<path d="M412.209 344.163C409.01 345.354 405.62 345.95 402.206 345.921C400.102 345.904 398.012 345.565 396.009 344.916C396.009 344.916 391.302 308.594 388.165 298.655C385.027 288.717 377.702 250.532 377.702 250.532C377.702 250.532 372.21 288.455 372.339 295.778C372.469 303.101 368.027 344.425 368.027 344.425C368.027 344.425 355.603 345.466 351.418 342.725C351.418 342.725 351.229 337.628 350.909 331.095C350.432 321.347 349.664 308.401 348.803 304.409C347.365 297.739 347.234 273.03 347.234 273.03C347.234 273.03 347.779 251.109 349.575 235.578C350.558 227.058 351.919 220.461 353.772 220.461C359.004 220.461 413.076 233.588 413.076 233.588C413.076 233.588 410.451 272.506 411.666 285.846C412.881 299.186 415.463 332.917 412.209 344.163Z" fill="#663E36"/>
<path d="M412.206 344.161C409.007 345.352 405.617 345.948 402.203 345.919C410.165 336.629 400.909 290.087 402.087 274.592C403.265 259.097 395.419 240.853 383.017 240.264C370.615 239.675 349.57 235.57 349.57 235.57C350.553 227.05 351.914 220.453 353.767 220.453C358.999 220.453 413.071 233.58 413.071 233.58C413.071 233.58 410.447 272.498 411.662 285.838C412.877 299.178 415.46 332.915 412.206 344.161Z" fill="#59302A"/>
<path d="M372.336 295.774C372.467 303.098 368.024 344.421 368.024 344.421C368.024 344.421 355.6 345.462 351.415 342.721C351.415 342.721 351.226 337.625 350.906 331.092C359.746 330.708 367.765 290.819 368.94 280.867C373.123 245.429 377.701 250.528 377.701 250.528C377.701 250.528 372.207 288.451 372.336 295.774Z" fill="#59302A"/>
<path d="M359.305 233.261C359.305 233.261 376.309 235.492 381.877 237.128C387.445 238.764 392.872 239.416 399.872 240.071C406.872 240.725 411.2 246.348 412.042 252.037L413.083 233.582C413.083 233.582 363.332 225.67 359.305 233.261Z" fill="#42211D"/>
<path d="M380.508 234.94C381.037 234.972 412.765 239.017 412.765 239.017L413.071 233.578L380.508 234.94Z" fill="#27140E"/>
<path d="M418.171 199.495C418.109 200.865 417.984 201.988 417.781 202.794C415.82 210.64 414.728 231.311 414.728 231.311C414.728 231.311 384.631 238.103 345.531 228.164C345.531 228.164 346.041 221.724 346.667 214.184C346.919 211.167 347.187 207.974 347.45 204.943C347.86 200.208 348.256 195.871 348.538 193.249C349.454 184.748 350.893 157.157 358.608 146.7C358.608 146.7 359.132 146.106 360.57 146.308C362.008 146.51 374.954 146.031 374.954 146.031L373.466 153.384C373.466 153.384 372.944 159.123 378.225 160.522C383.506 161.922 389.082 156.209 389.427 155.292C389.772 154.374 392.479 147.62 392.479 147.62C392.479 147.62 395.704 149.059 398.668 149.929C400.875 150.579 406.631 151.614 410.164 153.089C411.381 153.597 412.334 154.156 412.79 154.768C414.394 156.908 418.717 187.552 418.171 199.495Z" fill="#6D378F"/>
<path d="M351.085 232.414C351.085 232.414 399.169 237.881 414.142 234.416L413.353 229.775L349.188 226.406L351.085 232.414Z" fill="white"/>
<path d="M417.781 202.801C415.82 210.648 414.728 231.318 414.728 231.318C414.728 231.318 384.631 238.11 345.531 228.171C345.531 228.171 346.531 215.549 347.45 204.949C347.45 204.949 357.366 224.183 380.51 209.961C403.653 195.739 399.248 167.494 401.614 160.191C403.98 152.887 410.163 153.086 410.163 153.086C411.379 153.594 412.332 154.153 412.789 154.766C414.578 157.163 419.743 194.955 417.781 202.801Z" fill="#582279"/>
<path d="M418.171 199.499C418.109 200.869 417.984 201.992 417.781 202.798C415.82 210.644 414.728 231.314 414.728 231.314C414.728 231.314 396.668 235.389 370.355 232.607C361.985 231.723 353.689 230.239 345.531 228.167C345.531 228.167 346.041 221.728 346.667 214.188C379.058 232.378 404.443 203.094 402.288 195.152C400.133 187.211 401.271 179.953 401.271 179.953C401.271 179.953 405.706 185.069 408.957 186.84C409.403 187.08 410.232 187.999 411.343 189.438C413.092 191.697 415.53 195.267 418.171 199.499Z" fill="#42115F"/>
<path d="M394.1 127.997C394.1 127.997 396.168 123.131 395.924 118.873C395.68 114.616 397.871 110.234 397.871 110.234C397.871 110.234 405.902 113.033 404.077 119.116C402.252 125.198 400.822 126.385 400.822 126.385C400.822 126.385 398.906 125.808 396.046 127.997C393.187 130.186 394.1 127.997 394.1 127.997Z" fill="#72120C"/>
<path d="M405.706 128.09C401.054 135.573 396.039 136.03 396.039 136.03C396.039 136.03 397.953 134.569 398.418 129.459C398.545 128.051 398.27 125.67 397.794 122.962C396.555 115.847 393.991 106.465 393.991 106.465L392.305 104.366C392.305 104.366 397.919 103.294 402.434 106.648C405.706 109.087 410.352 120.614 405.706 128.09Z" fill="#6D378F"/>
<path d="M403.832 117.726C400.989 121.906 397.77 122.962 397.77 122.962C396.532 115.848 393.968 106.465 393.968 106.465L392.281 104.367C392.281 104.367 398.212 102.906 402.41 106.648L402.489 106.718C404.008 108.079 404.981 109.945 405.228 111.97C405.475 113.994 404.979 116.04 403.832 117.726Z" fill="white"/>
<path d="M398.196 125.743C396.496 117.25 394.653 112.029 388.095 110.659C381.536 109.289 376.42 115.567 376.42 115.567C376.42 115.567 375.394 111.792 374.456 107.93C374.799 107.542 375.009 107.186 375.024 106.889C375.104 105.308 377.436 103.422 375.653 103.361C375.179 103.345 374.451 103.775 373.639 104.416C373.448 103.541 373.284 102.731 373.162 102.036C373.041 101.429 372.966 100.813 372.938 100.194C372.962 98.8143 373.124 97.4408 373.421 96.0935C373.956 93.6055 374.99 90.9077 376.768 89.6109C379.688 87.4813 388.083 89.428 392.402 98.7957C396.72 108.163 398.196 125.743 398.196 125.743Z" fill="#6D378F"/>
<path d="M375.029 106.89C375.014 107.187 374.805 107.546 374.461 107.931C374.073 108.351 373.648 108.737 373.192 109.084C373.075 108.607 372.991 108.122 372.943 107.634C372.718 105.45 373.835 104.038 375.66 103.359C377.44 103.425 375.109 105.311 375.029 106.89Z" fill="#FED194"/>
<path d="M395.987 117.614C395.91 117.422 391.887 110.564 387.079 113.023C382.384 115.422 374.817 115.63 373.188 109.085C373.643 108.738 374.068 108.353 374.456 107.932C374.8 107.544 375.009 107.188 375.024 106.891C375.104 105.312 377.435 103.426 375.655 103.363C380.524 101.545 393.966 109.51 395.987 117.614Z" fill="#72120C"/>
<path d="M391.08 146.217C391.08 146.217 390.974 147.219 388.565 149.042C386.156 150.866 380.832 154.491 380.312 156.758C380.312 156.758 382.624 153.189 385.696 154.318C388.769 155.446 391.691 160.726 391.691 160.726C391.691 160.726 393.782 152.356 393.346 147.997C393.346 147.997 393.303 147.081 392.344 146.383C391.385 145.686 391.08 146.217 391.08 146.217Z" fill="white"/>
<path d="M377.261 144.734C377.261 144.734 377.914 151.969 380.311 156.763C380.311 156.763 375.125 150.357 368.711 158.639C368.711 158.639 372.982 149.702 372.982 146.651C372.982 146.651 372.72 145.867 373.855 145.648C374.99 145.43 377.114 143.471 377.261 144.734Z" fill="white"/>
<path d="M307.766 373.392L374.143 245.719C374.143 245.719 379.879 234.654 381.298 233.955C383.678 232.777 389.733 233.988 389.733 233.988V227.547L382.149 227.907C381.137 227.907 380.142 228.17 379.263 228.671C378.384 229.172 377.65 229.893 377.134 230.764C374.986 234.383 371.393 240.558 369.822 243.947C367.503 248.943 304.133 369.15 304.133 369.15L307.766 373.392Z" fill="#AA1F15"/>
<path d="M365.317 252.709L324.49 241.234L243.055 353.464L304.132 369.147L365.317 252.709Z" fill="#070208"/>
<path d="M275.211 250.274L288.56 227.109L336.304 234.698L323.372 257.992L275.211 250.274Z" fill="#FFAD01"/>
<path d="M336.308 234.703L351.63 262.808L340.503 284.464L323.375 257.997L336.308 234.703Z" fill="#F47204"/>
<path d="M348.214 147.211C348.214 147.211 347.119 151.463 342.414 155.718C342.414 155.718 344.71 152.65 346.377 147.389L348.214 147.211Z" fill="#949A9B"/>
<path d="M274.245 242.242L253.023 283.071L301.619 295.268L324.097 252.019L274.245 242.242Z" fill="#FFAD01"/>
<path d="M322.641 252.473L274.703 243.016L262.695 266.116C262.695 266.116 291.152 251.216 319.549 258.42L322.641 252.473Z" fill="#FF920F"/>
<path d="M324.096 252.016L345.55 283.91L324.642 324.135L301.617 295.264L324.096 252.016Z" fill="#DD5E00"/>
<path d="M324.643 324.137L283.041 313.27L253.023 283.07L301.619 295.267L324.643 324.137Z" fill="#D95F16"/>
<path d="M302.436 247.765L280.503 289.962L305.825 319.216L296.392 316.752L269.367 287.167L291.012 245.523L302.436 247.765Z" fill="white"/>
<path d="M302.577 286.115L299.711 285.367" stroke="#A73E5C" stroke-width="1.42" stroke-linecap="round" stroke-linejoin="round"/>
<path d="M298.237 284.983L296.5 284.531" stroke="#A73E5C" stroke-width="1.42" stroke-linecap="round" stroke-linejoin="round"/>
<path d="M295.198 284.193L288.859 282.539" stroke="#A73E5C" stroke-width="1.42" stroke-linecap="round" stroke-linejoin="round"/>
<path d="M287.551 282.195L286.953 282.039" stroke="#A73E5C" stroke-width="1.42" stroke-linecap="round" stroke-linejoin="round"/>
<path d="M301.76 287.844L296.344 286.43" stroke="#A73E5C" stroke-width="1.42" stroke-linecap="round" stroke-linejoin="round"/>
<path d="M294.989 286.079L294.086 285.844" stroke="#A73E5C" stroke-width="1.42" stroke-linecap="round" stroke-linejoin="round"/>
<path d="M292.012 285.299L286.133 283.766" stroke="#A73E5C" stroke-width="1.42" stroke-linecap="round" stroke-linejoin="round"/>
<path d="M300.941 289.566L296.969 288.531" stroke="#A73E5C" stroke-width="1.42" stroke-linecap="round" stroke-linejoin="round"/>
<path d="M294.615 287.916L292.539 287.375" stroke="#A73E5C" stroke-width="1.42" stroke-linecap="round" stroke-linejoin="round"/>
<path d="M291.187 287.024L290.555 286.859" stroke="#A73E5C" stroke-width="1.42" stroke-linecap="round" stroke-linejoin="round"/>
<path d="M289.204 286.5L285.312 285.484" stroke="#A73E5C" stroke-width="1.42" stroke-linecap="round" stroke-linejoin="round"/>
<path d="M300.12 291.287L288.383 288.227" stroke="#A73E5C" stroke-width="1.42" stroke-linecap="round" stroke-linejoin="round"/>
<path d="M287.431 287.977L284.492 287.211" stroke="#A73E5C" stroke-width="1.42" stroke-linecap="round" stroke-linejoin="round"/>
<path d="M305.825 319.221L280.503 289.966L269.367 287.172L296.392 316.756L305.825 319.221Z" fill="#949A9B"/>
<path d="M343.047 121.783C343.047 121.783 347.755 122.175 351.286 126.197L355.599 120.148C355.599 120.148 351.741 120.867 348.636 121.39C346.79 121.705 344.918 121.836 343.047 121.783Z" fill="#949A9B"/>
<path d="M249.176 278.984L225.906 323.756L279.192 337.13L303.842 289.705L249.176 278.984Z" fill="#FFAD01"/>
<path d="M302.246 290.206L249.68 279.836L236.516 305.166C236.516 305.166 267.718 288.827 298.857 296.726L302.246 290.206Z" fill="#FF920F"/>
<path d="M303.845 289.703L327.37 324.677L304.443 368.785L279.195 337.128L303.845 289.703Z" fill="#F47204"/>
<path d="M304.44 368.79L258.82 356.873L225.906 323.758L279.192 337.132L304.44 368.79Z" fill="#D95F16"/>
<path d="M280.09 285.043L256.039 331.315L283.806 363.393L273.463 360.691L243.828 328.25L267.564 282.586L280.09 285.043Z" fill="white"/>
<path d="M280.25 327.101L277.109 326.281" stroke="#A73E5C" stroke-width="1.42" stroke-linecap="round" stroke-linejoin="round"/>
<path d="M275.49 325.856L273.586 325.359" stroke="#A73E5C" stroke-width="1.42" stroke-linecap="round" stroke-linejoin="round"/>
<path d="M272.162 324.993L265.211 323.18" stroke="#A73E5C" stroke-width="1.42" stroke-linecap="round" stroke-linejoin="round"/>
<path d="M263.765 322.804L263.109 322.633" stroke="#A73E5C" stroke-width="1.42" stroke-linecap="round" stroke-linejoin="round"/>
<path d="M279.354 328.987L273.414 327.438" stroke="#A73E5C" stroke-width="1.42" stroke-linecap="round" stroke-linejoin="round"/>
<path d="M271.928 327.054L270.938 326.797" stroke="#A73E5C" stroke-width="1.42" stroke-linecap="round" stroke-linejoin="round"/>
<path d="M268.656 326.198L262.211 324.516" stroke="#A73E5C" stroke-width="1.42" stroke-linecap="round" stroke-linejoin="round"/>
<path d="M278.45 330.878L274.094 329.742" stroke="#A73E5C" stroke-width="1.42" stroke-linecap="round" stroke-linejoin="round"/>
<path d="M271.519 329.071L269.242 328.477" stroke="#A73E5C" stroke-width="1.42" stroke-linecap="round" stroke-linejoin="round"/>
<path d="M267.756 328.088L267.062 327.906" stroke="#A73E5C" stroke-width="1.42" stroke-linecap="round" stroke-linejoin="round"/>
<path d="M265.581 327.52L261.312 326.406" stroke="#A73E5C" stroke-width="1.42" stroke-linecap="round" stroke-linejoin="round"/>
<path d="M277.548 332.771L264.68 329.414" stroke="#A73E5C" stroke-width="1.42" stroke-linecap="round" stroke-linejoin="round"/>
<path d="M263.637 329.137L260.414 328.297" stroke="#A73E5C" stroke-width="1.42" stroke-linecap="round" stroke-linejoin="round"/>
<path d="M241.936 314.891L242.421 317.985L241.281 317.743L239.445 321.28L237.953 320.963L239.79 317.426L238.651 317.185L241.936 314.891Z" fill="#070208"/>
<path d="M237.281 313.906L237.766 317.001L236.627 316.76L234.789 320.295L233.297 319.978L235.135 316.443L233.996 316.201L237.281 313.906Z" fill="#070208"/>
<path d="M232.672 321.185L238.856 322.5L239.297 321.651L233.114 320.336L232.672 321.185Z" fill="#070208"/>
<path d="M240.716 324.171L229.578 321.805L234.635 312.062L245.772 314.429L240.716 324.171ZM229.791 321.704L240.647 324.009L245.567 314.536L234.71 312.231L229.791 321.704Z" fill="#070208"/>
<path d="M283.806 363.394L256.039 331.315L243.828 328.25L273.463 360.691L283.806 363.394Z" fill="#949A9B"/>
<path opacity="0.5" d="M280.727 337.292L304.17 292.188L312.06 304.293C312.06 304.293 306.728 300.774 296.959 315.518C287.19 330.262 282.47 339.343 282.47 339.343L280.727 337.292Z" fill="#D95F16"/>
<path d="M307.763 373.392L245.906 357.934L227.445 335.008L287.73 349.523L307.763 373.392Z" fill="#070208"/>
<path d="M403.349 228.895C401.728 231.712 399.614 234.374 397.97 235.97C396.975 236.933 396.152 237.506 395.708 237.489C394.53 237.446 394.836 236.53 393.397 236.704C391.957 236.878 391.042 236.399 390.651 236.139C390.26 235.879 389.908 236.313 388.951 236.487C387.995 236.661 385.943 235.616 385.29 235.79C384.695 235.949 383.438 235.671 383.229 234.823C383.208 234.74 383.197 234.654 383.197 234.569C383.197 233.528 385.943 232.519 386.947 231.823C387.95 231.127 389.475 228.293 389.43 227.9C389.386 227.507 386.423 227.9 386.423 227.9H383.023C383.482 227.173 384.006 226.488 384.588 225.855C385.459 224.939 386.811 224.154 389.252 223.718C391.692 223.282 394.046 223.98 394.046 223.98C394.326 223.753 394.639 223.57 394.974 223.44C398.567 221.978 405.719 224.77 403.349 228.895Z" fill="#FED194"/>
<path d="M403.344 228.895C401.723 231.712 399.609 234.374 397.965 235.97C398.017 235.91 398.879 234.897 399.404 230.381C399.947 225.718 394.859 223.803 394.859 223.803C394.887 223.679 394.925 223.558 394.971 223.44C398.562 221.978 405.714 224.77 403.344 228.895Z" fill="#F59D4E"/>
<path d="M427.269 213.779C424.915 217.115 413.232 226.355 411.27 226.813C409.309 227.271 408.373 226.069 408.373 226.069L405.955 227.803L402.368 230.376C402.454 230.294 402.726 228.951 401.876 226.912C399.928 222.241 394.055 223.975 394.055 223.975L398.043 219.53C395.755 216.587 412.298 203.766 412.298 203.766C409.878 199.453 407.985 193.043 407.985 193.043C398.504 193.894 400.531 164.014 404.584 158.127C408.636 152.241 412.801 154.75 412.801 154.75C419.245 157.692 424.265 168.524 427.274 179.248C428.586 183.923 429.2 190.451 429.282 196.604C429.378 204.569 428.591 211.899 427.269 213.779Z" fill="white"/>
<path opacity="0.54" d="M404.307 180.179L407.969 193.059C398.488 193.91 400.515 164.029 404.567 158.143C408.62 152.257 412.784 154.766 412.784 154.766C412.784 154.766 399.468 155.005 404.307 180.179Z" fill="#D2D7DB"/>
<path d="M412.284 203.78C412.284 203.78 416.621 200.969 421.023 203.185C421.023 203.185 422.679 202.966 420.151 201.18C417.623 199.394 411.258 201.775 411.258 201.775L412.284 203.78Z" fill="#949A9B"/>
<path d="M404.461 180.708C404.461 180.708 403.589 179.649 404.047 183.769C404.505 187.888 405.006 192.097 405.006 192.097C405.396 192.471 405.865 192.751 406.378 192.916C406.892 193.082 407.436 193.128 407.97 193.052" fill="#949A9B"/>
<path opacity="0.54" d="M427.264 213.782C424.91 217.118 413.226 226.358 411.265 226.816C409.303 227.274 408.368 226.072 408.368 226.072L402.362 230.385C406.866 224.944 401.188 219.276 401.188 219.276C410.091 222.905 416.803 218.787 422.198 213.981C427.594 209.176 429.273 196.617 429.273 196.617C429.373 204.572 428.586 211.902 427.264 213.782Z" fill="#D2D7DB"/>
<path d="M408.36 226.076C408.36 226.076 408.448 222.718 401.18 219.273C401.18 219.273 406.446 221.863 407.012 227.041L408.36 226.076Z" fill="#949A9B"/>
<path d="M383.219 234.825C383.198 234.742 383.187 234.657 383.188 234.571C383.188 233.53 385.933 232.522 386.937 231.826C387.941 231.13 389.465 228.295 389.42 227.903C389.376 227.51 386.413 227.903 386.413 227.903H385.933C385.933 227.903 390.543 226.136 390.968 227.308C391.394 228.48 388.773 233.836 383.219 234.825Z" fill="#F59D4E"/>
<path d="M373.484 98.0625C369.952 101.679 365.229 104.267 362.479 114.783C360.613 115.663 358.581 116.697 356.977 117.727H356.985C359.343 115.854 363.847 107.78 365.03 105.308C365.696 103.903 373.429 98.1056 373.484 98.0625Z" fill="#F59D4E"/>
<path d="M227.445 335.009L229.886 331.914L289.56 346.543L307.182 367.719L303.674 368.519L287.73 349.524L227.445 335.009Z" fill="#AA1F15"/>
<path d="M306.363 378.718C309.817 378.718 312.617 375.918 312.617 372.465C312.617 369.011 309.817 366.211 306.363 366.211C302.909 366.211 300.109 369.011 300.109 372.465C300.109 375.918 302.909 378.718 306.363 378.718Z" fill="white"/>
<path d="M306.986 379.511C305.592 379.633 304.192 379.339 302.965 378.667C301.737 377.994 300.737 376.972 300.09 375.731C299.443 374.49 299.179 373.084 299.331 371.693C299.483 370.301 300.044 368.986 300.943 367.913C301.842 366.841 303.039 366.059 304.383 365.666C305.726 365.274 307.156 365.289 308.491 365.709C309.827 366.13 311.007 366.936 311.884 368.028C312.761 369.119 313.294 370.445 313.417 371.84C313.581 373.71 312.996 375.568 311.79 377.007C310.584 378.445 308.856 379.346 306.986 379.511ZM305.834 366.412C304.637 366.517 303.499 366.974 302.563 367.727C301.626 368.479 300.934 369.492 300.574 370.637C300.213 371.783 300.2 373.01 300.537 374.163C300.874 375.315 301.545 376.342 302.465 377.114C303.385 377.885 304.514 378.367 305.708 378.497C306.902 378.627 308.108 378.4 309.173 377.845C310.238 377.29 311.114 376.431 311.691 375.378C312.268 374.325 312.52 373.124 312.414 371.927C312.273 370.324 311.5 368.842 310.266 367.807C309.032 366.773 307.438 366.271 305.834 366.412Z" fill="#FFB113"/>
<path d="M307.297 383.094C305.192 383.279 303.08 382.836 301.228 381.821C299.375 380.806 297.865 379.264 296.889 377.391C295.912 375.517 295.514 373.396 295.743 371.296C295.972 369.196 296.818 367.211 298.176 365.592C299.533 363.973 301.34 362.793 303.368 362.201C305.395 361.609 307.553 361.632 309.568 362.266C311.583 362.901 313.365 364.119 314.688 365.766C316.011 367.413 316.816 369.415 317.001 371.519C317.248 374.341 316.365 377.146 314.546 379.316C312.726 381.487 310.118 382.846 307.297 383.094ZM305.741 365.397C304.347 365.519 303.02 366.053 301.929 366.93C300.838 367.806 300.031 368.987 299.611 370.322C299.19 371.657 299.176 373.087 299.568 374.431C299.96 375.774 300.742 376.972 301.815 377.871C302.888 378.77 304.203 379.331 305.594 379.483C306.986 379.634 308.391 379.37 309.632 378.723C310.874 378.077 311.895 377.076 312.568 375.849C313.241 374.621 313.535 373.222 313.412 371.827C313.244 369.96 312.342 368.235 310.904 367.031C309.466 365.828 307.609 365.244 305.741 365.409V365.397Z" fill="black"/>
<path d="M304.787 372.775C304.815 373.09 304.936 373.391 305.134 373.638C305.333 373.886 305.6 374.068 305.903 374.164C306.205 374.259 306.529 374.262 306.834 374.173C307.138 374.084 307.409 373.907 307.613 373.664C307.817 373.421 307.944 373.123 307.978 372.808C308.013 372.493 307.953 372.174 307.806 371.893C307.659 371.612 307.433 371.381 307.154 371.228C306.876 371.076 306.559 371.01 306.243 371.037C305.82 371.075 305.429 371.279 305.156 371.605C304.883 371.93 304.75 372.351 304.787 372.775Z" fill="#FFB113"/>
<path d="M305.581 372.708C305.595 372.866 305.655 373.016 305.755 373.14C305.854 373.263 305.988 373.355 306.139 373.402C306.29 373.45 306.452 373.451 306.605 373.407C306.757 373.362 306.892 373.274 306.994 373.152C307.096 373.031 307.16 372.881 307.177 372.724C307.194 372.566 307.164 372.407 307.09 372.266C307.017 372.126 306.903 372.01 306.764 371.934C306.625 371.858 306.466 371.825 306.308 371.839C306.097 371.858 305.901 371.96 305.765 372.123C305.629 372.286 305.563 372.496 305.581 372.708Z" fill="black"/>
<path d="M379.203 139.555C380.877 139.954 382.614 140.016 384.312 139.738C384.312 139.738 386.045 139.129 384.164 141.374C382.282 143.618 378.266 143.412 378.266 143.412L379.203 139.555Z" fill="#F59D4E"/>
<path d="M377.374 122.9C377.616 122.29 377.547 121.691 377.219 121.561C376.892 121.431 376.43 121.819 376.188 122.428C375.946 123.037 376.015 123.637 376.343 123.767C376.67 123.897 377.132 123.509 377.374 122.9Z" fill="#72120C"/>
<path d="M385.351 125.626C385.593 125.017 385.523 124.418 385.196 124.288C384.868 124.158 384.407 124.546 384.165 125.155C383.923 125.764 383.992 126.363 384.319 126.493C384.647 126.624 385.109 126.235 385.351 125.626Z" fill="#72120C"/>
<path d="M385.305 120.371C385.305 120.222 385.517 120.164 385.684 120.164C386.213 120.164 387.519 120.27 387.696 121.303C387.845 122.154 387.449 121.882 387.415 121.749C387.361 121.538 387.199 121.082 386.957 120.872C386.395 120.386 385.315 120.701 385.305 120.371Z" fill="#72120C"/>
<path d="M375.892 118.741C375.801 118.575 375.977 118.374 376.137 118.274C376.65 117.959 377.981 117.308 378.767 118.423C379.412 119.336 378.871 119.25 378.756 119.11C378.579 118.895 378.153 118.454 377.791 118.353C376.96 118.112 376.106 119.127 375.892 118.741Z" fill="#72120C"/>
<path d="M379.891 123.517C379.763 124.217 379.564 124.901 379.297 125.559C379.047 126.217 378.749 126.854 378.404 127.467C378.312 127.616 378.223 127.777 378.107 127.942C378.072 127.993 378.034 128.043 377.994 128.091L377.961 128.129L377.945 128.149C377.945 128.149 377.928 128.166 377.945 128.156C377.966 128.132 377.983 128.104 377.995 128.074C378.01 128.041 378.018 128.006 378.021 127.97C378.024 127.945 378.024 127.92 378.021 127.896C378.018 127.885 378.014 127.874 378.009 127.864C378.023 127.904 378.045 127.941 378.074 127.972C378.117 128.024 378.163 128.074 378.212 128.12C378.32 128.217 378.44 128.32 378.566 128.418C379.117 128.818 379.692 129.183 380.289 129.511L380.275 129.569C379.589 129.428 378.93 129.176 378.324 128.825C378.172 128.736 378.026 128.636 377.887 128.528C377.74 128.421 377.615 128.289 377.516 128.137C377.488 128.093 377.47 128.044 377.463 127.992C377.457 127.941 377.463 127.888 377.481 127.839C377.492 127.814 377.507 127.791 377.525 127.771L377.564 127.72C377.59 127.688 377.614 127.654 377.635 127.619C377.731 127.47 377.817 127.322 377.902 127.173C378.247 126.578 378.572 125.958 378.894 125.342L379.853 123.492L379.891 123.517Z" fill="#F59D4E"/>
<path d="M376.769 132.346C378.234 132.86 380.867 133.476 383.489 132.536C383.507 132.528 383.528 132.527 383.547 132.535C383.565 132.542 383.58 132.556 383.588 132.574C383.596 132.592 383.597 132.613 383.59 132.631C383.583 132.65 383.568 132.665 383.55 132.673C382.026 133.46 379.163 134.458 376.59 132.697C376.552 132.669 376.525 132.628 376.513 132.582C376.502 132.536 376.508 132.487 376.529 132.445C376.551 132.403 376.587 132.369 376.631 132.351C376.675 132.333 376.724 132.331 376.769 132.346Z" fill="#F59D4E"/>
<path d="M385.99 128.41C386.149 128.41 386.277 128.281 386.277 128.123C386.277 127.964 386.149 127.836 385.99 127.836C385.832 127.836 385.703 127.964 385.703 128.123C385.703 128.281 385.832 128.41 385.99 128.41Z" fill="#F59D4E"/>
<path d="M376.037 125.543C376.196 125.543 376.324 125.414 376.324 125.256C376.324 125.097 376.196 124.969 376.037 124.969C375.878 124.969 375.75 125.097 375.75 125.256C375.75 125.414 375.878 125.543 376.037 125.543Z" fill="#F59D4E"/>
<path d="M386.937 129.084C387.048 129.084 387.139 128.994 387.139 128.882C387.139 128.77 387.048 128.68 386.937 128.68C386.825 128.68 386.734 128.77 386.734 128.882C386.734 128.994 386.825 129.084 386.937 129.084Z" fill="#F59D4E"/>
<path d="M374.694 124.155C374.806 124.155 374.897 124.064 374.897 123.952C374.897 123.841 374.806 123.75 374.694 123.75C374.583 123.75 374.492 123.841 374.492 123.952C374.492 124.064 374.583 124.155 374.694 124.155Z" fill="#F59D4E"/>
<path d="M374.304 126.694C374.416 126.694 374.506 126.603 374.506 126.491C374.506 126.38 374.416 126.289 374.304 126.289C374.192 126.289 374.102 126.38 374.102 126.491C374.102 126.603 374.192 126.694 374.304 126.694Z" fill="#F59D4E"/>
<path d="M387.304 128.17C387.416 128.17 387.506 128.08 387.506 127.968C387.506 127.856 387.416 127.766 387.304 127.766C387.192 127.766 387.102 127.856 387.102 127.968C387.102 128.08 387.192 128.17 387.304 128.17Z" fill="#F59D4E"/>
<path d="M384.592 129.121C384.75 129.121 384.879 128.992 384.879 128.834C384.879 128.675 384.75 128.547 384.592 128.547C384.433 128.547 384.305 128.675 384.305 128.834C384.305 128.992 384.433 129.121 384.592 129.121Z" fill="#F59D4E"/>
<path d="M385.897 130.193C386.099 130.193 386.263 130.029 386.263 129.827C386.263 129.625 386.099 129.461 385.897 129.461C385.695 129.461 385.531 129.625 385.531 129.827C385.531 130.029 385.695 130.193 385.897 130.193Z" fill="#F59D4E"/>
<path d="M374.796 125.615C374.998 125.615 375.161 125.451 375.161 125.249C375.161 125.047 374.998 124.883 374.796 124.883C374.593 124.883 374.43 125.047 374.43 125.249C374.43 125.451 374.593 125.615 374.796 125.615Z" fill="#F59D4E"/>
<path d="M387.436 130.154C387.638 130.154 387.802 129.99 387.802 129.788C387.802 129.586 387.638 129.422 387.436 129.422C387.234 129.422 387.07 129.586 387.07 129.788C387.07 129.99 387.234 130.154 387.436 130.154Z" fill="#F59D4E"/>
<path d="M403.82 243.016C403.82 243.016 410.725 323.175 408.367 337.617" stroke="white" stroke-width="4" stroke-miterlimit="10" stroke-linecap="round"/>
</g>
<defs>
<clipPath id="clip0_47540_27146">
<rect width="696" height="464" fill="white"/>
</clipPath>
</defs>
</svg>
