<svg width="60" height="60" viewBox="0 0 60 60" fill="none" xmlns="http://www.w3.org/2000/svg">
<path d="M5.19723 19.8867L5.58594 40.1346C5.75478 48.9297 11.0986 54.0722 19.8937 53.9034L40.1175 53.5151C48.9367 53.3458 54.0792 48.002 53.9104 39.2069L53.5221 18.9832C53.3533 10.1881 48.0094 5.04556 39.2144 5.2144L18.9664 5.60311C10.1709 5.74779 5.02838 11.0916 5.19723 19.8867ZM34.7426 17.7967L45.3071 27.9633C45.6519 28.2951 45.854 28.7505 45.8633 29.2337C45.8726 29.717 45.6881 30.1797 45.3563 30.5245L35.1897 41.0891C34.5025 41.8033 33.3427 41.8255 32.6285 41.1383C31.9144 40.451 31.8921 39.2912 32.5793 38.5771L39.7126 31.1646L15.0913 31.6373C14.1006 31.6563 13.2633 30.8506 13.2443 29.8599C13.2253 28.8693 14.031 28.032 15.0217 28.013L39.643 27.5403L32.2305 20.4071C31.5164 19.7198 31.4941 18.56 32.1814 17.8459C32.5368 17.4765 32.9927 17.2985 33.4518 17.2897C33.9108 17.2809 34.3978 17.4649 34.7426 17.7967Z" fill="#FF9292"/>
</svg>
