<svg width="17" height="18" viewBox="0 0 17 18" fill="none" xmlns="http://www.w3.org/2000/svg">
<g clip-path="url(#clip0_30547_27147)">
<path d="M8.75831 1.82031C6.77419 1.82031 5.15975 3.43476 5.15975 5.41887C5.15975 7.40299 6.77419 9.01743 8.75831 9.01743C10.7424 9.01743 12.3569 7.40299 12.3569 5.41887C12.3569 3.43476 10.7424 1.82031 8.75831 1.82031ZM8.43116 3.12888H8.46247H9.05861H9.08481V3.70841C9.3246 3.75322 9.53346 3.86503 9.69245 4.03874C9.87401 4.23765 9.97711 4.51073 9.97678 4.76459H9.36978C9.3531 4.50517 9.23112 4.2202 8.76789 4.2202C8.34228 4.2202 8.14428 4.3872 8.14428 4.74542C8.14428 5.04476 8.41177 5.12113 8.88482 5.22974C9.41152 5.35079 10.0672 5.50117 10.0669 6.28337C10.0669 6.43222 10.0165 7.15391 9.08545 7.30505V7.70887H9.05861H8.46311H8.4318V7.29483C7.79518 7.17378 7.47384 6.78124 7.45421 6.09424L7.45357 6.07316H8.06121L8.06057 6.0936C8.05501 6.3105 8.11181 6.48029 8.22926 6.59773C8.42816 6.79664 8.74553 6.799 8.75894 6.799C9.36939 6.799 9.46051 6.47857 9.46051 6.28784C9.46051 5.96986 9.19302 5.89418 8.71997 5.78818C8.19294 5.67041 7.53727 5.52412 7.53727 4.71411C7.53727 4.62284 7.56489 3.85302 8.43116 3.70777V3.12888ZM4.96359 8.98485C4.14573 8.98485 3.42589 9.27915 0.743331 10.4896C0.57976 10.555 0.514332 10.7515 0.57976 10.9151L2.31387 14.775C2.34658 14.8731 2.4446 14.9384 2.51002 14.9712C2.60817 15.0039 2.70593 14.9713 2.77135 14.9386L3.65502 14.3501C4.04759 14.0884 4.21078 14.0552 4.73421 14.3169L5.42171 14.6772C6.23957 15.1025 7.35134 15.6913 7.67848 15.8548C8.20191 16.1165 8.62719 16.2146 8.98705 16.2146C9.64133 16.2146 10.0666 15.953 10.4592 15.6913C10.8518 15.4295 15.6285 12.3213 16.0538 12.0269C16.5773 11.667 16.9043 11.2423 16.9043 10.9151C16.937 9.99911 16.0537 9.77011 15.2686 10.2608L11.7678 12.616C11.2116 12.9431 10.7212 12.9105 10.394 12.9105H8.43116C7.54788 12.9105 6.46844 12.5834 6.43573 12.5834C6.33758 12.5507 6.30461 12.4527 6.33733 12.3872C6.37004 12.2891 6.43534 12.2561 6.53349 12.2889H6.56671C6.66485 12.3216 7.74442 12.616 8.52956 12.616H10.394C10.6557 12.616 10.8523 12.5506 10.9831 12.4524C11.114 12.3543 11.2116 12.2561 11.277 12.1253C11.277 12.0926 11.3103 12.0928 11.3103 12.0601V12.0269C11.343 11.9287 11.3429 11.8637 11.3429 11.7656C11.3429 11.373 11.0157 10.9804 10.3614 10.9477C9.838 10.915 9.11842 10.7841 8.52956 10.6206C8.20242 10.5224 7.97291 10.424 7.84205 10.3586C7.74391 10.2932 7.64577 10.1949 7.51491 10.064C7.12234 9.63875 6.53387 8.98485 4.96359 8.98485ZM12.0623 8.98485C11.7025 8.98485 11.3103 9.11558 10.9831 9.34457C10.7541 9.47543 9.7727 10.0971 9.18385 10.457C9.60913 10.5551 10.0669 10.6206 10.394 10.6206C10.623 10.6206 10.8521 10.6861 11.0157 10.7515L13.1421 9.31199C13.1421 9.31199 12.6512 8.98485 12.0623 8.98485ZM14.2213 9.34457C13.8942 9.34457 13.5021 9.47543 12.946 9.83529L11.3103 10.9477C11.572 11.1767 11.7026 11.4711 11.7026 11.7656C11.7026 11.9618 11.6373 12.191 11.5064 12.3872L11.539 12.354L11.5716 12.3214L15.1702 9.93369C15.072 9.5084 14.5485 9.34457 14.2213 9.34457Z" fill="black"/>
</g>
<defs>
<clipPath id="clip0_30547_27147">
<rect width="16.3571" height="16.3571" fill="white" transform="translate(0.578125 0.835938)"/>
</clipPath>
</defs>
</svg>
