<svg width="24" height="24" viewBox="0 0 24 24" fill="none" xmlns="http://www.w3.org/2000/svg">
<path d="M12.1331 3.03125C7.16486 3.03125 3.13672 7.05939 3.13672 12.0277C3.13672 16.9959 7.16486 21.0241 12.1331 21.0241C17.1014 21.0241 21.1295 16.9959 21.1295 12.0277C21.1295 7.05939 17.1014 3.03125 12.1331 3.03125ZM12.8828 12.7774H6.88147C6.46914 12.7774 6.13552 12.4437 6.13552 12.0314V12.0232C6.13552 11.6116 6.46914 11.278 6.88147 11.278H11.3834V5.2766C11.3834 4.86427 11.717 4.53065 12.1294 4.53065H12.1376C12.5492 4.53065 12.8828 4.86427 12.8828 5.2766V12.7774Z" fill="black"/>
</svg>
