<svg width="17" height="18" viewBox="0 0 17 18" fill="none" xmlns="http://www.w3.org/2000/svg">
<g clip-path="url(#clip0_30547_27124)">
<path d="M10.849 2.47656C9.86755 2.47656 9.08036 3.19602 8.91679 4.11227C9.57107 4.11227 10.1666 4.37424 10.6241 4.76656V4.2145H10.2254L10.7161 3.72379H11.1148V5.19593H11.0125C11.2413 5.52307 11.4049 5.90772 11.5033 6.30003C12.2879 6.03806 12.8425 5.32244 12.8425 4.43941C12.8093 3.35959 11.9288 2.47656 10.849 2.47656ZM8.88612 4.43941C7.61078 4.43941 6.59613 5.45406 6.59613 6.72941C6.59613 8.00475 7.61078 9.0194 8.88612 9.0194C10.1615 9.0194 11.1761 8.00475 11.1761 6.72941C11.1761 5.45406 10.1615 4.43941 8.88612 4.43941ZM8.72255 5.85021H9.18259V7.6086H8.58965V6.43293H8.1296L8.72255 5.85021ZM4.76618 9.0194C3.94832 9.0194 3.22631 9.31204 0.544003 10.5222C0.380432 10.5874 0.315259 10.788 0.380432 10.9516L2.11837 14.8057C2.1516 14.9041 2.24744 14.977 2.31261 15.0102C2.41101 15.0434 2.50302 15.0025 2.56819 14.9693L3.45761 14.3866C3.84992 14.1246 4.00711 14.0939 4.53104 14.3559L5.22622 14.7137C6.04408 15.1393 7.14818 15.7258 7.47532 15.8894C7.99926 16.1513 8.42352 16.2472 8.78389 16.2472C9.43817 16.2472 9.86371 15.9878 10.256 15.7258C10.6483 15.4638 15.4328 12.3598 15.8583 12.0659C16.3823 11.7055 16.7069 11.2787 16.7069 10.9516C16.7401 10.0353 15.8558 9.80658 15.0711 10.2973L11.5646 12.6486C11.0087 12.9758 10.5218 12.9451 10.1947 12.9451H8.23184C7.34881 12.9451 6.27154 12.618 6.23832 12.618C6.13992 12.5847 6.10286 12.4889 6.13608 12.4237C6.16931 12.3253 6.23193 12.2883 6.33032 12.3215H6.37122C6.46962 12.3547 7.54944 12.6486 8.33407 12.6486H10.1947C10.4567 12.6486 10.6573 12.5835 10.7876 12.4851C10.918 12.3867 11.0087 12.2883 11.0739 12.1579C11.0739 12.1247 11.1148 12.1298 11.1148 12.0966V12.0659C11.148 11.9675 11.1454 11.8985 11.1454 11.8001C11.1454 11.4078 10.8183 11.0155 10.164 10.9823C9.64008 10.949 8.92318 10.8187 8.33407 10.6551C8.00693 10.5567 7.76924 10.4545 7.63889 10.3893C7.54049 10.3241 7.4421 10.2334 7.31175 10.1031C6.91944 9.67752 6.33671 9.0194 4.76618 9.0194ZM11.8611 9.0194C11.5007 9.0194 11.1148 9.14847 10.7876 9.37721C10.5589 9.50756 9.57746 10.1312 8.98835 10.4915C9.41389 10.5899 9.86755 10.6551 10.1947 10.6551C10.4234 10.6551 10.6547 10.7228 10.8183 10.788L12.9447 9.34654C12.9447 9.34654 12.4502 9.0194 11.8611 9.0194ZM14.0182 9.37721C13.691 9.37721 13.3064 9.50756 12.7505 9.86792L11.1148 10.9823C11.3767 11.211 11.5033 11.5062 11.5033 11.8001C11.5033 11.9969 11.4394 12.2269 11.309 12.4237L11.3397 12.393L11.3704 12.3522L14.9689 9.97015C14.8705 9.54461 14.3453 9.37721 14.0182 9.37721Z" fill="black"/>
</g>
<defs>
<clipPath id="clip0_30547_27124">
<rect width="16.3571" height="16.3571" fill="white" transform="translate(0.378906 0.835938)"/>
</clipPath>
</defs>
</svg>
