<svg width="20" height="20" viewBox="0 0 20 20" fill="none" xmlns="http://www.w3.org/2000/svg">
<g clip-path="url(#clip0_30547_27137)">
<path d="M10.7178 10.9457L17.6331 4.49219H2.34375L9.25851 10.9457C9.66764 11.3284 10.3092 11.3284 10.7178 10.9457Z" fill="black"/>
<path d="M6.24791 9.81527L1.39844 5.28906V14.6647L6.24791 9.81527Z" fill="black"/>
<path d="M14.8949 9.39817C16.3106 9.39817 17.5981 9.9355 18.5752 10.812V5.28906L14.1055 9.46073C14.3637 9.42393 14.6262 9.39817 14.8949 9.39817Z" fill="black"/>
<path d="M9.37628 14.9224C9.37628 14.0354 9.59035 13.2006 9.96207 12.4578C9.40756 12.451 8.8549 12.2486 8.42246 11.845L7.14844 10.6562L2.26953 15.5358H9.41247C9.38977 15.334 9.37628 15.1297 9.37628 14.9224Z" fill="black"/>
<path d="M14.8953 10.625C12.5239 10.625 10.6016 12.5474 10.6016 14.9187C10.6016 17.2901 12.5239 19.2125 14.8953 19.2125C17.2667 19.2125 19.189 17.2901 19.189 14.9187C19.189 12.5474 17.2667 10.625 14.8953 10.625ZM14.8953 17.3723V15.5321H13.0551C12.7165 15.5321 12.4417 15.2579 12.4417 14.9187C12.4417 14.5795 12.7165 14.3053 13.0551 14.3053H14.8953V12.4652L17.3489 14.9187L14.8953 17.3723Z" fill="black"/>
</g>
<defs>
<clipPath id="clip0_30547_27137">
<rect width="18.4017" height="18.4017" fill="white" transform="translate(0.785156 0.8125)"/>
</clipPath>
</defs>
</svg>
