<svg width="38" height="38" viewBox="0 0 38 38" fill="none" xmlns="http://www.w3.org/2000/svg">
<g clip-path="url(#clip0_36218_24670)">
<path d="M36.0868 18.7539C36.0378 19.8813 35.8662 21.0149 35.5721 22.1545C35.278 23.282 34.8369 24.3175 34.2486 25.2611C33.6604 26.2047 32.8945 26.9645 31.9509 27.5405C31.0195 28.1042 29.8921 28.386 28.5686 28.386C27.723 28.386 26.9816 28.239 26.3444 27.9449C25.7194 27.6385 25.2047 27.2034 24.8003 26.6397C24.4082 26.076 24.1324 25.3959 23.9731 24.5993C23.8261 23.8028 23.8016 22.9143 23.8996 21.934L24.8371 11.7504H27.5392L26.6017 21.934C26.5282 22.8285 26.5466 23.5577 26.6569 24.1214C26.7794 24.6851 26.9633 25.1202 27.2084 25.4265C27.4534 25.7206 27.7292 25.9228 28.0355 26.0331C28.3542 26.1434 28.6605 26.1986 28.9546 26.1986C29.6899 26.1986 30.3455 26.0086 30.9215 25.6287C31.4975 25.2366 31.9815 24.7035 32.3737 24.0295C32.7781 23.3432 33.0906 22.5528 33.3112 21.6582C33.5317 20.7514 33.6665 19.7833 33.7156 18.7539C33.8013 16.9279 33.7156 15.2491 33.4582 13.7172C33.2131 12.1854 32.7903 10.8251 32.1899 9.63645C31.6016 8.44775 30.8296 7.44287 29.8737 6.62181C28.9179 5.80075 27.7782 5.17577 26.4547 4.74686C25.1312 4.31794 23.6177 4.10349 21.9144 4.10349C20.3703 4.10349 18.9426 4.34245 17.6314 4.82038C16.3324 5.28606 15.1621 5.96006 14.1204 6.8424C13.091 7.72473 12.2026 8.78475 11.455 10.0225C10.7198 11.2602 10.1377 12.6572 9.70875 14.2136C9.29209 15.7576 9.047 17.4243 8.97347 19.2134C8.88769 21.0516 8.98573 22.7428 9.26758 24.2868C9.54944 25.8187 10.0029 27.1851 10.6278 28.386C11.2651 29.5992 12.0678 30.6225 13.0359 31.4558C14.004 32.3014 15.1253 32.9386 16.3998 33.3675C17.6743 33.8087 19.0958 34.0293 20.6644 34.0293C21.7428 34.0293 22.8335 33.9006 23.9364 33.6433C25.0515 33.3859 25.9829 33.0366 26.7304 32.5955L27.4289 34.691C26.5711 35.2425 25.4988 35.653 24.2121 35.9226C22.9376 36.1922 21.7305 36.327 20.5909 36.327C18.7282 36.327 17.0248 36.0697 15.4807 35.555C13.9488 35.0525 12.5886 34.3111 11.3999 33.3308C10.2234 32.3626 9.24308 31.1801 8.45878 29.783C7.67448 28.3983 7.09852 26.8174 6.73088 25.0405C6.36324 23.2636 6.22231 21.3212 6.30809 19.2134C6.39388 17.2037 6.69411 15.3103 7.20881 13.5334C7.73576 11.7565 8.45265 10.145 9.35949 8.69897C10.2663 7.25293 11.3447 6.00908 12.5947 4.96744C13.8569 3.91354 15.2723 3.10474 16.8409 2.54102C18.4218 1.97731 20.1374 1.69545 21.9879 1.69545C23.8751 1.69545 25.5846 1.9528 27.1164 2.4675C28.6483 2.98219 29.9901 3.72359 31.1421 4.69171C32.3063 5.65982 33.2683 6.8424 34.028 8.23942C34.7878 9.63645 35.3393 11.2173 35.6824 12.982C36.0378 14.7466 36.1726 16.6706 36.0868 18.7539ZM17.2086 20.3164C17.1228 21.1742 17.1228 21.9401 17.2086 22.6141C17.2944 23.2881 17.4598 23.8579 17.7049 24.3236C17.95 24.7893 18.2686 25.1447 18.6608 25.3898C19.0652 25.6226 19.537 25.739 20.0762 25.739C20.4315 25.739 20.8053 25.6532 21.1975 25.4817C21.5896 25.2979 21.9756 25.016 22.3555 24.6361C22.7354 24.2562 23.0908 23.7599 23.4217 23.1472C23.7525 22.5344 24.0283 21.7992 24.2489 20.9413L25.4621 22.2648C25.1802 23.2697 24.8126 24.152 24.3592 24.9118C23.918 25.6716 23.4217 26.3089 22.8702 26.8236C22.3188 27.3383 21.7305 27.7304 21.1055 28C20.4928 28.2573 19.8678 28.386 19.2306 28.386C18.336 28.386 17.5517 28.1961 16.8777 27.8162C16.2037 27.424 15.6584 26.8726 15.2417 26.1618C14.8251 25.451 14.5309 24.6055 14.3594 23.6251C14.2001 22.6325 14.1756 21.5296 14.2859 20.3164C14.3961 19.0296 14.6229 17.8409 14.966 16.7503C15.3091 15.6596 15.7319 14.6854 16.2343 13.8275C16.749 12.9697 17.325 12.2406 17.9622 11.6401C18.6117 11.0396 19.298 10.5862 20.021 10.2798C20.744 9.9612 21.4854 9.80189 22.2452 9.80189C23.5687 9.80189 24.6104 9.99796 25.3702 10.3901C26.1299 10.77 26.853 11.2234 27.5392 11.7504L25.9768 13.5702C25.6214 13.2271 25.1557 12.9084 24.5797 12.6143C24.0038 12.3202 23.3236 12.1732 22.5393 12.1732C21.8653 12.1732 21.2342 12.3447 20.646 12.6879C20.0578 13.031 19.5247 13.5457 19.0468 14.2319C18.5811 14.9182 18.1889 15.7699 17.8703 16.787C17.5517 17.7919 17.3311 18.9683 17.2086 20.3164Z" fill="#FF4F4F"/>
</g>
<defs>
<clipPath id="clip0_36218_24670">
<rect width="37.4054" height="37.4054" fill="white" transform="translate(0.519531 0.296875)"/>
</clipPath>
</defs>
</svg>
