<svg width="37" height="37" viewBox="0 0 37 37" fill="none" xmlns="http://www.w3.org/2000/svg">
<path fill-rule="evenodd" clip-rule="evenodd" d="M18.4012 2.49855e-07H18.5988C22.5714 -1.69594e-05 25.6845 -3.42346e-05 28.1136 0.326547C30.5999 0.66082 32.5619 1.35838 34.1018 2.89829C35.6417 4.43819 36.3392 6.40009 36.6735 8.88638C37 11.3154 37 14.4287 37 18.4012V18.5988C37 22.5714 37 25.6845 36.6735 28.1136C36.3392 30.5999 35.6417 32.5619 34.1018 34.1018C32.5619 35.6417 30.5999 36.3392 28.1136 36.6735C25.6845 37 22.5714 37 18.5988 37H18.4012C14.4287 37 11.3154 37 8.88637 36.6735C6.40009 36.3392 4.43819 35.6417 2.89829 34.1018C1.35838 32.5619 0.66082 30.5999 0.326547 28.1136C-3.42346e-05 25.6845 -1.69594e-05 22.5714 2.49855e-07 18.5988V18.4012C-1.69594e-05 14.4287 -3.42346e-05 11.3154 0.326547 8.88638C0.66082 6.40009 1.35838 4.43819 2.89829 2.89829C4.43819 1.35838 6.40009 0.66082 8.88637 0.326547C11.3154 -3.42346e-05 14.4287 -1.69594e-05 18.4012 2.49855e-07ZM9.23035 2.88492C7.03029 3.18071 5.70394 3.74326 4.72361 4.72361C3.74326 5.70394 3.18071 7.03029 2.88492 9.23035C2.58413 11.4675 2.5814 14.4072 2.5814 18.5C2.5814 22.5927 2.58413 25.5324 2.88492 27.7696C3.18071 29.9697 3.74326 31.296 4.72361 32.2764C5.70394 33.2568 7.03029 33.8194 9.23035 34.115C11.4675 34.4159 14.4072 34.4186 18.5 34.4186C22.5927 34.4186 25.5324 34.4159 27.7696 34.115C29.9697 33.8194 31.296 33.2568 32.2764 32.2764C33.2568 31.296 33.8194 29.9697 34.115 27.7696C34.4159 25.5324 34.4186 22.5927 34.4186 18.5C34.4186 14.4072 34.4159 11.4675 34.115 9.23035C33.8194 7.03029 33.2568 5.70394 32.2764 4.72361C31.296 3.74326 29.9697 3.18071 27.7696 2.88492C25.5324 2.58413 22.5927 2.5814 18.5 2.5814C14.4072 2.5814 11.4675 2.58413 9.23035 2.88492Z" fill="#FF4F4F"/>
<path d="M9 12.5C9 11.7991 9.55307 11.2308 10.2353 11.2308H18.3528L16.0328 9.24432C15.5087 8.79555 15.4379 7.99523 15.8745 7.45672C16.3113 6.91821 17.0902 6.84546 17.6143 7.29421L22.5555 11.525C22.8371 11.7661 23 12.1233 23 12.5C23 12.8767 22.8371 13.2339 22.5555 13.4751L17.6143 17.7059C17.0902 18.1545 16.3113 18.0818 15.8745 17.5433C15.4379 17.0048 15.5087 16.2045 16.0328 15.7557L18.3528 13.7693H10.2353C9.55307 13.7693 9 13.201 9 12.5Z" fill="#FF4F4F"/>
<path d="M9 24.5C9 23.799 9.55307 23.2308 10.2353 23.2308H18.3528L16.0328 21.2443C15.5087 20.7955 15.4379 19.9952 15.8745 19.4567C16.3113 18.9182 17.0902 18.8455 17.6143 19.2941L22.5555 23.5249C22.8371 23.766 23 24.1233 23 24.5C23 24.8767 22.8371 25.234 22.5555 25.4751L17.6143 29.7059C17.0902 30.1545 16.3113 30.0818 15.8745 29.5433C15.4379 29.0048 15.5087 28.2045 16.0328 27.7557L18.3528 25.7692H10.2353C9.55307 25.7692 9 25.201 9 24.5Z" fill="#FF4F4F"/>
<path d="M26 28.7222C26 29.4279 26.4477 30 27 30C27.5523 30 28 29.4279 28 28.7222V8.27778C28 7.57209 27.5523 7 27 7C26.4477 7 26 7.57209 26 8.27778V28.7222Z" fill="#FF4F4F"/>
</svg>
