<svg width="38" height="38" viewBox="0 0 38 38" fill="none" xmlns="http://www.w3.org/2000/svg">
<path fill-rule="evenodd" clip-rule="evenodd" d="M11.0687 2.1797C11.1152 2.1797 11.1624 2.17972 11.2102 2.17972L11.268 2.1797C11.8176 2.17967 12.1712 2.17965 12.517 2.21198C13.9273 2.34387 15.2689 2.87606 16.3845 3.74352H26.1449C26.1755 3.74352 26.2057 3.7435 26.2354 3.7435C26.8745 3.74339 27.3097 3.74333 27.6923 3.79369C30.3237 4.14013 32.3944 6.21084 32.7408 8.84233C32.754 8.94152 32.7637 9.04425 32.7707 9.15317C33.2047 9.35096 33.6066 9.60672 33.9759 9.93904C34.1298 10.0774 34.2762 10.2238 34.4146 10.3776C35.2407 11.2961 35.5937 12.4141 35.7591 13.7299C35.9186 14.9996 35.9186 16.6044 35.9186 18.5949V22.2064C35.9186 25.0803 35.9186 27.3566 35.6792 29.1381C35.4328 30.9716 34.9133 32.4555 33.7431 33.6259C32.5727 34.7961 31.0888 35.3156 29.2553 35.562C27.4738 35.8015 25.1975 35.8014 22.3236 35.8014H15.892C13.0181 35.8014 10.7417 35.8015 8.96022 35.562C7.12679 35.3156 5.64282 34.7961 4.47253 33.6259C3.30224 32.4555 2.78287 30.9716 2.53637 29.1381C2.29686 27.3566 2.29687 25.0803 2.2969 22.2064V11.093C2.2969 11.0452 2.29689 10.998 2.29689 10.9515C2.29672 9.70686 2.29659 8.91475 2.42568 8.23059C2.99261 5.22578 5.34297 2.87542 8.34777 2.30849C9.03194 2.1794 9.82405 2.17953 11.0687 2.1797ZM30.2849 8.55637C29.8816 7.26658 28.7614 6.3004 27.3861 6.11933C27.1767 6.09174 26.9085 6.08922 26.1449 6.08922H18.8127C19.818 7.08859 20.2742 7.50597 20.7917 7.79382C21.1326 7.98349 21.4941 8.13329 21.8694 8.24023C22.5158 8.42447 23.2243 8.43493 25.0946 8.43493H25.7586C27.5762 8.4349 29.072 8.43488 30.2849 8.55637ZM11.2102 4.52542C9.77673 4.52542 9.22253 4.53053 8.78268 4.61352C6.72677 5.00143 5.11861 6.60958 4.73071 8.66549C4.64772 9.10535 4.64261 9.65954 4.64261 11.093V22.1182C4.64261 25.1 4.64509 27.2185 4.86116 28.8256C5.07268 30.399 5.46937 31.3054 6.13119 31.9672C6.79301 32.629 7.69947 33.0257 9.27279 33.2373C10.8799 33.4532 12.9983 33.4557 15.9801 33.4557H22.2354C25.2172 33.4557 27.3357 33.4532 28.9428 33.2373C30.5162 33.0257 31.4225 32.629 32.0843 31.9672C32.7462 31.3054 33.1429 30.399 33.3545 28.8256C33.5704 27.2185 33.5729 25.1 33.5729 22.1182V18.6745C33.5729 16.5856 33.5707 15.1288 33.4317 14.0226C33.2963 12.9457 33.0476 12.3656 32.6705 11.9462C32.5874 11.8539 32.4997 11.7661 32.4073 11.6831C31.988 11.3059 31.408 11.0573 30.331 10.9219C29.2248 10.7828 27.7681 10.7806 25.679 10.7806H25.0946C25.0364 10.7806 24.9791 10.7806 24.9223 10.7806C23.2834 10.781 22.2266 10.7812 21.2264 10.4961C20.678 10.3398 20.1494 10.1208 19.6512 9.84362C18.7423 9.33795 17.9951 8.59049 16.8365 7.43145C16.7965 7.39129 16.7558 7.35065 16.7147 7.30951L15.8542 6.44901C15.4112 6.00603 15.2417 5.83822 15.0689 5.695C14.2819 5.04259 13.3164 4.64267 12.2986 4.54749C12.0752 4.52659 11.8367 4.52542 11.2102 4.52542ZM19.4987 15.863C19.4987 15.2152 20.0238 14.6901 20.6716 14.6901H28.4906C29.1383 14.6901 29.6634 15.2152 29.6634 15.863C29.6634 16.5107 29.1383 17.0358 28.4906 17.0358H20.6716C20.0238 17.0358 19.4987 16.5107 19.4987 15.863Z" fill="#FF4F4F"/>
</svg>
