<svg width="47" height="46" viewBox="0 0 47 46" fill="none" xmlns="http://www.w3.org/2000/svg">
<path d="M2.83789 33.5443C2.83789 36.1792 4.9946 38.3359 7.62956 38.3359L39.2546 38.3359C41.8895 38.3359 44.0462 36.1792 44.0462 33.5443L44.0462 12.4609C44.0462 9.82599 41.8895 7.66927 39.2546 7.66927L11.2982 7.66927C10.5359 7.66927 9.80434 7.97268 9.26546 8.51156L3.68018 14.0968C3.1413 14.6357 2.83789 15.3673 2.83789 16.1296L2.83789 33.5443ZM4.75456 33.5443L4.75456 16.1296C4.75456 15.876 4.85544 15.6319 5.03532 15.452L10.6206 9.8667C10.8005 9.68682 11.0446 9.58594 11.2982 9.58594L39.2546 9.58594C40.8535 9.58594 42.1296 10.862 42.1296 12.4609L42.1296 33.5443C42.1296 35.1432 40.8535 36.4193 39.2546 36.4193L7.62956 36.4193C6.03059 36.4193 4.75456 35.1432 4.75456 33.5443ZM18.1581 25.8926C18.1591 25.939 18.1635 25.9853 18.1712 26.0311L18.1712 28.7526C18.1712 30.8584 19.8988 32.5859 22.0046 32.5859L31.4269 32.5859C31.5304 32.603 31.636 32.603 31.7395 32.5859L35.4212 32.5859C37.527 32.5859 39.2546 30.8584 39.2546 28.7526L39.2546 26.0386C39.2717 25.9351 39.2717 25.8295 39.2546 25.726L39.2546 20.2886C39.2717 20.1851 39.2717 20.0795 39.2546 19.976L39.2546 17.2526C39.2546 15.1468 37.527 13.4193 35.4212 13.4193L31.7489 13.4193C31.6454 13.4022 31.5398 13.4022 31.4363 13.4193L25.9989 13.4193C25.8954 13.4022 25.7898 13.4022 25.6863 13.4193L22.0046 13.4193C19.8988 13.4193 18.1712 15.1468 18.1712 17.2526L18.1712 19.9666C18.1541 20.0701 18.1541 20.1757 18.1712 20.2792L18.1712 25.7297C18.1622 25.7835 18.1578 25.838 18.1581 25.8926ZM20.0879 28.7526L20.0879 26.8359L25.8379 26.8359C26.092 26.8359 26.3358 26.7349 26.5155 26.5552C26.6952 26.3755 26.7962 26.1318 26.7962 25.8776L26.7962 20.2886C26.8133 20.1851 26.8133 20.0795 26.7962 19.976L26.7962 15.3359L30.6296 15.3359L30.6296 19.9666C30.6124 20.0701 30.6124 20.1757 30.6296 20.2792L30.6296 25.7166C30.6198 25.7748 30.6154 25.8337 30.6165 25.8926C30.6175 25.9384 30.6219 25.984 30.6296 26.0292L30.6296 30.6693L22.0046 30.6693C20.9344 30.6693 20.0879 29.8227 20.0879 28.7526ZM20.0879 24.9193L20.0879 21.0859L24.8796 21.0859L24.8796 24.9193L20.0879 24.9193ZM20.0879 19.1693L20.0879 17.2526C20.0879 16.1825 20.9344 15.3359 22.0046 15.3359L24.8796 15.3359L24.8796 19.1693L20.0879 19.1693ZM32.5462 30.6693L32.5462 26.8359L37.3379 26.8359L37.3379 28.7526C37.3379 29.8227 36.4914 30.6693 35.4212 30.6693L32.5462 30.6693ZM32.5462 24.9193L32.5462 21.0859L37.3379 21.0859L37.3379 24.9193L32.5462 24.9193ZM32.5462 19.1693L32.5462 15.3359L35.4212 15.3359C36.4914 15.3359 37.3379 16.1825 37.3379 17.2526L37.3379 19.1693L32.5462 19.1693Z" fill="#FF4F4F"/>
</svg>
