<svg width="31" height="31" viewBox="0 0 31 31" fill="none" xmlns="http://www.w3.org/2000/svg">
<path fill-rule="evenodd" clip-rule="evenodd" d="M15.0404 2.0422e-07C11.7934 -1.38619e-05 9.24875 -2.79908e-05 7.26334 0.266905C5.23115 0.540126 3.62759 1.11028 2.36893 2.36893C1.11028 3.62759 0.540126 5.23115 0.266905 7.26334C-2.79908e-05 9.24875 -1.38619e-05 11.7934 2.0422e-07 15.0404V15.2018C-1.38619e-05 18.4489 -2.79908e-05 20.9934 0.266905 22.9789C0.540126 25.011 1.11028 26.6147 2.36893 27.8733C3.62759 29.1319 5.23115 29.702 7.26334 29.9754C9.24875 30.2422 11.7934 30.2422 15.0404 30.2422H15.2018C18.4489 30.2422 20.9934 30.2422 22.9789 29.9754C25.011 29.702 26.6147 29.1319 27.8733 27.8733C29.1319 26.6147 29.702 25.011 29.9754 22.9789C30.2422 20.9934 30.2422 18.4489 30.2422 15.2018V15.0404C30.2422 11.7934 30.2422 9.24875 29.9754 7.26334C29.702 5.23115 29.1319 3.62759 27.8733 2.36893C26.6147 1.11028 25.011 0.540126 22.9789 0.266905C20.9934 -2.79908e-05 18.4489 -1.38619e-05 15.2018 2.0422e-07H15.0404ZM14.0661 2.11031C11.2618 2.11327 9.17486 2.13881 7.54448 2.358C5.74625 2.59977 4.66215 3.05958 3.86087 3.86087C3.05958 4.66215 2.59977 5.74625 2.358 7.54448C2.13881 9.17486 2.11327 11.2618 2.11031 14.0661H7.96672C7.47304 13.4495 7.10417 12.7221 6.90304 11.9176C6.14592 8.88911 8.88911 6.14592 11.9176 6.90304C12.7221 7.10417 13.4495 7.47304 14.0661 7.96672V2.11031ZM2.11031 16.1761C2.11327 18.9804 2.13881 21.0673 2.358 22.6977C2.59977 24.4959 3.05958 25.58 3.86087 26.3813C4.66215 27.1827 5.74625 27.6425 7.54448 27.8841C9.17486 28.1034 11.2618 28.1289 14.0661 28.1318V18.1082C12.9695 20.2987 10.7044 21.8025 8.08803 21.8025C7.50539 21.8025 7.03307 21.3302 7.03307 20.7475C7.03307 20.1649 7.50539 19.6926 8.08803 19.6926C10.2497 19.6926 12.0609 18.1923 12.5371 16.1761H12.3572H12.3443H2.11031ZM16.1761 28.1318C18.9804 28.1289 21.0673 28.1034 22.6977 27.8841C24.4959 27.6425 25.58 27.1827 26.3813 26.3813C27.1827 25.58 27.6425 24.4959 27.8841 22.6977C28.1034 21.0673 28.1289 18.9804 28.1318 16.1761H17.8979H17.8849H17.705C18.1813 18.1923 19.9925 19.6926 22.1542 19.6926C22.7368 19.6926 23.2091 20.1649 23.2091 20.7475C23.2091 21.3302 22.7368 21.8025 22.1542 21.8025C19.5379 21.8025 17.2726 20.2987 16.1761 18.1082V28.1318ZM28.1318 14.0661H22.2756C22.7691 13.4495 23.1381 12.7221 23.3392 11.9176C24.0963 8.88911 21.3531 6.14592 18.3247 6.90304C17.5201 7.10417 16.7927 7.47304 16.1761 7.96672V2.11031C18.9804 2.11327 21.0673 2.13881 22.6977 2.358C24.4959 2.59977 25.58 3.05958 26.3813 3.86087C27.1827 4.66215 27.6425 5.74625 27.8841 7.54448C28.1034 9.17486 28.1289 11.2618 28.1318 14.0661ZM16.1761 14.0661V12.3488C16.1799 10.7407 17.2756 9.34015 18.8364 8.94996C20.3195 8.57916 21.6631 9.92264 21.2922 11.4058C20.9021 12.966 19.5026 14.0615 17.8952 14.0661H16.1761ZM14.0661 12.3465C14.0614 10.7394 12.9659 9.33997 11.4058 8.94996C9.92264 8.57916 8.57916 9.92264 8.94996 11.4058C9.34 12.966 10.7397 14.0615 12.347 14.0661H14.0661V12.3465Z" fill="#FF4F4F"/>
</svg>
