<svg width="39" height="39" viewBox="0 0 39 39" fill="none" xmlns="http://www.w3.org/2000/svg">
<path d="M19.2737 2.61719H21.7396C22.3954 2.61719 22.9271 3.14886 22.9271 3.80469C22.9271 4.46052 22.3954 4.99219 21.7396 4.99219H19.3646C15.5991 4.99219 12.8944 4.9947 10.8361 5.27144C8.81194 5.54358 7.59163 6.06116 6.68968 6.96312C5.78772 7.86507 5.27015 9.08537 4.998 11.1095C4.72127 13.1678 4.71875 15.8725 4.71875 19.638C4.71875 23.4035 4.72127 26.1082 4.998 28.1665C5.27015 30.1906 5.78772 31.4109 6.68968 32.3129C7.59163 33.2149 8.81194 33.7325 10.8361 34.0046C12.8944 34.2813 15.5991 34.2839 19.3646 34.2839C23.1301 34.2839 25.8347 34.2813 27.893 34.0046C29.9172 33.7325 31.1375 33.2149 32.0395 32.3129C32.9415 31.4109 33.4591 30.1906 33.7311 28.1665C34.0079 26.1082 34.0104 23.4035 34.0104 19.638V17.263C34.0104 16.6072 34.5421 16.0755 35.1979 16.0755C35.8537 16.0755 36.3854 16.6072 36.3854 17.263V19.7289C36.3854 23.3839 36.3854 26.2481 36.0851 28.483C35.7774 30.7704 35.1357 32.5756 33.7189 33.9924C32.3022 35.4091 30.497 36.0509 28.2096 36.3585C25.9747 36.6589 23.1104 36.6589 19.4555 36.6589H19.2737C15.6188 36.6589 12.7545 36.6589 10.5196 36.3585C8.23212 36.0509 6.42709 35.4091 5.0103 33.9924C3.59352 32.5756 2.95173 30.7704 2.64419 28.483C2.34372 26.2481 2.34373 23.3839 2.34375 19.7289V19.5471C2.34373 15.8922 2.34372 13.0279 2.64419 10.7931C2.95173 8.50556 3.59352 6.70052 5.0103 5.28374C6.42709 3.86696 8.23212 3.22517 10.5196 2.91763C12.7545 2.61716 15.6188 2.61717 19.2737 2.61719Z" fill="#FF4F4F"/>
<path fill-rule="evenodd" clip-rule="evenodd" d="M24.5156 8.55469C24.5156 5.27549 27.1739 2.61719 30.4531 2.61719C33.7324 2.61719 36.3906 5.27549 36.3906 8.55469C36.3906 11.8339 33.7324 14.4922 30.4531 14.4922C27.1739 14.4922 24.5156 11.8339 24.5156 8.55469ZM30.4531 4.99219C28.4857 4.99219 26.8906 6.58717 26.8906 8.55469C26.8906 10.5222 28.4857 12.1172 30.4531 12.1172C32.4206 12.1172 34.0156 10.5222 34.0156 8.55469C34.0156 6.58717 32.4206 4.99219 30.4531 4.99219Z" fill="#FF4F4F"/>
<path d="M22.1406 16.4766C22.1406 17.1324 22.6723 17.6641 23.3281 17.6641H24.4195L21.2331 20.8507C21.0784 21.0052 20.8279 21.0052 20.6732 20.8507L18.1623 18.3398C17.0803 17.2578 15.3259 17.2578 14.2438 18.3398L10.6134 21.9703C10.1497 22.434 10.1497 23.1858 10.6134 23.6495C11.0772 24.1133 11.8291 24.1133 12.2928 23.6495L15.9232 20.0191C16.0778 19.8646 16.3284 19.8646 16.4831 20.0191L18.9939 22.53C20.076 23.612 21.8303 23.612 22.9123 22.53L26.099 19.3435V20.4349C26.099 21.0907 26.6306 21.6224 27.2865 21.6224C27.9423 21.6224 28.474 21.0907 28.474 20.4349V16.4766C28.474 15.8207 27.9423 15.2891 27.2865 15.2891H23.3281C22.6723 15.2891 22.1406 15.8207 22.1406 16.4766Z" fill="#FF4F4F"/>
</svg>
