<svg width="38" height="38" viewBox="0 0 38 38" fill="none" xmlns="http://www.w3.org/2000/svg">
<path fill-rule="evenodd" clip-rule="evenodd" d="M18.9993 1.97656C14.8457 1.97656 11.4785 5.34376 11.4785 9.4974C11.4785 13.651 14.8457 17.0182 18.9993 17.0182C23.153 17.0182 26.5201 13.651 26.5201 9.4974C26.5201 5.34376 23.153 1.97656 18.9993 1.97656ZM13.8535 9.4974C13.8535 6.65542 16.1574 4.35156 18.9993 4.35156C21.8414 4.35156 24.1451 6.65542 24.1451 9.4974C24.1451 12.3394 21.8414 14.6432 18.9993 14.6432C16.1574 14.6432 13.8535 12.3394 13.8535 9.4974Z" fill="#FF4F4F"/>
<path d="M31.4379 23.0697C31.9086 23.5265 31.9199 24.2783 31.4631 24.7489L28.5605 27.7396C28.326 27.9812 28 28.112 27.6635 28.0994C27.3271 28.0865 27.0118 27.9317 26.7962 27.673L25.4765 26.0896C25.0566 25.5858 25.1247 24.8371 25.6283 24.4172C26.1321 23.9973 26.8811 24.0652 27.301 24.569L27.7755 25.1384L29.7588 23.0949C30.2156 22.6242 30.9673 22.6129 31.4379 23.0697Z" fill="#FF4F4F"/>
<path fill-rule="evenodd" clip-rule="evenodd" d="M23.3941 19.8121C22.0123 19.5417 20.5343 19.3958 19.0008 19.3958C15.3377 19.3958 11.9628 20.2285 9.46198 21.6351C6.99838 23.021 5.14669 25.1213 5.14669 27.7083L5.14659 27.8698C5.1448 29.7093 5.14255 32.0182 7.16768 33.6672C8.16435 34.4788 9.55861 35.056 11.4424 35.4374C13.3313 35.8196 15.7934 36.0208 19.0008 36.0208C23.542 36.0208 26.6165 35.6188 28.6902 34.8468C30.5568 34.152 31.6632 33.1338 32.2539 31.8522C34.5059 30.553 36.0216 28.1202 36.0216 25.3333C36.0216 21.1796 32.6545 17.8125 28.5008 17.8125C26.5294 17.8125 24.7352 18.5711 23.3941 19.8121ZM23.355 25.3333C23.355 22.4914 25.6589 20.1875 28.5008 20.1875C31.3429 20.1875 33.6466 22.4914 33.6466 25.3333C33.6466 28.1753 31.3429 30.4792 28.5008 30.4792C25.6589 30.4792 23.355 28.1753 23.355 25.3333ZM21.7807 21.9529C21.2685 22.9693 20.98 24.1176 20.98 25.3333C20.98 29.1164 23.7731 32.2471 27.4097 32.7756C25.7143 33.3079 23.0826 33.6458 19.0008 33.6458C15.875 33.6458 13.587 33.4482 11.9135 33.1096C10.2348 32.7698 9.25404 32.3035 8.66737 31.8256C7.58553 30.9447 7.52169 29.779 7.52169 27.7083C7.52169 26.3604 8.50554 24.8981 10.6264 23.7052C12.71 22.5332 15.6684 21.7708 19.0008 21.7708C19.9605 21.7708 20.8913 21.8342 21.7807 21.9529Z" fill="#FF4F4F"/>
</svg>
