<svg width="38" height="39" viewBox="0 0 38 39" fill="none" xmlns="http://www.w3.org/2000/svg">
<path fill-rule="evenodd" clip-rule="evenodd" d="M18.998 0.679688H19.1403C20.8595 0.67967 22.251 0.679653 23.3737 0.795508C24.5372 0.915579 25.5474 1.17032 26.454 1.76829C26.9778 2.11378 27.4495 2.53231 27.8551 3.01123C28.5568 3.84013 28.93 4.81283 29.1879 5.95374C29.4367 7.05464 29.6025 8.43617 29.8072 10.1432L29.9871 11.6418C30.1973 13.393 30.3716 14.8445 30.3487 16.0018C30.3247 17.2179 30.0834 18.3366 29.2645 19.2597C28.4454 20.183 27.3635 20.5556 26.1589 20.7245C25.0126 20.8851 23.5506 20.8849 21.787 20.8849H20.3869V22.6419H27.854C28.418 22.6419 28.9463 22.7937 29.4008 23.0586L29.8909 21.5882C30.0116 21.2259 30.0968 20.9703 30.2528 20.6338C30.4037 20.3083 30.4805 20.1795 30.6009 19.9816C31.1014 19.1585 31.7536 18.4434 32.8102 17.9775C33.8054 17.5386 35.0486 17.371 36.6389 17.371C37.3666 17.371 37.9566 17.9609 37.9566 18.6887C37.9566 19.4164 37.3666 20.0064 36.6389 20.0064C35.1852 20.0064 34.3733 20.1684 33.8737 20.3887C33.4359 20.582 33.1539 20.8557 32.8526 21.351C32.7992 21.4389 32.777 21.4758 32.7533 21.5192C32.7305 21.5613 32.6996 21.622 32.6439 21.7421C32.5548 21.9342 32.5119 22.0593 32.3812 22.4516L30.8611 27.0118C30.8041 27.1828 30.7154 27.3342 30.6038 27.462C29.904 29.2678 28.15 30.5483 26.097 30.5483H20.3869V32.5969C22.419 33.1679 24.0417 34.7102 24.7116 36.7202C24.9418 37.4107 24.5686 38.1568 23.8783 38.387C23.1878 38.6172 22.4416 38.244 22.2115 37.5537C21.9005 36.6205 21.2397 35.8594 20.3869 35.4161V37.1369C20.3869 37.8647 19.7969 38.4547 19.0691 38.4547C18.3414 38.4547 17.7514 37.8647 17.7514 37.1369V35.4161C16.8986 35.8594 16.2378 36.6205 15.9268 37.5537C15.6966 38.244 14.9504 38.6172 14.26 38.387C13.5696 38.1568 13.1964 37.4107 13.4266 36.7202C14.0966 34.7102 15.7193 33.1679 17.7514 32.5969V30.5483H12.0412C9.98823 30.5483 8.23428 29.2678 7.53442 27.462C7.4228 27.3342 7.33416 27.1828 7.27717 27.0118L5.7571 22.4516C5.62631 22.0593 5.58341 21.9342 5.49438 21.7421C5.43865 21.622 5.40773 21.5613 5.38487 21.5192C5.36117 21.4758 5.33905 21.4389 5.28564 21.351C4.98439 20.8557 4.70243 20.582 4.26446 20.3887C3.76494 20.1684 2.95306 20.0064 1.49937 20.0064C0.771615 20.0064 0.181641 19.4164 0.181641 18.6887C0.181641 17.9609 0.771615 17.371 1.49937 17.371C3.08966 17.371 4.33292 17.5386 5.32801 17.9775C6.38468 18.4434 7.0368 19.1585 7.53738 19.9816C7.65769 20.1795 7.73454 20.3083 7.88541 20.6338C8.04142 20.9703 8.12661 21.2259 8.24737 21.5884L8.73749 23.0586C9.19185 22.7937 9.72033 22.6419 10.2842 22.6419H17.7514V20.8849H16.3513C14.5876 20.8849 13.1256 20.8851 11.9794 20.7245C10.7748 20.5556 9.6928 20.183 8.87378 19.2597C8.05479 18.3366 7.81361 17.2179 7.78957 16.0018C7.7667 14.8445 7.94092 13.3931 8.15112 11.6419L8.33097 10.1432C8.53578 8.43619 8.70155 7.05466 8.95035 5.95374C9.20819 4.81283 9.58149 3.84013 10.2832 3.01123C10.6887 2.53231 11.1604 2.11378 11.6842 1.76829C12.5908 1.17032 13.6011 0.915579 14.7646 0.795508C15.8872 0.679653 17.2788 0.67967 18.998 0.679688ZM26.097 27.9128C27.31 27.9128 28.2932 26.9296 28.2932 25.7166C28.2932 25.4739 28.0966 25.2773 27.854 25.2773H10.2842C10.0417 25.2773 9.845 25.4739 9.845 25.7166C9.845 26.9296 10.8283 27.9128 12.0412 27.9128H26.097ZM15.0351 3.41706C14.0888 3.51471 13.5491 3.69539 13.1353 3.96832C12.821 4.17561 12.5379 4.42674 12.2947 4.71407C11.9744 5.09238 11.7307 5.60679 11.521 6.53468C11.3057 7.48742 11.1545 8.73345 10.9392 10.5278L10.7795 11.8589C10.5547 13.7319 10.4057 14.9989 10.4245 15.9497C10.4426 16.8628 10.6157 17.252 10.8452 17.5108C11.0748 17.7694 11.4405 17.9876 12.3451 18.1145C13.2868 18.2465 14.5625 18.2494 16.4489 18.2494H21.6893C23.5758 18.2494 24.8515 18.2465 25.7932 18.1145C26.6977 17.9876 27.0634 17.7694 27.293 17.5108C27.5226 17.252 27.6957 16.8628 27.7138 15.9497C27.7326 14.9989 27.5836 13.7319 27.3589 11.8589L27.199 10.5278C26.9838 8.73345 26.8325 7.48742 26.6173 6.53468C26.4075 5.60679 26.1638 5.09238 25.8435 4.71407C25.6003 4.42674 25.3173 4.17561 25.003 3.96832C24.5892 3.69539 24.0494 3.51471 23.1031 3.41706C22.1315 3.31678 20.8763 3.31515 19.0691 3.31515C17.2619 3.31515 16.0067 3.31678 15.0351 3.41706Z" fill="#FF4F4F"/>
</svg>
