<svg width="37" height="37" viewBox="0 0 37 37" fill="none" xmlns="http://www.w3.org/2000/svg">
<path fill-rule="evenodd" clip-rule="evenodd" d="M18.0914 2.10938H18.2485C19.6054 2.10933 20.7368 2.1093 21.6351 2.23006C22.5832 2.35753 23.4391 2.63792 24.1269 3.32576C24.8147 4.01361 25.0952 4.86957 25.2226 5.81765C25.3119 6.48152 25.3351 7.27281 25.3412 8.18834C26.3205 8.21977 27.1936 8.27703 27.9695 8.38136C29.74 8.61939 31.1732 9.12095 32.3034 10.2511C33.4335 11.3813 33.935 12.8144 34.1732 14.5849C34.4044 16.3054 34.4044 18.5036 34.4044 21.279V21.4493C34.4044 24.2247 34.4044 26.4229 34.1732 28.1433C33.935 29.9139 33.4335 31.347 32.3034 32.4773C31.1732 33.6073 29.74 34.1088 27.9695 34.347C26.2491 34.5782 24.0509 34.5782 21.2755 34.5782H15.0644C12.2891 34.5782 10.0908 34.5782 8.37039 34.347C6.59982 34.1088 5.16674 33.6073 4.03657 32.4773C2.90641 31.347 2.40485 29.9139 2.16682 28.1433C1.9355 26.4229 1.93552 24.2247 1.93555 21.4493V21.279C1.93552 18.5036 1.9355 16.3054 2.16682 14.5849C2.40485 12.8144 2.90641 11.3813 4.03657 10.2511C5.16674 9.12095 6.59982 8.61939 8.37039 8.38136C9.14627 8.27703 10.0193 8.21977 10.9987 8.18834C11.0048 7.27281 11.028 6.48152 11.1173 5.81765C11.2448 4.86957 11.5252 4.01361 12.213 3.32576C12.9008 2.63792 13.7568 2.35753 14.7049 2.23006C15.6031 2.1093 16.7345 2.10933 18.0914 2.10938ZM13.2646 8.15278C13.8356 8.15007 14.4352 8.15009 15.0644 8.15009H21.2755C21.9048 8.15009 22.5043 8.15007 23.0753 8.15278C23.069 7.29149 23.0478 6.6418 22.9776 6.11949C22.8838 5.4226 22.7219 5.12436 22.5252 4.92755C22.3284 4.73074 22.0301 4.56882 21.3332 4.47513C20.6038 4.37706 19.6258 4.37464 18.17 4.37464C16.7141 4.37464 15.7362 4.37706 15.0067 4.47513C14.3098 4.56882 14.0116 4.73074 13.8148 4.92755C13.618 5.12436 13.4561 5.4226 13.3624 6.11949C13.2921 6.6418 13.271 7.29149 13.2646 8.15278ZM8.67222 10.6264C7.15285 10.8307 6.27748 11.2138 5.63835 11.8529C4.99923 12.492 4.61614 13.3674 4.41188 14.8868C4.20322 16.4387 4.20081 18.4845 4.20081 21.3641C4.20081 24.2438 4.20322 26.2896 4.41188 27.8416C4.61614 29.3608 4.99923 30.2363 5.63835 30.8754C6.27748 31.5145 7.15285 31.8976 8.67222 32.1018C10.2242 32.3105 12.27 32.3129 15.1496 32.3129H21.1903C24.0699 32.3129 26.1158 32.3105 27.6678 32.1018C29.187 31.8976 30.0625 31.5145 30.7016 30.8754C31.3407 30.2363 31.7238 29.3608 31.928 27.8416C32.1367 26.2896 32.1391 24.2438 32.1391 21.3641C32.1391 18.4845 32.1367 16.4387 31.928 14.8868C31.7238 13.3674 31.3407 12.492 30.7016 11.8529C30.0625 11.2138 29.187 10.8307 27.6678 10.6264C26.1158 10.4178 24.0699 10.4154 21.1903 10.4154H15.1496C12.27 10.4154 10.2242 10.4178 8.67222 10.6264ZM18.17 14.1908C18.7955 14.1908 19.3026 14.6979 19.3026 15.3234V15.3388C20.9469 15.7531 22.323 17.0496 22.323 18.8471C22.323 19.4727 21.8158 19.9798 21.1903 19.9798C20.5648 19.9798 20.0577 19.4727 20.0577 18.8471C20.0577 18.2672 19.4146 17.4629 18.17 17.4629C16.9253 17.4629 16.2822 18.2672 16.2822 18.8471C16.2822 19.4272 16.9253 20.2315 18.17 20.2315C20.2614 20.2315 22.323 21.681 22.323 23.8812C22.323 25.6787 20.9469 26.9752 19.3026 27.3895V27.4049C19.3026 28.0304 18.7955 28.5375 18.17 28.5375C17.5444 28.5375 17.0373 28.0304 17.0373 27.4049V27.3895C15.393 26.9752 14.017 25.6787 14.017 23.8812C14.017 23.2556 14.5241 22.7485 15.1496 22.7485C15.7751 22.7485 16.2822 23.2556 16.2822 23.8812C16.2822 24.4611 16.9253 25.2654 18.17 25.2654C19.4146 25.2654 20.0577 24.4611 20.0577 23.8812C20.0577 23.3011 19.4146 22.4968 18.17 22.4968C16.0785 22.4968 14.017 21.0475 14.017 18.8471C14.017 17.0496 15.393 15.7531 17.0373 15.3388V15.3234C17.0373 14.6979 17.5444 14.1908 18.17 14.1908Z" fill="#FF4F4F"/>
</svg>
