<svg width="40" height="40" viewBox="0 0 40 40" fill="none" xmlns="http://www.w3.org/2000/svg">
<path fill-rule="evenodd" clip-rule="evenodd" d="M19.4887 2.03906H19.6761C23.4458 2.03905 26.4 2.03903 28.705 2.34893C31.0642 2.66613 32.9261 3.32806 34.3873 4.78931C35.8485 6.25056 36.5104 8.11225 36.8277 10.4716C37.1375 12.7765 37.1375 15.7308 37.1375 19.5004V19.6879C37.1375 23.4576 37.1375 26.4117 36.8277 28.7167C36.5104 31.076 35.8485 32.9378 34.3873 34.399C32.9261 35.8602 31.0642 36.5221 28.705 36.8394C26.4 37.1492 23.4458 37.1492 19.6761 37.1492H19.4887C15.719 37.1492 12.7648 37.1492 10.4598 36.8394C8.10053 36.5221 6.23885 35.8602 4.77759 34.399C3.31634 32.9378 2.65441 31.076 2.33721 28.7167C2.02731 26.4117 2.02733 23.4576 2.02734 19.6879V19.5004C2.02733 15.7308 2.02731 12.7765 2.33721 10.4716C2.65441 8.11225 3.31634 6.25056 4.77759 4.78931C6.23885 3.32806 8.10053 2.66613 10.4598 2.34893C12.7648 2.03903 15.719 2.03905 19.4887 2.03906ZM10.7862 4.77662C8.69855 5.05731 7.43994 5.59113 6.50968 6.5214C5.57941 7.45166 5.04559 8.71027 4.76491 10.7979C4.47948 12.9209 4.47689 15.7104 4.47689 19.5941C4.47689 23.4778 4.47948 26.2673 4.76491 28.3903C5.04559 30.4779 5.57941 31.7365 6.50968 32.6669C7.43994 33.5972 8.69855 34.131 10.7862 34.4116C12.9091 34.697 15.6987 34.6997 19.5824 34.6997C23.4661 34.6997 26.2556 34.697 28.3786 34.4116C30.4662 34.131 31.7248 33.5972 32.6551 32.6669C33.5855 31.7365 34.1193 30.4779 34.3999 28.3903C34.6853 26.2673 34.6879 23.4778 34.6879 19.5941C34.6879 15.7104 34.6853 12.9209 34.3999 10.7979C34.1193 8.71027 33.5855 7.45166 32.6551 6.5214C31.7248 5.59113 30.4662 5.05731 28.3786 4.77662C26.2556 4.4912 23.4661 4.48861 19.5824 4.48861C15.6987 4.48861 12.9091 4.4912 10.7862 4.77662Z" fill="#FF4F4F"/>
<path fill-rule="evenodd" clip-rule="evenodd" d="M13.0592 9.39062C13.7356 9.39062 14.284 9.93896 14.284 10.6154V12.6567H16.3252C17.0016 12.6567 17.55 13.2051 17.55 13.8815C17.55 14.5579 17.0016 15.1062 16.3252 15.1062H14.284V17.1475C14.284 17.8239 13.7356 18.3723 13.0592 18.3723C12.3828 18.3723 11.8344 17.8239 11.8344 17.1475V15.1062H9.79313C9.11671 15.1062 8.56836 14.5579 8.56836 13.8815C8.56836 13.2051 9.11671 12.6567 9.79313 12.6567H11.8344V10.6154C11.8344 9.93896 12.3828 9.39062 13.0592 9.39062ZM21.6326 13.8815C21.6326 13.205 22.181 12.6567 22.8574 12.6567H29.3895C30.0659 12.6567 30.6143 13.205 30.6143 13.8815C30.6143 14.5579 30.0659 15.1062 29.3895 15.1062H22.8574C22.181 15.1062 21.6326 14.5579 21.6326 13.8815ZM21.6326 23.6797C21.6326 23.0033 22.181 22.4549 22.8574 22.4549H29.3895C30.0659 22.4549 30.6143 23.0033 30.6143 23.6797C30.6143 24.3561 30.0659 24.9044 29.3895 24.9044H22.8574C22.181 24.9044 21.6326 24.3561 21.6326 23.6797ZM9.7436 22.8137C10.2219 22.3354 10.9974 22.3354 11.4757 22.8137L13.0592 24.3971L14.6427 22.8137C15.121 22.3354 15.8965 22.3354 16.3747 22.8137C16.853 23.292 16.853 24.0673 16.3747 24.5457L14.7913 26.1292L16.3747 27.7128C16.853 28.1911 16.853 28.9664 16.3747 29.4447C15.8964 29.9231 15.121 29.9231 14.6427 29.4447L13.0592 27.8614L11.4757 29.4447C10.9974 29.9231 10.2219 29.9231 9.74362 29.4447C9.26532 28.9664 9.26532 28.1911 9.74362 27.7128L11.3271 26.1292L9.7436 24.5457C9.2653 24.0673 9.2653 23.292 9.7436 22.8137ZM21.6326 28.5788C21.6326 27.9024 22.181 27.354 22.8574 27.354H29.3895C30.0659 27.354 30.6143 27.9024 30.6143 28.5788C30.6143 29.2552 30.0659 29.8035 29.3895 29.8035H22.8574C22.181 29.8035 21.6326 29.2552 21.6326 28.5788Z" fill="#FF4F4F"/>
</svg>
