<svg width="34" height="33" viewBox="0 0 34 33" fill="none" xmlns="http://www.w3.org/2000/svg">
<path d="M1.96484 19.3782C1.96484 13.683 1.96484 10.8354 3.7341 9.06613C5.50337 7.29687 8.35095 7.29688 14.0461 7.29688H20.0868C25.7819 7.29688 28.6296 7.29687 30.3987 9.06613C32.168 10.8354 32.168 13.683 32.168 19.3782C32.168 25.0733 32.168 27.921 30.3987 29.6901C28.6296 31.4594 25.7819 31.4594 20.0868 31.4594H14.0461C8.35095 31.4594 5.50337 31.4594 3.7341 29.6901C1.96484 27.921 1.96484 25.0733 1.96484 19.3782Z" stroke="#FF4F4F" stroke-width="2.26524"/>
<path d="M23.1067 7.29064C23.1067 4.44305 23.1067 3.01926 22.222 2.13464C21.3374 1.25 19.9136 1.25 17.066 1.25C14.2185 1.25 12.7946 1.25 11.91 2.13464C11.0254 3.01926 11.0254 4.44305 11.0254 7.29064" stroke="#FF4F4F" stroke-width="2.26524"/>
<path d="M24.618 11.8148C24.618 12.6489 23.9419 13.325 23.1078 13.325C22.2738 13.325 21.5977 12.6489 21.5977 11.8148C21.5977 10.9808 22.2738 10.3047 23.1078 10.3047C23.9419 10.3047 24.618 10.9808 24.618 11.8148Z" fill="#FF4F4F"/>
<path d="M12.5359 11.8148C12.5359 12.6489 11.8598 13.325 11.0258 13.325C10.1918 13.325 9.51562 12.6489 9.51562 11.8148C9.51562 10.9808 10.1918 10.3047 11.0258 10.3047C11.8598 10.3047 12.5359 10.9808 12.5359 11.8148Z" fill="#FF4F4F"/>
</svg>
