<svg width="39" height="63" viewBox="0 0 39 63" fill="none" xmlns="http://www.w3.org/2000/svg">
<g clip-path="url(#clip0_4399_19507)">
<path d="M37.783 11.8649V42.0082C37.783 43.4154 37.2892 44.3967 36.4961 44.8565L7.9668 61.326C8.76605 60.8632 9.26288 59.8787 9.26288 58.487V33.346L26.0997 23.6192C26.4416 23.4226 26.7382 23.1561 26.9701 22.837C27.2019 22.518 27.3638 22.1536 27.4451 21.7676L28.6116 16.2654C28.6922 15.8796 28.8535 15.5152 29.0848 15.1961C29.3162 14.877 29.6124 14.6104 29.954 14.4139L36.0764 10.8805C36.2492 10.78 36.4455 10.7269 36.6453 10.7266C36.8452 10.7262 37.0416 10.7786 37.2148 10.8785C37.3879 10.9784 37.5316 11.1222 37.6314 11.2954C37.7312 11.4686 37.7834 11.665 37.783 11.8649ZM33.0183 21.1628C33.4888 20.8561 33.8804 20.4429 34.1614 19.9566C34.4423 19.4703 34.6047 18.9246 34.6353 18.3639C34.6353 17.3332 33.9101 16.9166 33.0183 17.4381C32.547 17.7447 32.1549 18.1583 31.8739 18.6452C31.5929 19.1322 31.4309 19.6787 31.4013 20.2401C31.3889 21.2646 32.111 21.6812 33.0183 21.1628Z" fill="white"/>
<path d="M34.624 18.3633C34.5948 18.923 34.4343 19.468 34.1556 19.9542C33.8768 20.4404 33.4876 20.8542 33.0194 21.1622C32.1244 21.6807 31.4023 21.2641 31.4023 20.2365C31.4311 19.674 31.5925 19.1263 31.8736 18.6382C32.1547 18.1501 32.5473 17.7355 33.0194 17.4283C33.8989 16.916 34.624 17.3419 34.624 18.3633Z" fill="#5F646B"/>
<path d="M31.3889 0.21875V13.5931L29.954 14.4202C29.6123 14.6167 29.3161 14.8833 29.0848 15.2024C28.8535 15.5215 28.6922 15.8859 28.6116 16.2717L27.4451 21.7739C27.3638 22.1598 27.2019 22.5243 26.9701 22.8433C26.7382 23.1624 26.4416 23.4289 26.0997 23.6255L9.2567 33.3492V49.9144L6.11523 51.7289V20.7586L10.8768 17.1821L11.2656 11.8372L31.3889 0.21875Z" fill="white"/>
<path d="M11.2656 11.8359L10.8799 17.1808L6.11523 20.7573L11.2656 11.8359Z" fill="#DAE0E5"/>
<path d="M9.25386 49.9143V58.4808C9.25386 59.8725 8.75702 60.8569 7.95777 61.3198C7.15852 61.7827 6.06919 61.7179 4.87185 61.0298C2.43397 59.6226 0.458984 56.2281 0.458984 53.4075V28.2727L6.11239 25.0078V51.7288L9.25386 49.9143Z" fill="#FF4F4F"/>
<path d="M7.96394 61.323L36.4933 44.8534C37.2864 44.3936 37.7801 43.4123 37.7801 42.0051V11.8618C37.78 11.6622 37.7274 11.4661 37.6274 11.2934C37.5274 11.1206 37.3836 10.9772 37.2106 10.8777C37.0375 10.7782 36.8413 10.7261 36.6417 10.7266C36.4421 10.7271 36.2461 10.7801 36.0736 10.8805L29.9511 14.4139C29.6095 14.6104 29.3133 14.877 29.082 15.1961C28.8506 15.5152 28.6894 15.8796 28.6087 16.2654L27.4423 21.7676C27.3609 22.1536 27.1991 22.518 26.9672 22.837C26.7354 23.1561 26.4388 23.4226 26.0968 23.6192L9.25386 33.3429V58.4747C9.25386 59.8664 8.75702 60.8539 7.95777 61.3137C7.15852 61.7735 6.06919 61.7118 4.87185 61.0236C2.43397 59.6164 0.458984 56.2219 0.458984 53.4014V28.2666L6.11239 25.0017" stroke="#373A3A" stroke-width="0.925776" stroke-linecap="round" stroke-linejoin="round"/>
<path d="M6.11523 20.7573L10.8799 17.1808L11.2656 11.8359" stroke="#373A3A" stroke-width="0.925776" stroke-linecap="round" stroke-linejoin="round"/>
<path d="M9.2567 49.9144L6.11523 51.732V20.7586L11.2656 11.8372L31.3889 0.21875V13.5931" stroke="#373A3A" stroke-width="0.925776" stroke-linecap="round" stroke-linejoin="round"/>
<path d="M13.084 19.3103L15.5188 17.9062" stroke="#373A3A" stroke-width="0.925776" stroke-linecap="round" stroke-linejoin="round"/>
<path d="M17.6797 16.6492L24.4193 12.7578" stroke="#373A3A" stroke-width="0.925776" stroke-linecap="round" stroke-linejoin="round"/>
<path d="M13.084 23.412L20.197 19.3047" stroke="#373A3A" stroke-width="0.925776" stroke-linecap="round" stroke-linejoin="round"/>
<path d="M21.457 18.5721L24.4164 16.8594" stroke="#373A3A" stroke-width="0.925776" stroke-linecap="round" stroke-linejoin="round"/>
<path d="M13.084 27.7718L24.4186 21.2266" stroke="#373A3A" stroke-width="0.925776" stroke-linecap="round" stroke-linejoin="round"/>
<path d="M34.624 18.3633C34.5948 18.923 34.4343 19.468 34.1556 19.9542C33.8768 20.4404 33.4876 20.8542 33.0194 21.1622C32.1244 21.6807 31.4023 21.2641 31.4023 20.2365C31.4311 19.674 31.5925 19.1263 31.8736 18.6382C32.1547 18.1501 32.5473 17.7355 33.0194 17.4283C33.8989 16.916 34.624 17.3419 34.624 18.3633Z" stroke="#373A3A" stroke-width="0.925776" stroke-linecap="round" stroke-linejoin="round"/>
</g>
<defs>
<clipPath id="clip0_4399_19507">
<rect width="38.2469" height="62.3202" fill="white"/>
</clipPath>
</defs>
</svg>
