<svg width="54" height="67" viewBox="0 0 54 67" fill="none" xmlns="http://www.w3.org/2000/svg">
<path d="M52.8611 12.4541C53.6702 23.1776 53.7349 33.5991 47.2242 37.3561C42.9466 39.824 42.3155 34.7966 39.872 33.3861L26.125 25.4513L26.3677 25.3191C32.8812 21.5783 32.811 11.1244 31.9965 0.40625L52.8611 12.4541Z" fill="white"/>
<path d="M23.2436 66.0763L23.2139 66.0601C21.415 64.8599 21.2559 60.7658 21.2559 57.5967L8.63086 50.2984C12.3771 42.3475 8.54455 25.7281 15.5084 21.7095C17.0673 20.8086 18.1569 20.8545 19.0146 21.3534L39.8198 33.3662C38.9621 32.8915 37.8806 32.8618 36.346 33.7465C28.1226 38.496 34.9678 60.844 26.5745 65.6879C25.083 66.5348 24.0177 66.5672 23.2436 66.0763Z" fill="white"/>
<path d="M23.2134 66.0551L2.47835 54.0855C0.571515 52.9851 0.404297 48.7858 0.404297 45.5547L8.63037 50.2988L21.2608 57.5809C21.2554 60.7608 21.4145 64.8549 23.2134 66.0551Z" fill="#FF4F4F"/>
<path d="M8.63086 50.2994C12.3771 42.3484 8.54455 25.7291 15.5084 21.7104C17.0673 20.8096 18.1569 20.8555 19.0146 21.3544L39.863 33.3915C42.3065 34.802 42.9376 39.8294 47.2152 37.3615C53.7286 33.5991 53.672 23.1776 52.8629 12.4541L31.9983 0.40625C32.8074 11.1244 32.8829 21.5702 26.3695 25.3191L26.1268 25.4513" stroke="#373A3A" stroke-width="0.809122" stroke-linecap="round" stroke-linejoin="round"/>
<path d="M23.2441 66.0774C24.0182 66.5763 25.0916 66.544 26.5777 65.689C34.971 60.8343 28.1258 38.4971 36.3492 33.7476C37.8839 32.8629 38.9654 32.8926 39.823 33.3673" stroke="#373A3A" stroke-width="0.809122" stroke-linecap="round" stroke-linejoin="round"/>
<path d="M23.2134 66.0551L2.47835 54.0855C0.571515 52.9851 0.404297 48.7858 0.404297 45.5547L8.63037 50.2988L21.2608 57.5809C21.2554 60.7608 21.4145 64.8549 23.2134 66.0551Z" stroke="#373A3A" stroke-width="0.809122" stroke-linecap="round" stroke-linejoin="round"/>
<path d="M23.2129 66.0625L23.2421 66.0784" stroke="#373A3A" stroke-width="0.809122" stroke-linecap="round" stroke-linejoin="round"/>
<path d="M23.3304 66.1216L23.2441 66.0703" stroke="#373A3A" stroke-width="0.809122" stroke-linecap="round" stroke-linejoin="round"/>
<path d="M48.4479 16.7492L41.5488 12.7656" stroke="#373A3A" stroke-width="0.809122" stroke-linecap="round" stroke-linejoin="round"/>
<path d="M38.3726 10.9231L36.0801 9.60156" stroke="#373A3A" stroke-width="0.809122" stroke-linecap="round" stroke-linejoin="round"/>
<path d="M48.4958 23.6134L35.5957 16.1641" stroke="#373A3A" stroke-width="0.809122" stroke-linecap="round" stroke-linejoin="round"/>
<path d="M47.5074 29.8781L34.0059 22.0781" stroke="#373A3A" stroke-width="0.809122" stroke-linecap="round" stroke-linejoin="round"/>
<path d="M29.8874 34.2208L16.2969 26.375" stroke="#373A3A" stroke-width="0.809122" stroke-linecap="round" stroke-linejoin="round"/>
<path d="M27.8513 39.8836L24.666 38.0469" stroke="#373A3A" stroke-width="0.809122" stroke-linecap="round" stroke-linejoin="round"/>
<path d="M21.5996 36.2656L14.7949 32.3359" stroke="#373A3A" stroke-width="0.809122" stroke-linecap="round" stroke-linejoin="round"/>
<path d="M27.07 46.2714L14.3398 38.9219" stroke="#373A3A" stroke-width="0.809122" stroke-linecap="round" stroke-linejoin="round"/>
<path d="M26.6788 52.8777L20.2598 49.1719" stroke="#373A3A" stroke-width="0.809122" stroke-linecap="round" stroke-linejoin="round"/>
<path d="M17.2914 47.4576L13.7852 45.4375" stroke="#373A3A" stroke-width="0.809122" stroke-linecap="round" stroke-linejoin="round"/>
</svg>
