<svg width="46" height="69" viewBox="0 0 46 69" fill="none" xmlns="http://www.w3.org/2000/svg">
<g clip-path="url(#clip0_4399_19468)">
<path d="M44.2254 32.3125V62.0345C44.2254 63.0994 43.8586 63.8426 43.2891 64.1386L37.8711 66.957C38.4084 66.645 38.7462 65.9211 38.7462 64.8883V35.4044L38.8073 35.4398L44.2254 32.3125Z" fill="#646464"/>
<path d="M44.2262 32.3044V32.3205L38.8082 35.4477L38.747 35.4123V31.0786C38.747 29.1868 37.5984 26.9893 36.1796 26.1656L30.3594 22.8067C30.3787 22.6233 30.4076 22.4367 30.4462 22.2469C30.7004 20.9728 31.3568 19.6183 32.2447 18.5083C32.2994 18.444 32.3541 18.3796 32.4153 18.3089C32.4764 18.2381 32.5343 18.1737 32.5954 18.1094L35.5715 19.8274L35.8932 20.0141L37.2574 20.8023L38.628 21.5938L41.662 23.344C43.0744 24.1612 44.2262 26.3587 44.2262 28.2505V32.3108V32.3044Z" fill="#646464"/>
<path d="M30.3599 22.7988C30.2987 23.3779 30.3309 23.8992 30.4628 24.2949C30.5175 24.4622 30.5787 24.5877 30.6494 24.6906C30.7234 24.7936 30.8039 24.8708 30.8843 24.9126C31.6468 25.3148 31.9364 26.2607 31.5278 27.0264C31.2511 27.5573 30.7074 27.8565 30.1475 27.8565C29.903 27.8565 29.6488 27.7986 29.4172 27.6699C28.8928 27.3964 28.4488 26.9975 28.0916 26.4891C27.8375 26.1224 27.6316 25.7073 27.49 25.2537C27.1522 24.2338 27.1136 22.9693 27.3806 21.618C27.416 21.4475 27.4546 21.277 27.4996 21.1065C27.9082 19.501 28.7158 17.902 29.8065 16.5443C29.8194 16.5217 29.8387 16.5024 29.858 16.4799C29.9191 16.4059 29.9867 16.3223 30.0542 16.2483C31.6983 14.3275 33.677 13.2754 35.4948 13.3559C36.7109 13.4138 37.7598 13.9897 38.4548 14.9806C39.5261 16.5024 39.6388 18.8061 38.7636 21.2899C38.7315 21.3864 38.6928 21.4765 38.6414 21.5569L38.6285 21.5762L37.2579 20.7847L35.8937 19.9965L35.9066 19.974C36.3828 18.4522 36.2541 17.2843 35.897 16.7791C35.7554 16.5829 35.5977 16.496 35.3468 16.4831C34.7677 16.4574 33.7124 16.866 32.5927 18.095C32.5316 18.1626 32.4737 18.2269 32.4126 18.2945C32.3514 18.3685 32.2967 18.4329 32.242 18.494C31.3508 19.604 30.6977 20.9585 30.4435 22.2326C30.4049 22.4224 30.376 22.6122 30.3567 22.7924L30.3599 22.7988Z" fill="white"/>
<path d="M15.8068 48.8771L24.4069 53.8447L32.3473 58.4262C33.0004 58.8091 33.5345 58.4037 33.5345 57.5286V39.3569C33.5345 38.4818 33.0004 37.4651 32.3473 37.0855L24.5034 32.5554L15.8036 27.5331L8.13022 23.106C7.47388 22.7232 6.9398 23.1285 6.9398 24.0037V42.1753C6.9398 43.0505 7.47388 44.0671 8.13022 44.4468L15.8036 48.8771H15.8068ZM38.7499 35.4414V64.8899C38.7499 65.9227 38.412 66.6466 37.8747 66.9587L37.8619 66.9683L37.8426 66.978C37.8426 66.978 37.8361 66.978 37.8329 66.9844C37.3921 67.2064 36.8259 67.171 36.2081 66.8139L4.55895 48.5457C3.14331 47.7221 1.98828 45.5278 1.98828 43.636V14.1875H1.99793L38.7499 35.406V35.4414Z" fill="white"/>
<path d="M38.7499 31.0667V35.4005L1.99793 14.182H1.98828V9.83213C1.98828 8.76718 2.35828 8.02719 2.92775 7.73119C2.92775 7.73119 2.93419 7.72476 2.94062 7.72476C3.3814 7.50276 3.94444 7.53815 4.55895 7.89528L8.51309 10.1764H8.52274C8.4777 10.3469 8.44231 10.5078 8.40692 10.6751C8.13666 12.0264 8.17849 13.2908 8.51631 14.3075C8.66109 14.7611 8.86378 15.1762 9.12117 15.5429C9.47508 16.0481 9.91908 16.447 10.4435 16.7237C10.6752 16.8492 10.9293 16.9103 11.1738 16.9103C11.7337 16.9103 12.2742 16.6079 12.5573 16.077C12.9627 15.3145 12.6731 14.3686 11.9106 13.9632C11.8205 13.9182 11.7433 13.8474 11.6758 13.7477C11.6018 13.6447 11.5438 13.5192 11.4892 13.3487C11.3572 12.9465 11.3218 12.4125 11.3894 11.8205L27.4891 21.1154C27.444 21.2859 27.4054 21.4565 27.37 21.627C27.103 22.9783 27.1416 24.2427 27.4794 25.2626C27.6242 25.7162 27.8269 26.1313 28.0811 26.4981C28.4382 27.0064 28.8854 27.4054 29.4066 27.6788C29.6383 27.8075 29.8925 27.8654 30.137 27.8654C30.6968 27.8654 31.2405 27.5662 31.5172 27.0354C31.9258 26.2696 31.6363 25.3237 30.8738 24.9216C30.7901 24.8765 30.7097 24.7993 30.6389 24.6996C30.5681 24.5966 30.507 24.4711 30.4523 24.3038C30.3204 23.9081 30.2882 23.3869 30.3493 22.8078L36.1695 26.1667C37.5884 26.9903 38.737 29.1878 38.737 31.0796L38.7499 31.0667Z" fill="#373A3A"/>
<path d="M33.5378 52.8233V57.5207C33.5378 58.3958 33.0037 58.8012 32.3506 58.4183L24.4102 53.8368V47.6562L33.3609 52.8233H33.5378Z" fill="white"/>
<path d="M33.5378 52.5411V52.8275H33.3609L24.4102 47.6604V41.1484L33.3609 46.3155H33.5378V52.5411Z" fill="white"/>
<path d="M33.5381 45.1558V46.3108H33.3611L24.4104 41.1437L15.8072 36.1761L6.94336 31.0573V23.9952C6.94336 23.1201 7.47744 22.7147 8.13378 23.0975L15.8072 27.5246L24.5069 32.5469L32.3509 37.077C33.004 37.4566 33.5381 38.4733 33.5381 39.3484V45.1558Z" fill="#FF4F4F"/>
<path d="M19.676 10.6094L29.8525 16.4843C29.8332 16.5068 29.8139 16.5261 29.8011 16.5487C28.7104 17.9032 27.9028 19.5054 27.4942 21.1109L11.3945 11.8127C11.4138 11.6422 11.4428 11.4652 11.4782 11.285C11.7324 10.0142 12.3887 8.65646 13.2735 7.55291C13.3314 7.48534 13.3861 7.41456 13.4504 7.34378C13.518 7.26656 13.5823 7.19256 13.6467 7.125L16.6002 8.8302L16.938 9.02324L18.3183 9.82115L19.6728 10.6062L19.676 10.6094Z" fill="#646464"/>
<path d="M24.4099 48.8566V53.8435H24.4066L15.8066 48.8759V42.6953L24.4099 47.6629V48.8566Z" fill="white"/>
<path d="M24.4099 41.1473V47.6592L15.8066 42.6916V42.4053V36.1797L24.4099 41.1473Z" fill="white"/>
<path d="M19.4815 4.02955C20.5496 5.55458 20.6655 7.855 19.7936 10.3452C19.7614 10.4385 19.7196 10.5286 19.6713 10.6091L18.3168 9.82402L16.9366 9.02612C17.4095 7.5043 17.2808 6.3364 16.9237 5.82806C16.7821 5.6318 16.6277 5.54493 16.3767 5.53528C15.804 5.50311 14.7552 5.91171 13.642 7.12787C13.5744 7.19866 13.5101 7.27266 13.4457 7.34665C13.3814 7.42065 13.3267 7.49144 13.2688 7.55578C12.3808 8.65934 11.7276 10.0171 11.4735 11.2879C11.4381 11.4681 11.4091 11.6451 11.3898 11.8156C11.3223 12.4076 11.3576 12.9416 11.4896 13.3438C11.5443 13.5143 11.6022 13.6398 11.6762 13.7428C11.7469 13.8457 11.8242 13.9165 11.911 13.9583C12.6735 14.3637 12.9631 15.3096 12.5577 16.0721C12.2746 16.603 11.7341 16.9054 11.1743 16.9054C10.9297 16.9054 10.6756 16.8443 10.4439 16.7188C9.91627 16.4421 9.47549 16.0432 9.12158 15.5381C8.86419 15.1713 8.65828 14.7562 8.51672 14.3026C8.17889 13.2859 8.13707 12.0215 8.40733 10.6702C8.44272 10.5029 8.47811 10.342 8.52315 10.1747C8.92854 8.5596 9.73931 6.95735 10.8332 5.59319C10.8332 5.59319 10.8493 5.57389 10.8525 5.57067C10.8654 5.5578 10.875 5.54493 10.8879 5.53206C10.949 5.44841 11.0166 5.36798 11.081 5.29398C12.7315 3.37965 14.723 2.32435 16.5279 2.41122C17.7409 2.47235 18.7898 3.04504 19.4815 4.03277V4.02955Z" fill="white"/>
<path d="M15.8072 42.6937V48.8743L8.13378 44.444C7.47744 44.0643 6.94336 43.0476 6.94336 42.1725V37.5781L15.8072 42.6905V42.6937Z" fill="white"/>
<path d="M15.8072 42.4069V42.6933L6.94336 37.5809V37.2881V31.0625L15.8072 36.1813V42.4069Z" fill="white"/>
<path d="M10.8908 5.53853C10.8908 5.53853 10.8683 5.56427 10.8554 5.57714C10.8554 5.57714 10.8393 5.59644 10.8361 5.59966C9.74222 6.96061 8.93144 8.56607 8.52606 10.1812H8.51641L4.56227 7.89686C3.95097 7.54295 3.38471 7.50434 2.94393 7.72634L2.9375 7.71025L8.38449 4.86932C8.83171 4.64089 9.39796 4.6795 10.0189 5.03662L10.8876 5.53853H10.8908Z" fill="#646464"/>
<path d="M6.94336 37.5781L15.8072 42.6905L24.4104 47.6581L33.3611 52.8252" stroke="#646464" stroke-width="0.80434" stroke-linecap="round" stroke-linejoin="round"/>
<path d="M15.8066 36.1797V42.4053V42.6916V48.8722V48.8818" stroke="#646464" stroke-width="0.80434" stroke-linecap="round" stroke-linejoin="round"/>
<path d="M24.4102 41.1484V47.6604V48.854V53.8409" stroke="#646464" stroke-width="0.80434" stroke-linecap="round" stroke-linejoin="round"/>
<path d="M30.3047 22.7656L30.3594 22.7978L36.1796 26.1567C37.5984 26.9804 38.747 29.1778 38.747 31.0696V64.8905C38.747 65.9233 38.4092 66.6472 37.8719 66.9593" stroke="#3A3A3A" stroke-width="0.80434" stroke-linecap="round" stroke-linejoin="round"/>
<path d="M1.99609 14.1875L38.748 35.406L38.8091 35.4414L44.224 32.3173L44.2594 32.298" stroke="#3A3A3A" stroke-width="0.80434" stroke-linecap="round" stroke-linejoin="round"/>
<path d="M2.9375 7.71025L8.38449 4.86932C8.83171 4.64089 9.39796 4.6795 10.0189 5.03662L10.8876 5.53853" stroke="#3A3A3A" stroke-width="0.80434" stroke-linecap="round" stroke-linejoin="round"/>
<path d="M13.6504 7.125L16.6039 8.8302L16.9418 9.02646L18.322 9.82437L19.6797 10.6094L29.8562 16.4843" stroke="#3A3A3A" stroke-width="0.80434" stroke-linecap="round" stroke-linejoin="round"/>
<path d="M2.92969 7.73119C2.92969 7.73119 2.93612 7.72476 2.94256 7.72476C3.38334 7.50276 3.94637 7.53815 4.56089 7.89528L8.51503 10.1764" stroke="#3A3A3A" stroke-width="0.80434" stroke-linecap="round" stroke-linejoin="round"/>
<path d="M32.5822 18.0865H32.5918L35.5679 19.8078L35.8896 19.9944L37.2538 20.7826L38.6244 21.5741L41.6583 23.3243C43.0708 24.1415 44.2226 26.339 44.2226 28.2308V62.0292C44.2226 63.0941 43.8558 63.8374 43.2863 64.1333L37.8683 66.9517L37.8554 66.9614L37.8361 66.9711C37.8361 66.9711 37.8297 66.9711 37.8265 66.9775C37.3857 67.1995 36.8194 67.1641 36.2017 66.807L4.55895 48.5356C3.14331 47.7119 1.98828 45.5177 1.98828 43.6259V9.8275C1.98828 8.76255 2.35828 8.02256 2.92775 7.72656" stroke="#3A3A3A" stroke-width="0.80434" stroke-linecap="round" stroke-linejoin="round"/>
<path d="M11.3945 11.8125L27.4942 21.1107" stroke="#3A3A3A" stroke-width="0.80434" stroke-linecap="round" stroke-linejoin="round"/>
<path d="M35.904 19.9804C36.3801 18.4586 36.2514 17.2907 35.8943 16.7856C35.7528 16.5893 35.5951 16.5024 35.3441 16.4896C34.765 16.4638 33.7097 16.8724 32.5901 18.1015C32.529 18.169 32.471 18.2334 32.4099 18.3009C32.3488 18.3749 32.2941 18.4393 32.2394 18.5004C31.3482 19.6104 30.6951 20.9649 30.4409 22.239C30.4023 22.4288 30.3733 22.6186 30.354 22.7988C30.2929 23.3779 30.3251 23.8992 30.457 24.2949C30.5117 24.4622 30.5728 24.5877 30.6436 24.6906C30.7176 24.7936 30.798 24.8708 30.8784 24.9126C31.641 25.3148 31.9305 26.2607 31.5219 27.0264C31.2452 27.5573 30.7015 27.8565 30.1417 27.8565C29.8972 27.8565 29.643 27.7986 29.4113 27.6699C28.8869 27.3964 28.4429 26.9975 28.0858 26.4891C27.8316 26.1224 27.6257 25.7073 27.4841 25.2537C27.1463 24.2338 27.1077 22.9693 27.3747 21.618C27.4101 21.4475 27.4487 21.277 27.4938 21.1065C27.9024 19.501 28.7099 17.902 29.8006 16.5443C29.8135 16.5217 29.8328 16.5024 29.8521 16.4799C29.9132 16.4059 29.9808 16.3223 30.0484 16.2483C31.6924 14.3275 33.6711 13.2754 35.4889 13.3559C36.7051 13.4138 37.7539 13.9897 38.4489 14.9806C39.5203 16.5024 39.6329 18.8061 38.7578 21.2899C38.7256 21.3864 38.687 21.4765 38.6355 21.5569" stroke="#3A3A3A" stroke-width="0.80434" stroke-linecap="round" stroke-linejoin="round"/>
<path d="M16.9366 9.02933C17.4095 7.50752 17.2808 6.33962 16.9237 5.83128C16.7821 5.63502 16.6277 5.54815 16.3767 5.5385C15.804 5.50632 14.7552 5.91493 13.642 7.13109C13.5744 7.20187 13.5101 7.27587 13.4457 7.34987C13.3814 7.42387 13.3267 7.49465 13.2688 7.559C12.3808 8.66256 11.7276 10.0203 11.4735 11.2911C11.4381 11.4713 11.4091 11.6483 11.3898 11.8188C11.3223 12.4108 11.3576 12.9449 11.4896 13.347C11.5443 13.5176 11.6022 13.643 11.6762 13.746C11.7469 13.8489 11.8242 13.9197 11.911 13.9616C12.6735 14.3669 12.9631 15.3128 12.5577 16.0754C12.2746 16.6062 11.7341 16.9087 11.1743 16.9087C10.9297 16.9087 10.6756 16.8475 10.4439 16.722C9.91627 16.4454 9.47549 16.0464 9.12158 15.5413C8.86419 15.1745 8.65828 14.7595 8.51672 14.3058C8.17889 13.2891 8.13707 12.0247 8.40733 10.6734C8.44272 10.5061 8.47811 10.3452 8.52315 10.1779C8.92854 8.56282 9.73931 6.96057 10.8332 5.59641C10.8332 5.59641 10.8493 5.57711 10.8525 5.57389C10.8654 5.56102 10.875 5.54815 10.8879 5.53528C10.949 5.45163 11.0166 5.37119 11.081 5.29719C12.7315 3.37965 14.723 2.32435 16.5279 2.41122C17.7409 2.47235 18.7898 3.04504 19.4815 4.03277C20.5496 5.5578 20.6655 7.85821 19.7936 10.3485C19.7614 10.4418 19.7196 10.5318 19.6713 10.6123" stroke="#3A3A3A" stroke-width="0.80434" stroke-linecap="round" stroke-linejoin="round"/>
<path d="M33.5349 46.3108V57.5201C33.5349 58.3952 33.0008 58.8006 32.3477 58.4177L24.4072 53.8362L15.8072 48.8686L8.13378 44.4383C7.47744 44.0586 6.94336 43.042 6.94336 42.1668V23.9952C6.94336 23.1201 7.47744 22.7147 8.13378 23.0975L15.8072 27.5246L24.5069 32.5469L32.3509 37.077C33.004 37.4566 33.5381 38.4733 33.5381 39.3484V46.3108H33.5349Z" stroke="#3A3A3A" stroke-width="0.80434" stroke-linecap="round" stroke-linejoin="round"/>
<path d="M6.94336 31.0625L15.8072 36.1813L24.4104 41.1489L33.3611 46.316" stroke="#3A3A3A" stroke-width="0.80434" stroke-linecap="round" stroke-linejoin="round"/>
<path d="M11.7031 29.1094L28.5267 38.8226" stroke="#3A3A3A" stroke-width="0.80434" stroke-linecap="round" stroke-linejoin="round"/>
<path d="M26.4688 35.8047L28.5311 38.8226L26.4688 39.4596" stroke="#3A3A3A" stroke-width="0.80434" stroke-linecap="round" stroke-linejoin="round"/>
</g>
<defs>
<clipPath id="clip0_4399_19468">
<rect width="45.1552" height="68.6856" fill="white"/>
</clipPath>
</defs>
</svg>
