<svg width="39" height="63" viewBox="0 0 39 63" fill="none" xmlns="http://www.w3.org/2000/svg">
<path d="M27.785 28.2348C28.8282 26.4689 29.4721 24.4584 29.4721 22.6447C29.4721 19.0849 26.9695 17.6367 23.8849 19.4167C20.8002 21.1966 18.3004 25.5326 18.3004 29.0952C18.3004 30.9061 18.95 32.1883 19.9876 32.7507C21.0252 33.3131 22.3665 33.2034 23.8821 32.3261C25.3977 31.4488 26.7811 29.9501 27.785 28.2348ZM10.1094 53.7894V22.8219C10.1094 20.8957 11.2791 18.6575 12.7273 17.8195L35.0481 4.93538C36.4963 4.09181 37.666 4.98599 37.666 6.90371V44.2823C37.666 46.2113 36.4963 48.4496 35.0481 49.2819L12.7273 62.1717C11.2791 63.0152 10.1094 62.1182 10.1094 60.1893V53.7894Z" fill="white"/>
<path d="M33.5545 5.80003L12.7267 17.8237C11.2786 18.6673 10.1088 20.9 10.1088 22.8261V29.7771C9.44654 30.0635 8.74996 30.263 8.03645 30.3704C7.01151 30.5289 5.9683 30.5289 4.94336 30.3704V20.0676C4.9518 18.2793 6.02875 16.2266 7.3616 15.4674L27.9222 3.58707C28.524 3.23558 29.0779 3.2159 29.4997 3.46053L33.5545 5.80003Z" fill="#DAE0E5"/>
<path d="M30.3974 3.97592L29.5004 3.46415C29.0786 3.21952 28.5246 3.2392 27.9229 3.59069L7.36224 15.471C6.0294 16.2302 4.95244 18.2829 4.95244 20.0712V30.3741C4.2244 30.2724 3.51324 30.0738 2.83789 29.7836V18.6316C2.83789 16.7026 4.00764 14.4643 5.45296 13.632L27.7795 0.739417C29.222 -0.104154 30.3974 0.792843 30.3974 2.72181V3.97592Z" fill="#FF4F4F"/>
<path d="M29.4755 22.6548C29.4755 24.4685 28.8288 26.479 27.7884 28.2449C27.439 27.7168 26.9793 27.2706 26.4409 26.9371C25.9026 26.6037 25.2984 26.3908 24.67 26.3131C24.9947 25.8646 25.1814 25.331 25.2071 24.7778C25.2071 23.9342 24.6165 23.594 23.8883 24.0158C23.5051 24.2663 23.1862 24.6036 22.9576 25.0003C22.729 25.3969 22.597 25.8419 22.5723 26.2991C22.5723 26.7968 22.7832 27.1201 23.1094 27.2101C21.8067 28.8961 20.7571 30.7632 19.9938 32.7524C18.9506 32.19 18.3066 30.9162 18.3066 29.0969C18.3066 25.5342 20.8064 21.2039 23.8939 19.4183C26.9814 17.6328 29.4755 19.095 29.4755 22.6548Z" fill="#DAE0E5"/>
<path d="M24.6684 26.3125C25.2964 26.3905 25.9 26.6036 26.4378 26.9371C26.9756 27.2705 27.4349 27.7165 27.784 28.2443C26.7801 29.9595 25.4023 31.447 23.8867 32.3272C22.3711 33.2073 20.9988 33.3001 19.9922 32.7518C20.7555 30.7626 21.8051 28.8955 23.1078 27.2095C23.3773 27.2632 23.6571 27.2086 23.8867 27.0577C24.1951 26.8648 24.461 26.6113 24.6684 26.3125Z" fill="#FF4F4F"/>
<path d="M25.207 24.7707C25.1813 25.3238 24.9947 25.8574 24.6699 26.306C24.4626 26.6048 24.1966 26.8583 23.8882 27.0511C23.6586 27.2021 23.3788 27.2566 23.1093 27.2029C22.7832 27.1158 22.5723 26.7896 22.5723 26.2919C22.597 25.8347 22.729 25.3898 22.9576 24.9931C23.1862 24.5964 23.505 24.2592 23.8882 24.0086C24.6165 23.5868 25.207 23.9299 25.207 24.7707Z" fill="white"/>
<path d="M10.1097 53.7891V58.9348L5.78498 56.4379C5.2704 56.1426 4.94141 55.4593 4.94141 54.4864V54.3824C5.96658 54.5378 7.00933 54.5378 8.0345 54.3824C8.74905 54.2755 9.44665 54.0761 10.1097 53.7891Z" fill="#DAE0E5"/>
<path d="M10.1088 45.7969V53.7996C9.44628 54.0835 8.74966 54.2801 8.03645 54.3844C7.01128 54.5399 5.96853 54.5399 4.94336 54.3844V46.3846C5.9683 46.543 7.01151 46.543 8.03645 46.3846C8.74978 46.2793 9.44641 46.0817 10.1088 45.7969Z" fill="#DAE0E5"/>
<path d="M10.1088 37.7891V45.7974C9.44601 46.0793 8.7494 46.274 8.03645 46.3766C7.01151 46.5351 5.9683 46.5351 4.94336 46.3766V38.3796C5.96863 38.5337 7.01118 38.5337 8.03645 38.3796C8.74926 38.2703 9.44551 38.072 10.1088 37.7891Z" fill="#DAE0E5"/>
<path d="M10.1088 29.7812V37.7867C9.44525 38.0677 8.74901 38.2642 8.03645 38.3716C7.01118 38.5257 5.96863 38.5257 4.94336 38.3716V30.3746C5.9683 30.533 7.01151 30.533 8.03645 30.3746C8.74996 30.2671 9.44654 30.0677 10.1088 29.7812Z" fill="#DAE0E5"/>
<path d="M6.94889 57.1165L5.45296 57.9825C4.00764 58.8261 2.83789 57.9319 2.83789 56.0142V53.8125C3.51427 54.0999 4.22504 54.2983 4.95244 54.403V54.507C4.95244 55.48 5.27019 56.1632 5.79601 56.4585L6.94889 57.1165Z" fill="#FF4F4F"/>
<path d="M4.95244 46.3846V54.3929C4.22504 54.2882 3.51427 54.0897 2.83789 53.8024V45.7969C3.51441 46.0833 4.22517 46.2808 4.95244 46.3846Z" fill="#FF4F4F"/>
<path d="M4.95244 38.3796V46.385C4.22517 46.2813 3.51441 46.0837 2.83789 45.7974V37.7891C3.51427 38.0764 4.22504 38.2749 4.95244 38.3796Z" fill="#FF4F4F"/>
<path d="M4.95244 30.3696V38.3779C4.22504 38.2732 3.51427 38.0747 2.83789 37.7874V29.7734C3.51297 30.0657 4.22414 30.2661 4.95244 30.3696Z" fill="#FF4F4F"/>
<path d="M6.94889 57.1153L5.45296 57.9813C4.00764 58.8249 2.83789 57.9307 2.83789 56.013V18.6316C2.83789 16.7026 4.00764 14.4643 5.45296 13.632L27.7795 0.739417C29.222 -0.104154 30.3974 0.792843 30.3974 2.72181V3.97592" stroke="#373A3A" stroke-width="0.843571" stroke-linecap="round" stroke-linejoin="round"/>
<path d="M33.555 5.79582L35.0481 4.93538C36.4963 4.09181 37.666 4.98599 37.666 6.90371V44.2823C37.666 46.2113 36.4963 48.4496 35.0481 49.2819L12.7273 62.1717C11.2791 63.0152 10.1094 62.1182 10.1094 60.1893V22.8219C10.1094 20.8957 11.2791 18.6575 12.7273 17.8195L33.555 5.79582Z" stroke="#373A3A" stroke-width="0.843571" stroke-linecap="round" stroke-linejoin="round"/>
<path d="M27.7873 28.2435C28.8277 26.4748 29.4744 24.4671 29.4744 22.6535C29.4744 19.0936 26.9718 17.6455 23.8872 19.4254C20.8025 21.2053 18.3027 25.5413 18.3027 29.104C18.3027 30.9148 18.9523 32.1971 19.9899 32.7594C21.0275 33.3218 22.3687 33.2122 23.8844 32.3348C25.4 31.4575 26.7806 29.9588 27.7873 28.2435Z" stroke="#373A3A" stroke-width="0.843571" stroke-linecap="round" stroke-linejoin="round"/>
<path d="M24.6699 26.3065C24.9963 25.8588 25.1831 25.3247 25.207 24.7712C25.207 23.9276 24.6165 23.5873 23.8882 24.0091C23.505 24.2597 23.1862 24.5969 22.9576 24.9936C22.729 25.3903 22.597 25.8352 22.5723 26.2924C22.5723 26.7901 22.7832 27.1163 23.1093 27.2035C23.3788 27.2571 23.6586 27.2026 23.8882 27.0516C24.1972 26.8595 24.4633 26.6059 24.6699 26.3065Z" stroke="#373A3A" stroke-width="0.843571" stroke-linecap="round" stroke-linejoin="round"/>
<path d="M23.1078 27.2031C21.8051 28.8891 20.7555 30.7562 19.9922 32.7454" stroke="#373A3A" stroke-width="0.843571" stroke-linecap="round" stroke-linejoin="round"/>
<path d="M24.6699 26.3125C25.2979 26.3905 25.9015 26.6036 26.4393 26.9371C26.9772 27.2705 27.4364 27.7165 27.7855 28.2443" stroke="#373A3A" stroke-width="0.843571" stroke-linecap="round" stroke-linejoin="round"/>
<path d="M12.5168 35.0903C12.4719 36.156 11.5749 37.1515 10.1099 37.7869C9.44629 38.0679 8.75005 38.2644 8.03749 38.3718C7.01222 38.5259 5.96967 38.5259 4.9444 38.3718C4.21692 38.2675 3.5061 38.069 2.82985 37.7813C1.78663 37.3286 0.993673 36.6791 0.630937 35.9002C-0.0270479 34.4942 0.912127 33.0404 2.82985 32.2109" stroke="#373A3A" stroke-width="0.843571" stroke-linecap="round" stroke-linejoin="round"/>
<path d="M12.5084 27.1466C12.4297 28.1898 11.5439 29.1571 10.1099 29.7785C9.44805 30.0662 8.75129 30.2657 8.03749 30.3718C7.01232 30.5273 5.96956 30.5273 4.9444 30.3718C4.2172 30.2662 3.50655 30.0678 2.82985 29.7813C1.78944 29.3258 0.993673 28.6847 0.630937 27.9002C-0.0270479 26.4942 0.912127 25.0433 2.82985 24.2109" stroke="#373A3A" stroke-width="0.843571" stroke-linecap="round" stroke-linejoin="round"/>
<path d="M12.5168 43.0116C12.5168 44.111 11.6114 45.1402 10.1099 45.7954C9.44663 46.0761 8.75017 46.2708 8.03749 46.3746C7.01242 46.5315 5.96946 46.5315 4.9444 46.3746C4.21705 46.2712 3.50623 46.0737 2.82985 45.7869C1.78663 45.3314 0.993673 44.6847 0.630937 43.9002C-0.0270479 42.4942 0.912127 41.0461 2.82985 40.2109" stroke="#373A3A" stroke-width="0.843571" stroke-linecap="round" stroke-linejoin="round"/>
<path d="M12.514 51.1241C12.4522 52.1813 11.5608 53.1599 10.1099 53.7926C9.44732 54.0765 8.7507 54.2731 8.03749 54.3774C7.01232 54.5329 5.96957 54.5329 4.9444 54.3774C4.21692 54.2732 3.5061 54.0747 2.82985 53.7869C1.78663 53.3342 0.993673 52.6819 0.630937 51.9002C-0.027048 50.4942 0.912127 49.0404 2.82985 48.2109" stroke="#373A3A" stroke-width="0.843571" stroke-linecap="round" stroke-linejoin="round"/>
<path d="M10.1097 58.9394L5.78498 56.4424C5.2704 56.1472 4.94141 55.4639 4.94141 54.4909V20.0676C4.95265 18.2793 6.02961 16.2266 7.36245 15.4674L27.9231 3.58707C28.5248 3.23558 29.0788 3.2159 29.5006 3.46053L33.5553 5.80003" stroke="#373A3A" stroke-width="0.843571" stroke-linecap="round" stroke-linejoin="round"/>
</svg>
