<svg width="40" height="40" viewBox="0 0 40 40" fill="none" xmlns="http://www.w3.org/2000/svg">
<path d="M30 31.4329H28.7333C27.4 31.4329 26.1333 31.9496 25.2 32.8829L22.35 35.6997C21.05 36.983 18.9333 36.983 17.6333 35.6997L14.7833 32.8829C13.85 31.9496 12.5667 31.4329 11.25 31.4329H10C7.23333 31.4329 5 29.2163 5 26.4829V8.29956C5 5.56623 7.23333 3.34961 10 3.34961H30C32.7667 3.34961 35 5.56623 35 8.29956V26.4829C35 29.1996 32.7667 31.4329 30 31.4329Z" stroke="#FF4F4F" stroke-width="2.6" stroke-miterlimit="10" stroke-linecap="round" stroke-linejoin="round"/>
<path d="M11.667 15.2679C11.667 13.7179 12.9337 12.4512 14.4837 12.4512C16.0337 12.4512 17.3003 13.7179 17.3003 15.2679C17.3003 18.4013 12.8503 18.7346 11.867 21.7179C11.667 22.3346 12.1837 22.9513 12.8337 22.9513H17.3003" stroke="#FF4F4F" stroke-width="2.6" stroke-linecap="round" stroke-linejoin="round"/>
<path d="M26.7339 22.9341V13.4175C26.7339 12.9842 26.4506 12.6007 26.0339 12.4841C25.6172 12.3674 25.1673 12.5341 24.9339 12.9007C23.7339 14.8341 22.4339 17.0341 21.3006 18.9674C21.1173 19.2841 21.1173 19.7008 21.3006 20.0174C21.4839 20.3341 21.8339 20.534 22.2173 20.534H28.3339" stroke="#FF4F4F" stroke-width="2.6" stroke-linecap="round" stroke-linejoin="round"/>
</svg>
