<svg width="12" height="16" viewBox="0 0 12 16" fill="none" xmlns="http://www.w3.org/2000/svg">
<path fill-rule="evenodd" clip-rule="evenodd" d="M11.6211 7.02359C11.3718 6.59181 10.9149 6.44988 10.4788 6.38889C10.0391 6.32741 9.45065 6.32743 8.73892 6.32745H8.69843C8.27464 6.32745 7.99754 6.32328 7.7957 6.29521C7.61316 6.26983 7.55511 6.23225 7.53029 6.21034C7.5122 6.19144 7.47985 6.14723 7.45786 5.98785C7.4319 5.79993 7.43075 5.54223 7.43075 5.12922V4.87734C7.43082 3.80961 7.43082 2.95426 7.34863 2.34443C7.27148 1.77202 7.08814 1.12914 6.45309 0.934531C5.8292 0.743336 5.30593 1.15332 4.89922 1.57597C4.46589 2.02623 3.95117 2.72266 3.30672 3.59461L1.19683 6.44926C0.786329 7.00462 0.444125 7.46756 0.240232 7.85039C0.0358407 8.23417 -0.112908 8.68978 0.113807 9.14438L0.114593 9.14606L0.116981 9.1509L0.119698 9.15628L0.122375 9.16146L0.125294 9.16691L0.128274 9.17242L0.131085 9.17747L0.134065 9.18271L0.136789 9.18735L0.137791 9.18897C0.384965 9.61707 0.83988 9.76692 1.27998 9.83411C1.73353 9.90339 2.3387 9.90782 3.07265 9.90782C3.50082 9.90782 3.77384 9.90877 3.97435 9.93432C4.15147 9.95692 4.20445 9.99176 4.22715 10.0118C4.24727 10.0329 4.28254 10.0819 4.30741 10.2471C4.33588 10.4361 4.34034 10.6978 4.34034 11.1061L4.34033 11.3578C4.3403 12.4256 4.34028 13.281 4.42244 13.8908C4.49957 14.4632 4.68292 15.1061 5.31797 15.3007C5.94186 15.4919 6.46512 15.0819 6.8719 14.6593C7.30518 14.209 7.81991 13.5126 8.46438 12.6406L10.549 9.82025C10.9732 9.24627 11.3222 8.76665 11.5279 8.36754C11.7293 7.97697 11.8698 7.51868 11.6452 7.06825L11.6443 7.06663L11.642 7.06172L11.6392 7.05634L11.6365 7.05117L11.6337 7.04565L11.6306 7.04013L11.6278 7.03509L11.6248 7.02984L11.6221 7.02514L11.6211 7.02359ZM5.62615 2.27553C5.24412 2.67248 4.76806 3.31475 4.09299 4.22815L2.03345 7.01471C1.5911 7.61317 1.29514 8.01592 1.13068 8.3247C1.05064 8.47495 1.02059 8.56979 1.01203 8.62716C1.00675 8.66261 1.00998 8.67861 1.01419 8.6889C1.03046 8.71285 1.1011 8.78623 1.43226 8.8368C1.79404 8.89202 2.31423 8.89895 3.07265 8.89895H3.10357C3.49174 8.89888 3.82997 8.89888 4.10194 8.93359C4.39329 8.97072 4.68271 9.05519 4.92229 9.28057L4.92626 9.28427L4.93009 9.28804C5.16549 9.51907 5.2612 9.80559 5.30505 10.0968C5.34696 10.3752 5.34924 10.7175 5.34924 11.1061L5.34918 11.3143C5.34918 12.4355 5.35032 13.222 5.42229 13.7561C5.45813 14.022 5.50629 14.178 5.5525 14.2651C5.58707 14.3304 5.60698 14.3347 5.61256 14.3359L5.61357 14.3361L5.61458 14.3364C5.62164 14.3389 5.64639 14.3475 5.72286 14.309C5.81837 14.2609 5.95484 14.1573 6.14491 13.9597C6.52694 13.5628 7.00299 12.9205 7.67813 12.0071L9.73764 9.22058C10.1775 8.62548 10.4706 8.21688 10.6312 7.90528C10.7689 7.63813 10.7539 7.54767 10.7448 7.52365C10.7296 7.50159 10.6618 7.43319 10.3391 7.38806C9.97782 7.33755 9.46094 7.33634 8.69843 7.33634C8.293 7.33634 7.94131 7.33405 7.65674 7.29444C7.36296 7.25361 7.07287 7.16517 6.83531 6.9418L6.83141 6.9381L6.82758 6.93434C6.59002 6.70115 6.49842 6.415 6.45847 6.12587C6.42181 5.86065 6.42188 5.53222 6.42188 5.16173V4.92091C6.42188 3.79979 6.42073 3.01324 6.34877 2.47916C6.31292 2.21323 6.26476 2.05723 6.21862 1.97013C6.18399 1.90484 6.16408 1.90057 6.15849 1.89936L6.15749 1.89912L6.15648 1.89879C6.14941 1.89636 6.12466 1.8878 6.04819 1.92627C5.95268 1.97433 5.81628 2.07797 5.62615 2.27553Z" fill="#7B7B7B"/>
</svg>
