<svg width="16" height="17" viewBox="0 0 16 17" fill="none" xmlns="http://www.w3.org/2000/svg">
<g clip-path="url(#clip0_798_13714)">
<path d="M1.33008 8.36248C1.33008 5.85461 1.33008 4.60067 2.10917 3.82157C2.88827 3.04248 4.1422 3.04248 6.65008 3.04248H9.31008C11.8179 3.04248 13.0719 3.04248 13.851 3.82157C14.6301 4.60067 14.6301 5.85461 14.6301 8.36248C14.6301 10.8703 14.6301 12.1243 13.851 12.9034C13.0719 13.6825 11.8179 13.6825 9.31008 13.6825H6.65008C4.1422 13.6825 2.88827 13.6825 2.10917 12.9034C1.33008 12.1243 1.33008 10.8703 1.33008 8.36248Z" stroke="#212121"/>
<path d="M6.65023 11.355H3.99023" stroke="#212121" stroke-linecap="round"/>
<path d="M5.32023 9.35986H3.99023" stroke="#212121" stroke-linecap="round"/>
<path d="M1.33008 7.03223H14.6301" stroke="#212121" stroke-linecap="round"/>
<path d="M9.30957 10.3573C9.30957 9.73038 9.30957 9.4169 9.50435 9.22212C9.69913 9.02734 10.0126 9.02734 10.6396 9.02734C11.2665 9.02734 11.58 9.02734 11.7748 9.22212C11.9696 9.4169 11.9696 9.73038 11.9696 10.3573C11.9696 10.9843 11.9696 11.2978 11.7748 11.4926C11.58 11.6873 11.2665 11.6873 10.6396 11.6873C10.0126 11.6873 9.69913 11.6873 9.50435 11.4926C9.30957 11.2978 9.30957 10.9843 9.30957 10.3573Z" stroke="#212121"/>
</g>
<defs>
<clipPath id="clip0_798_13714">
<rect width="15.96" height="15.96" fill="white" transform="translate(0 0.382324)"/>
</clipPath>
</defs>
</svg>
