<svg width="25" height="29" viewBox="0 0 25 29" fill="none" xmlns="http://www.w3.org/2000/svg">
<path d="M23.625 12.375H21.2344V4.5C21.2344 2.01445 19.2199 0 16.7344 0H8.01562C5.53008 0 3.51562 2.01445 3.51562 4.5V12.375H1.125C0.502734 12.375 0 12.8777 0 13.5V27C0 27.6223 0.502734 28.125 1.125 28.125H23.625C24.2473 28.125 24.75 27.6223 24.75 27V13.5C24.75 12.8777 24.2473 12.375 23.625 12.375ZM6.04688 4.5C6.04688 3.41367 6.9293 2.53125 8.01562 2.53125H16.7344C17.8207 2.53125 18.7031 3.41367 18.7031 4.5V12.375H6.04688V4.5ZM22.2188 25.5938H2.53125V14.9062H22.2188V25.5938Z" fill="#FF4F4F"/>
<path d="M11.3904 20.7069V22.5701C11.3904 22.7248 11.517 22.8514 11.6716 22.8514H13.0779C13.2326 22.8514 13.3591 22.7248 13.3591 22.5701V20.7069C13.6493 20.4985 13.866 20.2034 13.9778 19.8641C14.0896 19.5248 14.0909 19.1588 13.9815 18.8187C13.872 18.4787 13.6575 18.1821 13.3688 17.9717C13.0801 17.7613 12.732 17.6479 12.3748 17.6479C12.0175 17.6479 11.6695 17.7613 11.3807 17.9717C11.092 18.1821 10.8775 18.4787 10.7681 18.8187C10.6586 19.1588 10.6599 19.5248 10.7717 19.8641C10.8836 20.2034 11.1002 20.4985 11.3904 20.7069Z" fill="#FF4F4F"/>
</svg>
