<svg width="36" height="25" viewBox="0 0 36 25" fill="none" xmlns="http://www.w3.org/2000/svg">
<path d="M30.0295 8.30491C28.1893 3.45134 23.5004 0 18.008 0C12.5156 0 7.82679 3.44732 5.98661 8.30089C2.5433 9.20491 0 12.3429 0 16.0714C0 20.5112 3.59598 24.1071 8.0317 24.1071H9.64286C9.81964 24.1071 9.96429 23.9625 9.96429 23.7857V21.375C9.96429 21.1982 9.81964 21.0536 9.64286 21.0536H8.0317C6.67768 21.0536 5.40402 20.5152 4.4558 19.5388C3.51161 18.5665 3.00937 17.2567 3.05357 15.8987C3.08973 14.8379 3.45134 13.8415 4.10625 13.0018C4.77723 12.146 5.71741 11.5232 6.76205 11.246L8.28482 10.8482L8.8433 9.37768C9.18884 8.46161 9.67098 7.6058 10.2777 6.83036C10.8766 6.06177 11.5861 5.38614 12.383 4.82545C14.0344 3.66429 15.979 3.04955 18.008 3.04955C20.0371 3.04955 21.9817 3.66429 23.633 4.82545C24.4326 5.38795 25.1397 6.06295 25.7384 6.83036C26.3451 7.6058 26.8272 8.46562 27.1728 9.37768L27.7272 10.8442L29.246 11.246C31.4237 11.8326 32.9464 13.8134 32.9464 16.0714C32.9464 17.4013 32.4281 18.6549 31.4879 19.5951C31.0269 20.0589 30.4784 20.4266 29.8742 20.6769C29.2701 20.9273 28.6223 21.0553 27.9683 21.0536H26.3571C26.1804 21.0536 26.0357 21.1982 26.0357 21.375V23.7857C26.0357 23.9625 26.1804 24.1071 26.3571 24.1071H27.9683C32.404 24.1071 36 20.5112 36 16.0714C36 12.3469 33.4647 9.21295 30.0295 8.30491Z" fill="#FF4F4F"/>
</svg>
