<svg width="15" height="14" viewBox="0 0 15 14" fill="none" xmlns="http://www.w3.org/2000/svg">
<path d="M12.2084 4.89063L9.20837 1.89063M12.2084 4.89063L8.4595 8.63943C7.96547 9.13345 7.36585 9.52345 6.67742 9.64218C5.98232 9.7621 5.1197 9.802 4.70833 9.39063C4.29696 8.97925 4.33686 8.1166 4.45675 7.4215C4.57548 6.73308 4.96551 6.13345 5.4595 5.63943L9.20837 1.89063M12.2084 4.89063C12.2084 4.89063 14.4583 2.64063 12.9583 1.14063C11.4583 -0.359373 9.20837 1.89063 9.20837 1.89063M13.375 7C13.375 11.875 11.875 13.375 7 13.375C2.125 13.375 0.624998 11.875 0.624999 7C0.625 2.125 2.125 0.625 7 0.625001" stroke="#FF3A3A" stroke-width="1.125" stroke-linecap="round" stroke-linejoin="round"/>
</svg>
