<svg width="40" height="40" viewBox="0 0 40 40" fill="none" xmlns="http://www.w3.org/2000/svg">
<path d="M5.3125 30.9375H34.6875V9.0625H5.3125V30.9375ZM7.51562 25.8398L15.9102 17.4414C16.0312 17.3203 16.2305 17.3203 16.3516 17.4414L20.8203 21.9141L30.7617 11.9687C30.8828 11.8477 31.082 11.8477 31.2031 11.9687L32.6406 13.4062C32.7617 13.5273 32.7617 13.7266 32.6406 13.8477L21.0391 25.457C20.9803 25.5152 20.901 25.5478 20.8184 25.5478C20.7357 25.5478 20.6564 25.5152 20.5977 25.457L16.1289 20.9844L9.39062 27.7227C9.33189 27.7808 9.25258 27.8134 9.16992 27.8134C9.08727 27.8134 9.00795 27.7808 8.94922 27.7227L7.51562 26.2812C7.45747 26.2225 7.42484 26.1432 7.42484 26.0605C7.42484 25.9779 7.45747 25.8986 7.51562 25.8398Z" fill="white"/>
<path d="M36.25 6.25H3.75C3.05859 6.25 2.5 6.80859 2.5 7.5V32.5C2.5 33.1914 3.05859 33.75 3.75 33.75H36.25C36.9414 33.75 37.5 33.1914 37.5 32.5V7.5C37.5 6.80859 36.9414 6.25 36.25 6.25ZM34.6875 30.9375H5.3125V9.0625H34.6875V30.9375Z" fill="#FF4F4F"/>
<path d="M8.94904 27.7225C9.07013 27.8436 9.26935 27.8436 9.39044 27.7225L16.1287 20.9842L20.5975 25.4568C20.7186 25.5779 20.9178 25.5779 21.0389 25.4568L32.6404 13.8475C32.7615 13.7264 32.7615 13.5271 32.6404 13.4061L31.2029 11.9686C31.1442 11.9104 31.0649 11.8778 30.9822 11.8778C30.8996 11.8778 30.8203 11.9104 30.7615 11.9686L20.8201 21.9139L16.3514 17.4412C16.2926 17.3831 16.2133 17.3504 16.1307 17.3504C16.048 17.3504 15.9687 17.3831 15.91 17.4412L7.51544 25.8396C7.45729 25.8984 7.42466 25.9777 7.42466 26.0603C7.42466 26.143 7.45729 26.2223 7.51544 26.2811L8.94904 27.7225Z" fill="#FF4F4F"/>
</svg>
