<svg width="17" height="18" viewBox="0 0 17 18" fill="none" xmlns="http://www.w3.org/2000/svg">
<path d="M10.6191 9.63672C10.9125 9.63672 11.1504 9.39886 11.1504 9.10547C11.1504 8.81208 10.9125 8.57422 10.6191 8.57422H6.36914C6.07574 8.57422 5.83789 8.81208 5.83789 9.10547C5.83789 9.39886 6.07574 9.63672 6.36914 9.63672H10.6191Z" fill="#212121"/>
<path fill-rule="evenodd" clip-rule="evenodd" d="M8.49707 1.48828C7.83301 1.48828 7.19891 1.70544 6.17614 2.05574L5.66087 2.23213C4.61159 2.5913 3.80181 2.86848 3.22213 3.10398C2.93012 3.22261 2.67908 3.33751 2.47693 3.4549C2.28239 3.56788 2.08723 3.70879 1.95464 3.89771C1.82358 4.08444 1.75581 4.31399 1.71323 4.53498C1.66896 4.76472 1.64226 5.04032 1.62503 5.35674C1.59082 5.98504 1.59082 6.84577 1.59082 7.96216V9.09677C1.59082 13.4183 4.85484 15.4903 6.79589 16.3382L6.81508 16.3466C7.05578 16.4518 7.282 16.5506 7.54195 16.6171C7.81643 16.6874 8.10798 16.7174 8.49707 16.7174C8.88616 16.7174 9.17771 16.6874 9.45219 16.6171C9.71215 16.5506 9.93839 16.4518 10.179 16.3466L10.1983 16.3382C12.1393 15.4903 15.4033 13.4183 15.4033 9.09677V7.96231C15.4033 6.84584 15.4033 5.98506 15.3691 5.35674C15.3519 5.04032 15.3252 4.76472 15.2809 4.53498C15.2384 4.31399 15.1706 4.08444 15.0395 3.89771C14.9069 3.70879 14.7118 3.56788 14.5172 3.4549C14.315 3.33751 14.064 3.22261 13.772 3.10398C13.1923 2.86848 12.3826 2.5913 11.3332 2.23212L10.818 2.05574C9.79523 1.70544 9.16113 1.48828 8.49707 1.48828ZM6.42918 3.09216C7.57277 2.70069 8.0312 2.55078 8.49707 2.55078C8.96294 2.55078 9.42138 2.70069 10.565 3.09216L10.9707 3.23104C12.0421 3.5978 12.8235 3.86548 13.3721 4.08835C13.6459 4.1996 13.8444 4.29282 13.9836 4.3737C14.0524 4.41363 14.0998 4.44658 14.1314 4.4723C14.1582 4.49409 14.1684 4.50643 14.1699 4.50825C14.1712 4.51046 14.1801 4.52517 14.1925 4.56C14.2067 4.59974 14.2223 4.65672 14.2376 4.73603C14.2686 4.89656 14.292 5.11708 14.3082 5.41452C14.3406 6.01036 14.3408 6.8421 14.3408 7.98136V9.09677C14.3408 12.7625 11.5996 14.5666 9.77292 15.3645C9.50978 15.4795 9.35784 15.5445 9.18869 15.5878C9.02712 15.6292 8.82999 15.6549 8.49707 15.6549C8.16416 15.6549 7.96703 15.6292 7.80545 15.5878C7.6363 15.5445 7.48437 15.4795 7.22122 15.3645C5.3945 14.5666 2.65332 12.7625 2.65332 9.09677V7.98136C2.65332 6.8421 2.65352 6.01036 2.68596 5.41452C2.70215 5.11708 2.7256 4.89656 2.75653 4.73603C2.77182 4.65672 2.78751 4.59974 2.80167 4.56C2.81406 4.52519 2.82287 4.51048 2.82423 4.50825C2.8257 4.50645 2.83593 4.4941 2.86275 4.4723C2.89439 4.44658 2.94177 4.41363 3.01053 4.3737C3.14979 4.29282 3.3482 4.1996 3.62203 4.08835C4.17064 3.86548 4.95201 3.5978 6.02343 3.23104L6.42918 3.09216Z" fill="#212121"/>
</svg>
