<svg width="40" height="40" viewBox="0 0 40 40" fill="none" xmlns="http://www.w3.org/2000/svg">
<path d="M15 7.22656H32.8125V12.5391H15V7.22656ZM7.1875 7.22656H12.5V32.8516H7.1875V7.22656ZM34.375 4.375H5.625C4.93359 4.375 4.375 4.93359 4.375 5.625V5.66406C4.375 4.97266 4.93359 4.41406 5.625 4.41406H34.375C35.0664 4.41406 35.625 4.97266 35.625 5.66406V5.625C35.625 4.93359 35.0664 4.375 34.375 4.375ZM15 15.0391H32.8125V32.8516H15V15.0391Z" fill="white"/>
<path d="M34.375 4.41406H5.625C4.93359 4.41406 4.375 4.97266 4.375 5.66406V34.4141C4.375 35.1055 4.93359 35.6641 5.625 35.6641H34.375C35.0664 35.6641 35.625 35.1055 35.625 34.4141V5.66406C35.625 4.97266 35.0664 4.41406 34.375 4.41406ZM12.5 32.8516H7.1875V7.22656H12.5V32.8516ZM32.8125 32.8516H15V15.0391H32.8125V32.8516ZM32.8125 12.5391H15V7.22656H32.8125V12.5391Z" fill="#FF4F4F"/>
</svg>
