<svg width="40" height="40" viewBox="0 0 40 40" fill="none" xmlns="http://www.w3.org/2000/svg">
<path d="M34.8504 18.5332C34.8504 26.6832 28.9337 34.3165 20.8504 36.5498C20.3004 36.6998 19.7004 36.6998 19.1504 36.5498C11.067 34.3165 5.15039 26.6832 5.15039 18.5332V11.2165C5.15039 9.84981 6.18375 8.29982 7.46708 7.78315L16.7504 3.9832C18.8337 3.1332 21.1837 3.1332 23.267 3.9832L32.5504 7.78315C33.8171 8.29982 34.8671 9.84981 34.8671 11.2165L34.8504 18.5332Z" stroke="#FF4F4F" stroke-width="2.5" stroke-linecap="round" stroke-linejoin="round"/>
<path d="M20.0003 20.8327C21.8413 20.8327 23.3337 19.3403 23.3337 17.4993C23.3337 15.6584 21.8413 14.166 20.0003 14.166C18.1594 14.166 16.667 15.6584 16.667 17.4993C16.667 19.3403 18.1594 20.8327 20.0003 20.8327Z" stroke="#FF4F4F" stroke-width="2.5" stroke-miterlimit="10" stroke-linecap="round" stroke-linejoin="round"/>
<path d="M20 20.832V25.832" stroke="#FF4F4F" stroke-width="2.5" stroke-miterlimit="10" stroke-linecap="round" stroke-linejoin="round"/>
</svg>
