<svg width="25" height="23" viewBox="0 0 25 23" fill="none" xmlns="http://www.w3.org/2000/svg">
<path d="M12.5005 4.91666C11.2058 3.26888 9.21006 1.6211 4.2639 1.50018C3.93902 1.49225 3.67407 1.75613 3.67407 2.08111C3.67407 4.49187 3.67407 13.6187 3.67407 16.3179C3.67407 16.6428 3.93904 16.8981 4.26384 16.9087C9.21005 17.0704 11.2058 19.2633 12.5005 20.9112M12.5005 4.91666C13.7951 3.26888 15.7908 1.6211 20.737 1.50018C21.062 1.49225 21.3269 1.7502 21.3269 2.07518C21.3269 4.77001 21.3269 13.6222 21.3269 16.3171C21.3269 16.642 21.062 16.8981 20.7371 16.9087C15.791 17.0704 13.7951 19.2633 12.5005 20.9112M12.5005 4.91666V20.9112" stroke="black" stroke-width="1.12929" stroke-linejoin="round"/>
<path d="M21.0149 3.84717H23.6801C24.005 3.84717 24.2685 4.11062 24.2685 4.43559V19.7806C24.2685 20.2567 23.7075 20.5731 23.2723 20.3797C22.3366 19.9639 20.775 19.456 18.7304 19.456C15.269 19.456 12.5 21.5 12.5 21.5C12.5 21.5 9.73091 19.456 6.26958 19.456C4.22488 19.456 2.66332 19.9639 1.72762 20.3797C1.29243 20.5731 0.731445 20.2567 0.731445 19.7806V4.43559C0.731445 4.11062 0.994896 3.84717 1.31987 3.84717H3.9851" stroke="black" stroke-width="1.12929" stroke-linejoin="round"/>
</svg>
