<svg width="25" height="23" viewBox="0 0 25 23" fill="none" xmlns="http://www.w3.org/2000/svg">
<path d="M2.83301 8.16653C2.83301 5.0239 2.83301 3.45258 3.8093 2.47629C4.78559 1.5 6.3569 1.5 9.49954 1.5H16.1661C19.3087 1.5 20.88 1.5 21.8563 2.47629C22.8326 3.45258 22.8326 5.0239 22.8326 8.16653V13.722C22.8326 15.817 22.8326 16.8646 22.1817 17.5155C21.5309 18.1663 20.4833 18.1663 18.3883 18.1663H7.27736C5.18227 18.1663 4.13473 18.1663 3.48387 17.5155C2.83301 16.8646 2.83301 15.817 2.83301 13.722V8.16653Z" stroke="black" stroke-width="1.50572"/>
<path d="M23.9442 21.5H1.72241" stroke="black" stroke-width="1.50572" stroke-linecap="round"/>
<path d="M16.1663 14.8325H9.49976" stroke="black" stroke-width="1.50572" stroke-linecap="round"/>
</svg>
