<svg width="16" height="21" viewBox="0 0 16 21" fill="none" xmlns="http://www.w3.org/2000/svg">
<path d="M11.0409 12.5517V9.66541H12.0419C12.2429 9.66541 12.4059 9.50244 12.4059 9.30143V7.02651C12.4059 6.8255 12.2429 6.66252 12.0419 6.66252H11.0409V3.28791C11.0409 2.9499 10.8892 2.63542 10.6246 2.42508L8.50475 0.739503C8.31051 0.585036 8.06687 0.5 7.81872 0.5C7.56812 0.5 7.32265 0.586538 7.12746 0.743644L5.03682 2.42649C4.77556 2.63683 4.62569 2.94981 4.62569 3.28523V6.66257H3.62473C3.42372 6.66257 3.26074 6.82554 3.26074 7.02656V9.30147C3.26074 9.50248 3.42372 9.66546 3.62473 9.66546H4.62569V12.5518C4.62569 13.2182 5.16785 13.7604 5.83427 13.7604H5.85133C6.11631 13.7604 6.33193 13.9759 6.33193 14.241V15.0542C6.33193 15.7206 6.87408 16.2628 7.5405 16.2628H8.12629C8.79266 16.2628 9.33486 15.7207 9.33486 15.0542V14.241C9.33486 13.976 9.55043 13.7604 9.81546 13.7604H9.83252C10.4988 13.7603 11.0409 13.2182 11.0409 12.5517ZM5.35358 3.28523C5.35362 3.1713 5.40449 3.06501 5.49326 2.99358L7.5839 1.31073C7.6512 1.25659 7.73237 1.22797 7.81868 1.22797C7.90417 1.22797 7.9847 1.25609 8.05167 1.30932L10.1715 2.9949C10.2614 3.06633 10.3129 3.17316 10.3129 3.28796V3.71041H8.42239C8.22138 3.71041 8.05841 3.87338 8.05841 4.07439C8.05841 4.27541 8.22138 4.43838 8.42239 4.43838H10.3129V5.1967H8.42239C8.22138 5.1967 8.05841 5.35968 8.05841 5.56069C8.05841 5.7617 8.22138 5.92468 8.42239 5.92468H10.3129V6.66261H5.35358V3.28523ZM9.83234 13.0323H9.81528C9.14891 13.0323 8.60671 13.5745 8.60671 14.2409V15.0542C8.60671 15.3192 8.39114 15.5348 8.12611 15.5348H7.54032C7.27533 15.5348 7.05972 15.3192 7.05972 15.0542V14.2409C7.05972 13.5745 6.51756 13.0323 5.85115 13.0323H5.83408C5.5691 13.0323 5.35348 12.8168 5.35348 12.5517V9.66541H10.3128V12.5517H10.3129C10.3129 12.8167 10.0974 13.0323 9.83234 13.0323ZM4.98963 8.93749H3.98867V7.39054H4.98963H10.6769H11.6779V8.93749H10.6769H4.98963Z" fill="black"/>
<path d="M7.83293 17.0894C7.73548 17.0894 7.64216 17.1284 7.57377 17.1978C7.38191 17.3923 6.4248 18.398 6.4248 19.089C6.4248 19.8654 7.0565 20.4971 7.83293 20.4971C8.60936 20.4971 9.24106 19.8654 9.24106 19.089C9.24106 18.398 8.28396 17.3923 8.09209 17.1978C8.02371 17.1284 7.93035 17.0894 7.83293 17.0894ZM7.83293 19.7692C7.45789 19.7692 7.15278 19.4641 7.15278 19.089C7.15278 18.8828 7.47108 18.408 7.83293 17.9902C8.19483 18.4081 8.51309 18.8828 8.51309 19.089C8.51309 19.4641 8.20798 19.7692 7.83293 19.7692Z" fill="black"/>
<path d="M15.1191 19.772H10.3332C10.1322 19.772 9.96924 19.9349 9.96924 20.136C9.96924 20.337 10.1322 20.4999 10.3332 20.4999H15.1191C15.3201 20.4999 15.483 20.337 15.483 20.136C15.483 19.9349 15.3201 19.772 15.1191 19.772Z" fill="black"/>
<path d="M5.33293 19.772H0.547092C0.34608 19.772 0.183105 19.9349 0.183105 20.136C0.183105 20.337 0.34608 20.4999 0.547092 20.4999H5.33293C5.53394 20.4999 5.69691 20.337 5.69691 20.136C5.69691 19.9349 5.53394 19.772 5.33293 19.772Z" fill="black"/>
</svg>
