<svg width="21" height="21" viewBox="0 0 21 21" fill="none" xmlns="http://www.w3.org/2000/svg">
<path d="M8.46511 12.5373H12.5351L11.6745 9.09508C11.3008 9.19892 10.9069 9.25442 10.5001 9.25442C10.0933 9.25442 9.69941 9.19892 9.32567 9.09508L8.46511 12.5373ZM7.33713 12.5373L8.30517 8.66517C7.0003 7.90743 6.12288 6.49479 6.12288 4.87721C6.12288 2.45974 8.08262 0.5 10.5001 0.5C12.9176 0.5 14.8773 2.45974 14.8773 4.87721C14.8773 6.49479 13.9999 7.90743 12.695 8.66517L13.663 12.5373H17.6131C19.124 12.5373 20.3488 13.7622 20.3488 15.2731V17.4617C20.3488 17.7639 20.1038 18.0088 19.8017 18.0088H1.19852C0.896335 18.0088 0.651367 17.7639 0.651367 17.4617V15.2731C0.651367 13.7622 1.87621 12.5373 3.38712 12.5373H7.33713ZM10.5001 8.16012C12.3132 8.16012 13.783 6.69031 13.783 4.87721C13.783 3.06411 12.3132 1.5943 10.5001 1.5943C8.68699 1.5943 7.21718 3.06411 7.21718 4.87721C7.21718 6.69031 8.68699 8.16012 10.5001 8.16012ZM19.2545 16.9145V15.2731C19.2545 14.3665 18.5196 13.6316 17.6131 13.6316H3.38712C2.48057 13.6316 1.74567 14.3665 1.74567 15.2731V16.9145H19.2545Z" fill="black"/>
<rect x="0.352783" y="19.3062" width="20.2943" height="1.19378" rx="0.596892" fill="black"/>
</svg>
