<svg width="17" height="21" viewBox="0 0 17 21" fill="none" xmlns="http://www.w3.org/2000/svg">
<path d="M4.12036 9.77393H12.8964V10.7656H4.12036V9.77393ZM4.12036 14.1372H9.49176V15.1288H4.12036V14.1372Z" fill="black"/>
<path d="M14.83 20.5001H2.17003C1.90559 20.5001 1.65768 20.4505 1.40977 20.3514C1.17839 20.2522 0.963533 20.12 0.798259 19.9382C0.616458 19.7564 0.484239 19.558 0.385074 19.3267C0.28591 19.0788 0.236328 18.8308 0.236328 18.5664V5.39408C0.236328 5.12964 0.28591 4.88173 0.385074 4.63382C0.484239 4.40244 0.616458 4.18758 0.798259 4.02231C0.98006 3.8405 1.17839 3.70829 1.40977 3.60912C1.65768 3.50996 1.90559 3.46038 2.17003 3.46038H4.08721V4.43549H2.17003C1.64116 4.43549 1.19492 4.8652 1.19492 5.41061V18.5829C1.19492 19.1118 1.62463 19.558 2.17003 19.558H14.8135C15.3424 19.558 15.7886 19.1283 15.7886 18.5829V5.39408C15.7886 4.8652 15.3589 4.41896 14.8135 4.41896H12.9128V3.44385H14.83C15.0944 3.44385 15.3424 3.49343 15.5903 3.59259C15.8216 3.69176 16.0365 3.82398 16.2018 4.00578C16.3836 4.18758 16.5158 4.38591 16.615 4.61729C16.7141 4.8652 16.7637 5.11311 16.7637 5.37755V18.5499C16.7637 18.8143 16.7141 19.0622 16.615 19.3101C16.5158 19.5415 16.3836 19.7564 16.2018 19.9216C16.02 20.1034 15.8216 20.2357 15.5903 20.3348C15.3424 20.4505 15.0944 20.5001 14.83 20.5001Z" fill="black"/>
<path d="M13.3595 6.36722H3.64136V3.19396C3.64136 2.51634 4.18676 1.97094 4.86438 1.97094H6.12046C6.5667 1.07846 7.49224 0.5 8.51694 0.5C9.54163 0.5 10.4672 1.07846 10.9134 1.97094H12.1695C12.8471 1.97094 13.3925 2.51634 13.3925 3.19396L13.3595 6.36722ZM4.61647 5.39211H12.4009V3.19396C12.4009 3.06174 12.2852 2.94605 12.153 2.94605H10.2193L10.1036 2.6155C9.87218 1.93788 9.22761 1.47512 8.50041 1.47512C7.7732 1.47512 7.12864 1.93788 6.89725 2.6155L6.78156 2.94605H4.84786C4.71564 2.94605 4.59995 3.06174 4.59995 3.19396V5.39211H4.61647Z" fill="black"/>
</svg>
