<svg width="22" height="23" viewBox="0 0 22 23" fill="none" xmlns="http://www.w3.org/2000/svg">
<path d="M3.66717 17.0578H2.27836C1.66472 17.0578 1.1673 16.5604 1.1673 15.9467V7.05832C1.1673 6.44471 1.66472 5.94727 2.27836 5.94727H20.0552C20.6688 5.94727 21.1663 6.44471 21.1663 7.05832V15.9467C21.1663 16.5604 20.6688 17.0578 20.0552 17.0578H18.6664" stroke="black" stroke-width="1.17856" stroke-linecap="round" stroke-linejoin="round"/>
<path d="M17.8333 11.5007C17.8333 10.8871 17.3358 10.3896 16.7222 10.3896H5.61167C4.99803 10.3896 4.50061 10.8871 4.50061 11.5007V20.3891C4.50061 21.0028 4.99803 21.5002 5.61167 21.5002H16.7222C17.3358 21.5002 17.8333 21.0028 17.8333 20.3891V11.5007Z" stroke="black" stroke-width="1.17856" stroke-linecap="round" stroke-linejoin="round"/>
<path d="M17.8333 2.61105C17.8333 1.99744 17.3358 1.5 16.7222 1.5H5.61167C4.99803 1.5 4.50061 1.99744 4.50061 2.61105V5.94421H17.8333V2.61105Z" stroke="black" stroke-width="1.17856" stroke-linecap="round" stroke-linejoin="round"/>
<path d="M15.0559 13.1689H7.27854" stroke="black" stroke-width="1.17856" stroke-linecap="round" stroke-linejoin="round"/>
<path d="M15.0559 18.7227H7.27854" stroke="black" stroke-width="1.17856" stroke-linecap="round" stroke-linejoin="round"/>
<path d="M15.0559 15.9443H7.27854" stroke="black" stroke-width="1.17856" stroke-linecap="round" stroke-linejoin="round"/>
</svg>
