<svg width="15" height="21" viewBox="0 0 15 21" fill="none" xmlns="http://www.w3.org/2000/svg">
<path d="M7.16411 18.4857C6.60821 18.4857 6.15757 18.0351 6.15757 17.4792C6.15757 16.9233 6.60821 16.4727 7.16411 16.4727C7.72001 16.4727 8.17065 16.9233 8.17065 17.4792C8.17065 18.0351 7.72001 18.4857 7.16411 18.4857Z" fill="black"/>
<path d="M2.41122 0.5H11.9231C12.5545 0.537932 13.1455 0.823494 13.5677 1.29465C13.9899 1.76581 14.2091 2.38451 14.1777 3.01636V17.9836C14.2091 18.6155 13.9899 19.2342 13.5677 19.7053C13.1455 20.1765 12.5545 20.4621 11.9231 20.5H2.41122C1.77907 20.4639 1.18696 20.1788 0.764425 19.7073C0.34189 19.2357 0.123333 18.616 0.156569 17.9836V3.01636C0.123333 2.38405 0.34189 1.76431 0.764425 1.29273C1.18696 0.821152 1.77907 0.536123 2.41122 0.5ZM1.16311 17.9836C1.13053 18.3489 1.24331 18.7123 1.47697 18.995C1.71064 19.2776 2.04633 19.4567 2.41122 19.4935H11.9231C12.2872 19.455 12.6218 19.2754 12.8551 18.9932C13.0884 18.7109 13.2019 18.3485 13.1712 17.9836V15.4673H1.16311V17.9836ZM1.16311 14.4607H13.1712V3.01636C13.2019 2.65147 13.0884 2.28906 12.8551 2.00683C12.6218 1.7246 12.2872 1.545 11.9231 1.50654H2.41122C2.04633 1.54325 1.71064 1.72236 1.47697 2.00502C1.24331 2.28768 1.13053 2.65107 1.16311 3.01636V14.4607Z" fill="black"/>
<rect x="4.86743" y="2.44482" width="4.60134" height="1.15033" rx="0.575167" fill="black"/>
</svg>
