<svg width="16" height="16" viewBox="0 0 16 16" fill="none" xmlns="http://www.w3.org/2000/svg">
<path d="M14.167 11.3124C13.8491 11.5089 13.4755 11.6249 13.0742 11.6249C12.4371 11.6248 11.8658 11.338 11.4814 10.8876C11.0971 11.3401 10.5256 11.6287 9.88672 11.6288C9.33454 11.6288 8.83348 11.4119 8.45898 11.0614V14.1708H12.4287C13.126 14.1707 13.5308 14.0089 13.7676 13.7723C14.0044 13.5355 14.167 13.1301 14.167 12.4325V11.3124ZM8.79297 9.53501C8.79297 10.1372 9.28458 10.6288 9.88672 10.6288C10.489 10.6287 10.9805 10.1371 10.9805 9.53501V7.65513L8.79297 7.16392V9.53501ZM11.9805 9.53501C11.9828 10.1352 12.4734 10.6248 13.0742 10.6249C13.6466 10.6249 14.1167 10.1763 14.1582 9.61509C14.1366 9.04608 13.9718 8.72159 13.7686 8.51646C13.5514 8.29747 13.2326 8.1553 12.8096 8.06236L12.8086 8.06138L11.9805 7.87779V9.53501ZM5.45996 7.79673C5.73606 7.79678 5.95996 8.02062 5.95996 8.29673C5.95996 8.57284 5.73606 8.79668 5.45996 8.79673H3.00195C2.72581 8.79673 2.50195 8.57287 2.50195 8.29673C2.50195 8.02059 2.72581 7.79673 3.00195 7.79673H5.45996ZM5.45996 4.96079C5.73606 4.96084 5.95996 5.18468 5.95996 5.46079C5.95996 5.73691 5.73606 5.96075 5.45996 5.96079H3.00195C2.72581 5.96079 2.50195 5.73694 2.50195 5.46079C2.50195 5.18465 2.72581 4.96079 3.00195 4.96079H5.45996ZM15.167 12.4325C15.167 13.2648 14.9745 13.9795 14.4746 14.4793C13.9748 14.979 13.2609 15.1707 12.4287 15.1708H7.95898C7.94544 15.1708 7.93222 15.1679 7.91895 15.1668H1.99414C0.905892 15.1666 0 14.2928 0 13.2001V2.68931C0 1.64117 0.395515 0.775059 1.14258 0.320169C1.88716 -0.133077 2.8444 -0.0948638 3.79395 0.369974H3.79492L6.93945 1.91392L7.10156 2.00279C7.47243 2.22566 7.78717 2.56064 8.0166 2.92466C8.2786 3.34039 8.45891 3.84035 8.45898 4.33189V6.06333L11.5488 6.75669C11.562 6.75853 11.5757 6.75866 11.5889 6.76158L13.0244 7.07994H13.0254C13.5373 7.19241 14.0698 7.39427 14.4795 7.80747C14.9003 8.23199 15.1359 8.8231 15.1602 9.60044C15.1602 9.60207 15.1601 9.6037 15.1602 9.60533C15.1661 9.66919 15.167 9.72483 15.167 9.75572V12.4325ZM1 13.2001C1 13.722 1.43947 14.1666 1.99414 14.1668H7.45898V4.33189C7.45891 4.07286 7.35843 3.7555 7.1709 3.45786C6.98339 3.16036 6.73745 2.92908 6.49902 2.81236V2.81138L3.35449 1.26744V1.26841C2.61121 0.904548 2.03135 0.949828 1.66211 1.17466C1.29547 1.39809 1 1.88186 1 2.68931V13.2001Z" fill="black"/>
</svg>
