<svg width="40" height="40" viewBox="0 0 40 40" fill="none" xmlns="http://www.w3.org/2000/svg">
<path d="M12.0997 3.33398H27.8831C28.9664 3.33398 29.9331 3.36736 30.7997 3.48403C35.4164 4.0007 36.6664 6.16733 36.6664 12.1007V22.634C36.6664 28.5673 35.4164 30.734 30.7997 31.2507C29.9331 31.3673 28.9831 31.4007 27.8831 31.4007H12.0997C11.0164 31.4007 10.0497 31.3673 9.18305 31.2507C4.56639 30.734 3.31641 28.5673 3.31641 22.634V12.1007C3.31641 6.16733 4.56639 4.0007 9.18305 3.48403C10.0497 3.36736 11.0164 3.33398 12.0997 3.33398Z" stroke="#FF4F4F" stroke-width="2.5" stroke-linecap="round" stroke-linejoin="round"/>
<path d="M22.6328 13.8672H28.7661" stroke="#FF4F4F" stroke-width="2.5" stroke-linecap="round" stroke-linejoin="round"/>
<path d="M11.2334 23.5176H11.2667H28.7834" stroke="#FF4F4F" stroke-width="2.5" stroke-linecap="round" stroke-linejoin="round"/>
<path d="M11.667 36.666H28.3337" stroke="#FF4F4F" stroke-width="2.5" stroke-linecap="round" stroke-linejoin="round"/>
<path d="M11.9912 13.8333H12.0061" stroke="#FF4F4F" stroke-width="2.5" stroke-linecap="round" stroke-linejoin="round"/>
<path d="M17.4912 13.8333H17.5061" stroke="#FF4F4F" stroke-width="2.5" stroke-linecap="round" stroke-linejoin="round"/>
</svg>
