<svg width="28" height="28" viewBox="0 0 28 28" fill="none" xmlns="http://www.w3.org/2000/svg">
<path fill-rule="evenodd" clip-rule="evenodd" d="M13.4193 3.21094C7.78137 3.21094 3.21094 7.78137 3.21094 13.4193C3.21094 19.0572 7.78137 23.6276 13.4193 23.6276C19.0572 23.6276 23.6276 19.0572 23.6276 13.4193C23.6276 7.78137 19.0572 3.21094 13.4193 3.21094ZM1.46094 13.4193C1.46094 6.81486 6.81486 1.46094 13.4193 1.46094C20.0237 1.46094 25.3776 6.81486 25.3776 13.4193C25.3776 16.4065 24.2822 19.1379 22.4713 21.2338L26.288 25.0506C26.6297 25.3923 26.6297 25.9462 26.288 26.288C25.9462 26.6297 25.3923 26.6297 25.0506 26.288L21.2338 22.4713C19.1379 24.2822 16.4065 25.3776 13.4193 25.3776C6.81486 25.3776 1.46094 20.0237 1.46094 13.4193Z" fill="#D2D2D2"/>
</svg>
