<svg width="83" height="32" viewBox="0 0 83 32" fill="none" xmlns="http://www.w3.org/2000/svg">
<rect width="82.7692" height="32" rx="16" fill="#FEF2F2"/>
<rect x="0.615385" y="0.615385" width="81.5385" height="30.7692" rx="15.3846" stroke="#FF4F4F" stroke-opacity="0.2" stroke-width="1.23077"/>
<path d="M20.0681 20.0192C20.0681 19.6514 20.0104 19.3269 19.895 19.0457C19.7868 18.7572 19.5921 18.4976 19.3108 18.2668C19.0368 18.0361 18.6546 17.8161 18.1642 17.607C17.681 17.3978 17.0681 17.1851 16.3253 16.9687C15.5464 16.738 14.8433 16.482 14.2159 16.2007C13.5885 15.9123 13.0512 15.5841 12.6041 15.2163C12.157 14.8486 11.8145 14.4267 11.5765 13.9507C11.3385 13.4748 11.2195 12.9303 11.2195 12.3173C11.2195 11.7043 11.3457 11.1382 11.5981 10.619C11.8505 10.0998 12.2111 9.64904 12.6798 9.26683C13.1558 8.8774 13.7219 8.57452 14.3782 8.35817C15.0344 8.14183 15.7664 8.03365 16.5741 8.03365C17.7568 8.03365 18.7592 8.26082 19.5813 8.71514C20.4106 9.16226 21.0416 9.75 21.4743 10.4784C21.907 11.1995 22.1233 11.9712 22.1233 12.7933H20.0464C20.0464 12.2019 19.9202 11.6791 19.6678 11.2248C19.4154 10.7632 19.0332 10.4026 18.5212 10.143C18.0092 9.8762 17.3601 9.74279 16.5741 9.74279C15.8313 9.74279 15.2183 9.85457 14.7351 10.0781C14.252 10.3017 13.8914 10.6046 13.6534 10.9868C13.4226 11.369 13.3072 11.8053 13.3072 12.2957C13.3072 12.6274 13.3758 12.9303 13.5128 13.2043C13.657 13.4712 13.877 13.72 14.1726 13.9507C14.4755 14.1815 14.8577 14.3942 15.3193 14.5889C15.788 14.7837 16.3469 14.9712 16.9959 15.1514C17.8902 15.4038 18.6618 15.6851 19.3108 15.9952C19.9599 16.3053 20.4935 16.655 20.9118 17.0445C21.3373 17.4267 21.651 17.863 21.8529 18.3534C22.062 18.8365 22.1666 19.3846 22.1666 19.9976C22.1666 20.6394 22.0368 21.22 21.7772 21.7392C21.5176 22.2584 21.1462 22.7019 20.663 23.0697C20.1798 23.4375 19.5993 23.7224 18.9214 23.9243C18.2508 24.119 17.5008 24.2163 16.6714 24.2163C15.9431 24.2163 15.2255 24.1154 14.5188 23.9135C13.8193 23.7115 13.181 23.4087 12.6041 23.0048C12.0344 22.601 11.5765 22.1034 11.2303 21.512C10.8914 20.9135 10.7219 20.2212 10.7219 19.4351H12.7988C12.7988 19.976 12.9034 20.4411 13.1125 20.8305C13.3217 21.2127 13.6065 21.53 13.9671 21.7825C14.3349 22.0349 14.7495 22.2224 15.2111 22.345C15.6798 22.4603 16.1666 22.518 16.6714 22.518C17.3998 22.518 18.0164 22.4171 18.5212 22.2151C19.026 22.0132 19.4082 21.7248 19.6678 21.3498C19.9346 20.9748 20.0681 20.5312 20.0681 20.0192ZM36.9431 8.25V24H34.8445L26.9154 11.8522V24H24.8277V8.25H26.9154L34.877 20.4303V8.25H36.9431ZM42.8818 8.25V24H40.794V8.25H42.8818Z" fill="#FF4F4F"/>
<path d="M65.5391 3.69141C58.7576 3.69141 53.2314 9.21756 53.2314 15.9991C53.2314 22.7806 58.7576 28.3068 65.5391 28.3068C72.3207 28.3068 77.8468 22.7806 77.8468 15.9991C77.8468 9.21756 72.3207 3.69141 65.5391 3.69141ZM71.4222 13.1683L64.4438 20.1468C64.2714 20.3191 64.0376 20.4176 63.7914 20.4176C63.5453 20.4176 63.3114 20.3191 63.1391 20.1468L59.6561 16.6637C59.2991 16.3068 59.2991 15.716 59.6561 15.3591C60.013 15.0022 60.6038 15.0022 60.9607 15.3591L63.7914 18.1899L70.1176 11.8637C70.4745 11.5068 71.0653 11.5068 71.4222 11.8637C71.7791 12.2206 71.7791 12.7991 71.4222 13.1683Z" fill="#FF4F4F"/>
</svg>
