<svg width="20" height="18" viewBox="0 0 40 40" fill="none" xmlns="http://www.w3.org/2000/svg">
<path d="M24.9997 3.3335V20.0002C24.9997 21.8335 23.4997 23.3335 21.6663 23.3335H3.33301V12.7002C4.54967 14.1502 6.41639 15.0502 8.48306 15.0002C10.1664 14.9668 11.683 14.3168 12.8163 13.2335C13.333 12.8002 13.7664 12.2501 14.0997 11.6501C14.6997 10.6335 15.033 9.43345 14.9997 8.18345C14.9497 6.23345 14.083 4.51683 12.733 3.3335H24.9997Z" stroke="#212121" stroke-width="2.3" stroke-linecap="round" stroke-linejoin="round"/>
<path d="M36.6663 23.3335V28.3335C36.6663 31.1002 34.433 33.3335 31.6663 33.3335H29.9997C29.9997 31.5002 28.4997 30.0002 26.6663 30.0002C24.833 30.0002 23.333 31.5002 23.333 33.3335H16.6663C16.6663 31.5002 15.1663 30.0002 13.333 30.0002C11.4997 30.0002 9.99967 31.5002 9.99967 33.3335H8.33301C5.56634 33.3335 3.33301 31.1002 3.33301 28.3335V23.3335H21.6663C23.4997 23.3335 24.9997 21.8335 24.9997 20.0002V8.3335H28.0663C29.2663 8.3335 30.3663 8.98351 30.9663 10.0168L33.8163 15.0002H31.6663C30.7497 15.0002 29.9997 15.7502 29.9997 16.6668V21.6668C29.9997 22.5835 30.7497 23.3335 31.6663 23.3335H36.6663Z" stroke="#212121" stroke-width="2.3" stroke-linecap="round" stroke-linejoin="round"/>
<path d="M13.3333 36.6667C15.1743 36.6667 16.6667 35.1743 16.6667 33.3333C16.6667 31.4923 15.1743 30 13.3333 30C11.4924 30 10 31.4923 10 33.3333C10 35.1743 11.4924 36.6667 13.3333 36.6667Z" stroke="#212121" stroke-width="2.3" stroke-linecap="round" stroke-linejoin="round"/>
<path d="M26.6663 36.6667C28.5073 36.6667 29.9997 35.1743 29.9997 33.3333C29.9997 31.4923 28.5073 30 26.6663 30C24.8253 30 23.333 31.4923 23.333 33.3333C23.333 35.1743 24.8253 36.6667 26.6663 36.6667Z" stroke="#212121" stroke-width="2.3" stroke-linecap="round" stroke-linejoin="round"/>
<path d="M36.6667 20V23.3333H31.6667C30.75 23.3333 30 22.5833 30 21.6667V16.6667C30 15.75 30.75 15 31.6667 15H33.8167L36.6667 20Z" stroke="#212121" stroke-width="2.3" stroke-linecap="round" stroke-linejoin="round"/>
<path d="M15.0003 8.1834C15.0336 9.4334 14.7003 10.6334 14.1003 11.6501C13.767 12.2501 13.3336 12.8001 12.817 13.2334C11.6836 14.3168 10.167 14.9668 8.48366 15.0001C6.41699 15.0501 4.55029 14.1501 3.33362 12.7001C3.10029 12.4501 2.90029 12.1668 2.71696 11.8834C2.06696 10.9001 1.70029 9.7335 1.66695 8.4835C1.61695 6.3835 2.55027 4.46676 4.05027 3.21676C5.18361 2.28343 6.61691 1.70011 8.18357 1.66678C9.93357 1.63345 11.5336 2.26678 12.7336 3.33345C14.0836 4.51678 14.9503 6.2334 15.0003 8.1834Z" stroke="#212121" stroke-width="2.3" stroke-miterlimit="10" stroke-linecap="round" stroke-linejoin="round"/>
<path d="M5.7334 8.38347L7.41675 9.9834L10.9 6.6167" stroke="#212121" stroke-width="2.3" stroke-linecap="round" stroke-linejoin="round"/>
</svg>