<svg width="16" height="15" viewBox="0 0 16 15" fill="none" xmlns="http://www.w3.org/2000/svg">
<path fill-rule="evenodd" clip-rule="evenodd" d="M7.91946 0.486817H7.98836C8.58361 0.486797 9.07996 0.486784 9.47401 0.539758C9.88993 0.595679 10.2654 0.718686 10.5671 1.02043C10.8689 1.32218 10.9919 1.69769 11.0478 2.1136C11.087 2.40483 11.0972 2.75196 11.0999 3.1536C11.5295 3.16738 11.9125 3.19251 12.2529 3.23827C13.0296 3.3427 13.6583 3.56273 14.1541 4.05851C14.6499 4.55431 14.8699 5.18299 14.9744 5.95972C15.0758 6.71445 15.0758 7.67878 15.0758 8.89633V8.97106C15.0758 10.1886 15.0758 11.1529 14.9744 11.9077C14.8699 12.6844 14.6499 13.3131 14.1541 13.8089C13.6583 14.3046 13.0296 14.5247 12.2529 14.6291C11.4981 14.7306 10.5338 14.7306 9.31627 14.7306H6.59153C5.37402 14.7306 4.40966 14.7306 3.65493 14.6291C2.8782 14.5247 2.24952 14.3046 1.75373 13.8089C1.25794 13.3131 1.03791 12.6844 0.933487 11.9077C0.832012 11.1529 0.832018 10.1886 0.832032 8.97106V8.89633C0.832018 7.67878 0.832012 6.71445 0.933487 5.95972C1.03791 5.18299 1.25794 4.55431 1.75373 4.05851C2.24952 3.56273 2.8782 3.3427 3.65493 3.23827C3.9953 3.19251 4.37831 3.16738 4.80796 3.1536C4.81061 2.75196 4.82082 2.40483 4.85997 2.1136C4.91589 1.69769 5.0389 1.32218 5.34065 1.02043C5.6424 0.718686 6.0179 0.595679 6.43381 0.539758C6.82785 0.486784 7.3242 0.486797 7.91946 0.486817ZM5.80197 3.138C6.05248 3.13681 6.3155 3.13682 6.59153 3.13682H9.31627C9.59233 3.13682 9.85535 3.13681 10.1058 3.138C10.1031 2.76016 10.0938 2.47515 10.063 2.24601C10.0218 1.9403 9.95081 1.80946 9.86449 1.72312C9.77817 1.63678 9.64732 1.56575 9.34158 1.52465C9.02159 1.48163 8.59256 1.48057 7.95391 1.48057C7.31526 1.48057 6.88622 1.48163 6.56623 1.52465C6.26051 1.56575 6.12967 1.63678 6.04334 1.72312C5.957 1.80946 5.88597 1.9403 5.84486 2.24601C5.81406 2.47515 5.80476 2.76016 5.80197 3.138ZM3.78734 4.22316C3.12081 4.31277 2.73679 4.48083 2.45642 4.76121C2.17604 5.04158 2.00798 5.4256 1.91837 6.09213C1.82683 6.77295 1.82578 7.67044 1.82578 8.93369C1.82578 10.1969 1.82683 11.0944 1.91837 11.7753C2.00798 12.4418 2.17604 12.8258 2.45642 13.1062C2.73679 13.3866 3.12081 13.5546 3.78734 13.6442C4.46817 13.7358 5.36564 13.7368 6.62891 13.7368H9.27891C10.5422 13.7368 11.4396 13.7358 12.1205 13.6442C12.787 13.5546 13.171 13.3866 13.4514 13.1062C13.7318 12.8258 13.8998 12.4418 13.9894 11.7753C14.081 11.0944 14.082 10.1969 14.082 8.93369C14.082 7.67044 14.081 6.77295 13.9894 6.09213C13.8998 5.4256 13.7318 5.04158 13.4514 4.76121C13.171 4.48083 12.787 4.31277 12.1205 4.22316C11.4396 4.13163 10.5422 4.13057 9.27891 4.13057H6.62891C5.36564 4.13057 4.46817 4.13163 3.78734 4.22316ZM7.95391 5.78682C8.22831 5.78682 8.45078 6.00928 8.45078 6.28369V6.29045C9.17211 6.47217 9.77578 7.04093 9.77578 7.8295C9.77578 8.10391 9.55331 8.32638 9.27891 8.32638C9.0045 8.32638 8.78203 8.10391 8.78203 7.8295C8.78203 7.5751 8.49994 7.22226 7.95391 7.22226C7.40787 7.22226 7.12578 7.5751 7.12578 7.8295C7.12578 8.08397 7.40787 8.43682 7.95391 8.43682C8.8714 8.43682 9.77578 9.07269 9.77578 10.0379C9.77578 10.8265 9.17211 11.3952 8.45078 11.5769V11.5837C8.45078 11.8581 8.22831 12.0806 7.95391 12.0806C7.6795 12.0806 7.45703 11.8581 7.45703 11.5837V11.5769C6.7357 11.3952 6.13203 10.8265 6.13203 10.0379C6.13203 9.76347 6.35449 9.54101 6.62891 9.54101C6.90331 9.54101 7.12578 9.76347 7.12578 10.0379C7.12578 10.2923 7.40787 10.6451 7.95391 10.6451C8.49994 10.6451 8.78203 10.2923 8.78203 10.0379C8.78203 9.78341 8.49994 9.43057 7.95391 9.43057C7.03641 9.43057 6.13203 8.79477 6.13203 7.8295C6.13203 7.04093 6.7357 6.47217 7.45703 6.29045V6.28369C7.45703 6.00928 7.6795 5.78682 7.95391 5.78682Z" fill="#212121"/>
</svg>
