
<svg xmlns="http://www.w3.org/2000/svg" width="18" height="19" viewBox="0 0 40 40" fill="none">
  <path d="M11.6663 29.9973C8.04129 29.9772 6.07811 29.8163 4.79747 28.5357C3.33301 27.0712 3.33301 24.7142 3.33301 20.0002V13.3335C3.33301 8.61945 3.33301 6.26243 4.79747 4.79796C6.26194 3.3335 8.61896 3.3335 13.333 3.3335H26.6663C31.3803 3.3335 33.7373 3.3335 35.2018 4.79796C36.6663 6.26243 36.6663 8.61945 36.6663 13.3335V20.0002C36.6663 24.7142 36.6663 27.0712 35.2018 28.5357C33.9855 29.7522 32.1532 29.9582 28.8658 29.993L27.4997 29.9973" stroke="#FF3A3A" stroke-width="2.3"/>
  <path d="M15 10H25" stroke="#FF3A3A" stroke-width="2.3" stroke-linecap="round"/>
  <path d="M11.667 15.8335H28.3337" stroke="#FF3A3A" stroke-width="2.3" stroke-linecap="round"/>
  <path d="M18.1503 23.2424C19.2157 22.3346 20.7827 22.3346 21.8482 23.2424C22.3047 23.6316 22.8723 23.8667 23.4702 23.9144C24.8657 24.0257 25.9737 25.1337 26.085 26.5291C26.1327 27.1271 26.3678 27.6947 26.7568 28.1512C27.6648 29.2167 27.6648 30.7837 26.7568 31.8491C26.3678 32.3056 26.1327 32.8732 26.085 33.4712C25.9737 34.8666 24.8657 35.9746 23.4702 36.0859C22.8723 36.1337 22.3047 36.3687 21.8482 36.7579C20.7827 37.6657 19.2157 37.6657 18.1503 36.7579C17.6937 36.3687 17.1262 36.1337 16.5282 36.0859C15.1328 35.9746 14.0248 34.8666 13.9134 33.4712C13.8657 32.8732 13.6306 32.3056 13.2415 31.8491C12.3336 30.7837 12.3336 29.2167 13.2415 28.1512C13.6306 27.6947 13.8657 27.1271 13.9134 26.5291C14.0248 25.1337 15.1328 24.0257 16.5282 23.9144C17.1262 23.8667 17.6937 23.6316 18.1503 23.2424Z" stroke="#FF3A3A" stroke-width="2.3"/>
  <path d="M17.5 30.3335L18.9285 31.6668L22.5 28.3335" stroke="#FF3A3A" stroke-width="2.3" stroke-linecap="round" stroke-linejoin="round"/>
</svg>

