<svg width="17" height="17" viewBox="0 0 17 17" fill="none" xmlns="http://www.w3.org/2000/svg">
<g clip-path="url(#clip0_2405_17512)">
<path d="M4.95866 12.7486C3.41801 12.7401 2.58366 12.6717 2.03939 12.1274C1.41699 11.505 1.41699 10.5033 1.41699 8.49984V5.6665C1.41699 3.66303 1.41699 2.6613 2.03939 2.0389C2.66179 1.4165 3.66352 1.4165 5.66699 1.4165H11.3337C13.3371 1.4165 14.3388 1.4165 14.9612 2.0389C15.5837 2.6613 15.5837 3.66303 15.5837 5.6665V8.49984C15.5837 10.5033 15.5837 11.505 14.9612 12.1274C14.4443 12.6444 13.6656 12.732 12.2684 12.7468L11.6878 12.7486" stroke="black"/>
<path d="M6.375 4.25H10.625" stroke="black" stroke-linecap="round"/>
<path d="M4.95801 6.729H12.0413" stroke="black" stroke-linecap="round"/>
<path d="M7.71453 9.87775C8.1673 9.49192 8.83327 9.49192 9.28611 9.87775C9.48012 10.0431 9.72138 10.1431 9.97546 10.1634C10.5685 10.2107 11.0394 10.6816 11.0868 11.2746C11.107 11.5287 11.207 11.77 11.3723 11.964C11.7582 12.4168 11.7582 13.0828 11.3723 13.5356C11.207 13.7296 11.107 13.9709 11.0868 14.225C11.0394 14.818 10.5685 15.2889 9.97546 15.3362C9.72138 15.3566 9.48012 15.4564 9.28611 15.6218C8.83327 16.0077 8.1673 16.0077 7.71453 15.6218C7.52045 15.4564 7.27926 15.3566 7.0251 15.3362C6.43207 15.2889 5.96116 14.818 5.91384 14.225C5.89356 13.9709 5.79362 13.7296 5.62827 13.5356C5.2424 13.0828 5.2424 12.4168 5.62827 11.964C5.79362 11.77 5.89356 11.5287 5.91384 11.2746C5.96116 10.6816 6.43207 10.2107 7.0251 10.1634C7.27926 10.1431 7.52045 10.0431 7.71453 9.87775Z" stroke="black"/>
<path d="M7.4375 12.8915L8.04461 13.4582L9.5625 12.0415" stroke="black" stroke-linecap="round" stroke-linejoin="round"/>
</g>
<defs>
<clipPath id="clip0_2405_17512">
<rect width="17" height="17" fill="white"/>
</clipPath>
</defs>
</svg>
