<svg width="18" height="19" viewBox="0 0 18 19" fill="none" xmlns="http://www.w3.org/2000/svg">
<g clip-path="url(#clip0_34551_39435)">
<path d="M17.2119 9.28679C17.2119 13.8372 13.4943 17.5261 8.90744 17.5261C7.45185 17.5261 6.0845 17.1538 4.89421 16.5019L0.296875 17.9619L1.79549 13.5399C1.03984 12.2989 0.604651 10.8417 0.604651 9.28623C0.605203 4.73578 4.32168 1.04688 8.90854 1.04688C13.4949 1.04798 17.2119 4.73633 17.2119 9.28679ZM8.90689 2.36072C5.05748 2.36072 1.92621 5.46826 1.92621 9.28844C1.92621 10.8042 2.42042 12.2074 3.25605 13.3491L2.38457 15.9211L5.06631 15.0689C6.16945 15.7926 7.48935 16.214 8.90689 16.214C12.7563 16.214 15.8887 13.107 15.8887 9.28679C15.8898 5.46826 12.7569 2.36072 8.90689 2.36072ZM13.101 11.1847C13.0492 11.1015 12.9135 11.0507 12.7105 10.9492C12.5081 10.8477 11.5059 10.3596 11.32 10.2934C11.1325 10.2256 10.9968 10.1914 10.8611 10.3938C10.7271 10.5962 10.3366 11.0507 10.2169 11.1864C10.0983 11.3215 9.9797 11.3386 9.77617 11.2388C9.57264 11.1362 8.91627 10.9244 8.13855 10.2366C7.53348 9.70046 7.12477 9.04023 7.00673 8.83781C6.88704 8.63593 6.9946 8.52672 7.09553 8.42634C7.18654 8.33533 7.29906 8.19026 7.4011 8.07168C7.50314 7.95419 7.53679 7.8709 7.60463 7.73577C7.67137 7.60064 7.63773 7.48315 7.58753 7.38111C7.53679 7.27962 7.13028 6.28679 6.95985 5.88249C6.79051 5.47874 6.62118 5.54548 6.50204 5.54548C6.38346 5.54548 6.24777 5.52894 6.11208 5.52894C5.9764 5.52894 5.75577 5.57803 5.56989 5.78045C5.38401 5.98288 4.85781 6.47102 4.85781 7.46495C4.85781 8.45998 5.58644 9.41916 5.68848 9.55375C5.79107 9.68778 7.09719 11.7942 9.16613 12.6028C11.2362 13.4109 11.2362 13.1412 11.609 13.107C11.983 13.0728 12.8137 12.6188 12.9824 12.1478C13.1523 11.6745 13.1523 11.2691 13.101 11.1847Z" fill="#303030"/>
</g>
<defs>
<clipPath id="clip0_34551_39435">
<rect width="17.5" height="17.5" fill="white" transform="translate(0 0.75)"/>
</clipPath>
</defs>
</svg>
