<svg width="51" height="51" viewBox="0 0 51 51" fill="none" xmlns="http://www.w3.org/2000/svg">
<path d="M35.4062 4.66663H15.5938C13.1795 4.66663 11.9723 4.66663 10.9987 5.0054C9.15254 5.64779 7.70308 7.13994 7.07906 9.0405C6.75 10.0428 6.75 11.2855 6.75 13.7709V42.9462C6.75 44.7341 8.80208 45.6829 10.1002 44.495C10.8629 43.797 12.0121 43.797 12.7748 44.495L13.7812 45.416C15.1179 46.6391 17.1321 46.6391 18.4687 45.416C19.8054 44.1929 21.8196 44.1929 23.1562 45.416C24.4929 46.6391 26.5071 46.6391 27.8437 45.416C29.1804 44.1929 31.1946 44.1929 32.5312 45.416C33.8679 46.6391 35.8821 46.6391 37.2187 45.416L38.2252 44.495C38.9879 43.797 40.1371 43.797 40.8998 44.495C42.1979 45.6829 44.25 44.7341 44.25 42.9462V13.7709C44.25 11.2855 44.25 10.0428 43.9208 9.0405C43.2969 7.13994 41.8475 5.64779 40.0012 5.0054C39.0277 4.66663 37.8206 4.66663 35.4062 4.66663Z" stroke="#002970" stroke-width="3"/>
<path d="M22.375 23.4166H35.9167" stroke="#002970" stroke-width="3" stroke-linecap="round"/>
<path d="M15.083 23.4166H16.1247" stroke="#002970" stroke-width="3" stroke-linecap="round"/>
<path d="M15.083 16.125H16.1247" stroke="#002970" stroke-width="3" stroke-linecap="round"/>
<path d="M15.083 30.7084H16.1247" stroke="#002970" stroke-width="3" stroke-linecap="round"/>
<path d="M22.375 16.125H35.9167" stroke="#002970" stroke-width="3" stroke-linecap="round"/>
<path d="M22.375 30.7084H35.9167" stroke="#002970" stroke-width="3" stroke-linecap="round"/>
</svg>
