<svg width="51" height="51" viewBox="0 0 51 51" fill="none" xmlns="http://www.w3.org/2000/svg">
<path d="M4.66699 25.5C4.66699 15.679 4.66699 10.7686 7.71797 7.7176C10.7689 4.66663 15.6794 4.66663 25.5003 4.66663C35.3212 4.66663 40.2318 4.66663 43.2826 7.7176C46.3337 10.7686 46.3337 15.679 46.3337 25.5C46.3337 35.3208 46.3337 40.2314 43.2826 43.2822C40.2318 46.3333 35.3212 46.3333 25.5003 46.3333C15.6794 46.3333 10.7689 46.3333 7.71797 43.2822C4.66699 40.2314 4.66699 35.3208 4.66699 25.5Z" stroke="#002970" stroke-width="3"/>
<path d="M13 33.4166L15.381 35.9166L21.3333 29.6666" stroke="#002970" stroke-width="3" stroke-linecap="round" stroke-linejoin="round"/>
<path d="M13 18.8334L15.381 21.3334L21.3333 15.0834" stroke="#002970" stroke-width="3" stroke-linecap="round" stroke-linejoin="round"/>
<path d="M27.583 19.25H37.9997" stroke="#002970" stroke-width="3" stroke-linecap="round"/>
<path d="M27.583 33.8334H37.9997" stroke="#002970" stroke-width="3" stroke-linecap="round"/>
</svg>
