<svg width="51" height="51" viewBox="0 0 51 51" fill="none" xmlns="http://www.w3.org/2000/svg">
<g clip-path="url(#clip0_17103_12663)">
<path d="M40.0187 15.3438H28.1688C25.8359 15.3438 23.9375 17.2422 23.9375 19.575V43.925C23.9375 46.2578 25.8359 48.1562 28.1688 48.1562H40.0187C42.3516 48.1562 44.25 46.2578 44.25 43.925V19.575C44.25 17.2422 42.3516 15.3438 40.0187 15.3438ZM41.125 43.925C41.125 44.5359 40.6297 45.0312 40.0187 45.0312H28.1688C27.5578 45.0312 27.0625 44.5359 27.0625 43.925V19.575C27.0625 18.9641 27.5578 18.4688 28.1688 18.4688H40.0187C40.6297 18.4688 41.125 18.9641 41.125 19.575V43.925Z" fill="#002970"/>
<path d="M42.6875 37.2188H25.5C24.6375 37.2188 23.9375 37.9188 23.9375 38.7812C23.9375 39.6437 24.6375 40.3438 25.5 40.3438H42.6875C43.55 40.3438 44.25 39.6437 44.25 38.7812C44.25 37.9188 43.55 37.2188 42.6875 37.2188Z" fill="#002970"/>
<path d="M35.5 41.5156C34.9062 40.9375 33.875 40.9219 33.2812 41.5156C32.9844 41.7969 32.8281 42.2031 32.8281 42.625C32.8281 43.0313 32.9844 43.4375 33.2812 43.7188C33.5781 44.0156 33.9844 44.1875 34.3906 44.1875C34.7969 44.1875 35.2031 44.0156 35.5 43.7188C35.7812 43.4219 35.9531 43.0313 35.9531 42.625C35.9531 42.2031 35.7812 41.8125 35.5 41.5156Z" fill="#002970"/>
<path d="M44.5312 2.84375H6.475C3.22187 2.84375 2.0625 4.71875 2.0625 6.47187V30.9688C2.0625 31.8312 2.7625 32.5312 3.625 32.5312C4.4875 32.5312 5.1875 31.8312 5.1875 30.9688V6.47187C5.1875 6.33438 5.1875 5.96875 6.475 5.96875H44.5312C45.8125 5.96875 45.8125 6.33438 45.8125 6.47187V30.9688C45.8125 31.8312 46.5125 32.5312 47.375 32.5312C48.2375 32.5312 48.9375 31.8312 48.9375 30.9688V6.47187C48.9375 4.71875 47.7797 2.84375 44.5312 2.84375Z" fill="#002970"/>
<path d="M25.5 34.0938H5.05312C4.60469 34.0938 3.96875 33.3484 3.725 32.5312H25.5C26.3625 32.5312 27.0625 31.8312 27.0625 30.9688C27.0625 30.1063 26.3625 29.4062 25.5 29.4062H2.0625C1.2 29.4062 0.5 30.1063 0.5 30.9688V31.8906C0.5 34.4063 2.44688 37.2188 5.05312 37.2188H25.5C26.3625 37.2188 27.0625 36.5188 27.0625 35.6562C27.0625 34.7937 26.3625 34.0938 25.5 34.0938Z" fill="#002970"/>
<path d="M48.9375 29.4062H42.6875C41.825 29.4062 41.125 30.1063 41.125 30.9688C41.125 31.8312 41.825 32.5312 42.6875 32.5312H47.2766C47.0328 33.3484 46.3984 34.0938 45.9531 34.0938H42.6875C41.825 34.0938 41.125 34.7937 41.125 35.6562C41.125 36.5188 41.825 37.2188 42.6875 37.2188H45.9531C48.5547 37.2188 50.5 34.4063 50.5 31.8906V30.9688C50.5 30.1063 49.8 29.4062 48.9375 29.4062Z" fill="#002970"/>
<path d="M25.5 2.84375C24.6375 2.84375 23.9375 3.54375 23.9375 4.40625V5.96875C23.9375 6.83125 24.6375 7.53125 25.5 7.53125C26.3625 7.53125 27.0625 6.83125 27.0625 5.96875V4.40625C27.0625 3.54375 26.3625 2.84375 25.5 2.84375Z" fill="#002970"/>
</g>
<defs>
<clipPath id="clip0_17103_12663">
<rect width="50" height="50" fill="white" transform="translate(0.5 0.5)"/>
</clipPath>
</defs>
</svg>
