<svg width="51" height="51" viewBox="0 0 51 51" fill="none" xmlns="http://www.w3.org/2000/svg">
<path d="M10.917 17.1666C10.917 11.2741 10.917 8.32779 12.7476 6.49721C14.5782 4.66663 17.5244 4.66663 23.417 4.66663H27.5837C33.4762 4.66663 36.4224 4.66663 38.253 6.49721C40.0837 8.32779 40.0837 11.2741 40.0837 17.1666V33.8333C40.0837 39.7258 40.0837 42.672 38.253 44.5027C36.4224 46.3333 33.4762 46.3333 27.5837 46.3333H23.417C17.5244 46.3333 14.5782 46.3333 12.7476 44.5027C10.917 42.672 10.917 39.7258 10.917 33.8333V17.1666Z" stroke="#002970" stroke-width="3"/>
<path d="M10.917 8.99207C8.88555 9.19188 7.51818 9.64348 6.49758 10.6641C4.66699 12.4946 4.66699 15.4409 4.66699 21.3336V29.6669C4.66699 35.5594 4.66699 38.5057 6.49758 40.3363C7.51818 41.3569 8.88555 41.8084 10.917 42.0082" stroke="#002970" stroke-width="3"/>
<path d="M40.083 8.99207C42.1145 9.19188 43.4818 9.64348 44.5024 10.6641C46.333 12.4946 46.333 15.4409 46.333 21.3336V29.6669C46.333 35.5594 46.333 38.5057 44.5024 40.3363C43.4818 41.3569 42.1145 41.8084 40.083 42.0082" stroke="#002970" stroke-width="3"/>
<path d="M19.25 27.5834H31.75" stroke="#002970" stroke-width="3" stroke-linecap="round"/>
<path d="M19.25 19.25H31.75" stroke="#002970" stroke-width="3" stroke-linecap="round"/>
<path d="M19.25 35.9166H25.5" stroke="#002970" stroke-width="3" stroke-linecap="round"/>
</svg>
