<svg width="51" height="51" viewBox="0 0 51 51" fill="none" xmlns="http://www.w3.org/2000/svg">
<path d="M6.75 21.8212L8.30669 21.6866C8.2346 20.853 7.5186 20.2241 6.68265 20.2602C5.84667 20.2962 5.1875 20.9844 5.1875 21.8212H6.75ZM42.6585 25.6195L41.1887 34.1189L44.2681 34.6516L45.7379 26.152L42.6585 25.6195ZM28.0937 44.7708H18.4091V47.8958H28.0937V44.7708ZM16.5104 43.026L14.8184 23.4579L11.705 23.727L13.397 43.2952L16.5104 43.026ZM41.1887 34.1189C40.1329 40.2243 34.6277 44.7708 28.0937 44.7708V47.8958C36.065 47.8958 42.9392 42.3354 44.2681 34.6516L41.1887 34.1189ZM28.1142 11.1253L26.7335 19.5514L29.8175 20.0567L31.1981 11.6306L28.1142 11.1253ZM15.4744 21.8449L18.4718 19.2621L16.4319 16.8948L13.4345 19.4777L15.4744 21.8449ZM23.925 10.8584L24.916 7.03789L21.8913 6.25322L20.9002 10.0737L23.925 10.8584ZM26.4129 6.2883L26.715 6.38532L27.6708 3.41009L27.3687 3.31307L26.4129 6.2883ZM22.424 14.6999C23.0737 13.4832 23.5785 12.1945 23.925 10.8584L20.9002 10.0737C20.6161 11.1688 20.2021 12.2269 19.6675 13.2275L22.424 14.6999ZM26.715 6.38532C27.3533 6.59041 27.8067 7.08347 27.9556 7.65795L30.9806 6.8733C30.5525 5.22326 29.2896 3.93012 27.6708 3.41009L26.715 6.38532ZM24.916 7.03789C24.9892 6.75662 25.1923 6.49814 25.4996 6.35003L24.1429 3.53484C23.0346 4.06889 22.2021 5.05468 21.8913 6.25322L24.916 7.03789ZM25.4996 6.35003C25.7802 6.21476 26.1106 6.19122 26.4129 6.2883L27.3687 3.31307C26.3069 2.97193 25.1483 3.05037 24.1429 3.53484L25.4996 6.35003ZM29.9869 23.3837H40.7808V20.2587H29.9869V23.3837ZM10.3309 45.096L8.30669 21.6866L5.19331 21.9558L7.21748 45.3652L10.3309 45.096ZM8.3125 45.3181V21.8212H5.1875V45.3181H8.3125ZM7.21748 45.3652C7.19 45.0474 7.44054 44.7708 7.76398 44.7708V47.8958C9.27642 47.8958 10.4609 46.5997 10.3309 45.096L7.21748 45.3652ZM31.1981 11.6306C31.4575 10.0469 31.3835 8.42657 30.9806 6.8733L27.9556 7.65795C28.2494 8.79001 28.3033 9.97103 28.1142 11.1253L31.1981 11.6306ZM18.4091 44.7708C17.4217 44.7708 16.5959 44.0145 16.5104 43.026L13.397 43.2952C13.6219 45.8962 15.7973 47.8958 18.4091 47.8958V44.7708ZM18.4718 19.2621C19.8882 18.0416 21.415 16.5888 22.424 14.6999L19.6675 13.2275C18.9459 14.5784 17.7969 15.7186 16.4319 16.8948L18.4718 19.2621ZM45.7379 26.152C46.2698 23.076 43.9044 20.2587 40.7808 20.2587V23.3837C41.9613 23.3837 42.8608 24.4497 42.6585 25.6195L45.7379 26.152ZM7.76398 44.7708C8.06858 44.7708 8.3125 45.0174 8.3125 45.3181H5.1875C5.1875 46.7402 6.33935 47.8958 7.76398 47.8958V44.7708ZM26.7335 19.5514C26.405 21.5575 27.9512 23.3837 29.9869 23.3837V20.2587C29.8829 20.2587 29.7998 20.1646 29.8175 20.0567L26.7335 19.5514ZM14.8184 23.4579C14.7654 22.8454 15.0099 22.2454 15.4744 21.8449L13.4345 19.4777C12.2088 20.5339 11.5656 22.1152 11.705 23.727L14.8184 23.4579Z" fill="#002970"/>
</svg>
