<svg width="22" height="23" viewBox="0 0 22 23" fill="none" xmlns="http://www.w3.org/2000/svg">
<path d="M8 11.5L10 13.5L14.5 9M6.33377 3.3187C7.1376 3.25455 7.90071 2.93846 8.51447 2.41542C9.94672 1.19486 12.0533 1.19486 13.4855 2.41542C14.0993 2.93846 14.8624 3.25455 15.6662 3.3187C17.5421 3.46839 19.0316 4.95794 19.1813 6.83377C19.2455 7.6376 19.5615 8.40071 20.0846 9.01447C21.3051 10.4467 21.3051 12.5533 20.0846 13.9855C19.5615 14.5993 19.2455 15.3624 19.1813 16.1662C19.0316 18.0421 17.5421 19.5316 15.6662 19.6813C14.8624 19.7455 14.0993 20.0615 13.4855 20.5846C12.0533 21.8051 9.94672 21.8051 8.51447 20.5846C7.90071 20.0615 7.1376 19.7455 6.33377 19.6813C4.45794 19.5316 2.96839 18.0421 2.8187 16.1662C2.75455 15.3624 2.43846 14.5993 1.91542 13.9855C0.69486 12.5533 0.69486 10.4467 1.91542 9.01447C2.43846 8.40071 2.75455 7.6376 2.8187 6.83377C2.96839 4.95794 4.45794 3.46839 6.33377 3.3187Z" stroke="#03D124" stroke-width="2" stroke-linecap="round" stroke-linejoin="round"/>
</svg>
