<svg width="51" height="51" viewBox="0 0 51 51" fill="none" xmlns="http://www.w3.org/2000/svg">
<g clip-path="url(#clip0_17103_12646)">
<mask id="mask0_17103_12646" style="mask-type:luminance" maskUnits="userSpaceOnUse" x="0" y="0" width="51" height="51">
<path d="M50.5 0.5H0.5V50.5H50.5V0.5Z" fill="white"/>
</mask>
<g mask="url(#mask0_17103_12646)">
<path d="M27.584 4.6687C34.0721 4.68768 37.5117 4.89276 39.7265 7.10753C42.1673 9.54831 42.1673 13.4767 42.1673 21.3333V29.6667C42.1673 37.5235 42.1673 41.4519 39.7265 43.8927C37.2859 46.3333 33.3573 46.3333 25.5007 46.3333C17.6439 46.3333 13.7155 46.3333 11.2748 43.8927C8.83398 41.4519 8.83398 37.5235 8.83398 29.6667V23.4187" stroke="#002970" stroke-width="3" stroke-linecap="round"/>
<path d="M6.18817 10.5L5.0341 11.5533C5.33015 11.8777 5.74902 12.0625 6.18817 12.0625C6.62733 12.0625 7.04621 11.8777 7.34225 11.5533L6.18817 10.5ZM8.86342 9.88667C9.44517 9.24929 9.40006 8.261 8.76269 7.67925C8.12529 7.09752 7.137 7.14262 6.55527 7.78L8.86342 9.88667ZM5.82108 7.78C5.23933 7.14262 4.25104 7.09752 3.61367 7.67925C2.97629 8.261 2.93119 9.24929 3.51292 9.88667L5.82108 7.78ZM21.8958 7.16667L23.0499 6.11333C22.7539 5.78898 22.3349 5.60417 21.8958 5.60417C21.4566 5.60417 21.0378 5.78898 20.7418 6.11333L21.8958 7.16667ZM19.2206 7.78C18.6388 8.41737 18.6839 9.40567 19.3213 9.98742C19.9587 10.5691 20.947 10.524 21.5287 9.88667L19.2206 7.78ZM22.2628 9.88667C22.8447 10.524 23.833 10.5691 24.4703 9.98742C25.1076 9.40567 25.1528 8.41737 24.5712 7.78L22.2628 9.88667ZM10.0345 13.6379C9.45731 12.9963 8.46937 12.9441 7.82781 13.5212C7.18627 14.0984 7.13406 15.0863 7.71121 15.7279L10.0345 13.6379ZM18.2913 4.31348C18.8311 4.98675 19.8145 5.09498 20.4878 4.55519C21.1611 4.0154 21.2693 3.03202 20.7295 2.35874L18.2913 4.31348ZM13.794 -1.0625C8.59923 -1.0625 4.62567 3.50542 4.62567 8.83333H7.75067C7.75067 4.95652 10.5876 2.0625 13.794 2.0625V-1.0625ZM4.62567 8.83333V10.5H7.75067V8.83333H4.62567ZM7.34225 11.5533L8.86342 9.88667L6.55527 7.78L5.0341 9.44667L7.34225 11.5533ZM7.34225 9.44667L5.82108 7.78L3.51292 9.88667L5.0341 11.5533L7.34225 9.44667ZM14.29 18.7292C19.4848 18.7292 23.4583 14.1612 23.4583 8.83333H20.3333C20.3333 12.7101 17.4964 15.6042 14.29 15.6042V18.7292ZM23.4583 8.83333V7.16667H20.3333V8.83333H23.4583ZM20.7418 6.11333L19.2206 7.78L21.5287 9.88667L23.0499 8.22L20.7418 6.11333ZM20.7418 8.22L22.2628 9.88667L24.5712 7.78L23.0499 6.11333L20.7418 8.22ZM7.71121 15.7279C9.35758 17.558 11.6847 18.7292 14.29 18.7292V15.6042C12.6548 15.6042 11.1468 14.8743 10.0345 13.6379L7.71121 15.7279ZM20.7295 2.35874C19.071 0.290021 16.5951 -1.0625 13.794 -1.0625V2.0625C15.5493 2.0625 17.162 2.90483 18.2913 4.31348L20.7295 2.35874Z" fill="#002970"/>
<path d="M31.75 40.0834H19.25" stroke="#002970" stroke-width="3" stroke-linecap="round"/>
</g>
</g>
<defs>
<clipPath id="clip0_17103_12646">
<rect width="50" height="50" fill="white" transform="translate(0.5 0.5)"/>
</clipPath>
</defs>
</svg>
