<svg width="51" height="51" viewBox="0 0 51 51" fill="none" xmlns="http://www.w3.org/2000/svg">
<path fill-rule="evenodd" clip-rule="evenodd" d="M19.5759 2.49252C20.0104 2.058 20.7149 2.058 21.1494 2.49252L30.5908 11.9339C31.0253 12.3684 31.0253 13.0729 30.5908 13.5074C30.1562 13.9419 29.4517 13.9419 29.0172 13.5074L19.5759 4.06607C19.1414 3.63155 19.1414 2.92704 19.5759 2.49252Z" fill="#002970"/>
<path fill-rule="evenodd" clip-rule="evenodd" d="M30.5908 2.49252C31.0253 2.92705 31.0253 3.63155 30.5908 4.06608L21.1494 13.5074C20.7149 13.9419 20.0104 13.9419 19.5759 13.5074C19.1414 13.0729 19.1414 12.3684 19.5759 11.9339L29.0172 2.49252C29.4517 2.058 30.1563 2.058 30.5908 2.49252Z" fill="#002970"/>
<path fill-rule="evenodd" clip-rule="evenodd" d="M25.8623 14.7253C25.6249 14.6471 25.3683 14.6471 25.1309 14.7253L7.99723 20.3733C7.73993 20.4581 7.52826 20.6265 7.38887 20.8419L2.82721 26.6331C2.59643 26.9262 2.52384 27.3117 2.63251 27.6672C2.74119 28.0227 3.01761 28.304 3.37384 28.4214L7.2163 29.688L7.21942 39.5614C7.2199 41.0382 8.1754 42.3489 9.59178 42.8159L25.0676 47.9183C25.2046 47.9724 25.3506 48.0001 25.4976 48C25.6461 48.0005 25.7937 47.9728 25.932 47.9182L41.4071 42.816C42.8238 42.3489 43.7793 41.0377 43.7794 39.5607L43.7801 29.689L47.6255 28.4214C47.9818 28.304 48.2582 28.0227 48.3669 27.6672C48.4755 27.3117 48.403 26.9262 48.1721 26.6331L43.5513 20.7666C43.4136 20.5874 43.2225 20.448 42.9959 20.3733L25.8623 14.7253ZM8.77774 22.801L23.5837 27.6817L20.4633 31.6433L5.6573 26.7626L8.77774 22.801ZM25.4995 25.8999L38.9726 21.4585L25.4966 17.0163L12.0235 21.4575L25.4995 25.8999ZM9.53245 39.5607L9.52956 30.4506L20.5075 34.0694C20.9724 34.2227 21.4844 34.0695 21.7855 33.6872L24.3404 30.4435L24.3402 45.267L10.3231 40.6456C9.85106 40.4899 9.53257 40.0529 9.53245 39.5607ZM41.4671 30.4514L30.4918 34.0694C30.027 34.2227 29.515 34.0695 29.2139 33.6872L26.6546 30.438L26.6587 45.2671L40.6757 40.6457C41.148 40.49 41.4665 40.0529 41.4665 39.5606L41.4671 30.4514ZM30.5361 31.6433L27.4144 27.6802L42.2204 22.7995L45.3421 26.7626L30.5361 31.6433Z" fill="#002970"/>
</svg>
