<svg width="51" height="51" viewBox="0 0 51 51" fill="none" xmlns="http://www.w3.org/2000/svg">
<path d="M25.5003 21.3333C30.1027 21.3333 33.8337 17.6023 33.8337 13C33.8337 8.39759 30.1027 4.66663 25.5003 4.66663C20.898 4.66663 17.167 8.39759 17.167 13C17.167 17.6023 20.898 21.3333 25.5003 21.3333Z" stroke="#002970" stroke-width="3"/>
<path d="M38 19.25C41.4519 19.25 44.25 16.9182 44.25 14.0417C44.25 11.1652 41.4519 8.83337 38 8.83337" stroke="#002970" stroke-width="3" stroke-linecap="round"/>
<path d="M13 19.25C9.54823 19.25 6.75 16.9182 6.75 14.0417C6.75 11.1652 9.54823 8.83337 13 8.83337" stroke="#002970" stroke-width="3" stroke-linecap="round"/>
<path d="M25.5 44.25C32.4036 44.25 38 40.5191 38 35.9167C38 31.3143 32.4036 27.5834 25.5 27.5834C18.5964 27.5834 13 31.3143 13 35.9167C13 40.5191 18.5964 44.25 25.5 44.25Z" stroke="#002970" stroke-width="3"/>
<path d="M42.167 40.0833C45.8216 39.2818 48.417 37.2523 48.417 34.875C48.417 32.4977 45.8216 30.4681 42.167 29.6666" stroke="#002970" stroke-width="3" stroke-linecap="round"/>
<path d="M8.83301 40.0833C5.17832 39.2818 2.58301 37.2523 2.58301 34.875C2.58301 32.4977 5.17832 30.4681 8.83301 29.6666" stroke="#002970" stroke-width="3" stroke-linecap="round"/>
</svg>
