<svg width="40" height="40" viewBox="0 0 40 40" fill="none" xmlns="http://www.w3.org/2000/svg">
<path d="M6.875 35C5.1525 35 3.75 33.5987 3.75 31.875V14.375C3.75 14.03 4.03 13.75 4.375 13.75H6.875C7.22 13.75 7.5 14.03 7.5 14.375C7.5 14.72 7.22 15 6.875 15H5V31.875C5 32.9088 5.84125 33.75 6.875 33.75C7.22 33.75 7.5 34.03 7.5 34.375C7.5 34.72 7.22 35 6.875 35Z" fill="#FF3A3A"/>
<path d="M6.875 35C6.53 35 6.25 34.72 6.25 34.375C6.25 34.03 6.53 33.75 6.875 33.75C7.90875 33.75 8.75 32.9088 8.75 31.875V4.375C8.75 4.03 9.03 3.75 9.375 3.75C9.72 3.75 10 4.03 10 4.375V31.875C10 33.5987 8.5975 35 6.875 35Z" fill="#FF3A3A"/>
<path d="M6.875 37.5C3.77375 37.5 1.25 34.9762 1.25 31.875V15.625C1.25 15.28 1.53 15 1.875 15C2.22 15 2.5 15.28 2.5 15.625V31.875C2.5 34.2875 4.4625 36.25 6.875 36.25C7.22 36.25 7.5 36.53 7.5 36.875C7.5 37.22 7.22 37.5 6.875 37.5Z" fill="#FF3A3A"/>
<path d="M33.125 37.5H6.875C6.53 37.5 6.25 37.22 6.25 36.875C6.25 36.53 6.53 36.25 6.875 36.25C9.2875 36.25 11.25 34.2875 11.25 31.875V3.125C11.25 2.78 11.53 2.5 11.875 2.5H38.125C38.47 2.5 38.75 2.78 38.75 3.125V31.875C38.75 34.9762 36.2262 37.5 33.125 37.5ZM10.4075 36.25H33.125C35.5375 36.25 37.5 34.2875 37.5 31.875V3.75H12.5V31.875C12.5 33.64 11.6825 35.2188 10.4075 36.25Z" fill="#FF3A3A"/>
<path d="M29.9971 12.5002C29.7383 12.5002 29.5033 12.3402 29.4121 12.0952L27.5371 7.09522C27.4158 6.77147 27.5796 6.41147 27.9021 6.29022C28.2246 6.16397 28.5858 6.33147 28.7071 6.65522L29.8133 9.60647L30.3846 6.75147C30.4521 6.41272 30.7821 6.19022 31.1196 6.26147C31.4583 6.32897 31.6771 6.65772 31.6096 6.99772L30.6083 11.9977C30.5533 12.2715 30.3233 12.4752 30.0458 12.4965C30.0308 12.499 30.0133 12.5002 29.9971 12.5002Z" fill="#FF3A3A"/>
<path d="M26.2472 12.5004C26.2309 12.5004 26.2134 12.4992 26.1959 12.4979C25.9172 12.4754 25.6884 12.2704 25.6334 11.9979L24.6372 6.99794C24.5697 6.65919 24.7897 6.33044 25.1284 6.26294C25.4659 6.19169 25.7959 6.41419 25.8634 6.75419L26.4309 9.60419L27.5359 6.65669C27.6572 6.33294 28.0172 6.16544 28.3409 6.29169C28.6634 6.41294 28.8272 6.77294 28.7059 7.09669L26.8309 12.0967C26.7409 12.3404 26.5059 12.5004 26.2472 12.5004Z" fill="#FF3A3A"/>
<path d="M18.125 12.5C17.9212 12.5 17.725 12.4 17.6063 12.2238L15 8.36125V11.875C15 12.22 14.72 12.5 14.375 12.5C14.03 12.5 13.75 12.22 13.75 11.875V6.875C13.75 6.53 14.03 6.25 14.375 6.25H14.7512C14.9587 6.25 15.1525 6.35375 15.27 6.52625L17.5 9.83125V6.875C17.5 6.53 17.78 6.25 18.125 6.25C18.47 6.25 18.75 6.53 18.75 6.875V11.875C18.75 12.15 18.57 12.3925 18.3075 12.4738C18.2475 12.4913 18.1863 12.5 18.125 12.5Z" fill="#FF3A3A"/>
<path d="M23.125 12.5H20.625C20.28 12.5 20 12.22 20 11.875V6.875C20 6.53 20.28 6.25 20.625 6.25H23.125C23.47 6.25 23.75 6.53 23.75 6.875C23.75 7.22 23.47 7.5 23.125 7.5H21.25V11.25H23.125C23.47 11.25 23.75 11.53 23.75 11.875C23.75 12.22 23.47 12.5 23.125 12.5Z" fill="#FF3A3A"/>
<path d="M22.5 10H20.625C20.28 10 20 9.72 20 9.375C20 9.03 20.28 8.75 20.625 8.75H22.5C22.845 8.75 23.125 9.03 23.125 9.375C23.125 9.72 22.845 10 22.5 10Z" fill="#FF3A3A"/>
<path d="M34.3751 12.5C33.3413 12.5 32.4938 11.9137 32.1088 10.9312C31.9826 10.61 32.1413 10.2475 32.4626 10.1213C32.7826 9.99625 33.1476 10.1525 33.2726 10.475C33.4113 10.8288 33.7151 11.25 34.3751 11.25C34.8263 11.25 35.0363 10.825 35.0363 10.5375C35.0363 10.29 34.8213 10.1463 34.1763 9.84375C33.7638 9.65125 33.2976 9.43125 32.9701 9.0575C32.5226 8.5475 32.4013 7.80625 32.6713 7.21C32.9476 6.6 33.5526 6.25 34.3313 6.25C35.3326 6.25 35.8601 6.81375 35.9176 6.8775C36.1463 7.13625 36.1226 7.53125 35.8651 7.76C35.6101 7.9875 35.2226 7.9675 34.9926 7.71875C34.9701 7.6975 34.7551 7.5 34.3313 7.5C34.1401 7.5 33.8951 7.53875 33.8101 7.72625C33.7413 7.8775 33.7838 8.09 33.9088 8.2325C34.0651 8.41125 34.3926 8.565 34.7076 8.7125C35.3738 9.02625 36.2863 9.45375 36.2863 10.5375C36.2863 11.4813 35.5563 12.5 34.3751 12.5Z" fill="#FF3A3A"/>
<path d="M34.375 32.5H26.875C26.53 32.5 26.25 32.22 26.25 31.875C26.25 31.53 26.53 31.25 26.875 31.25H34.375C34.72 31.25 35 31.53 35 31.875C35 32.22 34.72 32.5 34.375 32.5Z" fill="#FF3A3A"/>
<path d="M23.125 32.5H15.625C15.28 32.5 15 32.22 15 31.875C15 31.53 15.28 31.25 15.625 31.25H23.125C23.47 31.25 23.75 31.53 23.75 31.875C23.75 32.22 23.47 32.5 23.125 32.5Z" fill="#FF3A3A"/>
<path d="M34.375 30H26.875C26.53 30 26.25 29.72 26.25 29.375C26.25 29.03 26.53 28.75 26.875 28.75H34.375C34.72 28.75 35 29.03 35 29.375C35 29.72 34.72 30 34.375 30Z" fill="#FF3A3A"/>
<path d="M23.125 30H15.625C15.28 30 15 29.72 15 29.375C15 29.03 15.28 28.75 15.625 28.75H23.125C23.47 28.75 23.75 29.03 23.75 29.375C23.75 29.72 23.47 30 23.125 30Z" fill="#FF3A3A"/>
<path d="M34.375 27.5H26.875C26.53 27.5 26.25 27.22 26.25 26.875C26.25 26.53 26.53 26.25 26.875 26.25H34.375C34.72 26.25 35 26.53 35 26.875C35 27.22 34.72 27.5 34.375 27.5Z" fill="#FF3A3A"/>
<path d="M23.125 27.5H15.625C15.28 27.5 15 27.22 15 26.875C15 26.53 15.28 26.25 15.625 26.25H23.125C23.47 26.25 23.75 26.53 23.75 26.875C23.75 27.22 23.47 27.5 23.125 27.5Z" fill="#FF3A3A"/>
<path d="M34.375 25H26.875C26.53 25 26.25 24.72 26.25 24.375C26.25 24.03 26.53 23.75 26.875 23.75H34.375C34.72 23.75 35 24.03 35 24.375C35 24.72 34.72 25 34.375 25Z" fill="#FF3A3A"/>
<path d="M23.125 25H15.625C15.28 25 15 24.72 15 24.375C15 24.03 15.28 23.75 15.625 23.75H23.125C23.47 23.75 23.75 24.03 23.75 24.375C23.75 24.72 23.47 25 23.125 25Z" fill="#FF3A3A"/>
<path d="M34.375 22.5H26.875C26.53 22.5 26.25 22.22 26.25 21.875C26.25 21.53 26.53 21.25 26.875 21.25H34.375C34.72 21.25 35 21.53 35 21.875C35 22.22 34.72 22.5 34.375 22.5Z" fill="#FF3A3A"/>
<path d="M23.125 22.5H15.625C15.28 22.5 15 22.22 15 21.875C15 21.53 15.28 21.25 15.625 21.25H23.125C23.47 21.25 23.75 21.53 23.75 21.875C23.75 22.22 23.47 22.5 23.125 22.5Z" fill="#FF3A3A"/>
<path d="M34.375 20H26.875C26.53 20 26.25 19.72 26.25 19.375C26.25 19.03 26.53 18.75 26.875 18.75H34.375C34.72 18.75 35 19.03 35 19.375C35 19.72 34.72 20 34.375 20Z" fill="#FF3A3A"/>
<path d="M23.125 20H15.625C15.28 20 15 19.72 15 19.375C15 19.03 15.28 18.75 15.625 18.75H23.125C23.47 18.75 23.75 19.03 23.75 19.375C23.75 19.72 23.47 20 23.125 20Z" fill="#FF3A3A"/>
<path d="M34.375 17.5H26.875C26.53 17.5 26.25 17.22 26.25 16.875C26.25 16.53 26.53 16.25 26.875 16.25H34.375C34.72 16.25 35 16.53 35 16.875C35 17.22 34.72 17.5 34.375 17.5Z" fill="#FF3A3A"/>
<path d="M23.125 17.5H15.625C15.28 17.5 15 17.22 15 16.875C15 16.53 15.28 16.25 15.625 16.25H23.125C23.47 16.25 23.75 16.53 23.75 16.875C23.75 17.22 23.47 17.5 23.125 17.5Z" fill="#FF3A3A"/>
</svg>
