
<svg xmlns="http://www.w3.org/2000/svg" width="40" height="40" viewBox="0 0 40 40" fill="none">
  <path d="M3.33301 23.3333C3.33301 17.048 3.33301 13.9052 5.28562 11.9526C7.23826 10 10.3809 10 16.6663 10H23.333C29.6183 10 32.7612 10 34.7137 11.9526C36.6663 13.9052 36.6663 17.048 36.6663 23.3333C36.6663 29.6187 36.6663 32.7615 34.7137 34.714C32.7612 36.6667 29.6183 36.6667 23.333 36.6667H16.6663C10.3809 36.6667 7.23826 36.6667 5.28562 34.714C3.33301 32.7615 3.33301 29.6187 3.33301 23.3333Z" stroke="#FF3A3A" stroke-width="2.4"/>
  <path d="M26.6663 10.0002C26.6663 6.85746 26.6663 5.28611 25.69 4.30981C24.7137 3.3335 23.1423 3.3335 19.9997 3.3335C16.857 3.3335 15.2856 3.3335 14.3093 4.30981C13.333 5.28611 13.333 6.85746 13.333 10.0002" stroke="#FF3A3A" stroke-width="2.4"/>
  <path d="M20.0003 28.8887C21.8413 28.8887 23.3337 27.645 23.3337 26.111C23.3337 24.5768 21.8413 23.3332 20.0003 23.3332C18.1593 23.3332 16.667 22.0895 16.667 20.5553C16.667 19.0213 18.1593 17.7777 20.0003 17.7777M20.0003 28.8887C18.1593 28.8887 16.667 27.645 16.667 26.111M20.0003 28.8887V29.9998M20.0003 17.7777V16.6665M20.0003 17.7777C21.8413 17.7777 23.3337 19.0213 23.3337 20.5553" stroke="#FF3A3A" stroke-width="2.4" stroke-linecap="round"/>
</svg>

