<svg width="47" height="35" viewBox="0 0 47 35" fill="none" xmlns="http://www.w3.org/2000/svg">
<path d="M38.9041 26.6708C38.6801 26.4476 38.3791 26.3248 38.0533 26.3248H35.2097C35.394 26.1086 35.7635 25.778 36.5226 25.3036L36.7093 25.1713C37.5182 24.6564 38.0307 24.2621 38.3153 23.9315C38.817 23.3622 39.0698 22.628 39.0698 21.753C39.0698 20.9239 38.7874 20.2083 38.2313 19.6296C36.9962 18.3533 34.6154 18.3626 33.4121 19.6367C32.8654 20.2107 32.5869 20.9239 32.5869 21.7538V22.0384C32.5869 22.4717 32.765 22.7587 32.9424 22.9546C33.4028 23.4105 34.2366 23.3808 34.6332 22.9842C34.8883 22.7516 35.0299 22.4281 35.0299 22.0726V21.7537C35.0299 21.4784 35.1232 21.3462 35.2119 21.252C35.3052 21.1517 35.46 21.0358 35.8225 21.0358C36.1919 21.0358 36.3561 21.1564 36.454 21.2591C36.5357 21.3454 36.6299 21.4776 36.6299 21.7537C36.6299 22.0749 36.5436 22.3207 36.3655 22.5213C36.2534 22.6442 35.9369 22.9288 35.0759 23.4624C34.2009 23.989 33.5398 24.5832 33.1074 25.2327C32.6174 25.9731 32.3715 26.8434 32.3801 27.8211L32.3871 28.6891H38.054C38.3955 28.6891 38.7105 28.5499 38.9041 28.3336C39.125 28.1104 39.2456 27.8187 39.2456 27.5068C39.2456 27.1881 39.125 26.8918 38.9041 26.6708Z" fill="#FF3A3A"/>
<path d="M38.885 12.3823C36.6497 5.05868 29.8659 0 22.1667 0C14.7973 0 8.24442 4.61225 5.7307 11.5189C2.135 13.9137 0 17.8625 0 22.1667C0 29.2421 5.75787 35 12.8333 35C14.2598 35 15.6956 34.7473 17.101 34.2432C21.1299 35.4713 25.4473 35.1913 29.2732 33.4779C31.0325 34.4758 32.9995 35 35 35C41.433 35 46.6667 29.7663 46.6667 23.3333C46.6667 18.3525 43.5657 14.0273 38.885 12.3823ZM35 32.6667C33.2321 32.6667 31.493 32.1518 29.9732 31.1742L29.4194 30.8187L28.8268 31.108C25.2724 32.858 21.2023 33.1426 17.4339 31.9029L17.0349 31.7706L16.6452 31.9231C15.3852 32.4155 14.1019 32.6658 12.8333 32.6658C7.04357 32.6667 2.33333 27.9564 2.33333 22.1667C2.33333 18.5368 4.19535 15.2125 7.31418 13.2727L7.66965 13.0519L7.80418 12.6552C9.88942 6.48047 15.6613 2.33333 22.1667 2.33333C29.0251 2.33333 35.0459 6.96582 36.8068 13.5987L36.9756 14.2342L37.6071 14.4185C41.6306 15.5976 44.3333 19.1792 44.3333 23.3333C44.3333 28.4807 40.1474 32.6667 35 32.6667Z" fill="#FF3A3A"/>
<path d="M19.2679 19.7712C19.0925 19.5052 18.8298 19.327 18.5149 19.2586L18.2319 19.2267C18.0308 19.2267 17.839 19.2765 17.6473 19.3815C17.3526 19.5526 17.1516 19.8443 17.09 20.1834C16.9053 21.0312 16.5669 21.6464 16.0899 22.0089C15.6674 22.3254 15.0828 22.4848 14.3586 22.4848C13.4037 22.4848 12.6687 22.1659 12.1113 21.5141C11.483 20.776 11.1633 19.6778 11.1633 18.2467C11.1633 16.8521 11.4853 15.7586 12.1089 15.0088C12.6889 14.3345 13.4247 14.0063 14.3585 14.0063C15.0803 14.0063 15.6743 14.1657 16.1241 14.4822C16.6058 14.8151 16.9051 15.316 17.0376 15.9888C17.1156 16.4601 17.369 16.7183 17.5513 16.8365C17.7384 16.9688 17.9559 17.0395 18.1796 17.0395L18.4423 17.0076C18.7487 16.9368 18.9973 16.7704 19.1712 16.5152C19.3497 16.2485 19.4175 15.946 19.3676 15.6107C19.1571 14.4962 18.6621 13.5893 17.8857 12.9126C16.9971 12.1536 15.8122 11.7686 14.3601 11.7686C12.7138 11.7686 11.3637 12.3814 10.3519 13.5894C9.34242 14.7786 8.83105 16.3443 8.83105 18.2467C8.83105 20.1904 9.34242 21.767 10.3495 22.9297C11.359 24.1213 12.7083 24.7256 14.3601 24.7256C15.8099 24.7256 16.9979 24.3087 17.8857 23.4928C18.6301 22.8208 19.1461 21.9022 19.4229 20.7582C19.5282 20.2953 19.3934 19.9633 19.2679 19.7712Z" fill="#FF3A3A"/>
<path d="M30.6552 13.8149C29.6192 12.4569 28.1459 11.7686 26.2782 11.7686C24.4012 11.7686 22.9233 12.4569 21.8818 13.8219C21.0096 14.9886 20.5684 16.4788 20.5684 18.2467C20.5684 20.0145 21.0087 21.5008 21.8841 22.6606C22.9232 24.0302 24.4011 24.7248 26.2781 24.7248C28.1458 24.7248 29.6191 24.0294 30.6535 22.6652C31.5484 21.5056 32.0028 20.02 32.0028 18.2467C32.0028 16.4733 31.5507 14.9815 30.6552 13.8149ZM28.8381 21.3001C28.2534 22.1067 27.4155 22.4987 26.2782 22.4987C25.1339 22.4987 24.296 22.1067 23.7207 21.3048C23.1797 20.548 22.903 19.5206 22.903 18.2466C22.903 16.9641 23.1774 15.9357 23.7207 15.186C24.296 14.3841 25.1339 13.9921 26.2782 13.9921C27.4155 13.9921 28.2534 14.3841 28.8404 15.1906C29.3908 15.945 29.6691 16.9725 29.6691 18.2465C29.6691 19.5098 29.3884 20.5372 28.8381 21.3001Z" fill="#FF3A3A"/>
</svg>
