<svg xmlns="http://www.w3.org/2000/svg" width="40" height="40" viewBox="0 0 40 40" fill="none">
  <path fill-rule="evenodd" clip-rule="evenodd" d="M13.2513 7.06885H21.7676C24.0469 7.06882 25.8841 7.06878 27.3291 7.26305C28.8293 7.46475 30.0923 7.89623 31.0956 8.89943C32.0196 9.82347 32.4586 10.968 32.6798 12.3152C34.0271 12.5363 35.1718 12.9754 36.0959 13.8995C37.0991 14.9027 37.5306 16.1658 37.7323 17.666C37.9266 19.111 37.9266 20.9482 37.9266 23.2275V23.4104C37.9266 25.6897 37.9266 27.5268 37.7323 28.9718C37.5306 30.472 37.0991 31.7352 36.0959 32.7383C35.0928 33.7415 33.8296 34.173 32.3294 34.3747C30.8844 34.569 29.0473 34.569 26.7679 34.569H18.2518C15.9724 34.569 14.1352 34.569 12.6903 34.3747C11.1901 34.173 9.92697 33.7415 8.92377 32.7383C7.99972 31.8144 7.56064 30.6697 7.33956 29.3225C5.99217 29.1013 4.84749 28.6623 3.92336 27.7383C2.92016 26.735 2.48867 25.472 2.28697 23.9719C2.09271 22.5269 2.09274 20.6897 2.09277 18.4103V18.2273C2.09274 15.9481 2.09271 14.1109 2.28697 12.6659C2.48867 11.1657 2.92016 9.90263 3.92336 8.89943C4.92656 7.89623 6.18967 7.46475 7.68986 7.26305C9.13481 7.06878 10.972 7.06882 13.2513 7.06885ZM9.93563 29.5382C10.1104 30.2097 10.3594 30.6385 10.6915 30.9705C11.1528 31.4319 11.8004 31.7327 13.0234 31.897C14.2823 32.0664 15.9508 32.069 18.3433 32.069H26.6766C29.0689 32.069 30.7374 32.0664 31.9963 31.897C33.2193 31.7327 33.8669 31.4319 34.3281 30.9705C34.7894 30.5093 35.0903 29.8617 35.2546 28.6387C35.4239 27.3799 35.4266 25.7114 35.4266 23.319C35.4266 20.9265 35.4239 19.258 35.2546 17.9992C35.0903 16.7762 34.7894 16.1286 34.3281 15.6673C33.9959 15.3351 33.5671 15.0861 32.8954 14.9113C32.9261 15.8927 32.9261 16.9955 32.9261 18.2273V18.4103C32.9261 20.6897 32.9261 22.5269 32.7319 23.9719C32.5303 25.472 32.0988 26.735 31.0956 27.7383C30.0923 28.7415 28.8293 29.173 27.3291 29.3747C25.8841 29.5688 24.0469 29.5689 21.7676 29.5689H13.2513C12.0196 29.5689 10.917 29.5689 9.93563 29.5382ZM8.02297 9.74077C6.80002 9.90518 6.15239 10.2059 5.69112 10.6672C5.22986 11.1285 4.92911 11.7761 4.76469 12.999C4.59542 14.258 4.59277 15.9265 4.59277 18.3188C4.59277 20.7112 4.59542 22.3797 4.76469 23.6387C4.92911 24.8617 5.22986 25.5092 5.69112 25.9705C6.15239 26.4318 6.80002 26.7325 8.02297 26.897C9.28189 27.0662 10.9504 27.0689 13.3428 27.0689H21.6761C24.0684 27.0689 25.7369 27.0662 26.9959 26.897C28.2189 26.7325 28.8664 26.4318 29.3278 25.9705C29.7891 25.5092 30.0898 24.8617 30.2543 23.6387C30.4234 22.3797 30.4261 20.7112 30.4261 18.3188C30.4261 15.9265 30.4234 14.258 30.2543 12.999C30.0898 11.7761 29.7891 11.1285 29.3278 10.6672C28.8664 10.2059 28.2189 9.90518 26.9959 9.74077C25.7369 9.5715 24.0684 9.56885 21.6761 9.56885H13.3428C10.9504 9.56885 9.28189 9.5715 8.02297 9.74077ZM17.5094 15.4022C15.8986 15.4022 14.5928 16.708 14.5928 18.3188C14.5928 19.9297 15.8986 21.2355 17.5094 21.2355C19.1203 21.2355 20.4261 19.9297 20.4261 18.3188C20.4261 16.708 19.1203 15.4022 17.5094 15.4022ZM12.0928 18.3188C12.0928 15.3273 14.5179 12.9022 17.5094 12.9022C20.5009 12.9022 22.9261 15.3273 22.9261 18.3188C22.9261 21.3103 20.5009 23.7355 17.5094 23.7355C14.5179 23.7355 12.0928 21.3103 12.0928 18.3188Z" fill="#FF3A3A"/>
</svg>