<svg width="36" height="28" viewBox="0 0 36 28" fill="none" xmlns="http://www.w3.org/2000/svg">
<path fill-rule="evenodd" clip-rule="evenodd" d="M11.2513 0.0688485H19.7676C22.0469 0.0688152 23.8841 0.0687817 25.3291 0.263048C26.8293 0.464748 28.0923 0.896232 29.0956 1.89943C30.0196 2.82347 30.4586 3.96803 30.6798 5.31523C32.0271 5.5363 33.1718 5.97537 34.0959 6.89952C35.0991 7.90272 35.5306 9.16583 35.7323 10.666C35.9266 12.111 35.9266 13.9482 35.9266 16.2275V16.4104C35.9266 18.6897 35.9266 20.5268 35.7323 21.9718C35.5306 23.472 35.0991 24.7352 34.0959 25.7383C33.0928 26.7415 31.8296 27.173 30.3294 27.3747C28.8844 27.569 27.0473 27.569 24.7679 27.569H16.2518C13.9724 27.569 12.1352 27.569 10.6903 27.3747C9.19011 27.173 7.92697 26.7415 6.92377 25.7383C5.99972 24.8144 5.56064 23.6697 5.33956 22.3225C3.99217 22.1013 2.84749 21.6623 1.92336 20.7383C0.920158 19.735 0.488674 18.472 0.286974 16.9719C0.0927077 15.5269 0.092741 13.6897 0.0927743 11.4103V11.2273C0.092741 8.94808 0.0927077 7.11088 0.286974 5.66593C0.488674 4.16575 0.920158 2.90263 1.92336 1.89943C2.92656 0.896232 4.18967 0.464748 5.68986 0.263048C7.13481 0.0687817 8.97201 0.0688152 11.2513 0.0688485ZM7.93563 22.5382C8.11044 23.2097 8.35942 23.6385 8.69154 23.9705C9.15282 24.4319 9.80044 24.7327 11.0234 24.897C12.2823 25.0664 13.9508 25.069 16.3433 25.069H24.6766C27.0689 25.069 28.7374 25.0664 29.9963 24.897C31.2193 24.7327 31.8669 24.4319 32.3281 23.9705C32.7894 23.5093 33.0903 22.8617 33.2546 21.6387C33.4239 20.3799 33.4266 18.7114 33.4266 16.319C33.4266 13.9265 33.4239 12.258 33.2546 10.9992C33.0903 9.77618 32.7894 9.12856 32.3281 8.66728C31.9959 8.33511 31.5671 8.08608 30.8954 7.91127C30.9261 8.89275 30.9261 9.99552 30.9261 11.2273V11.4103C30.9261 13.6897 30.9261 15.5269 30.7319 16.9719C30.5303 18.472 30.0988 19.735 29.0956 20.7383C28.0923 21.7415 26.8293 22.173 25.3291 22.3747C23.8841 22.5688 22.0469 22.5689 19.7676 22.5689H11.2513C10.0196 22.5689 8.91699 22.5689 7.93563 22.5382ZM6.02297 2.74077C4.80002 2.90518 4.15239 3.20593 3.69112 3.6672C3.22986 4.12847 2.92911 4.7761 2.76469 5.99905C2.59542 7.25797 2.59277 8.9265 2.59277 11.3188C2.59277 13.7112 2.59542 15.3797 2.76469 16.6387C2.92911 17.8617 3.22986 18.5092 3.69112 18.9705C4.15239 19.4318 4.80002 19.7325 6.02297 19.897C7.28189 20.0662 8.95041 20.0689 11.3428 20.0689H19.6761C22.0684 20.0689 23.7369 20.0662 24.9959 19.897C26.2189 19.7325 26.8664 19.4318 27.3278 18.9705C27.7891 18.5092 28.0898 17.8617 28.2543 16.6387C28.4234 15.3797 28.4261 13.7112 28.4261 11.3188C28.4261 8.9265 28.4234 7.25797 28.2543 5.99905C28.0898 4.7761 27.7891 4.12847 27.3278 3.6672C26.8664 3.20593 26.2189 2.90518 24.9959 2.74077C23.7369 2.5715 22.0684 2.56885 19.6761 2.56885H11.3428C8.95041 2.56885 7.28189 2.5715 6.02297 2.74077ZM15.5094 8.40218C13.8986 8.40218 12.5928 9.70802 12.5928 11.3188C12.5928 12.9297 13.8986 14.2355 15.5094 14.2355C17.1203 14.2355 18.4261 12.9297 18.4261 11.3188C18.4261 9.70802 17.1203 8.40218 15.5094 8.40218ZM10.0928 11.3188C10.0928 8.32732 12.5179 5.90218 15.5094 5.90218C18.5009 5.90218 20.9261 8.32732 20.9261 11.3188C20.9261 14.3103 18.5009 16.7355 15.5094 16.7355C12.5179 16.7355 10.0928 14.3103 10.0928 11.3188Z" fill="#FF3A3A"/>
</svg>
