<svg width="18" height="18" viewBox="0 0 18 18" fill="none" xmlns="http://www.w3.org/2000/svg">
<path fill-rule="evenodd" clip-rule="evenodd" d="M8.99243 0.0375977C8.21118 0.0375977 7.46518 0.293081 6.26192 0.705198L5.65572 0.912714C4.42128 1.33526 3.4686 1.66136 2.78662 1.93842C2.44308 2.07798 2.14774 2.21316 1.90992 2.35127C1.68105 2.48418 1.45145 2.64996 1.29546 2.87221C1.14126 3.0919 1.06154 3.36196 1.01144 3.62195C0.959357 3.89223 0.927948 4.21646 0.907682 4.58873C0.867432 5.3279 0.867432 6.34052 0.867432 7.65393V8.98876C0.867432 14.0729 4.70746 16.5105 6.99104 17.5081L7.01363 17.5179C7.29679 17.6417 7.56293 17.7579 7.86877 17.8363C8.19168 17.9189 8.53468 17.9543 8.99243 17.9543C9.45018 17.9543 9.79318 17.9189 10.1161 17.8363C10.4219 17.7579 10.6881 17.6417 10.9712 17.5179L10.9939 17.5081C13.2774 16.5105 17.1174 14.0729 17.1174 8.98876V7.6541C17.1174 6.3406 17.1174 5.32793 17.0772 4.58873C17.0569 4.21646 17.0255 3.89223 16.9734 3.62195C16.9234 3.36196 16.8436 3.0919 16.6894 2.87221C16.5334 2.64996 16.3039 2.48418 16.0749 2.35127C15.8371 2.21316 15.5418 2.07798 15.1983 1.93842C14.5163 1.66136 13.5636 1.33526 12.3291 0.912706L11.7229 0.705198C10.5197 0.293081 9.77368 0.0375977 8.99243 0.0375977ZM6.55962 1.92451C7.90502 1.46396 8.44435 1.2876 8.99243 1.2876C9.54052 1.2876 10.0799 1.46396 11.4253 1.92451L11.9026 2.08791C13.1631 2.51938 14.0824 2.83431 14.7278 3.09651C15.0499 3.22738 15.2834 3.33706 15.4472 3.43221C15.5281 3.47918 15.5839 3.51795 15.621 3.54821C15.6526 3.57384 15.6646 3.58836 15.6664 3.5905C15.6679 3.5931 15.6784 3.61041 15.6929 3.65138C15.7096 3.69814 15.728 3.76517 15.746 3.85848C15.7824 4.04734 15.81 4.30677 15.829 4.6567C15.8672 5.35769 15.8674 6.33621 15.8674 7.67651V8.98876C15.8674 13.3013 12.6425 15.4238 10.4934 16.3626C10.1839 16.4978 10.0051 16.5743 9.8061 16.6253C9.61602 16.6739 9.3841 16.7043 8.99243 16.7043C8.60077 16.7043 8.36885 16.6739 8.17877 16.6253C7.97977 16.5743 7.80102 16.4978 7.49143 16.3626C5.34235 15.4238 2.11743 13.3013 2.11743 8.98876V7.67651C2.11743 6.33621 2.11767 5.35769 2.15583 4.6567C2.17488 4.30677 2.20247 4.04734 2.23886 3.85848C2.25684 3.76517 2.2753 3.69814 2.29196 3.65138C2.30654 3.61043 2.3169 3.59312 2.31851 3.59051C2.32023 3.58839 2.33227 3.57386 2.36382 3.54821C2.40105 3.51795 2.45678 3.47918 2.53767 3.43221C2.70152 3.33706 2.93493 3.22738 3.25709 3.09651C3.90252 2.83431 4.82177 2.51938 6.08227 2.08791L6.55962 1.92451Z" fill="#FF3A3A"/>
</svg>
