<svg width="40" height="40" viewBox="0 0 40 40" fill="none" xmlns="http://www.w3.org/2000/svg">
<path d="M6.66699 10.0002V31.6668C6.66699 34.4283 8.90558 36.6668 11.667 36.6668H28.3337C31.0952 36.6668 33.3337 34.4283 33.3337 31.6668V15.0002C33.3337 12.2387 31.0952 10.0002 28.3337 10.0002H6.66699ZM6.66699 10.0002V8.3335" stroke="#FF3A3A" stroke-width="3"/>
<path d="M30.0003 10.0003V11.2503H31.2503V10.0003H30.0003ZM8.45211 11.2503H30.0003V8.75027H8.45211V11.2503ZM31.2503 10.0003V7.17697H28.7503V10.0003H31.2503ZM26.0188 2.6397L8.02288 5.21055L8.37643 7.68542L26.3723 5.11457L26.0188 2.6397ZM8.02288 5.21055C6.52763 5.42415 5.41699 6.70473 5.41699 8.21515H7.91699C7.91699 7.94885 8.11281 7.72308 8.37643 7.68542L8.02288 5.21055ZM31.2503 7.17697C31.2503 4.38778 28.78 2.24525 26.0188 2.6397L26.3723 5.11457C27.6275 4.93528 28.7503 5.90915 28.7503 7.17697H31.2503ZM8.45211 8.75027C8.15658 8.75027 7.91699 8.51068 7.91699 8.21515H5.41699C5.41699 9.8914 6.77586 11.2503 8.45211 11.2503V8.75027Z" fill="#FF3A3A"/>
<path d="M13.333 20H26.6663" stroke="#FF3A3A" stroke-width="3" stroke-linecap="round"/>
<path d="M13.333 25.8335H22.4997" stroke="#FF3A3A" stroke-width="3" stroke-linecap="round"/>
</svg>
