<svg width="30" height="36" viewBox="0 0 30 36" fill="none" xmlns="http://www.w3.org/2000/svg">
<path fill-rule="evenodd" clip-rule="evenodd" d="M14.918 0.113282H15.106C18.169 0.113249 20.595 0.113232 22.4937 0.368515C24.4477 0.631215 26.0294 1.18475 27.2767 2.43202C28.5239 3.6793 29.0774 5.26088 29.3402 7.21492C29.5954 9.1136 29.5954 11.5397 29.5954 14.6026V21.4573C29.5954 24.5203 29.5954 26.9463 29.3402 28.8449C29.0774 30.7989 28.5239 32.3806 27.2767 33.6279C26.0294 34.8751 24.4477 35.4286 22.4937 35.6914C20.595 35.9466 18.169 35.9466 15.106 35.9466H14.918C11.855 35.9466 9.42903 35.9466 7.53034 35.6914C5.57631 35.4286 3.99473 34.8751 2.74745 33.6279C1.50018 32.3806 0.946645 30.7989 0.683945 28.8449C0.428662 26.9463 0.428678 24.5203 0.428712 21.4573V14.6026C0.428678 11.5396 0.428662 9.1136 0.683945 7.21492C0.946645 5.26088 1.50018 3.6793 2.74745 2.43202C3.99473 1.18475 5.57631 0.631215 7.53034 0.368515C9.42903 0.113232 11.855 0.113249 14.918 0.113282ZM7.86346 2.84622C6.18664 3.07165 5.22056 3.49443 4.51521 4.19978C3.80986 4.90513 3.38708 5.87121 3.16164 7.54803C2.93136 9.2608 2.92871 11.5186 2.92871 14.6966V21.3633C2.92871 24.5413 2.93136 26.7991 3.16164 28.5119C3.38708 30.1886 3.80986 31.1548 4.51521 31.8601C5.22056 32.5654 6.18664 32.9883 7.86346 33.2136C9.57623 33.4439 11.834 33.4466 15.012 33.4466C18.19 33.4466 20.4479 33.4439 22.1607 33.2136C23.8374 32.9883 24.8035 32.5654 25.5089 31.8601C26.2142 31.1548 26.637 30.1886 26.8624 28.5119C27.0927 26.7991 27.0954 24.5413 27.0954 21.3633V14.6966C27.0954 11.5186 27.0927 9.2608 26.8624 7.54803C26.637 5.87121 26.2142 4.90513 25.5089 4.19978C24.8035 3.49443 23.8374 3.07165 22.1607 2.84622C20.4479 2.61593 18.19 2.61328 15.012 2.61328C11.834 2.61328 9.57623 2.61593 7.86346 2.84622ZM8.76204 6.36328C8.76204 5.67293 9.3217 5.11328 10.012 5.11328H20.012C20.7024 5.11328 21.262 5.67293 21.262 6.36328C21.262 7.05363 20.7024 7.61328 20.012 7.61328H10.012C9.3217 7.61328 8.76204 7.05363 8.76204 6.36328ZM15.012 24.2799C13.8614 24.2799 12.9287 25.2126 12.9287 26.3633C12.9287 27.5139 13.8614 28.4466 15.012 28.4466C16.1627 28.4466 17.0954 27.5139 17.0954 26.3633C17.0954 25.2126 16.1627 24.2799 15.012 24.2799ZM10.4287 26.3633C10.4287 23.8319 12.4807 21.7799 15.012 21.7799C17.5434 21.7799 19.5954 23.8319 19.5954 26.3633C19.5954 28.8946 17.5434 30.9466 15.012 30.9466C12.4807 30.9466 10.4287 28.8946 10.4287 26.3633Z" fill="#FF3A3A"/>
</svg>
