<svg width="40" height="40" viewBox="0 0 40 40" fill="none" xmlns="http://www.w3.org/2000/svg">
<path d="M3.33301 28.1667C3.33301 25.9843 3.33301 24.8932 3.82421 24.0917C4.09906 23.6432 4.47616 23.266 4.92467 22.9912C5.72624 22.5 6.81739 22.5 8.99967 22.5H10.833C13.9757 22.5 15.5471 22.5 16.5234 23.4763C17.4997 24.4527 17.4997 26.024 17.4997 29.1667V31C17.4997 33.1823 17.4997 34.2735 17.0085 35.075C16.7337 35.5235 16.3565 35.9007 15.908 36.1755C15.1064 36.6667 14.0153 36.6667 11.833 36.6667C8.55957 36.6667 6.92286 36.6667 5.72051 35.9298C5.04774 35.5177 4.48209 34.952 4.06981 34.2792C3.33301 33.0768 3.33301 31.4402 3.33301 28.1667Z" stroke="#FF4F4F" stroke-width="2"/>
<path d="M22.5 8.9987C22.5 6.81641 22.5 5.72526 22.9912 4.9237C23.266 4.47518 23.6432 4.09808 24.0917 3.82323C24.8932 3.33203 25.9843 3.33203 28.1667 3.33203C31.4402 3.33203 33.0768 3.33203 34.2792 4.06883C34.952 4.48111 35.5177 5.04676 35.9298 5.71953C36.6667 6.92188 36.6667 8.5586 36.6667 11.832C36.6667 14.0143 36.6667 15.1055 36.1755 15.907C35.9007 16.3555 35.5235 16.7327 35.075 17.0075C34.2735 17.4987 33.1823 17.4987 31 17.4987H29.1667C26.024 17.4987 24.4527 17.4987 23.4763 16.5224C22.5 15.5461 22.5 13.9747 22.5 10.832V8.9987Z" stroke="#FF4F4F" stroke-width="2"/>
<path d="M27.5 10.4154C27.5 9.55635 27.5 9.12685 27.7152 8.82358C27.7912 8.71656 27.8845 8.62313 27.9915 8.54721C28.2948 8.33203 28.7243 8.33203 29.5833 8.33203C30.4423 8.33203 30.8718 8.33203 31.1752 8.54721C31.2822 8.62313 31.3755 8.71656 31.4515 8.82358C31.6667 9.12685 31.6667 9.55635 31.6667 10.4154C31.6667 11.2744 31.6667 11.7039 31.4515 12.0071C31.3755 12.1142 31.2822 12.2076 31.1752 12.2835C30.8718 12.4987 30.4423 12.4987 29.5833 12.4987C28.7243 12.4987 28.2948 12.4987 27.9915 12.2835C27.8845 12.2076 27.7912 12.1142 27.7152 12.0071C27.5 11.7039 27.5 11.2744 27.5 10.4154Z" fill="#FF4F4F"/>
<path d="M21.25 36.6667C21.25 37.357 21.8097 37.9167 22.5 37.9167C23.1903 37.9167 23.75 37.357 23.75 36.6667H21.25ZM31.6667 21.25H28.3333V23.75H31.6667V21.25ZM21.25 31.6667V36.6667H23.75V31.6667H21.25ZM28.3333 21.25C27.189 21.25 26.2367 21.2485 25.4683 21.3267C24.6792 21.4068 23.947 21.5815 23.287 22.0225L24.6758 24.1012C24.8567 23.9803 25.13 23.874 25.7213 23.8138C26.3337 23.7515 27.137 23.75 28.3333 23.75V21.25ZM23.75 28.3333C23.75 27.137 23.7515 26.3337 23.8138 25.7213C23.874 25.13 23.9803 24.8567 24.1012 24.6758L22.0225 23.287C21.5815 23.947 21.4068 24.6792 21.3267 25.4683C21.2485 26.2367 21.25 27.189 21.25 28.3333H23.75ZM23.287 22.0225C22.7865 22.3568 22.3568 22.7865 22.0225 23.287L24.1012 24.6758C24.2532 24.4483 24.4483 24.2532 24.6758 24.1012L23.287 22.0225Z" fill="#FF4F4F"/>
<path d="M37.9163 22.5C37.9163 21.8097 37.3567 21.25 36.6663 21.25C35.976 21.25 35.4163 21.8097 35.4163 22.5H37.9163ZM28.333 37.9167H31.6663V35.4167H28.333V37.9167ZM37.9163 28.3333V22.5H35.4163V28.3333H37.9163ZM31.6663 37.9167C32.4258 37.9167 33.058 37.9173 33.5753 37.882C34.1038 37.846 34.603 37.7683 35.087 37.5678L34.1303 35.258C34.0017 35.3113 33.8063 35.3605 33.4052 35.3878C32.9927 35.416 32.46 35.4167 31.6663 35.4167V37.9167ZM35.4163 31.6667C35.4163 32.4603 35.4157 32.993 35.3875 33.4055C35.3602 33.8067 35.311 34.002 35.2577 34.1307L37.5675 35.0873C37.768 34.6033 37.8457 34.1042 37.8817 33.5757C37.917 33.0583 37.9163 32.4262 37.9163 31.6667H35.4163ZM35.087 37.5678C36.21 37.1027 37.1023 36.2103 37.5675 35.0873L35.2577 34.1307C35.0463 34.641 34.6407 35.0465 34.1303 35.258L35.087 37.5678Z" fill="#FF4F4F"/>
<path d="M3.33301 11.832C3.33301 8.5586 3.33301 6.92188 4.06981 5.71953C4.48209 5.04676 5.04774 4.48111 5.72051 4.06883C6.92286 3.33203 8.55957 3.33203 11.833 3.33203C14.0153 3.33203 15.1064 3.33203 15.908 3.82323C16.3565 4.09808 16.7337 4.47518 17.0085 4.9237C17.4997 5.72526 17.4997 6.81641 17.4997 8.9987V10.832C17.4997 13.9747 17.4997 15.5461 16.5234 16.5224C15.5471 17.4987 13.9757 17.4987 10.833 17.4987H8.99967C6.81739 17.4987 5.72624 17.4987 4.92467 17.0075C4.47616 16.7327 4.09906 16.3555 3.82421 15.907C3.33301 15.1055 3.33301 14.0143 3.33301 11.832Z" stroke="#FF4F4F" stroke-width="2"/>
<path d="M8.33301 10.4154C8.33301 9.55635 8.33301 9.12685 8.54819 8.82358C8.62411 8.71656 8.71754 8.62313 8.82456 8.54721C9.12782 8.33203 9.55732 8.33203 10.4163 8.33203C11.2754 8.33203 11.7049 8.33203 12.0081 8.54721C12.1151 8.62313 12.2086 8.71656 12.2845 8.82358C12.4997 9.12685 12.4997 9.55635 12.4997 10.4154C12.4997 11.2744 12.4997 11.7039 12.2845 12.0071C12.2086 12.1142 12.1151 12.2076 12.0081 12.2835C11.7049 12.4987 11.2754 12.4987 10.4163 12.4987C9.55732 12.4987 9.12782 12.4987 8.82456 12.2835C8.71754 12.2076 8.62411 12.1142 8.54819 12.0071C8.33301 11.7039 8.33301 11.2744 8.33301 10.4154Z" fill="#FF4F4F"/>
<path d="M8.33301 29.5833C8.33301 28.7243 8.33301 28.2948 8.54819 27.9915C8.62411 27.8845 8.71754 27.7912 8.82456 27.7152C9.12782 27.5 9.55732 27.5 10.4163 27.5C11.2754 27.5 11.7049 27.5 12.0081 27.7152C12.1151 27.7912 12.2086 27.8845 12.2845 27.9915C12.4997 28.2948 12.4997 28.7243 12.4997 29.5833C12.4997 30.4423 12.4997 30.8718 12.2845 31.1752C12.2086 31.2822 12.1151 31.3755 12.0081 31.4515C11.7049 31.6667 11.2754 31.6667 10.4163 31.6667C9.55732 31.6667 9.12782 31.6667 8.82456 31.4515C8.71754 31.3755 8.62411 31.2822 8.54819 31.1752C8.33301 30.8718 8.33301 30.4423 8.33301 29.5833Z" fill="#FF4F4F"/>
<path d="M26.667 29.5846C26.667 28.4143 26.667 27.8291 26.9478 27.4086C27.0695 27.2266 27.2257 27.0705 27.4077 26.9488C27.8282 26.668 28.4133 26.668 29.5837 26.668C30.754 26.668 31.3392 26.668 31.7597 26.9488C31.9417 27.0705 32.0978 27.2266 32.2195 27.4086C32.5003 27.8291 32.5003 28.4143 32.5003 29.5846C32.5003 30.755 32.5003 31.3401 32.2195 31.7606C32.0978 31.9426 31.9417 32.0988 31.7597 32.2205C31.3392 32.5013 30.754 32.5013 29.5837 32.5013C28.4133 32.5013 27.8282 32.5013 27.4077 32.2205C27.2257 32.0988 27.0695 31.9426 26.9478 31.7606C26.667 31.3401 26.667 30.755 26.667 29.5846Z" fill="#FF4F4F"/>
</svg>
