<svg width="40" height="40" viewBox="0 0 40 40" fill="none" xmlns="http://www.w3.org/2000/svg">
<g id="Sound">
<path id="Vector" d="M25.0827 2.28516C24.8193 2.28516 24.5515 2.35658 24.3059 2.52176L8.48005 12.8655H1.15862C0.765765 12.8655 0.444336 13.1869 0.444336 13.5798V26.4369C0.444336 26.8298 0.765765 27.1512 1.15862 27.1512H8.48005L24.3059 37.495C24.5515 37.6557 24.8238 37.7316 25.0827 37.7316C25.8283 37.7316 26.5158 37.1378 26.5158 36.2985V3.71819C26.5158 2.87891 25.8283 2.28516 25.0827 2.28516ZM23.3015 32.9994L10.239 24.4593L9.43541 23.9369H3.65862V16.0798H9.43541L10.2345 15.5575L23.3015 7.0173V32.9994ZM38.8372 18.4012H33.1229C32.7301 18.4012 32.4086 18.7227 32.4086 19.1155V20.9012C32.4086 21.2941 32.7301 21.6155 33.1229 21.6155H38.8372C39.2301 21.6155 39.5515 21.2941 39.5515 20.9012V19.1155C39.5515 18.7227 39.2301 18.4012 38.8372 18.4012ZM36.9667 30.0887L32.0426 27.245C31.9617 27.1987 31.8724 27.1687 31.7799 27.1569C31.6875 27.1451 31.5936 27.1516 31.5036 27.176C31.4137 27.2005 31.3294 27.2424 31.2557 27.2994C31.1819 27.3565 31.1201 27.4275 31.0738 27.5084L30.1854 29.0485C29.989 29.3878 30.1051 29.8253 30.4443 30.0218L35.3684 32.8655C35.4493 32.9118 35.5386 32.9418 35.6311 32.9536C35.7235 32.9654 35.8174 32.9589 35.9074 32.9345C35.9973 32.91 36.0816 32.8681 36.1553 32.8111C36.2291 32.754 36.2909 32.683 36.3372 32.6021L37.2256 31.0619C37.422 30.7227 37.3015 30.2852 36.9667 30.0887ZM31.0693 12.5084C31.1156 12.5893 31.1774 12.6603 31.2512 12.7173C31.3249 12.7743 31.4092 12.8163 31.4992 12.8407C31.5891 12.8652 31.683 12.8717 31.7755 12.8598C31.868 12.848 31.9572 12.8181 32.0381 12.7718L36.9622 9.92801C37.3015 9.73159 37.4176 9.29408 37.2211 8.9548L36.3372 7.41909C36.2909 7.33818 36.2291 7.26718 36.1553 7.21016C36.0816 7.15313 35.9973 7.11119 35.9074 7.08673C35.8174 7.06227 35.7235 7.05577 35.6311 7.06761C35.5386 7.07944 35.4493 7.10937 35.3684 7.15569L30.4443 9.99944C30.2813 10.0945 30.1625 10.2502 30.114 10.4326C30.0655 10.615 30.0912 10.8092 30.1854 10.9727L31.0693 12.5084Z" fill="#FF3A3A"/>
</g>
</svg>
