<svg xmlns="http://www.w3.org/2000/svg" width="40" height="40" viewBox="0 0 40 40" fill="none">
  <path d="M20.0192 3.33301C10.8425 3.33301 3.37215 10.797 3.36882 19.9736C3.36715 22.907 4.13546 25.7706 5.59212 28.2939L3.33301 36.6663L12.0537 34.6058C14.4854 35.9325 17.2228 36.6289 20.0094 36.6305H20.016C29.191 36.6305 36.6581 29.1649 36.6631 19.9899C36.6664 15.5416 34.9366 11.3592 31.7933 8.21256C28.65 5.06757 24.4725 3.33467 20.0192 3.33301ZM20.016 6.66634C23.576 6.66801 26.9215 8.056 29.4365 10.5693C31.9515 13.086 33.3331 16.43 33.3298 19.9867C33.3264 27.3267 27.356 33.2972 20.0127 33.2972C17.791 33.2955 15.5904 32.7377 13.652 31.6794L12.529 31.0674L11.2887 31.3604L8.00749 32.1351L8.80827 29.1598L9.1696 27.8252L8.47949 26.6273C7.31616 24.6139 6.70048 22.312 6.70215 19.9736C6.70548 12.637 12.6776 6.66634 20.016 6.66634ZM14.1273 12.2913C13.8489 12.2913 13.3989 12.3955 13.0173 12.8122C12.6356 13.2272 11.5589 14.2323 11.5589 16.279C11.5589 18.3256 13.0498 20.304 13.2581 20.5824C13.4648 20.859 16.1359 25.1917 20.3643 26.8584C23.8776 28.2434 24.5912 27.9701 25.3545 27.9001C26.1178 27.8317 27.8171 26.8958 28.1637 25.9242C28.5104 24.9525 28.5112 24.1167 28.4079 23.945C28.3045 23.7717 28.027 23.6683 27.6104 23.46C27.1954 23.2516 25.1502 22.2474 24.7686 22.109C24.3869 21.9707 24.1077 21.9007 23.8311 22.3174C23.5544 22.734 22.7593 23.6683 22.516 23.945C22.2726 24.2233 22.0309 24.2607 21.6143 24.0524C21.1976 23.8424 19.8579 23.402 18.2679 21.9854C17.0312 20.8837 16.1968 19.5244 15.9535 19.1077C15.7118 18.6927 15.9307 18.4648 16.139 18.2581C16.3257 18.0715 16.5524 17.7723 16.7607 17.529C16.9674 17.2856 17.0391 17.1123 17.1774 16.8356C17.3157 16.5589 17.2449 16.3148 17.1416 16.1064C17.0383 15.8981 16.229 13.8438 15.859 13.0205C15.5474 12.3288 15.2182 12.3128 14.9215 12.3011C14.6799 12.2911 14.4039 12.2913 14.1273 12.2913Z" fill="#FF3A3A"/>
</svg>