<svg width="40" height="40" viewBox="0 0 40 40" fill="none" xmlns="http://www.w3.org/2000/svg">
<path d="M30.9336 19.2188L29.4571 18.8281L28.918 17.4023C28.5821 16.5156 28.1133 15.6797 27.5235 14.9258C26.9411 14.1786 26.2513 13.5217 25.4766 12.9766C23.8711 11.8477 21.9805 11.25 20.0078 11.25C18.0352 11.25 16.1446 11.8477 14.5391 12.9766C13.7643 13.5217 13.0745 14.1785 12.4922 14.9258C11.9044 15.6758 11.4342 16.5109 11.0977 17.4023L10.5547 18.832L9.07424 19.2188C8.05203 19.4945 7.14634 20.0933 6.49221 20.9258C5.82597 21.7761 5.46545 22.826 5.46877 23.9062C5.46877 25.1992 5.97268 26.418 6.88674 27.332C7.8008 28.2461 9.01565 28.75 10.3086 28.75H29.6914C30.9844 28.75 32.1992 28.2461 33.1133 27.332C33.5643 26.883 33.9218 26.3491 34.1651 25.7611C34.4085 25.173 34.533 24.5426 34.5313 23.9062C34.5313 21.7109 33.0547 19.7852 30.9336 19.2188Z" fill="white"/>
<path d="M31.6953 16.3555C29.9063 11.6367 25.3477 8.28125 20.0078 8.28125C14.668 8.28125 10.1094 11.6328 8.32031 16.3516C4.97266 17.2305 2.5 20.2773 2.5 23.9062C2.5 28.2227 5.99609 31.7188 10.3086 31.7188H29.6914C34.0039 31.7188 37.5 28.2227 37.5 23.9062C37.5 20.2852 35.0352 17.2383 31.6953 16.3555ZM33.1133 27.332C32.665 27.7829 32.1318 28.1404 31.5444 28.3838C30.957 28.6272 30.3272 28.7517 29.6914 28.75H10.3086C9.01562 28.75 7.80078 28.2461 6.88672 27.332C6.43576 26.883 6.07827 26.3491 5.83488 25.7611C5.5915 25.173 5.46706 24.5426 5.46875 23.9062C5.46875 22.8125 5.82422 21.7852 6.49219 20.9258C7.14632 20.0933 8.05201 19.4945 9.07422 19.2188L10.5547 18.832L11.0977 17.4023C11.4336 16.5117 11.9023 15.6797 12.4922 14.9258C13.0745 14.1785 13.7643 13.5217 14.5391 12.9766C16.1445 11.8477 18.0352 11.25 20.0078 11.25C21.9805 11.25 23.8711 11.8477 25.4766 12.9766C26.2539 13.5234 26.9414 14.1797 27.5234 14.9258C28.1133 15.6797 28.582 16.5156 28.918 17.4023L29.457 18.8281L30.9336 19.2188C33.0547 19.7852 34.5312 21.7109 34.5312 23.9062C34.5312 25.1992 34.0273 26.418 33.1133 27.332Z" fill="#FF4F4F"/>
</svg>
