<svg width="32" height="32" viewBox="0 0 32 32" fill="none" xmlns="http://www.w3.org/2000/svg">
<path d="M30 0H1.25C0.558594 0 0 0.558594 0 1.25V30C0 30.6914 0.558594 31.25 1.25 31.25H30C30.6914 31.25 31.25 30.6914 31.25 30V1.25C31.25 0.558594 30.6914 0 30 0ZM28.4375 28.4375H2.8125V2.8125H28.4375V28.4375Z" fill="#EF4444"/>
<path d="M8.90625 22.3047V25.3125C8.90625 25.4844 9.04688 25.625 9.21875 25.625H11.0938C11.2656 25.625 11.4063 25.4844 11.4063 25.3125V22.3047C13.0352 21.7773 14.2188 20.2422 14.2188 18.4375C14.2188 16.6328 13.0352 15.1016 11.4063 14.5703V5.9375C11.4063 5.76563 11.2656 5.625 11.0938 5.625H9.21875C9.04688 5.625 8.90625 5.76563 8.90625 5.9375V14.5703C7.27734 15.0977 6.09375 16.6328 6.09375 18.4375C6.09375 20.2422 7.27734 21.7734 8.90625 22.3047ZM8.91016 17.7734C8.91406 17.7656 8.91797 17.7617 8.92188 17.7539L8.98047 17.6602C8.98047 17.6562 8.98438 17.6563 8.98438 17.6523L9.01953 17.6055C9.01953 17.6016 9.02344 17.5977 9.02734 17.5938C9.06641 17.5469 9.10938 17.4961 9.15234 17.4531L9.16016 17.4453C9.17578 17.4297 9.19141 17.418 9.20703 17.4023C9.23828 17.375 9.27344 17.3477 9.30859 17.3203H9.3125L9.35938 17.2852C9.36328 17.2813 9.37109 17.2773 9.375 17.2734C9.42578 17.2422 9.47656 17.2148 9.52734 17.1875C9.53516 17.1797 9.54688 17.1758 9.55469 17.1719C9.57031 17.1641 9.58203 17.1602 9.59766 17.1523C9.60938 17.1484 9.625 17.1406 9.63672 17.1367C9.65625 17.1328 9.67578 17.125 9.69531 17.1172C9.71094 17.1133 9.73047 17.1055 9.74609 17.1016L9.78125 17.0898L9.83594 17.0781C9.84375 17.0742 9.85547 17.0742 9.86328 17.0703C9.89063 17.0625 9.91797 17.0586 9.94531 17.0547C9.95313 17.0508 9.96094 17.0508 9.96875 17.0508C9.98828 17.0469 10.0117 17.043 10.0352 17.043C10.0469 17.0391 10.0547 17.0391 10.0625 17.0391C10.0938 17.0352 10.1211 17.0352 10.1523 17.0352C10.1836 17.0352 10.2109 17.0391 10.2422 17.0391C10.2539 17.043 10.2617 17.043 10.2695 17.043C10.293 17.0469 10.3125 17.0469 10.3359 17.0508C10.3438 17.0547 10.3516 17.0547 10.3594 17.0547C10.3867 17.0586 10.4141 17.0664 10.4414 17.0703C10.4492 17.0742 10.4609 17.0742 10.4688 17.0781L10.5234 17.0898L10.5586 17.1016C10.5742 17.1055 10.5938 17.1133 10.6094 17.1172C10.6289 17.1211 10.6484 17.1289 10.668 17.1367C10.6797 17.1406 10.6953 17.1484 10.707 17.1523C10.7227 17.1602 10.7344 17.1641 10.75 17.1719C10.7578 17.1797 10.7695 17.1836 10.7773 17.1875C10.832 17.2109 10.8828 17.2422 10.9297 17.2734C10.9336 17.2773 10.9414 17.2813 10.9453 17.2852L10.9922 17.3203H10.9961C11.0313 17.3438 11.0664 17.3711 11.0977 17.4023C11.1133 17.4141 11.1289 17.4297 11.1445 17.4453L11.1523 17.4531C11.1992 17.4961 11.2383 17.543 11.2773 17.5938C11.2773 17.5977 11.2813 17.6016 11.2852 17.6055L11.3203 17.6523C11.3203 17.6563 11.3242 17.6562 11.3242 17.6602L11.3828 17.7539C11.4999 17.9628 11.5617 18.1981 11.5625 18.4375C11.5625 18.6758 11.5 18.9023 11.3945 19.1016C11.3906 19.1094 11.3867 19.1133 11.3828 19.1211L11.3242 19.2148C11.3242 19.2188 11.3203 19.2187 11.3203 19.2227L11.2852 19.2695C11.2852 19.2734 11.2813 19.2773 11.2773 19.2813C11.2383 19.3281 11.1953 19.3789 11.1523 19.4219L11.1445 19.4297C11.1289 19.4453 11.1133 19.457 11.0977 19.4727C11.0664 19.5 11.0313 19.5273 10.9961 19.5547H10.9922L10.9453 19.5898C10.9414 19.5938 10.9336 19.5977 10.9297 19.6016C10.8789 19.6328 10.8281 19.6602 10.7773 19.6875C10.7695 19.6953 10.7578 19.6992 10.75 19.7031C10.7344 19.7109 10.7227 19.7148 10.707 19.7227C10.6953 19.7266 10.6797 19.7344 10.668 19.7383C10.6484 19.7422 10.6289 19.75 10.6094 19.7578C10.5938 19.7617 10.5742 19.7695 10.5586 19.7734L10.5234 19.7852L10.4688 19.7969C10.4609 19.8008 10.4492 19.8008 10.4414 19.8047C10.4141 19.8125 10.3867 19.8164 10.3594 19.8203C10.3516 19.8242 10.3438 19.8242 10.3359 19.8242C10.3164 19.8281 10.293 19.832 10.2695 19.832C10.2578 19.8359 10.25 19.8359 10.2422 19.8359C10.2109 19.8398 10.1836 19.8398 10.1523 19.8398C10.1211 19.8398 10.0938 19.8359 10.0625 19.8359C10.0508 19.832 10.043 19.832 10.0352 19.832C10.0117 19.8281 9.99219 19.8281 9.96875 19.8242C9.96094 19.8203 9.95313 19.8203 9.94531 19.8203C9.91797 19.8164 9.89063 19.8086 9.86328 19.8047C9.85547 19.8008 9.84375 19.8008 9.83594 19.7969L9.78125 19.7852L9.74609 19.7734C9.73047 19.7695 9.71094 19.7617 9.69531 19.7578C9.67578 19.7539 9.65625 19.7461 9.63672 19.7383C9.625 19.7344 9.60938 19.7266 9.59766 19.7227C9.58203 19.7148 9.57031 19.7109 9.55469 19.7031C9.54688 19.6953 9.53516 19.6914 9.52734 19.6875C9.47266 19.6641 9.42188 19.6328 9.375 19.6016C9.37109 19.5977 9.36328 19.5938 9.35938 19.5898L9.3125 19.5547H9.30859C9.27344 19.5312 9.23828 19.5039 9.20703 19.4727C9.19141 19.4609 9.17578 19.4453 9.16016 19.4297L9.15234 19.4219C9.10547 19.3789 9.06641 19.332 9.02734 19.2813C9.02734 19.2773 9.02344 19.2734 9.01953 19.2695L8.98438 19.2227C8.98438 19.2187 8.98047 19.2188 8.98047 19.2148L8.92188 19.1211C8.91797 19.1133 8.91406 19.1094 8.91016 19.1016C8.80469 18.9063 8.74219 18.6758 8.74219 18.4375C8.74219 18.1992 8.80469 17.9727 8.91016 17.7734ZM19.8594 16.6836C19.8555 16.6836 19.8516 16.6797 19.8438 16.6797V25.3125C19.8438 25.4844 19.9844 25.625 20.1563 25.625H22.0313C22.2031 25.625 22.3438 25.4844 22.3438 25.3125V16.6797C22.3398 16.6797 22.3359 16.6836 22.3281 16.6836C23.9688 16.1602 25.1563 14.625 25.1563 12.8125C25.1563 11 23.9688 9.46484 22.3281 8.94141C22.332 8.94141 22.3359 8.94531 22.3438 8.94531V5.9375C22.3438 5.76563 22.2031 5.625 22.0313 5.625H20.1563C19.9844 5.625 19.8438 5.76563 19.8438 5.9375V8.94531C19.8477 8.94531 19.8516 8.94141 19.8594 8.94141C18.2188 9.46484 17.0313 11 17.0313 12.8125C17.0313 14.625 18.2188 16.1602 19.8594 16.6836ZM21.0938 11.4063C21.8711 11.4063 22.5 12.0352 22.5 12.8125C22.5 13.5898 21.8711 14.2188 21.0938 14.2188C20.3164 14.2188 19.6875 13.5898 19.6875 12.8125C19.6875 12.0352 20.3164 11.4063 21.0938 11.4063Z" fill="#EF4444"/>
</svg>
