<svg width="40" height="40" viewBox="0 0 40 40" fill="none" xmlns="http://www.w3.org/2000/svg">
<path d="M14.1663 31.6663H13.333C6.66634 31.6663 3.33301 29.9997 3.33301 21.6663V13.333C3.33301 6.66634 6.66634 3.33301 13.333 3.33301H26.6663C33.333 3.33301 36.6663 6.66634 36.6663 13.333V21.6663C36.6663 28.333 33.333 31.6663 26.6663 31.6663H25.833C25.3163 31.6663 24.8163 31.9163 24.4997 32.333L21.9997 35.6663C20.8997 37.133 19.0997 37.133 17.9997 35.6663L15.4997 32.333C15.233 31.9663 14.6163 31.6663 14.1663 31.6663Z" stroke="#FF4F4F" stroke-width="2.5" stroke-miterlimit="10" stroke-linecap="round" stroke-linejoin="round"/>
<path d="M26.6611 18.3333H26.6761" stroke="#FF4F4F" stroke-width="2.5" stroke-linecap="round" stroke-linejoin="round"/>
<path d="M19.9921 18.3333H20.0071" stroke="#FF4F4F" stroke-width="2.5" stroke-linecap="round" stroke-linejoin="round"/>
<path d="M13.3242 18.3333H13.3391" stroke="#FF4F4F" stroke-width="2.5" stroke-linecap="round" stroke-linejoin="round"/>
</svg>
