<svg width="40" height="40" viewBox="0 0 40 40" fill="none" xmlns="http://www.w3.org/2000/svg">
<path d="M36.6663 12.3831V22.3831C36.6663 24.8831 35.833 26.9665 34.3663 28.4331C32.9163 29.8831 30.833 30.7165 28.333 30.7165V34.2665C28.333 35.5998 26.8497 36.3999 25.7497 35.6665L18.333 30.7165H14.7997C14.933 30.2165 14.9997 29.6998 14.9997 29.1665C14.9997 27.4665 14.3497 25.8998 13.283 24.7165C12.083 23.3498 10.2997 22.4998 8.33301 22.4998C6.46634 22.4998 4.76635 23.2665 3.54968 24.5165C3.39968 23.8499 3.33301 23.1331 3.33301 22.3831V12.3831C3.33301 7.38314 6.66634 4.0498 11.6663 4.0498H28.333C33.333 4.0498 36.6663 7.38314 36.6663 12.3831Z" stroke="#FF4F4F" stroke-width="2.5" stroke-miterlimit="10" stroke-linecap="round" stroke-linejoin="round"/>
<path d="M15.0003 29.1667C15.0003 29.7 14.9337 30.2167 14.8003 30.7167C14.6503 31.3833 14.3837 32.0333 14.0337 32.6C12.8837 34.5333 10.767 35.8333 8.33366 35.8333C6.61699 35.8333 5.06699 35.1833 3.90032 34.1166C3.40032 33.6833 2.96697 33.1667 2.63364 32.6C2.01697 31.6 1.66699 30.4167 1.66699 29.1667C1.66699 27.3667 2.38367 25.7167 3.55033 24.5167C4.767 23.2667 6.46699 22.5 8.33366 22.5C10.3003 22.5 12.0837 23.35 13.2837 24.7167C14.3503 25.9 15.0003 27.4667 15.0003 29.1667Z" stroke="#FF4F4F" stroke-width="2.5" stroke-miterlimit="10" stroke-linecap="round" stroke-linejoin="round"/>
<path d="M10.1163 30.9004L6.58301 27.3838" stroke="#FF4F4F" stroke-width="2.5" stroke-miterlimit="10" stroke-linecap="round" stroke-linejoin="round"/>
<path d="M10.0831 27.4336L6.5498 30.9502" stroke="#FF4F4F" stroke-width="2.5" stroke-miterlimit="10" stroke-linecap="round" stroke-linejoin="round"/>
<path d="M14.167 17.5H25.8337" stroke="#FF4F4F" stroke-width="2.5" stroke-miterlimit="10" stroke-linecap="round" stroke-linejoin="round"/>
</svg>
