<svg width="38" height="38" viewBox="0 0 38 44" fill="none" xmlns="http://www.w3.org/2000/svg">
<g clip-path="url(#clip0_2385_17086)">
<path d="M31.5183 40.2866C32.3887 40.2866 33.0942 39.581 33.0942 38.7107C33.0942 37.8403 32.3887 37.1348 31.5183 37.1348C30.6479 37.1348 29.9424 37.8403 29.9424 38.7107C29.9424 39.581 30.6479 40.2866 31.5183 40.2866Z" stroke="#000000" stroke-width="2.52146" stroke-linecap="round" stroke-linejoin="round"/>
<path d="M14.1833 40.2866C15.0537 40.2866 15.7593 39.581 15.7593 38.7107C15.7593 37.8403 15.0537 37.1348 14.1833 37.1348C13.313 37.1348 12.6074 37.8403 12.6074 38.7107C12.6074 39.581 13.313 40.2866 14.1833 40.2866Z" stroke="#000000" stroke-width="2.52146" stroke-linecap="round" stroke-linejoin="round"/>
<path d="M1.57593 7.19336H7.87959L12.103 28.2949C12.2471 29.0204 12.6419 29.6721 13.2181 30.136C13.7943 30.5998 14.5153 30.8463 15.2549 30.8321H30.5728C31.3123 30.8463 32.0333 30.5998 32.6096 30.136C33.1858 29.6721 33.5805 29.0204 33.7246 28.2949L36.2461 15.0729H9.4555" stroke="#000000" stroke-width="2.52146" stroke-linecap="round" stroke-linejoin="round"/>
</g>
<defs>
<clipPath id="clip0_2385_17086">
<rect width="37.822" height="37.822" fill="white" transform="translate(0 5.61719)"/>
</clipPath>
</defs>
</svg>
