<svg width="34" height="34" viewBox="0 0 34 34" fill="none" xmlns="http://www.w3.org/2000/svg">
<path d="M17 21.25C19.3472 21.25 21.25 19.3472 21.25 17C21.25 14.6528 19.3472 12.75 17 12.75C14.6528 12.75 12.75 14.6528 12.75 17C12.75 19.3472 14.6528 21.25 17 21.25Z" stroke="#FF4F4F" stroke-width="2.4" stroke-miterlimit="10" stroke-linecap="round" stroke-linejoin="round"/>
<path d="M2.83301 18.2474V15.754C2.83301 14.2807 4.03717 13.0624 5.52467 13.0624C8.08884 13.0624 9.13717 11.249 7.84801 9.02485C7.11134 7.74985 7.55051 6.09235 8.83967 5.35568L11.2905 3.95318C12.4097 3.28735 13.8547 3.68402 14.5205 4.80318L14.6763 5.07235C15.9513 7.29652 18.048 7.29652 19.3372 5.07235L19.493 4.80318C20.1588 3.68402 21.6038 3.28735 22.723 3.95318L25.1738 5.35568C26.463 6.09235 26.9022 7.74985 26.1655 9.02485C24.8763 11.249 25.9247 13.0624 28.4888 13.0624C29.9622 13.0624 31.1805 14.2665 31.1805 15.754V18.2474C31.1805 19.7207 29.9763 20.939 28.4888 20.939C25.9247 20.939 24.8763 22.7523 26.1655 24.9765C26.9022 26.2657 26.463 27.909 25.1738 28.6457L22.723 30.0482C21.6038 30.714 20.1588 30.3174 19.493 29.1982L19.3372 28.929C18.0622 26.7049 15.9655 26.7049 14.6763 28.929L14.5205 29.1982C13.8547 30.3174 12.4097 30.714 11.2905 30.0482L8.83967 28.6457C7.55051 27.909 7.11134 26.2515 7.84801 24.9765C9.13717 22.7523 8.08884 20.939 5.52467 20.939C4.03717 20.939 2.83301 19.7207 2.83301 18.2474Z" stroke="#FF4F4F" stroke-width="2.4" stroke-miterlimit="10" stroke-linecap="round" stroke-linejoin="round"/>
</svg>
