<svg width="30" height="30" viewBox="0 0 30 30" fill="none" xmlns="http://www.w3.org/2000/svg">
<path d="M6.26953 6.64258V19.1699L15 25.9727L23.7305 19.1699V6.64258L15 3.66602L6.26953 6.64258ZM18.5391 9.61035H20.1562C20.3467 9.61035 20.458 9.82715 20.3467 9.98242L14.1182 18.5576C14.0744 18.6175 14.0171 18.6663 13.9509 18.6999C13.8847 18.7335 13.8115 18.751 13.7373 18.751C13.6631 18.751 13.5899 18.7335 13.5237 18.6999C13.4575 18.6663 13.4002 18.6175 13.3564 18.5576L9.65332 13.46C9.54199 13.3047 9.65332 13.0879 9.84375 13.0879H11.4609C11.6133 13.0879 11.7539 13.1611 11.8418 13.2812L13.7373 15.8916L18.1582 9.80371C18.2461 9.68359 18.3896 9.61035 18.5391 9.61035Z" fill="#E6F7FF"/>
<path d="M25.3975 4.97754L15.4424 1.58496C15.3223 1.54395 15.1611 1.52344 15 1.52344C14.8389 1.52344 14.6777 1.54395 14.5576 1.58496L4.60254 4.97754C4.35938 5.05957 4.16016 5.34082 4.16016 5.59863V19.7314C4.16016 19.9893 4.32715 20.3291 4.5293 20.4902L14.6279 28.3594C14.7305 28.4385 14.8623 28.4795 14.9971 28.4795C15.1318 28.4795 15.2666 28.4385 15.3662 28.3594L25.4648 20.4902C25.667 20.332 25.834 19.9922 25.834 19.7314V5.59863C25.8398 5.34082 25.6406 5.0625 25.3975 4.97754ZM23.7305 19.1689L15 25.9717L6.26953 19.1689V6.6416L15 3.66504L23.7305 6.6416V19.1689Z" fill="#1890FF"/>
<path d="M11.8418 13.2803C11.7539 13.1602 11.6133 13.0869 11.461 13.0869H9.84377C9.65334 13.0869 9.54202 13.3037 9.65334 13.459L13.3565 18.5566C13.4003 18.6166 13.4576 18.6653 13.5237 18.6989C13.5899 18.7325 13.6631 18.7501 13.7373 18.7501C13.8116 18.7501 13.8847 18.7325 13.9509 18.6989C14.0171 18.6653 14.0744 18.6166 14.1182 18.5566L20.3467 9.98145C20.458 9.82617 20.3467 9.60938 20.1563 9.60938H18.5391C18.3897 9.60938 18.2461 9.68262 18.1582 9.80273L13.7373 15.8906L11.8418 13.2803Z" fill="#1890FF"/>
</svg>
