<svg width="34" height="34" viewBox="0 0 34 34" fill="none" xmlns="http://www.w3.org/2000/svg">
<path d="M7.62344 22.5149C7.50059 22.9 7.4375 23.3084 7.4375 23.7234C7.4375 23.3084 7.50391 22.9 7.62676 22.5149H7.62344ZM10.1568 13.8754H6.10938V20.1242H10.1568L10.5852 20.2969L27.8906 27.2496V6.75L10.5852 13.7027L10.1568 13.8754Z" fill="white"/>
<path d="M29.2188 3.71875C29.0926 3.71875 28.9631 3.74199 28.8336 3.79512L9.69531 11.485H4.25C3.95781 11.485 3.71875 11.7307 3.71875 12.0361V21.9639C3.71875 22.2693 3.95781 22.515 4.25 22.515H7.62676C7.50391 22.9002 7.4375 23.3086 7.4375 23.7236C7.4375 25.9117 9.22383 27.6914 11.4219 27.6914C13.2613 27.6914 14.8119 26.443 15.2701 24.7562L28.8369 30.2082C28.9664 30.258 29.0959 30.2846 29.2221 30.2846C29.7832 30.2846 30.2846 29.8131 30.2846 29.1822V4.82109C30.2812 4.19023 29.7832 3.71875 29.2188 3.71875ZM11.4219 25.3107C10.542 25.3107 9.82812 24.6002 9.82812 23.7236C9.82812 23.3518 9.95762 22.9965 10.1934 22.7143L13.0123 23.8465C12.9459 24.6633 12.2586 25.3107 11.4219 25.3107ZM27.8906 27.2498L10.5852 20.2971L10.1568 20.1244H6.10938V13.8756H10.1568L10.5852 13.7029L27.8906 6.7502V27.2498Z" fill="#FF4F4F"/>
</svg>
