<svg width="34" height="34" viewBox="0 0 34 34" fill="none" xmlns="http://www.w3.org/2000/svg">
<path d="M28.8478 24.1358C27.898 23.1852 26.7882 22.4094 25.5692 21.8438C27.2882 20.4512 28.3849 18.3262 28.3849 15.9431C28.3849 11.7387 24.8786 8.28934 20.6741 8.35385C16.5342 8.41836 13.1987 11.7918 13.1987 15.9431C13.1987 18.3262 14.2991 20.4512 16.0143 21.8438C14.7951 22.4089 13.6852 23.1848 12.7358 24.1358C10.6639 26.2114 9.48754 28.9512 9.41165 31.873C9.41063 31.9135 9.41774 31.9538 9.43254 31.9916C9.44734 32.0293 9.46954 32.0636 9.49783 32.0926C9.52612 32.1216 9.55993 32.1447 9.59727 32.1604C9.6346 32.1761 9.67471 32.1842 9.71522 32.1842H11.8402C12.0034 32.1842 12.14 32.0552 12.1438 31.892C12.2159 29.6911 13.1076 27.6306 14.6748 26.0672C15.4768 25.261 16.4307 24.6219 17.4813 24.1868C18.5319 23.7517 19.6584 23.5293 20.7956 23.5324C23.1065 23.5324 25.2808 24.4318 26.9163 26.0672C28.4797 27.6306 29.3715 29.6911 29.4474 31.892C29.4512 32.0552 29.5878 32.1842 29.7509 32.1842H31.8759C31.9164 32.1842 31.9566 32.1761 31.9939 32.1604C32.0312 32.1447 32.065 32.1216 32.0933 32.0926C32.1216 32.0636 32.1438 32.0293 32.1586 31.9916C32.1734 31.9538 32.1805 31.9135 32.1795 31.873C32.1036 28.9512 30.9273 26.2114 28.8478 24.1358ZM20.7956 20.8003C19.4978 20.8003 18.2759 20.2956 17.3614 19.3773C16.9025 18.922 16.5399 18.3788 16.2955 17.7803C16.051 17.1819 15.9296 16.5402 15.9384 15.8938C15.9498 14.6492 16.4469 13.4463 17.3159 12.5545C18.2266 11.621 19.4447 11.1012 20.7462 11.086C22.0326 11.0746 23.2811 11.5755 24.1994 12.4748C25.1404 13.3969 25.6565 14.6302 25.6565 15.9431C25.6565 17.2409 25.1518 18.459 24.2335 19.3773C23.783 19.83 23.2472 20.1888 22.6571 20.4331C22.0669 20.6773 21.4342 20.8021 20.7956 20.8003ZM11.29 16.9449C11.2558 16.6148 11.2369 16.2809 11.2369 15.9431C11.2369 15.3398 11.2938 14.7516 11.4 14.1786C11.4266 14.042 11.3545 13.9016 11.2293 13.8447C10.7132 13.6132 10.2389 13.2945 9.82906 12.8922C9.34615 12.424 8.96615 11.8603 8.7133 11.237C8.46045 10.6137 8.3403 9.94449 8.36053 9.27215C8.39468 8.05407 8.88419 6.89671 9.73799 6.02394C10.6753 5.06389 11.9351 4.54023 13.2746 4.55541C14.4851 4.56679 15.6538 5.03354 16.538 5.86077C16.8378 6.14157 17.0958 6.45273 17.3121 6.78666C17.388 6.90429 17.536 6.95363 17.665 6.90809C18.3329 6.67662 19.0387 6.51345 19.7634 6.43755C19.9759 6.41479 20.0974 6.18711 20.0025 5.99737C18.7692 3.55742 16.2496 1.8726 13.3353 1.82706C9.12705 1.76255 5.6208 5.21188 5.6208 9.41255C5.6208 11.7956 6.71745 13.9206 8.43642 15.3132C7.22973 15.871 6.1179 16.6413 5.15406 17.6052C3.07459 19.6809 1.89825 22.4206 1.82236 25.3463C1.82135 25.3868 1.82845 25.4271 1.84325 25.4648C1.85805 25.5025 1.88026 25.5368 1.90855 25.5658C1.93684 25.5948 1.97065 25.6179 2.00798 25.6336C2.04531 25.6493 2.08542 25.6574 2.12593 25.6574H4.25473C4.4179 25.6574 4.5545 25.5284 4.5583 25.3652C4.6304 23.1643 5.52214 21.1038 7.08933 19.5405C8.20495 18.4248 9.57102 17.6507 11.0623 17.2751C11.2103 17.2371 11.309 17.0967 11.29 16.9449V16.9449Z" fill="#FF4F4F"/>
</svg>
