<svg width="30" height="30" viewBox="0 0 30 30" fill="none" xmlns="http://www.w3.org/2000/svg">
<path d="M23.2002 14.4141L22.0928 14.1211L21.6885 13.0518C21.4365 12.3867 21.085 11.7598 20.6426 11.1943C20.2058 10.6339 19.6885 10.1413 19.1074 9.73242C17.9033 8.88574 16.4854 8.4375 15.0059 8.4375C13.5264 8.4375 12.1084 8.88574 10.9043 9.73242C10.3232 10.1413 9.80589 10.6339 9.36916 11.1943C8.92833 11.7568 8.57566 12.3832 8.32326 13.0518L7.91603 14.124L6.80568 14.4141C6.03903 14.6209 5.35975 15.07 4.86916 15.6943C4.36948 16.3321 4.09909 17.1195 4.10158 17.9297C4.10158 18.8994 4.47951 19.8135 5.16506 20.499C5.8506 21.1846 6.76174 21.5625 7.73146 21.5625H22.2686C23.2383 21.5625 24.1494 21.1846 24.835 20.499C25.1732 20.1623 25.4413 19.7618 25.6239 19.3208C25.8064 18.8798 25.8997 18.407 25.8985 17.9297C25.8985 16.2832 24.791 14.8389 23.2002 14.4141Z" fill="#E6F7FF"/>
<path d="M23.7715 12.2666C22.4297 8.72754 19.0107 6.21094 15.0059 6.21094C11.001 6.21094 7.58203 8.72461 6.24023 12.2637C3.72949 12.9229 1.875 15.208 1.875 17.9297C1.875 21.167 4.49707 23.7891 7.73145 23.7891H22.2686C25.5029 23.7891 28.125 21.167 28.125 17.9297C28.125 15.2139 26.2764 12.9287 23.7715 12.2666ZM24.835 20.499C24.4988 20.8372 24.0988 21.1053 23.6583 21.2879C23.2178 21.4704 22.7454 21.5638 22.2686 21.5625H7.73145C6.76172 21.5625 5.85059 21.1846 5.16504 20.499C4.82682 20.1623 4.5587 19.7618 4.37616 19.3208C4.19363 18.8798 4.1003 18.407 4.10156 17.9297C4.10156 17.1094 4.36816 16.3389 4.86914 15.6943C5.35974 15.07 6.03901 14.6209 6.80566 14.4141L7.91602 14.124L8.32324 13.0518C8.5752 12.3838 8.92676 11.7598 9.36914 11.1943C9.80587 10.6339 10.3232 10.1413 10.9043 9.73242C12.1084 8.88574 13.5264 8.4375 15.0059 8.4375C16.4854 8.4375 17.9033 8.88574 19.1074 9.73242C19.6904 10.1426 20.2061 10.6348 20.6426 11.1943C21.085 11.7598 21.4365 12.3867 21.6885 13.0518L22.0928 14.1211L23.2002 14.4141C24.791 14.8389 25.8984 16.2832 25.8984 17.9297C25.8984 18.8994 25.5205 19.8135 24.835 20.499Z" fill="#1890FF"/>
</svg>
