<svg width="30" height="30" viewBox="0 0 30 30" fill="none" xmlns="http://www.w3.org/2000/svg">
<path d="M25.1748 16.6914L25.1807 16.6943C25.2715 16.1406 25.3154 15.5752 25.3154 15.0156C25.3154 14.5146 25.2773 14.0107 25.207 13.5186C25.2773 14.0078 25.3125 14.5029 25.3125 14.998C25.3125 15.5664 25.2656 16.1348 25.1748 16.6914ZM2.90039 11.6641C2.88574 11.6523 2.87402 11.6406 2.85938 11.626C2.87988 11.6465 2.90039 11.667 2.92383 11.6875L4.84277 13.3252V13.3223L2.90039 11.6641ZM18.6211 5.33594H18.624L18.1699 2.88086C18.1641 2.85156 18.1582 2.8252 18.1494 2.79883C18.1523 2.81348 18.1582 2.83105 18.1611 2.8457L18.6211 5.33594ZM20.2031 21.3467L21.123 20.5908L23.8418 21.5547C24.3398 20.8838 24.7588 20.1631 25.0898 19.3984L22.9014 17.5264L23.0947 16.3516C23.168 15.9092 23.2061 15.4551 23.2061 15.001C23.2061 14.5469 23.168 14.0928 23.0947 13.6504L22.9043 12.4814L25.0928 10.6094C24.7588 9.84766 24.3428 9.12402 23.8447 8.45312L21.126 9.41699L20.2061 8.66113C19.5059 8.08691 18.7236 7.63574 17.8828 7.31934L16.7666 6.90039L16.2422 4.05859C15.4148 3.96484 14.5794 3.96484 13.752 4.05859L13.2275 6.90625L12.1172 7.3252C11.2822 7.6416 10.5059 8.09277 9.81152 8.66406L8.8916 9.42285L6.15527 8.4502C5.65723 9.12109 5.23828 9.8418 4.90723 10.6064L7.11914 12.4961L6.92871 13.668C6.85547 14.1045 6.82031 14.5527 6.82031 15.001C6.82031 15.4463 6.8584 15.8975 6.92871 16.334L7.11914 17.5059L4.90723 19.3955C5.24121 20.1572 5.65723 20.8809 6.15527 21.5518L8.8916 20.5791L9.81152 21.3379C10.5059 21.9092 11.2822 22.3603 12.1172 22.6768L13.2246 23.1016L13.749 25.9492C14.5752 26.043 15.416 26.043 16.2393 25.9492L16.7637 23.1074L17.8799 22.6885C18.7236 22.3721 19.5029 21.9209 20.2031 21.3467ZM15.0146 19.873C14.1211 19.873 13.2803 19.6445 12.5449 19.2432C10.9365 18.3701 9.84375 16.668 9.84375 14.708C9.84375 11.8604 12.1523 9.55176 15 9.55176C16.96 9.55176 18.6621 10.6445 19.5352 12.2529C19.9365 12.9854 20.165 13.8262 20.165 14.7227C20.165 17.5674 17.8594 19.873 15.0146 19.873ZM6.07031 23.8135C5.90918 23.8691 5.74219 23.8809 5.58398 23.8486C5.75098 23.8838 5.92676 23.8779 6.09668 23.8193L8.48145 22.9697C8.47852 22.9668 8.47266 22.9639 8.46973 22.9609L6.07031 23.8135ZM27.0938 11.6641L25.1748 13.3047C25.1748 13.3105 25.1777 13.3193 25.1777 13.3252L27.0938 11.6875C27.3018 11.5088 27.4189 11.251 27.4219 10.9844C27.4131 11.2422 27.2959 11.4912 27.0938 11.6641Z" fill="#E6F7FF"/>
<path d="M27.4159 18.9443C27.4306 19.082 27.4159 19.2227 27.3661 19.3574L27.3398 19.4336C26.8101 20.9095 26.0192 22.278 25.0048 23.4736L24.9521 23.5352C24.8292 23.6804 24.665 23.7849 24.4813 23.8346C24.2976 23.8843 24.1031 23.8769 23.9237 23.8135L21.5419 22.9668C20.6681 23.6867 19.6811 24.2569 18.621 24.6543L18.1611 27.1445C18.1264 27.3319 18.0355 27.5043 17.9005 27.6388C17.7654 27.7733 17.5927 27.8635 17.4052 27.8975L17.3261 27.9121C16.5604 28.0505 15.7839 28.1201 15.0058 28.1201H15.0146C15.7968 28.1201 16.579 28.0498 17.3407 27.9121L17.4198 27.8975C17.6074 27.8635 17.7801 27.7733 17.9151 27.6388C18.0501 27.5043 18.141 27.3319 18.1757 27.1445L18.6357 24.6572C19.6962 24.2588 20.6747 23.6934 21.5536 22.9727L23.9325 23.8193C24.1119 23.8828 24.3064 23.8901 24.4901 23.8404C24.6737 23.7907 24.8379 23.6863 24.9608 23.541L25.0136 23.4795C26.0331 22.2754 26.8153 20.9189 27.3456 19.4453L27.372 19.3691C27.4189 19.2314 27.4335 19.085 27.4159 18.9443Z" fill="#E6F7FF"/>
<path d="M20.1563 14.7075C20.1563 13.8198 19.9307 12.9819 19.5352 12.2524C18.6621 10.644 16.96 9.55127 15 9.55127C12.1524 9.55127 9.84376 11.8599 9.84376 14.7075C9.84376 16.6675 10.9365 18.3696 12.5449 19.2427C13.2744 19.6382 14.1094 19.8638 15 19.8638C17.8477 19.8638 20.1563 17.5552 20.1563 14.7075ZM11.7188 14.7075C11.7188 13.8315 12.0615 13.0083 12.6797 12.3872C13.3008 11.7661 14.124 11.4263 15 11.4263C15.876 11.4263 16.6992 11.7661 17.3203 12.3872C17.6255 12.6915 17.8676 13.0532 18.0325 13.4514C18.1974 13.8496 18.2819 14.2765 18.2813 14.7075C18.2813 15.5835 17.9385 16.4067 17.3203 17.0278C17.016 17.333 16.6543 17.5751 16.2561 17.74C15.8579 17.9049 15.431 17.9894 15 17.9888C14.124 17.9888 13.3008 17.646 12.6797 17.0278C12.3745 16.7235 12.1325 16.3618 11.9676 15.9636C11.8026 15.5654 11.7181 15.1385 11.7188 14.7075Z" fill="#1890FF"/>
<path d="M17.4053 27.897C17.5928 27.863 17.7655 27.7728 17.9005 27.6383C18.0355 27.5038 18.1264 27.3314 18.1611 27.1441L18.6211 24.6538C19.6812 24.2564 20.6682 23.6862 21.542 22.9663L23.9238 23.813C24.1032 23.8765 24.2977 23.8838 24.4814 23.8341C24.665 23.7844 24.8292 23.68 24.9522 23.5347L25.0049 23.4732C26.0244 22.2691 26.8096 20.9097 27.3398 19.4331L27.3662 19.3569C27.416 19.2222 27.4307 19.0816 27.416 18.9439C27.3897 18.7124 27.2783 18.4927 27.0938 18.3316L25.1807 16.6939L25.1748 16.6909C25.2656 16.1343 25.3125 15.5659 25.3125 14.9976C25.3125 14.5025 25.2773 14.0044 25.207 13.5181C25.1982 13.4536 25.1865 13.3892 25.1777 13.3247C25.1777 13.3189 25.1748 13.3101 25.1748 13.3042L27.0938 11.6636C27.2959 11.4907 27.4131 11.2417 27.4219 10.9839C27.4248 10.8667 27.4072 10.7466 27.3662 10.6323L27.3398 10.5562C26.8116 9.07967 26.0205 7.71095 25.0049 6.51612L24.9522 6.45459C24.8289 6.30973 24.6647 6.20559 24.4812 6.1559C24.2976 6.10622 24.1033 6.11332 23.9238 6.17627L21.542 7.02295C20.6631 6.30225 19.6846 5.73389 18.624 5.33545H18.6211L18.1611 2.84522C18.1582 2.83057 18.1553 2.81299 18.1494 2.79834C18.1071 2.62121 18.0143 2.46018 17.8822 2.33484C17.7501 2.20949 17.5844 2.12523 17.4053 2.09229L17.3262 2.07764C15.7998 1.80225 14.1943 1.80225 12.668 2.07764L12.5889 2.09229C12.4014 2.12626 12.2286 2.21648 12.0936 2.35097C11.9586 2.48546 11.8677 2.65784 11.833 2.84522L11.3701 5.34717C10.318 5.74569 9.33829 6.31375 8.46973 7.02881L6.07032 6.17627C5.89092 6.11282 5.69646 6.10546 5.51278 6.15518C5.32911 6.20489 5.1649 6.30932 5.042 6.45459L4.98926 6.51612C3.97485 7.71179 3.18392 9.08029 2.6543 10.5562L2.62794 10.6323C2.56688 10.8026 2.55625 10.9869 2.5973 11.163C2.63835 11.3392 2.72935 11.4998 2.85938 11.6255C2.87403 11.6372 2.88575 11.6519 2.9004 11.6636L4.84278 13.3218V13.3247C4.75196 13.8755 4.70801 14.4351 4.70801 14.9946C4.70801 15.5571 4.75196 16.1196 4.84278 16.6675L2.9004 18.3257C2.75566 18.4496 2.65207 18.6146 2.6034 18.7988C2.55473 18.9831 2.56329 19.1777 2.62794 19.3569L2.6543 19.4331C3.18458 20.9097 3.96973 22.272 4.98926 23.4732L5.042 23.5347C5.18555 23.7017 5.37598 23.8101 5.58399 23.8482C5.74219 23.8775 5.90919 23.8687 6.07032 23.813L8.46973 22.9605C8.47266 22.9634 8.47852 22.9663 8.48145 22.9693C9.35157 23.6812 10.3213 24.2466 11.3701 24.6421L11.833 27.1441C11.8677 27.3314 11.9586 27.5038 12.0936 27.6383C12.2286 27.7728 12.4014 27.863 12.5889 27.897L12.668 27.9116C13.4326 28.0493 14.2148 28.1197 14.9971 28.1197H15.0059C15.7852 28.1197 16.5674 28.0493 17.3262 27.9116L17.4053 27.897ZM16.2393 25.9488C15.4118 26.0425 14.5765 26.0425 13.749 25.9488L13.2246 23.1011L12.1172 22.6763C11.2822 22.3599 10.5059 21.9087 9.81153 21.3374L8.89161 20.5786L6.15528 21.5513C5.65723 20.8804 5.24122 20.1568 4.90723 19.395L7.11915 17.5054L6.92872 16.3335C6.8584 15.897 6.82032 15.4458 6.82032 15.0005C6.82032 14.5523 6.85547 14.104 6.92872 13.6675L7.11915 12.4956L4.90723 10.606C5.23829 9.84131 5.65723 9.12061 6.15528 8.44971L8.89161 9.42237L9.81153 8.66358C10.5059 8.09229 11.2822 7.64112 12.1172 7.32471L13.2275 6.90577L13.752 4.05811C14.5752 3.96436 15.416 3.96436 16.2422 4.05811L16.7666 6.89991L17.8828 7.31885C18.7236 7.63526 19.5059 8.08643 20.2061 8.66065L21.126 9.41651L23.8447 8.45264C24.3428 9.12354 24.7588 9.84718 25.0928 10.6089L22.9043 12.481L23.0947 13.6499C23.168 14.0923 23.2061 14.5464 23.2061 15.0005C23.2061 15.4546 23.168 15.9087 23.0947 16.3511L22.9014 17.5259L25.0898 19.398C24.7581 20.1623 24.3393 20.8858 23.8418 21.5542L21.1231 20.5903L20.2031 21.3462C19.5029 21.9204 18.7236 22.3716 17.8799 22.688L16.7637 23.107L16.2393 25.9488Z" fill="#1890FF"/>
</svg>
