<svg width="34" height="34" viewBox="0 0 34 34" fill="none" xmlns="http://www.w3.org/2000/svg">
<g clip-path="url(#clip0_7210_18636)">
<path d="M29.9929 27.9627C30.0004 27.9513 30.0118 27.94 30.0194 27.9286C32.5049 24.9725 34 21.1627 34 17C34 12.8373 32.5049 9.02746 30.0232 6.07143C30.0156 6.06004 30.0042 6.05246 29.9967 6.04107C29.9549 5.99174 29.917 5.94621 29.8752 5.90067C29.86 5.8817 29.8449 5.86652 29.8297 5.84755L29.6741 5.6692L29.6703 5.6654C29.6134 5.60089 29.5527 5.53638 29.4958 5.47188L29.492 5.46808C29.3705 5.33906 29.2491 5.21004 29.1239 5.08482L29.1201 5.08103L28.9379 4.89888L28.9266 4.8875C28.8696 4.83058 28.8127 4.77746 28.7558 4.72433C28.7368 4.70536 28.7179 4.68638 28.6951 4.66741C28.6571 4.62946 28.6192 4.59531 28.5813 4.56116C28.5699 4.54978 28.5547 4.53839 28.5433 4.52321C25.5152 1.71518 21.4587 0 17 0C12.5413 0 8.48482 1.71518 5.4529 4.52321C5.44152 4.5346 5.42634 4.54598 5.41496 4.56116C5.37701 4.59531 5.33906 4.63326 5.30112 4.67121C5.28214 4.69018 5.26317 4.70915 5.2404 4.72813C5.18348 4.78125 5.12656 4.83817 5.06964 4.89129L5.05826 4.90268L4.87612 5.08482L4.87232 5.08862C4.7471 5.21384 4.62567 5.34286 4.50424 5.47188L4.50045 5.47567C4.43973 5.54018 4.38281 5.60469 4.32589 5.6692L4.3221 5.67299C4.26897 5.72991 4.21585 5.79063 4.16652 5.85134C4.15134 5.87031 4.13616 5.88549 4.12098 5.90446C4.07924 5.95 4.04129 5.99933 3.99955 6.04487C3.99196 6.05625 3.98058 6.06384 3.97299 6.07522C1.49509 9.02746 0 12.8373 0 17C0 21.1627 1.49509 24.9725 3.97679 27.9286C3.98438 27.94 3.99576 27.9513 4.00335 27.9627L4.12098 28.1031C4.13616 28.1221 4.15134 28.1373 4.16652 28.1562L4.3221 28.3346C4.3221 28.3384 4.32589 28.3384 4.32589 28.3422C4.38281 28.4067 4.43973 28.4712 4.50045 28.5319L4.50424 28.5357C4.62567 28.6647 4.7471 28.7937 4.86853 28.919L4.87232 28.9228C4.93304 28.9835 4.98996 29.0442 5.05067 29.1011L5.06205 29.1125C5.18728 29.2377 5.31629 29.3592 5.44531 29.4768C8.48482 32.2848 12.5413 34 17 34C21.4587 34 25.5152 32.2848 28.5471 29.4768C28.6764 29.3583 28.8029 29.2368 28.9266 29.1125L28.9379 29.1011C28.9987 29.0404 29.0594 28.9835 29.1163 28.9228L29.1201 28.919C29.2453 28.7937 29.3667 28.6647 29.4844 28.5357L29.4882 28.5319C29.5451 28.4674 29.6058 28.4067 29.6627 28.3422C29.6627 28.3384 29.6665 28.3384 29.6665 28.3346C29.7196 28.2777 29.7728 28.217 29.8221 28.1562C29.8373 28.1373 29.8525 28.1221 29.8676 28.1031C29.9105 28.0574 29.9523 28.0106 29.9929 27.9627ZM30.1484 22.5516C29.6248 23.7886 28.9342 24.9346 28.0917 25.9743C27.143 25.1544 26.1057 24.4429 24.9991 23.8531C25.4393 22.0734 25.7125 20.1192 25.7846 18.0625H31.2299C31.1161 19.6145 30.7518 21.121 30.1484 22.5516ZM31.2299 15.9375H25.7846C25.7125 13.8808 25.4393 11.9266 24.9991 10.1469C26.1109 9.55491 27.1469 8.84152 28.0917 8.02567C29.9229 10.2796 31.0183 13.0412 31.2299 15.9375ZM22.5516 3.85156C24.058 4.48906 25.4279 5.36942 26.6346 6.47746C25.9336 7.07433 25.1791 7.60529 24.3806 8.06362C23.7848 6.35603 23.0221 4.87232 22.1342 3.6846C22.2746 3.73772 22.415 3.79464 22.5516 3.85156ZM19.1136 30.4368C18.7645 30.71 18.4154 30.9188 18.0625 31.0592V24.0201C19.5682 24.1251 21.0489 24.4604 22.4529 25.0143C22.1379 25.9478 21.7737 26.8092 21.3525 27.5871C20.6922 28.8165 19.9181 29.7993 19.1136 30.4368ZM21.3525 6.41295C21.7699 7.19464 22.1379 8.05603 22.4529 8.98571C21.0489 9.53957 19.5682 9.87486 18.0625 9.97991V2.94464C18.4116 3.08504 18.7645 3.28996 19.1136 3.56696C19.9181 4.20067 20.6922 5.18348 21.3525 6.41295ZM18.0625 21.8913V18.0625H23.6596C23.5989 19.7397 23.3902 21.3676 23.0411 22.9121L23.0297 22.9576C21.4372 22.3537 19.7625 21.9942 18.0625 21.8913ZM18.0625 15.9375V12.1087C19.8004 12.0025 21.4701 11.6344 23.0297 11.0424L23.0411 11.0879C23.3902 12.6324 23.5989 14.2565 23.6596 15.9375H18.0625ZM15.9375 18.0625V21.8913C14.1996 21.9975 12.5299 22.3656 10.9703 22.9576L10.9589 22.9121C10.6098 21.3676 10.4011 19.7435 10.3404 18.0625H15.9375ZM10.3404 15.9375C10.4011 14.2603 10.6098 12.6324 10.9589 11.0879L10.9703 11.0424C12.5299 11.6344 14.1958 12.0025 15.9375 12.1087V15.9375H10.3404ZM15.9375 24.0201V31.0554C15.5884 30.915 15.2355 30.71 14.8864 30.433C14.0819 29.7993 13.304 28.8127 12.6438 27.5833C12.2263 26.8016 11.8583 25.9402 11.5433 25.0105C12.9549 24.4565 14.4234 24.1263 15.9375 24.0201ZM15.9375 9.97991C14.4318 9.87486 12.9511 9.53957 11.5471 8.98571C11.8621 8.05223 12.2263 7.19085 12.6475 6.41295C13.3078 5.18348 14.0819 4.19687 14.8902 3.56317C15.2393 3.28996 15.5884 3.08125 15.9413 2.94085V9.97991H15.9375ZM11.4484 3.85156C11.5888 3.79464 11.7254 3.73772 11.8658 3.6846C10.9779 4.87232 10.2152 6.35603 9.61942 8.06362C8.82255 7.60826 8.06741 7.07701 7.3654 6.47746C8.5721 5.36942 9.94197 4.48906 11.4484 3.85156ZM3.85156 11.4484C4.37522 10.2114 5.06585 9.0654 5.90826 8.02567C6.85313 8.84152 7.88906 9.55491 9.00089 10.1469C8.56071 11.9266 8.2875 13.8808 8.2154 15.9375H2.77009C2.88393 14.3855 3.24821 12.879 3.85156 11.4484ZM2.77009 18.0625H8.2154C8.2875 20.1192 8.56071 22.0734 9.00089 23.8531C7.8943 24.4429 6.857 25.1544 5.90826 25.9743C4.07708 23.7204 2.98171 20.9588 2.77009 18.0625ZM11.4484 30.1484C9.94197 29.5109 8.5721 28.6306 7.3654 27.5225C8.06741 26.923 8.82255 26.3955 9.61942 25.9364C10.2152 27.644 10.9779 29.1277 11.8658 30.3154C11.7254 30.2623 11.585 30.2054 11.4484 30.1484ZM22.5516 30.1484C22.4112 30.2054 22.2746 30.2623 22.1342 30.3154C23.0221 29.1277 23.7848 27.644 24.3806 25.9364C25.1775 26.3917 25.9326 26.923 26.6346 27.5225C25.4346 28.626 24.0534 29.5143 22.5516 30.1484Z" fill="#FF4F4F"/>
</g>
<defs>
<clipPath id="clip0_7210_18636">
<rect width="34" height="34" fill="white"/>
</clipPath>
</defs>
</svg>
