<svg width="40" height="40" viewBox="0 0 40 40" fill="none" xmlns="http://www.w3.org/2000/svg">
<path d="M30.6834 30.1504L25.9834 34.8504" stroke="#FF4F4F" stroke-width="2.5" stroke-linecap="round" stroke-linejoin="round"/>
<path d="M30.6834 34.8504L25.9834 30.1504" stroke="#FF4F4F" stroke-width="2.5" stroke-linecap="round" stroke-linejoin="round"/>
<path d="M20.2663 18.1163C20.0996 18.0997 19.8996 18.0997 19.7163 18.1163C15.7496 17.983 12.5996 14.733 12.5996 10.733C12.5996 6.64967 15.8996 3.33301 19.9996 3.33301C24.0829 3.33301 27.3996 6.64967 27.3996 10.733C27.3829 14.733 24.2329 17.983 20.2663 18.1163Z" stroke="#FF4F4F" stroke-width="2.5" stroke-linecap="round" stroke-linejoin="round"/>
<path d="M20 36.3501C16.9667 36.3501 13.95 35.5835 11.65 34.0501C7.61667 31.3501 7.61667 26.9501 11.65 24.2668C16.2333 21.2001 23.75 21.2001 28.3333 24.2668" stroke="#FF4F4F" stroke-width="2.5" stroke-linecap="round" stroke-linejoin="round"/>
</svg>
