<svg width="28" height="28" viewBox="0 0 28 28" fill="none" xmlns="http://www.w3.org/2000/svg">
<path d="M21.1997 6.80588C20.2683 5.8713 19.1628 5.12815 17.9458 4.61838C16.6975 4.09393 15.3568 3.82522 14.0028 3.82815H13.9563C11.2302 3.83909 8.67899 4.90549 6.7704 6.83323C4.85907 8.76096 3.81727 11.3203 3.82821 14.0465C3.83641 15.6953 4.24657 17.3332 5.01766 18.7797L5.14071 19.0094V22.8594H8.99071L9.2204 22.9824C10.6669 23.7535 12.3048 24.1637 13.9536 24.1719H14.0001C16.7071 24.1719 19.2501 23.1274 21.1669 21.2297C23.0919 19.3211 24.161 16.7699 24.1774 14.0465C24.1829 12.6629 23.9177 11.3231 23.3872 10.0598C22.8771 8.84294 22.134 7.73757 21.1997 6.80588ZM8.53133 15.3125C8.18788 15.3055 7.86085 15.1642 7.62043 14.9188C7.38001 14.6734 7.24535 14.3436 7.24535 14C7.24535 13.6565 7.38001 13.3267 7.62043 13.0813C7.86085 12.8359 8.18788 12.6945 8.53133 12.6875C8.87479 12.6945 9.20182 12.8359 9.44224 13.0813C9.68266 13.3267 9.81732 13.6565 9.81732 14C9.81732 14.3436 9.68266 14.6734 9.44224 14.9188C9.20182 15.1642 8.87479 15.3055 8.53133 15.3125ZM14.0001 15.3125C13.6566 15.3055 13.3296 15.1642 13.0892 14.9188C12.8488 14.6734 12.7141 14.3436 12.7141 14C12.7141 13.6565 12.8488 13.3267 13.0892 13.0813C13.3296 12.8359 13.6566 12.6945 14.0001 12.6875C14.3435 12.6945 14.6706 12.8359 14.911 13.0813C15.1514 13.3267 15.2861 13.6565 15.2861 14C15.2861 14.3436 15.1514 14.6734 14.911 14.9188C14.6706 15.1642 14.3435 15.3055 14.0001 15.3125ZM19.4688 15.3125C19.1254 15.3055 18.7984 15.1642 18.5579 14.9188C18.3175 14.6734 18.1829 14.3436 18.1829 14C18.1829 13.6565 18.3175 13.3267 18.5579 13.0813C18.7984 12.8359 19.1254 12.6945 19.4688 12.6875C19.8123 12.6945 20.1393 12.8359 20.3797 13.0813C20.6202 13.3267 20.7548 13.6565 20.7548 14C20.7548 14.3436 20.6202 14.6734 20.3797 14.9188C20.1393 15.1642 19.8123 15.3055 19.4688 15.3125Z" fill="#ECFDF5"/>
<path d="M18.1563 14C18.1563 14.3481 18.2945 14.6819 18.5407 14.9281C18.7868 15.1742 19.1207 15.3125 19.4688 15.3125C19.8169 15.3125 20.1507 15.1742 20.3968 14.9281C20.643 14.6819 20.7813 14.3481 20.7813 14C20.7813 13.6519 20.643 13.3181 20.3968 13.0719C20.1507 12.8258 19.8169 12.6875 19.4688 12.6875C19.1207 12.6875 18.7868 12.8258 18.5407 13.0719C18.2945 13.3181 18.1563 13.6519 18.1563 14ZM7.21876 14C7.21876 14.3481 7.35705 14.6819 7.60319 14.9281C7.84933 15.1742 8.18317 15.3125 8.53126 15.3125C8.87936 15.3125 9.2132 15.1742 9.45934 14.9281C9.70548 14.6819 9.84377 14.3481 9.84377 14C9.84377 13.6519 9.70548 13.3181 9.45934 13.0719C9.2132 12.8258 8.87936 12.6875 8.53126 12.6875C8.18317 12.6875 7.84933 12.8258 7.60319 13.0719C7.35705 13.3181 7.21876 13.6519 7.21876 14Z" fill="#43B75D"/>
<path d="M25.2986 9.25312C24.6806 7.78477 23.7947 6.4668 22.6654 5.33477C21.544 4.20929 20.2127 3.31467 18.747 2.70156C17.2431 2.06992 15.6463 1.75 14.0002 1.75H13.9455C12.2884 1.7582 10.6834 2.08633 9.17398 2.73164C7.72082 3.35103 6.40205 4.24724 5.29117 5.37031C4.17281 6.49961 3.29508 7.81211 2.68805 9.275C2.05914 10.7898 1.74195 12.4004 1.75016 14.0574C1.75943 15.9564 2.20869 17.8273 3.06266 19.5234V23.6797C3.06266 24.0133 3.19517 24.3332 3.43106 24.5691C3.66695 24.805 3.98688 24.9375 4.32047 24.9375H8.47945C10.1756 25.7915 12.0465 26.2407 13.9455 26.25H14.0029C15.6408 26.25 17.2295 25.9328 18.7252 25.3121C20.1835 24.7063 21.5098 23.8221 22.6298 22.709C23.7591 21.5906 24.6478 20.2836 25.2685 18.8262C25.9138 17.3168 26.242 15.7117 26.2502 14.0547C26.2584 12.3895 25.9357 10.7734 25.2986 9.25312ZM21.167 21.2297C19.2502 23.1273 16.7072 24.1719 14.0002 24.1719H13.9537C12.3048 24.1637 10.667 23.7535 9.22047 22.9824L8.99078 22.8594H5.14078V19.0094L5.01773 18.7797C4.24664 17.3332 3.83648 15.6953 3.82828 14.0465C3.81734 11.3203 4.85914 8.76094 6.77047 6.8332C8.67906 4.90547 11.2302 3.83906 13.9564 3.82812H14.0029C15.3701 3.82812 16.6963 4.09336 17.9459 4.61836C19.1654 5.12969 20.2591 5.86523 21.1998 6.80586C22.1377 7.74375 22.8759 8.84023 23.3873 10.0598C23.9177 11.323 24.183 12.6629 24.1775 14.0465C24.1611 16.7699 23.092 19.3211 21.167 21.2297Z" fill="#43B75D"/>
<path d="M12.6875 14C12.6875 14.3481 12.8258 14.6819 13.0719 14.9281C13.3181 15.1742 13.6519 15.3125 14 15.3125C14.3481 15.3125 14.6819 15.1742 14.9281 14.9281C15.1742 14.6819 15.3125 14.3481 15.3125 14C15.3125 13.6519 15.1742 13.3181 14.9281 13.0719C14.6819 12.8258 14.3481 12.6875 14 12.6875C13.6519 12.6875 13.3181 12.8258 13.0719 13.0719C12.8258 13.3181 12.6875 13.6519 12.6875 14Z" fill="#43B75D"/>
</svg>
