<svg width="30" height="30" viewBox="0 0 30 30" fill="none" xmlns="http://www.w3.org/2000/svg">
<path d="M6.79688 20.6836H10.957C11.6045 20.6836 12.1289 21.208 12.1289 21.8555V26.0156H19.4531V7.73438H6.79688V20.6836Z" fill="#FFEDED"/>
<path d="M24.375 1.875H8.67188C8.54297 1.875 8.4375 1.98047 8.4375 2.10938V3.75C8.4375 3.87891 8.54297 3.98438 8.67188 3.98438H23.2031V24.1406C23.2031 24.2695 23.3086 24.375 23.4375 24.375H25.0781C25.207 24.375 25.3125 24.2695 25.3125 24.1406V2.8125C25.3125 2.29395 24.8936 1.875 24.375 1.875Z" fill="#FF4F4F"/>
<path d="M20.625 5.625H5.625C5.10645 5.625 4.6875 6.04395 4.6875 6.5625V22.1104C4.6875 22.3594 4.78711 22.5967 4.96289 22.7725L10.04 27.8496C10.1045 27.9141 10.1777 27.9668 10.2568 28.0107V28.0664H10.3799C10.4824 28.1045 10.5908 28.125 10.7021 28.125H20.625C21.1436 28.125 21.5625 27.7061 21.5625 27.1875V6.5625C21.5625 6.04395 21.1436 5.625 20.625 5.625ZM10.2539 25.084L7.73145 22.5586H10.2539V25.084ZM19.4531 26.0156H12.1289V21.8555C12.1289 21.208 11.6045 20.6836 10.957 20.6836H6.79688V7.73438H19.4531V26.0156Z" fill="#FF4F4F"/>
</svg>
