<svg width="34" height="34" viewBox="0 0 34 34" fill="none" xmlns="http://www.w3.org/2000/svg">
<g clip-path="url(#clip0_7210_18640)">
<path d="M19.3153 13.5468C18.4387 13.5468 17.7595 14.226 17.7595 15.0646C17.7595 15.9033 18.4387 16.5825 19.3153 16.5825C20.116 16.5825 20.7952 15.9033 20.7952 15.0646C20.7952 14.226 20.116 13.5468 19.3153 13.5468ZM8.6903 13.5468C7.81373 13.5468 7.13449 14.226 7.13449 15.0646C7.13449 15.9033 7.81373 16.5825 8.6903 16.5825C9.49096 16.5825 10.1702 15.9033 10.1702 15.0646C10.1702 14.226 9.49096 13.5468 8.6903 13.5468Z" fill="#FF4F4F"/>
<path d="M31.495 10.6599C29.7394 8.24325 27.2079 6.50199 24.3232 5.72687V5.73066C23.6743 5.00968 22.9419 4.34561 22.1223 3.75365C15.9104 -0.761975 7.19034 0.615481 2.65574 6.82731C-0.998498 11.8742 -0.842917 18.6628 2.88342 23.4858L2.91378 28.5175C2.91378 28.6389 2.93275 28.7603 2.9707 28.8742C3.01843 29.0262 3.09567 29.1674 3.19801 29.2896C3.30034 29.4118 3.42576 29.5126 3.56709 29.5862C3.70842 29.6599 3.86289 29.705 4.02165 29.7189C4.18042 29.7328 4.34037 29.7152 4.49235 29.6673L9.29637 28.1532C10.5676 28.6048 11.8805 28.8628 13.1859 28.9349L13.1669 28.9501C16.5479 31.4128 20.9801 32.1528 25.0441 30.8095L29.8671 32.3804C29.9886 32.4184 30.1138 32.4412 30.2428 32.4412C30.9145 32.4412 31.4571 31.8985 31.4571 31.2269V26.142C34.8002 21.6037 34.8874 15.3311 31.495 10.6599ZM9.82762 25.459L9.37226 25.2693L5.61557 26.4456L5.57762 22.4992L5.27405 22.1577C2.06378 18.2416 1.85128 12.599 4.85664 8.45901C8.51467 3.44249 15.5272 2.33445 20.5285 5.95454C25.545 9.6012 26.6569 16.6023 23.033 21.5885C19.9935 25.7588 14.552 27.2994 9.82762 25.459ZM28.9906 24.8139L28.687 25.1934L28.7249 29.1398L25.0062 27.8876L24.5508 28.0773C22.4258 28.8666 20.1604 28.9311 18.062 28.3429L18.0544 28.3391C20.9385 27.4547 23.4577 25.6585 25.2339 23.2202C28.133 19.2244 28.6035 14.2041 26.9187 9.92374L26.9415 9.93892C27.8142 10.565 28.6149 11.3467 29.2941 12.2916C32.049 16.0711 31.8935 21.2166 28.9906 24.8139Z" fill="#FF4F4F"/>
<path d="M14.0028 13.5468C13.1262 13.5468 12.447 14.226 12.447 15.0646C12.447 15.9033 13.1262 16.5825 14.0028 16.5825C14.8035 16.5825 15.4827 15.9033 15.4827 15.0646C15.4827 14.226 14.8035 13.5468 14.0028 13.5468Z" fill="#FF4F4F"/>
</g>
<defs>
<clipPath id="clip0_7210_18640">
<rect width="34" height="34" fill="white"/>
</clipPath>
</defs>
</svg>
