<svg width="30" height="30" viewBox="0 0 30 30" fill="none" xmlns="http://www.w3.org/2000/svg">
<path d="M13.4969 13.2149C13.4969 13.8373 13.7442 14.4342 14.1842 14.8743C14.6243 15.3144 15.2212 15.5616 15.8436 15.5616C16.466 15.5616 17.0629 15.3144 17.503 14.8743C17.943 14.4342 18.1903 13.8373 18.1903 13.2149C18.1903 12.5925 17.943 11.9957 17.503 11.5556C17.0629 11.1155 16.466 10.8682 15.8436 10.8682C15.2212 10.8682 14.6243 11.1155 14.1842 11.5556C13.7442 11.9957 13.4969 12.5925 13.4969 13.2149Z" fill="#E6F7FF"/>
<path d="M6.26953 6.64062V19.168L15 25.9707L23.7305 19.168V6.64062L15 3.66406L6.26953 6.64062ZM18.8291 10.2295C20.4785 11.8789 20.4785 14.5508 18.8291 16.2002C17.4082 17.6211 15.2256 17.8174 13.5967 16.7891L11.3262 19.0596C11.2821 19.1032 11.2226 19.1277 11.1606 19.1277C11.0987 19.1277 11.0392 19.1032 10.9951 19.0596L9.99902 18.0635C9.95541 18.0194 9.93094 17.9599 9.93094 17.8979C9.93094 17.836 9.95541 17.7765 9.99902 17.7324L12.2695 15.4619C11.2412 13.8301 11.4375 11.6504 12.8584 10.2295C14.5078 8.58008 17.1797 8.58008 18.8291 10.2295Z" fill="#E6F7FF"/>
<path d="M25.3975 4.97754L15.4424 1.58496C15.3223 1.54395 15.1611 1.52344 15 1.52344C14.8389 1.52344 14.6777 1.54395 14.5576 1.58496L4.60254 4.97754C4.35938 5.05957 4.16016 5.34082 4.16016 5.59863V19.7314C4.16016 19.9893 4.32715 20.3291 4.5293 20.4902L14.6279 28.3594C14.7305 28.4385 14.8623 28.4795 14.9971 28.4795C15.1318 28.4795 15.2666 28.4385 15.3662 28.3594L25.4648 20.4902C25.667 20.332 25.834 19.9922 25.834 19.7314V5.59863C25.8398 5.34082 25.6406 5.0625 25.3975 4.97754ZM23.7305 19.1689L15 25.9717L6.26953 19.1689V6.6416L15 3.66504L23.7305 6.6416V19.1689Z" fill="#1890FF"/>
<path d="M12.2698 15.4628L9.99934 17.7333C9.95572 17.7774 9.93126 17.8369 9.93126 17.8989C9.93126 17.9608 9.95572 18.0203 9.99934 18.0644L10.9954 19.0605C11.0863 19.1513 11.2357 19.1513 11.3265 19.0605L13.597 16.79C15.2259 17.8183 17.4085 17.622 18.8294 16.2011C20.4788 14.5517 20.4788 11.8798 18.8294 10.2304C17.18 8.58098 14.5081 8.58098 12.8587 10.2304C11.4378 11.6513 11.2415 13.831 12.2698 15.4628ZM14.1859 11.5575C14.4038 11.3395 14.6625 11.1666 14.9473 11.0486C15.2321 10.9306 15.5373 10.8699 15.8455 10.8699C16.1538 10.8699 16.459 10.9306 16.7438 11.0486C17.0285 11.1666 17.2873 11.3395 17.5052 11.5575C17.7232 11.7755 17.8961 12.0342 18.0141 12.319C18.1321 12.6037 18.1928 12.909 18.1928 13.2172C18.1928 13.5255 18.1321 13.8307 18.0141 14.1155C17.8961 14.4002 17.7232 14.659 17.5052 14.8769C16.5882 15.7939 15.1029 15.7939 14.1859 14.8769C13.2689 13.9599 13.2689 12.4745 14.1859 11.5575Z" fill="#1890FF"/>
</svg>
