<svg width="34" height="34" viewBox="0 0 34 34" fill="none" xmlns="http://www.w3.org/2000/svg">
<g clip-path="url(#clip0_7210_18632)">
<path d="M33.8824 29.6461L31.5867 21.5597V3.95257C31.5867 3.28092 31.044 2.73828 30.3724 2.73828H3.65809C2.98644 2.73828 2.44381 3.28092 2.44381 3.95257V21.5597L0.148047 29.6461C-0.136551 30.4392 0.447824 31.274 1.29023 31.274H32.7402C33.5826 31.274 34.167 30.4392 33.8824 29.6461ZM5.17595 5.47042H28.8545V20.4593H5.17595V5.47042ZM13.8391 28.5419L14.1465 27.1378H19.8498L20.1572 28.5419H13.8391ZM22.3391 28.5419L21.6143 25.2519C21.584 25.1115 21.4588 25.0128 21.3184 25.0128H12.6818C12.5376 25.0128 12.4161 25.1115 12.3858 25.2519L11.661 28.5419H3.3014L4.90653 22.8878H29.1239L30.7291 28.5419H22.3391Z" fill="#FF4F4F"/>
</g>
<defs>
<clipPath id="clip0_7210_18632">
<rect width="34" height="34" fill="white"/>
</clipPath>
</defs>
</svg>
