<svg width="237" height="285" viewBox="0 0 237 285" fill="none" xmlns="http://www.w3.org/2000/svg">
<g clip-path="url(#clip0_32129_26807)">
<path d="M99.1946 0.616569C114.387 -0.188562 133.575 6.85083 139.33 22.4395C143.714 34.3153 139.179 41.1922 139.179 41.1922C139.179 41.1922 120.443 43.1858 115.867 55.9694C111.483 68.2155 122.796 120.851 109.771 135.784C99.6835 147.348 72.6423 153.336 58.052 149.45C43.462 145.564 30.4599 137.022 31.6634 111.034C32.6101 90.5924 53.5271 87.4099 58.3727 69.1687C61.0634 59.04 51.8912 45.3769 61.6881 23.9537C69.1617 7.61083 82.592 1.49656 99.1946 0.616569Z" fill="#F05E5E"/>
<path d="M68.4163 151.162C64.5119 151.162 60.9291 150.766 57.9162 149.963C49.0581 147.604 42.8978 144.079 38.5293 138.871C32.9905 132.269 30.5716 123.155 31.1342 111.009C31.6594 99.6672 38.3317 93.4287 44.7844 87.3954C50.1468 82.3817 55.6917 77.1973 57.8608 69.0316C58.8065 65.4715 58.2338 61.3894 57.5706 56.6629C56.3758 48.1462 54.8887 37.5468 61.2064 23.7319C64.8527 15.7581 69.9382 9.96635 76.7532 6.0259C82.8422 2.50594 90.1739 0.562799 99.1673 0.0860376C107.172 -0.339225 115.871 1.41704 123.034 4.90249C131.318 8.93292 137.125 14.9333 139.828 22.2554C144.254 34.2453 139.813 41.1945 139.622 41.4846C139.535 41.6171 139.393 41.7033 139.235 41.7201C139.051 41.7397 120.776 43.8307 116.367 56.1484C114.751 60.6615 115.323 70.9248 115.986 82.8088C117.075 102.348 118.431 126.664 110.171 136.133C105.428 141.57 96.5194 146.233 85.7291 148.926C79.7887 150.409 73.7978 151.162 68.4163 151.162ZM101.635 1.08309C100.824 1.08309 100.02 1.10433 99.2233 1.14627C80.6797 2.12926 68.906 9.44658 62.1711 24.1741C55.9827 37.7069 57.4456 48.1359 58.6213 56.5156C59.3004 61.3562 59.8869 65.5369 58.886 69.3045C56.6387 77.7649 50.9805 83.0552 45.5086 88.1713C38.9212 94.3305 32.6993 100.148 32.1939 111.058C30.9387 138.16 45.4269 145.538 58.1892 148.937C61.1236 149.718 64.6166 150.094 68.3962 150.094C82.7708 150.095 101.324 144.66 109.372 135.434C117.347 126.291 116.005 102.214 114.927 82.8675C114.258 70.8683 113.68 60.5056 115.368 55.7901C117.292 50.4156 122.02 46.0943 129.043 43.2934C133.656 41.4535 137.777 40.8348 138.855 40.6959C139.525 39.4889 142.654 32.973 138.833 22.6228C133.517 8.22522 116.545 1.08309 101.635 1.08309Z" fill="#F05E5E"/>
<path d="M191.815 264.444C214.637 263.052 219.225 230.886 197.792 223.086C193.456 200.475 196.336 174.904 189.565 151.291C183.779 124.299 150.142 86.2029 128.875 116.935C123.418 127.316 127.402 140.157 137.774 145.619C168.706 166.433 129.958 263.888 191.815 264.444Z" fill="white"/>
<path d="M191.815 264.978H191.81C175.256 264.829 164.356 257.755 158.49 243.351C153.342 230.713 152.604 214.1 151.891 198.034C150.896 175.639 149.958 154.486 137.501 146.078C126.906 140.481 122.825 127.305 128.405 116.691C128.415 116.672 128.426 116.653 128.439 116.635C134.755 107.507 142.824 103.628 151.773 105.418C159.803 107.023 168.392 113.149 175.959 122.668C182.824 131.306 188.102 141.957 190.08 151.164C193.949 164.668 194.681 178.875 195.389 192.614C195.931 203.141 196.444 213.09 198.257 222.695C203.27 224.589 207.182 227.941 209.584 232.406C211.792 236.511 212.622 241.435 211.921 246.273C211.221 251.103 209.033 255.579 205.759 258.877C202.129 262.534 197.319 264.643 191.848 264.976C191.837 264.977 191.826 264.977 191.815 264.977L191.815 264.978ZM129.329 117.214C124.039 127.313 127.934 139.84 138.021 145.152C138.038 145.161 138.054 145.17 138.07 145.181C150.993 153.877 151.944 175.303 152.952 197.987C154.383 230.235 155.865 263.58 191.802 263.916C203.297 263.205 209.662 254.468 210.871 246.12C212.084 237.748 208.454 227.533 197.611 223.587C197.435 223.524 197.307 223.372 197.271 223.189C195.398 213.421 194.879 203.341 194.329 192.668C193.624 178.983 192.895 164.832 189.055 151.439C189.052 151.428 189.049 151.416 189.046 151.404C185.087 132.934 168.217 109.788 151.565 106.459C142.951 104.737 135.47 108.355 129.329 117.214V117.214Z" fill="#222222"/>
<path d="M154.499 106.75C176.805 114.308 195.114 141.998 196.767 170.649C191.562 178.625 163.387 187.436 149.051 181.862C149.051 181.862 148.136 166.677 143.445 158.227" fill="#222222"/>
<path d="M160.145 184.157C155.8 184.157 151.949 183.559 148.858 182.357C148.665 182.282 148.533 182.101 148.521 181.894C148.512 181.743 147.558 166.73 142.981 158.484C142.839 158.228 142.931 157.905 143.187 157.762C143.443 157.62 143.766 157.712 143.908 157.968C148.268 165.821 149.389 179.123 149.557 181.486C155.876 183.81 165.795 183.568 176.197 180.823C185.681 178.321 193.685 174.19 196.226 170.501C194.51 141.943 176.522 114.773 154.328 107.253C154.05 107.159 153.902 106.857 153.996 106.579C154.089 106.302 154.391 106.153 154.668 106.247C165.567 109.94 175.919 118.552 183.819 130.496C191.705 142.419 196.491 156.667 197.296 170.618C197.303 170.732 197.273 170.844 197.21 170.939C194.606 174.93 186.464 179.212 176.468 181.85C170.648 183.386 165.077 184.157 160.145 184.157L160.145 184.157Z" fill="#222222"/>
<path d="M154.501 106.754C146.605 104.479 138.813 102.958 124.802 102.094L93.1895 99.0547C77.158 99.3847 54.1568 102.908 42.2871 114.224C26.5169 129.259 36.0448 173.712 42.2245 185.212C41.868 219.952 40.0504 239.834 35.6904 271.204L162.629 263.868C162.629 263.868 159.556 231.086 159.135 204.556C158.991 195.486 163.33 185.832 162.772 176.738C162.336 169.635 156.343 151.701 156.343 151.701" fill="#222222"/>
<path d="M35.6873 271.735C35.5395 271.735 35.3981 271.673 35.2973 271.564C35.1896 271.447 35.1398 271.288 35.1618 271.131C39.3727 240.832 41.3165 221.235 41.6895 185.342C38.5859 179.475 34.6787 165.551 33.4927 151.087C32.4791 138.725 33.1182 122.229 41.9179 113.839C56.1039 100.315 84.7375 98.6973 93.1754 98.5237C93.1956 98.5229 93.2166 98.5237 93.237 98.5261L124.85 101.566C139.212 102.45 146.901 104.012 154.645 106.244C154.927 106.325 155.089 106.619 155.008 106.901C154.927 107.183 154.633 107.346 154.352 107.264C146.676 105.052 139.05 103.505 124.766 102.624L93.1664 99.5864C84.7866 99.7613 56.5422 101.364 42.6501 114.609C36.0207 120.929 33.1444 133.853 34.5503 151C35.7329 165.422 39.626 179.261 42.6888 184.961C42.7312 185.039 42.753 185.128 42.7522 185.217C42.3872 220.778 40.3796 241.212 36.3019 270.637L162.047 263.37C161.647 258.962 158.988 228.946 158.602 204.565C158.532 200.178 159.507 195.609 160.45 191.191C161.471 186.404 162.527 181.454 162.239 176.771C161.813 169.819 155.897 152.049 155.837 151.87C155.745 151.592 155.894 151.291 156.172 151.198C156.45 151.105 156.751 151.255 156.844 151.533C157.089 152.268 162.863 169.615 163.298 176.706C163.595 181.534 162.523 186.556 161.487 191.412C160.557 195.773 159.595 200.281 159.663 204.548C160.078 230.753 163.123 263.491 163.154 263.819C163.167 263.962 163.122 264.105 163.028 264.214C162.934 264.324 162.8 264.39 162.656 264.398L35.7178 271.734C35.7077 271.735 35.6974 271.735 35.6873 271.735V271.735Z" fill="#222222"/>
<path d="M42.2854 114.227C38.6987 117.519 35.4773 121.556 32.8554 125.92C13.9574 153.831 -4.35486 195.56 3.20742 233.736C5.58899 243.281 9.70012 254.71 16.6833 262.076C21.2263 266.869 26.9845 269.942 34.2727 269.658C51.0512 269.172 60.6468 247.628 49.3442 234.873C41.9523 225.983 41.9729 208.408 49.4021 186.655C53.2596 175.36 58.2381 165.415 62.7013 157.908" fill="white"/>
<path d="M33.3458 270.207C26.9159 270.207 21.1827 267.598 16.2949 262.442C10.4629 256.29 5.88547 246.675 2.68925 233.864C-0.785238 216.327 0.868975 196.805 7.60043 175.816C14.4207 154.55 24.8522 136.791 32.4051 125.634C35.0915 121.165 38.3827 117.085 41.9235 113.835C42.1394 113.637 42.475 113.651 42.6731 113.867C42.8713 114.083 42.8567 114.419 42.6408 114.617C39.1705 117.803 35.943 121.806 33.3071 126.194C33.302 126.202 33.297 126.21 33.2917 126.218C21.4644 143.685 -5.09267 189.119 3.72485 233.632C6.87041 246.237 11.3606 255.693 17.0652 261.711C21.97 266.885 27.7518 269.381 34.249 269.127C41.8779 268.906 48.6369 264.088 51.8933 256.553C55.1187 249.09 53.9887 240.918 48.9444 235.225C41.42 226.176 41.4068 208.414 48.8971 186.483C53.1422 174.053 58.4975 163.935 62.2425 157.636C62.3924 157.384 62.7179 157.301 62.9696 157.451C63.2214 157.601 63.3041 157.927 63.1543 158.179C59.4349 164.435 54.1166 174.483 49.9012 186.827C42.5334 208.399 42.4779 225.788 49.7492 234.533C55.0591 240.525 56.2581 249.129 52.8674 256.975C49.4454 264.893 42.3254 269.956 34.2851 270.189C33.9708 270.201 33.6575 270.207 33.3463 270.207H33.3458Z" fill="#222222"/>
<path d="M42.2865 114.227C32.7167 122.461 11.2021 148.757 3.625 174.066C3.625 174.066 23.8679 194.537 47.086 194.164C47.086 194.164 53.3878 170.579 65.0933 154.652" fill="#222222"/>
<path d="M46.4692 194.7C34.5814 194.701 23.5643 189.289 16.3633 184.703C8.44163 179.658 3.29835 174.491 3.24715 174.439C3.11054 174.301 3.0604 174.099 3.11611 173.913C10.7208 148.512 32.1545 122.243 41.9397 113.824C42.162 113.632 42.4971 113.658 42.688 113.88C42.879 114.102 42.8538 114.438 42.6315 114.629C32.9673 122.944 11.8456 148.816 4.22466 173.912C5.286 174.943 10.0492 179.426 16.9541 183.82C24.0728 188.351 34.9833 193.701 46.6806 193.637C47.5658 190.491 53.8561 169.044 64.665 154.337C64.8385 154.101 65.1706 154.05 65.4067 154.224C65.6428 154.398 65.6935 154.73 65.5197 154.966C54.0068 170.631 47.6605 194.066 47.5976 194.301C47.5364 194.53 47.3308 194.691 47.0936 194.695C46.8857 194.698 46.6764 194.7 46.4687 194.7L46.4692 194.7Z" fill="#222222"/>
<path d="M191.811 264.448C193.081 264.431 194.403 264.328 195.776 264.13C264.35 254.24 231.143 144.985 204.359 104.981C188.847 81.8121 153.498 104.335 168.591 127.846C183.685 151.357 199.451 199.45 191.635 221.852" fill="white"/>
<path d="M191.813 264.973C191.523 264.973 191.286 264.74 191.282 264.449C191.279 264.156 191.513 263.915 191.806 263.911C193.068 263.895 194.379 263.79 195.703 263.599C212.299 261.205 223.929 252.761 230.27 238.5C239.586 217.55 235.618 189.177 230.649 169.065C224.883 145.728 214.641 121.284 203.921 105.271C196.02 93.4713 183.407 94.0158 175.031 99.5152C166.903 104.852 161.561 115.903 169.04 127.553C176.755 139.572 184.488 157.799 189.218 175.12C194.678 195.112 195.715 211.769 192.138 222.022C192.041 222.298 191.738 222.444 191.462 222.348C191.185 222.251 191.039 221.948 191.136 221.672C194.643 211.62 193.599 195.186 188.195 175.4C183.49 158.176 175.809 140.062 168.147 128.127C160.278 115.869 165.898 104.242 174.449 98.6275C179.217 95.4973 184.748 94.1801 190.025 94.9196C195.975 95.7532 201.085 99.1282 204.802 104.68C215.587 120.788 225.885 145.361 231.679 168.81C235.007 182.279 236.77 194.876 236.919 206.252C237.087 219.084 235.176 230.079 231.24 238.932C224.74 253.548 212.835 262.201 195.854 264.65C194.485 264.847 193.127 264.956 191.82 264.973H191.812H191.813Z" fill="#222222"/>
<path d="M173.346 109.81C164.973 98.1926 160.125 91.5357 152.013 80.6143C147.318 74.2946 137.188 80.2278 142.014 87.1122C147.258 94.5914 156.669 107.611 168.987 126.585" fill="white"/>
<path d="M168.988 127.11C168.814 127.11 168.644 127.025 168.543 126.869C158.236 110.992 149.951 99.2666 144.468 91.5078C143.399 89.9944 142.435 88.6297 141.581 87.4115C139.062 83.8196 140.352 80.4651 142.747 78.734C145.439 76.7882 149.751 76.673 152.439 80.2922C160.834 91.5941 165.807 98.4349 173.777 109.494C173.948 109.731 173.894 110.063 173.657 110.235C173.419 110.406 173.087 110.352 172.916 110.115C164.949 99.0603 159.979 92.2224 151.587 80.9259C149.304 77.8527 145.649 77.9464 143.368 79.5949C141.54 80.9163 140.202 83.5969 142.449 86.8018C143.303 88.0189 144.266 89.3826 145.335 90.8949C150.822 98.6603 159.114 110.396 169.432 126.29C169.592 126.536 169.522 126.865 169.277 127.025C169.187 127.083 169.087 127.11 168.988 127.11H168.988Z" fill="#222222"/>
<path d="M186.111 109.384C185.077 106.604 178.348 92.8781 174.731 92.3692C171.15 91.8654 160.98 92.8141 159.366 96.0432C158.028 98.7208 163.719 109.775 165.316 113.318C168.389 120.133 178.146 115.629 176.064 110.402C174.936 107.569 170.583 99.1347 170.583 99.1347" fill="white"/>
<path d="M170.426 117.296C168.257 117.296 166.053 116.234 164.836 113.537C164.6 113.012 164.27 112.316 163.889 111.51C160.727 104.834 157.738 98.1212 158.895 95.8057C160.763 92.067 171.568 91.3876 174.808 91.8434C179.104 92.4476 186.09 107.798 186.611 109.2C186.713 109.474 186.573 109.78 186.299 109.882C186.024 109.984 185.719 109.844 185.617 109.569C184.388 106.264 177.797 93.3361 174.661 92.8949C171.104 92.3945 161.293 93.3818 159.844 96.2806C158.821 98.3275 162.892 106.924 164.848 111.056C165.232 111.867 165.563 112.567 165.804 113.1C167.27 116.352 170.357 116.775 172.766 115.751C174.832 114.873 176.46 112.821 175.575 110.599C174.469 107.822 170.158 99.4623 170.115 99.3782C169.98 99.1178 170.083 98.7974 170.343 98.6628C170.603 98.5282 170.923 98.6301 171.058 98.8908C171.236 99.2362 175.436 107.38 176.561 110.205C177.698 113.061 175.721 115.648 173.181 116.728C172.328 117.09 171.38 117.296 170.426 117.296L170.426 117.296Z" fill="#222222"/>
<path d="M193.694 107.052C192.829 104.212 186.905 90.1185 183.261 89.437C179.654 88.7625 171.486 93.1173 169.629 96.2821C168.089 98.9067 175.927 110.67 177.871 114.036C180.748 119.017 189.66 114.38 187.279 109.281C185.988 106.517 181.612 98.7015 181.612 98.7015" fill="white"/>
<path d="M181.636 116.701C179.998 116.701 178.403 116.022 177.409 114.301C177.093 113.754 176.61 112.966 176.05 112.053C171.835 105.186 167.832 98.29 169.168 96.0121C171.081 92.7523 179.455 88.1832 183.355 88.9138C187.683 89.7229 193.762 105.464 194.198 106.896C194.283 107.177 194.125 107.473 193.845 107.559C193.565 107.644 193.268 107.486 193.183 107.206C192.156 103.831 186.32 90.5485 183.16 89.9576C179.741 89.3183 171.771 93.6737 170.083 96.5496C168.958 98.4684 174.561 107.599 176.954 111.498C177.518 112.417 178.005 113.211 178.327 113.769C179.643 116.046 182.368 115.974 184.343 114.943C186.276 113.934 187.868 111.802 186.795 109.504C185.527 106.79 181.189 99.0375 181.146 98.9595C181.002 98.7038 181.094 98.38 181.349 98.2369C181.605 98.0936 181.928 98.1849 182.071 98.4405C182.25 98.7604 186.471 106.305 187.756 109.055C189.125 111.985 187.201 114.65 184.834 115.885C183.863 116.391 182.739 116.7 181.635 116.7L181.636 116.701Z" fill="#222222"/>
<path d="M205.498 106.703C203.003 103.263 194.902 87.1473 191.235 86.5973C187.605 86.0529 179.917 90.8438 178.173 94.0737C176.727 96.7518 183.68 107.994 185.445 111.457C188.057 116.582 197.005 112.034 194.894 106.818C193.749 103.99 190.741 97.4641 190.741 97.4641" fill="white"/>
<path d="M189.146 114.245C187.486 114.245 185.894 113.521 184.968 111.704C184.635 111.052 184.106 110.102 183.494 109.003C179.752 102.283 176.493 96.0657 177.701 93.8274C179.559 90.386 187.462 85.5005 191.309 86.0781C193.993 86.4808 198.102 93.1945 202.802 101.266C204.114 103.519 205.247 105.466 205.922 106.397C206.095 106.634 206.042 106.966 205.805 107.138C205.567 107.31 205.236 107.258 205.064 107.02C204.357 106.046 203.212 104.079 201.885 101.8C198.768 96.4472 193.551 87.488 191.151 87.128C187.785 86.6223 180.277 91.2901 178.635 94.3317C177.603 96.2428 182.208 104.512 184.421 108.485C185.038 109.594 185.572 110.552 185.913 111.221C187.048 113.447 189.536 113.539 191.498 112.642C193.668 111.651 195.36 109.402 194.397 107.023C193.27 104.239 190.285 97.7574 190.255 97.6924C190.132 97.4262 190.248 97.1108 190.514 96.9879C190.78 96.865 191.096 96.9813 191.218 97.2475C191.249 97.3131 194.244 103.817 195.381 106.624C196.594 109.623 194.568 112.407 191.939 113.608C191.06 114.01 190.092 114.244 189.147 114.244L189.146 114.245Z" fill="#222222"/>
<path d="M178.896 146.709C175.992 145.917 168.15 141.103 165.748 138.726C163.346 136.35 153.524 123.336 151.58 120.646C146.933 114.216 155.796 107.217 160.792 114.001C163.309 117.421 171.86 127.697 171.86 127.697C175.079 124.001 182.966 123.087 187.292 126.629" fill="white"/>
<path d="M178.9 147.235C178.854 147.235 178.807 147.229 178.76 147.216C175.82 146.414 167.942 141.634 165.379 139.098C162.993 136.738 153.221 123.813 151.154 120.952C148.604 117.425 149.818 113.718 152.335 111.88C154.703 110.15 158.494 109.975 161.223 113.681C163.4 116.637 170.203 124.859 171.891 126.893C173.571 125.261 176.221 124.161 179.12 123.915C182.405 123.635 185.507 124.473 187.632 126.213C187.859 126.399 187.892 126.734 187.707 126.96C187.521 127.187 187.187 127.221 186.96 127.035C182.691 123.54 175.186 124.686 172.264 128.041C172.162 128.158 172.013 128.218 171.858 128.223C171.703 128.221 171.556 128.151 171.457 128.032C171.371 127.929 162.867 117.704 160.369 114.311C158.059 111.173 154.984 111.259 152.961 112.737C150.869 114.266 149.871 117.365 152.014 120.33C154.071 123.176 163.778 136.021 166.125 138.344C168.551 140.743 176.275 145.437 179.04 146.192C179.323 146.269 179.489 146.561 179.412 146.844C179.348 147.08 179.134 147.235 178.901 147.235H178.9Z" fill="#222222"/>
<path d="M177.523 244.383L171.142 240.566L180.55 224.814L186.932 228.631L177.523 244.383Z" fill="white"/>
<path d="M177.529 244.92C177.434 244.92 177.34 244.894 177.257 244.845L170.876 241.027C170.624 240.877 170.542 240.551 170.692 240.299L180.101 224.548C180.251 224.296 180.577 224.214 180.828 224.364L187.21 228.181C187.33 228.253 187.418 228.371 187.452 228.507C187.486 228.644 187.465 228.788 187.393 228.909L177.984 244.661C177.912 244.782 177.795 244.869 177.658 244.903C177.616 244.914 177.572 244.92 177.529 244.92ZM171.875 240.389L177.346 243.661L186.21 228.82L180.739 225.548L171.875 240.389Z" fill="#222222"/>
<path d="M158.82 280.406L148.298 274.112L171.96 234.497L182.482 240.79L158.82 280.406Z" fill="white"/>
<path d="M158.818 280.94C158.725 280.94 158.631 280.916 158.546 280.865L148.024 274.571C147.903 274.499 147.816 274.382 147.782 274.245C147.747 274.108 147.769 273.964 147.841 273.843L171.503 234.228C171.575 234.106 171.692 234.019 171.829 233.985C171.965 233.95 172.11 233.972 172.23 234.044L182.753 240.338C182.874 240.41 182.961 240.528 182.995 240.664C183.03 240.801 183.008 240.945 182.936 241.066L159.274 280.682C159.174 280.848 158.999 280.94 158.818 280.94ZM149.023 273.932L158.635 279.681L181.753 240.977L172.141 235.228L149.023 273.932Z" fill="#222222"/>
<path d="M219.195 224.669C231.024 212.831 231.024 193.638 219.195 181.8C207.365 169.962 188.186 169.962 176.357 181.8C164.527 193.638 164.527 212.831 176.357 224.669C188.186 236.507 207.365 236.507 219.195 224.669Z" fill="white"/>
<path d="M197.722 234.092C192.222 234.092 186.806 232.607 181.963 229.71C167.375 220.984 162.6 202.009 171.32 187.411C180.039 172.813 199.001 168.035 213.589 176.76C220.656 180.987 225.655 187.715 227.665 195.704C229.675 203.694 228.456 211.988 224.232 219.06C220.008 226.131 213.285 231.134 205.301 233.145C202.79 233.778 200.246 234.091 197.721 234.091L197.722 234.092ZM197.825 173.46C187.689 173.46 177.798 178.634 172.23 187.955C163.811 202.052 168.421 220.374 182.507 228.799C189.33 232.881 197.334 234.058 205.043 232.116C212.751 230.174 219.243 225.344 223.321 218.515C227.4 211.687 228.577 203.678 226.636 195.964C224.695 188.249 219.868 181.753 213.045 177.672C208.275 174.818 203.017 173.46 197.825 173.46Z" fill="#222222"/>
<path d="M197.776 227.149C210.972 227.149 221.669 216.444 221.669 203.238C221.669 190.033 210.972 179.328 197.776 179.328C184.58 179.328 173.883 190.033 173.883 203.238C173.883 216.444 184.58 227.149 197.776 227.149Z" fill="white"/>
<path d="M197.727 227.684C193.369 227.684 189.077 226.507 185.239 224.212C179.639 220.862 175.678 215.531 174.085 209.2C172.492 202.869 173.458 196.296 176.805 190.693C180.153 185.089 185.48 181.125 191.806 179.531C198.133 177.937 204.7 178.904 210.301 182.253C215.9 185.603 219.861 190.934 221.454 197.265C223.047 203.596 222.081 210.168 218.734 215.772C215.387 221.376 210.059 225.34 203.733 226.934C201.742 227.435 199.727 227.683 197.727 227.683V227.684ZM197.811 179.844C195.897 179.844 193.97 180.081 192.065 180.561C186.014 182.086 180.918 185.877 177.716 191.238C171.107 202.303 174.726 216.686 185.783 223.3C189.528 225.54 193.656 226.606 197.731 226.607C205.688 226.607 213.452 222.545 217.823 215.227C224.432 204.162 220.813 189.779 209.756 183.165C206.085 180.969 201.979 179.844 197.811 179.844Z" fill="#222222"/>
<path d="M16.6797 262.075C29.1993 276.344 42.5938 282.992 62.7857 283.472C92.2451 284.172 127.065 268.492 156.286 269.836C167.912 270.48 178.005 261.481 178.604 249.756C176.646 211.16 121.478 231.802 99.2853 235.33C82.9159 237.932 59.5181 244.944 49.3411 234.874" fill="white"/>
<path d="M64.6977 284.02C64.0523 284.02 63.4122 284.012 62.7724 283.997C52.6325 283.756 44.0808 281.932 36.6288 278.42C29.2873 274.959 22.8216 269.876 16.2804 262.421C16.087 262.2 16.1087 261.865 16.3289 261.671C16.5491 261.478 16.8844 261.499 17.0778 261.72C29.8897 276.322 43.1356 282.468 62.7978 282.936C77.1788 283.277 93.1469 279.629 108.588 276.099C124.694 272.418 141.348 268.614 156.31 269.3C161.815 269.607 167.117 267.729 171.244 264.017C175.36 260.315 177.784 255.25 178.072 249.751C177.671 241.948 174.983 236.115 170.084 232.414C157.281 222.743 131.685 228.655 112.996 232.972C107.697 234.196 103.12 235.253 99.368 235.849C96.5288 236.3 93.5088 236.879 90.3109 237.491C74.9654 240.43 57.5728 243.762 48.9675 235.246C48.7593 235.04 48.7574 234.704 48.9633 234.495C49.1691 234.287 49.5052 234.285 49.7135 234.491C57.9217 242.613 75.023 239.338 90.1115 236.448C93.3175 235.834 96.3458 235.254 99.2014 234.8C102.917 234.209 107.477 233.156 112.757 231.936C131.65 227.573 157.525 221.596 170.723 231.566C175.89 235.47 178.72 241.579 179.133 249.724C179.134 249.742 179.134 249.76 179.133 249.778C178.837 255.571 176.287 260.909 171.954 264.806C167.615 268.709 162.041 270.682 156.256 270.361C141.444 269.678 124.861 273.469 108.825 277.134C94.0032 280.521 78.6972 284.019 64.698 284.019L64.6977 284.02Z" fill="#222222"/>
<path d="M164.345 228.773C171.24 231.391 184.215 237.116 188.238 242.277C190.095 244.66 186.404 257.696 184.278 259.585C181.418 262.125 170.424 259.828 167.812 259.504C161.002 258.661 162.611 247.126 168.298 247.697C170.703 247.938 176.01 248.893 176.01 248.893L168.356 245.351" fill="white"/>
<path d="M179.005 261.299C175.75 261.299 171.967 260.693 169.437 260.287C168.711 260.171 168.138 260.079 167.752 260.031C163.894 259.553 162.514 255.964 162.865 252.832C163.207 249.778 165.202 246.851 168.357 247.168C169.346 247.268 170.799 247.482 172.183 247.703L168.139 245.832C167.873 245.709 167.757 245.394 167.88 245.128C168.003 244.861 168.318 244.746 168.585 244.869L176.239 248.41C176.481 248.522 176.602 248.797 176.522 249.052C176.441 249.307 176.185 249.463 175.922 249.415C175.869 249.405 170.608 248.461 168.252 248.225C165.784 247.976 164.204 250.415 163.92 252.95C163.616 255.668 164.723 258.586 167.883 258.977C168.287 259.027 168.869 259.12 169.606 259.239C173.222 259.819 181.692 261.177 183.932 259.187C186.009 257.342 189.379 244.597 187.825 242.603C184.27 238.042 172.857 232.57 164.163 229.27C163.889 229.166 163.751 228.859 163.855 228.585C163.959 228.311 164.265 228.173 164.539 228.277C167.733 229.489 183.904 235.846 188.662 241.95C189.994 243.66 188.833 249.02 188.272 251.246C187.411 254.663 185.906 258.854 184.637 259.982C183.526 260.969 181.409 261.299 179.006 261.299L179.005 261.299Z" fill="#222222"/>
<path d="M166.719 240.578C173.614 243.196 180.981 246.539 185.003 251.701C186.86 254.084 183.17 267.119 181.044 269.008C178.184 271.549 167.19 269.251 164.577 268.928C157.768 268.084 159.376 256.55 165.064 257.12C167.468 257.362 172.775 258.316 172.775 258.316L162.67 252.838" fill="white"/>
<path d="M175.763 270.723C172.507 270.723 168.725 270.116 166.195 269.71C165.469 269.594 164.896 269.502 164.51 269.454C160.652 268.976 159.272 265.388 159.623 262.256C159.965 259.202 161.961 256.276 165.115 256.592C166.285 256.709 168.107 256.989 169.691 257.249L162.415 253.305C162.158 253.165 162.062 252.843 162.202 252.585C162.341 252.327 162.663 252.232 162.921 252.371L173.026 257.849C173.255 257.974 173.36 258.246 173.274 258.492C173.188 258.738 172.935 258.885 172.68 258.839C172.627 258.829 167.365 257.885 165.009 257.649C162.541 257.399 160.961 259.838 160.677 262.374C160.373 265.092 161.481 268.009 164.64 268.401C165.045 268.451 165.626 268.544 166.363 268.662C169.98 269.242 178.45 270.6 180.69 268.611C182.766 266.766 186.137 254.021 184.583 252.027C180.585 246.897 173.213 243.612 166.529 241.074C166.255 240.97 166.117 240.664 166.221 240.389C166.325 240.115 166.632 239.978 166.906 240.081C173.726 242.67 181.26 246.037 185.42 251.374C186.752 253.083 185.591 258.444 185.03 260.669C184.168 264.086 182.663 268.278 181.394 269.405C180.283 270.392 178.167 270.723 175.763 270.723H175.763Z" fill="#222222"/>
<path d="M160.454 248.438C167.349 251.055 174.715 254.399 178.738 259.56C180.595 261.943 176.904 274.979 174.778 276.867C171.918 279.408 160.924 277.111 158.312 276.787C151.502 275.944 153.111 264.409 158.798 264.98C161.203 265.221 166.51 266.176 166.51 266.176L158.088 262.278" fill="white"/>
<path d="M169.497 278.582C166.242 278.582 162.459 277.976 159.93 277.57C159.203 277.454 158.63 277.362 158.244 277.314C154.386 276.836 153.007 273.247 153.357 270.115C153.699 267.061 155.695 264.137 158.849 264.451C159.838 264.551 161.292 264.766 162.675 264.987L157.864 262.76C157.598 262.637 157.482 262.322 157.605 262.056C157.728 261.789 158.043 261.674 158.309 261.797L166.731 265.694C166.973 265.806 167.094 266.081 167.014 266.335C166.934 266.59 166.677 266.745 166.414 266.698C166.361 266.689 161.1 265.744 158.744 265.508C156.275 265.259 154.696 267.698 154.412 270.234C154.108 272.951 155.215 275.869 158.375 276.26C158.779 276.31 159.361 276.404 160.097 276.522C163.714 277.102 172.184 278.46 174.424 276.47C176.501 274.625 179.871 261.88 178.317 259.887C174.319 254.756 166.947 251.471 160.263 248.934C159.989 248.83 159.852 248.523 159.956 248.249C160.06 247.975 160.366 247.837 160.64 247.941C167.461 250.53 174.995 253.897 179.154 259.234C180.486 260.943 179.325 266.303 178.764 268.529C177.903 271.946 176.397 276.137 175.128 277.264C174.017 278.251 171.901 278.582 169.497 278.582Z" fill="#222222"/>
<path d="M154.275 256.773C158.054 258.585 167.028 262.206 167.381 265.678C167.736 269.171 162.178 280.271 160.591 281.751C158.529 283.676 147.404 280.482 146.172 279.879C141.132 277.41 144.382 267.239 150.953 269.351L153.879 270.289C150.953 269.351 148.305 268.454 145.094 267.982" fill="white"/>
<path d="M157.952 282.88C153.631 282.88 146.677 280.72 145.935 280.356C143.025 278.93 142.632 275.381 143.747 272.611C144.393 271.007 145.607 269.575 147.235 268.916C146.517 268.759 145.78 268.62 145.013 268.508C144.723 268.465 144.522 268.195 144.565 267.905C144.607 267.615 144.876 267.414 145.167 267.457C147.134 267.746 148.895 268.193 150.625 268.708C150.785 268.747 150.947 268.792 151.111 268.845L152.184 269.189C152.59 269.318 152.998 269.449 153.409 269.581L154.037 269.783C154.262 269.856 154.406 270.064 154.406 270.289C154.406 270.343 154.398 270.397 154.381 270.451C154.291 270.731 153.993 270.885 153.713 270.795L151.87 270.203C151.361 270.042 150.854 269.884 150.346 269.732C147.462 269.049 145.529 271.025 144.731 273.008C143.799 275.322 144.074 278.262 146.402 279.402C147.841 280.107 158.51 282.963 160.225 281.363C161.823 279.872 167.178 268.964 166.849 265.731C166.573 263.017 159.547 259.791 155.773 258.057C155.127 257.76 154.54 257.491 154.042 257.252C153.778 257.125 153.666 256.808 153.792 256.544C153.919 256.279 154.236 256.168 154.5 256.295C154.994 256.531 155.576 256.798 156.216 257.092C160.736 259.168 167.568 262.306 167.905 265.624C168.291 269.424 162.553 280.644 160.949 282.14C160.379 282.672 159.292 282.88 157.953 282.88H157.952Z" fill="#222222"/>
<path d="M162.625 184.086C162.606 184.086 162.587 184.085 162.568 184.083C162.277 184.051 162.066 183.789 162.097 183.498C163.143 173.813 159.779 163.708 156.526 153.936C156.297 153.248 156.068 152.559 155.84 151.87C155.747 151.592 155.898 151.291 156.176 151.199C156.454 151.106 156.755 151.258 156.847 151.536C157.075 152.225 157.304 152.913 157.532 153.601C160.821 163.481 164.222 173.697 163.152 183.612C163.122 183.884 162.893 184.086 162.625 184.086Z" fill="white"/>
<path d="M47.0856 194.691C47.0339 194.691 46.9816 194.683 46.9297 194.667C46.6495 194.581 46.4922 194.284 46.5782 194.004C46.6482 193.776 53.6484 171.084 60.1077 161.553C60.2721 161.311 60.6021 161.247 60.8446 161.412C61.087 161.576 61.1504 161.907 60.986 162.149C54.6161 171.548 47.6623 194.089 47.5926 194.315C47.5225 194.544 47.3124 194.691 47.0856 194.691Z" fill="white"/>
<path d="M93.6894 5.60855C109.527 2.15336 129.693 5.14241 137.445 18.1472C144.35 29.7317 138.385 34.9859 138.385 34.9859C119.093 36.65 101.808 75.5912 97.6342 84.5552C71.0259 84.3718 59.8788 51.8124 62.4551 36.3527C64.8205 22.1571 75.4126 9.59572 93.6896 5.60855H93.6894Z" fill="#F05E5E"/>
<path d="M97.6323 85.0837H97.6286C88.223 85.0189 79.7952 80.8725 73.2558 73.0927C63.7897 61.831 60.3552 45.7119 61.9299 36.263C63.1607 28.8761 66.5469 22.1393 71.722 16.7811C77.2669 11.04 84.8233 6.99633 93.5745 5.08743C101.858 3.28046 111.024 3.31683 118.723 5.18697C127.607 7.34514 134.238 11.7318 137.898 17.8726C144.948 29.7001 138.99 35.1555 138.733 35.3819C138.648 35.4568 138.541 35.5027 138.428 35.5123C130.697 36.1793 122.344 43.1009 113.603 56.0849C106.51 66.6204 101.194 78.117 98.6385 83.6423C98.4451 84.0604 98.2698 84.4397 98.1127 84.7768C98.0255 84.964 97.8379 85.0834 97.6318 85.0834L97.6323 85.0837ZM106.13 4.81905C101.994 4.81905 97.7942 5.25413 93.8008 6.1251C77.0539 9.77858 65.5306 21.1104 62.9766 36.4379C61.441 45.6524 64.8064 61.3911 74.068 72.4095C80.322 79.8497 88.3477 83.8584 97.296 84.0179C97.4138 83.7641 97.5406 83.4899 97.6761 83.1966C100.243 77.6467 105.583 66.0979 112.724 55.4921C121.584 42.3316 130.137 35.2609 138.149 34.4722C138.944 33.6596 143.099 28.6709 136.987 18.4171C133.476 12.5269 127.074 8.30875 118.473 6.21934C114.632 5.28625 110.415 4.81905 106.13 4.81905Z" fill="#F05E5E"/>
<path d="M125.543 88.2576L126.393 102.239C131.178 102.573 135.338 102.889 138.538 103.416C138.538 103.416 139.952 113.235 122.141 114.835C103.948 116.469 85.261 109.492 78.1953 100.231C81.8977 99.8156 89.6361 98.9037 93.9581 98.5915L93.6838 71.1406" fill="white"/>
<path d="M116.808 115.601C109.737 115.601 102.453 114.405 95.8218 112.12C87.7526 109.34 81.3427 105.232 77.773 100.553C77.657 100.401 77.6316 100.198 77.7066 100.022C77.7817 99.8463 77.9454 99.7244 78.1353 99.7032C78.6895 99.6411 79.3341 99.5676 80.0442 99.4869C83.924 99.0454 89.701 98.3884 93.4219 98.099L93.1524 71.1456C93.1495 70.8525 93.3845 70.6123 93.6777 70.6094H93.6832C93.9737 70.6094 94.2108 70.8435 94.2138 71.135L94.4881 98.5859C94.4907 98.8662 94.2753 99.1006 93.9957 99.1208C90.3318 99.3854 84.2131 100.081 80.1641 100.542C79.8312 100.58 79.5126 100.616 79.211 100.65C86.9353 109.836 105.484 115.798 122.093 114.306C128.903 113.694 133.806 111.733 136.273 108.635C137.861 106.641 138.036 104.679 138.032 103.873C134.905 103.388 130.885 103.085 126.356 102.768C126.09 102.75 125.88 102.537 125.863 102.271L125.013 88.2896C124.996 87.9968 125.218 87.7452 125.511 87.7274C125.802 87.7056 126.055 87.9323 126.072 88.2251L126.895 101.742C131.465 102.063 135.502 102.378 138.624 102.892C138.853 102.93 139.03 103.111 139.063 103.34C139.08 103.46 139.46 106.314 137.127 109.266C134.444 112.662 129.417 114.713 122.188 115.363C120.419 115.522 118.62 115.6 116.808 115.6L116.808 115.601Z" fill="#222222"/>
<path d="M96.429 77.1116C86.1029 75.1135 75.6169 65.1122 70.8081 51.3222C65.742 36.7943 76.7623 20.3893 94.1002 15.1126C100.417 13.1901 106.778 12.986 112.531 14.2132C123.374 15.6451 135.532 26.8269 142.428 42.9176C151.077 63.0971 147.978 82.8941 135.947 88.1653C126.304 92.3903 116.533 86.8037 113.048 84.8927" fill="white"/>
<path d="M128.449 90.2355C121.669 90.2355 115.725 86.9672 113.035 85.4889L112.796 85.3575C112.539 85.2166 112.445 84.8938 112.586 84.6368C112.727 84.3793 113.049 84.2856 113.306 84.4263L113.546 84.5582C117.101 86.5128 126.546 91.7054 135.737 87.6781C141.414 85.1908 145.208 79.287 146.421 71.0536C147.657 62.6636 146.067 52.7453 141.944 43.126C135.288 27.5962 123.441 16.1882 112.464 14.7385C112.45 14.7367 112.436 14.7343 112.423 14.7313C106.558 13.4805 100.277 13.7876 94.2576 15.6196C84.8994 18.4677 76.9165 24.8899 72.9027 32.7991C69.8494 38.8157 69.2844 45.3316 71.3121 51.1462C75.9114 64.3354 86.0467 74.5603 96.5328 76.5892C96.8203 76.645 97.0087 76.9234 96.953 77.2114C96.8975 77.4992 96.6187 77.6863 96.3314 77.6319C85.4867 75.5335 75.0299 65.0301 70.3102 51.4961C68.1865 45.406 68.7711 38.5949 71.9567 32.3181C76.1604 24.0346 84.1763 17.5778 93.9491 14.6037C100.133 12.7216 106.59 12.4049 112.624 13.6886C123.953 15.197 136.125 26.8553 142.919 42.7073C151.616 62.9997 148.648 83.1802 136.163 88.6508C133.559 89.7917 130.947 90.2355 128.449 90.2355Z" fill="#222222"/>
<path d="M128.926 21.8052C125.634 37.5457 113.073 55.2154 94.2139 60.013C90.4014 60.9829 87.2837 71.5558 87.2837 71.5558C87.2837 71.5558 78.6482 73.2059 70.6593 59.902C59.9502 42.0678 70.4084 19.8289 86.6651 13.9782C101.464 8.65234 117.001 6.81405 128.926 21.8052Z" fill="#F05E5E"/>
<path d="M86.2754 72.1622C83.6259 72.1622 76.7095 71.009 70.2057 60.1781C65.3054 52.0177 64.4215 42.4264 67.7162 33.1713C71.0233 23.8816 78.0401 16.521 86.4865 13.4813C95.4054 10.2716 102.537 9.08478 108.929 9.74736C117.056 10.5894 123.733 14.4263 129.342 21.4771C129.441 21.6008 129.479 21.7619 129.446 21.9164C127.71 30.2186 123.578 38.5436 117.813 45.3582C111.324 53.0288 103.209 58.2753 94.3454 60.5301C91.4601 61.2641 88.6373 68.8484 87.7935 71.7088C87.7373 71.8993 87.5792 72.0427 87.3842 72.0799C87.3123 72.0937 86.92 72.1619 86.2751 72.1619L86.2754 72.1622ZM105.397 10.6281C98.9581 10.6281 92.5585 12.4248 86.8455 14.4807C78.6948 17.414 71.9172 24.5346 68.7157 33.5281C65.5293 42.4782 66.3816 51.7485 71.115 59.6312C77.955 71.022 85.2987 71.181 86.8781 71.0698C87.5123 69.0152 90.3637 60.4475 94.0841 59.5012C113.149 54.651 125.182 36.6865 128.356 21.9438C121.482 13.4131 113.409 10.6281 105.397 10.6281Z" fill="#F05E5E"/>
<path d="M98.3479 76.1124C94.4622 79.4205 88.6327 78.9501 85.3269 75.0617C82.0211 71.1733 82.4912 65.3396 86.3768 62.0315C89.6152 59.2744 94.2044 59.142 97.5568 61.4254" fill="white"/>
<path d="M92.381 78.8429C92.1149 78.8429 91.848 78.832 91.5799 78.8105C88.9792 78.6005 86.6159 77.3897 84.9253 75.4012C81.4355 71.2962 81.9334 65.115 86.0357 61.6227C89.3755 58.7793 94.237 58.5157 97.858 60.9824C98.1002 61.1475 98.1628 61.4777 97.998 61.7201C97.833 61.9624 97.503 62.0248 97.2608 61.8602C94.0336 59.662 89.7004 59.8969 86.7233 62.4315C83.0669 65.5445 82.6228 71.0541 85.7336 74.7134C87.2406 76.4859 89.3471 77.5652 91.6653 77.7524C93.9827 77.9379 96.2356 77.2119 98.0068 75.7038C98.2299 75.514 98.5646 75.5406 98.7546 75.7643C98.9445 75.9876 98.9174 76.3229 98.6944 76.5127C96.912 78.03 94.6954 78.8431 92.381 78.8431V78.8429Z" fill="#222222"/>
<path d="M95.4164 74.8551C94.6793 74.8551 93.9458 74.4742 93.4858 73.8331C92.9728 73.1185 92.8959 72.239 93.2797 71.4806C93.463 71.1186 93.7243 70.7543 94.001 70.3689C95.0265 68.9394 95.9953 67.5893 93.8885 65.8344C92.472 64.6544 90.5135 65.1768 89.311 66.3024C88.1491 67.3897 87.3295 69.4013 88.8436 71.4915C89.0155 71.7288 88.9627 72.0609 88.7253 72.2329C88.4879 72.4052 88.1563 72.3519 87.9844 72.1148C86.1877 69.6344 86.992 67.0188 88.586 65.527C90.1288 64.0834 92.6783 63.445 94.5673 65.0184C97.433 67.4056 95.8862 69.5616 94.8628 70.9882C94.6108 71.3397 94.3726 71.6718 94.2262 71.9606C93.9357 72.5345 94.2145 73.028 94.3477 73.2138C94.6421 73.6239 95.1204 73.8467 95.5658 73.7829C96.1796 73.694 96.7112 73.0885 97.063 72.0779C97.1592 71.8013 97.4614 71.6545 97.7383 71.7511C98.015 71.8475 98.1612 72.1501 98.0649 72.427C97.4062 74.3205 96.3117 74.7476 95.718 74.8336C95.618 74.848 95.5172 74.8551 95.4167 74.8551H95.4164Z" fill="#222222"/>
<path d="M132.749 53.3722C132.512 53.3722 132.297 53.2129 132.235 52.9735L130.556 46.4446C130.483 46.1605 130.654 45.8712 130.937 45.7979C131.221 45.7255 131.51 45.8959 131.583 46.1796L133.263 52.7086C133.336 52.9926 133.165 53.282 132.881 53.3552C132.837 53.3666 132.792 53.3722 132.749 53.3722Z" fill="#222222"/>
<path d="M142.555 54.5306C150.015 48.6491 152.069 54.9972 146.429 60.5203L142.555 54.5306Z" fill="white"/>
<path d="M146.429 61.0452C146.291 61.0452 146.153 60.9919 146.049 60.8857C145.844 60.676 145.848 60.3399 146.057 60.135C148.884 57.3671 149.717 54.2939 148.721 53.1604C148.046 52.3913 146.111 52.3964 142.882 54.9416C142.652 55.1232 142.319 55.0836 142.137 54.8532C141.956 54.6228 141.996 54.2891 142.226 54.1075C145.46 51.5578 148.186 50.9419 149.518 52.4593C150.858 53.9849 150.207 57.5566 146.799 60.8937C146.696 60.9948 146.562 61.0452 146.429 61.0452Z" fill="#222222"/>
<path d="M137.024 74.8544C136.912 74.8544 136.798 74.8188 136.702 74.7456C135.108 73.5279 133.027 73.0498 130.518 73.3248C130.226 73.3551 129.965 73.1462 129.933 72.8547C129.901 72.5632 130.111 72.3012 130.403 72.2691C133.192 71.9646 135.528 72.5128 137.346 73.9014C137.579 74.0793 137.624 74.4124 137.446 74.6455C137.341 74.7825 137.183 74.8544 137.024 74.8544Z" fill="#222222"/>
</g>
<defs>
<clipPath id="clip0_32129_26807">
<rect width="236" height="284" fill="white" transform="translate(0.929688 0.0234375)"/>
</clipPath>
</defs>
</svg>
