<svg width="50" height="50" viewBox="0 0 86 86" fill="none" xmlns="http://www.w3.org/2000/svg">
<g id="dialog-2-svgrepo-com 1">
<path id="Vector" fill-rule="evenodd" clip-rule="evenodd" d="M47.9429 5.10938H56.1622C60.3829 5.10934 63.7396 5.10934 66.4312 5.36525C69.1913 5.6277 71.5251 6.17778 73.6038 7.4517C75.7426 8.76239 77.5409 10.5606 78.8514 12.6994C80.1255 14.7783 80.6755 17.1119 80.9379 19.872C81.194 22.5638 81.194 25.9202 81.1937 30.141V33.0224C81.194 36.0267 81.194 38.4167 81.0615 40.3541C80.9263 42.3364 80.644 44.0383 79.9838 45.632C78.3707 49.5267 75.276 52.6214 71.3813 54.2346C70.0422 54.7895 68.6145 55.0805 66.9971 55.2391C66.9783 55.7312 66.9547 56.1992 66.9243 56.6443C66.7805 58.7495 66.4813 60.5436 65.7876 62.2186C64.0847 66.3298 60.8184 69.5961 56.7072 71.299C54.5991 72.1722 52.2735 72.4279 49.3491 72.5215C47.7758 72.572 46.7698 72.6067 46.0058 72.6996C45.2838 72.7879 45.0125 72.9055 44.8659 72.9924C44.7031 73.0885 44.4784 73.2651 44.0864 73.8048C43.6632 74.388 43.1835 75.1923 42.4244 76.4752L41.5078 78.0234C39.1168 82.0633 33.198 82.0633 30.8069 78.0234L29.8905 76.4752C29.1311 75.1923 28.6517 74.388 28.2283 73.8048C27.8363 73.2651 27.6116 73.0885 27.4487 72.9924C27.3022 72.9055 27.0311 72.7879 26.3088 72.6999C25.5448 72.6067 24.539 72.572 22.9655 72.5215C20.0412 72.4279 17.7158 72.1722 15.6075 71.299C11.4964 69.5961 8.23008 66.3298 6.52717 62.2186C5.83343 60.5436 5.53424 58.7495 5.39059 56.6443C5.24997 54.5835 5.25 52.0396 5.25 48.8298V45.7705C5.24997 41.2616 5.24997 37.6883 5.52216 34.8254C5.80086 31.8942 6.38347 29.4352 7.72246 27.2502C9.10591 24.9926 11.004 23.0944 13.2617 21.711C15.4467 20.372 17.9057 19.7894 20.8369 19.5107C21.582 19.4398 22.3752 19.3874 23.2205 19.3486C23.5032 16.806 24.0667 14.6361 25.2535 12.6994C26.5642 10.5606 28.3624 8.76239 30.5012 7.4517C32.5801 6.17778 34.9137 5.6277 37.6739 5.36525C40.3654 5.10934 43.7222 5.10934 47.9429 5.10938ZM28.5747 19.2427C29.5878 19.2385 30.6557 19.2385 31.782 19.2385H40.5329C45.0422 19.2385 48.6151 19.2385 51.478 19.5107C54.4091 19.7894 56.8683 20.372 59.0533 21.711C61.3108 23.0944 63.209 24.9926 64.5923 27.2502C65.9314 29.4352 66.5142 31.8942 66.7929 34.8254C67.0649 37.6883 67.0649 41.2612 67.0649 45.7705V48.8298C67.0649 49.1947 67.0649 49.5511 67.0645 49.899C68.0373 49.7729 68.747 49.5907 69.3538 49.3395C71.9504 48.2639 74.0132 46.2011 75.0888 43.6045C75.4367 42.7638 75.6586 41.7059 75.7755 39.9935C75.8938 38.2574 75.8952 36.0483 75.8952 32.9262V30.277C75.8952 25.8896 75.8928 22.7852 75.6632 20.3735C75.4378 18.0012 75.0118 16.5742 74.334 15.4678C73.4601 14.0419 72.2612 12.8431 70.8352 11.9693C69.7289 11.2913 68.3019 10.8654 65.9296 10.6399C63.5181 10.4106 60.4136 10.4078 56.0262 10.4078H48.0785C43.6914 10.4078 40.5869 10.4106 38.1754 10.6399C35.803 10.8654 34.376 11.2913 33.2696 11.9693C31.8438 12.8431 30.645 14.0419 29.7712 15.4678C29.204 16.3933 28.8184 17.5319 28.5747 19.2427ZM21.3384 24.7853C18.7951 25.0271 17.2427 25.4855 16.0301 26.2286C14.4854 27.1752 13.1867 28.4739 12.2401 30.0186C11.497 31.2312 11.0386 32.7836 10.7968 35.3269C10.5512 37.9098 10.5484 41.2308 10.5484 45.9072V48.733C10.5484 52.0611 10.5499 54.4242 10.6767 56.2836C10.802 58.1194 11.0405 59.2691 11.4223 60.191C12.5874 63.0038 14.8223 65.2387 17.6352 66.404C18.8156 66.8928 20.3364 67.1362 23.1349 67.2259L23.2448 67.2295C24.6768 67.275 25.9223 67.3149 26.9503 67.4403C28.0463 67.5739 29.123 67.8268 30.1463 68.4319C31.1532 69.0274 31.8805 69.8172 32.5152 70.6911C33.1025 71.4996 33.7076 72.5219 34.3935 73.6812L35.3664 75.3247C35.5268 75.5957 35.8068 75.755 36.1574 75.755C36.5078 75.755 36.788 75.5957 36.9483 75.3247L37.9215 73.6808C38.6071 72.5219 39.2122 71.4996 39.7996 70.6911C40.4343 69.8172 41.1616 69.0274 42.1687 68.4319C43.1916 67.8268 44.2686 67.5739 45.3643 67.4403C46.3926 67.3149 47.6381 67.275 49.07 67.2295L49.1799 67.2259C51.9785 67.1362 53.4992 66.8928 54.6797 66.404C57.4928 65.2387 59.7276 63.0038 60.8926 60.191C61.2744 59.2691 61.5128 58.1194 61.6382 56.2836C61.7651 54.4242 61.7665 52.0611 61.7665 48.733V45.9072C61.7665 41.2308 61.7636 37.9098 61.5182 35.3269C61.2762 32.7836 60.8177 31.2312 60.0749 30.0186C59.1282 28.4739 57.8294 27.1752 56.2847 26.2286C55.0721 25.4855 53.52 25.0271 50.9764 24.7853C48.3936 24.5397 45.0726 24.5369 40.3962 24.5369H31.9187C27.2424 24.5369 23.9211 24.5397 21.3384 24.7853Z" fill="#FF4F4F"/>
<path id="Vector_2" d="M27.3224 46.6026C27.3224 48.5535 25.7409 50.1349 23.7901 50.1349C21.8393 50.1349 20.2578 48.5535 20.2578 46.6026C20.2578 44.6517 21.8393 43.0703 23.7901 43.0703C25.7409 43.0703 27.3224 44.6517 27.3224 46.6026Z" fill="#FF4F4F"/>
<path id="Vector_3" d="M39.6896 46.6026C39.6896 48.5535 38.1082 50.1349 36.1573 50.1349C34.2065 50.1349 32.625 48.5535 32.625 46.6026C32.625 44.6517 34.2065 43.0703 36.1573 43.0703C38.1082 43.0703 39.6896 44.6517 39.6896 46.6026Z" fill="#FF4F4F"/>
<path id="Vector_4" d="M52.0567 46.6026C52.0567 48.5535 50.4753 50.1349 48.5245 50.1349C46.5736 50.1349 44.9922 48.5535 44.9922 46.6026C44.9922 44.6517 46.5736 43.0703 48.5245 43.0703C50.4753 43.0703 52.0567 44.6517 52.0567 46.6026Z" fill="#FF4F4F"/>
</g>
</svg>
