<svg width="50" height="50" viewBox="0 0 87 87" fill="none" xmlns="http://www.w3.org/2000/svg">
<path fill-rule="evenodd" clip-rule="evenodd" d="M43.1623 30.3516C35.716 30.3516 29.6797 36.3879 29.6797 43.8341C29.6797 51.2805 35.716 57.3167 43.1623 57.3167C50.6086 57.3167 56.6449 51.2805 56.6449 43.8341C56.6449 36.3879 50.6086 30.3516 43.1623 30.3516ZM35.0727 43.8341C35.0727 39.3666 38.6947 35.7446 43.1623 35.7446C47.6299 35.7446 51.2518 39.3666 51.2518 43.8341C51.2518 48.3017 47.6299 51.9237 43.1623 51.9237C38.6947 51.9237 35.0727 48.3017 35.0727 43.8341Z" fill="#FF4F4F"/>
<path fill-rule="evenodd" clip-rule="evenodd" d="M43.1641 5.17969C40.6308 5.17969 38.3172 5.87571 35.7885 7.0506C33.3419 8.18742 30.5098 9.86458 26.9655 11.9636L24.2578 13.567C20.7123 15.6667 17.8805 17.3436 15.6983 18.9479C13.4418 20.6067 11.7111 22.3048 10.4584 24.5303C9.20769 26.7523 8.64296 29.1282 8.37205 31.9473C8.10934 34.681 8.10934 38.0287 8.10938 42.2334V45.4261C8.10934 49.6309 8.10934 52.9785 8.37205 55.7121C8.64296 58.5315 9.20769 60.9073 10.4584 63.1293C11.7111 65.3548 13.4418 67.0529 15.6983 68.7118C17.8805 70.316 20.7123 71.9929 24.2578 74.0926L26.9656 75.6961C30.5098 77.7951 33.3419 79.4723 35.7885 80.6088C38.3172 81.7838 40.6308 82.4798 43.1641 82.4798C45.6974 82.4798 48.011 81.7838 50.5396 80.6088C52.9862 79.472 55.8183 77.7951 59.3626 75.6961L62.0703 74.0926C65.6157 71.9929 68.4477 70.316 70.6297 68.7118C72.8865 67.0529 74.617 65.3548 75.87 63.1293C77.1204 60.9073 77.6853 58.5315 77.956 55.7121C78.2188 52.9785 78.2188 49.6309 78.2188 45.4265V42.2334C78.2188 38.029 78.2188 34.6809 77.956 31.9473C77.6853 29.1282 77.1204 26.7523 75.87 24.5303C74.617 22.3048 72.8865 20.6067 70.6297 18.9479C68.4477 17.3436 65.616 15.6667 62.0703 13.5671L59.3626 11.9636C55.8183 9.86454 52.9862 8.18742 50.5396 7.0506C48.011 5.87571 45.6974 5.17969 43.1641 5.17969ZM29.5925 16.6756C33.2854 14.4887 35.8873 12.9514 38.0612 11.9414C40.1807 10.9566 41.6925 10.5727 43.1641 10.5727C44.6357 10.5727 46.1475 10.9566 48.267 11.9414C50.4407 12.9514 53.0427 14.4887 56.7358 16.6756L59.2026 18.1366C62.895 20.3232 65.4945 21.8663 67.4356 23.2931C69.3264 24.6833 70.4205 25.8439 71.1701 27.1756C71.9219 28.511 72.358 30.0736 72.5878 32.4632C72.8229 34.9091 72.8258 37.9981 72.8258 42.369V45.2906C72.8258 49.6614 72.8229 52.7506 72.5878 55.1961C72.358 57.586 71.9219 59.1485 71.1701 60.4838C70.4205 61.8155 69.3264 62.9761 67.4356 64.3664C65.4945 65.7934 62.895 67.3362 59.2026 69.5229L56.7358 70.9841C53.0427 73.1707 50.4407 74.7081 48.267 75.7181C46.1475 76.7028 44.6357 77.0868 43.1641 77.0868C41.6925 77.0868 40.1807 76.7028 38.0612 75.7181C35.8873 74.7081 33.2854 73.1707 29.5925 70.9841L27.1255 69.5229C23.4331 67.3362 20.8336 65.7934 18.8927 64.3664C17.0016 62.9761 15.9077 61.8155 15.1581 60.4838C14.4065 59.1485 13.97 57.586 13.7404 55.1961C13.5053 52.7506 13.5024 49.6614 13.5024 45.2906V42.369C13.5024 37.9981 13.5053 34.9091 13.7404 32.4632C13.97 30.0736 14.4065 28.511 15.1581 27.1756C15.9077 25.8439 17.0016 24.6833 18.8927 23.2931C20.8336 21.8663 23.4331 20.3232 27.1255 18.1366L29.5925 16.6756Z" fill="#FF4F4F"/>
</svg>
