<svg width="50" height="50" viewBox="0 0 50 50" fill="none" xmlns="http://www.w3.org/2000/svg">
<path fill-rule="evenodd" clip-rule="evenodd" d="M18.7075 32.3273C18.6017 32.3223 18.484 32.3178 18.3533 32.3138C17.5869 32.2906 16.5505 32.2904 15.1042 32.2904C13.6579 32.2904 12.6216 32.2907 11.8551 32.3139C11.7244 32.3179 11.6067 32.3224 11.5008 32.3274C11.7695 34.076 13.2804 35.4151 15.1042 35.4151C16.9279 35.4151 18.439 34.0759 18.7075 32.3273ZM15.1042 37.4984C18.2683 37.4984 20.8333 34.9334 20.8333 31.7692C20.8333 31.3066 20.8333 30.9811 20.6847 30.7519C20.3312 30.2069 19.1373 30.207 15.1042 30.207C9.375 30.207 9.375 30.2071 9.375 31.7692C9.375 34.9334 11.94 37.4984 15.1042 37.4984Z" fill="#FF3A3A"/>
<path fill-rule="evenodd" clip-rule="evenodd" d="M29.6815 28.1263H23.9583V30.2096H29.4156L29.6815 28.1263ZM21.875 26.043V32.293H31.25L32.0475 26.043H21.875Z" fill="#FF3A3A"/>
<path fill-rule="evenodd" clip-rule="evenodd" d="M31.4091 17.707H36.4582V27.082H34.3748V19.7904H33.1739L31.2357 31.4199L29.1807 31.0774L31.4091 17.707Z" fill="#FF3A3A"/>
<path fill-rule="evenodd" clip-rule="evenodd" d="M34.4398 32.4571C34.8181 34.4348 36.7281 35.7312 38.7057 35.3528C40.6834 34.9745 41.9799 33.0645 41.6015 31.0868L43.6477 30.6953C44.2423 33.803 42.2051 36.8044 39.0973 37.3991C35.9896 37.9936 32.9881 35.9564 32.3936 32.8486L34.4398 32.4571Z" fill="#FF3A3A"/>
<path fill-rule="evenodd" clip-rule="evenodd" d="M42.3408 29.9513C42.0008 29.1442 41.4383 28.4414 40.7094 27.9311C39.691 27.218 38.4311 26.9387 37.2068 27.1546C35.9825 27.3704 34.8941 28.0638 34.181 29.0822C33.6706 29.8111 33.3825 30.6638 33.339 31.5386L42.3408 29.9513ZM42.818 31.9827L33.5854 33.6107C32.5152 33.7994 31.2402 33.0798 31.2501 31.7214C31.2601 30.3584 31.6816 29.0196 32.4744 27.8873C33.5044 26.4163 35.0766 25.4147 36.8451 25.1029C38.6135 24.791 40.4334 25.1946 41.9043 26.2246C43.0366 27.0173 43.8907 28.1313 44.3662 29.4087C44.8401 30.6817 43.8882 31.7941 42.818 31.9827Z" fill="#FF3A3A"/>
<path fill-rule="evenodd" clip-rule="evenodd" d="M21.875 19.7904H12.5C11.9247 19.7904 11.4583 20.2567 11.4583 20.832V21.8737H22.9167V20.832C22.9167 20.2567 22.4503 19.7904 21.875 19.7904ZM12.5 17.707C10.7741 17.707 9.375 19.1061 9.375 20.832V22.9154C9.375 23.4907 9.84137 23.957 10.4167 23.957H23.9583C24.5336 23.957 25 23.4907 25 22.9154V20.832C25 19.1061 23.6009 17.707 21.875 17.707H12.5Z" fill="#FF3A3A"/>
<path fill-rule="evenodd" clip-rule="evenodd" d="M21.8747 23.9583H15.1618C11.3705 23.9583 8.20533 26.639 7.45832 30.2083H21.8747V23.9583ZM15.1618 21.875C9.66443 21.875 5.20801 26.3315 5.20801 31.8287C5.20801 32.0844 5.41528 32.2917 5.67097 32.2917H21.8747C23.0253 32.2917 23.958 31.359 23.958 30.2083V22.7083C23.958 22.2481 23.5849 21.875 23.1247 21.875H15.1618Z" fill="#FF3A3A"/>
<path fill-rule="evenodd" clip-rule="evenodd" d="M36.458 14.5833H33.8538C32.9909 14.5833 32.2913 15.2829 32.2913 16.1458C32.2913 17.0087 32.9909 17.7083 33.8538 17.7083H36.458V14.5833ZM33.8538 12.5C31.8403 12.5 30.208 14.1323 30.208 16.1458C30.208 18.1594 31.8403 19.7917 33.8538 19.7917H37.9003C38.2544 19.7917 38.5413 19.5047 38.5413 19.1506V13.141C38.5413 12.787 38.2544 12.5 37.9003 12.5H33.8538Z" fill="#FF3A3A"/>
<path d="M26.222 14.5686C26.3215 14.002 26.8615 13.6233 27.4282 13.7229L30.506 14.2639C31.0727 14.3634 31.4512 14.9034 31.3516 15.4701C31.2521 16.0367 30.7121 16.4153 30.1454 16.3157L27.0676 15.7748C26.501 15.6752 26.1224 15.1352 26.222 14.5686Z" fill="#FF3A3A"/>
</svg>
