<svg width="50" height="50" viewBox="0 0 50 50" fill="none" xmlns="http://www.w3.org/2000/svg">
<path fill-rule="evenodd" clip-rule="evenodd" d="M18.1555 35.0526C18.1621 36.8926 17.0864 38.5553 15.4307 39.2643C13.7751 39.973 11.866 39.5882 10.5951 38.2895C9.32409 36.9907 8.94191 35.0343 9.62697 33.3334C10.312 31.6328 11.9292 30.5234 13.7233 30.5234C14.8966 30.5212 16.0228 30.9972 16.854 31.8466C17.6852 32.6959 18.1533 33.8491 18.1555 35.0526Z" stroke="#FF3A3A" stroke-width="2.5" stroke-linecap="round" stroke-linejoin="round"/>
<path fill-rule="evenodd" clip-rule="evenodd" d="M39.924 35.0526C39.9305 36.8926 38.8549 38.5553 37.1993 39.2643C35.5436 39.973 33.6345 39.5882 32.3636 38.2895C31.0926 36.9907 30.7105 35.0343 31.3955 33.3334C32.0805 31.6328 33.6976 30.5234 35.4918 30.5234C36.6651 30.5212 37.7913 30.9972 38.6224 31.8466C39.4536 32.6959 39.9218 33.8491 39.924 35.0526Z" stroke="#FF3A3A" stroke-width="2.5" stroke-linecap="round" stroke-linejoin="round"/>
<path d="M5.43959 20.8147C5.14207 21.6246 5.55755 22.5226 6.36757 22.8201C7.17761 23.1176 8.07547 22.7021 8.37299 21.8921L5.43959 20.8147ZM8.46426 17.1117L7.01022 16.5397C7.00588 16.5508 7.00165 16.5619 6.99757 16.573L8.46426 17.1117ZM20.41 11.9805C21.273 11.9805 21.9726 11.2809 21.9726 10.418C21.9726 9.55503 21.273 8.85547 20.41 8.85547V11.9805ZM6.9063 22.9159C7.76924 22.9159 8.4688 22.2163 8.4688 21.3534C8.4688 20.4904 7.76924 19.7909 6.9063 19.7909V22.9159ZM4.24738 21.3534L4.23551 22.9159H4.24738V21.3534ZM2.03129 23.593L0.468792 23.5817V23.593H2.03129ZM0.468792 27.0846C0.468792 27.9476 1.16835 28.6471 2.03129 28.6471C2.89424 28.6471 3.5938 27.9476 3.5938 27.0846H0.468792ZM6.9063 19.7909C6.04334 19.7909 5.3438 20.4904 5.3438 21.3534C5.3438 22.2163 6.04334 22.9159 6.9063 22.9159V19.7909ZM20.41 22.9159C21.273 22.9159 21.9726 22.2163 21.9726 21.3534C21.9726 20.4904 21.273 19.7909 20.41 19.7909V22.9159ZM36.5076 21.8921C36.8051 22.7021 37.703 23.1176 38.513 22.8201C39.323 22.5226 39.7384 21.6246 39.4409 20.8147L36.5076 21.8921ZM36.4163 17.1117L37.883 16.573C37.8788 16.5619 37.8747 16.5508 37.8703 16.5397L36.4163 17.1117ZM20.41 8.85547C19.5471 8.85547 18.8475 9.55503 18.8475 10.418C18.8475 11.2809 19.5471 11.9805 20.41 11.9805V8.85547ZM37.9743 22.9159C38.8372 22.9159 39.5368 22.2163 39.5368 21.3534C39.5368 20.4904 38.8372 19.7909 37.9743 19.7909V22.9159ZM20.41 19.7909C19.5471 19.7909 18.8475 20.4904 18.8475 21.3534C18.8475 22.2163 19.5471 22.9159 20.41 22.9159V19.7909ZM37.9743 19.7909C37.1113 19.7909 36.4118 20.4904 36.4118 21.3534C36.4118 22.2163 37.1113 22.9159 37.9743 22.9159V19.7909ZM44.5047 21.3534V22.9159H44.5151L44.5047 21.3534ZM46.7188 23.593H48.2813V23.5817L46.7188 23.593ZM45.1563 27.0846C45.1563 27.9476 45.8559 28.6471 46.7188 28.6471C47.5818 28.6471 48.2813 27.9476 48.2813 27.0846H45.1563ZM31.0599 36.618C31.9228 36.618 32.6224 35.9184 32.6224 35.0555C32.6224 34.1926 31.9228 33.493 31.0599 33.493V36.618ZM18.1554 33.493C17.2924 33.493 16.5929 34.1926 16.5929 35.0555C16.5929 35.9184 17.2924 36.618 18.1554 36.618V33.493ZM39.9243 33.493C39.0613 33.493 38.3618 34.1926 38.3618 35.0555C38.3618 35.9184 39.0613 36.618 39.9243 36.618V33.493ZM44.5028 35.0555L44.5147 33.493H44.5028V35.0555ZM46.7188 32.8159L48.2813 32.8271V32.8159H46.7188ZM48.2813 27.0846C48.2813 26.2217 47.5818 25.5221 46.7188 25.5221C45.8559 25.5221 45.1563 26.2217 45.1563 27.0846H48.2813ZM9.29099 36.618C10.1539 36.618 10.8535 35.9184 10.8535 35.0555C10.8535 34.1926 10.1539 33.493 9.29099 33.493V36.618ZM4.24738 35.0555V33.493H4.23551L4.24738 35.0555ZM2.03129 32.8159H0.46875L0.468831 32.8271L2.03129 32.8159ZM3.5938 27.0846C3.5938 26.2217 2.89424 25.5221 2.03129 25.5221C1.16835 25.5221 0.468792 26.2217 0.468792 27.0846H3.5938ZM21.9726 10.418C21.9726 9.55503 21.273 8.85547 20.41 8.85547C19.5471 8.85547 18.8475 9.55503 18.8475 10.418H21.9726ZM18.8475 21.3534C18.8475 22.2163 19.5471 22.9159 20.41 22.9159C21.273 22.9159 21.9726 22.2163 21.9726 21.3534H18.8475ZM2.03129 25.5221C1.16835 25.5221 0.468792 26.2217 0.468792 27.0846C0.468792 27.9476 1.16835 28.6471 2.03129 28.6471V25.5221ZM6.07957 28.6471C6.94251 28.6471 7.64207 27.9476 7.64207 27.0846C7.64207 26.2217 6.94251 25.5221 6.07957 25.5221V28.6471ZM46.7188 28.6471C47.5818 28.6471 48.2813 27.9476 48.2813 27.0846C48.2813 26.2217 47.5818 25.5221 46.7188 25.5221V28.6471ZM42.4999 25.5221C41.637 25.5221 40.9374 26.2217 40.9374 27.0846C40.9374 27.9476 41.637 28.6471 42.4999 28.6471V25.5221ZM8.37299 21.8921L9.93095 17.6504L6.99757 16.573L5.43959 20.8147L8.37299 21.8921ZM9.9183 17.6837C10.6784 15.7515 11.4403 14.3318 12.3923 13.3911C13.2778 12.5162 14.4038 11.9805 16.1302 11.9805V8.85547C13.6235 8.85547 11.6955 9.68643 10.1958 11.1682C8.76263 12.5844 7.80809 14.5115 7.01022 16.5397L9.9183 17.6837ZM16.1302 11.9805H20.41V8.85547H16.1302V11.9805ZM6.9063 19.7909H4.24738V22.9159H6.9063V19.7909ZM4.25926 19.7909C3.24847 19.7832 2.28415 20.1882 1.57642 20.9034L3.79774 23.1015C3.92122 22.9767 4.07942 22.9146 4.23551 22.9159L4.25926 19.7909ZM1.57642 20.9034C0.870008 21.6173 0.475969 22.5815 0.468792 23.5817L3.59376 23.6042C3.59515 23.4076 3.67295 23.2276 3.79774 23.1015L1.57642 20.9034ZM0.468792 23.593V27.0846H3.5938V23.593H0.468792ZM6.9063 22.9159H20.41V19.7909H6.9063V22.9159ZM39.4409 20.8147L37.883 16.573L34.9497 17.6504L36.5076 21.8921L39.4409 20.8147ZM37.8703 16.5397C37.0724 14.5115 36.118 12.5844 34.6847 11.1682C33.1851 9.68643 31.257 8.85547 28.7503 8.85547V11.9805C30.4768 11.9805 31.6028 12.5162 32.4882 13.3911C33.4403 14.3318 34.2022 15.7515 34.9622 17.6837L37.8703 16.5397ZM28.7503 8.85547H20.41V11.9805H28.7503V8.85547ZM37.9743 19.7909H20.41V22.9159H37.9743V19.7909ZM37.9743 22.9159H44.5047V19.7909H37.9743V22.9159ZM44.5151 22.9159C44.8297 22.9138 45.1532 23.184 45.1563 23.6042L48.2813 23.5817C48.2663 21.5113 46.6082 19.7768 44.4943 19.7909L44.5151 22.9159ZM45.1563 23.593V27.0846H48.2813V23.593H45.1563ZM31.0599 33.493H18.1554V36.618H31.0599V33.493ZM39.9243 36.618H44.5028V33.493H39.9243V36.618ZM44.4907 36.618C45.5015 36.6257 46.4659 36.2207 47.1736 35.5055L44.9524 33.3073C44.8288 33.4321 44.6707 33.4942 44.5147 33.493L44.4907 36.618ZM47.1736 35.5055C47.8801 34.7915 48.274 33.8273 48.2813 32.8271L45.1563 32.8046C45.1549 33.0013 45.0772 33.1813 44.9524 33.3073L47.1736 35.5055ZM48.2813 32.8159V27.0846H45.1563V32.8159H48.2813ZM9.29099 33.493H4.24738V36.618H9.29099V33.493ZM4.23551 33.493C4.07942 33.4942 3.92122 33.4321 3.79774 33.3073L1.57642 35.5055C2.28415 36.2207 3.24847 36.6257 4.25926 36.618L4.23551 33.493ZM3.79774 33.3073C3.67295 33.1813 3.59515 33.0013 3.59376 32.8046L0.468831 32.8271C0.476008 33.8273 0.870008 34.7915 1.57642 35.5055L3.79774 33.3073ZM3.5938 32.8159V27.0846H0.468792L0.46875 32.8159H3.5938ZM18.8475 10.418V21.3534H21.9726V10.418H18.8475ZM2.03129 28.6471H6.07957V25.5221H2.03129V28.6471ZM46.7188 25.5221H42.4999V28.6471H46.7188V25.5221Z" fill="#FF3A3A"/>
</svg>
