<svg width="50" height="50" viewBox="0 0 50 50" fill="none" xmlns="http://www.w3.org/2000/svg">
<path d="M25.0003 11.6122L23.8591 12.6794C24.1545 12.9954 24.5676 13.1747 25.0003 13.1747C25.433 13.1747 25.8462 12.9954 26.1416 12.6794L25.0003 11.6122ZM19.6552 39.1585C16.6346 36.7072 13.108 33.4932 10.3497 29.9753C7.56139 26.4191 5.72949 22.768 5.72949 19.411H2.60449C2.60449 23.8232 4.95951 28.1653 7.89051 31.9035C10.8516 35.6801 14.5768 39.0618 17.686 41.5849L19.6552 39.1585ZM5.72949 19.411C5.72949 13.3597 8.37045 9.61889 11.6379 8.33947C14.8981 7.06289 19.4595 7.97404 23.8591 12.6794L26.1416 10.5451C21.1666 5.22416 15.3112 3.54506 10.4985 5.4296C5.69287 7.31131 2.60449 12.483 2.60449 19.411H5.72949ZM32.3147 41.5849C35.4239 39.0618 39.1491 35.6803 42.1101 31.9037C45.0412 28.1653 47.3962 23.8232 47.3962 19.4109H44.2712C44.2712 22.768 42.4393 26.4191 39.651 29.9753C36.8928 33.4932 33.3662 36.7072 30.3455 39.1585L32.3147 41.5849ZM47.3962 19.4109C47.3962 12.483 44.3078 7.31129 39.5022 5.4296C34.6895 3.54506 28.8341 5.22416 23.8591 10.5451L26.1416 12.6794C30.5412 7.97404 35.1026 7.06287 38.3628 8.33947C41.6301 9.61887 44.2712 13.3596 44.2712 19.4109H47.3962ZM17.686 41.5849C20.3349 43.7345 22.1718 45.312 25.0003 45.312V42.187C23.4943 42.187 22.5564 41.5126 19.6552 39.1585L17.686 41.5849ZM30.3455 39.1585C27.4443 41.5126 26.5064 42.187 25.0003 42.187V45.312C27.8289 45.312 29.6657 43.7345 32.3147 41.5849L30.3455 39.1585Z" fill="#FF3A3A"/>
<path d="M38.5413 18.7487H34.3747M34.3747 18.7487H30.208M34.3747 18.7487V14.582M34.3747 18.7487V22.9154" stroke="#FF3A3A" stroke-width="2.5" stroke-linecap="round"/>
</svg>
