<svg width="50" height="50" viewBox="0 0 50 50" fill="none" xmlns="http://www.w3.org/2000/svg">
<path fill-rule="evenodd" clip-rule="evenodd" d="M30.5945 35.0526C30.5879 36.8926 31.6636 38.5553 33.3193 39.2643C34.9749 39.973 36.884 39.5882 38.1549 38.2895C39.4259 36.9907 39.8081 35.0343 39.123 33.3334C38.438 31.6328 36.8208 30.5234 35.0267 30.5234C33.8534 30.5212 32.7272 30.9972 31.896 31.8466C31.0648 32.6959 30.5967 33.8491 30.5945 35.0526Z" stroke="#FF3A3A" stroke-width="2.5" stroke-linecap="round" stroke-linejoin="round"/>
<path fill-rule="evenodd" clip-rule="evenodd" d="M8.82595 35.0526C8.81949 36.8926 9.89512 38.5553 11.5507 39.2643C13.2064 39.973 15.1155 39.5882 16.3864 38.2895C17.6574 36.9907 18.0395 35.0343 17.3545 33.3334C16.6695 31.6328 15.0524 30.5234 13.2582 30.5234C12.0849 30.5212 10.9587 30.9972 10.1276 31.8466C9.29637 32.6959 8.82824 33.8491 8.82595 35.0526Z" stroke="#FF3A3A" stroke-width="2.5" stroke-linecap="round" stroke-linejoin="round"/>
<path d="M43.3104 20.8147C43.6079 21.6246 43.1925 22.5226 42.3824 22.8201C41.5724 23.1176 40.6745 22.7021 40.377 21.8921L43.3104 20.8147ZM40.2857 17.1117L41.7398 16.5397C41.7441 16.5508 41.7483 16.5619 41.7524 16.573L40.2857 17.1117ZM28.34 11.9805C27.477 11.9805 26.7774 11.2809 26.7774 10.418C26.7774 9.55503 27.477 8.85547 28.34 8.85547V11.9805ZM41.8437 22.9159C40.9808 22.9159 40.2812 22.2163 40.2812 21.3534C40.2812 20.4904 40.9808 19.7909 41.8437 19.7909V22.9159ZM44.5026 21.3534L44.5145 22.9159H44.5026V21.3534ZM46.7187 23.593L48.2812 23.5817V23.593H46.7187ZM48.2812 27.0846C48.2812 27.9476 47.5817 28.6471 46.7187 28.6471C45.8558 28.6471 45.1562 27.9476 45.1562 27.0846H48.2812ZM41.8437 19.7909C42.7067 19.7909 43.4062 20.4904 43.4062 21.3534C43.4062 22.2163 42.7067 22.9159 41.8437 22.9159V19.7909ZM28.34 22.9159C27.477 22.9159 26.7774 22.2163 26.7774 21.3534C26.7774 20.4904 27.477 19.7909 28.34 19.7909V22.9159ZM12.2424 21.8921C11.9449 22.7021 11.047 23.1176 10.237 22.8201C9.427 22.5226 9.01158 21.6246 9.30908 20.8147L12.2424 21.8921ZM12.3337 17.1117L10.867 16.573C10.8712 16.5619 10.8753 16.5508 10.8797 16.5397L12.3337 17.1117ZM28.34 8.85547C29.2029 8.85547 29.9025 9.55503 29.9025 10.418C29.9025 11.2809 29.2029 11.9805 28.34 11.9805V8.85547ZM10.7757 22.9159C9.91283 22.9159 9.21325 22.2163 9.21325 21.3534C9.21325 20.4904 9.91283 19.7909 10.7757 19.7909V22.9159ZM28.34 19.7909C29.2029 19.7909 29.9025 20.4904 29.9025 21.3534C29.9025 22.2163 29.2029 22.9159 28.34 22.9159V19.7909ZM10.7757 19.7909C11.6387 19.7909 12.3382 20.4904 12.3382 21.3534C12.3382 22.2163 11.6387 22.9159 10.7757 22.9159V19.7909ZM4.24533 21.3534V22.9159H4.23491L4.24533 21.3534ZM2.03117 23.593H0.46867V23.5817L2.03117 23.593ZM3.59367 27.0846C3.59367 27.9476 2.89408 28.6471 2.03117 28.6471C1.16825 28.6471 0.46867 27.9476 0.46867 27.0846H3.59367ZM17.6901 36.618C16.8272 36.618 16.1276 35.9184 16.1276 35.0555C16.1276 34.1926 16.8272 33.493 17.6901 33.493V36.618ZM30.5946 33.493C31.4576 33.493 32.1571 34.1926 32.1571 35.0555C32.1571 35.9184 31.4576 36.618 30.5946 36.618V33.493ZM8.82575 33.493C9.68866 33.493 10.3882 34.1926 10.3882 35.0555C10.3882 35.9184 9.68866 36.618 8.82575 36.618V33.493ZM4.24721 35.0555L4.23533 33.493H4.24721V35.0555ZM2.03117 32.8159L0.46867 32.8271V32.8159H2.03117ZM0.46867 27.0846C0.46867 26.2217 1.16825 25.5221 2.03117 25.5221C2.89408 25.5221 3.59367 26.2217 3.59367 27.0846H0.46867ZM39.459 36.618C38.5961 36.618 37.8965 35.9184 37.8965 35.0555C37.8965 34.1926 38.5961 33.493 39.459 33.493V36.618ZM44.5026 35.0555V33.493H44.5145L44.5026 35.0555ZM46.7187 32.8159H48.2812L48.2812 32.8271L46.7187 32.8159ZM45.1562 27.0846C45.1562 26.2217 45.8558 25.5221 46.7187 25.5221C47.5817 25.5221 48.2812 26.2217 48.2812 27.0846H45.1562ZM26.7774 10.418C26.7774 9.55503 27.477 8.85547 28.34 8.85547C29.2029 8.85547 29.9025 9.55503 29.9025 10.418H26.7774ZM29.9025 21.3534C29.9025 22.2163 29.2029 22.9159 28.34 22.9159C27.477 22.9159 26.7774 22.2163 26.7774 21.3534H29.9025ZM46.7187 25.5221C47.5817 25.5221 48.2812 26.2217 48.2812 27.0846C48.2812 27.9476 47.5817 28.6471 46.7187 28.6471V25.5221ZM42.6704 28.6471C41.8075 28.6471 41.1079 27.9476 41.1079 27.0846C41.1079 26.2217 41.8075 25.5221 42.6704 25.5221V28.6471ZM2.03117 28.6471C1.16825 28.6471 0.46867 27.9476 0.46867 27.0846C0.46867 26.2217 1.16825 25.5221 2.03117 25.5221V28.6471ZM6.25012 25.5221C7.11304 25.5221 7.81262 26.2217 7.81262 27.0846C7.81262 27.9476 7.11304 28.6471 6.25012 28.6471V25.5221ZM40.377 21.8921L38.8191 17.6504L41.7524 16.573L43.3104 20.8147L40.377 21.8921ZM38.8317 17.6837C38.0716 15.7515 37.3097 14.3318 36.3577 13.3911C35.4722 12.5162 34.3462 11.9805 32.6198 11.9805V8.85547C35.1265 8.85547 37.0545 9.68643 38.5542 11.1682C39.9874 12.5844 40.9419 14.5115 41.7398 16.5397L38.8317 17.6837ZM32.6198 11.9805H28.34V8.85547H32.6198V11.9805ZM41.8437 19.7909H44.5026V22.9159H41.8437V19.7909ZM44.4907 19.7909C45.5015 19.7832 46.4658 20.1882 47.1736 20.9034L44.9523 23.1015C44.8288 22.9767 44.6706 22.9146 44.5145 22.9159L44.4907 19.7909ZM47.1736 20.9034C47.88 21.6173 48.274 22.5815 48.2812 23.5817L45.1562 23.6042C45.1548 23.4076 45.0771 23.2276 44.9523 23.1015L47.1736 20.9034ZM48.2812 23.593V27.0846H45.1562V23.593H48.2812ZM41.8437 22.9159H28.34V19.7909H41.8437V22.9159ZM9.30908 20.8147L10.867 16.573L13.8003 17.6504L12.2424 21.8921L9.30908 20.8147ZM10.8797 16.5397C11.6776 14.5115 12.632 12.5844 14.0653 11.1682C15.5649 9.68643 17.493 8.85547 19.9997 8.85547V11.9805C18.2732 11.9805 17.1472 12.5162 16.2618 13.3911C15.3097 14.3318 14.5478 15.7515 13.7878 17.6837L10.8797 16.5397ZM19.9997 8.85547H28.34V11.9805H19.9997V8.85547ZM10.7757 19.7909H28.34V22.9159H10.7757V19.7909ZM10.7757 22.9159H4.24533V19.7909H10.7757V22.9159ZM4.23491 22.9159C3.92033 22.9138 3.59679 23.184 3.59367 23.6042L0.46867 23.5817C0.483669 21.5113 2.14179 19.7768 4.25575 19.7909L4.23491 22.9159ZM3.59367 23.593V27.0846H0.46867V23.593H3.59367ZM17.6901 33.493H30.5946V36.618H17.6901V33.493ZM8.82575 36.618H4.24721V33.493H8.82575V36.618ZM4.25929 36.618C3.24846 36.6257 2.28408 36.2207 1.57638 35.5055L3.79762 33.3073C3.92117 33.4321 4.07929 33.4942 4.23533 33.493L4.25929 36.618ZM1.57638 35.5055C0.869919 34.7915 0.47596 33.8273 0.46867 32.8271L3.59367 32.8046C3.59513 33.0013 3.67283 33.1813 3.79762 33.3073L1.57638 35.5055ZM0.46867 32.8159V27.0846H3.59367V32.8159H0.46867ZM39.459 33.493H44.5026V36.618H39.459V33.493ZM44.5145 33.493C44.6706 33.4942 44.8288 33.4321 44.9523 33.3073L47.1736 35.5055C46.4658 36.2207 45.5015 36.6257 44.4907 36.618L44.5145 33.493ZM44.9523 33.3073C45.0771 33.1813 45.1548 33.0013 45.1562 32.8046L48.2812 32.8271C48.274 33.8273 47.88 34.7915 47.1736 35.5055L44.9523 33.3073ZM45.1562 32.8159V27.0846H48.2812L48.2812 32.8159H45.1562ZM29.9025 10.418V21.3534H26.7774V10.418H29.9025ZM46.7187 28.6471H42.6704V25.5221H46.7187V28.6471ZM2.03117 25.5221H6.25012V28.6471H2.03117V25.5221Z" fill="#FF3A3A"/>
<g clip-path="url(#clip0_1027_11445)">
<path d="M20.8291 30.1533V27.6858H21.8573V26.8633H18.9785V27.6858H20.0066V30.1533H20.8291Z" fill="#FF3A3A"/>
<path d="M26.522 30.1533L27.1008 29.2629L27.6795 30.1533H28.6605L27.5913 28.5083L28.6605 26.8633H27.6795L27.1008 27.7537L26.522 26.8633H25.541L26.6103 28.5083L25.541 30.1533H26.522Z" fill="#FF3A3A"/>
<path d="M30.0823 26.8633H29.2598V30.1533H30.0823V26.8633Z" fill="#FF3A3A"/>
<path d="M30.0823 25.0117H18.9785V25.8342H30.0823V25.0117Z" fill="#FF3A3A"/>
<path d="M30.0823 31.1836H18.9785V32.0061H30.0823V31.1836Z" fill="#FF3A3A"/>
<path d="M24.1535 29.5364L24.3591 30.1533H25.2261L24.1294 26.8633H22.9483L21.9346 30.1533H22.7952L22.9854 29.5364H24.1535ZM23.5464 27.7152L23.8793 28.7139H23.2387L23.5464 27.7152Z" fill="#FF3A3A"/>
</g>
<defs>
<clipPath id="clip0_1027_11445">
<rect width="11.06" height="7" fill="white" transform="translate(19 25)"/>
</clipPath>
</defs>
</svg>
