<svg width="17" height="17" viewBox="0 0 17 17" fill="none" xmlns="http://www.w3.org/2000/svg">
<path d="M16.0834 5.5686C15.9499 5.70207 15.5495 5.90228 15.1491 5.5686L12.8133 3.03262V16.0462C12.8133 16.4466 12.5464 16.7135 12.146 16.7135C11.7456 16.7135 11.4786 16.4466 11.4786 16.0462V3.03262L9.14286 5.50186C8.87591 5.7688 8.4755 5.7688 8.20855 5.50186C7.94161 5.23491 7.94161 4.8345 8.20855 4.56755L11.5454 1.03053C11.879 0.696853 12.4797 0.696853 12.8133 1.03053L16.1502 4.56755C16.4171 4.90123 16.3504 5.30165 16.0834 5.5686ZM7.14077 12.042L4.80501 14.5112V1.49769C4.80501 1.09727 4.53806 0.830326 4.13764 0.830326C3.73723 0.830326 3.47028 1.09727 3.47028 1.49769V14.5112L1.13451 12.042C0.86757 11.7751 0.467153 11.7751 0.200209 12.042C-0.0667362 12.3089 -0.0667362 12.7094 0.200209 12.9763L3.53702 16.5133C3.73723 16.7135 3.93744 16.7803 4.20438 16.7803C4.47132 16.7803 4.67153 16.6468 4.87174 16.5133L8.20855 12.9763C8.4755 12.7094 8.4755 12.3089 8.20855 12.042C7.80813 11.7751 7.34098 11.7751 7.14077 12.042Z" fill="#ACACAC"/>
</svg>
