<svg width="105" height="65" viewBox="100 0 914 660" fill="none" xmlns="http://www.w3.org/2000/svg">
<path d="M290.335 184.983C271.668 189.65 252.068 200.983 239.535 214.316C233.135 221.116 223.135 236.583 220.068 244.05C214.602 258.183 213.535 263.116 213.935 274.183L214.335 285.383L220.068 285.783C239.135 287.116 268.468 269.383 285.135 246.716C297.935 229.116 305.402 206.85 304.068 190.05C303.668 184.45 303.402 184.05 299.668 183.916C297.535 183.783 293.268 184.316 290.335 184.983Z" fill="black"/>
<path d="M124.335 288.716C106.335 292.45 100.468 294.85 85.0013 304.583C57.0013 322.183 37.9347 353.783 32.068 392.05C26.2013 431.25 35.668 482.05 56.7347 525.383C68.3347 549.383 81.1347 568.45 98.868 588.583C119.135 611.516 136.468 619.25 157.668 614.983C168.335 612.85 174.735 610.85 180.735 607.916C182.868 606.85 185.401 606.05 186.335 606.05C187.401 606.05 190.201 605.25 192.601 604.183C199.001 601.383 214.335 598.983 223.535 599.116C233.135 599.383 246.068 602.05 256.335 606.05C277.801 614.316 279.135 614.583 295.001 614.583C309.801 614.583 310.601 614.45 318.468 610.183C343.001 596.983 370.735 559.783 391.401 512.316C395.268 503.783 394.468 500.05 388.335 496.85C379.135 492.05 373.135 487.783 365.668 480.45C347.801 463.116 340.068 447.916 337.001 424.716C334.468 404.316 337.535 383.25 345.268 369.383C347.001 366.45 348.868 362.716 349.668 360.983C351.268 357.116 368.468 339.783 375.668 334.583C380.868 330.85 383.001 328.716 383.001 327.383C383.001 326.05 367.535 310.45 362.335 306.583C356.868 302.45 343.935 295.916 334.335 292.316C312.735 284.183 284.201 283.916 262.335 291.516C260.201 292.316 256.601 293.383 254.335 294.05C252.201 294.716 247.001 296.45 243.001 298.05C218.601 307.516 214.735 307.783 193.401 299.916C185.801 297.116 178.868 294.583 173.668 292.716C171.135 291.916 166.335 290.583 163.001 289.916C159.668 289.25 154.601 288.183 151.668 287.516C144.201 285.65 137.535 285.916 124.335 288.716Z" fill="black"/>
<path d="M482.335 312.183C464.868 318.583 461.535 339.25 476.468 349.917C486.468 357.25 499.801 354.85 507.135 344.45C511.668 338.183 511.268 326.45 506.468 320.183C500.735 312.583 490.601 309.25 482.335 312.183Z" fill="black"/>
<path d="M619.001 313.383C577.135 319.917 547.268 348.183 535.801 392.05C528.868 419.117 530.601 456.183 539.935 481.383C553.935 518.85 583.001 541.783 623.668 547.25C637.401 549.117 644.868 548.983 659.668 546.85C690.335 542.05 712.068 528.983 728.468 505.383C733.801 497.917 741.668 481.783 741.668 478.583C741.668 477.517 742.335 475.383 743.135 473.917C745.401 469.65 749.668 440.85 749.668 430.05C749.668 419.783 745.668 392.983 742.868 384.717C732.868 354.717 715.535 333.917 691.001 322.583C678.468 316.717 674.468 315.517 660.468 313.383C645.935 311.117 633.268 311.117 619.001 313.383ZM655.935 348.583C661.135 349.917 668.601 352.85 672.735 355.25C679.935 359.383 691.401 370.583 693.935 376.05C694.601 377.517 696.601 381.383 698.335 384.717C700.068 388.05 701.535 391.65 701.535 392.85C701.668 394.05 702.735 397.383 703.935 400.183C707.268 408.05 707.268 450.45 703.801 460.717C701.135 468.583 698.068 476.183 696.201 479.383C695.535 480.45 694.468 482.583 693.801 484.183C691.401 489.517 679.135 501.383 672.068 505.25C664.335 509.383 647.668 514.05 640.335 514.05C633.001 514.05 616.335 509.383 609.001 505.383C605.401 503.383 599.668 498.85 596.335 495.517C590.468 489.65 581.668 476.717 581.668 474.05C581.668 473.383 580.868 470.85 579.801 468.45C576.068 459.65 573.668 444.983 573.668 430.05C573.668 402.85 580.601 381.65 594.601 366.183C602.468 357.517 611.801 351.917 624.335 348.583C635.668 345.517 644.335 345.517 655.935 348.583Z" fill="black"/>
<path d="M837.669 312.983C818.469 316.05 801.402 324.183 789.935 335.65C767.002 358.183 765.135 396.183 785.802 418.717C794.869 428.45 815.269 438.85 831.669 442.05C838.202 443.25 848.202 445.783 856.602 448.183C860.069 449.25 863.802 450.05 865.002 450.05C867.669 450.05 882.202 454.85 886.069 457.117C900.335 465.117 906.069 475.383 903.002 488.05C901.402 494.85 893.402 506.05 890.202 506.05C889.535 506.05 888.202 506.717 887.402 507.517C883.402 511.517 871.669 514.05 857.002 514.05C840.469 514.05 833.269 512.183 822.069 505.117C814.869 500.317 812.469 497.383 807.002 486.717L803.669 480.05L786.469 479.65C763.935 479.117 763.135 479.917 768.202 496.05C772.069 508.317 777.135 516.717 785.535 524.85C793.002 532.183 795.802 534.05 805.669 538.717C816.869 544.05 839.802 548.717 854.869 548.717C891.802 548.717 924.335 533.65 937.002 510.717C950.869 485.517 947.802 454.583 929.535 436.717C923.402 430.717 904.735 420.317 895.935 417.917C887.802 415.783 879.669 413.783 872.335 412.05C868.335 411.117 862.069 409.517 858.335 408.717C854.735 407.783 849.535 406.583 847.002 406.05C834.335 403.117 822.602 396.583 817.669 389.783C814.335 385.117 813.669 383.117 813.669 376.317C813.669 364.317 818.735 356.85 831.002 350.45C837.669 347.117 839.802 346.717 854.735 346.317C869.402 345.917 872.069 346.183 878.069 348.717C881.935 350.317 887.002 353.117 889.402 354.983C894.335 358.717 901.669 370.583 901.669 374.983C901.669 379.117 904.469 379.517 924.335 379.117L941.002 378.717L941.402 375.117C941.935 370.85 937.802 356.983 933.402 348.717C926.735 335.917 909.802 322.717 892.335 316.717C879.135 312.183 853.269 310.317 837.669 312.983Z" fill="black"/>
<path d="M470.335 378.317C469.935 379.251 469.801 416.984 469.935 462.051L470.335 544.051L488.335 544.451C504.068 544.717 506.468 544.451 507.935 542.451C510.335 539.251 510.468 380.717 508.068 378.317C505.801 376.051 471.135 376.051 470.335 378.317Z" fill="black"/>
</svg>
