<svg width="119" height="96" viewBox="0 0 119 96" fill="none" xmlns="http://www.w3.org/2000/svg">
<g clip-path="url(#clip0_31355_33878)">
<path d="M22.4155 66.9407L48.359 41.7969C47.4723 42.6562 47.0846 44.0385 47.3907 45.7898L21.4472 70.9337C21.1412 69.1824 21.5288 67.8001 22.4155 66.9407Z" fill="#111111"/>
<path d="M21.448 71.0863C21.4127 71.0863 21.3785 71.0738 21.3515 71.0511C21.3245 71.0284 21.3063 70.9968 21.3002 70.962C20.997 69.227 21.3563 67.7615 22.3119 66.8353L48.2554 41.6916C48.2695 41.6777 48.2862 41.6667 48.3046 41.6593C48.323 41.6519 48.3426 41.6482 48.3624 41.6484C48.3822 41.6487 48.4018 41.6528 48.42 41.6607C48.4381 41.6685 48.4546 41.6799 48.4684 41.6941C48.4822 41.7083 48.493 41.7251 48.5002 41.7436C48.5075 41.762 48.511 41.7817 48.5107 41.8015C48.5103 41.8213 48.506 41.8409 48.498 41.859C48.49 41.8771 48.4786 41.8935 48.4642 41.9072C47.5823 42.7619 47.2538 44.1325 47.5393 45.7665C47.5435 45.7906 47.5418 45.8155 47.5342 45.8388C47.5267 45.8621 47.5135 45.8832 47.4959 45.9003L21.5523 71.044C21.5243 71.0712 21.4869 71.0863 21.448 71.0863ZM22.5206 67.0511C21.6901 67.8558 21.3505 69.1178 21.5518 70.6264L47.2302 45.7395C47.0524 44.6555 47.1354 43.6793 47.4626 42.8777L22.5206 67.0511Z" fill="#111111"/>
<path d="M36.3184 72.909C35.6443 69.4631 32.6195 66.2359 29.306 65.1038C27.6025 64.5329 26.0275 64.7577 25.164 65.6244L23.0664 67.6573C23.9294 66.7908 25.5052 66.566 27.2084 67.137C29.3615 67.8396 31.3696 69.5164 32.6708 71.3981C34.012 73.3375 35.138 76.6595 33.3988 78.3321L35.4964 76.2992C36.2493 75.5694 36.5783 74.3959 36.3184 72.909Z" fill="#111111"/>
<path d="M33.3997 78.4835C33.3698 78.4835 33.3406 78.4746 33.3158 78.4579C33.291 78.4412 33.2717 78.4174 33.2605 78.3897C33.2493 78.3619 33.2466 78.3315 33.2528 78.3022C33.259 78.2729 33.2738 78.2462 33.2953 78.2254L33.3102 78.211C35.0012 76.5591 33.7427 73.2118 32.5483 71.4848C31.1803 69.5065 29.1671 67.935 27.1627 67.2809C25.577 66.749 24.0813 66.9142 23.2315 67.7082L23.1716 67.7662C23.1432 67.7934 23.1051 67.8083 23.0658 67.8077C23.0264 67.8071 22.9888 67.7911 22.9612 67.763C22.9335 67.735 22.918 67.6971 22.918 67.6577C22.9179 67.6183 22.9334 67.5805 22.961 67.5524C22.9817 67.5316 23.0027 67.5112 23.0241 67.4913C24.4799 66.0804 24.9173 65.6568 25.0691 65.5299L25.0588 65.5196C25.9785 64.5963 27.6246 64.3829 29.3545 64.9626C32.8092 66.143 35.7998 69.4733 36.4666 72.8815C36.4667 72.8825 36.4669 72.8835 36.467 72.8845C36.7258 74.3652 36.4184 75.6167 35.6015 76.4083L33.519 78.4264L33.5034 78.4416C33.4756 78.4685 33.4384 78.4836 33.3997 78.4835ZM25.39 66.6735C25.9785 66.6735 26.6119 66.7795 27.257 66.9959C29.3203 67.6692 31.3912 69.2836 32.7951 71.314C33.548 72.4027 34.1248 73.758 34.3385 74.9397C34.504 75.8549 34.4618 76.6614 34.2194 77.33L35.3931 76.1926C36.136 75.4726 36.4125 74.3165 36.172 72.9375C35.5241 69.6287 32.6168 66.3945 29.2586 65.247C27.6386 64.7042 26.1103 64.8897 25.2714 65.7316L24.0972 66.8695C24.4894 66.7396 24.9257 66.6735 25.39 66.6735Z" fill="#111111"/>
<path d="M27.2079 67.1371C30.5161 68.213 33.6548 71.7065 34.2203 74.9425C34.7856 78.1773 32.5635 79.9288 29.2552 78.8531C25.9483 77.7777 22.8093 74.2828 22.2441 71.0481C21.6787 67.8121 23.901 66.0619 27.2079 67.1371Z" fill="black"/>
<path d="M31.1052 79.328C30.5204 79.328 29.8834 79.2196 29.2105 79.0006C25.8617 77.9117 22.6709 74.3579 22.098 71.0786C21.8261 69.5233 22.1739 68.2347 23.0771 67.45C24.0545 66.6007 25.539 66.4408 27.256 66.9991C30.6056 68.0883 33.7968 71.6421 34.3698 74.9214C34.6415 76.4762 34.2937 77.7649 33.3904 78.5496C32.7957 79.0663 32.0134 79.328 31.1052 79.328ZM25.3624 66.9722C24.527 66.9722 23.8122 67.209 23.2738 67.6767C22.4532 68.3896 22.1406 69.5793 22.3934 71.0268C22.9494 74.2078 26.0491 77.6567 29.3032 78.7149C30.9171 79.24 32.2986 79.1005 33.1937 78.3227C34.0144 77.6098 34.3271 76.4201 34.0742 74.973C33.5184 71.792 30.4181 68.3431 27.1632 67.2847C26.5208 67.0759 25.9151 66.9722 25.3624 66.9722Z" fill="#111111"/>
<path d="M27.7458 70.2132C26.1718 69.7013 25.1126 70.5356 25.3816 72.0753C25.6506 73.6148 27.1463 75.2784 28.7204 75.7903C30.2944 76.3021 31.3522 75.4689 31.0832 73.9294C30.8142 72.3897 29.3198 70.7251 27.7458 70.2132Z" fill="#111111"/>
<path d="M29.6019 76.088C29.3152 76.088 29.0039 76.0351 28.6756 75.9284C27.0558 75.4016 25.5126 73.6827 25.2355 72.0964C25.1012 71.3282 25.2761 70.6889 25.728 70.2964C26.2155 69.8729 26.9493 69.7913 27.7939 70.0657C29.4127 70.5922 30.9552 72.3117 31.2326 73.8987C31.3669 74.6669 31.1921 75.306 30.7407 75.6982C30.443 75.9571 30.0531 76.088 29.6019 76.088ZM26.8755 70.2094C26.4931 70.2094 26.164 70.3151 25.9247 70.5231C25.5555 70.844 25.4155 71.3842 25.5309 72.0446C25.7909 73.5327 27.2432 75.1467 28.7683 75.6426C29.4982 75.88 30.1453 75.8176 30.5438 75.4715C30.9126 75.151 31.0523 74.6109 30.9369 73.9505C30.6767 72.4615 29.225 70.847 27.701 70.3513C27.4092 70.2564 27.1306 70.2094 26.8755 70.2094Z" fill="#111111"/>
<path d="M57.5401 44.0683L58.3906 48.9357L64.6933 85.0024L35.5539 75.5268C34.888 71.7166 31.1892 67.5996 27.2941 66.3329C23.3974 65.0658 20.78 67.1289 21.4457 70.9391L7.54363 66.4184L0.390625 25.4844L57.5401 44.0683Z" fill="black"/>
<path d="M64.6949 85.1468C64.6792 85.1469 64.6635 85.1444 64.6485 85.1395L35.509 75.664C35.4831 75.6555 35.4599 75.6402 35.4421 75.6196C35.4242 75.599 35.4123 75.5739 35.4076 75.547C34.7513 71.7915 31.0916 67.7196 27.2494 66.4701C25.3396 65.8491 23.7029 66.015 22.6412 66.9373C21.6672 67.7836 21.2957 69.1935 21.5953 70.9075C21.5999 70.933 21.5977 70.9593 21.5891 70.9837C21.5804 71.0082 21.5656 71.03 21.546 71.047C21.5265 71.064 21.5029 71.0756 21.4775 71.0807C21.4521 71.0859 21.4258 71.0844 21.4012 71.0763L7.49907 66.5556C7.47315 66.5471 7.45001 66.5318 7.43214 66.5112C7.41428 66.4906 7.40235 66.4655 7.39765 66.4386L0.24449 25.5043C0.239968 25.4788 0.242131 25.4525 0.25077 25.4281C0.259408 25.4037 0.274227 25.3819 0.293781 25.3649C0.313335 25.3479 0.336957 25.3362 0.362344 25.3311C0.38773 25.326 0.414014 25.3275 0.438633 25.3355L57.5881 43.9196C57.6409 43.9369 57.6799 43.9818 57.6895 44.0366L64.8427 84.9709C64.8465 84.9924 64.8455 85.0146 64.8398 85.0358C64.8341 85.0569 64.8239 85.0766 64.8098 85.0934C64.7957 85.1101 64.7781 85.1236 64.7583 85.1329C64.7384 85.1421 64.7168 85.1469 64.6949 85.1468ZM35.6871 75.406L64.5042 84.7767L57.4096 44.1773L0.583116 25.6983L7.67776 66.2978L21.2612 70.7149C21.0194 69.0025 21.4357 67.587 22.4447 66.7104C23.5887 65.7162 25.328 65.5294 27.3424 66.1844C31.2488 67.4549 34.972 71.5772 35.6871 75.406Z" fill="#111111"/>
<path d="M35.5541 75.524L64.6935 84.9995L63.7374 79.5286L31.8398 69.1562C33.7367 70.9629 35.1646 73.2956 35.5541 75.524Z" fill="white"/>
<path d="M64.6954 85.1516C64.6796 85.1516 64.664 85.1491 64.649 85.1443L35.5096 75.6687C35.4837 75.6603 35.4606 75.6449 35.4427 75.6243C35.4248 75.6037 35.4129 75.5786 35.4082 75.5518C35.0366 73.425 33.6989 71.1342 31.7384 69.2669C31.7136 69.2435 31.6975 69.2123 31.6928 69.1785C31.6881 69.1447 31.6951 69.1103 31.7126 69.081C31.73 69.0517 31.757 69.0292 31.7889 69.0173C31.8208 69.0053 31.8559 69.0047 31.8883 69.0154L63.7859 79.3878C63.8387 79.405 63.8777 79.4499 63.8873 79.5047L64.8433 84.9758C64.8471 84.9974 64.8461 85.0195 64.8404 85.0407C64.8347 85.0618 64.8244 85.0815 64.8103 85.0982C64.7962 85.115 64.7786 85.1284 64.7588 85.1377C64.7389 85.1469 64.7173 85.1516 64.6954 85.1516ZM35.6876 75.4108L64.5045 84.7815L63.607 79.6453L32.3946 69.4957C34.1295 71.2923 35.3153 73.4154 35.6876 75.4108Z" fill="#111111"/>
<path d="M23.2494 66.3629L6.58984 60.9453L7.54586 66.4162L21.448 70.9369C21.0585 68.7086 21.7935 67.0794 23.2494 66.3629Z" fill="white"/>
<path d="M21.4496 71.089C21.4339 71.089 21.4182 71.0865 21.4033 71.0816L7.50115 66.5609C7.47522 66.5525 7.45209 66.5371 7.43422 66.5165C7.41635 66.4959 7.40443 66.4708 7.39972 66.444L6.44371 60.9731C6.43919 60.9475 6.44135 60.9213 6.44999 60.8969C6.45863 60.8724 6.47345 60.8506 6.493 60.8336C6.51255 60.8166 6.53618 60.805 6.56156 60.7999C6.58695 60.7947 6.61323 60.7962 6.63785 60.8043L23.2974 66.2219C23.3259 66.2311 23.3509 66.2486 23.3693 66.2722C23.3877 66.2957 23.3987 66.3242 23.4008 66.354C23.4029 66.3838 23.3961 66.4136 23.3812 66.4395C23.3663 66.4655 23.3441 66.4864 23.3172 66.4995C21.8594 67.2168 21.2325 68.8254 21.5973 70.913C21.601 70.9346 21.6001 70.9567 21.5944 70.9779C21.5887 70.999 21.5785 71.0187 21.5644 71.0355C21.5504 71.0522 21.5328 71.0657 21.513 71.075C21.4931 71.0842 21.4715 71.089 21.4496 71.089ZM7.67969 66.3033L21.263 70.7204C20.985 68.7581 21.5648 67.2123 22.8761 66.4009L6.78218 61.1671L7.67969 66.3033Z" fill="#111111"/>
<path d="M57.543 44.0657L83.4865 18.9219L84.3372 23.7894L58.3935 48.9333L57.543 44.0657Z" fill="black"/>
<path d="M58.3912 49.0853C58.3559 49.0853 58.3217 49.0728 58.2947 49.0501C58.2677 49.0273 58.2495 48.9958 58.2434 48.961L57.3929 44.0934C57.3886 44.0693 57.3904 44.0445 57.3979 44.0211C57.4055 43.9978 57.4187 43.9767 57.4362 43.9596L83.3798 18.8158C83.3993 18.7968 83.4237 18.7835 83.4503 18.7773C83.4769 18.7712 83.5046 18.7724 83.5305 18.7808C83.5565 18.7892 83.5796 18.8046 83.5975 18.8252C83.6154 18.8458 83.6273 18.8709 83.632 18.8977L84.4825 23.7653C84.4867 23.7895 84.485 23.8143 84.4775 23.8376C84.4699 23.8609 84.4567 23.882 84.4391 23.8991L58.4956 49.0431C58.4676 49.0702 58.4302 49.0854 58.3912 49.0853ZM57.7021 44.1203L58.4902 48.6304L84.1733 23.739L83.3852 19.229L57.7021 44.1203Z" fill="#111111"/>
<path d="M0.390625 25.4798L26.3341 0.335938L83.4836 18.9198L57.5401 44.0637L0.390625 25.4798Z" fill="white"/>
<path d="M57.5418 44.2156C57.5261 44.2156 57.5104 44.2131 57.4954 44.2082L0.345965 25.6243C0.321335 25.6163 0.299191 25.6021 0.281684 25.583C0.264178 25.5639 0.251906 25.5406 0.246061 25.5154C0.240216 25.4901 0.240997 25.4638 0.248329 25.4389C0.255661 25.4141 0.269294 25.3916 0.287902 25.3736L26.2314 0.229835C26.251 0.210839 26.2754 0.197544 26.302 0.19138C26.3285 0.185215 26.3563 0.186415 26.3822 0.194849L83.5317 18.7788C83.5563 18.7867 83.5784 18.801 83.596 18.8201C83.6135 18.8392 83.6257 18.8625 83.6316 18.8877C83.6374 18.9129 83.6366 18.9393 83.6293 18.9641C83.622 18.989 83.6083 19.0115 83.5897 19.0295L57.6462 44.1732C57.6183 44.2004 57.5808 44.2156 57.5418 44.2156ZM0.675739 25.4157L57.5023 43.8945L83.2019 18.9873L26.3753 0.508372L0.675739 25.4157Z" fill="#111111"/>
<path d="M70.9 82.7142L96.8436 57.5703C95.9569 58.4296 95.569 59.812 95.8752 61.5635L69.9316 86.7074C69.6255 84.9558 70.0133 83.5735 70.9 82.7142Z" fill="#111111"/>
<path d="M69.9324 86.8524C69.8971 86.8524 69.8629 86.8399 69.8359 86.8172C69.8088 86.7944 69.7907 86.7629 69.7846 86.7281C69.4814 84.9929 69.8407 83.5272 70.7963 82.6011L96.7398 57.4572C96.7539 57.4433 96.7706 57.4323 96.789 57.4249C96.8073 57.4175 96.827 57.4138 96.8468 57.4141C96.8666 57.4143 96.8861 57.4185 96.9043 57.4263C96.9225 57.4341 96.939 57.4455 96.9528 57.4597C96.9665 57.4739 96.9774 57.4908 96.9846 57.5092C96.9919 57.5276 96.9954 57.5473 96.995 57.5671C96.9946 57.5869 96.9903 57.6065 96.9824 57.6246C96.9744 57.6428 96.9629 57.6592 96.9486 57.6728L96.9458 57.6755C96.0658 58.5307 95.7384 59.9001 96.0237 61.5324C96.0279 61.5566 96.0262 61.5814 96.0186 61.6047C96.011 61.628 95.9979 61.6491 95.9803 61.6662L70.0366 86.8101C70.0087 86.8372 69.9713 86.8524 69.9324 86.8524ZM95.9473 58.6434L71.0051 82.8169C70.1747 83.6217 69.835 84.8837 70.0363 86.3925L95.7147 61.5055C95.5369 60.4214 95.6199 59.4453 95.9473 58.6434Z" fill="#111111"/>
<path d="M88.8709 78.5248C90.1185 79.9932 91.1718 81.95 91.5023 83.6439L92.8616 91.402C92.9912 92.1437 92.8269 92.7293 92.4513 93.0936L118.395 67.9499C118.77 67.5858 118.935 67.0002 118.805 66.2582L117.446 58.5003C117.115 56.8066 116.062 54.8493 114.814 53.381V53.3811L95.2077 29.914C93.461 27.8084 90.9706 25.9385 88.482 25.1379L84.3341 23.7891L58.3906 48.9329L62.5385 50.2816C65.0277 51.0828 67.5167 52.9515 69.264 55.0579V55.0577L88.8709 78.5248Z" fill="white"/>
<path d="M92.453 93.2456C92.4231 93.2457 92.3938 93.2367 92.369 93.22C92.3442 93.2033 92.325 93.1796 92.3138 93.1518C92.3025 93.1241 92.2998 93.0936 92.306 93.0643C92.3122 93.0351 92.327 93.0083 92.3485 92.9875C92.7011 92.646 92.8313 92.0927 92.7155 91.4298L91.3562 83.6719C91.0455 82.0797 90.0497 80.1442 88.7582 78.624L88.7575 78.6231L69.1508 55.156C67.3171 52.9457 64.8288 51.1778 62.4942 50.4264L58.346 49.0776C58.3213 49.0696 58.2992 49.0554 58.2817 49.0363C58.2642 49.0172 58.2519 48.9939 58.2461 48.9686C58.2402 48.9434 58.241 48.9171 58.2483 48.8922C58.2557 48.8674 58.2693 48.8448 58.2879 48.8268L84.2314 23.683C84.251 23.664 84.2754 23.6507 84.302 23.6445C84.3285 23.6383 84.3563 23.6395 84.3822 23.648L87.8819 24.786C88.2405 24.9027 88.428 24.9636 88.5261 25.0073L88.5296 24.9967C90.9162 25.7646 93.4564 27.5676 95.3249 29.8198L114.931 53.2864C116.253 54.8423 117.274 56.8302 117.595 58.4732L118.955 66.234C119.088 66.9981 118.927 67.6463 118.501 68.0594L92.5574 93.2033C92.5294 93.2304 92.4919 93.2456 92.453 93.2456ZM88.9872 78.4298C90.31 79.9869 91.3309 81.9745 91.6513 83.6171L93.0111 91.378C93.0725 91.7286 93.0717 92.0547 93.0117 92.345L118.292 67.8439C118.645 67.5023 118.775 66.949 118.659 66.2861L117.3 58.5282C116.989 56.9356 115.993 55.0001 114.702 53.4803L95.0943 30.0121C93.2606 27.8016 90.7723 26.0338 88.4378 25.2827L84.3753 23.9616L58.6757 48.869L62.5865 50.1405C64.9728 50.9086 67.513 52.7118 69.3812 54.9638L88.9872 78.4298Z" fill="#111111"/>
<path d="M109.347 71.9766L101.297 79.7783L101.717 82.183L109.767 74.3813L109.347 71.9766Z" fill="black"/>
<path d="M101.719 82.3352C101.683 82.3352 101.649 82.3227 101.622 82.2999C101.595 82.2772 101.577 82.2457 101.571 82.2109L101.151 79.8061C101.146 79.782 101.148 79.7572 101.156 79.7338C101.163 79.7105 101.176 79.6894 101.194 79.6723L109.244 71.8705C109.264 71.8515 109.288 71.8382 109.314 71.832C109.341 71.8258 109.369 71.827 109.395 71.8355C109.421 71.8439 109.444 71.8592 109.462 71.8799C109.48 71.9005 109.491 71.9256 109.496 71.9524L109.916 74.3572C109.921 74.3813 109.919 74.4061 109.911 74.4295C109.904 74.4528 109.891 74.4739 109.873 74.491L101.823 82.2928C101.795 82.32 101.758 82.3352 101.719 82.3352ZM101.46 79.8329L101.818 81.8801L109.607 74.3307L109.249 72.2835L101.46 79.8329Z" fill="#111111"/>
<path d="M116.536 60.2969L112.266 64.4359L113.148 69.4882L117.419 65.3491L116.536 60.2969Z" fill="white"/>
<path d="M113.15 69.632C113.115 69.632 113.081 69.6195 113.054 69.5968C113.027 69.5741 113.008 69.5425 113.002 69.5077L112.119 64.4556C112.115 64.4315 112.117 64.4066 112.125 64.3833C112.132 64.36 112.145 64.3389 112.163 64.3218L116.434 60.1828C116.453 60.1639 116.477 60.1506 116.504 60.1445C116.531 60.1383 116.558 60.1396 116.584 60.148C116.61 60.1564 116.633 60.1717 116.651 60.1923C116.669 60.2129 116.681 60.2379 116.686 60.2648L117.569 65.3169C117.573 65.341 117.571 65.3659 117.563 65.3892C117.556 65.4125 117.543 65.4336 117.525 65.4507L113.255 69.5897C113.227 69.6169 113.189 69.6321 113.15 69.632ZM112.429 64.4822L113.249 69.1769L117.259 65.2905L116.439 60.5957L112.429 64.4822Z" fill="#111111"/>
<path d="M96.966 79.2656L92.6953 83.4046L93.5781 88.4567L97.8488 84.3177L96.966 79.2656Z" fill="white"/>
<path d="M93.5761 88.6013C93.5408 88.6013 93.5066 88.5888 93.4796 88.5661C93.4525 88.5433 93.4344 88.5118 93.4283 88.477L92.5455 83.4249C92.5412 83.4008 92.543 83.3759 92.5505 83.3526C92.5581 83.3293 92.5712 83.3082 92.5888 83.2911L96.8595 79.1521C96.8792 79.1332 96.9035 79.12 96.9301 79.1139C96.9566 79.1078 96.9843 79.109 97.0102 79.1174C97.0361 79.1259 97.0592 79.1412 97.0771 79.1617C97.095 79.1822 97.107 79.2073 97.1117 79.2341L97.9946 84.2862C97.9988 84.3103 97.997 84.3352 97.9895 84.3585C97.9819 84.3818 97.9688 84.4029 97.9512 84.42L93.6805 88.559C93.6525 88.5862 93.615 88.6014 93.5761 88.6013ZM92.8547 83.4516L93.6751 88.1464L97.6853 84.2599L96.8649 79.5652L92.8547 83.4516ZM95.0861 33.1094L72.2305 55.2604L87.0338 72.9783L109.889 50.8272L95.0861 33.1094Z" fill="#111111"/>
<path d="M87.0354 73.1301L87.0275 73.1299C87.0069 73.1288 86.9868 73.1235 86.9684 73.1143C86.9499 73.105 86.9336 73.0921 86.9204 73.0763L72.117 55.3584C72.0927 55.3293 72.0803 55.292 72.0822 55.2542C72.0842 55.2163 72.1004 55.1805 72.1277 55.1541L94.9832 33.0032C94.998 32.9888 95.0156 32.9777 95.035 32.9705C95.0543 32.9632 95.0749 32.9601 95.0955 32.9611C95.116 32.9622 95.1362 32.9675 95.1546 32.9768C95.1731 32.986 95.1894 32.9989 95.2027 33.0147L110.006 50.7327C110.03 50.7618 110.043 50.799 110.041 50.8369C110.039 50.8748 110.023 50.9105 109.995 50.9369L87.1397 73.0877C87.1118 73.1148 87.0744 73.13 87.0354 73.1301ZM72.4366 55.2728L87.0469 72.7596L109.686 50.8181L95.0761 33.3313L72.4366 55.2728Z" fill="#111111"/>
<path d="M84.7833 88.8386C84.1092 85.3927 81.0843 82.1656 77.7708 81.0334C76.0674 80.4625 74.4923 80.6875 73.6289 81.554L71.5312 83.5869C72.3942 82.7204 73.97 82.4956 75.6732 83.0667C77.8264 83.7692 79.8343 85.446 81.1357 87.3278C82.4768 89.2672 83.6028 92.5892 81.8636 94.2618L83.9612 92.2288C84.7141 91.4991 85.0431 90.3257 84.7833 88.8386Z" fill="#111111"/>
<path d="M81.8644 94.4132C81.8345 94.4132 81.8053 94.4043 81.7805 94.3876C81.7557 94.3709 81.7364 94.3471 81.7252 94.3194C81.714 94.2917 81.7113 94.2612 81.7175 94.2319C81.7237 94.2026 81.7385 94.1759 81.76 94.1551L81.775 94.1407C83.4659 92.489 82.2074 89.1417 81.0131 87.4145C79.6451 85.4363 77.6318 83.8647 75.6275 83.2106C74.0417 82.6787 72.5461 82.8439 71.6962 83.6381L71.6365 83.696C71.608 83.7233 71.57 83.7382 71.5306 83.7376C71.4912 83.737 71.4537 83.721 71.426 83.6929C71.3984 83.6648 71.3828 83.627 71.3828 83.5876C71.3828 83.5482 71.3982 83.5103 71.4258 83.4822C71.4465 83.4615 71.4675 83.4411 71.489 83.4211L73.5254 81.4475C74.4435 80.526 76.0896 80.3128 77.8195 80.8924C81.2742 82.0727 84.2648 85.403 84.9316 88.8112C84.9317 88.8122 84.9319 88.8132 84.932 88.8142C85.1908 90.2951 84.8834 91.5464 84.0665 92.3381L81.9841 94.356L81.9684 94.3713C81.9405 94.3983 81.9032 94.4133 81.8644 94.4132ZM73.8547 82.6032C74.4432 82.6032 75.0766 82.7092 75.7217 82.9256C77.785 83.5989 79.8558 85.2134 81.2598 87.2437C82.0127 88.3324 82.5895 89.6877 82.8032 90.8694C82.9687 91.7844 82.9265 92.5911 82.6841 93.2596L83.8578 92.1221C84.6007 91.4023 84.8772 90.2462 84.6367 88.8672C83.9889 85.5583 81.0817 82.3242 77.7233 81.1767C76.1031 80.6339 74.575 80.8194 73.736 81.6613L72.562 82.7992C72.9539 82.6693 73.3904 82.6032 73.8547 82.6032Z" fill="#111111"/>
<path d="M75.6727 83.0669C78.9809 84.1427 82.1196 87.6362 82.6851 90.8722C83.2504 94.107 81.0283 95.8586 77.7201 94.7829C74.4132 93.7074 71.2742 90.2126 70.709 86.9778C70.1435 83.7418 72.3658 81.9915 75.6727 83.0669Z" fill="black"/>
<path d="M79.5702 95.2577C78.9854 95.2577 78.3482 95.1491 77.6753 94.9303C74.3266 93.8414 71.1359 90.2877 70.5628 87.0083C70.2909 85.453 70.6387 84.1644 71.5419 83.3797C72.5195 82.5304 74.0037 82.3705 75.7208 82.9288C79.0705 84.018 82.2617 87.5718 82.8347 90.8511C83.1064 92.4061 82.7586 93.6947 81.8552 94.4794C81.2605 94.9961 80.4782 95.2577 79.5702 95.2577ZM73.8272 82.9019C72.9919 82.9019 72.2771 83.1387 71.7386 83.6064C70.9181 84.3193 70.6054 85.509 70.8582 86.9565C71.4142 90.1377 74.5139 93.5864 77.768 94.6446C79.3816 95.1694 80.7634 95.0302 81.6585 94.2525C82.4792 93.5396 82.7919 92.3499 82.5391 90.9027C81.9832 87.7217 78.8829 84.2728 75.6279 83.2143C74.9856 83.0056 74.38 82.9019 73.8272 82.9019Z" fill="#111111"/>
<path d="M76.2107 86.1429C74.6367 85.631 73.5774 86.4653 73.8464 88.005C74.1154 89.5445 75.6111 91.2081 77.1853 91.72C78.7593 92.2318 79.817 91.3986 79.548 89.8591C79.2789 88.3193 77.7847 86.6546 76.2107 86.1429Z" fill="#111111"/>
<path d="M78.0667 92.0176C77.78 92.0176 77.4687 91.9648 77.1404 91.858C75.5207 91.3313 73.9774 89.6123 73.7003 88.0261C73.566 87.2579 73.741 86.6185 74.1929 86.226C74.6803 85.8027 75.4143 85.7209 76.2587 85.9954C77.8776 86.5218 79.4201 88.2414 79.6975 89.8284C79.8317 90.5966 79.657 91.2356 79.2055 91.6278C78.9078 91.8867 78.5179 92.0176 78.0667 92.0176ZM75.3403 86.1392C74.9579 86.1392 74.6289 86.2449 74.3896 86.4529C74.0203 86.7738 73.8805 87.314 73.9959 87.9744C74.2559 89.4625 75.7082 91.0765 77.2333 91.5724C77.9634 91.8098 78.6103 91.7474 79.0088 91.4012C79.3776 91.0808 79.5173 90.5407 79.4019 89.8803C79.1417 88.3912 77.69 86.7768 76.166 86.2811C75.874 86.1862 75.5954 86.1392 75.3403 86.1392Z" fill="#111111"/>
<path d="M62.5385 50.2862C64.9267 51.0628 67.3742 52.8013 69.2642 55.0623L88.8709 78.5294C90.2882 80.2251 91.2405 82.1292 91.5466 83.8809L92.8616 91.4065C93.1437 93.0208 92.034 93.8949 90.3837 93.3582L84.0378 91.2947C83.372 87.4845 79.6749 83.368 75.778 82.1008C71.8829 80.8343 69.2655 82.8973 69.9314 86.7074L64.6931 85.0041L58.3906 48.9375L62.5385 50.2862Z" fill="white"/>
<path d="M91.3078 93.6621C91.0081 93.6621 90.6825 93.6067 90.3391 93.4952L83.9933 91.4316C83.9673 91.4231 83.9442 91.4078 83.9263 91.3872C83.9085 91.3666 83.8965 91.3415 83.8918 91.3146C83.2356 87.5589 79.5757 83.4872 75.7335 82.2378C73.8243 81.6169 72.1883 81.7829 71.127 82.7052C70.1528 83.5515 69.7813 84.9616 70.0809 86.6757C70.0855 86.7012 70.0833 86.7275 70.0747 86.7519C70.066 86.7764 70.0512 86.7982 70.0317 86.8152C70.0121 86.8322 69.9885 86.8438 69.9631 86.8489C69.9377 86.8541 69.9114 86.8526 69.8868 86.8445L64.6485 85.1411C64.6226 85.1327 64.5995 85.1173 64.5816 85.0967C64.5637 85.0761 64.5518 85.0511 64.5471 85.0242L58.2445 48.9574C58.24 48.9319 58.2421 48.9057 58.2508 48.8812C58.2594 48.8568 58.2742 48.835 58.2938 48.818C58.3133 48.801 58.337 48.7894 58.3623 48.7842C58.3877 48.7791 58.414 48.7806 58.4386 48.7887L62.5865 50.1375C64.9981 50.9218 67.4746 52.6795 69.3809 54.9602L88.9877 78.4273C90.4234 80.1447 91.3853 82.0703 91.6961 83.8492L93.0112 91.3748C93.1516 92.1777 92.9692 92.8454 92.4976 93.2551C92.1864 93.5252 91.7793 93.6621 91.3078 93.6621ZM84.1714 91.1738L90.432 93.2096C91.1998 93.4594 91.8808 93.3934 92.3009 93.0283C92.6898 92.6905 92.8371 92.1215 92.7158 91.4266L91.4007 83.901C91.0989 82.1732 90.1601 80.2976 88.7577 78.6199L69.1509 55.1528C67.2798 52.9143 64.8535 51.1904 62.4939 50.4231L58.5833 49.1513L64.8274 84.8833L69.747 86.4831C69.5051 84.7706 69.9215 83.3549 70.9306 82.4783C72.0746 81.4843 73.8135 81.2976 75.8265 81.952C79.7331 83.2226 83.4563 87.345 84.1714 91.1738Z" fill="#111111"/>
<path d="M64.3709 54.5766L61.8047 53.7422L64.5754 69.5973L81.6285 75.1427C82.4334 75.4044 82.7018 74.6167 82.0679 73.8521L68.5334 57.5333C67.3634 56.134 65.8481 55.0569 64.3709 54.5766Z" fill="#111111"/>
<path d="M81.9216 75.3449C81.8163 75.3449 81.7028 75.326 81.5839 75.2874L64.5306 69.7421C64.5047 69.7336 64.4816 69.7183 64.4637 69.6977C64.4459 69.677 64.4339 69.652 64.4292 69.6251L61.6586 53.7699C61.654 53.7444 61.6562 53.7182 61.6648 53.6937C61.6735 53.6693 61.6883 53.6475 61.7078 53.6305C61.7274 53.6135 61.751 53.6019 61.7764 53.5967C61.8018 53.5916 61.8281 53.5931 61.8527 53.6012L64.4189 54.4356C65.9204 54.9239 67.4626 56.0185 68.6501 57.4388L82.1851 73.7581C82.5702 74.2227 82.6793 74.7554 82.4567 75.0841C82.3405 75.2553 82.1507 75.3449 81.9216 75.3449ZM64.7093 69.4844L81.6766 75.0018C81.923 75.0822 82.117 75.0505 82.2084 74.9155C82.3267 74.7409 82.2976 74.3643 81.9542 73.95L68.4195 57.6312C67.2676 56.2534 65.7755 55.1927 64.3262 54.7213L61.9972 53.9639L64.7093 69.4844Z" fill="#111111"/>
</g>
<defs>
<clipPath id="clip0_31355_33878">
<rect width="118.758" height="95.0588" fill="white" transform="translate(0.242188 0.1875)"/>
</clipPath>
</defs>
</svg>
