<svg width="113" height="95" viewBox="0 0 113 95" fill="none" xmlns="http://www.w3.org/2000/svg">
<g clip-path="url(#clip0_31355_33722)">
<path d="M109.709 30.6738C111.664 31.786 112.485 34.6763 111.54 37.1304L95.5954 78.5308C94.6502 80.9849 92.2984 82.0709 90.3429 80.9586L37.2897 50.7839C35.3343 49.6717 34.5138 46.7814 35.4589 44.3273L51.403 2.92695C52.3481 0.472873 54.7 -0.613179 56.6554 0.499078L109.709 30.6738Z" fill="white"/>
<path d="M91.9571 81.4484C91.3799 81.4466 90.8132 81.2939 90.3124 81.0053L37.2594 50.8305C35.2821 49.706 34.4492 46.7771 35.4027 44.3015L51.3468 2.90111C51.8523 1.58867 52.7881 0.603736 53.9145 0.198317C54.3658 0.033795 54.8473 -0.0295462 55.3254 0.0127249C55.8035 0.0549961 56.2667 0.201858 56.6825 0.443037L109.736 30.6178C111.713 31.7423 112.546 34.6712 111.592 37.1468L95.6481 78.5471C95.1426 79.8596 94.2067 80.8445 93.0803 81.2499C92.7201 81.3806 92.3401 81.4477 91.9571 81.4484ZM55.0374 0.117821C54.6679 0.118486 54.3013 0.183244 53.9537 0.309249C52.8593 0.702916 51.9487 1.66305 51.4556 2.94359L35.5114 44.344C34.5782 46.7673 35.3879 49.6313 37.3165 50.7282L90.3698 80.903C90.771 81.1357 91.218 81.2775 91.6793 81.3183C92.1407 81.3591 92.6054 81.298 93.0409 81.1393C94.1353 80.7457 95.0459 79.7856 95.5391 78.5049L111.483 37.1046C112.417 34.6813 111.607 31.8173 109.678 30.7204L56.6248 0.545625C56.1415 0.266996 55.5944 0.119572 55.0374 0.117821Z" fill="#111111"/>
<path d="M108.659 32.1849L56.369 2.44413C54.939 1.63076 53.2211 2.42597 52.5311 4.21821L37.0016 44.5427C36.3113 46.3348 36.9098 48.4458 38.3399 49.2592L90.63 78.9999C92.0589 79.8127 93.7761 79.0189 94.4663 77.2266L109.996 36.9021C110.686 35.1101 110.088 32.9977 108.659 32.1849Z" fill="#101010"/>
<path d="M91.8091 79.3802C91.3848 79.3788 90.9682 79.2665 90.6001 79.0543L38.3096 49.3133C36.8584 48.488 36.2464 46.3397 36.9455 44.5247L52.475 4.20023C52.846 3.23663 53.5333 2.51357 54.3606 2.21603C54.6925 2.0951 55.0466 2.04857 55.3982 2.0797C55.7498 2.11082 56.0904 2.21886 56.3962 2.39623L108.687 32.1368C110.138 32.9619 110.749 35.1105 110.049 36.9264L94.5199 77.2509C94.149 78.2139 93.462 78.9368 92.6351 79.2342C92.3702 79.3303 92.0907 79.3797 91.8091 79.3802ZM55.1863 2.18771C54.9183 2.18816 54.6523 2.23513 54.4002 2.32655C53.6048 2.61258 52.9429 3.31089 52.5838 4.24248L37.0544 44.5669C36.3754 46.3296 36.9642 48.4133 38.367 49.211L90.6572 78.9519C90.9483 79.1208 91.2726 79.2236 91.6073 79.2533C91.9421 79.283 92.2792 79.2387 92.5952 79.1235C93.3902 78.8377 94.0518 78.1396 94.4104 77.2084L109.94 36.884C110.619 35.1203 110.031 33.0366 108.629 32.2392L56.3389 2.49835C55.988 2.29605 55.5908 2.18901 55.1863 2.18771Z" fill="#111111"/>
<path d="M82.0273 18.5738C81.6971 18.3858 81.3001 18.5695 81.1406 18.9837C80.9811 19.3978 81.1189 19.8873 81.4491 20.0751C81.7792 20.2628 82.1779 20.0786 82.3374 19.6644C82.4969 19.2502 82.3575 18.7616 82.0273 18.5738Z" fill="#111111"/>
<path d="M81.7248 20.2033C81.6191 20.203 81.5153 20.1751 81.4236 20.1223C81.0697 19.921 80.9197 19.3989 81.0894 18.9585C81.1276 18.8492 81.1886 18.7493 81.2684 18.6657C81.3482 18.5821 81.4448 18.5167 81.5518 18.4739C81.6346 18.4437 81.7228 18.4321 81.8105 18.4398C81.8981 18.4476 81.983 18.4745 82.0593 18.5187C82.4138 18.7203 82.5645 19.2421 82.3952 19.6817C82.3569 19.7912 82.2957 19.8911 82.2158 19.9748C82.1358 20.0585 82.0389 20.124 81.9317 20.1668C81.8653 20.1908 81.7954 20.2032 81.7248 20.2033ZM81.7576 18.5551C81.7009 18.5552 81.6445 18.5652 81.5912 18.5845C81.4999 18.6217 81.4177 18.6781 81.3499 18.75C81.2821 18.8218 81.2304 18.9074 81.1983 19.001C81.0488 19.3891 81.1757 19.8463 81.4811 20.0199C81.5429 20.0558 81.6117 20.0776 81.6827 20.0838C81.7538 20.0901 81.8253 20.0806 81.8923 20.0561C81.9838 20.0189 82.0663 19.9624 82.1342 19.8905C82.2022 19.8185 82.254 19.7328 82.2863 19.639C82.4355 19.2516 82.3079 18.7947 82.0018 18.6207C81.9274 18.5779 81.8433 18.5553 81.7576 18.5551Z" fill="#111111"/>
<path d="M109.707 30.6686C111.663 31.7808 112.483 34.6711 111.538 37.1252L95.594 78.5255C94.8726 80.3986 93.3317 81.4747 91.7731 81.3847L92.7668 81.4421C94.3255 81.5321 95.8664 80.456 96.5877 78.5829L112.532 37.1825C113.477 34.7284 112.656 31.8381 110.701 30.726L57.6479 0.551176C57.2101 0.298438 56.7202 0.150845 56.2163 0.119905L55.2227 0.0625C55.7265 0.0934294 56.2164 0.241045 56.6541 0.49383L109.707 30.6686Z" fill="black"/>
<path d="M92.954 81.5105C92.8907 81.5105 92.8272 81.5087 92.7634 81.505L91.7698 81.4476C91.7543 81.4467 91.7398 81.4397 91.7294 81.428C91.7191 81.4164 91.7138 81.401 91.7147 81.3855C91.7156 81.3699 91.7226 81.3553 91.7342 81.3449C91.7458 81.3345 91.761 81.3292 91.7765 81.3301C91.8379 81.3337 91.8991 81.3354 91.9601 81.3354C93.4799 81.3354 94.8709 80.2447 95.5396 78.5083L111.484 37.108C112.417 34.6846 111.607 31.8206 109.679 30.7238L56.6253 0.549171C56.1954 0.300641 55.7141 0.155605 55.2192 0.125421C55.2037 0.124532 55.1892 0.11749 55.1789 0.105843C55.1686 0.0941961 55.1633 0.0788983 55.1642 0.0633152C55.165 0.047732 55.172 0.03314 55.1836 0.0227491C55.1952 0.0123582 55.2104 0.00701972 55.2259 0.00790796L56.2196 0.0653129C56.7324 0.0965847 57.231 0.246828 57.6765 0.504282L110.73 30.679C112.707 31.8036 113.54 34.7324 112.586 37.208L96.6422 78.6084C95.9558 80.3908 94.5224 81.5105 92.954 81.5105ZM92.6477 81.3806L92.7704 81.3877C94.3611 81.4802 95.838 80.3719 96.5335 78.5659L112.478 37.1655C113.411 34.7422 112.601 31.8782 110.673 30.7813L57.6193 0.606576C57.1893 0.358004 56.7079 0.212947 56.2129 0.182767L56.0805 0.175129C56.2893 0.246368 56.491 0.337358 56.6828 0.446877L109.736 30.6216C111.713 31.7461 112.546 34.675 111.593 37.1506L95.6484 78.551C95.0639 80.0689 93.9377 81.1062 92.6477 81.3806Z" fill="#111111"/>
<path d="M91.0844 80.9518C93.0409 82.0645 93.2003 83.4098 91.4406 83.9574L61.7522 93.1966C59.9924 93.7442 56.9816 93.2864 55.0251 92.1736L1.97295 61.9994C0.0164294 60.8866 -0.143012 59.5414 1.61668 58.9938L31.3049 49.7548C33.0647 49.2071 36.0755 49.665 38.0321 50.7778L91.0844 80.9518Z" fill="white"/>
<path d="M59.9905 93.4801C58.3463 93.4801 56.398 93.0169 54.9962 92.2196L1.94405 62.0455C0.857046 61.4272 0.272895 60.7058 0.341344 60.066C0.394374 59.5711 0.841161 59.1685 1.59941 58.9325L31.2877 49.6935C33.0573 49.1427 36.0959 49.6039 38.0609 50.7218L91.113 80.8958C92.2 81.5141 92.7841 82.2355 92.7157 82.8753C92.6626 83.3703 92.2159 83.7728 91.4576 84.0089L61.7693 93.2478C61.2622 93.4054 60.6509 93.4801 59.9905 93.4801ZM33.0706 49.5773C32.4213 49.5773 31.8208 49.6507 31.3222 49.8058L1.63393 59.0448C0.922984 59.266 0.505224 59.6332 0.457508 60.0785C0.394257 60.6694 0.957033 61.3491 2.00152 61.9432L55.0536 92.1172C56.9945 93.2212 59.9916 93.6779 61.735 93.1353L91.4232 83.8963C92.1342 83.6751 92.552 83.308 92.5997 82.8622C92.6629 82.2713 92.1001 81.5917 91.0556 80.9976L38.0034 50.8238C36.6174 50.0355 34.6926 49.5773 33.0706 49.5773Z" fill="#111111"/>
<path d="M84.2808 79.6895L38.8997 53.8785C38.2974 53.5359 37.3696 53.3948 36.8276 53.5634L21.243 58.4135C20.7012 58.5821 20.7513 58.9964 21.3537 59.339L66.7347 85.15C67.337 85.4926 68.263 85.6334 68.8047 85.4649L84.3893 80.6149C84.9311 80.4463 84.8831 80.0323 84.2808 79.6897" fill="white"/>
<path d="M68.2638 85.597C67.7503 85.597 67.1425 85.4527 66.7057 85.2042L21.3247 59.3932C20.975 59.1943 20.7874 58.9574 20.8105 58.7434C20.8286 58.5741 20.976 58.4379 21.2256 58.3604L36.8102 53.5105C37.3646 53.338 38.3148 53.4816 38.9284 53.8306L84.3094 79.6417C84.6584 79.8401 84.8454 80.0765 84.8225 80.2903C84.8043 80.46 84.6566 80.5963 84.4064 80.6741L68.8218 85.5239C68.6404 85.5757 68.4524 85.6003 68.2638 85.597ZM37.3727 53.5537C37.1943 53.5506 37.0164 53.5738 36.8446 53.6227L21.2601 58.4726C21.0579 58.5356 20.9395 58.6362 20.9266 58.7561C20.9091 58.9188 21.0795 59.1187 21.3821 59.2908L66.7631 85.1018C67.3519 85.4367 68.26 85.5756 68.7871 85.4116L84.3717 80.5617C84.5745 80.4986 84.6933 80.3977 84.7062 80.2775C84.7237 80.1151 84.5537 79.9155 84.2517 79.7438L38.8708 53.9328C38.4495 53.6932 37.8647 53.5537 37.3727 53.5537Z" fill="#111111"/>
<path d="M50.8328 77.2461L34.674 68.0556C33.978 67.6598 32.9058 67.4967 32.2787 67.6918L23.2629 70.4976C22.6369 70.6923 22.6936 71.1714 23.3897 71.5673L39.5486 80.7578C40.2447 81.1537 41.3169 81.3168 41.9432 81.1221L50.959 78.3164C51.5861 78.1213 51.5293 77.6422 50.8332 77.2463" fill="white"/>
<path d="M41.3169 81.2576C40.7246 81.2576 40.0237 81.0911 39.5195 80.8044L23.3607 71.6138C22.9603 71.3861 22.7456 71.1159 22.7717 70.8723C22.7923 70.6802 22.9605 70.5257 23.2455 70.4368L32.2613 67.6311C32.9003 67.4322 33.9955 67.5976 34.7026 67.9999L50.8612 77.1904C51.2616 77.4181 51.4763 77.6883 51.4501 77.9318C51.4296 78.1241 51.261 78.279 50.9755 78.3678L41.9596 81.1735C41.7507 81.233 41.5341 81.2614 41.3169 81.2576ZM32.9093 67.6632C32.7021 67.6596 32.4955 67.6866 32.2961 67.7434L23.2802 70.5491C23.0426 70.6231 22.9033 70.7423 22.8881 70.8849C22.8675 71.0767 23.0658 71.311 23.4185 71.5115L39.5771 80.7021C40.26 81.0905 41.3134 81.2517 41.9253 81.0613L50.9412 78.2555C51.1793 78.1814 51.3189 78.062 51.3342 77.9192C51.3547 77.7274 51.1565 77.4932 50.8039 77.2927L34.6451 68.1022C34.1571 67.8246 33.4798 67.6632 32.9093 67.6632Z" fill="#111111"/>
<path d="M91.4413 83.9523L61.7531 93.1912C59.9932 93.7389 56.9824 93.281 55.0259 92.1682L1.97378 61.9941C0.813771 61.3344 0.285511 60.5929 0.414408 59.9844L0.0931889 61.5009C-0.0356492 62.1094 0.49261 62.8508 1.65256 63.5103L54.7049 93.6848C56.6614 94.7976 59.6722 95.2555 61.432 94.7078L91.1203 85.4689C91.8367 85.2459 92.2351 84.8907 92.3234 84.4729L92.6446 82.9564C92.5561 83.3742 92.1578 83.7293 91.4413 83.9523Z" fill="black"/>
<path d="M59.6706 95.0001C58.0263 95.0001 56.0783 94.5369 54.6762 93.7395L1.62417 63.5654C0.474557 62.9115 -0.104163 62.156 0.0363554 61.4923L0.357574 59.9758C0.36089 59.9607 0.370028 59.9474 0.382996 59.939C0.395963 59.9306 0.411706 59.9277 0.42679 59.931C0.441874 59.9342 0.455073 59.9433 0.463508 59.9563C0.471942 59.9693 0.474928 59.9851 0.471812 60.0003C0.344551 60.6014 0.916905 61.329 2.00286 61.9466L55.055 92.1207C56.9957 93.2246 59.9929 93.6813 61.7363 93.1388L91.4246 83.8997C92.0981 83.6902 92.5004 83.361 92.588 82.9479C92.5895 82.9403 92.5926 82.9331 92.5969 82.9267C92.6012 82.9203 92.6068 82.9148 92.6132 82.9106C92.6197 82.9063 92.6269 82.9034 92.6345 82.902C92.642 82.9006 92.6498 82.9007 92.6573 82.9023C92.6649 82.9039 92.672 82.907 92.6784 82.9114C92.6847 82.9158 92.6901 82.9214 92.6943 82.928C92.6984 82.9345 92.7013 82.9418 92.7027 82.9494C92.704 82.957 92.7039 82.9648 92.7022 82.9724L92.381 84.4888C92.2841 84.9461 91.8542 85.3056 91.1378 85.5288L61.4496 94.7678C60.9426 94.9253 60.3308 95 59.6706 95.0001ZM0.375329 60.4554L0.150417 61.5168C0.0231562 62.1178 0.59551 62.8454 1.68146 63.4631L54.7336 93.6372C56.6743 94.7411 59.6715 95.1978 61.4149 94.6552L91.1032 85.4163C91.7768 85.2066 92.1791 84.8774 92.2666 84.4644L92.4919 83.4006C92.2823 83.657 91.9334 83.8648 91.4589 84.0123L61.7706 93.2513C60.0009 93.8021 56.9623 93.3409 54.9974 92.2231L1.94527 62.0489C1.06525 61.5484 0.519761 60.9882 0.375329 60.4554Z" fill="#111111"/>
</g>
<defs>
<clipPath id="clip0_31355_33722">
<rect width="113" height="95" fill="white"/>
</clipPath>
</defs>
</svg>
