<svg width="135" height="135" viewBox="0 0 135 135" fill="none" xmlns="http://www.w3.org/2000/svg">
<g clip-path="url(#clip0_31353_33245)">
<path d="M84.5471 39.781C84.4926 39.3294 84.3145 38.9017 84.0323 38.545L81.9141 35.8984C82.1962 36.2551 82.3744 36.6829 82.4289 37.1344L83.1504 42.7385L85.2686 45.3851L84.5471 39.781Z" fill="black"/>
<path d="M85.2673 45.4443C85.2576 45.4443 85.2481 45.4421 85.2394 45.4379C85.2306 45.4337 85.223 45.4276 85.2169 45.4201L83.0987 42.7735C83.0912 42.7642 83.0865 42.7531 83.0851 42.7413L82.3635 37.1376C82.3097 36.6981 82.1364 36.2816 81.8624 35.9337C81.8569 35.9271 81.8529 35.9195 81.8504 35.9113C81.8479 35.9031 81.8471 35.8945 81.848 35.886C81.8489 35.8775 81.8514 35.8693 81.8555 35.8618C81.8596 35.8543 81.8652 35.8476 81.8719 35.8423C81.8785 35.8369 81.8862 35.833 81.8944 35.8306C81.9026 35.8283 81.9112 35.8276 81.9197 35.8286C81.9282 35.8296 81.9364 35.8322 81.9439 35.8364C81.9513 35.8406 81.9579 35.8463 81.9631 35.853L81.9644 35.8545L84.0813 38.4995C84.3701 38.8659 84.5528 39.3045 84.6097 39.7676L85.3312 45.3715C85.333 45.3855 85.3302 45.3997 85.3232 45.4119C85.3163 45.4241 85.3055 45.4337 85.2925 45.4393C85.2845 45.4426 85.276 45.4443 85.2673 45.4443ZM83.2108 42.7074L85.1739 45.1603L84.4818 39.7842C84.428 39.3446 84.2546 38.9282 83.9806 38.5803L82.3504 36.5433C82.4188 36.73 82.4661 36.9238 82.4915 37.121L83.2108 42.7074Z" fill="#111111"/>
<path d="M116.801 54.5372L114.683 51.8906C115.236 52.5813 115.307 53.6236 114.771 54.6481L92.5374 97.1153C91.7457 98.6276 89.9318 99.5266 88.4798 99.1234L30.7314 83.0852C30.2981 82.9722 29.912 82.7243 29.6289 82.3774L31.7472 85.0239C32.0302 85.3709 32.4163 85.6188 32.8496 85.7318L90.598 101.77C92.0502 102.173 93.8638 101.274 94.6556 99.762L116.889 57.2948C117.425 56.2702 117.354 55.2281 116.801 54.5372Z" fill="black"/>
<path d="M91.3177 101.932C91.0682 101.933 90.8198 101.9 90.5792 101.834L32.8308 85.7962C32.3848 85.6789 31.9874 85.4235 31.6955 85.0665L29.5772 82.4199C29.5718 82.4133 29.5677 82.4057 29.5653 82.3975C29.5628 82.3893 29.562 82.3807 29.5628 82.3722C29.5637 82.3637 29.5663 82.3554 29.5704 82.3479C29.5745 82.3404 29.58 82.3338 29.5867 82.3285C29.5934 82.3231 29.601 82.3192 29.6093 82.3168C29.6175 82.3144 29.6261 82.3137 29.6346 82.3147C29.6431 82.3157 29.6513 82.3184 29.6587 82.3226C29.6662 82.3268 29.6727 82.3325 29.678 82.3392C29.9531 82.675 30.3274 82.9151 30.7473 83.0252L88.4957 99.0635C89.9152 99.4578 91.7021 98.5715 92.4789 97.0878L114.712 54.6202C115.217 53.6558 115.186 52.6261 114.631 51.933C114.626 51.9264 114.622 51.9188 114.62 51.9107C114.617 51.9025 114.617 51.894 114.617 51.8856C114.618 51.8771 114.621 51.869 114.625 51.8616C114.629 51.8541 114.635 51.8476 114.641 51.8423C114.648 51.837 114.656 51.833 114.664 51.8307C114.672 51.8283 114.68 51.8276 114.689 51.8285C114.697 51.8295 114.705 51.832 114.713 51.8361C114.72 51.8402 114.727 51.8457 114.732 51.8523L116.85 54.4989C117.438 55.2326 117.474 56.3162 116.945 57.3267L94.7114 99.7942C94.0376 101.081 92.6257 101.932 91.3177 101.932ZM30.1252 82.8983L31.796 84.9858C32.0711 85.3217 32.4454 85.5618 32.8654 85.6719L90.6137 101.71C92.0336 102.104 93.8202 101.218 94.5969 99.7343L116.83 57.2671C117.335 56.3027 117.304 55.273 116.749 54.5799L115.08 52.494C115.299 53.1494 115.217 53.9348 114.826 54.6806L92.593 97.1481C91.7896 98.6828 89.9359 99.598 88.4609 99.1884L30.7126 83.1501C30.5062 83.0934 30.3086 83.0087 30.1252 82.8983Z" fill="#111111"/>
<path d="M80.6055 35.0525C81.6169 35.3335 82.2965 36.1105 82.4291 37.1311L83.1506 42.7351L113.577 51.1856C115.029 51.5888 115.561 53.1392 114.769 54.6515L92.5358 97.1185C91.7441 98.6308 89.9303 99.5298 88.4782 99.1266L30.7298 83.0883C29.2816 82.6861 28.7462 81.1347 29.538 79.6224L54.9575 31.069C55.7514 29.5526 57.5692 28.6548 59.0172 29.0569L80.6055 35.0525Z" fill="white"/>
<path d="M89.2005 99.2879C88.951 99.2888 88.7026 99.256 88.462 99.1901L30.7137 83.1522C30.055 82.9692 29.551 82.5423 29.2944 81.9501C28.9935 81.2552 29.0621 80.3965 29.4819 79.594L54.9015 31.0404C55.706 29.5035 57.5609 28.5864 59.0357 28.9961L80.624 34.9917C81.6587 35.2791 82.3579 36.0762 82.4942 37.1242L83.2106 42.6857L113.596 51.1246C114.256 51.3078 114.76 51.7345 115.016 52.3262C115.317 53.0203 115.248 53.8793 114.828 54.6823L92.5944 97.1498C91.9205 98.4365 90.5085 99.2878 89.2005 99.2879ZM58.2944 29.0268C57.0333 29.0268 55.6688 29.8531 55.0157 31.1001L29.5963 79.6536C29.1944 80.4217 29.1278 81.2396 29.4129 81.8984C29.6537 82.4542 30.1278 82.8552 30.7482 83.0275L88.4966 99.0657C89.9161 99.4598 91.703 98.5736 92.4798 97.0899L114.713 54.6227C115.115 53.8541 115.183 53.0357 114.898 52.3775C114.657 51.8224 114.182 51.4215 113.561 51.2489L83.1345 42.7986C83.1222 42.7952 83.1113 42.7883 83.103 42.7787C83.0947 42.7691 83.0894 42.7573 83.0877 42.7447L82.3662 37.1408C82.2372 36.1462 81.5724 35.3893 80.5894 35.1163L59.0012 29.1205C58.7709 29.0575 58.5331 29.0259 58.2944 29.0268Z" fill="#111111"/>
</g>
<g clip-path="url(#clip1_31353_33245)">
<path d="M112.613 27.9962C112.613 27.5942 112.438 27.1916 112.085 26.8789C111.359 26.235 110.151 26.2122 109.393 26.828L106.127 29.4789C106.063 29.5309 106.003 29.5873 105.947 29.6476L105.947 31.279C106.003 31.2186 106.063 31.1622 106.127 31.1102L109.392 28.4594C110.151 27.8435 111.359 27.8664 112.085 28.5102C112.438 28.8229 112.613 29.2256 112.613 29.6275L112.613 27.9962Z" fill="black"/>
<path d="M105.936 31.3389C105.922 31.3369 105.908 31.3295 105.898 31.3183C105.889 31.307 105.883 31.2926 105.883 31.2777L105.884 29.6464C105.884 29.6308 105.89 29.6157 105.9 29.6043C105.958 29.5419 106.02 29.4836 106.086 29.4298L109.352 26.7789C110.133 26.1448 111.377 26.1683 112.124 26.8315C112.478 27.1452 112.673 27.5583 112.673 27.995L112.672 29.6261L112.672 29.6264C112.672 29.6427 112.666 29.6584 112.654 29.67C112.643 29.6816 112.627 29.688 112.611 29.688C112.602 29.6881 112.594 29.6865 112.587 29.6834C112.579 29.6803 112.573 29.6757 112.567 29.67C112.561 29.6643 112.557 29.6574 112.553 29.6499C112.55 29.6424 112.549 29.6344 112.549 29.6263C112.549 29.2255 112.369 28.8451 112.042 28.5551C111.338 27.9303 110.166 27.9084 109.429 28.506L106.164 31.1569C106.103 31.2059 106.047 31.2591 105.99 31.3198C105.983 31.3271 105.975 31.3326 105.966 31.3359C105.956 31.3393 105.946 31.3403 105.936 31.3389ZM106.007 29.6709L106.007 31.1293C106.033 31.1056 106.059 31.083 106.086 31.0611L109.351 28.4102C110.133 27.7761 111.376 27.7996 112.124 28.4628C112.313 28.6302 112.456 28.8258 112.549 29.0383L112.549 27.9949C112.549 27.5941 112.369 27.2137 112.042 26.9238C111.338 26.299 110.166 26.277 109.43 26.8747L106.164 29.5256C106.109 29.5706 106.056 29.6192 106.007 29.6709Z" fill="#111111"/>
<path d="M113.608 25.643C115.138 26.9999 115.081 29.1596 113.482 30.4575L110.217 33.1084C109.719 33.5123 109.13 33.7857 108.508 33.9301C107.747 34.1065 106.937 34.0892 106.187 33.881C105.581 33.7124 105.014 33.4188 104.543 33.0012C104.072 32.5837 103.752 32.0899 103.58 31.5689C104.338 31.1072 105.403 31.1767 106.066 31.7646C106.73 32.353 107.795 32.4225 108.553 31.9607C108.625 31.9169 108.693 31.8684 108.759 31.8155L112.025 29.1646C112.783 28.5488 112.81 27.5238 112.084 26.8799C111.358 26.236 110.15 26.2132 109.391 26.829L106.126 29.4799C106.062 29.5319 106.002 29.5883 105.946 29.6486C105.196 29.4403 104.386 29.4227 103.625 29.5991C103.822 29.0784 104.17 28.5909 104.668 28.187L107.933 25.5362C109.532 24.2383 112.078 24.2863 113.608 25.643Z" fill="white"/>
<path d="M106.789 34.0668C106.581 34.038 106.375 33.9954 106.173 33.9392C105.542 33.7639 104.965 33.455 104.504 33.0462C104.043 32.6373 103.704 32.1327 103.524 31.5871C103.519 31.5739 103.519 31.5595 103.524 31.5464C103.529 31.5334 103.538 31.5223 103.55 31.5151C104.338 31.0351 105.438 31.1221 106.109 31.7173C106.742 32.2783 107.779 32.3598 108.523 31.9069C108.592 31.8645 108.659 31.8176 108.722 31.7664L111.988 29.1156C112.342 28.8279 112.542 28.4404 112.551 28.0245C112.56 27.6131 112.38 27.2226 112.045 26.9249C111.34 26.3001 110.168 26.2782 109.432 26.8758L106.167 29.5267C106.105 29.5768 106.047 29.6312 105.993 29.6895C105.977 29.7064 105.954 29.7129 105.931 29.707C105.184 29.5002 104.396 29.4834 103.641 29.6581C103.63 29.6607 103.618 29.6602 103.608 29.6567C103.597 29.6533 103.587 29.647 103.58 29.6386C103.573 29.6302 103.568 29.6199 103.566 29.6089C103.564 29.5979 103.565 29.5865 103.569 29.5761C103.775 29.0315 104.143 28.5342 104.631 28.1379L107.897 25.4871C109.518 24.171 112.099 24.2196 113.651 25.5956C114.401 26.2608 114.803 27.136 114.782 28.0601C114.762 28.9936 114.315 29.8616 113.523 30.5042L110.258 33.1551C109.771 33.5504 109.171 33.8388 108.524 33.9891C107.955 34.1206 107.367 34.147 106.789 34.0668L106.789 34.0668ZM103.657 31.5953C103.834 32.1022 104.154 32.5711 104.586 32.9538C105.033 33.3503 105.593 33.6499 106.206 33.8202C106.95 34.0269 107.742 34.0436 108.496 33.8688C109.125 33.7227 109.707 33.4428 110.18 33.0593L113.445 30.4084C114.208 29.789 114.639 28.9541 114.659 28.0574C114.678 27.1701 114.291 26.3287 113.569 25.688C112.06 24.3504 109.551 24.3032 107.974 25.5829L104.709 28.2338C104.27 28.5901 103.932 29.0304 103.727 29.5127C104.456 29.3631 105.21 29.3855 105.928 29.5782C105.979 29.5258 106.032 29.4767 106.088 29.4309L109.354 26.78C110.135 26.1458 111.379 26.1693 112.127 26.8326C112.49 27.1546 112.685 27.5789 112.675 28.0272C112.665 28.4799 112.448 28.9004 112.065 29.2113L108.8 31.8622C108.732 31.9168 108.661 31.9669 108.587 32.0121C107.799 32.4922 106.699 32.4051 106.027 31.8095C105.407 31.2593 104.397 31.1707 103.657 31.5952L103.657 31.5953Z" fill="#111111"/>
<path d="M114.72 29.6338L114.721 28.0025C114.72 28.8996 114.306 29.7953 113.484 30.4629L110.218 33.1137C109.72 33.5177 109.131 33.7911 108.509 33.9355C107.748 34.1119 106.939 34.0946 106.188 33.8863C105.582 33.7178 105.015 33.4241 104.544 33.0066C104.073 32.5891 103.753 32.0952 103.581 31.5743L103.581 33.2056C103.753 33.7266 104.073 34.2204 104.544 34.6379C105.014 35.0554 105.582 35.3491 106.188 35.5177C106.938 35.726 107.748 35.7432 108.509 35.5668C109.131 35.4224 109.72 35.149 110.218 34.7451L113.483 32.0942C114.306 31.4266 114.72 30.5309 114.72 29.6338Z" fill="black"/>
<path d="M106.786 35.7026C106.578 35.6738 106.372 35.6313 106.17 35.575C105.539 35.3997 104.962 35.0908 104.501 34.6819C104.04 34.2729 103.701 33.7684 103.521 33.2228C103.519 33.2166 103.518 33.21 103.518 33.2035L103.518 31.5721C103.518 31.5575 103.523 31.5433 103.533 31.5322C103.542 31.5211 103.555 31.5137 103.57 31.5114C103.584 31.5091 103.599 31.512 103.612 31.5195C103.624 31.5271 103.634 31.5389 103.638 31.5528C103.812 32.0777 104.138 32.5637 104.583 32.9583C105.03 33.3547 105.59 33.6543 106.203 33.8247C106.95 34.0313 107.738 34.048 108.493 33.8732C109.122 33.7271 109.705 33.4473 110.177 33.0637L113.443 30.4129C114.226 29.7774 114.657 28.9207 114.657 28.0004C114.657 27.9922 114.659 27.9843 114.662 27.9768C114.665 27.9694 114.67 27.9627 114.676 27.9571C114.682 27.9515 114.689 27.9472 114.696 27.9442C114.704 27.9413 114.712 27.9399 114.72 27.9401C114.728 27.9403 114.736 27.9421 114.744 27.9454C114.751 27.9487 114.758 27.9534 114.763 27.9592C114.769 27.9651 114.773 27.972 114.776 27.9796C114.779 27.9872 114.781 27.9952 114.78 28.0033L114.78 29.6317C114.78 30.5899 114.332 31.4808 113.52 32.1401L110.255 34.7909C109.768 35.1862 109.168 35.4746 108.521 35.6248C107.952 35.7564 107.364 35.7827 106.786 35.7026ZM103.641 33.1935C103.815 33.7149 104.141 34.1975 104.583 34.5897C105.03 34.9861 105.59 35.2858 106.203 35.4561C106.95 35.6628 107.737 35.6794 108.493 35.5046C109.122 35.3586 109.704 35.0786 110.177 34.6951L113.442 32.0443C114.225 31.4088 114.656 30.5521 114.657 29.6318L114.657 28.8573C114.472 29.4827 114.084 30.0515 113.521 30.5087L110.255 33.1596C109.768 33.5549 109.168 33.8433 108.521 33.9936C107.746 34.173 106.937 34.1559 106.17 33.9438C105.539 33.7684 104.962 33.4595 104.501 33.0507C104.128 32.7199 103.835 32.3264 103.641 31.8992L103.641 33.1936L103.641 33.1935Z" fill="#111111"/>
<path d="M103.586 31.573C103.514 31.6167 103.444 31.6648 103.379 31.7179L100.113 34.3691C99.7228 34.6858 99.5263 35.1105 99.5263 35.536L99.5259 37.1673C99.526 36.7418 99.7224 36.317 100.113 36.0004L103.379 33.3492C103.444 33.2964 103.513 33.248 103.585 33.2043L103.586 31.573L103.586 31.573Z" fill="black"/>
<path d="M99.5157 37.2278C99.5009 37.2258 99.4874 37.2184 99.4776 37.2072C99.4678 37.1959 99.4625 37.1815 99.4625 37.1667L99.4628 35.5353C99.4629 35.0708 99.6793 34.6394 100.072 34.3205L103.338 31.6693C103.406 31.6147 103.477 31.5648 103.552 31.5197C103.561 31.514 103.572 31.5108 103.583 31.5106C103.594 31.5104 103.604 31.5131 103.614 31.5185C103.624 31.5238 103.632 31.5317 103.637 31.5411C103.643 31.5506 103.646 31.5614 103.646 31.5724L103.645 33.2037C103.645 33.2143 103.643 33.2247 103.637 33.2339C103.632 33.2431 103.625 33.2509 103.616 33.2564C103.546 33.2986 103.479 33.3454 103.416 33.3965L100.15 36.0477C99.7863 36.3427 99.5861 36.7402 99.5859 37.1667C99.5859 37.1755 99.584 37.1842 99.5804 37.1923C99.5767 37.2003 99.5714 37.2075 99.5647 37.2133C99.558 37.219 99.5502 37.2233 99.5417 37.2259C99.5333 37.2284 99.5243 37.229 99.5156 37.2278L99.5157 37.2278ZM103.522 31.686C103.486 31.711 103.45 31.7374 103.416 31.7652L100.15 34.4164C99.7867 34.7114 99.5865 35.1088 99.5864 35.5354L99.5862 36.5766C99.6886 36.3426 99.8528 36.1297 100.072 35.9519L103.338 33.3007C103.397 33.2534 103.458 33.2096 103.522 33.1694L103.522 31.686Z" fill="#111111"/>
<path d="M108.511 33.932C108.314 34.4527 107.966 34.9402 107.468 35.3441L104.202 37.9953C102.604 39.2928 100.058 39.2451 98.5282 37.8882C97.7853 37.2293 97.4164 36.3809 97.4166 35.5339L97.4163 37.1652C97.4161 38.0123 97.785 38.8606 98.5278 39.5195C100.058 40.8764 102.603 40.9242 104.202 39.6266L107.468 36.9755C107.965 36.5715 108.313 36.084 108.511 35.5633L108.511 33.932Z" fill="black"/>
<path d="M100.766 40.5843C99.9239 40.4676 99.1187 40.127 98.485 39.565C97.7546 38.9173 97.3525 38.0648 97.3526 37.1646L97.353 35.5346L97.353 35.5332C97.3529 35.5251 97.3544 35.5169 97.3575 35.5094C97.3606 35.5018 97.3651 35.4949 97.3708 35.4891C97.3766 35.4833 97.3834 35.4787 97.391 35.4755C97.3985 35.4724 97.4066 35.4708 97.4148 35.4708C97.4229 35.4708 97.431 35.4724 97.4386 35.4756C97.4461 35.4787 97.453 35.4833 97.4587 35.4891C97.4644 35.4949 97.469 35.5018 97.472 35.5094C97.4751 35.517 97.4766 35.5251 97.4765 35.5333C97.4764 36.3977 97.8638 37.2174 98.5674 37.8413C100.075 39.1788 102.585 39.2262 104.161 37.9467L107.427 35.2955C107.898 34.913 108.253 34.4337 108.452 33.9094C108.457 33.8959 108.466 33.8846 108.479 33.8775C108.492 33.8704 108.506 33.868 108.52 33.8706C108.535 33.8732 108.548 33.8807 108.557 33.8918C108.566 33.9029 108.571 33.9169 108.571 33.9314L108.571 35.5627C108.571 35.5702 108.569 35.5776 108.567 35.5846C108.36 36.1292 107.993 36.6265 107.505 37.0228L104.239 39.6739C103.28 40.4524 101.985 40.7533 100.766 40.5843L100.766 40.5843ZM97.4763 36.3856L97.4762 37.1646C97.476 38.029 97.8634 38.8487 98.567 39.4727C100.075 40.8103 102.584 40.8576 104.161 39.5781L107.427 36.9269C107.895 36.5469 108.248 36.0714 108.447 35.5513L108.447 34.2276C108.232 34.6646 107.91 35.0627 107.505 35.3914L104.239 38.0426C102.618 39.3586 100.037 39.3096 98.4854 37.9337C97.991 37.4952 97.647 36.9629 97.4764 36.3855L97.4763 36.3856Z" fill="#111111"/>
<path d="M107.592 30.528C108.063 30.9455 108.383 31.4396 108.555 31.9607C107.798 32.4224 106.732 32.3529 106.069 31.7646C105.406 31.1766 104.341 31.1071 103.583 31.5689C103.511 31.6126 103.442 31.6606 103.376 31.7138L100.11 34.3649C99.3516 34.9808 99.3254 36.0054 100.051 36.6494C100.777 37.2932 101.985 37.3164 102.744 36.7005L106.01 34.0493C106.074 33.9975 106.134 33.9412 106.19 33.8809C106.94 34.0893 107.749 34.1065 108.511 33.93C108.313 34.4507 107.965 34.9382 107.467 35.3422L104.201 37.9933C102.603 39.2909 100.058 39.2431 98.5276 37.8862C96.998 36.5296 97.054 34.3696 98.6525 33.072L101.918 30.4208C102.416 30.0169 103.005 29.7435 103.627 29.5991C104.388 29.4226 105.198 29.4402 105.948 29.6486C106.554 29.8175 107.121 30.1104 107.592 30.528L107.592 30.528Z" fill="white"/>
<path d="M100.766 38.9513C99.9239 38.8346 99.1187 38.494 98.485 37.932C97.7351 37.267 97.3331 36.3917 97.3533 35.4674C97.3736 34.534 97.8206 33.666 98.6119 33.0237L101.878 30.3726C102.365 29.9773 102.964 29.6889 103.612 29.5386C104.387 29.3592 105.196 29.3765 105.963 29.5887C106.595 29.7648 107.172 30.0735 107.632 30.4814C108.093 30.8907 108.432 31.3953 108.612 31.9409C108.617 31.9541 108.616 31.9685 108.612 31.9815C108.607 31.9946 108.598 32.0057 108.586 32.0129C107.798 32.4929 106.698 32.4059 106.026 31.8103C105.394 31.2496 104.357 31.1681 103.613 31.6211C103.544 31.6633 103.477 31.7101 103.414 31.7612L100.148 34.4124C99.7932 34.7 99.593 35.0873 99.584 35.5029C99.575 35.9144 99.7549 36.3049 100.091 36.6027C100.795 37.2275 101.967 37.2497 102.703 36.6521L105.969 34.001C106.031 33.9509 106.089 33.8966 106.143 33.8384C106.15 33.8301 106.16 33.824 106.171 33.821C106.182 33.8179 106.194 33.8179 106.205 33.821C106.952 34.0277 107.739 34.0444 108.495 33.8695C108.506 33.867 108.517 33.8675 108.528 33.8709C108.538 33.8743 108.548 33.8806 108.555 33.889C108.563 33.8975 108.568 33.9077 108.57 33.9187C108.572 33.9297 108.571 33.9411 108.567 33.9515C108.36 34.4962 107.993 34.9934 107.505 35.3897L104.239 38.0409C103.28 38.8194 101.984 39.1202 100.766 38.9513ZM105.329 29.5833C104.766 29.5052 104.193 29.5308 103.64 29.6589C103.011 29.805 102.428 30.0849 101.956 30.4684L98.6898 33.1196C97.9271 33.7387 97.4964 34.5735 97.4768 35.4701C97.4575 36.3576 97.8446 37.1991 98.5669 37.8397C100.075 39.1772 102.584 39.2246 104.161 37.9451L107.427 35.2939C107.866 34.9376 108.203 34.4973 108.408 34.0149C107.679 34.1648 106.926 34.1425 106.207 33.9498C106.157 34.0019 106.103 34.051 106.047 34.0968L102.781 36.748C102 37.3819 100.756 37.3583 100.009 36.6951C99.6454 36.3729 99.4508 35.9485 99.4605 35.5003C99.4703 35.0478 99.6867 34.6275 100.07 34.3166L103.336 31.6654C103.403 31.6108 103.475 31.5609 103.549 31.5158C104.337 31.0357 105.437 31.1227 106.108 31.718C106.729 32.2684 107.739 32.3571 108.479 31.9326C108.302 31.4257 107.981 30.9567 107.55 30.5738C107.104 30.1782 106.544 29.8787 105.93 29.7077C105.733 29.653 105.532 29.6114 105.329 29.5833Z" fill="#111111"/>
</g>
<g clip-path="url(#clip2_31353_33245)">
<path d="M116.926 90.7985L117.293 89.0513C117.121 89.8697 116.448 90.5587 115.451 90.8044L95.2541 95.7823C93.7732 96.1473 92.1411 95.395 91.609 94.1019L82.43 71.7946C82.263 71.4009 82.2193 70.9659 82.3047 70.5469L81.9381 72.294C81.8527 72.713 81.8964 73.148 82.0634 73.5417L91.2424 95.8489C91.7745 97.142 93.4064 97.8944 94.8875 97.5294L115.084 92.5516C116.081 92.3059 116.755 91.6169 116.926 90.7985Z" fill="url(#paint0_linear_31353_33245)"/>
<path d="M93.2873 97.561C92.3544 97.3252 91.5446 96.7072 91.1976 95.8638L82.0186 73.5565C81.8485 73.1537 81.8039 72.7089 81.8906 72.2804L82.2571 70.5336L82.2572 70.5333C82.2585 70.5271 82.261 70.5212 82.2646 70.5159C82.2682 70.5107 82.2728 70.5062 82.2781 70.5027C82.2835 70.4992 82.2894 70.4968 82.2957 70.4956C82.302 70.4944 82.3084 70.4945 82.3146 70.4958C82.3209 70.4971 82.3268 70.4997 82.3321 70.5032C82.3373 70.5068 82.3418 70.5114 82.3453 70.5168C82.3488 70.5221 82.3512 70.5281 82.3524 70.5343C82.3536 70.5406 82.3535 70.547 82.3522 70.5533C82.2695 70.9628 82.3123 71.3877 82.4749 71.7727L91.6538 94.0799C92.1763 95.3496 93.7861 96.0906 95.2424 95.7319L115.439 90.7539C116.38 90.522 117.072 89.8645 117.246 89.0379C117.247 89.0316 117.249 89.0257 117.253 89.0205C117.257 89.0152 117.261 89.0107 117.266 89.0072C117.272 89.0038 117.278 89.0014 117.284 89.0002C117.29 88.999 117.297 88.9991 117.303 89.0004C117.309 89.0017 117.315 89.0042 117.32 89.0078C117.326 89.0114 117.33 89.016 117.334 89.0213C117.337 89.0267 117.34 89.0327 117.341 89.0389C117.342 89.0452 117.342 89.0516 117.341 89.0578L117.34 89.0581L116.974 90.8049C116.793 91.6683 116.073 92.3543 115.096 92.595L94.8991 97.5729C94.369 97.7007 93.8156 97.6966 93.2873 97.561ZM82.2235 71.1664L81.9855 72.3002C81.9028 72.7098 81.9456 73.1347 82.1082 73.5196L91.2872 95.8269C91.8097 97.0967 93.4196 97.8376 94.8758 97.479L115.073 92.5009C116.013 92.2691 116.705 91.6116 116.879 90.7849L117.116 89.653C116.794 90.2288 116.202 90.6658 115.463 90.848L95.2657 95.8258C93.7647 96.1957 92.1042 95.429 91.5641 94.1167L82.3852 71.8095C82.3 71.6042 82.2456 71.3875 82.2235 71.1664Z" fill="#111111"/>
<path d="M99.8103 64.9321L109.615 69.4525L117.166 87.8028C117.698 89.0959 116.931 90.4397 115.45 90.8047L95.253 95.7826C93.7721 96.1476 92.14 95.3951 91.6079 94.1021L82.4289 71.7949C81.8969 70.5018 82.6662 69.1576 84.1471 68.7925L99.8103 64.9321Z" fill="black"/>
<path d="M93.6518 95.8139C92.7189 95.5781 91.9092 94.9601 91.5621 94.1166L82.3831 71.8094C82.2606 71.5242 82.2021 71.2156 82.2117 70.9053C82.2212 70.5951 82.2986 70.2907 82.4384 70.0136C82.7531 69.3932 83.3713 68.9295 84.1345 68.7417L99.7976 64.8811C99.8083 64.8785 99.8195 64.8796 99.8295 64.8842L109.635 69.4045C109.646 69.4097 109.654 69.4188 109.659 69.4301L117.21 87.7805C117.333 88.0659 117.391 88.3746 117.382 88.6851C117.372 88.9955 117.295 89.3 117.155 89.5773C116.841 90.1969 116.223 90.66 115.461 90.8479L95.2636 95.826C94.7335 95.9537 94.1801 95.9496 93.6518 95.8139ZM99.8044 64.9793L84.1578 68.8357C83.4219 69.0171 82.8268 69.4623 82.5249 70.0573C82.3915 70.3221 82.3177 70.6128 82.3087 70.9091C82.2997 71.2055 82.3557 71.5002 82.4727 71.7726L91.6518 94.0798C92.1743 95.3496 93.7841 96.0905 95.2404 95.7319L115.437 90.7538C116.173 90.5726 116.767 90.1278 117.069 89.5335C117.202 89.2686 117.276 88.9777 117.285 88.6812C117.294 88.3848 117.238 88.0899 117.121 87.8174L109.577 69.4846L99.8044 64.9793Z" fill="#111111"/>
<path d="M99.8125 64.9297L109.618 69.4501L104.11 70.8075C103.167 71.0399 102.13 70.5621 101.791 69.7388L99.8125 64.9297Z" fill="white"/>
<path d="M103.084 70.8464C102.485 70.6951 101.965 70.2982 101.743 69.7567L99.7636 64.9476C99.7599 64.9386 99.759 64.9287 99.761 64.9192C99.763 64.9096 99.7679 64.9009 99.7749 64.8942C99.7819 64.8874 99.7908 64.883 99.8005 64.8814C99.8101 64.8797 99.8199 64.8811 99.8288 64.8852L109.634 69.4053C109.643 69.4096 109.651 69.4165 109.656 69.4252C109.661 69.4339 109.663 69.444 109.662 69.4539C109.661 69.4639 109.657 69.4734 109.65 69.481C109.644 69.4886 109.635 69.494 109.625 69.4964L104.117 70.8538C103.777 70.9358 103.423 70.9333 103.084 70.8464ZM99.9003 65.0247L101.832 69.7198C102.161 70.5195 103.176 70.9862 104.094 70.7599L109.468 69.4354L99.9003 65.0247ZM91.8532 73.957C91.8427 73.9544 91.8334 73.9483 91.8267 73.9397C91.8201 73.9312 91.8165 73.9207 91.8165 73.9099C91.8165 73.899 91.8202 73.8885 91.8269 73.88C91.8335 73.8715 91.8429 73.8655 91.8534 73.8629L101.856 71.3975C101.863 71.3958 101.869 71.3954 101.875 71.3963C101.882 71.3972 101.888 71.3994 101.893 71.4026C101.899 71.4059 101.904 71.4103 101.908 71.4155C101.911 71.4206 101.914 71.4265 101.916 71.4327C101.917 71.439 101.918 71.4455 101.917 71.4518C101.916 71.4582 101.913 71.4643 101.91 71.4698C101.907 71.4753 101.902 71.48 101.897 71.4838C101.892 71.4875 101.886 71.4902 101.88 71.4916L91.8766 73.9572C91.8689 73.959 91.8609 73.959 91.8532 73.957ZM90.1975 78.9642C90.187 78.9616 90.1777 78.9555 90.1711 78.947C90.1644 78.9385 90.1608 78.928 90.1609 78.9171C90.1609 78.9063 90.1645 78.8958 90.1712 78.8873C90.1779 78.8788 90.1872 78.8728 90.1977 78.8702L106.948 74.7417C106.955 74.7401 106.961 74.7397 106.967 74.7406C106.974 74.7415 106.98 74.7436 106.985 74.7469C106.991 74.7502 106.996 74.7545 107 74.7597C107.003 74.7649 107.006 74.7707 107.008 74.777C107.009 74.7832 107.01 74.7897 107.009 74.7961C107.008 74.8024 107.005 74.8085 107.002 74.814C106.999 74.8195 106.994 74.8242 106.989 74.828C106.984 74.8317 106.978 74.8344 106.972 74.8358L90.2208 78.9643C90.2131 78.9662 90.2051 78.9662 90.1975 78.9642ZM92.2677 83.9954C92.2572 83.9928 92.2479 83.9867 92.2412 83.9782C92.2346 83.9696 92.231 83.9591 92.231 83.9483C92.231 83.9375 92.2347 83.927 92.2414 83.9184C92.248 83.9099 92.2574 83.9039 92.2679 83.9013L109.018 79.7728C109.031 79.7697 109.044 79.7718 109.055 79.7784C109.066 79.7851 109.074 79.7958 109.077 79.8083C109.08 79.8208 109.078 79.834 109.072 79.845C109.065 79.856 109.054 79.8639 109.042 79.867L92.2912 83.9954C92.2835 83.9973 92.2754 83.9973 92.2677 83.9954ZM94.3373 89.025C94.3268 89.0223 94.3175 89.0162 94.3108 89.0077C94.3042 88.9992 94.3006 88.9886 94.3006 88.9778C94.3006 88.967 94.3043 88.9565 94.3109 88.948C94.3176 88.9395 94.327 88.9335 94.3375 88.9309L105.918 86.0767C105.924 86.0751 105.93 86.0747 105.937 86.0756C105.943 86.0765 105.949 86.0786 105.955 86.0819C105.96 86.0852 105.965 86.0895 105.969 86.0947C105.973 86.0999 105.976 86.1057 105.977 86.112C105.979 86.1182 105.979 86.1247 105.978 86.1311C105.977 86.1375 105.975 86.1435 105.971 86.149C105.968 86.1545 105.964 86.1593 105.958 86.163C105.953 86.1667 105.947 86.1694 105.941 86.1708L94.3607 89.025C94.353 89.0269 94.345 89.0269 94.3373 89.025Z" fill="#111111"/>
</g>
<g clip-path="url(#clip3_31353_33245)">
<path d="M5.5864 60.4248C5.90165 59.9848 6.37095 59.6681 6.85718 59.4452C7.021 59.3698 7.18864 59.303 7.35941 59.2451L25.5595 53.0998C25.3064 53.6367 26.2283 56.3693 26.7501 56.6284C26.5896 56.68 8.53879 62.7828 8.38981 62.8251C8.18264 62.8868 7.97188 62.9357 7.75871 62.9715C6.23978 63.332 4.56098 62.1121 5.5864 60.4248Z" fill="#111111"/>
<path d="M6.475 62.9936C6.08265 62.875 5.73783 62.6354 5.48982 62.3091C5.09541 61.7665 5.10955 61.0871 5.52966 60.3959C5.53053 60.3945 5.53147 60.3931 5.53246 60.3917C5.82022 59.9899 6.25672 59.6528 6.82951 59.3902C6.99508 59.3141 7.16451 59.2466 7.3371 59.188L25.5382 53.0424C25.5506 53.0382 25.5639 53.0378 25.5766 53.0411C25.5892 53.0444 25.6006 53.0514 25.6092 53.0612C25.6179 53.0709 25.6236 53.083 25.6254 53.0959C25.6273 53.1088 25.6253 53.122 25.6198 53.1339C25.3846 53.6329 26.2952 56.3339 26.7798 56.5745C26.7917 56.5804 26.8015 56.5897 26.808 56.6012C26.8145 56.6127 26.8175 56.6259 26.8165 56.6391C26.8155 56.6523 26.8106 56.6649 26.8024 56.6753C26.7943 56.6857 26.7832 56.6934 26.7706 56.6975C26.7122 56.7162 24.252 57.5473 21.1375 58.5996C15.5089 60.501 8.50403 62.8675 8.40803 62.8948C8.19837 62.9571 7.9851 63.0066 7.76941 63.043C7.34143 63.1442 6.89401 63.1271 6.475 62.9936ZM5.64216 60.4672C5.25297 61.1087 5.23713 61.735 5.59761 62.2307C6.03233 62.8287 6.91486 63.1091 7.74348 62.9125C7.95537 62.8768 8.16488 62.8282 8.37086 62.767C8.48333 62.734 15.7726 60.2715 21.095 58.4733C23.8395 57.546 26.0757 56.7906 26.6097 56.611C26.0888 56.1074 25.3543 53.9303 25.4629 53.2084L7.38074 59.3137C7.21258 59.3708 7.04749 59.4365 6.88616 59.5107C6.33448 59.7638 5.91629 60.0855 5.64216 60.4672Z" fill="#111111"/>
<path d="M26.7503 56.6276C26.9193 56.5705 26.7897 55.7346 26.461 54.7604C26.1322 53.7863 25.7288 53.0428 25.5598 53.0998C25.3909 53.1569 25.5204 53.9928 25.8492 54.967C26.1779 55.9411 26.5814 56.6846 26.7503 56.6276Z" fill="white"/>
<path d="M26.686 56.6954C26.6333 56.6745 26.5866 56.6408 26.5503 56.5973C26.2688 56.295 25.8379 55.2867 25.5896 54.3494C25.474 53.9128 25.3106 53.1633 25.5162 53.0498C25.5843 53.0119 25.6652 53.0419 25.7556 53.1393C26.037 53.4414 26.468 54.4498 26.7163 55.3872C26.832 55.8238 26.9953 56.5733 26.7897 56.6869C26.774 56.6956 26.7566 56.7008 26.7388 56.7023C26.7209 56.7038 26.7029 56.7014 26.686 56.6954ZM25.5804 53.1685C25.5791 53.168 25.5777 53.1675 25.5764 53.1673C25.5362 53.2015 25.5104 53.5297 25.7185 54.3151C25.9619 55.2345 26.3789 56.2175 26.6478 56.5063C26.7038 56.5663 26.7293 56.5688 26.7297 56.5688C26.7699 56.5345 26.7957 56.2063 26.5877 55.421C26.344 54.5014 25.9271 53.5185 25.6583 53.2297C25.6375 53.2035 25.6108 53.1825 25.5804 53.1685Z" fill="#111111"/>
<path d="M37.9183 52.8541C38.0872 52.7971 37.9577 51.9611 37.6289 50.987C37.3002 50.0128 36.8967 49.2694 36.7278 49.3264C36.5588 49.3834 36.6884 50.2194 37.0171 51.1936C37.3459 52.1677 37.7493 52.9112 37.9183 52.8541Z" fill="white"/>
<path d="M37.8618 52.922C37.8091 52.9011 37.7624 52.8674 37.7261 52.8239C37.4446 52.5217 37.0136 51.5132 36.7654 50.5761C36.6497 50.1394 36.4863 49.3899 36.692 49.2764C36.7601 49.2385 36.841 49.2684 36.9314 49.3659C37.2129 49.6682 37.6437 50.6765 37.8921 51.6138C38.0078 52.0504 38.1711 52.7999 37.9655 52.9134C37.9498 52.9221 37.9324 52.9274 37.9146 52.9289C37.8967 52.9303 37.8787 52.928 37.8618 52.922ZM36.7562 49.3951C36.7549 49.3946 36.7535 49.3941 36.7522 49.3938C36.712 49.4281 36.6861 49.7563 36.8943 50.5416C37.1377 51.461 37.5547 52.444 37.8235 52.7328C37.8797 52.7929 37.9051 52.7953 37.9054 52.7953C37.9456 52.7611 37.9715 52.4329 37.7634 51.6475C37.5199 50.7281 37.103 49.7451 36.8341 49.4563C36.8133 49.4301 36.7866 49.4091 36.7562 49.3951Z" fill="#111111"/>
<path d="M25.4989 53.1905C25.5006 53.172 25.507 53.1541 25.5173 53.1386C25.5277 53.1231 25.5417 53.1104 25.5581 53.1017L36.7287 49.3299C36.3687 49.6686 37.48 52.8667 37.9193 52.8586L26.7488 56.6304C26.7124 56.6427 26.6625 56.6173 26.5995 56.5496C26.1129 55.9399 25.4275 54.0602 25.4989 53.1905Z" fill="white"/>
<path d="M26.6851 56.6907C26.6331 56.6695 26.5871 56.636 26.5509 56.5931C26.0368 55.9493 25.3618 54.0453 25.4326 53.1829C25.4329 53.1794 25.4335 53.1758 25.4343 53.1723C25.4382 53.1427 25.4496 53.1147 25.4676 53.0908C25.4856 53.067 25.5094 53.0483 25.5368 53.0364L36.7074 49.2647C36.7218 49.2599 36.7374 49.2601 36.7517 49.2653C36.7659 49.2705 36.778 49.2805 36.7858 49.2935C36.7936 49.3065 36.7967 49.3218 36.7947 49.3369C36.7926 49.3519 36.7854 49.3658 36.7744 49.3762C36.6081 49.5325 36.8586 50.6825 37.2896 51.7424C37.6277 52.5738 37.8485 52.7912 37.9183 52.7899C37.9341 52.7896 37.9496 52.795 37.9618 52.8052C37.9741 52.8153 37.9823 52.8294 37.985 52.8451C37.9877 52.8607 37.9847 52.8768 37.9766 52.8905C37.9685 52.9041 37.9557 52.9144 37.9407 52.9195L26.7702 56.6915C26.7425 56.7006 26.7126 56.7003 26.6851 56.6907ZM25.5649 53.1997C25.4996 54.0396 26.1553 55.8843 26.6517 56.5062C26.7044 56.5626 26.7299 56.565 26.7303 56.5649L37.7529 52.8427C37.5497 52.6595 37.3304 52.1963 37.1663 51.7929C36.9172 51.1804 36.5092 49.9291 36.6075 49.4393L25.5796 53.1628C25.573 53.1744 25.5681 53.1868 25.5649 53.1997Z" fill="#111111"/>
<path d="M41.7014 55.2044L43.038 56.4231C41.5633 55.0786 40.4528 53.2957 39.8979 51.1717C38.2509 44.866 42.1246 37.9358 48.5521 35.6962C52.8164 34.2102 57.1314 35.1605 60.0348 37.8076L58.698 36.5892C55.7945 33.9419 51.4797 32.9918 47.2154 34.4776C40.788 36.7172 36.9142 43.6473 38.5612 49.9532C39.116 52.0774 40.2266 53.8601 41.7013 55.2046" fill="white"/>
<path d="M43.0165 56.4845C43.0074 56.4816 42.9991 56.4767 42.9921 56.4703L41.6554 55.2516C40.1125 53.8338 39.0148 51.9981 38.4957 49.9678C36.8423 43.6377 40.7436 36.66 47.1925 34.4128C49.2614 33.6918 51.4351 33.5201 53.4785 33.9161C55.4405 34.2897 57.2616 35.1969 58.7418 36.538L60.0785 37.7566C60.085 37.7625 60.0902 37.7696 60.0939 37.7776C60.0976 37.7855 60.0997 37.7941 60.1001 37.8028C60.1005 37.8115 60.0992 37.8203 60.0963 37.8285C60.0933 37.8367 60.0887 37.8443 60.0828 37.8507C60.0769 37.8572 60.0698 37.8625 60.0619 37.8662C60.054 37.8699 60.0454 37.872 60.0367 37.8724C60.0279 37.8728 60.0192 37.8715 60.011 37.8685C60.0027 37.8655 59.9952 37.861 59.9887 37.8551C58.5267 36.5304 56.7279 35.6344 54.7899 35.2655C52.7695 34.874 50.6197 35.0441 48.5731 35.7572C42.1884 37.982 38.3253 44.8885 39.9613 51.153C40.4739 53.1583 41.5581 54.9715 43.0819 56.372C43.0932 56.3822 43.1005 56.396 43.1029 56.411C43.1052 56.4261 43.1023 56.4414 43.0946 56.4546C43.087 56.4678 43.0751 56.4779 43.0609 56.4833C43.0467 56.4888 43.031 56.4892 43.0165 56.4845ZM54.7384 34.3769C54.317 34.2412 53.8877 34.1309 53.453 34.0467C51.4326 33.6552 49.2831 33.8253 47.2362 34.5385C40.8514 36.7632 36.9883 43.6696 38.6245 49.9342C39.1371 51.9396 40.2213 53.7528 41.7452 55.1532L41.8512 55.2499C40.9021 54.0512 40.2144 52.6671 39.8323 51.1865C38.1793 44.8565 42.0803 37.8787 48.529 35.6315C50.5981 34.9105 52.7718 34.7388 54.8152 35.1348C56.2188 35.4044 57.5562 35.9456 58.7524 36.7279L58.652 36.6364C57.5241 35.6119 56.1896 34.8414 54.7384 34.3769Z" fill="#111111"/>
<path d="M41.7014 55.2044L43.038 56.4231C41.5633 55.0786 40.4528 53.2957 39.8979 51.1717C38.2509 44.866 42.1246 37.9358 48.5521 35.6962C52.8164 34.2102 57.1314 35.1605 60.0348 37.8076L58.698 36.5892C55.7945 33.9419 51.4797 32.9918 47.2154 34.4776C40.788 36.7172 36.9142 43.6473 38.5612 49.9532C39.116 52.0774 40.2266 53.8601 41.7013 55.2046" fill="white"/>
<path d="M43.0165 56.4845C43.0074 56.4816 42.9991 56.4767 42.9921 56.4703L41.6554 55.2516C40.1125 53.8338 39.0148 51.9981 38.4957 49.9678C36.8423 43.6377 40.7436 36.66 47.1925 34.4128C49.2614 33.6918 51.4351 33.5201 53.4785 33.9161C55.4405 34.2897 57.2616 35.1969 58.7418 36.538L60.0785 37.7566C60.085 37.7625 60.0902 37.7696 60.0939 37.7776C60.0976 37.7855 60.0997 37.7941 60.1001 37.8028C60.1005 37.8115 60.0992 37.8203 60.0963 37.8285C60.0933 37.8367 60.0887 37.8443 60.0828 37.8507C60.0769 37.8572 60.0698 37.8625 60.0619 37.8662C60.054 37.8699 60.0454 37.872 60.0367 37.8724C60.0279 37.8728 60.0192 37.8715 60.011 37.8685C60.0027 37.8655 59.9952 37.861 59.9887 37.8551C58.5267 36.5304 56.7279 35.6344 54.7899 35.2655C52.7695 34.874 50.6197 35.0441 48.5731 35.7572C42.1884 37.982 38.3253 44.8885 39.9613 51.153C40.4739 53.1583 41.5581 54.9715 43.0819 56.372C43.0932 56.3822 43.1005 56.396 43.1029 56.411C43.1052 56.4261 43.1023 56.4414 43.0946 56.4546C43.087 56.4678 43.0751 56.4779 43.0609 56.4833C43.0467 56.4888 43.031 56.4892 43.0165 56.4845ZM54.7384 34.3769C54.317 34.2412 53.8877 34.1309 53.453 34.0467C51.4326 33.6552 49.2831 33.8253 47.2362 34.5385C40.8514 36.7632 36.9883 43.6696 38.6245 49.9342C39.1371 51.9396 40.2213 53.7528 41.7452 55.1532L41.8512 55.2499C40.9021 54.0512 40.2144 52.6671 39.8323 51.1865C38.1793 44.8565 42.0803 37.8787 48.529 35.6315C50.5981 34.9105 52.7718 34.7388 54.8152 35.1348C56.2188 35.4044 57.5562 35.9456 58.7524 36.7279L58.652 36.6364C57.5241 35.6119 56.1896 34.8414 54.7384 34.3769Z" fill="#111111"/>
<path d="M47.2154 34.4776C40.788 36.7172 36.9142 43.6473 38.5612 49.9532C40.2082 56.2591 46.753 59.5549 53.1804 57.3151C59.6114 55.0742 63.4864 48.1478 61.8393 41.8421C60.1922 35.5364 53.6464 32.2367 47.2154 34.4776Z" fill="white"/>
<path d="M45.6356 57.5498C45.009 57.3479 44.4017 57.0904 43.8208 56.7804C41.1635 55.3629 39.2722 52.944 38.4952 49.9694C36.8418 43.6392 40.7431 36.6615 47.192 34.4142C50.415 33.2913 53.7472 33.5031 56.5743 35.0114C59.2327 36.4294 61.1248 38.849 61.9019 41.8246C63.5548 48.1527 59.6514 55.1297 53.2006 57.3774C50.646 58.2679 48.0221 58.3188 45.6356 57.5498ZM47.236 34.5401C40.8513 36.7648 36.9881 43.6711 38.6243 49.9358C39.3918 52.8741 41.2596 55.2632 43.8838 56.663C46.6772 58.153 49.9706 58.3622 53.1573 57.2519C59.544 55.0264 63.4093 48.121 61.7735 41.8585C61.0059 38.9193 59.1373 36.5294 56.5121 35.129C53.718 33.6384 50.4236 33.4296 47.236 34.5401Z" fill="#111111"/>
<path d="M39.9501 57.1199L41.2868 58.3386C44.7875 61.5302 49.9899 62.6756 55.1283 60.8851C62.8804 58.184 67.5536 49.83 65.5681 42.2285C64.8989 39.6666 63.5594 37.5165 61.7809 35.8947L60.4442 34.6761C62.2226 36.2977 63.5623 38.4477 64.2314 41.0099C66.217 48.6115 61.5437 56.9655 53.7917 59.6665C48.6532 61.4569 43.4509 60.3116 39.9501 57.1199Z" fill="url(#paint1_linear_31353_33245)"/>
<path d="M46.0151 61.1488C44.2454 60.5824 42.6178 59.6429 41.2423 58.3937L39.9058 57.175C39.8992 57.1692 39.8939 57.1621 39.8901 57.1541C39.8863 57.1462 39.8841 57.1376 39.8837 57.1288C39.8832 57.12 39.8845 57.1112 39.8875 57.1029C39.8904 57.0947 39.895 57.0871 39.9009 57.0806C39.9069 57.0741 39.914 57.0688 39.922 57.0651C39.93 57.0614 39.9386 57.0592 39.9474 57.0589C39.9562 57.0585 39.9649 57.0599 39.9732 57.0629C39.9814 57.066 39.989 57.0706 39.9955 57.0766C41.7601 58.6752 43.931 59.7565 46.2699 60.202C48.7078 60.6746 51.3013 60.4697 53.7702 59.6095C61.4776 56.9236 66.1417 48.5903 64.1675 41.0324C63.5247 38.5713 62.2217 36.3923 60.3999 34.7313C60.3869 34.7194 60.3791 34.7028 60.3783 34.6851C60.3774 34.6675 60.3837 34.6502 60.3956 34.6372C60.4075 34.6241 60.4241 34.6163 60.4417 34.6155C60.4593 34.6147 60.4766 34.6209 60.4896 34.6328L61.8263 35.8515C63.6674 37.53 64.9838 39.7314 65.6332 42.2175C66.5979 45.9109 66.0386 49.8939 64.0586 53.4329C62.0785 56.9718 58.9153 59.6418 55.1508 60.9535C52.6597 61.8215 50.0421 62.0285 47.5813 61.5511C47.0516 61.4485 46.5286 61.3142 46.0151 61.1488ZM41.3528 58.3136C43.114 59.9018 45.2772 60.9762 47.6068 61.42C50.0447 61.8926 52.6383 61.6877 55.1072 60.8274C62.8144 58.142 67.4786 49.8083 65.5044 42.2504C64.8633 39.796 63.5656 37.622 61.7513 35.9626C62.9532 37.4377 63.8215 39.1555 64.2966 40.9981C65.2613 44.6915 64.7021 48.6745 62.722 52.2135C60.7418 55.7525 57.5787 58.4229 53.8142 59.7346C51.3231 60.6029 48.7056 60.8095 46.2447 60.3325C44.4946 59.9963 42.8306 59.3096 41.3528 58.3136Z" fill="#111111"/>
<path d="M64.234 41.0147C66.2195 48.6163 61.5462 56.9702 53.7942 59.6713C46.046 62.371 38.1524 58.3959 36.1668 50.7944C34.1804 43.1891 38.8536 34.8351 46.6019 32.1352C54.3539 29.4342 62.2475 33.4094 64.234 41.0147ZM53.1805 57.3221C59.6115 55.0812 63.4865 48.1548 61.8394 41.849C60.1923 35.5433 53.6465 32.2437 47.2155 34.4846C40.7881 36.7242 36.9143 43.6542 38.5613 49.9602C40.2083 56.2661 46.7531 59.5619 53.1805 57.3221Z" fill="black"/>
<path d="M44.6798 59.9239C43.9327 59.6832 43.2086 59.3762 42.5161 59.0066C39.315 57.2989 37.0367 54.3857 36.101 50.8035C35.136 47.1087 35.6946 43.1248 37.6744 39.585C39.6537 36.0467 42.8153 33.3758 46.5787 32.0644C48.4794 31.3902 50.4982 31.1129 52.5102 31.2498C54.3885 31.3768 56.2187 31.8996 57.8808 32.7837C61.0823 34.4916 63.361 37.4058 64.2972 40.9898C65.2618 44.6832 64.7027 48.6662 62.7225 52.2052C60.7424 55.7442 57.5792 58.4146 53.8148 59.7263C51.9148 60.4002 49.8968 60.6773 47.8856 60.5402C46.7961 60.4644 45.7198 60.2574 44.6798 59.9239ZM55.6764 31.9935C54.6462 31.663 53.58 31.458 52.5007 31.3828C50.5067 31.2472 48.506 31.5221 46.6224 32.1904C38.9172 34.8752 34.2552 43.2099 36.2299 50.7698C37.1561 54.3157 39.4107 57.1991 42.5788 58.8891C44.224 59.7643 46.0357 60.2818 47.895 60.4077C49.8882 60.5435 51.8881 60.269 53.7711 59.6011C61.4784 56.9152 66.1425 48.5819 64.1684 41.024C63.2416 37.4761 60.9864 34.5916 57.8181 32.9014C57.1326 32.5356 56.4159 32.2318 55.6764 31.9935ZM45.6357 57.5495C45.009 57.3476 44.4017 57.0901 43.8209 56.7801C41.1636 55.3626 39.2722 52.9437 38.4953 49.969C36.8419 43.6389 40.7431 36.6612 47.192 34.4139C50.415 33.291 53.7472 33.5029 56.5743 35.0111C59.2327 36.4291 61.1248 38.8487 61.902 41.8243C63.5548 48.1524 59.6515 55.1293 53.2006 57.3771C50.646 58.2676 48.0221 58.3185 45.6357 57.5495ZM54.7188 34.3684C52.3592 33.608 49.764 33.6587 47.236 34.5397C40.8513 36.7644 36.9881 43.6708 38.6244 49.9354C39.3919 52.8737 41.2597 55.2629 43.8838 56.6627C46.6772 58.1527 49.9706 58.3619 53.1573 57.2516C59.5441 55.0261 63.4093 48.1207 61.7736 41.8582C61.0059 38.919 59.1373 36.5291 56.5121 35.1287C55.9382 34.8224 55.3382 34.568 54.7191 34.3685L54.7188 34.3684Z" fill="#111111"/>
</g>
<defs>
<linearGradient id="paint0_linear_31353_33245" x1="94.1233" y1="66.1736" x2="104.556" y2="94.6217" gradientUnits="userSpaceOnUse">
<stop offset="0.078" stop-color="#3658C1"/>
<stop offset="1" stop-color="#111111"/>
</linearGradient>
<linearGradient id="paint1_linear_31353_33245" x1="64.5934" y1="40.6888" x2="47.5565" y2="60.6828" gradientUnits="userSpaceOnUse">
<stop offset="0.326" stop-color="#111111"/>
<stop offset="0.769" stop-color="#3658C1"/>
<stop offset="1" stop-color="#111111"/>
</linearGradient>
<clipPath id="clip0_31353_33245">
<rect width="88.2114" height="73.0375" fill="white" transform="translate(29.1094 28.8984)"/>
</clipPath>
<clipPath id="clip1_31353_33245">
<rect width="16.5096" height="17.311" fill="white" transform="translate(99.082 22.875) rotate(7.89294)"/>
</clipPath>
<clipPath id="clip2_31353_33245">
<rect width="38.6292" height="33.2863" fill="white" transform="translate(84.6523 61.0469) rotate(14.1859)"/>
</clipPath>
<clipPath id="clip3_31353_33245">
<rect width="53.9633" height="44.7201" fill="white" transform="translate(18.5117 19.8828) rotate(17.8605)"/>
</clipPath>
</defs>
</svg>
