<svg width="152" height="152" viewBox="0 0 152 152" fill="none" xmlns="http://www.w3.org/2000/svg">
<g clip-path="url(#clip0_31355_33570)">
<path d="M119.578 96.1682L39.079 113.351C36.2357 113.958 33.2943 112.071 32.507 109.134L17.1933 52.0144C16.616 49.8613 17.3573 47.7435 18.9144 46.5274L17.8934 47.3245C16.3361 48.5408 15.5951 50.6586 16.1723 52.8117L31.4861 109.931C32.2734 112.868 35.2148 114.756 38.058 114.149L118.557 96.9655C119.286 96.8124 119.97 96.4951 120.557 96.0377L121.578 95.2404C120.991 95.6978 120.307 96.0151 119.578 96.1682Z" fill="black"/>
<path d="M36.4391 114.305C34.1457 114.066 32.0672 112.354 31.4232 109.953L16.1095 52.8333C15.5445 50.726 16.2297 48.5444 17.8544 47.2753L18.8754 46.4779C18.8824 46.4724 18.8905 46.4683 18.8991 46.4659C18.9077 46.4635 18.9167 46.4629 18.9256 46.464C18.9344 46.465 18.943 46.4679 18.9508 46.4723C18.9585 46.4767 18.9654 46.4826 18.9709 46.4896C18.9764 46.4966 18.9804 46.5047 18.9828 46.5133C18.9852 46.5219 18.9859 46.5309 18.9848 46.5398C18.9837 46.5486 18.9809 46.5572 18.9765 46.565C18.9721 46.5727 18.9662 46.5796 18.9591 46.5851C17.3773 47.8205 16.7111 49.9463 17.2618 52.0008L32.5756 109.12C33.3522 112.017 36.2643 113.887 39.0677 113.289L119.567 96.1057C120.286 95.9555 120.96 95.6425 121.539 95.1909C121.546 95.1854 121.555 95.1813 121.563 95.1789C121.572 95.1765 121.581 95.1759 121.59 95.177C121.598 95.178 121.607 95.1809 121.615 95.1853C121.623 95.1897 121.629 95.1955 121.635 95.2026C121.64 95.2096 121.644 95.2177 121.647 95.2263C121.649 95.2349 121.65 95.2439 121.649 95.2527C121.648 95.2616 121.645 95.2702 121.64 95.2779C121.636 95.2857 121.63 95.2925 121.623 95.298L120.602 96.0954C120.007 96.5598 119.313 96.8816 118.574 97.0361L38.0751 114.219C37.5377 114.334 36.9856 114.363 36.4391 114.305ZM18.0544 47.2916L17.9381 47.3825C16.3563 48.6177 15.6901 50.7437 16.2409 52.7982L31.5546 109.918C32.3313 112.815 35.2433 114.685 38.0467 114.086L118.546 96.903C119.265 96.7529 119.939 96.4399 120.518 95.9882L120.634 95.8977C120.301 96.0486 119.953 96.1629 119.595 96.2386L39.0961 113.422C36.2234 114.035 33.2393 112.121 32.4442 109.155L17.1305 52.036C16.6726 50.3283 17.0356 48.5718 18.0544 47.2916Z" fill="#111111"/>
<path d="M101.415 28.4195C104.258 27.8126 107.199 29.7002 107.987 32.637L123.3 89.7565C124.088 92.6932 122.422 95.5643 119.579 96.1713L39.0798 113.354C36.2365 113.961 33.2951 112.074 32.5078 109.137L17.1941 52.0174C16.4067 49.0806 18.0723 46.2096 20.9155 45.6027L101.415 28.4195Z" fill="white"/>
<path d="M37.4589 113.502C35.1658 113.263 33.0869 111.552 32.443 109.15L17.1292 52.0306C16.7314 50.5464 16.9329 49.0426 17.6968 47.7946C18.0476 47.218 18.5131 46.7197 19.0645 46.3304C19.6159 45.9411 20.2414 45.6693 20.9022 45.5317L101.401 28.3485C104.274 27.7355 107.258 29.6493 108.053 32.6149L123.367 89.7345C123.765 91.2187 123.563 92.7224 122.799 93.9704C122.448 94.547 121.983 95.0454 121.432 95.4346C120.88 95.8239 120.255 96.0958 119.594 96.2333L39.0949 113.417C38.5574 113.531 38.0053 113.56 37.4589 113.502ZM103.024 28.398C102.492 28.342 101.954 28.3702 101.43 28.4816L20.9306 45.6648C20.2878 45.7986 19.6794 46.063 19.1431 46.4416C18.6068 46.8202 18.154 47.3049 17.8128 47.8657C17.0687 49.0812 16.8726 50.5478 17.2606 51.9954L32.5744 109.115C33.2033 111.461 35.2336 113.134 37.4717 113.367C38.0044 113.423 38.5426 113.395 39.0664 113.284L119.565 96.1003C120.208 95.9665 120.817 95.7021 121.353 95.3235C121.889 94.9449 122.342 94.4602 122.683 93.8994C123.427 92.6838 123.624 91.2172 123.235 89.7696L107.922 32.6501C107.293 30.304 105.262 28.6312 103.024 28.398Z" fill="#111111"/>
<path d="M119.9 88.9037L105.386 34.7645C104.8 32.5815 102.613 31.1781 100.5 31.6292L23.3567 48.0961C21.2431 48.5473 20.0049 50.6819 20.5901 52.8648L35.1049 107.004C35.6901 109.187 37.8778 110.594 39.9913 110.142L117.135 93.6756C119.249 93.2245 120.486 91.0868 119.9 88.9037Z" fill="white"/>
<path d="M38.7852 110.277C37.0731 110.098 35.5205 108.819 35.0394 107.025L20.5245 52.8861C20.2276 51.7784 20.3782 50.6555 20.9486 49.7235C21.2106 49.2929 21.5583 48.9207 21.9701 48.63C22.3819 48.3393 22.8491 48.1363 23.3426 48.0336L100.486 31.5664C102.63 31.1086 104.858 32.5371 105.451 34.7507L119.966 88.8898C120.263 89.9987 120.113 91.1231 119.541 92.056C119.28 92.4865 118.932 92.8586 118.521 93.1493C118.109 93.44 117.642 93.643 117.149 93.7458L40.0057 110.213C39.6047 110.298 39.1929 110.32 38.7852 110.277ZM101.694 31.6377C101.3 31.5961 100.902 31.6169 100.514 31.6993L23.371 48.1665C22.8955 48.2655 22.4455 48.4611 22.0487 48.7411C21.652 49.0212 21.317 49.3798 21.0646 49.7947C20.5138 50.6946 20.3687 51.7797 20.6559 52.8511L35.1706 106.99C35.7461 109.137 37.9022 110.523 39.9772 110.08L117.121 93.6128C117.596 93.5138 118.046 93.3182 118.442 93.0382C118.839 92.7582 119.173 92.3997 119.425 91.985C119.977 91.0842 120.122 89.9975 119.835 88.925L105.32 34.7859C104.854 33.0488 103.351 31.8103 101.694 31.6377ZM26.1729 79.6009C26.0887 79.6197 26.0093 79.6556 25.9397 79.7065C25.87 79.7574 25.8116 79.8221 25.7681 79.8966C25.7246 79.9711 25.697 80.0538 25.687 80.1395C25.677 80.2251 25.6847 80.3119 25.7098 80.3945C25.7545 80.5688 25.8635 80.7197 26.0149 80.8169C26.1664 80.9142 26.349 80.9505 26.5261 80.9187C26.61 80.8992 26.6891 80.8627 26.7584 80.8113C26.8276 80.76 26.8856 80.695 26.9286 80.6203C26.9717 80.5457 26.9989 80.463 27.0086 80.3773C27.0184 80.2917 27.0104 80.205 26.9851 80.1225C26.9406 79.9491 26.8321 79.799 26.6814 79.7023C26.5308 79.6056 26.349 79.5695 26.1728 79.6013" fill="#111111"/>
<path d="M26.3181 80.9949C26.1601 80.9761 26.0113 80.9104 25.891 80.8063C25.7706 80.7021 25.6843 80.5642 25.6432 80.4105C25.6163 80.3155 25.6093 80.2159 25.6225 80.1181C25.6357 80.0202 25.6688 79.9261 25.7199 79.8416C25.7678 79.7629 25.8314 79.6949 25.9067 79.6418C25.9821 79.5887 26.0675 79.5516 26.1578 79.5329C26.351 79.4978 26.5504 79.5371 26.7158 79.6429C26.8813 79.7486 27.0007 79.913 27.05 80.1031C27.077 80.1988 27.084 80.2991 27.0707 80.3977C27.0573 80.4963 27.0239 80.5911 26.9724 80.6762C26.9251 80.7543 26.8623 80.8218 26.7878 80.8745C26.7133 80.9273 26.6287 80.9642 26.5394 80.983C26.4667 80.9985 26.3921 81.0026 26.3181 80.9949ZM26.1862 79.6659C26.114 79.6808 26.0457 79.7104 25.9854 79.7528C25.9252 79.7953 25.8743 79.8496 25.8359 79.9126C25.7946 79.9814 25.7678 80.058 25.7572 80.1376C25.7467 80.2172 25.7526 80.2981 25.7746 80.3753C25.8148 80.5327 25.913 80.6692 26.0495 80.7573C26.1861 80.8454 26.3509 80.8786 26.5109 80.8503C26.5822 80.8353 26.6497 80.8059 26.7091 80.7638C26.7685 80.7217 26.8186 80.6678 26.8564 80.6055C26.8982 80.5361 26.9253 80.4587 26.9361 80.3784C26.9468 80.298 26.9409 80.2162 26.9187 80.1382C26.8787 79.9817 26.781 79.846 26.6452 79.7584C26.5094 79.6708 26.3455 79.6378 26.1863 79.6659L26.1862 79.6659Z" fill="#111111"/>
</g>
<g clip-path="url(#clip1_31355_33570)">
<path d="M79.0771 40.1406L46.5039 47.1492L47.4463 50.6491L80.0196 43.6406L79.0771 40.1406Z" fill="black"/>
<path d="M47.4439 50.7149C47.4289 50.7149 47.4144 50.7099 47.4026 50.7008C47.3907 50.6917 47.3822 50.679 47.3784 50.6646L46.4359 47.1646C46.4335 47.1557 46.433 47.1464 46.4343 47.1373C46.4356 47.1281 46.4388 47.1194 46.4436 47.1115C46.4484 47.1036 46.4547 47.0968 46.4622 47.0915C46.4698 47.0862 46.4783 47.0824 46.4873 47.0805L79.0606 40.0718C79.0776 40.0682 79.0954 40.0712 79.1103 40.0803C79.1251 40.0894 79.1359 40.1038 79.1405 40.1207L80.0829 43.6206C80.0853 43.6295 80.0858 43.6388 80.0845 43.6479C80.0832 43.6571 80.0801 43.6658 80.0752 43.6737C80.0704 43.6816 80.0641 43.6884 80.0566 43.6937C80.049 43.6991 80.0405 43.7028 80.0315 43.7047L47.4582 50.7133C47.4535 50.7143 47.4487 50.7148 47.4439 50.7148V50.7149ZM46.5858 47.1984L47.4927 50.5668L79.933 43.5869L79.026 40.2186L46.5858 47.1984Z" fill="#111111"/>
<path d="M60.7161 54.3629L54.5634 55.6867C53.5125 55.9128 52.8974 56.9775 53.1901 58.0642C53.4818 59.1478 54.5715 59.8456 55.6224 59.6195L61.7751 58.2957C62.8262 58.0695 63.4412 57.0049 63.1494 55.9213C62.8568 54.8346 61.7673 54.1367 60.7162 54.3629" fill="black"/>
<path d="M55.2212 59.7275C54.2775 59.7277 53.3855 59.0553 53.1228 58.0795C52.9719 57.519 53.0475 56.95 53.3357 56.4772C53.6066 56.0328 54.0369 55.7276 54.5476 55.6177L60.7003 54.294C61.7846 54.0603 62.9119 54.7816 63.2134 55.9012C63.3639 56.46 63.2882 57.0278 63.0004 57.4999C62.7293 57.9444 62.2987 58.2498 61.7878 58.3597L55.6351 59.6836C55.4991 59.7128 55.3603 59.7276 55.2212 59.7275ZM61.1145 54.3861C60.9864 54.3861 60.8573 54.3993 60.7289 54.427L54.5762 55.7508C54.1024 55.8528 53.703 56.1359 53.4518 56.5481C53.1832 56.9887 53.113 57.52 53.2541 58.0442C53.5366 59.0931 54.5916 59.769 55.6066 59.5507L61.7593 58.2268C62.2334 58.1248 62.633 57.8415 62.8844 57.4291C63.1527 56.9891 63.2229 56.4591 63.0823 55.9366C62.8351 55.0189 61.9985 54.3861 61.1146 54.3861L61.1145 54.3861Z" fill="#111111"/>
<path d="M60.8669 54.9287C60.12 55.0893 59.6832 55.8455 59.892 56.6209C60.1 57.3932 60.8739 57.8889 61.6207 57.7281C62.3675 57.5674 62.8073 56.8106 62.5994 56.0384C62.3914 55.2661 61.6137 54.7678 60.8669 54.9286" fill="white"/>
<path d="M61.3395 57.824C60.6601 57.824 60.0177 57.3395 59.8285 56.6364C59.7193 56.231 59.7737 55.8199 59.9816 55.4788C60.1766 55.1589 60.4867 54.939 60.8547 54.8598C61.6367 54.6913 62.4498 55.2113 62.667 56.0185C62.7754 56.421 62.7209 56.8303 62.5132 57.1708C62.3173 57.4922 62.0062 57.713 61.6371 57.7924C61.5393 57.8134 61.4395 57.824 61.3395 57.8239L61.3395 57.824ZM61.1537 54.9642C61.0628 54.9642 60.9721 54.9738 60.8832 54.9929C60.5521 55.0642 60.273 55.2619 60.0975 55.5498C59.9092 55.8587 59.8603 56.232 59.9596 56.6011C60.1579 57.3376 60.8974 57.8122 61.6085 57.6595C61.9407 57.588 62.2208 57.3893 62.3972 57.1001C62.5851 56.7917 62.6344 56.4201 62.5358 56.0539C62.3622 55.4091 61.7744 54.9642 61.1538 54.9642H61.1537Z" fill="#111111"/>
<path d="M65.0807 77.3795L62.3914 77.9581C62.0872 78.0235 61.909 78.332 61.9938 78.6465L62.7425 81.4273C62.8272 81.7417 63.1428 81.944 63.4471 81.8786L66.1364 81.2999C66.4405 81.2345 66.6187 80.9259 66.5341 80.6115L65.7853 77.8308C65.7006 77.5162 65.3848 77.3141 65.0807 77.3795Z" fill="white"/>
<path d="M63.3337 81.9565C63.0391 81.9565 62.7606 81.747 62.6787 81.4426L61.9299 78.6619C61.8828 78.4868 61.9065 78.3086 61.997 78.1602C62.0387 78.0913 62.0941 78.0317 62.1598 77.985C62.2256 77.9384 62.3001 77.9058 62.379 77.8893L65.0684 77.3107C65.407 77.2376 65.7589 77.4622 65.8528 77.8108L66.6016 80.5916C66.6488 80.7667 66.6249 80.9448 66.5344 81.0932C66.4927 81.1621 66.4373 81.2218 66.3716 81.2684C66.3059 81.315 66.2314 81.3476 66.1526 81.3641L63.4632 81.9428C63.4207 81.9519 63.3773 81.9565 63.3338 81.9565H63.3337ZM65.1988 77.4328C65.1649 77.4328 65.1308 77.4364 65.0969 77.4437L62.4076 78.0223C62.3468 78.0351 62.2893 78.0602 62.2387 78.0961C62.188 78.132 62.1453 78.178 62.1131 78.2311C62.0423 78.3472 62.0238 78.4877 62.0612 78.6266L62.81 81.4073C62.8854 81.6871 63.1658 81.8677 63.4347 81.8098L66.1241 81.2311C66.1848 81.2184 66.2423 81.1932 66.293 81.1573C66.3436 81.1214 66.3863 81.0754 66.4185 81.0223C66.4893 80.9061 66.5078 80.7657 66.4705 80.6269L65.7217 77.8461C65.6558 77.6015 65.4335 77.4328 65.1989 77.4328H65.1988Z" fill="#111111"/>
<path d="M90.9735 92.3693L82.6945 94.1507C82.2549 94.2453 81.9984 94.6892 82.1201 95.1408L82.7204 97.3703C82.8428 97.825 83.2971 98.116 83.7368 98.0214L92.0157 96.24C92.4553 96.1454 92.7118 95.7015 92.5893 95.2469L91.989 93.0174C91.8674 92.5658 91.4131 92.2747 90.9735 92.3693Z" fill="white"/>
<path d="M83.5684 98.1047C83.1566 98.1047 82.7673 97.8113 82.6527 97.3857L82.0524 95.1562C81.9869 94.9129 82.02 94.6654 82.1456 94.4593C82.2646 94.2643 82.4537 94.1302 82.6783 94.0819L90.9572 92.3006C91.4299 92.1984 91.9217 92.5113 92.0527 92.9972L92.653 95.2269C92.719 95.4719 92.6859 95.7206 92.56 95.9272C92.4413 96.122 92.2523 96.2559 92.0279 96.3041L83.749 98.0855C83.6889 98.0984 83.6284 98.1047 83.5684 98.1047ZM90.9714 92.3671L90.9857 92.4336L82.7067 94.2149C82.519 94.2553 82.3609 94.3673 82.2616 94.5302C82.1556 94.7042 82.1278 94.9139 82.1836 95.1209L82.7839 97.3504C82.8968 97.7693 83.3169 98.0395 83.7204 97.9526L91.9993 96.1712C92.1868 96.1308 92.3448 96.0191 92.4439 95.8564C92.5503 95.682 92.5779 95.471 92.5217 95.2623L91.9214 93.0328C91.8091 92.6156 91.3896 92.3466 90.9857 92.4337L90.9715 92.3671L90.9714 92.3671Z" fill="#111111"/>
<path d="M70.7733 96.7129L62.4914 98.4949C62.0518 98.5895 61.7953 99.0334 61.9169 99.485L62.5173 101.715C62.6397 102.169 63.094 102.46 63.5336 102.366L71.8155 100.584C72.2521 100.49 72.5085 100.046 72.3861 99.5911L71.7858 97.3616C71.6642 96.91 71.2098 96.619 70.7733 96.7129Z" fill="white"/>
<path d="M63.3688 102.453C62.957 102.453 62.5677 102.16 62.4531 101.734L61.8528 99.5048C61.7873 99.2615 61.8204 99.014 61.9461 98.808C62.065 98.6129 62.2541 98.4789 62.4787 98.4306L70.7605 96.6486C71.2319 96.5475 71.722 96.86 71.8529 97.3461L72.4532 99.5756C72.5192 99.8209 72.4861 100.07 72.36 100.277C72.3022 100.372 72.2255 100.455 72.1345 100.52C72.0436 100.584 71.9404 100.629 71.8313 100.652L63.5494 102.434C63.4893 102.447 63.4288 102.453 63.3688 102.453V102.453ZM70.7748 96.715L70.7891 96.7815L62.5072 98.5635C62.3195 98.6039 62.1614 98.7159 62.0621 98.8788C61.956 99.0527 61.9283 99.2624 61.984 99.4694L62.5844 101.699C62.6972 102.118 63.1172 102.388 63.5209 102.301L71.8027 100.519C71.8938 100.5 71.9799 100.462 72.0558 100.408C72.1317 100.355 72.1958 100.286 72.244 100.206C72.3506 100.031 72.3782 99.8199 72.3219 99.6109L71.7216 97.3815C71.6093 96.9643 71.191 96.6951 70.7891 96.7817L70.7748 96.7151V96.715ZM28.0367 62.2184C28.0199 62.2184 28.0037 62.2122 27.9913 62.201C27.9788 62.1897 27.9709 62.1742 27.9691 62.1575C27.9674 62.1408 27.9718 62.124 27.9817 62.1104C27.9916 62.0968 28.0061 62.0874 28.0225 62.0838L41.4661 59.1913C41.4837 59.1875 41.5022 59.1909 41.5173 59.2007C41.5324 59.2105 41.5431 59.2259 41.5469 59.2436C41.5506 59.2612 41.5473 59.2796 41.5375 59.2948C41.5277 59.3099 41.5123 59.3206 41.4947 59.3244L28.0511 62.2168C28.0464 62.2179 28.0416 62.2184 28.0367 62.2183V62.2184ZM44.263 58.7272C44.2462 58.7272 44.23 58.721 44.2175 58.7097C44.205 58.6985 44.1971 58.683 44.1954 58.6663C44.1936 58.6496 44.1981 58.6328 44.2079 58.6192C44.2178 58.6056 44.2323 58.5961 44.2488 58.5926L51.3169 57.0718C51.3257 57.07 51.3347 57.0698 51.3435 57.0714C51.3522 57.073 51.3606 57.0764 51.3681 57.0812C51.3756 57.0861 51.3821 57.0923 51.3871 57.0997C51.3922 57.1071 51.3958 57.1153 51.3977 57.1241C51.3995 57.1328 51.3997 57.1418 51.3981 57.1506C51.3965 57.1594 51.3931 57.1678 51.3883 57.1753C51.3834 57.1828 51.3772 57.1893 51.3698 57.1944C51.3625 57.1994 51.3542 57.203 51.3455 57.2049L44.2773 58.7257C44.2726 58.7267 44.2678 58.7272 44.263 58.7272ZM28.71 64.7189C28.6933 64.7188 28.6773 64.7125 28.6649 64.7012C28.6525 64.69 28.6447 64.6746 28.643 64.658C28.6412 64.6413 28.6456 64.6247 28.6554 64.6111C28.6651 64.5975 28.6795 64.588 28.6958 64.5843L38.948 62.3819C38.9656 62.3781 38.984 62.3815 38.9992 62.3913C39.0143 62.4011 39.0249 62.4165 39.0287 62.4341C39.0325 62.4518 39.0291 62.4702 39.0193 62.4853C39.0095 62.5005 38.9941 62.5111 38.9765 62.5149L28.7244 64.7173C28.7197 64.7184 28.7149 64.7189 28.71 64.7188V64.7189ZM34.1239 84.8253C34.1071 84.8254 34.0909 84.8191 34.0785 84.8079C34.066 84.7967 34.0581 84.7812 34.0563 84.7645C34.0546 84.7478 34.059 84.731 34.0689 84.7174C34.0788 84.7038 34.0933 84.6943 34.1097 84.6908L53.209 80.5816C53.2266 80.5778 53.245 80.5811 53.2602 80.5909C53.2753 80.6007 53.286 80.6161 53.2897 80.6338C53.2935 80.6514 53.2902 80.6699 53.2804 80.685C53.2706 80.7002 53.2552 80.7108 53.2375 80.7146L34.1383 84.8239C34.1336 84.8249 34.1288 84.8254 34.1239 84.8253ZM34.8157 87.3945C34.7989 87.3945 34.7827 87.3883 34.7702 87.377C34.7578 87.3658 34.7499 87.3503 34.7481 87.3336C34.7463 87.3169 34.7508 87.3001 34.7607 87.2865C34.7705 87.2729 34.7851 87.2634 34.8015 87.2599L42.7399 85.5519C42.7486 85.5501 42.7576 85.5499 42.7664 85.5515C42.7752 85.5531 42.7836 85.5565 42.791 85.5613C42.7985 85.5662 42.805 85.5725 42.8101 85.5798C42.8152 85.5872 42.8187 85.5954 42.8206 85.6042C42.8225 85.6129 42.8226 85.6219 42.821 85.6307C42.8194 85.6395 42.8161 85.6479 42.8112 85.6554C42.8064 85.6629 42.8001 85.6694 42.7928 85.6745C42.7854 85.6795 42.7771 85.6831 42.7684 85.685L34.8301 87.393C34.8254 87.394 34.8205 87.3945 34.8157 87.3945ZM36.4281 93.3825C36.4113 93.3826 36.3951 93.3763 36.3826 93.3651C36.3701 93.3539 36.3622 93.3384 36.3604 93.3217C36.3587 93.305 36.3632 93.2882 36.373 93.2746C36.3829 93.261 36.3974 93.2515 36.4139 93.248L50.782 90.1565C50.7996 90.1528 50.818 90.1561 50.8332 90.1659C50.8483 90.1757 50.859 90.1911 50.8627 90.2088C50.8665 90.2264 50.8632 90.2449 50.8534 90.26C50.8436 90.2752 50.8282 90.2858 50.8105 90.2896L36.4424 93.3811C36.4377 93.3821 36.4329 93.3826 36.4281 93.3825ZM37.1199 95.9517C37.1031 95.9517 37.0868 95.9455 37.0743 95.9343C37.0618 95.923 37.0539 95.9076 37.0522 95.8908C37.0504 95.8741 37.0549 95.8573 37.0647 95.8437C37.0746 95.8301 37.0891 95.8206 37.1056 95.8171L57.9929 91.3196C58.0102 91.3165 58.0281 91.3202 58.0428 91.3301C58.0574 91.3399 58.0677 91.355 58.0714 91.3723C58.0751 91.3895 58.072 91.4076 58.0627 91.4226C58.0534 91.4376 58.0386 91.4483 58.0215 91.4527L37.1342 95.9502C37.1295 95.9512 37.1247 95.9517 37.1199 95.9517Z" fill="#111111"/>
<path d="M67.3854 85.9342L64.6961 86.5128C64.3919 86.5782 64.2137 86.8867 64.2984 87.2012L65.0464 89.9788C65.1311 90.2933 65.4467 90.4955 65.7509 90.4301L68.4403 89.8514C68.7443 89.786 68.9227 89.4776 68.8379 89.163L68.09 86.3854C68.0053 86.0709 67.6895 85.8688 67.3854 85.9342Z" fill="white"/>
<path d="M65.6374 90.5158C65.3428 90.5158 65.0644 90.3063 64.9825 90.002L64.2346 87.2244C64.1874 87.0492 64.2112 86.871 64.3017 86.7227C64.3434 86.6537 64.3989 86.5941 64.4646 86.5475C64.5303 86.5009 64.6048 86.4684 64.6836 86.4518L67.373 85.8731C67.7116 85.8002 68.0636 86.0247 68.1574 86.3733L68.9053 89.1508C68.9524 89.3259 68.9286 89.5041 68.8382 89.6525C68.7965 89.7214 68.741 89.781 68.6753 89.8276C68.6096 89.8743 68.535 89.9069 68.4562 89.9234L65.7668 90.502C65.7243 90.5112 65.6809 90.5158 65.6374 90.5158H65.6374ZM67.4015 86.0061L64.7122 86.5848C64.6514 86.5976 64.594 86.6227 64.5433 86.6586C64.4927 86.6945 64.4499 86.7404 64.4177 86.7935C64.3469 86.9097 64.3285 87.0501 64.3658 87.189L65.1136 89.9666C65.189 90.2463 65.4691 90.427 65.7383 90.369L68.4277 89.7904C68.4884 89.7776 68.5459 89.7525 68.5966 89.7165C68.6472 89.6806 68.6899 89.6347 68.7221 89.5815C68.7929 89.4653 68.8113 89.3249 68.774 89.1861L68.0262 86.4085C67.9509 86.1289 67.6707 85.9485 67.4015 86.0061Z" fill="#111111"/>
<path d="M66.7996 89.5805C66.7881 89.5805 66.7768 89.5776 66.7667 89.572L65.2818 88.7498C65.2739 88.7455 65.2669 88.7397 65.2613 88.7328C65.2556 88.7258 65.2514 88.7177 65.2488 88.7091C65.2463 88.7005 65.2455 88.6914 65.2465 88.6825C65.2475 88.6735 65.2502 88.6649 65.2546 88.657C65.2589 88.6491 65.2648 88.6422 65.2718 88.6366C65.2789 88.631 65.287 88.6269 65.2956 88.6244C65.3043 88.622 65.3133 88.6213 65.3222 88.6224C65.3312 88.6235 65.3398 88.6263 65.3476 88.6308L66.7626 89.4143L67.6339 86.9746C67.64 86.9577 67.6525 86.9438 67.6688 86.9362C67.6851 86.9285 67.7037 86.9276 67.7207 86.9337C67.7376 86.9397 67.7515 86.9523 67.7592 86.9685C67.7669 86.9848 67.7678 87.0035 67.7618 87.0204L66.8636 89.5355C66.8589 89.5487 66.8502 89.5601 66.8388 89.5682C66.8273 89.5763 66.8136 89.5805 66.7996 89.5805ZM66.1385 101.366C66.1266 101.366 66.1149 101.363 66.1046 101.357C66.0943 101.351 66.0857 101.342 66.0797 101.332C66.0738 101.322 66.0706 101.31 66.0707 101.298C66.0707 101.286 66.0738 101.274 66.0798 101.264L68.1085 97.7472C68.1129 97.7394 68.1189 97.7326 68.1259 97.7271C68.133 97.7216 68.1411 97.7175 68.1498 97.7152C68.1584 97.7128 68.1675 97.7122 68.1763 97.7134C68.1852 97.7145 68.1938 97.7174 68.2016 97.7219C68.2093 97.7264 68.2161 97.7324 68.2216 97.7395C68.227 97.7466 68.231 97.7548 68.2333 97.7634C68.2356 97.7721 68.2361 97.7811 68.2349 97.79C68.2337 97.7989 68.2307 97.8075 68.2262 97.8152L66.1975 101.332C66.1915 101.342 66.1829 101.351 66.1726 101.357C66.1622 101.363 66.1505 101.366 66.1385 101.366Z" fill="#111111"/>
<path d="M68.9537 100.761C68.9407 100.761 68.928 100.757 68.9171 100.75L65.3204 98.4435C65.3128 98.4387 65.3064 98.4325 65.3012 98.4251C65.2961 98.4178 65.2925 98.4096 65.2906 98.4008C65.2887 98.3921 65.2886 98.3831 65.2901 98.3743C65.2917 98.3655 65.295 98.3571 65.2999 98.3496C65.3046 98.342 65.3109 98.3355 65.3182 98.3304C65.3255 98.3253 65.3338 98.3217 65.3425 98.3198C65.3512 98.3178 65.3602 98.3177 65.369 98.3192C65.3778 98.3208 65.3862 98.3241 65.3937 98.329L68.9904 100.635C69.0029 100.643 69.0125 100.655 69.0177 100.669C69.0229 100.683 69.0235 100.698 69.0193 100.712C69.0151 100.726 69.0065 100.738 68.9946 100.747C68.9828 100.756 68.9684 100.761 68.9536 100.761H68.9537ZM87.8085 96.583C87.797 96.583 87.7857 96.5801 87.7756 96.5745L85.8329 95.4977C85.8173 95.4889 85.8058 95.4743 85.801 95.457C85.7961 95.4398 85.7983 95.4213 85.8069 95.4056C85.8156 95.39 85.8301 95.3783 85.8473 95.3733C85.8644 95.3683 85.8829 95.3702 85.8986 95.3787L87.7714 96.4167L88.8568 93.3791C88.8633 93.3626 88.8759 93.3493 88.892 93.342C88.9081 93.3347 88.9264 93.334 88.943 93.3399C88.9596 93.3459 88.9733 93.3581 88.9811 93.374C88.9889 93.3898 88.9902 93.4081 88.9848 93.4249L87.8724 96.538C87.8677 96.5512 87.859 96.5626 87.8475 96.5706C87.8361 96.5787 87.8225 96.5831 87.8085 96.5831L87.8085 96.583Z" fill="#111111"/>
<path d="M77.0722 55.8828L71.1484 57.1574L72.1185 60.7601L78.0423 59.4855L77.0722 55.8828Z" fill="white"/>
<path d="M72.1199 60.8336C72.105 60.8336 72.0905 60.8286 72.0786 60.8195C72.0668 60.8104 72.0583 60.7977 72.0544 60.7833L71.0844 57.1806C71.082 57.1717 71.0814 57.1624 71.0827 57.1533C71.084 57.1441 71.0872 57.1354 71.092 57.1275C71.0968 57.1196 71.1032 57.1128 71.1107 57.1075C71.1182 57.1021 71.1267 57.0984 71.1357 57.0964L77.0595 55.8218C77.0766 55.8182 77.0944 55.8212 77.1092 55.8303C77.1241 55.8394 77.1349 55.8538 77.1394 55.8707L78.1095 59.4734C78.1119 59.4823 78.1124 59.4916 78.1111 59.5008C78.1098 59.5099 78.1067 59.5187 78.1018 59.5265C78.097 59.5344 78.0907 59.5412 78.0832 59.5465C78.0756 59.5519 78.0671 59.5556 78.0581 59.5576L72.1343 60.8321C72.1296 60.8331 72.1247 60.8336 72.1199 60.8336ZM71.2341 57.2144L72.1688 60.6854L77.9595 59.4395L77.0249 55.9684L71.2341 57.2144Z" fill="#111111"/>
<path d="M80.0097 66.7891L74.0859 68.0637L75.0568 71.6695L80.9807 70.3949L80.0097 66.7891Z" fill="white"/>
<path d="M75.0544 71.7352C75.0394 71.7352 75.0249 71.7302 75.0131 71.7211C75.0012 71.712 74.9927 71.6993 74.9889 71.6849L74.0179 68.079C74.0156 68.0701 74.015 68.0608 74.0163 68.0517C74.0176 68.0425 74.0208 68.0338 74.0256 68.0259C74.0304 68.018 74.0368 68.0112 74.0443 68.0059C74.0518 68.0005 74.0603 67.9968 74.0693 67.9948L79.9931 66.7202C80.0102 66.7166 80.0279 66.7197 80.0428 66.7287C80.0576 66.7378 80.0685 66.7523 80.073 66.7691L81.044 70.375C81.0464 70.3839 81.0469 70.3932 81.0456 70.4024C81.0443 70.4115 81.0411 70.4202 81.0363 70.4281C81.0315 70.436 81.0252 70.4428 81.0176 70.4481C81.0101 70.4535 81.0016 70.4572 80.9926 70.4592L75.0688 71.7337C75.0641 71.7347 75.0593 71.7352 75.0544 71.7352H75.0544ZM74.1678 68.1128L75.1033 71.587L80.894 70.3411L79.9585 66.8668L74.1678 68.1128Z" fill="#111111"/>
<path d="M82.9433 77.6953L77.0195 78.9698L77.9896 82.5727L83.9134 81.2981L82.9433 77.6953Z" fill="white"/>
<path d="M77.9911 82.6384C77.9761 82.6384 77.9616 82.6334 77.9498 82.6243C77.9379 82.6152 77.9294 82.6025 77.9255 82.5881L76.9555 78.9853C76.9531 78.9763 76.9525 78.967 76.9538 78.9579C76.9551 78.9488 76.9583 78.94 76.9631 78.9322C76.9679 78.9243 76.9743 78.9175 76.9818 78.9121C76.9893 78.9068 76.9978 78.903 77.0068 78.9011L82.9306 77.6265C82.9477 77.6229 82.9654 77.6259 82.9803 77.635C82.9952 77.6441 83.006 77.6585 83.0105 77.6754L83.9806 81.2782C83.983 81.2871 83.9835 81.2964 83.9822 81.3056C83.9809 81.3147 83.9777 81.3235 83.9729 81.3313C83.9681 81.3392 83.9618 81.346 83.9543 81.3513C83.9467 81.3567 83.9382 81.3604 83.9292 81.3624L78.0054 82.6369C78.0007 82.6379 77.9959 82.6384 77.9911 82.6384ZM77.1052 79.0191L78.0399 82.4902L83.8307 81.2443L82.896 77.7731L77.1053 79.0191H77.1052Z" fill="#111111"/>
<path d="M59.6873 66.1114C59.6152 65.8436 59.3465 65.674 59.0905 65.7291L34.9799 70.9168C34.721 70.9725 34.571 71.2322 34.6431 71.4999C34.7152 71.7677 34.9808 71.9379 35.2399 71.8822L59.3504 66.6944C59.6064 66.6393 59.7593 66.3791 59.6872 66.1113L59.6873 66.1114Z" fill="black"/>
<path d="M35.1441 71.9661C34.8899 71.9661 34.6498 71.7855 34.5792 71.5231C34.5383 71.3714 34.5587 71.2175 34.6365 71.0898C34.7101 70.969 34.8277 70.886 34.9674 70.8559L59.078 65.6682C59.3699 65.6051 59.6737 65.7987 59.7547 66.0992C59.7954 66.2503 59.7747 66.404 59.6967 66.532C59.6606 66.5917 59.6127 66.6432 59.5559 66.6836C59.4991 66.7239 59.4346 66.7521 59.3665 66.7664L35.2559 71.9542C35.2192 71.9621 35.1817 71.9661 35.1441 71.9661ZM59.1907 65.7922C59.1627 65.7922 59.1346 65.7951 59.1066 65.8012L34.996 70.9889C34.9458 70.9993 34.8983 71.02 34.8565 71.0495C34.8146 71.079 34.7793 71.1169 34.7526 71.1607C34.6943 71.2562 34.6794 71.3723 34.7105 71.4877C34.7728 71.7195 35.0047 71.8689 35.2273 71.8212L59.3379 66.6335C59.388 66.6229 59.4354 66.6022 59.4772 66.5725C59.5189 66.5429 59.5542 66.505 59.5807 66.4611C59.6391 66.3653 59.6543 66.2493 59.6234 66.1346C59.5689 65.932 59.3849 65.7922 59.1907 65.7922Z" fill="#111111"/>
<path d="M40.998 68.5711C40.3724 68.7057 39.9538 69.2369 39.9167 69.8579C39.9069 70.0261 39.9245 70.1948 39.9687 70.3573C40.0132 70.5226 40.0834 70.6798 40.1766 70.8233C40.5258 71.3611 41.1689 71.6639 41.7945 71.5293C42.4225 71.3941 42.8416 70.8629 42.8787 70.2419C42.8884 70.0737 42.8709 69.905 42.8266 69.7425C42.7821 69.5772 42.712 69.42 42.6187 69.2766C42.2696 68.7387 41.626 68.436 40.9979 68.5711" fill="white"/>
<path d="M41.4977 71.6263C40.9613 71.6263 40.4346 71.3406 40.1212 70.8577C40.0241 70.7083 39.951 70.5446 39.9046 70.3724C39.8585 70.2028 39.8402 70.0268 39.8504 69.8513C39.8904 69.1817 40.3465 68.6396 40.9852 68.502C41.6228 68.3649 42.303 68.66 42.6773 69.2369C42.7744 69.3863 42.8475 69.55 42.8938 69.7221C42.9402 69.8944 42.9585 70.0698 42.9481 70.2433C42.9081 70.913 42.4508 71.4554 41.8102 71.5932C41.7075 71.6153 41.6027 71.6264 41.4976 71.6263H41.4977ZM41.0139 68.635C40.4354 68.7595 40.0224 69.2515 39.9861 69.8594C39.9765 70.0183 39.9933 70.179 40.0359 70.337C40.0785 70.4954 40.1457 70.6461 40.2351 70.7835C40.579 71.3132 41.2003 71.5852 41.7818 71.4601C42.362 71.3353 42.7761 70.843 42.8125 70.2351C42.8218 70.0743 42.805 69.9129 42.7627 69.7575C42.72 69.5991 42.6528 69.4484 42.5634 69.311C42.2195 68.7812 41.5968 68.5093 41.0139 68.6349V68.635Z" fill="#111111"/>
<path d="M60.9725 70.8955C60.9003 70.6278 60.6309 70.4551 60.3749 70.5102L36.2643 75.698C36.0054 75.7537 35.8562 76.0163 35.9283 76.2841C35.9996 76.5488 36.2661 76.722 36.5251 76.6663L60.6356 71.4786C60.8916 71.4235 61.0437 71.1602 60.9725 70.8955V70.8955Z" fill="black"/>
<path d="M36.4294 76.7426C36.1752 76.7426 35.9351 76.562 35.8645 76.2996C35.8233 76.1468 35.8439 75.9916 35.9225 75.8628C35.9585 75.8034 36.0063 75.752 36.063 75.7118C36.1196 75.6716 36.1839 75.6435 36.2519 75.6293L60.3624 70.4415C60.6545 70.3785 60.9585 70.5734 61.0399 70.8757C61.0798 71.0238 61.0583 71.1815 60.981 71.3083C60.9451 71.3679 60.8973 71.4195 60.8407 71.4598C60.784 71.5002 60.7197 71.5284 60.6517 71.5429L36.541 76.7306C36.5043 76.7385 36.4669 76.7425 36.4293 76.7425L36.4294 76.7426ZM60.4745 70.5657C60.4467 70.5657 60.4188 70.5686 60.391 70.5746L36.2804 75.7623C36.2305 75.7728 36.1833 75.7934 36.1417 75.8229C36.1001 75.8524 36.065 75.8901 36.0385 75.9337C35.9795 76.0304 35.9644 76.1477 35.9957 76.2643C36.0581 76.496 36.2899 76.6457 36.5126 76.5977L60.6232 71.4099C60.6732 71.3993 60.7204 71.3785 60.762 71.3488C60.8036 71.3192 60.8387 71.2813 60.8651 71.2375C60.9239 71.141 60.9394 71.025 60.9087 70.9111C60.8537 70.7068 60.669 70.5657 60.4746 70.5657H60.4745Z" fill="#111111"/>
<path d="M56.2862 70.3367C55.6612 70.4712 55.2404 70.9998 55.202 71.6209C55.1919 71.7902 55.2095 71.9599 55.254 72.1235C55.2986 72.2888 55.3688 72.446 55.4623 72.5894C55.8119 73.1261 56.4564 73.4264 57.0819 73.2918C57.7074 73.1573 58.1285 72.6277 58.1667 72.0075C58.1767 71.8393 58.1592 71.6706 58.115 71.508C58.0702 71.3417 57.9994 71.1835 57.9052 71.0393C57.555 70.5018 56.9112 70.2022 56.2862 70.3367" fill="white"/>
<path d="M56.7793 73.389C56.2427 73.389 55.7161 73.1047 55.4029 72.624C55.3055 72.4746 55.2323 72.3108 55.186 72.1387C55.1396 71.9679 55.1212 71.7907 55.1318 71.6141C55.1731 70.9462 55.6304 70.4052 56.2696 70.2676C56.9061 70.1307 57.5853 70.4248 57.9598 70.9996C58.0579 71.1497 58.1316 71.3145 58.1782 71.4878C58.2244 71.6575 58.2426 71.8336 58.2321 72.0091C58.1911 72.6769 57.7336 73.2181 57.0938 73.3558C56.9896 73.3782 56.8843 73.389 56.7794 73.389H56.7793ZM56.584 70.3703C56.4885 70.3703 56.3929 70.3803 56.298 70.4006C55.7191 70.5252 55.3049 71.0162 55.2674 71.6225C55.2578 71.7844 55.2746 71.9468 55.3172 72.1033C55.3599 72.2617 55.4272 72.4123 55.5167 72.5497C55.8607 73.0775 56.4828 73.3481 57.0652 73.2228C57.6447 73.0981 58.0591 72.607 58.0963 72.0008C58.1059 71.8399 58.0892 71.6786 58.0469 71.5232C58.004 71.3637 57.9362 71.2121 57.8459 71.0739C57.5579 70.632 57.075 70.3703 56.584 70.3703Z" fill="#111111"/>
<path d="M106.477 62.1273L83.0385 67.1705C82.5958 67.2657 82.3372 67.7135 82.4604 68.1711C82.5837 68.629 83.0419 68.9224 83.4845 68.8271L106.923 63.7839C107.366 63.6887 107.625 63.2411 107.502 62.7833C107.378 62.3256 106.92 62.0321 106.477 62.1273Z" fill="white"/>
<path d="M83.315 68.9104C82.9002 68.9104 82.5082 68.615 82.3928 68.1864C82.3264 67.9397 82.3597 67.6892 82.4866 67.4811C82.6062 67.2848 82.7964 67.15 83.0221 67.1014L106.461 62.0582C106.938 61.9561 107.433 62.272 107.565 62.7629C107.632 63.0097 107.598 63.2602 107.471 63.4683C107.352 63.6645 107.161 63.7992 106.936 63.8478L83.4967 68.891C83.4362 68.904 83.3753 68.9104 83.315 68.9104ZM106.49 62.1913L83.0507 67.2345C82.8618 67.2752 82.7027 67.3879 82.6026 67.552C82.4953 67.7281 82.4674 67.9408 82.524 68.1511C82.6378 68.5734 83.0612 68.8455 83.4683 68.7582L106.907 63.7149C107.096 63.6743 107.255 63.5615 107.355 63.3975C107.463 63.2216 107.491 63.0088 107.434 62.7984C107.32 62.3762 106.897 62.104 106.49 62.1913Z" fill="#111111"/>
<path d="M102.729 63.8047L102.156 66.0198L104.364 65.5448L102.729 63.8047Z" fill="#111111"/>
<path d="M102.158 66.0934C102.147 66.0934 102.137 66.091 102.128 66.0865C102.119 66.0819 102.11 66.0752 102.104 66.067C102.098 66.0588 102.093 66.0492 102.091 66.0391C102.089 66.0289 102.089 66.0184 102.092 66.0083L102.665 63.7932C102.668 63.7814 102.674 63.7706 102.683 63.762C102.691 63.7534 102.702 63.7473 102.714 63.7443C102.726 63.7413 102.738 63.7415 102.75 63.7449C102.761 63.7483 102.772 63.7548 102.78 63.7636L104.415 65.5038C104.423 65.5126 104.429 65.5234 104.432 65.5352C104.434 65.5469 104.434 65.5591 104.43 65.5706C104.427 65.5821 104.42 65.5925 104.411 65.6006C104.402 65.6087 104.391 65.6143 104.38 65.6169L102.172 66.0918C102.167 66.0929 102.163 66.0934 102.158 66.0934ZM102.766 63.9466L102.251 65.9356L104.233 65.5091L102.766 63.9466L102.766 63.9466Z" fill="#111111"/>
<path d="M103.54 51.2211L80.101 56.2642C79.6583 56.3595 79.3997 56.8071 79.5229 57.2649C79.6461 57.7226 80.1044 58.0161 80.547 57.9209L103.986 52.8777C104.429 52.7825 104.687 52.3347 104.564 51.877C104.441 51.4192 103.983 51.1258 103.54 51.2211Z" fill="white"/>
<path d="M80.3814 58.0121C79.9666 58.0121 79.5746 57.7167 79.4592 57.2879C79.3927 57.0413 79.4261 56.7908 79.553 56.5826C79.6726 56.3864 79.8628 56.2517 80.0885 56.2031L103.527 51.1599C104.004 51.0576 104.499 51.3735 104.632 51.8646C104.698 52.1112 104.665 52.3617 104.538 52.5698C104.418 52.7661 104.228 52.9009 104.002 52.9495L80.5633 57.9927C80.5027 58.0057 80.4418 58.012 80.3815 58.012L80.3814 58.0121ZM103.556 51.2929L80.1172 56.3362C79.9282 56.3768 79.769 56.4896 79.6691 56.6536C79.5618 56.8296 79.5338 57.0423 79.5904 57.2527C79.7041 57.6749 80.1275 57.9472 80.5347 57.8598L103.974 52.8166C104.163 52.776 104.322 52.6632 104.422 52.4991C104.529 52.323 104.557 52.1103 104.5 51.9001C104.387 51.4777 103.963 51.2056 103.556 51.2929Z" fill="#111111"/>
<path d="M85.559 55.9688L84.9883 58.1801L87.1927 57.7059L85.559 55.9688Z" fill="#111111"/>
<path d="M84.9899 58.2459C84.9795 58.246 84.9693 58.2436 84.96 58.239C84.9506 58.2344 84.9425 58.2278 84.9361 58.2196C84.9298 58.2114 84.9254 58.2018 84.9233 58.1917C84.9212 58.1815 84.9214 58.171 84.924 58.1609L85.4946 55.9495C85.4977 55.9377 85.5038 55.927 85.5124 55.9184C85.521 55.9097 85.5318 55.9036 85.5436 55.9006C85.5553 55.8975 85.5677 55.8977 85.5794 55.9011C85.5911 55.9045 85.6016 55.911 85.61 55.9199L87.2438 57.6569C87.2521 57.6657 87.2579 57.6765 87.2606 57.6882C87.2633 57.7 87.2628 57.7123 87.2593 57.7238C87.2557 57.7353 87.2491 57.7457 87.2402 57.7538C87.2313 57.7619 87.2204 57.7675 87.2086 57.77L85.0041 58.2444C84.9994 58.2454 84.9946 58.2459 84.9898 58.2459L84.9899 58.2459ZM85.5955 56.103L85.0832 58.0883L87.0623 57.6624L85.5955 56.103Z" fill="#111111"/>
<path d="M109.411 73.0258L85.9721 78.069C85.5294 78.1642 85.2708 78.6118 85.394 79.0697C85.5172 79.5273 85.9755 79.8207 86.418 79.7254L109.857 74.6822C110.3 74.587 110.558 74.1394 110.435 73.6817C110.312 73.224 109.854 72.9305 109.411 73.0257" fill="white"/>
<path d="M86.2524 79.8089C85.8377 79.8089 85.4457 79.5135 85.3303 79.0849C85.2638 78.8383 85.2972 78.5877 85.4241 78.3796C85.5437 78.1834 85.7339 78.0486 85.9596 78L109.399 72.9568C109.875 72.8543 110.37 73.1704 110.503 73.6615C110.569 73.9081 110.536 74.1585 110.409 74.3666C110.289 74.5628 110.099 74.6977 109.873 74.7462L86.4342 79.7895C86.3737 79.8025 86.3128 79.8087 86.2523 79.8088L86.2524 79.8089ZM109.427 73.0899L85.9882 78.1331C85.7993 78.1738 85.6401 78.2865 85.5402 78.4505C85.4329 78.6266 85.4049 78.8393 85.4615 79.0496C85.5752 79.4719 85.9986 79.7442 86.4057 79.6566L109.845 74.6134C110.034 74.5727 110.193 74.46 110.293 74.2959C110.4 74.1199 110.428 73.9073 110.371 73.697C110.258 73.2748 109.834 73.0024 109.427 73.0899Z" fill="#111111"/>
<path d="M96.0737 76.7734L95.5039 78.9879L97.7115 78.5129L96.0737 76.7734Z" fill="#111111"/>
<path d="M95.5054 79.0536C95.4951 79.0536 95.4848 79.0512 95.4755 79.0467C95.4662 79.0421 95.4581 79.0355 95.4517 79.0273C95.4454 79.0191 95.441 79.0095 95.4389 78.9994C95.4368 78.9892 95.4371 78.9787 95.4396 78.9687L96.0094 76.7542C96.0125 76.7424 96.0186 76.7317 96.0272 76.7231C96.0358 76.7145 96.0465 76.7083 96.0583 76.7053C96.0701 76.7022 96.0824 76.7024 96.0941 76.7058C96.1058 76.7092 96.1164 76.7156 96.1247 76.7245L97.7625 78.4639C97.7707 78.4727 97.7764 78.4835 97.7791 78.4952C97.7818 78.507 97.7814 78.5192 97.7778 78.5307C97.7742 78.5422 97.7677 78.5526 97.7588 78.5607C97.7499 78.5688 97.7391 78.5745 97.7273 78.577L95.5198 79.052C95.5151 79.053 95.5103 79.0535 95.5055 79.0535L95.5054 79.0536ZM96.1103 76.9076L95.5987 78.8959L97.5809 78.4694L96.1104 76.9075L96.1103 76.9076Z" fill="#111111"/>
</g>
<defs>
<clipPath id="clip0_31355_33570">
<rect width="111.264" height="92.4768" fill="white" transform="translate(19.1953 19.5312) rotate(5.94739)"/>
</clipPath>
<clipPath id="clip1_31355_33570">
<rect width="82.5664" height="62.3808" fill="white" transform="translate(27.9688 40.0703)"/>
</clipPath>
</defs>
</svg>
