<svg width="28" height="28" viewBox="0 0 28 28" fill="none" xmlns="http://www.w3.org/2000/svg">
<g clip-path="url(#clip0_4350_57685)">
<path d="M8.92482 24.3942C8.88982 24.3942 8.84316 24.4175 8.80816 24.4175C6.54482 23.2975 4.70149 21.4425 3.56982 19.1792C3.56982 19.1442 3.59316 19.0975 3.59316 19.0625C5.01649 19.4825 6.48649 19.7975 7.94482 20.0425C8.20149 21.5125 8.50482 22.9708 8.92482 24.3942Z" fill="#FF4F4F"/>
<path d="M24.4299 19.1908C23.2749 21.5125 21.3499 23.3908 19.0049 24.5225C19.4482 23.0408 19.8215 21.5475 20.0665 20.0425C21.5365 19.7975 22.9832 19.4825 24.4065 19.0625C24.3949 19.1092 24.4299 19.1558 24.4299 19.1908Z" fill="#FF4F4F"/>
<path d="M24.5232 8.9949C23.0532 8.55156 21.5715 8.1899 20.0665 7.93323C19.8215 6.42823 19.4599 4.9349 19.0049 3.47656C21.4199 4.63156 23.3682 6.5799 24.5232 8.9949Z" fill="#FF4F4F"/>
<path d="M8.9249 3.60531C8.5049 5.02865 8.20156 6.47531 7.95656 7.94531C6.45156 8.17865 4.95823 8.55198 3.47656 8.99531C4.60823 6.65031 6.48656 4.72531 8.80823 3.57031C8.84323 3.57031 8.8899 3.60531 8.9249 3.60531Z" fill="#FF4F4F"/>
<path d="M18.0716 7.69094C15.3649 7.3876 12.6349 7.3876 9.92822 7.69094C10.2199 6.0926 10.5932 4.49427 11.1182 2.95427C11.1416 2.86094 11.1299 2.79094 11.1416 2.6976C12.0632 2.47594 13.0082 2.33594 13.9999 2.33594C14.9799 2.33594 15.9366 2.47594 16.8466 2.6976C16.8582 2.79094 16.8582 2.86094 16.8816 2.95427C17.4066 4.50594 17.7799 6.0926 18.0716 7.69094Z" fill="#FF4F4F"/>
<path d="M7.6885 18.073C6.0785 17.7814 4.49183 17.408 2.95183 16.883C2.8585 16.8597 2.7885 16.8714 2.69516 16.8597C2.4735 15.938 2.3335 14.993 2.3335 14.0014C2.3335 13.0214 2.4735 12.0647 2.69516 11.1547C2.7885 11.143 2.8585 11.143 2.95183 11.1197C4.5035 10.6064 6.0785 10.2214 7.6885 9.92969C7.39683 12.6364 7.39683 15.3664 7.6885 18.073Z" fill="#FF4F4F"/>
<path d="M25.6665 14.0014C25.6665 14.993 25.5265 15.938 25.3049 16.8597C25.2115 16.8714 25.1415 16.8597 25.0482 16.883C23.4965 17.3964 21.9099 17.7814 20.3115 18.073C20.6149 15.3664 20.6149 12.6364 20.3115 9.92969C21.9099 10.2214 23.5082 10.5947 25.0482 11.1197C25.1415 11.143 25.2115 11.1547 25.3049 11.1547C25.5265 12.0764 25.6665 13.0214 25.6665 14.0014Z" fill="#FF4F4F"/>
<path d="M18.0716 20.3125C17.7799 21.9225 17.4066 23.5092 16.8816 25.0492C16.8582 25.1425 16.8582 25.2125 16.8466 25.3058C15.9366 25.5275 14.9799 25.6675 13.9999 25.6675C13.0082 25.6675 12.0632 25.5275 11.1416 25.3058C11.1299 25.2125 11.1416 25.1425 11.1182 25.0492C10.6049 23.4975 10.2199 21.9225 9.92822 20.3125C11.2816 20.4642 12.6349 20.5692 13.9999 20.5692C15.3649 20.5692 16.7299 20.4642 18.0716 20.3125Z" fill="#FF4F4F"/>
<path d="M18.3907 18.3932C15.4728 18.7613 12.5276 18.7613 9.60961 18.3932C9.24146 15.4752 9.24146 12.53 9.60961 9.61205C12.5276 9.2439 15.4728 9.2439 18.3907 9.61205C18.7589 12.53 18.7589 15.4752 18.3907 18.3932Z" fill="#FF4F4F"/>
</g>
<defs>
<clipPath id="clip0_4350_57685">
<rect width="28" height="28" fill="white"/>
</clipPath>
</defs>
</svg>
