<svg width="27" height="26" viewBox="0 0 27 26" fill="none" xmlns="http://www.w3.org/2000/svg">
<g clip-path="url(#clip0_5310_71155)">
<path d="M8.61874 4.27334H4.75765C3.33604 4.27334 2.18359 5.40832 2.18359 6.80839V10.611M8.61874 4.27334H16.9844M8.61874 4.27334V1.73828M8.61874 4.27334V6.17463M16.9844 4.27334H20.8455C22.2671 4.27334 23.4196 5.40832 23.4196 6.80839V10.611H2.18359M16.9844 4.27334V1.73828M16.9844 4.27334V6.17463M2.18359 10.611V20.1174C2.18359 21.5175 3.33604 22.6525 4.75765 22.6525H11.1928" stroke="#05BE63" stroke-width="1.94246" stroke-linecap="round" stroke-linejoin="round"/>
<g clip-path="url(#clip1_5310_71155)">
<path d="M15.0789 22.5214C14.8591 22.7412 14.8591 23.1075 15.0789 23.3272C15.2987 23.547 15.6649 23.547 15.8847 23.3272L23.8878 15.1777C24.1075 14.9579 24.1075 14.5916 23.8878 14.3719C23.668 14.1521 23.3017 14.1521 23.082 14.3719L15.0789 22.5214Z" fill="#05BE63"/>
<path d="M23.082 23.3272C23.3017 23.547 23.668 23.547 23.8878 23.3272C24.1075 23.1075 24.1075 22.7412 23.8878 22.5214L15.8847 14.3719C15.6649 14.1521 15.2987 14.1521 15.0789 14.3719C14.8591 14.5916 14.8591 14.9579 15.0789 15.1777L23.082 23.3272Z" fill="#05BE63"/>
</g>
</g>
<defs>
<clipPath id="clip0_5310_71155">
<rect width="25.7406" height="25.7406" fill="white" transform="translate(0.574219 0.128906)"/>
</clipPath>
<clipPath id="clip1_5310_71155">
<rect width="9.44287" height="9.44287" fill="white" transform="translate(14.6484 14.207)"/>
</clipPath>
</defs>
</svg>
