<svg width="18" height="18" viewBox="0 0 18 18" fill="none" xmlns="http://www.w3.org/2000/svg">
<path fill-rule="evenodd" clip-rule="evenodd" d="M8.99902 6.18945C7.44573 6.18945 6.18652 7.44865 6.18652 9.00195C6.18652 10.5553 7.44573 11.8145 8.99902 11.8145C10.5523 11.8145 11.8115 10.5553 11.8115 9.00195C11.8115 7.44865 10.5523 6.18945 8.99902 6.18945ZM7.31152 9.00195C7.31152 8.07 8.06707 7.31445 8.99902 7.31445C9.93097 7.31445 10.6865 8.07 10.6865 9.00195C10.6865 9.9339 9.93097 10.6895 8.99902 10.6895C8.06707 10.6895 7.31152 9.9339 7.31152 9.00195Z" fill="#FF4F4F"/>
<path fill-rule="evenodd" clip-rule="evenodd" d="M8.9809 0.939942C8.6476 0.939934 8.36928 0.939934 8.14083 0.955519C7.903 0.971749 7.67838 1.00673 7.46059 1.09694C6.95522 1.30627 6.5537 1.70778 6.34437 2.21316C6.23539 2.47626 6.20588 2.75353 6.19461 3.05491C6.18555 3.29718 6.06328 3.49932 5.88284 3.6035C5.70241 3.70767 5.46622 3.71249 5.25187 3.5992C4.98523 3.45827 4.73035 3.34518 4.448 3.30801C3.90568 3.23661 3.35719 3.38358 2.92322 3.71658C2.7362 3.86009 2.59358 4.03714 2.46062 4.23499C2.33289 4.42505 2.19376 4.66605 2.02708 4.95474L2.00815 4.98755C1.84147 5.27623 1.70233 5.51722 1.60159 5.72286C1.49674 5.93694 1.41471 6.14898 1.38394 6.3827C1.31254 6.92503 1.45951 7.47351 1.7925 7.90752C1.96584 8.13334 2.19118 8.29759 2.44651 8.45802C2.65184 8.58702 2.76579 8.79402 2.76577 9.00244C2.76577 9.21079 2.65182 9.41779 2.44651 9.54679C2.19115 9.70722 1.96579 9.87147 1.79243 10.0974C1.45943 10.5313 1.31247 11.0798 1.38386 11.6221C1.41463 11.8558 1.49666 12.0679 1.60152 12.282C1.70225 12.4876 1.84139 12.7286 2.00806 13.0173L2.02701 13.0501C2.19368 13.3388 2.33281 13.5798 2.46055 13.7698C2.59351 13.9677 2.73613 14.1447 2.92315 14.2882C3.35712 14.6212 3.9056 14.7682 4.44793 14.6968C4.73026 14.6596 4.98513 14.5466 5.25175 14.4057C5.46613 14.2923 5.70235 14.2971 5.8828 14.4014C6.06327 14.5056 6.18555 14.7077 6.19461 14.95C6.20588 15.2514 6.2354 15.5286 6.34437 15.7917C6.5537 16.2971 6.95522 16.6986 7.46059 16.908C7.67838 16.9982 7.903 17.0331 8.14083 17.0493C8.36928 17.0649 8.6476 17.0649 8.9809 17.0649H9.01878C9.35215 17.0649 9.6304 17.0649 9.85893 17.0493C10.0968 17.0331 10.3214 16.9982 10.5392 16.908C11.0445 16.6986 11.4461 16.2971 11.6554 15.7917C11.7644 15.5286 11.7939 15.2514 11.8051 14.9499C11.8142 14.7077 11.9364 14.5056 12.1169 14.4013C12.2973 14.2971 12.5336 14.2923 12.7479 14.4056C13.0146 14.5465 13.2694 14.6596 13.5518 14.6967C14.0941 14.7681 14.6426 14.6212 15.0765 14.2882C15.2636 14.1447 15.4062 13.9677 15.5391 13.7698C15.6669 13.5798 15.806 13.3388 15.9726 13.0501L15.9916 13.0173C16.1583 12.7286 16.2975 12.4875 16.3982 12.2819C16.503 12.0678 16.585 11.8558 16.6158 11.6221C16.6872 11.0797 16.5402 10.5312 16.2072 10.0973C16.0339 9.87139 15.8085 9.70722 15.5532 9.54679C15.3479 9.41779 15.234 9.21079 15.234 9.00237C15.234 8.79402 15.3479 8.58709 15.5532 8.45809C15.8086 8.29767 16.034 8.13349 16.2073 7.90752C16.5403 7.47356 16.6873 6.92508 16.6159 6.38275C16.5851 6.14904 16.5031 5.937 16.3983 5.72292C16.2975 5.51729 16.1584 5.27631 15.9917 4.98765L15.9728 4.95483C15.8061 4.66613 15.6669 4.4251 15.5392 4.23504C15.4062 4.03719 15.2637 3.86014 15.0766 3.71663C14.6427 3.38364 14.0942 3.23667 13.5518 3.30807C13.2695 3.34524 13.0146 3.45831 12.748 3.59923C12.5337 3.71253 12.2974 3.70771 12.117 3.60352C11.9365 3.49934 11.8142 3.29717 11.8051 3.05487C11.7939 2.7535 11.7644 2.47624 11.6554 2.21316C11.4461 1.70778 11.0445 1.30627 10.5392 1.09694C10.3214 1.00673 10.0968 0.971749 9.85893 0.955519C9.6304 0.939934 9.35215 0.939934 9.01878 0.939942H8.9809ZM7.89108 2.1363C7.94898 2.11233 8.03688 2.09023 8.2174 2.07791C8.40303 2.06525 8.64273 2.06494 8.99988 2.06494C9.35703 2.06494 9.59673 2.06525 9.78228 2.07791C9.96288 2.09023 10.0508 2.11233 10.1086 2.1363C10.3383 2.23146 10.5209 2.41396 10.616 2.64368C10.6461 2.71614 10.6709 2.82909 10.6809 3.09692C10.7031 3.6912 11.0099 4.26341 11.5545 4.5778C12.099 4.8922 12.7479 4.87174 13.2737 4.59385C13.5106 4.46862 13.6209 4.43368 13.6986 4.42344C13.9452 4.39099 14.1945 4.45779 14.3917 4.60915C14.4414 4.64728 14.5045 4.71236 14.6055 4.86256C14.7093 5.01696 14.8293 5.22439 15.0079 5.53369C15.1865 5.843 15.3061 6.05073 15.3879 6.21779C15.4675 6.38031 15.4923 6.46749 15.5005 6.52959C15.533 6.7761 15.4662 7.02542 15.3148 7.22268C15.267 7.2849 15.1817 7.36293 14.9547 7.50552C14.4512 7.82194 14.109 8.37364 14.109 9.00237C14.109 9.63117 14.4511 10.1829 14.9547 10.4994C15.1816 10.6419 15.267 10.7199 15.3147 10.7822C15.4661 10.9794 15.5329 11.2287 15.5004 11.4753C15.4923 11.5374 15.4674 11.6245 15.3879 11.787C15.306 11.9541 15.1864 12.1618 15.0078 12.4711C14.8293 12.7804 14.7092 12.9879 14.6054 13.1423C14.5044 13.2924 14.4414 13.3575 14.3916 13.3956C14.1944 13.5471 13.9451 13.6138 13.6986 13.5814C13.6209 13.5711 13.5105 13.5362 13.2736 13.411C12.7479 13.1331 12.0989 13.1127 11.5543 13.4271C11.0099 13.7415 10.7031 14.3136 10.6809 14.9079C10.6709 15.1758 10.6461 15.2887 10.616 15.3612C10.5209 15.5909 10.3383 15.7734 10.1086 15.8686C10.0508 15.8925 9.96288 15.9147 9.78228 15.927C9.59673 15.9396 9.35703 15.9399 8.99988 15.9399C8.64273 15.9399 8.40303 15.9396 8.2174 15.927C8.03688 15.9147 7.94898 15.8925 7.89108 15.8686C7.66143 15.7734 7.47889 15.5909 7.38373 15.3612C7.35372 15.2887 7.32884 15.1758 7.31882 14.9079C7.2966 14.3137 6.98986 13.7415 6.4453 13.4271C5.90076 13.1127 5.25184 13.1331 4.72606 13.411C4.48912 13.5363 4.37885 13.5712 4.30109 13.5814C4.05457 13.6139 3.80527 13.5471 3.60801 13.3957C3.55831 13.3576 3.49522 13.2925 3.39427 13.1423C3.29051 12.9879 3.1704 12.7805 2.99182 12.4712C2.81324 12.1619 2.69366 11.9541 2.61183 11.7871C2.53222 11.6246 2.50741 11.5374 2.49924 11.4753C2.46679 11.2287 2.53359 10.9794 2.68495 10.7822C2.7327 10.72 2.81809 10.6419 3.04503 10.4994C3.54856 10.183 3.89074 9.63124 3.89077 9.00252C3.89081 8.37364 3.54862 7.82187 3.04504 7.50544C2.81815 7.36286 2.73277 7.28484 2.68502 7.22262C2.53366 7.02537 2.46686 6.77606 2.49931 6.52954C2.50749 6.46745 2.5323 6.38025 2.6119 6.21774C2.69374 6.05067 2.81332 5.84295 2.99189 5.53364C3.17047 5.22434 3.29058 5.01691 3.39435 4.86251C3.49529 4.71231 3.55839 4.64723 3.60808 4.60911C3.80534 4.45774 4.05465 4.39094 4.30116 4.42339C4.37893 4.43363 4.4892 4.46856 4.72618 4.59382C5.25193 4.8717 5.90081 4.89216 6.44533 4.57778C6.98986 4.2634 7.2966 3.69122 7.31882 3.09696C7.32884 2.82911 7.35372 2.71614 7.38373 2.64368C7.47889 2.41396 7.66143 2.23146 7.89108 2.1363Z" fill="#FF4F4F"/>
</svg>
