<svg width="30" height="30" viewBox="0 0 30 30" fill="none" xmlns="http://www.w3.org/2000/svg">
<path d="M20.8936 8.29827V6.69113C20.8936 6.54381 20.7731 6.42327 20.6258 6.42327H7.76861C7.62129 6.42327 7.50075 6.54381 7.50075 6.69113V8.29827C7.50075 8.44559 7.62129 8.56613 7.76861 8.56613H20.6258C20.7731 8.56613 20.8936 8.44559 20.8936 8.29827ZM7.76861 11.2447C7.62129 11.2447 7.50075 11.3652 7.50075 11.5126V13.1197C7.50075 13.267 7.62129 13.3876 7.76861 13.3876H13.9293C14.0766 13.3876 14.1972 13.267 14.1972 13.1197V11.5126C14.1972 11.3652 14.0766 11.2447 13.9293 11.2447H7.76861ZM20.3579 15.1286C16.3635 15.1286 13.1258 18.3664 13.1258 22.3608C13.1258 26.3552 16.3635 29.5929 20.3579 29.5929C24.3523 29.5929 27.59 26.3552 27.59 22.3608C27.59 18.3664 24.3523 15.1286 20.3579 15.1286ZM23.9572 25.9601C22.9963 26.921 21.7173 27.4501 20.3579 27.4501C18.9985 27.4501 17.7195 26.921 16.7586 25.9601C15.7976 24.9992 15.2686 23.7201 15.2686 22.3608C15.2686 21.0014 15.7976 19.7224 16.7586 18.7614C17.7195 17.8005 18.9985 17.2715 20.3579 17.2715C21.7173 17.2715 22.9963 17.8005 23.9572 18.7614C24.9182 19.7224 25.4472 21.0014 25.4472 22.3608C25.4472 23.7201 24.9182 24.9992 23.9572 25.9601ZM23.3378 19.8161H21.8546C21.7675 19.8161 21.6871 19.8563 21.6369 19.9266L19.5108 22.8664L18.7374 21.7983C18.7126 21.7638 18.6799 21.7357 18.642 21.7165C18.6041 21.6973 18.5622 21.6874 18.5197 21.6878H17.0432C16.8255 21.6878 16.6983 21.9355 16.8255 22.113L19.2965 25.5315C19.4037 25.6789 19.6213 25.6789 19.7284 25.5315L23.5521 20.2414C23.6827 20.0639 23.5554 19.8161 23.3378 19.8161ZM12.59 26.3786H4.82218V2.8072H23.5722V14.3251C23.5722 14.4724 23.6927 14.5929 23.84 14.5929H25.715C25.8624 14.5929 25.9829 14.4724 25.9829 14.3251V1.46791C25.9829 0.875279 25.5041 0.396484 24.9115 0.396484H3.4829C2.89026 0.396484 2.41147 0.875279 2.41147 1.46791V27.7179C2.41147 28.3105 2.89026 28.7893 3.4829 28.7893H12.59C12.7374 28.7893 12.8579 28.6688 12.8579 28.5215V26.6465C12.8579 26.4992 12.7374 26.3786 12.59 26.3786Z" fill="#FF3A3A"/>
</svg>
