<svg width="30" height="30" viewBox="0 0 30 30" fill="none" xmlns="http://www.w3.org/2000/svg">
<path d="M19.442 20.2581C19.4173 20.2236 19.3846 20.1955 19.3467 20.1763C19.3088 20.1571 19.2669 20.1472 19.2244 20.1476H17.7445C17.5269 20.1476 17.3996 20.3954 17.5269 20.5728L19.9978 23.9914C20.105 24.1387 20.3226 24.1387 20.4298 23.9914L24.2534 18.7012C24.3807 18.5237 24.2534 18.2759 24.0358 18.2759H22.5525C22.4655 18.2759 22.3851 18.3161 22.3349 18.3864L20.2088 21.3262L19.442 20.2581ZM20.8918 8.09738V6.49023C20.8918 6.34291 20.7713 6.22238 20.624 6.22238H7.76681C7.61949 6.22238 7.49895 6.34291 7.49895 6.49023V8.09738C7.49895 8.2447 7.61949 8.36523 7.76681 8.36523H20.624C20.7713 8.36523 20.8918 8.2447 20.8918 8.09738ZM7.76681 11.0438C7.61949 11.0438 7.49895 11.1643 7.49895 11.3117V12.9188C7.49895 13.0661 7.61949 13.1867 7.76681 13.1867H13.9275C14.0748 13.1867 14.1954 13.0661 14.1954 12.9188V11.3117C14.1954 11.1643 14.0748 11.0438 13.9275 11.0438H7.76681ZM13.9275 26.3786H4.82038V2.8072H23.5704V12.7179C23.5704 12.8652 23.6909 12.9858 23.8382 12.9858H25.7132C25.8606 12.9858 25.9811 12.8652 25.9811 12.7179V1.46791C25.9811 0.875279 25.5023 0.396484 24.9097 0.396484H3.4811C2.88846 0.396484 2.40967 0.875279 2.40967 1.46791V27.7179C2.40967 28.3105 2.88846 28.7893 3.4811 28.7893H13.9275C14.0748 28.7893 14.1954 28.6688 14.1954 28.5215V26.6465C14.1954 26.4992 14.0748 26.3786 13.9275 26.3786ZM27.4074 15.6376L20.9789 13.4043C20.9487 13.3943 20.9219 13.3909 20.8918 13.3909C20.8617 13.3909 20.8315 13.3943 20.8048 13.4043L14.3762 15.6376C14.3237 15.6554 14.278 15.6892 14.2456 15.7342C14.2132 15.7792 14.1956 15.8332 14.1954 15.8887V24.296C14.1954 24.3797 14.2322 24.4568 14.2992 24.507L20.7277 29.536C20.7746 29.5728 20.8349 29.5929 20.8918 29.5929C20.9487 29.5929 21.009 29.5728 21.0559 29.536L27.4844 24.507C27.5481 24.4568 27.5882 24.3797 27.5882 24.296V15.8887C27.5882 15.7748 27.5146 15.6744 27.4074 15.6376ZM25.5123 23.4222L20.8918 27.0349L16.2713 23.4222V17.171L20.8918 15.5639L25.5123 17.171V23.4222Z" fill="#FF3A3A"/>
</svg>
