<svg width="30" height="30" viewBox="0 0 30 30" fill="none" xmlns="http://www.w3.org/2000/svg">
<g clip-path="url(#clip0_6231_6155)">
<path d="M8.30823 17.6597C8.41202 17.7635 8.58278 17.7635 8.68658 17.6597L12.0951 14.2512L14.9779 17.1373C15.0817 17.2411 15.2524 17.2411 15.3562 17.1373L22.9332 9.55363C23.037 9.44984 23.037 9.27908 22.9332 9.17529L21.7011 7.94314C21.6507 7.89329 21.5828 7.86533 21.5119 7.86533C21.4411 7.86533 21.3731 7.89329 21.3227 7.94314L15.1687 14.1039L12.2859 11.2177C12.2356 11.1678 12.1676 11.1399 12.0967 11.1399C12.0259 11.1399 11.9579 11.1678 11.9076 11.2177L7.07608 16.0492C7.02624 16.0995 6.99827 16.1675 6.99827 16.2383C6.99827 16.3092 7.02624 16.3772 7.07608 16.4275L8.30823 17.6597Z" fill="#FF3A3A"/>
<path d="M28.1235 3.2154H16.2038V1.07254C16.2038 0.925223 16.0833 0.804688 15.936 0.804688H14.061C13.9137 0.804688 13.7931 0.925223 13.7931 1.07254V3.2154H1.87349C1.28086 3.2154 0.802063 3.6942 0.802063 4.28683V21.6975C0.802063 22.2902 1.28086 22.769 1.87349 22.769H13.8065V23.8404L8.28867 27.4598C8.25934 27.4789 8.23407 27.5035 8.2143 27.5324C8.19454 27.5612 8.18069 27.5937 8.17353 27.6279C8.16637 27.6622 8.16605 27.6975 8.1726 27.7318C8.17914 27.7662 8.19242 27.7989 8.21166 27.8281L9.22617 29.4085V29.4118C9.30653 29.5357 9.47394 29.5692 9.59782 29.4888L14.9985 25.9464L20.3992 29.4888C20.523 29.5692 20.6905 29.5357 20.7708 29.4118V29.4085L21.7853 27.8281C21.8235 27.7689 21.8368 27.6971 21.8224 27.6282C21.808 27.5592 21.767 27.4988 21.7083 27.4598L16.2038 23.8504V22.769H28.1235C28.7161 22.769 29.1949 22.2902 29.1949 21.6975V4.28683C29.1949 3.6942 28.7161 3.2154 28.1235 3.2154ZM26.7842 20.3583H3.21278V5.62612H26.7842V20.3583Z" fill="#FF3A3A"/>
</g>
<defs>
<clipPath id="clip0_6231_6155">
<rect width="30" height="30" fill="white"/>
</clipPath>
</defs>
</svg>
