<svg width="23" height="24" viewBox="0 0 23 24" fill="none" xmlns="http://www.w3.org/2000/svg">
<path d="M1.95312 12.0611C1.95312 9.92429 1.95313 8.85588 2.43793 7.97019C2.92273 7.0845 3.80844 6.5348 5.57984 5.43542L7.44734 4.27639C9.31984 3.11427 10.2561 2.5332 11.2906 2.5332C12.3251 2.5332 13.2614 3.11427 15.1339 4.27639L17.0014 5.43541C18.7729 6.5348 19.6585 7.0845 20.1433 7.97019C20.6281 8.85588 20.6281 9.92429 20.6281 12.0611V13.4814C20.6281 17.1238 20.6281 18.9451 19.5341 20.0766C18.4403 21.2082 16.6795 21.2082 13.1581 21.2082H9.42312C5.90173 21.2082 4.14104 21.2082 3.04708 20.0766C1.95313 18.9451 1.95312 17.1238 1.95312 13.4814V12.0611Z" stroke="#FF4F4F" stroke-width="1.6"/>
<path d="M11.2891 14.6719V17.4731" stroke="#FF4F4F" stroke-width="1.6" stroke-linecap="round"/>
</svg>
