<svg width="50" height="50" viewBox="0 0 50 50" fill="none" xmlns="http://www.w3.org/2000/svg">
<g clip-path="url(#clip0_8813_4863)">
<g clip-path="url(#clip1_8813_4863)">
<path d="M34.8938 8.14695L35.8419 8.12472C36.5283 8.10991 37.306 8.32965 38.1356 8.80617C40.8836 10.3913 43.1131 14.2528 43.1131 17.4255C43.1131 18.3835 42.9131 19.1662 42.5527 19.7538L36.2789 30.052L28.378 43.0292C29.3533 41.3181 29.9039 39.0664 29.9039 36.3554C29.9039 26.9386 23.2944 15.4923 15.1367 10.7839C12.7689 9.41602 10.5246 8.76667 8.54199 8.76667L34.8962 8.14695H34.8938Z" fill="white"/>
<path d="M38.8586 34.187C38.3821 34.5722 37.9105 34.6709 37.5377 34.5253C37.1648 34.3771 36.8883 33.987 36.7945 33.387L36.7451 33.0685L38.4561 31.6933C39.2808 31.0291 40.0561 30.1477 40.7252 29.1156C41.4782 27.9503 41.8708 26.5849 41.856 25.1973L41.8017 20.9852L42.0609 20.5654L44.0238 19.9087L44.1447 20.2741L44.2164 26.1232C44.2336 27.4318 43.9003 28.7354 43.2041 29.8489C42.5127 30.9575 41.698 31.9081 40.8215 32.6118L38.8586 34.187Z" fill="#5F646B"/>
<path d="M36.7952 33.3883C36.889 33.9883 37.1655 34.3784 37.5383 34.5265L35.178 33.6105C34.9014 33.5019 34.6792 33.2649 34.5459 32.9069L36.2791 30.0576L36.7952 33.3883Z" fill="#373A3A"/>
<path d="M38.1324 8.80227C37.3029 8.32575 36.5251 8.106 35.8387 8.12082L34.8906 8.14304L39.0904 4.42223C40.1694 3.46426 41.8458 3.41735 43.7272 4.50371C46.9888 6.3851 49.6306 10.9627 49.6306 14.7279C49.6306 16.9031 48.7517 18.3277 47.3814 18.787L42.0606 20.5622L42.552 19.7523C42.91 19.1647 43.1124 18.382 43.1124 17.4241C43.1124 14.2514 40.8829 10.3898 38.1349 8.80473L38.1324 8.80227Z" fill="#DAE0E5"/>
<path d="M29.9005 36.3559C29.9005 39.0693 29.3524 41.3186 28.3747 43.0296L28.2413 43.2518C25.7822 47.2961 20.8343 48.1676 15.1333 44.8764C6.98065 40.1705 0.371094 28.7217 0.371094 19.3049C0.371094 12.6262 3.69686 8.76465 8.53859 8.76465C10.5237 8.76465 12.7655 9.414 15.1333 10.7818C23.291 15.4902 29.9005 26.9366 29.9005 36.3534V36.3559ZM15.837 41.884C22.3651 46.1011 27.3451 43.2271 26.9574 35.4646C26.8241 32.8375 26.0958 29.9883 24.9378 27.2032C23.9107 24.7392 22.5453 22.322 20.9577 20.1616C19.0418 17.5494 16.7974 15.3026 14.4346 13.7743C7.90652 9.5572 2.92652 12.4311 3.31416 20.1937C3.70179 27.9563 9.31139 37.6669 15.837 41.884Z" fill="#DAE0E5"/>
<path d="M26.9574 35.4646C27.3451 43.2272 22.3651 46.1011 15.837 41.8841C9.30891 37.667 3.70178 27.9563 3.31415 20.1938C2.92651 12.4312 7.90651 9.55725 14.4346 13.7743C16.7999 15.3026 19.0418 17.5495 20.9577 20.1617L13.9457 25.7392C12.8939 26.5762 12.5853 28.0749 13.2741 29.2748C13.9679 30.4698 15.4197 30.9537 16.669 30.4624L24.9378 27.2033C26.0957 29.9883 26.8241 32.8376 26.9574 35.4646Z" fill="#373A3A"/>
<path d="M24.9389 27.2018L16.6701 30.4609C15.4208 30.9522 13.969 30.4683 13.2752 29.2733C12.5864 28.0758 12.895 26.5747 13.9468 25.7377L20.9588 20.1602C22.5439 22.3205 23.9118 24.7352 24.9389 27.2018Z" fill="#FF4F4F"/>
<path d="M28.2438 43.2518C25.7847 47.2961 20.8368 48.1676 15.1358 44.8764C6.98064 40.1705 0.371094 28.7217 0.371094 19.3049C0.371094 12.6262 3.69686 8.76465 8.53859 8.76465C10.5237 8.76465 12.7655 9.414 15.1333 10.7818C23.291 15.4902 29.9005 26.9366 29.9005 36.3534C29.9005 39.0669 29.3524 41.3161 28.3747 43.0272" stroke="#373A3A" stroke-width="0.740704" stroke-linecap="round" stroke-linejoin="round"/>
<path d="M24.9378 27.2033C26.0957 29.9883 26.8241 32.8376 26.9574 35.4646C27.3451 43.2272 22.3651 46.1011 15.837 41.8841C9.30891 37.667 3.70178 27.9563 3.31415 20.1938C2.92651 12.4312 7.90651 9.55725 14.4346 13.7743C16.7999 15.3027 19.0418 17.5495 20.9577 20.1617C22.5428 22.3221 23.9107 24.7368 24.9378 27.2033Z" stroke="#373A3A" stroke-width="0.740704" stroke-linecap="round" stroke-linejoin="round"/>
<path d="M42.0582 20.5622L47.379 18.787C48.7493 18.3277 49.6282 16.9031 49.6282 14.7279C49.6282 10.9627 46.9864 6.3851 43.7248 4.50371C41.8434 3.41735 40.1694 3.46426 39.088 4.42223L34.8857 8.14798" stroke="#373A3A" stroke-width="0.740704" stroke-linecap="round" stroke-linejoin="round"/>
<path d="M36.2788 30.052L42.5526 19.7538C42.9106 19.1662 43.113 18.3835 43.113 17.4255C43.113 14.2528 40.8835 10.3913 38.1355 8.80617C37.3059 8.32965 36.5282 8.10991 35.8418 8.12472L8.33203 8.76667" stroke="#373A3A" stroke-width="0.740704" stroke-linecap="round" stroke-linejoin="round"/>
<path d="M28.2441 43.252L36.2783 30.0576" stroke="#373A3A" stroke-width="0.740704" stroke-linecap="round" stroke-linejoin="round"/>
<path d="M24.9389 27.2018L16.6701 30.4609C15.4208 30.9522 13.969 30.4683 13.2752 29.2733C12.5864 28.0758 12.895 26.5747 13.9468 25.7377L20.9588 20.1602" stroke="#373A3A" stroke-width="0.740704" stroke-linecap="round" stroke-linejoin="round"/>
<path d="M36.7451 33.0682L38.4561 31.693C39.2808 31.0288 40.0561 30.1474 40.7252 29.1153C41.4782 27.95 41.8708 26.5846 41.856 25.197L41.8017 20.9849" stroke="#373A3A" stroke-width="0.740704" stroke-linecap="round" stroke-linejoin="round"/>
<path d="M36.2773 30.0547L36.7934 33.3878C36.8872 33.9878 37.1637 34.3779 37.5365 34.5261C37.9094 34.6742 38.3809 34.573 38.8575 34.1878L40.8203 32.6126C41.6968 31.9089 42.5116 30.9583 43.2029 29.8497C43.8992 28.7362 44.2325 27.435 44.2152 26.124L44.1436 20.2749" stroke="#373A3A" stroke-width="0.740704" stroke-linecap="round" stroke-linejoin="round"/>
<path d="M34.5459 32.9067C34.6792 33.2647 34.9014 33.5018 35.178 33.6104L37.5383 34.5289" stroke="#373A3A" stroke-width="0.740704" stroke-linecap="round" stroke-linejoin="round"/>
</g>
</g>
<defs>
<clipPath id="clip0_8813_4863">
<rect width="50" height="50" fill="white"/>
</clipPath>
<clipPath id="clip1_8813_4863">
<rect width="50" height="43.9361" fill="white" transform="translate(0 3.33154)"/>
</clipPath>
</defs>
</svg>
