<svg width="32" height="52" viewBox="0 0 32 52" fill="none" xmlns="http://www.w3.org/2000/svg">
<g clip-path="url(#clip0_8813_4725)">
<path d="M31.4855 9.88954V35.0089C31.4855 36.1816 31.074 36.9993 30.4131 37.3825L6.63867 51.1071C7.30472 50.7214 7.71874 49.9011 7.71874 48.7413V27.7904L21.7494 19.6848C22.0343 19.521 22.2815 19.2989 22.4747 19.033C22.6679 18.7671 22.8028 18.4634 22.8706 18.1418L23.8427 13.5566C23.9098 13.2351 24.0442 12.9315 24.237 12.6655C24.4298 12.3996 24.6766 12.1775 24.9613 12.0137L30.0634 9.0692C30.2074 8.98546 30.3709 8.94121 30.5375 8.94092C30.704 8.94063 30.8677 8.9843 31.012 9.06753C31.1563 9.15076 31.276 9.27059 31.3592 9.41492C31.4423 9.55926 31.4859 9.72297 31.4855 9.88954ZM27.5149 17.6378C27.907 17.3822 28.2334 17.0379 28.4675 16.6326C28.7016 16.2274 28.8369 15.7726 28.8624 15.3053C28.8624 14.4464 28.2581 14.0992 27.5149 14.5338C27.1222 14.7893 26.7954 15.134 26.5612 15.5398C26.3271 15.9456 26.1921 16.401 26.1674 16.8689C26.1571 17.7226 26.7589 18.0698 27.5149 17.6378Z" fill="white"/>
<path d="M28.8508 15.3055C28.8264 15.7719 28.6927 16.2261 28.4604 16.6313C28.2281 17.0364 27.9037 17.3813 27.5135 17.638C26.7678 18.07 26.166 17.7228 26.166 16.8665C26.1899 16.3977 26.3245 15.9413 26.5587 15.5346C26.7929 15.1278 27.1201 14.7823 27.5135 14.5263C28.2464 14.0994 28.8508 14.4543 28.8508 15.3055Z" fill="#5F646B"/>
<path d="M26.1571 0.182129V11.3274L24.9613 12.0166C24.6766 12.1804 24.4298 12.4026 24.237 12.6685C24.0442 12.9344 23.9098 13.2381 23.8427 13.5596L22.8706 18.1448C22.8028 18.4664 22.6679 18.7701 22.4747 19.0359C22.2815 19.3018 22.0343 19.5239 21.7494 19.6877L7.71359 27.7908V41.5952L5.0957 43.1073V17.2987L9.06368 14.3182L9.3877 9.8642L26.1571 0.182129Z" fill="white"/>
<path d="M9.3877 9.86426L9.06625 14.3183L5.0957 17.2988L9.3877 9.86426Z" fill="#DAE0E5"/>
<path d="M7.71187 41.5952V48.734C7.71187 49.8938 7.29784 50.7141 6.6318 51.0999C5.96576 51.4856 5.05798 51.4316 4.0602 50.8581C2.02864 49.6855 0.382812 46.8567 0.382812 44.5063V23.5606L5.09398 20.8398V43.1073L7.71187 41.5952Z" fill="#FF4F4F"/>
<path d="M6.63694 51.1075L30.4114 37.3829C31.0723 36.9997 31.4837 36.1819 31.4837 35.0093V9.88989C31.4837 9.72355 31.4398 9.56016 31.3565 9.41618C31.2732 9.27221 31.1534 9.15274 31.0092 9.06982C30.8649 8.98689 30.7014 8.94345 30.5351 8.94385C30.3687 8.94426 30.2054 8.9885 30.0616 9.07212L24.9596 12.0166C24.6749 12.1804 24.4281 12.4026 24.2353 12.6685C24.0425 12.9344 23.9081 13.2381 23.8409 13.5596L22.8689 18.1447C22.8011 18.4663 22.6662 18.77 22.473 19.0359C22.2798 19.3018 22.0326 19.5239 21.7477 19.6877L7.71187 27.7908V48.7339C7.71187 49.8937 7.29784 50.7166 6.6318 51.0998C5.96576 51.483 5.05798 51.4315 4.0602 50.8581C2.02864 49.6854 0.382812 46.8567 0.382812 44.5062V23.5605L5.09398 20.8398" stroke="#373A3A" stroke-width="0.77148" stroke-linecap="round" stroke-linejoin="round"/>
<path d="M5.0957 17.2988L9.06625 14.3183L9.3877 9.86426" stroke="#373A3A" stroke-width="0.77148" stroke-linecap="round" stroke-linejoin="round"/>
<path d="M7.71359 41.5952L5.0957 43.1098V17.2987L9.3877 9.8642L26.1571 0.182129V11.3274" stroke="#373A3A" stroke-width="0.77148" stroke-linecap="round" stroke-linejoin="round"/>
<path d="M10.9023 16.0924L12.9313 14.9224" stroke="#373A3A" stroke-width="0.77148" stroke-linecap="round" stroke-linejoin="round"/>
<path d="M14.7324 13.881L20.3488 10.6382" stroke="#373A3A" stroke-width="0.77148" stroke-linecap="round" stroke-linejoin="round"/>
<path d="M10.9023 19.5078L16.8299 16.085" stroke="#373A3A" stroke-width="0.77148" stroke-linecap="round" stroke-linejoin="round"/>
<path d="M17.8809 15.478L20.347 14.0508" stroke="#373A3A" stroke-width="0.77148" stroke-linecap="round" stroke-linejoin="round"/>
<path d="M10.9023 23.1414L20.3478 17.687" stroke="#373A3A" stroke-width="0.77148" stroke-linecap="round" stroke-linejoin="round"/>
<path d="M28.8508 15.3055C28.8264 15.7719 28.6927 16.2261 28.4604 16.6313C28.2281 17.0364 27.9037 17.3813 27.5135 17.638C26.7678 18.07 26.166 17.7228 26.166 16.8665C26.1899 16.3977 26.3245 15.9413 26.5587 15.5346C26.7929 15.1278 27.1201 14.7823 27.5135 14.5263C28.2464 14.0994 28.8508 14.4543 28.8508 15.3055Z" stroke="#373A3A" stroke-width="0.77148" stroke-linecap="round" stroke-linejoin="round"/>
</g>
<defs>
<clipPath id="clip0_8813_4725">
<rect width="31.8724" height="51.9335" fill="white"/>
</clipPath>
</defs>
</svg>
