<svg width="25" height="25" viewBox="0 0 25 25" fill="none" xmlns="http://www.w3.org/2000/svg">
<path d="M13.2812 16.583H13.9583C14.6354 16.583 15.1979 15.9788 15.1979 15.2497C15.1979 14.3434 14.875 14.1663 14.3438 13.9788L13.2917 13.6143V16.583H13.2812Z" fill="#8AD5AA"/>
<path d="M12.4695 1.97902C6.71947 1.99985 2.06322 6.67694 2.08405 12.4269C2.10489 18.1769 6.78197 22.8332 12.532 22.8124C18.282 22.7915 22.9382 18.1144 22.9174 12.3644C22.8966 6.61444 18.2195 1.9686 12.4695 1.97902ZM14.8549 12.4999C15.6674 12.7811 16.7611 13.3853 16.7611 15.2499C16.7611 16.854 15.5007 18.1457 13.9591 18.1457H13.282V18.7499C13.282 19.1769 12.9278 19.5311 12.5007 19.5311C12.0736 19.5311 11.7195 19.1769 11.7195 18.7499V18.1457H11.3445C9.63614 18.1457 8.25072 16.7082 8.25072 14.9374C8.25072 14.5103 8.60489 14.1561 9.03197 14.1561C9.45905 14.1561 9.81322 14.5103 9.81322 14.9374C9.81322 15.8436 10.5007 16.5832 11.3445 16.5832H11.7195V13.0624L10.1466 12.4999C9.33405 12.2186 8.2403 11.6144 8.2403 9.74985C8.2403 8.14569 9.50072 6.85402 11.0424 6.85402H11.7195V6.24985C11.7195 5.82277 12.0736 5.4686 12.5007 5.4686C12.9278 5.4686 13.282 5.82277 13.282 6.24985V6.85402H13.657C15.3653 6.85402 16.7507 8.29152 16.7507 10.0624C16.7507 10.4894 16.3966 10.8436 15.9695 10.8436C15.5424 10.8436 15.1882 10.4894 15.1882 10.0624C15.1882 9.1561 14.5007 8.41652 13.657 8.41652H13.282V11.9374L14.8549 12.4999Z" fill="#8AD5AA"/>
<path d="M9.8125 9.76025C9.8125 10.6665 10.1354 10.8436 10.6667 11.0311L11.7187 11.3957V8.4165H11.0417C10.3646 8.4165 9.8125 9.02067 9.8125 9.76025Z" fill="#8AD5AA"/>
</svg>
