<svg width="45" height="56" viewBox="0 0 45 56" fill="none" xmlns="http://www.w3.org/2000/svg">
<path d="M44.0516 10.3768C44.7258 19.3131 44.7798 27.9976 39.3542 31.1285C35.7895 33.185 35.2636 28.9956 33.2273 27.8201L21.7715 21.2078L21.9738 21.0976C27.4016 17.9803 27.3432 9.26872 26.6644 0.336914L44.0516 10.3768Z" fill="white"/>
<path d="M19.3697 55.0651L19.3449 55.0516C17.8458 54.0514 17.7132 50.6396 17.7132 47.9987L7.19238 41.9168C10.3142 35.291 7.12046 21.4415 12.9237 18.0927C14.2228 17.342 15.1308 17.3802 15.8455 17.796L33.1832 27.8066C32.4685 27.4111 31.5672 27.3863 30.2883 28.1235C23.4355 32.0815 29.1398 50.7048 22.1454 54.7414C20.9025 55.4471 20.0147 55.4741 19.3697 55.0651Z" fill="white"/>
<path d="M19.3445 55.0451L2.06529 45.0705C0.476263 44.1535 0.336914 40.654 0.336914 37.9614L7.19197 41.9149L17.7173 47.9833C17.7128 50.6332 17.8454 54.045 19.3445 55.0451Z" fill="#FF4F4F"/>
<path d="M7.19238 41.9145C10.3142 35.2887 7.12046 21.4393 12.9237 18.0904C14.2228 17.3397 15.1308 17.3779 15.8455 17.7937L33.2191 27.8246C35.2554 29.0001 35.7814 33.1895 39.346 31.133C44.7738 27.9976 44.7266 19.3131 44.0524 10.3768L26.6652 0.336914C27.3395 9.26872 27.4024 17.9735 21.9746 21.0976L21.7723 21.2078" stroke="#373A3A" stroke-width="0.674268" stroke-linecap="round" stroke-linejoin="round"/>
<path d="M19.3701 55.0651C20.0152 55.4809 20.9097 55.454 22.1481 54.7415C29.1425 50.6959 23.4382 32.0816 30.291 28.1236C31.5699 27.3864 32.4711 27.4111 33.1859 27.8067" stroke="#373A3A" stroke-width="0.674268" stroke-linecap="round" stroke-linejoin="round"/>
<path d="M19.3445 55.0451L2.06529 45.0705C0.476263 44.1535 0.336914 40.654 0.336914 37.9614L7.19197 41.9149L17.7173 47.9833C17.7128 50.6332 17.8454 54.045 19.3445 55.0451Z" stroke="#373A3A" stroke-width="0.674268" stroke-linecap="round" stroke-linejoin="round"/>
<path d="M19.3457 55.0449L19.3701 55.0582" stroke="#373A3A" stroke-width="0.674268" stroke-linecap="round" stroke-linejoin="round"/>
<path d="M19.442 55.1013L19.3701 55.0586" stroke="#373A3A" stroke-width="0.674268" stroke-linecap="round" stroke-linejoin="round"/>
<path d="M40.3733 13.9529L34.624 10.6333" stroke="#373A3A" stroke-width="0.674268" stroke-linecap="round" stroke-linejoin="round"/>
<path d="M31.9778 9.10521L30.0674 8.00391" stroke="#373A3A" stroke-width="0.674268" stroke-linecap="round" stroke-linejoin="round"/>
<path d="M40.4141 19.6755L29.6641 13.4678" stroke="#373A3A" stroke-width="0.674268" stroke-linecap="round" stroke-linejoin="round"/>
<path d="M39.5911 24.8984L28.3398 18.3984" stroke="#373A3A" stroke-width="0.674268" stroke-linecap="round" stroke-linejoin="round"/>
<path d="M24.9075 28.5147L13.582 21.9766" stroke="#373A3A" stroke-width="0.674268" stroke-linecap="round" stroke-linejoin="round"/>
<path d="M23.211 33.2322L20.5566 31.7017" stroke="#373A3A" stroke-width="0.674268" stroke-linecap="round" stroke-linejoin="round"/>
<path d="M18.0007 30.2229L12.3301 26.9482" stroke="#373A3A" stroke-width="0.674268" stroke-linecap="round" stroke-linejoin="round"/>
<path d="M22.5587 38.5523L11.9502 32.4277" stroke="#373A3A" stroke-width="0.674268" stroke-linecap="round" stroke-linejoin="round"/>
<path d="M22.233 44.0632L16.8838 40.9751" stroke="#373A3A" stroke-width="0.674268" stroke-linecap="round" stroke-linejoin="round"/>
<path d="M14.4091 39.5457L11.4873 37.8623" stroke="#373A3A" stroke-width="0.674268" stroke-linecap="round" stroke-linejoin="round"/>
</svg>
