<svg width="10" height="10" viewBox="0 0 43 43" fill="none" xmlns="http://www.w3.org/2000/svg">
<rect x="0.5" y="0.458984" width="41.7067" height="41.7067" rx="4.76648" fill="#FFF7F7"/>
<path fill-rule="evenodd" clip-rule="evenodd" d="M20.2395 14.2079C19.0193 12.0215 16.0621 11.8883 14.3097 13.6407C13.3723 14.578 12.5395 15.8244 12.4839 17.2891C12.4017 19.4596 12.9622 23.0636 16.5313 26.6327C20.1004 30.2019 23.7044 30.7624 25.8749 30.6801C27.3396 30.6245 28.5859 29.7916 29.5233 28.8543C31.2757 27.1019 31.1425 24.1447 28.9561 22.9246L27.7432 22.2475C26.3154 21.4507 24.514 21.7903 23.3332 22.9567C23.3119 22.9723 23.192 23.0546 22.9823 23.0648C22.7148 23.0779 22.0966 22.9827 21.1389 22.025C20.181 21.0671 20.0861 20.4488 20.0991 20.1814C20.1093 19.972 20.1917 19.852 20.2073 19.8307C21.3737 18.6501 21.7132 16.8486 20.9165 15.4209L20.2395 14.2079ZM15.416 14.747C16.5695 13.5936 18.2485 13.8508 18.8733 14.9703L19.5503 16.1833C19.9713 16.9379 19.8277 17.9978 19.0837 18.7418C19.011 18.8145 18.5768 19.2793 18.5364 20.1049C18.495 20.9502 18.8746 21.9734 20.0327 23.1314C21.1903 24.289 22.2132 24.6688 23.0584 24.6277C23.8838 24.5875 24.3488 24.1536 24.422 24.0806C25.166 23.3366 26.2261 23.1926 26.9807 23.6138L28.1937 24.2908C29.3132 24.9155 29.5704 26.5946 28.417 27.748C27.6083 28.5568 26.7156 29.0825 25.8157 29.1166C24.0056 29.1852 20.8496 28.7383 17.6376 25.5264C14.4257 22.3145 13.9788 19.1584 14.0474 17.3483C14.0815 16.4484 14.6073 15.5558 15.416 14.747Z" fill="#FF4F4F"/>
<path d="M25.7746 13.4785C25.3425 13.4785 24.9923 13.8288 24.9923 14.2608C24.9923 14.6929 25.3425 15.0431 25.7746 15.0431H27.0151L24.1783 17.8799C23.8729 18.1854 23.8729 18.6807 24.1783 18.9862C24.4838 19.2917 24.9791 19.2917 25.2846 18.9862L28.1214 16.1494V17.39C28.1214 17.822 28.4717 18.1723 28.9037 18.1723C29.3358 18.1723 29.686 17.822 29.686 17.39V14.2608C29.686 13.8288 29.3358 13.4785 28.9037 13.4785H25.7746Z" fill="#FF4F4F"/>
</svg>
