<svg width="49" height="52" viewBox="0 0 49 52" fill="none" xmlns="http://www.w3.org/2000/svg">
<g clip-path="url(#clip0_8813_4923)">
<path d="M20.2095 26.4268C20.2095 26.4268 18.8555 30.0175 18.8555 35.9053C20.6323 37.1735 24.439 39.4078 24.439 39.4078L24.9964 27.4301L20.2095 26.4268Z" fill="#DAE0E5" stroke="#373A3A" stroke-width="0.580651" stroke-linecap="round" stroke-linejoin="round"/>
<path d="M40.6038 43.5025C41.7883 43.3655 42.9125 43.0333 43.8136 42.5131C46.4033 41.0173 46.2315 38.5669 43.4443 37.1943C42.5153 36.7367 41.5653 36.2467 40.6038 35.7287V34.9065C40.9406 35.1945 42.3318 36.3071 44.4129 36.2769C46.5566 36.2443 47.9386 35.018 48.2521 34.7254C50.3378 26.3779 45.0748 18.07 37.2894 16.3745C30.231 14.8369 22.6849 19.078 20.209 26.429C20.4273 26.9075 20.7966 27.5717 21.4074 28.2453C21.9974 28.8933 22.6036 29.316 23.0472 29.5785C23.0472 32.1868 22.6593 36.5463 23.8485 37.7564C25.7623 39.705 27.9038 39.2335 29.2393 40.0046C31.6664 41.4052 34.1423 42.4016 36.2791 43.103C37.5914 43.5327 39.0825 43.6627 40.4923 43.5141L40.6015 43.5025H40.6038Z" fill="#5F646B" stroke="#373A3A" stroke-width="0.580651" stroke-linecap="round" stroke-linejoin="round"/>
<path d="M20.4846 51.1532C20.4219 51.065 20.3848 50.9349 20.3848 50.77C20.3848 50.7259 20.3871 50.6818 20.3964 50.6307C20.4405 50.2335 20.6844 49.8154 20.977 49.6459L33.3054 42.5248C33.6306 42.339 33.7932 42.0928 33.7932 41.8442V43.0102C33.7932 43.5095 33.5284 43.9671 33.0964 44.2179L20.977 51.216C20.7726 51.3344 20.5938 51.2996 20.487 51.1532H20.4846Z" fill="#969A9E"/>
<path d="M33.3036 41.1662C33.6288 41.352 33.7914 41.6029 33.7914 41.8491C33.7914 42.0953 33.6288 42.3415 33.3036 42.5296L20.9752 49.6507C20.6849 49.8179 20.441 50.2383 20.3946 50.6355L19.7535 47.644L19.3773 45.8881L19.1961 45.0403L19.001 44.1276L18.8036 43.2101L18.5365 41.9513L18.2671 40.6901L17.9907 39.4127L17.3636 36.4746C17.2219 35.8103 16.8085 35.2389 16.2185 34.8998L14.7344 34.0428L16.9223 32.7793C17.4913 32.4518 18.1927 32.4518 18.7618 32.7793L33.299 41.1732L33.3036 41.1662Z" fill="white"/>
<path d="M14.7395 34.0382L16.2236 34.8953C16.8113 35.2344 17.227 35.8057 17.3687 36.47L17.9958 39.4081L18.2722 40.6855L18.5416 41.9467L18.8087 43.2056L19.0061 44.123L19.2012 45.0358L19.3824 45.8835L19.7586 47.6394L20.3997 50.6309C20.3927 50.6797 20.3881 50.7262 20.3881 50.7703C20.3881 50.9352 20.4252 51.0653 20.4879 51.1535L3.47254 41.3312C3.38428 41.2824 3.31693 41.1826 3.28906 41.0409C3.28673 41.0386 3.28673 41.0339 3.28441 41.0293L0.309153 26.9427C0.255733 26.6942 0.355605 26.4387 0.559995 26.29C0.764384 26.1437 1.03845 26.1275 1.25678 26.2552L14.7372 34.0359L14.7395 34.0382Z" fill="white"/>
<path d="M33.7908 41.7376V43.0127C33.7908 43.5121 33.526 43.9696 33.094 44.2205L20.9746 51.2185C20.7702 51.3369 20.5914 51.3021 20.4846 51.1558C20.4219 51.0675 20.3847 50.9374 20.3847 50.7725C20.3847 50.7284 20.387 50.6843 20.3963 50.6332C20.4404 50.236 20.6843 49.818 20.977 49.6484L33.3053 42.5273C33.6305 42.3415 33.7931 42.0953 33.7931 41.8468C33.7931 41.5982 33.6305 41.3521 33.3053 41.1639L18.7682 32.77C18.1991 32.4425 17.4977 32.4425 16.9287 32.77L14.7408 34.0335L14.7129 34.0498" stroke="#3A3A3A" stroke-width="0.580651" stroke-linecap="round" stroke-linejoin="round"/>
<path d="M20.469 50.9768L20.3947 50.6307L19.7536 47.6392L19.3774 45.8833L19.1962 45.0356L19.0011 44.1228L18.8037 43.2054L18.5366 41.9465L18.2672 40.6853L17.9908 39.4079L17.3637 36.4698C17.222 35.8056 16.8086 35.2342 16.2186 34.8951L14.7345 34.0381L1.25873 26.255C1.03808 26.1273 0.766337 26.1412 0.561948 26.2898C0.357559 26.4385 0.257686 26.694 0.311106 26.9425L3.28636 41.0291" stroke="#3A3A3A" stroke-width="0.580651" stroke-linecap="round" stroke-linejoin="round"/>
<path d="M20.649 51.2488L20.4864 51.1535L3.47329 41.3312C3.38503 41.2825 3.31767 41.1826 3.2898 41.0409C3.28748 41.0386 3.28748 41.0339 3.28516 41.0293" stroke="#3A3A3A" stroke-width="0.580651" stroke-linecap="round" stroke-linejoin="round"/>
<path d="M40.6039 34.9067L40.4064 39.3243L30.4425 35.6197C29.7062 35.4014 28.9119 35.5245 28.2731 35.9519L24.1226 38.739C23.7673 38.9759 23.6697 39.4543 23.8997 39.8144C24.1157 40.1511 24.5523 40.2696 24.91 40.0907L27.6414 38.7251C27.1351 39.0758 27.0398 39.7725 27.3859 40.2092C27.6948 40.5971 28.2894 40.6993 28.747 40.4066C28.4497 40.8433 28.5054 41.41 28.8399 41.7305C29.0977 41.9767 29.4902 42.051 29.8525 41.9302C30.3356 41.7259 30.8187 41.5191 31.3018 41.3148C35.5615 44.0229 38.9943 45.7045 40.6364 46.2642C40.6364 46.2642 42.8939 47.0353 44.32 46.4709C44.4361 46.4245 44.5523 46.378 44.6684 46.3269L44.6986 46.313C46.1595 45.6789 47.1629 44.3086 47.3278 42.7246L48.3939 34.0752C47.9201 34.4561 47.1466 36.0192 44.7776 36.0494C42.5084 36.0773 41.1009 35.269 40.5969 34.9044L40.6039 34.9067Z" fill="#DAE0E5" stroke="#373A3A" stroke-width="0.580651" stroke-linecap="round" stroke-linejoin="round"/>
<path d="M37.8879 1.18723C35.4585 -0.459501 31.7679 -0.11111 29.2548 2.3044C28.7369 1.84917 28.0587 1.57046 27.3154 1.57046C25.6919 1.57046 24.375 2.88737 24.375 4.51087C24.375 6.52457 25.7941 7.10522 25.7941 7.10522L26.5281 12.0013H37.1493L36.9658 10.4056L38.7705 11.6157C41.697 8.18756 40.9119 3.23576 37.8879 1.1849V1.18723Z" fill="#373A3A" stroke="#373A3A" stroke-width="0.580651" stroke-linecap="round" stroke-linejoin="round"/>
<path d="M38.5846 9.22796C37.9366 9.20473 37.2932 9.66693 36.9634 10.4078C35.7115 10.7284 35.3979 8.8517 35.3306 7.51852C32.6015 10.4497 27.1666 8.8726 25.794 7.10742C25.7754 8.68912 26.0216 9.4579 25.9705 11.1743C25.9519 11.7828 25.9031 12.3101 25.8544 12.7142C25.8126 13.0603 25.7916 13.411 25.8195 13.7594C25.9914 15.9612 27.0853 17.9517 28.6461 18.4998C29.0201 18.6322 29.6727 18.7808 30.5669 18.5974L31.2846 20.1442C31.417 20.553 31.7491 20.8619 32.1626 20.9687C33.0126 21.1894 34.5084 21.3659 36.0227 20.5321C38.0713 19.4033 38.5265 17.3222 38.5869 17.0249C38.4568 16.5558 38.3314 16.3793 38.3221 15.6244C38.3105 14.772 38.4475 14.0659 38.5869 13.5619C39.8597 12.2055 40.2847 10.6935 39.7366 9.87829C39.5229 9.56009 39.0932 9.24886 38.5869 9.23028L38.5846 9.22796Z" fill="#DAE0E5" stroke="#373A3A" stroke-width="0.580651" stroke-linecap="round" stroke-linejoin="round"/>
<path d="M28.1898 11.8315C28.2734 12.4401 28.1689 12.886 28.0551 13.181C27.788 13.8708 27.2886 14.2261 27.4582 14.5699C27.5279 14.7093 27.6881 14.7952 28.011 14.9624C28.2572 15.0925 28.4801 15.1668 28.6357 15.2086" stroke="#373A3A" stroke-width="0.580651" stroke-linecap="round" stroke-linejoin="round"/>
<path d="M30.0684 12.626L30.1218 13.404" stroke="#373A3A" stroke-width="0.580651" stroke-linecap="round" stroke-linejoin="round"/>
<path d="M27.1113 11.6553L27.1647 12.4333" stroke="#373A3A" stroke-width="0.580651" stroke-linecap="round" stroke-linejoin="round"/>
<path d="M26.1895 10.5448C26.1895 10.5448 27.1789 10.3335 27.7293 10.4403" stroke="#373A3A" stroke-width="0.580651" stroke-linecap="round" stroke-linejoin="round"/>
<path d="M30.3516 11.2485C30.9392 11.3925 31.9124 12.296 31.9124 12.296" stroke="#373A3A" stroke-width="0.580651" stroke-linecap="round" stroke-linejoin="round"/>
<path d="M27.6445 38.7272L28.7524 38.1675" stroke="#373A3A" stroke-width="0.580651" stroke-linecap="round" stroke-linejoin="round"/>
<path d="M28.75 40.4088L29.9763 39.7515" stroke="#373A3A" stroke-width="0.580651" stroke-linecap="round" stroke-linejoin="round"/>
<path d="M40.6035 34.9066V30.4937" stroke="#373A3A" stroke-width="0.580651" stroke-linecap="round" stroke-linejoin="round"/>
<path d="M23.0488 29.5761C23.1324 27.3093 23.7781 24.8311 23.7781 24.8311" stroke="#373A3A" stroke-width="0.580651" stroke-linecap="round" stroke-linejoin="round"/>
<path d="M15.1933 4.28086C13.3909 5.32138 11.9277 8.36167 11.9277 11.0722C11.9277 8.364 10.4645 7.01224 8.66211 8.05277C10.4645 7.01224 11.9277 3.97427 11.9277 1.26611C11.9277 3.97427 13.3909 5.32138 15.1933 4.28086Z" fill="#FF4F4F"/>
<path d="M18.6939 8.21077C17.7277 8.7682 16.9427 10.3987 16.9427 11.8503C16.9427 10.3987 16.1576 9.67401 15.1914 10.2314C16.1576 9.67401 16.9427 8.04587 16.9427 6.59424C16.9427 8.04587 17.7277 8.7682 18.6939 8.21077Z" fill="#FF4F4F"/>
</g>
<defs>
<clipPath id="clip0_8813_4923">
<rect width="49" height="51.6965" fill="white"/>
</clipPath>
</defs>
</svg>
