<svg width="25" height="25" viewBox="0 0 25 25" fill="none" xmlns="http://www.w3.org/2000/svg">
<path d="M16.8652 2.08301H8.13607C4.3444 2.08301 2.08398 4.34342 2.08398 8.13509V16.8538C2.08398 20.6559 4.3444 22.9163 8.13607 22.9163H16.8548C20.6465 22.9163 22.9069 20.6559 22.9069 16.8643V8.13509C22.9173 4.34342 20.6569 2.08301 16.8652 2.08301ZM16.4069 16.4059H8.5944C8.16732 16.4059 7.81315 16.0518 7.81315 15.6247C7.81315 15.1976 8.16732 14.8434 8.5944 14.8434H16.4069C16.834 14.8434 17.1882 15.1976 17.1882 15.6247C17.1882 16.0518 16.834 16.4059 16.4069 16.4059ZM16.4069 10.1559H8.5944C8.16732 10.1559 7.81315 9.80176 7.81315 9.37467C7.81315 8.94759 8.16732 8.59342 8.5944 8.59342H16.4069C16.834 8.59342 17.1882 8.94759 17.1882 9.37467C17.1882 9.80176 16.834 10.1559 16.4069 10.1559Z" fill="#BC90E0"/>
</svg>
