<svg width="31" height="31" viewBox="0 0 31 31" fill="none" xmlns="http://www.w3.org/2000/svg">
<path fill-rule="evenodd" clip-rule="evenodd" d="M14.4647 1.7544H17.1057C19.4029 1.75437 21.2224 1.75436 22.6464 1.94582C24.1119 2.14285 25.2982 2.558 26.2337 3.49345C26.5997 3.85957 26.5997 4.45316 26.2337 4.81927C25.8675 5.1854 25.2739 5.1854 24.9078 4.81927C24.3788 4.29026 23.6542 3.97317 22.3967 3.8041C21.112 3.63138 19.4187 3.6294 17.0352 3.6294H14.5352C12.1516 3.6294 10.4583 3.63138 9.17372 3.8041C7.91611 3.97317 7.19154 4.29026 6.66253 4.81927C6.13352 5.34828 5.81643 6.07284 5.64736 7.33046C5.47464 8.61503 5.47266 10.3084 5.47266 12.6919V17.6919C5.47266 20.0754 5.47464 21.7688 5.64736 23.0534C5.81643 24.3109 6.13352 25.0355 6.66253 25.5645C7.19154 26.0935 7.91611 26.4106 9.17372 26.5796C10.4583 26.7524 12.1516 26.7544 14.5352 26.7544H17.0352C19.4187 26.7544 21.112 26.7524 22.3967 26.5796C23.6542 26.4106 24.3788 26.0935 24.9078 25.5645C25.7777 24.6946 26.0412 23.3429 26.0869 20.1784C26.0944 19.6606 26.5202 19.247 27.0379 19.2545C27.5555 19.262 27.9692 19.6878 27.9617 20.2054C27.9178 23.2398 27.7214 25.4025 26.2337 26.8904C25.2982 27.8258 24.1119 28.2409 22.6464 28.438C21.2224 28.6294 19.4029 28.6294 17.1057 28.6294H14.4647C12.1674 28.6294 10.3479 28.6294 8.92388 28.438C7.45836 28.2409 6.27217 27.8258 5.33671 26.8904C4.40126 25.9549 3.98611 24.7686 3.78908 23.3031C3.59762 21.8791 3.59763 20.0596 3.59766 17.7624V12.6214C3.59763 10.3242 3.59762 8.50463 3.78908 7.08062C3.98611 5.6151 4.40126 4.42891 5.33671 3.49345C6.27217 2.558 7.45836 2.14285 8.92388 1.94582C10.3479 1.75436 12.1674 1.75437 14.4647 1.7544ZM23.4265 8.99885C24.7525 7.67291 26.9023 7.67291 28.2282 8.99885C29.5542 10.3248 29.5542 12.4745 28.2282 13.8005L22.284 19.7446C21.9607 20.0681 21.7419 20.2869 21.4968 20.478C21.2085 20.7029 20.8967 20.8956 20.5667 21.053C20.286 21.1866 19.9925 21.2845 19.5585 21.429L16.954 22.2973C16.379 22.4889 15.745 22.3393 15.3164 21.9106C14.8878 21.482 14.7382 20.848 14.9298 20.273L15.7805 17.7209C15.7864 17.7033 15.7922 17.6858 15.7979 17.6685C15.9425 17.2346 16.0404 16.941 16.174 16.6604C16.3314 16.3304 16.5242 16.0185 16.749 15.7303C16.9402 15.4851 17.1589 15.2664 17.4824 14.943C17.4953 14.9301 17.5083 14.9171 17.5215 14.9039L23.4265 8.99885ZM26.9024 10.3247C26.3087 9.73097 25.3462 9.73097 24.7524 10.3247L24.5252 10.5519C24.5375 10.5938 24.5517 10.6383 24.5679 10.685C24.6854 11.024 24.9087 11.4722 25.3317 11.8953C25.7548 12.3185 26.203 12.5416 26.542 12.6592C26.5888 12.6754 26.6333 12.6895 26.6752 12.7019L26.9024 12.4746C27.496 11.8809 27.496 10.9184 26.9024 10.3247ZM25.2432 14.1339C24.8458 13.9251 24.4168 13.632 24.0059 13.2211C23.595 12.8103 23.3019 12.3812 23.0932 11.9839L18.8473 16.2298C18.471 16.6061 18.3389 16.7404 18.2274 16.8834C18.0864 17.0643 17.9654 17.26 17.8667 17.4671C17.7887 17.6308 17.7275 17.8089 17.5593 18.3139L17.0589 19.815L17.412 20.1681L18.9132 19.6678C19.4182 19.4995 19.5963 19.4384 19.7599 19.3604C19.967 19.2616 20.1628 19.1406 20.3437 18.9996C20.4867 18.8881 20.6209 18.756 20.9973 18.3798L25.2432 14.1339ZM9.84766 11.4419C9.84766 10.9241 10.2674 10.5044 10.7852 10.5044H18.9102C19.4279 10.5044 19.8477 10.9241 19.8477 11.4419C19.8477 11.9597 19.4279 12.3794 18.9102 12.3794H10.7852C10.2674 12.3794 9.84766 11.9597 9.84766 11.4419ZM9.84766 16.4419C9.84766 15.9241 10.2674 15.5044 10.7852 15.5044H13.9102C14.4279 15.5044 14.8477 15.9241 14.8477 16.4419C14.8477 16.9596 14.4279 17.3794 13.9102 17.3794H10.7852C10.2674 17.3794 9.84766 16.9596 9.84766 16.4419ZM9.84766 21.4419C9.84766 20.9241 10.2674 20.5044 10.7852 20.5044H12.6602C13.1779 20.5044 13.5977 20.9241 13.5977 21.4419C13.5977 21.9596 13.1779 22.3794 12.6602 22.3794H10.7852C10.2674 22.3794 9.84766 21.9596 9.84766 21.4419Z" fill="#FF5E5E"/>
</svg>
