<svg width="25" height="25" viewBox="0 0 25 25" fill="none" xmlns="http://www.w3.org/2000/svg">
<path d="M4.83109 2.98047C4.11005 2.98047 3.50981 3.57175 3.50981 4.29395V6.63281C3.12354 6.76521 2.77609 7.00314 2.51176 7.32617C2.09077 7.83998 1.9231 8.51781 2.05668 9.16895C2.52174 11.4186 3.18405 14.6297 3.20805 14.7461C3.18386 14.8634 2.52462 18.0587 2.06059 20.3086C1.92566 20.9632 2.09456 21.6441 2.51762 22.1611C2.94158 22.6779 3.57668 22.9785 4.24711 22.9785H20.7022C21.3806 22.9785 22.0233 22.6749 22.4532 22.1514H22.4541C22.8838 21.6274 23.0533 20.937 22.917 20.2744C22.453 18.0253 21.8003 14.8609 21.7764 14.7451C21.8006 14.6276 22.4618 11.414 22.9258 9.16406C23.0596 8.5144 22.8935 7.83741 22.4717 7.32324C22.2133 7.00778 21.8753 6.7759 21.5 6.64258V4.29395C21.5 3.57175 20.8998 2.98047 20.1788 2.98047H4.83109ZM4.83109 3.98047H20.1788C20.3647 3.98047 20.5 4.11815 20.5 4.29395V6.5127H4.50981V4.29395C4.50981 4.11815 4.64514 3.98047 4.83109 3.98047ZM9.99516 10.9531C12.2932 10.9531 12.3789 12.6976 12.3789 13.0381C12.3789 13.9316 11.6125 14.4423 11.3145 14.6123V14.6553C11.4 14.6708 11.5043 14.7031 11.6123 14.7451H9.52738V15.165C9.69738 15.1225 9.86762 15.1221 10.0801 15.1221C10.2926 15.1221 11.7403 15.1653 11.7403 16.6123C11.7403 18.0163 10.2506 18.1436 10.0381 18.1436C9.28363 18.1436 8.40935 17.6856 8.38285 16.4522H7.4434C7.4519 17.0656 7.63813 18.9522 10.0381 18.9522C10.5061 18.9522 12.7188 18.8248 12.7188 16.5693C12.7188 15.4238 12.0978 14.9346 11.6143 14.7451H15.9864V13.1533H14.0284V12.4492C14.6594 12.4492 15.1603 12.3466 15.5303 12.1416C15.9003 11.9366 16.1475 11.5588 16.2725 11.0088H17.0098V14.7451H20.7559L20.7764 14.8467C20.7764 14.8467 21.465 18.1856 21.9375 20.4756C22.0133 20.844 21.9201 21.2246 21.6807 21.5166C21.4406 21.8091 21.0828 21.9785 20.7022 21.9785H4.24711C3.87454 21.9785 3.5251 21.8126 3.29106 21.5273C3.05758 21.2415 2.96608 20.8698 3.04008 20.5107C3.51258 18.2197 4.20805 14.8467 4.20805 14.8467L4.22856 14.7451H9.52738V14.3574H9.9102C11.2722 14.3574 11.4004 13.2931 11.4004 13.0801C11.4004 12.6546 11.2292 11.8037 9.99516 11.8037C8.67716 11.8037 8.52185 13.1161 8.50785 13.4531H7.57133C7.58283 12.9641 7.78066 10.9531 9.99516 10.9531ZM15.9961 14.7451V18.7959H16.9864V14.7451H15.9961Z" fill="#2B5678"/>
</svg>
