<svg width="38" height="58" viewBox="0 0 38 58" fill="none" xmlns="http://www.w3.org/2000/svg">
<g clip-path="url(#clip0_8813_4886)">
<path d="M36.8538 26.9253V51.6936C36.8538 52.5811 36.5482 53.2004 36.0736 53.4471L31.5586 55.7957C32.0063 55.5357 32.2879 54.9324 32.2879 54.0718V29.5019L32.3388 29.5314L36.8538 26.9253Z" fill="#646464"/>
<path d="M36.8545 26.9117V26.9251L32.3395 29.5312L32.2885 29.5017V25.8902C32.2885 24.3137 31.3314 22.4825 30.149 21.7961L25.2988 18.997C25.3149 18.8442 25.339 18.6886 25.3712 18.5305C25.583 17.4687 26.13 16.34 26.87 15.415C26.9156 15.3614 26.9611 15.3077 27.0121 15.2487C27.063 15.1898 27.1113 15.1361 27.1622 15.0825L29.6423 16.5142L29.9104 16.6698L31.0472 17.3266L32.1893 17.9862L34.7177 19.4447C35.8947 20.1257 36.8545 21.9569 36.8545 23.5335V26.917V26.9117Z" fill="#646464"/>
<path d="M25.2989 18.9943C25.248 19.4769 25.2748 19.9112 25.3847 20.241C25.4303 20.3804 25.4812 20.485 25.5402 20.5708C25.6019 20.6566 25.6689 20.7209 25.7359 20.7558C26.3714 21.0909 26.6127 21.8792 26.2722 22.5173C26.0416 22.9597 25.5885 23.209 25.122 23.209C24.9182 23.209 24.7064 23.1608 24.5133 23.0535C24.0763 22.8256 23.7063 22.4932 23.4087 22.0696C23.1969 21.7639 23.0253 21.418 22.9073 21.04C22.6258 20.1901 22.5937 19.1364 22.8162 18.0103C22.8457 17.8682 22.8779 17.7261 22.9154 17.584C23.2559 16.2461 23.9289 14.9136 24.8378 13.7822C24.8485 13.7634 24.8646 13.7473 24.8807 13.7285C24.9316 13.6669 24.9879 13.5972 25.0442 13.5355C26.4143 11.9349 28.0632 11.0581 29.578 11.1252C30.5915 11.1734 31.4655 11.6533 32.0447 12.4791C32.9375 13.7473 33.0313 15.667 32.302 17.7368C32.2752 17.8173 32.2431 17.8923 32.2002 17.9594L32.1894 17.9755L31.0473 17.3159L29.9105 16.659L29.9212 16.6403C30.318 15.3721 30.2108 14.3988 29.9132 13.9779C29.7952 13.8143 29.6638 13.7419 29.4547 13.7312C28.9721 13.7098 28.0927 14.0503 27.1596 15.0745C27.1087 15.1308 27.0604 15.1844 27.0095 15.2407C26.9585 15.3024 26.913 15.356 26.8674 15.4069C26.1247 16.3319 25.5804 17.4607 25.3686 18.5224C25.3365 18.6806 25.3123 18.8388 25.2962 18.9889L25.2989 18.9943Z" fill="white"/>
<path d="M13.1717 40.7254L20.3384 44.8651L26.9554 48.683C27.4997 49.002 27.9448 48.6642 27.9448 47.935V32.7919C27.9448 32.0626 27.4997 31.2154 26.9554 30.899L20.4188 27.124L13.169 22.9387L6.77454 19.2495C6.22758 18.9304 5.78252 19.2683 5.78252 19.9975V35.1406C5.78252 35.8698 6.22758 36.7171 6.77454 37.0335L13.169 40.7254H13.1717ZM32.2909 29.529V54.0694C32.2909 54.93 32.0094 55.5333 31.5616 55.7934L31.5509 55.8014L31.5348 55.8094C31.5348 55.8094 31.5295 55.8094 31.5268 55.8148C31.1595 55.9998 30.6876 55.9703 30.1728 55.6727L3.79848 40.4492C2.61878 39.7629 1.65625 37.9343 1.65625 36.3578V11.8174H1.66429L32.2909 29.4995V29.529Z" fill="white"/>
<path d="M32.2909 25.8876V29.4991L1.66429 11.817H1.65625V8.19214C1.65625 7.30468 1.96458 6.68802 2.43914 6.44136C2.43914 6.44136 2.4445 6.436 2.44987 6.436C2.81718 6.251 3.28638 6.28049 3.79848 6.5781L7.09359 8.47902H7.10163C7.0641 8.62112 7.03461 8.75518 7.00511 8.8946C6.7799 10.0207 6.81475 11.0744 7.09627 11.9216C7.21692 12.2996 7.38583 12.6455 7.60033 12.9512C7.89525 13.3721 8.26525 13.7046 8.70227 13.9351C8.89531 14.0397 9.10712 14.0906 9.31089 14.0906C9.77741 14.0906 10.2278 13.8386 10.4638 13.3962C10.8016 12.7608 10.5603 11.9725 9.92487 11.6347C9.8498 11.5972 9.78545 11.5382 9.72915 11.4551C9.66748 11.3693 9.61922 11.2647 9.57364 11.1226C9.46371 10.7875 9.43422 10.3424 9.49053 9.84908L22.9069 17.5949C22.8694 17.737 22.8372 17.8791 22.8077 18.0212C22.5852 19.1473 22.6174 20.2009 22.8989 21.0509C23.0195 21.4289 23.1884 21.7748 23.4003 22.0804C23.6979 22.504 24.0705 22.8365 24.5049 23.0644C24.6979 23.1716 24.9097 23.2199 25.1135 23.2199C25.58 23.2199 26.0331 22.9706 26.2637 22.5282C26.6042 21.8901 26.3629 21.1018 25.7275 20.7667C25.6578 20.7291 25.5907 20.6648 25.5318 20.5817C25.4728 20.4959 25.4218 20.3913 25.3762 20.2519C25.2663 19.9221 25.2395 19.4878 25.2905 19.0052L30.1406 21.8043C31.323 22.4906 32.2802 24.3218 32.2802 25.8984L32.2909 25.8876Z" fill="#373A3A"/>
<path d="M27.9482 44.0203V47.9347C27.9482 48.664 27.5031 49.0018 26.9588 48.6827L20.3418 44.8648V39.7144L27.8007 44.0203H27.9482Z" fill="white"/>
<path d="M27.9482 43.7815V44.0201H27.8007L20.3418 39.7142V34.2876L27.8007 38.5935H27.9482V43.7815Z" fill="white"/>
<path d="M27.9474 37.6311V38.5936H27.8L20.341 34.2877L13.1717 30.1481L5.78516 25.8824V19.9973C5.78516 19.268 6.23022 18.9302 6.77718 19.2492L13.1717 22.9385L20.4215 27.1237L26.9581 30.8988C27.5023 31.2152 27.9474 32.0624 27.9474 32.7917V37.6311Z" fill="#FF4F4F"/>
<path d="M16.3954 8.83824L24.8758 13.734C24.8597 13.7528 24.8436 13.7688 24.8329 13.7876C23.924 14.9164 23.251 16.2516 22.9105 17.5895L9.49414 9.84098C9.51023 9.69888 9.53436 9.55142 9.56385 9.40128C9.77566 8.34223 10.3226 7.21079 11.0599 6.29116C11.1082 6.23486 11.1538 6.17587 11.2074 6.11689C11.2637 6.05254 11.3173 5.99087 11.3709 5.93457L13.8322 7.35557L14.1137 7.51644L15.2639 8.18136L16.3927 8.83556L16.3954 8.83824Z" fill="#646464"/>
<path d="M20.3412 40.7091V44.8648H20.3385L13.1719 40.7252V35.5747L20.3412 39.7144V40.7091Z" fill="white"/>
<path d="M20.3412 34.2876V39.7142L13.1719 35.5746V35.3359V30.1479L20.3412 34.2876Z" fill="white"/>
<path d="M16.2333 3.35275C17.1234 4.62361 17.2199 6.54062 16.4933 8.61582C16.4665 8.69357 16.4317 8.76865 16.3915 8.83567L15.2627 8.18148L14.1125 7.51656C14.5066 6.24838 14.3994 5.27513 14.1018 4.85151C13.9838 4.68796 13.8551 4.61557 13.646 4.60752C13.1687 4.58071 12.2947 4.92122 11.367 5.93469C11.3107 5.99367 11.2571 6.05534 11.2035 6.117C11.1498 6.17867 11.1043 6.23765 11.056 6.29128C10.316 7.21091 9.77173 8.34235 9.55992 9.40139C9.53043 9.55154 9.5063 9.699 9.49021 9.8411C9.43391 10.3344 9.4634 10.7795 9.57333 11.1146C9.61891 11.2567 9.66717 11.3613 9.72884 11.4471C9.78782 11.5329 9.85217 11.5919 9.92456 11.6267C10.56 11.9646 10.8013 12.7528 10.4635 13.3882C10.2275 13.8306 9.7771 14.0827 9.31058 14.0827C9.10681 14.0827 8.895 14.0317 8.70196 13.9271C8.26226 13.6966 7.89494 13.3641 7.60001 12.9432C7.38552 12.6375 7.21393 12.2917 7.09596 11.9136C6.81444 11.0664 6.77959 10.0127 7.0048 8.88662C7.0343 8.7472 7.06379 8.61314 7.10132 8.47372C7.43915 7.12779 8.11479 5.79259 9.02638 4.65578C9.02638 4.65578 9.03978 4.6397 9.04247 4.63702C9.05319 4.62629 9.06123 4.61557 9.07196 4.60484C9.1229 4.53513 9.1792 4.46811 9.23283 4.40644C10.6082 2.81116 12.2679 1.93175 13.772 2.00414C14.7828 2.05508 15.6568 2.53233 16.2333 3.35543V3.35275Z" fill="white"/>
<path d="M13.1717 35.5745V40.725L6.77718 37.0331C6.23022 36.7167 5.78516 35.8695 5.78516 35.1402V31.3115L13.1717 35.5718V35.5745Z" fill="white"/>
<path d="M13.1717 35.336V35.5746L5.78516 31.3143V31.0703V25.8823L13.1717 30.148V35.336Z" fill="white"/>
<path d="M9.07503 4.61023C9.07503 4.61023 9.05626 4.63168 9.04554 4.64241C9.04554 4.64241 9.03213 4.65849 9.02945 4.66118C8.11787 5.7953 7.44222 7.13318 7.1044 8.47911H7.09635L3.80124 6.57551C3.29182 6.28058 2.81994 6.24841 2.45263 6.43341L2.44727 6.42L6.98643 4.05256C7.35911 3.8622 7.83098 3.89437 8.34844 4.19198L9.07235 4.61023H9.07503Z" fill="#646464"/>
<path d="M5.78516 31.314L13.1717 35.5743L20.341 39.714L27.8 44.0199" stroke="#646464" stroke-width="0.670284" stroke-linecap="round" stroke-linejoin="round"/>
<path d="M13.1719 30.1479V35.3359V35.5746V40.725V40.7331" stroke="#646464" stroke-width="0.670284" stroke-linecap="round" stroke-linejoin="round"/>
<path d="M20.3418 34.2876V39.7142V40.7089V44.8647" stroke="#646464" stroke-width="0.670284" stroke-linecap="round" stroke-linejoin="round"/>
<path d="M25.2539 18.9678L25.2995 18.9946L30.1497 21.7937C31.332 22.4801 32.2892 24.3113 32.2892 25.8878V54.0719C32.2892 54.9325 32.0077 55.5358 31.5599 55.7958" stroke="#3A3A3A" stroke-width="0.670284" stroke-linecap="round" stroke-linejoin="round"/>
<path d="M1.66211 11.8174L32.2887 29.4995L32.3397 29.529L36.852 26.9256L36.8815 26.9095" stroke="#3A3A3A" stroke-width="0.670284" stroke-linecap="round" stroke-linejoin="round"/>
<path d="M2.44727 6.42L6.98643 4.05256C7.3591 3.8622 7.83098 3.89437 8.34844 4.19198L9.07235 4.61023" stroke="#3A3A3A" stroke-width="0.670284" stroke-linecap="round" stroke-linejoin="round"/>
<path d="M11.375 5.93457L13.8363 7.35557L14.1178 7.51912L15.268 8.18404L16.3994 8.83824L24.8799 13.734" stroke="#3A3A3A" stroke-width="0.670284" stroke-linecap="round" stroke-linejoin="round"/>
<path d="M2.44141 6.43892C2.44141 6.43892 2.44677 6.43356 2.45213 6.43356C2.81945 6.24856 3.28864 6.27805 3.80074 6.57566L7.09586 8.47658" stroke="#3A3A3A" stroke-width="0.670284" stroke-linecap="round" stroke-linejoin="round"/>
<path d="M27.1512 15.0747H27.1592L29.6392 16.5091L29.9074 16.6646L31.0442 17.3215L32.1863 17.981L34.7146 19.4395C35.8917 20.1206 36.8515 21.9518 36.8515 23.5283V51.6936C36.8515 52.5811 36.5459 53.2004 36.0713 53.4471L31.5563 55.7957L31.5455 55.8038L31.5294 55.8118C31.5294 55.8118 31.5241 55.8118 31.5214 55.8172C31.1541 56.0022 30.6822 55.9727 30.1674 55.6751L3.79848 40.4489C2.61878 39.7625 1.65625 37.934 1.65625 36.3575V8.19219C1.65625 7.30473 1.96458 6.68807 2.43914 6.44141" stroke="#3A3A3A" stroke-width="0.670284" stroke-linecap="round" stroke-linejoin="round"/>
<path d="M9.49414 9.84082L22.9105 17.5893" stroke="#3A3A3A" stroke-width="0.670284" stroke-linecap="round" stroke-linejoin="round"/>
<path d="M29.92 16.6456C30.3168 15.3774 30.2095 14.4042 29.9119 13.9833C29.794 13.8197 29.6626 13.7473 29.4535 13.7366C28.9709 13.7151 28.0914 14.0556 27.1584 15.0798C27.1075 15.1361 27.0592 15.1898 27.0083 15.2461C26.9573 15.3077 26.9117 15.3614 26.8662 15.4123C26.1235 16.3373 25.5792 17.466 25.3674 18.5278C25.3352 18.686 25.3111 18.8441 25.295 18.9943C25.2441 19.4769 25.2709 19.9112 25.3808 20.241C25.4264 20.3804 25.4773 20.485 25.5363 20.5708C25.598 20.6566 25.665 20.7209 25.732 20.7558C26.3675 21.0909 26.6088 21.8792 26.2683 22.5173C26.0377 22.9597 25.5846 23.209 25.1181 23.209C24.9143 23.209 24.7025 23.1608 24.5094 23.0535C24.0724 22.8256 23.7024 22.4932 23.4048 22.0696C23.193 21.7639 23.0214 21.418 22.9034 21.04C22.6219 20.1901 22.5898 19.1364 22.8123 18.0103C22.8418 17.8682 22.8739 17.7261 22.9115 17.584C23.252 16.2461 23.925 14.9136 24.8339 13.7822C24.8446 13.7634 24.8607 13.7473 24.8768 13.7285C24.9277 13.6669 24.984 13.5972 25.0403 13.5355C26.4104 11.9349 28.0593 11.0581 29.5741 11.1252C30.5876 11.1734 31.4616 11.6533 32.0407 12.4791C32.9336 13.7473 33.0274 15.667 32.2981 17.7368C32.2713 17.8173 32.2392 17.8923 32.1963 17.9594" stroke="#3A3A3A" stroke-width="0.670284" stroke-linecap="round" stroke-linejoin="round"/>
<path d="M14.1125 7.51924C14.5066 6.25106 14.3994 5.27781 14.1018 4.85419C13.9838 4.69064 13.8551 4.61825 13.646 4.61021C13.1687 4.58339 12.2947 4.9239 11.367 5.93737C11.3107 5.99635 11.2571 6.05802 11.2035 6.11969C11.1498 6.18135 11.1043 6.24034 11.056 6.29396C10.316 7.21359 9.77173 8.34503 9.55992 9.40408C9.53043 9.55422 9.5063 9.70168 9.49021 9.84378C9.43391 10.3371 9.4634 10.7822 9.57333 11.1173C9.61891 11.2594 9.66717 11.364 9.72884 11.4498C9.78782 11.5356 9.85217 11.5946 9.92456 11.6294C10.56 11.9672 10.8013 12.7555 10.4635 13.3909C10.2275 13.8333 9.7771 14.0853 9.31058 14.0853C9.10681 14.0853 8.895 14.0344 8.70196 13.9298C8.26226 13.6993 7.89494 13.3668 7.60001 12.9459C7.38552 12.6402 7.21393 12.2943 7.09596 11.9163C6.81444 11.0691 6.77959 10.0154 7.0048 8.8893C7.0343 8.74988 7.06379 8.61582 7.10132 8.4764C7.43915 7.13047 8.11479 5.79527 9.02638 4.65847C9.02638 4.65847 9.03978 4.64238 9.04247 4.6397C9.05319 4.62897 9.06123 4.61825 9.07196 4.60752C9.1229 4.53782 9.1792 4.47079 9.23283 4.40912C10.6082 2.81116 12.2679 1.93175 13.772 2.00414C14.7828 2.05508 15.6568 2.53233 16.2333 3.35543C17.1234 4.62629 17.2199 6.5433 16.4933 8.6185C16.4665 8.69626 16.4317 8.77133 16.3915 8.83836" stroke="#3A3A3A" stroke-width="0.670284" stroke-linecap="round" stroke-linejoin="round"/>
<path d="M27.9467 38.5936V47.9347C27.9467 48.664 27.5016 49.0018 26.9574 48.6827L20.3403 44.8648L13.1736 40.7251L6.77913 37.0332C6.23218 36.7168 5.78711 35.8696 5.78711 35.1403V19.9973C5.78711 19.268 6.23218 18.9302 6.77913 19.2492L13.1736 22.9385L20.4234 27.1237L26.96 30.8988C27.5043 31.2152 27.9494 32.0624 27.9494 32.7917V38.5936H27.9467Z" stroke="#3A3A3A" stroke-width="0.670284" stroke-linecap="round" stroke-linejoin="round"/>
<path d="M5.78516 25.8823L13.1717 30.148L20.341 34.2877L27.8 38.5936" stroke="#3A3A3A" stroke-width="0.670284" stroke-linecap="round" stroke-linejoin="round"/>
<path d="M9.75195 24.2549L23.7716 32.3492" stroke="#3A3A3A" stroke-width="0.670284" stroke-linecap="round" stroke-linejoin="round"/>
<path d="M22.0566 29.8345L23.7752 32.3494L22.0566 32.8802" stroke="#3A3A3A" stroke-width="0.670284" stroke-linecap="round" stroke-linejoin="round"/>
</g>
<defs>
<clipPath id="clip0_8813_4886">
<rect width="37.6294" height="57.238" fill="white"/>
</clipPath>
</defs>
</svg>
