<svg width="26" height="26" viewBox="0 0 26 26" fill="none" xmlns="http://www.w3.org/2000/svg">
<path fill-rule="evenodd" clip-rule="evenodd" d="M11.2395 5.20787C10.0193 3.0215 7.06209 2.88828 5.30969 4.64069C4.37233 5.57804 3.53946 6.82441 3.48393 8.28906C3.40165 10.4596 3.96217 14.0636 7.53129 17.6327C11.1004 21.2019 14.7044 21.7624 16.8749 21.6801C18.3396 21.6245 19.5859 20.7916 20.5233 19.8543C22.2757 18.1019 22.1425 15.1447 19.9561 13.9246L18.7432 13.2475C17.3154 12.4507 15.514 12.7903 14.3332 13.9567C14.3119 13.9723 14.192 14.0546 13.9823 14.0648C13.7148 14.0779 13.0966 13.9827 12.1389 13.025C11.181 12.0671 11.0861 11.4488 11.0991 11.1814C11.1093 10.972 11.1917 10.852 11.2073 10.8307C12.3737 9.65007 12.7132 7.84863 11.9165 6.42087L11.2395 5.20787ZM6.41601 5.74702C7.56946 4.59357 9.24846 4.85078 9.87327 5.97035L10.5503 7.18335C10.9713 7.9379 10.8277 8.9978 10.0837 9.74183C10.011 9.81448 9.57684 10.2793 9.53641 11.1049C9.49503 11.9502 9.87462 12.9734 11.0327 14.1314C12.1903 15.289 13.2132 15.6688 14.0584 15.6277C14.8838 15.5875 15.3488 15.1536 15.422 15.0806C16.166 14.3366 17.2261 14.1926 17.9807 14.6138L19.1937 15.2908C20.3132 15.9155 20.5704 17.5946 19.417 18.748C18.6083 19.5568 17.7156 20.0825 16.8157 20.1166C15.0056 20.1852 11.8496 19.7383 8.63762 16.5264C5.42566 13.3145 4.97878 10.1584 5.0474 8.34834C5.08152 7.44841 5.60728 6.55575 6.41601 5.74702Z" fill="#FF4F4F"/>
<path d="M16.7746 4.47852C16.3425 4.47852 15.9923 4.82875 15.9923 5.26081C15.9923 5.69285 16.3425 6.0431 16.7746 6.0431H18.0151L15.1783 8.87987C14.8729 9.18537 14.8729 9.68069 15.1783 9.9862C15.4838 10.2917 15.9791 10.2917 16.2846 9.9862L19.1214 7.14943V8.38998C19.1214 8.82202 19.4717 9.17227 19.9037 9.17227C20.3358 9.17227 20.686 8.82202 20.686 8.38998V5.26081C20.686 4.82875 20.3358 4.47852 19.9037 4.47852H16.7746Z" fill="#FF4F4F"/>
</svg>
