<svg width="54" height="50" viewBox="0 0 54 50" fill="none" xmlns="http://www.w3.org/2000/svg">
<g clip-path="url(#clip0_8813_4838)">
<path d="M23.3052 1.61675C34.2529 -4.73969 53.1807 15.2433 53.1496 33.1189C53.1496 42.5361 46.1538 45.5206 42.0039 47.9053C42.6021 47.4568 43.1452 46.9393 43.622 46.3636C51.209 37.3112 42.7536 14.6804 28.9686 6.70585C24.2359 3.97601 19.9445 3.67615 16.7988 5.37346L23.3052 1.61109V1.61675Z" fill="#C2C7CC"/>
<path d="M42.0031 47.9077C31.7655 55.5286 11.4911 35.6078 11.4883 16.8016C11.4883 11.226 13.4685 7.33628 16.6113 5.4862C16.6736 5.44943 16.7358 5.41265 16.8009 5.37871C19.9579 3.6814 24.2379 3.96428 28.9649 6.70827C42.75 14.6743 51.2054 37.3165 43.6184 46.366C43.1416 46.9417 42.5984 47.4592 42.0003 47.9077H42.0031ZM30.2181 36.1114C34.5972 37.8511 34.9027 32.9629 33.4685 29.919C31.7118 26.1906 27.5081 24.3037 27.5081 22.0633C27.5081 21.1835 28.17 21.2825 28.8348 21.6672C29.8872 22.2726 31.6014 24.0633 32.9451 25.8568C32.9461 25.8502 32.9461 25.8435 32.9451 25.837L34.1898 23.0675C33.097 21.4909 31.7568 20.101 30.221 18.9515V15.4211C28.4586 14.4028 27.9579 14.1114 27.8334 14.0378V17.588C25.5703 16.7705 24.0512 17.6984 24.0512 20.4706C24.0512 26.4876 30.7613 28.6149 30.7641 31.5032C30.7641 33.8455 26.9055 30.796 24.5406 26.7168L23.2535 29.4438C24.4468 31.458 26.0002 33.2358 27.8362 34.6885V38.4226L30.2577 39.8172L30.2181 36.1114Z" fill="white"/>
<path d="M33.4675 29.9235C34.9017 32.9674 34.599 37.8443 30.2171 36.1159V39.8245L27.7956 38.4299V34.6958C25.9596 33.2431 24.4062 31.4654 23.2129 29.4511L24.5 26.7241C26.8678 30.8033 30.7235 33.8528 30.7235 31.5105C30.7235 28.6194 24.0135 26.4921 24.0106 20.478C24.0106 17.7057 25.5382 16.7779 27.7928 17.5954V14.0254C27.9144 14.0989 28.418 14.3903 30.1804 15.4087V18.9561C31.7353 20.1047 33.0929 21.4987 34.2002 23.0834L32.9555 25.8528C32.9564 25.8594 32.9564 25.8661 32.9555 25.8726C31.6118 24.0791 29.8975 22.2885 28.8451 21.6831C28.1804 21.2984 27.5156 21.1994 27.5184 22.0791C27.5071 24.3083 31.7108 26.1951 33.4675 29.9235Z" fill="#5F646B"/>
<path d="M42.0031 47.9112C31.7655 55.5322 11.4911 35.6114 11.4883 16.8052C11.4883 11.2295 13.4487 7.31153 16.6113 5.48975" stroke="#373A3A" stroke-width="0.848656" stroke-linecap="round" stroke-linejoin="round"/>
<path d="M16.7988 5.37159C19.9445 3.66013 24.2359 3.95716 28.9629 6.70115C42.7479 14.6672 51.2034 37.3094 43.6164 46.3589C43.1395 46.9346 42.5964 47.4521 41.9983 47.9006" stroke="#373A3A" stroke-width="0.848656" stroke-linecap="round" stroke-linejoin="round"/>
<path d="M32.9559 25.8528C32.9568 25.8594 32.9568 25.8661 32.9559 25.8726C31.6122 24.0791 29.8979 22.2885 28.8455 21.6831C28.1808 21.2984 27.516 21.1994 27.5188 22.0791C27.5188 24.3083 31.7225 26.1951 33.4792 29.9235C34.9134 32.9674 34.6107 37.8443 30.2289 36.1159V39.8245L27.8074 38.4299V34.6958C25.9713 33.2431 24.418 31.4654 23.2246 29.4511L24.5117 26.7241C26.8795 30.8033 30.7352 33.8528 30.7352 31.5105C30.7352 28.6194 24.0252 26.4921 24.0223 20.478C24.0223 17.7057 25.5499 16.7779 27.8045 17.5954V14.0254C27.9262 14.0989 28.4297 14.3903 30.1921 15.4087V18.9561C31.743 20.1057 33.0968 21.4996 34.2006 23.0834C33.3236 25.0409 33.0492 25.6463 32.9728 25.8076" stroke="#373A3A" stroke-width="0.848656" stroke-linecap="round" stroke-linejoin="round"/>
<path d="M41.3426 48.2972C41.5548 48.1671 41.7726 48.0398 42.0017 47.9096C46.1517 45.5249 53.1418 42.5348 53.1474 33.1232C53.1814 15.2449 34.2761 -4.69857 23.3058 1.61826L23.1191 1.73142" stroke="#373A3A" stroke-width="0.848656" stroke-linecap="round" stroke-linejoin="round"/>
<path d="M16.6094 5.48022C16.6716 5.44345 16.7338 5.40667 16.7989 5.37273L23.3053 1.61035" stroke="#373A3A" stroke-width="0.848656" stroke-linecap="round" stroke-linejoin="round"/>
<path d="M7.8524 37.1597C7.39834 36.8645 7.02047 36.4661 6.74959 35.9972C6.47872 35.5282 6.32251 35.0018 6.2937 34.461C6.2937 33.468 6.9896 33.0635 7.8524 33.5614C8.30599 33.8571 8.6835 34.2556 8.95431 34.7245C9.22513 35.1933 9.38162 35.7194 9.4111 36.2601C9.4111 37.253 8.71237 37.6576 7.8524 37.1597ZM0.423828 26.2573V38.5204C0.423828 39.7736 1.18479 41.2276 2.12114 41.7707L13.578 48.3733C13.7388 48.4867 13.9271 48.5547 14.1232 48.5701C14.3194 48.5856 14.5161 48.5478 14.6926 48.461H14.718C15.0631 48.2431 15.2838 47.7679 15.2838 47.1003V34.8344C15.2838 33.5812 14.52 32.1243 13.5865 31.5812L2.1268 24.9702C1.96924 24.86 1.78573 24.7927 1.5943 24.7748C1.40287 24.757 1.21008 24.7892 1.03486 24.8683H1.01223C0.650136 25.089 0.423828 25.5727 0.423828 26.2573Z" fill="#DAE0E5"/>
<path d="M5.41422 22.346L1.03516 24.8666C1.21038 24.7874 1.40316 24.7552 1.5946 24.773C1.78603 24.7909 1.96953 24.8582 2.12709 24.9684L13.5783 31.5794C14.5175 32.1226 15.2756 33.5794 15.2756 34.8326V47.0957C15.2756 47.7633 15.0578 48.2272 14.7098 48.4564L20.8258 44.926C21.1879 44.7166 21.4142 44.2357 21.4142 43.5483V31.2852C21.4142 30.032 20.6533 28.5752 19.7169 28.0349L16.1243 25.9528V28.8185C16.1144 28.9264 16.0759 29.0297 16.0127 29.1177C15.9496 29.2057 15.8641 29.2753 15.765 29.3192C15.497 29.4544 15.201 29.5249 14.9008 29.5249C14.6006 29.5249 14.3046 29.4544 14.0366 29.3192C13.9375 29.2753 13.852 29.2057 13.7888 29.1177C13.7257 29.0297 13.6872 28.9264 13.6773 28.8185V24.5412L8.27419 21.4295C8.14603 21.3541 8.00797 21.297 7.86401 21.2598V24.0434C7.85014 24.1464 7.81046 24.2442 7.74863 24.3278C7.68681 24.4114 7.60486 24.478 7.5104 24.5214C7.24191 24.6567 6.94543 24.7272 6.64477 24.7272C6.34411 24.7272 6.04764 24.6567 5.77914 24.5214C5.6831 24.4791 5.59943 24.413 5.53607 24.3294C5.47271 24.2457 5.43174 24.1473 5.41705 24.0434L5.41422 22.346Z" fill="#FF4F4F"/>
<path d="M5.41406 22.3494V24.0467C5.42793 24.1497 5.46762 24.2476 5.52944 24.3312C5.59126 24.4148 5.67321 24.4814 5.76767 24.5248C6.03617 24.6601 6.33264 24.7306 6.6333 24.7306C6.93396 24.7306 7.23043 24.6601 7.49893 24.5248C7.59392 24.4817 7.67644 24.4153 7.73877 24.3317C7.80111 24.2481 7.84122 24.15 7.85536 24.0467V15.4526C7.85536 14.6577 8.08167 14.0552 8.45508 13.8402C8.82849 13.6252 9.46215 13.7299 10.1524 14.1231C12.059 15.2235 13.6687 18.0128 13.6687 20.2164V28.8162C13.6785 28.924 13.717 29.0274 13.7802 29.1154C13.8433 29.2034 13.9289 29.273 14.0279 29.3169C14.2959 29.4521 14.5919 29.5226 14.8921 29.5226C15.1923 29.5226 15.4884 29.4521 15.7564 29.3169C15.8562 29.2746 15.943 29.2064 16.0076 29.1194C16.0723 29.0324 16.1125 28.9296 16.1241 28.8218V20.2221C16.1241 17.15 14.0392 13.5432 11.3829 12.0184C9.90628 11.1698 8.39568 11.0623 7.2415 11.7355C6.08733 12.4088 5.41972 13.7638 5.41972 15.4668L5.41406 22.3494Z" fill="#5F646B"/>
<path d="M6.29297 34.4613C6.32178 35.0022 6.47799 35.5285 6.74886 35.9975C7.01974 36.4665 7.39761 36.8649 7.85167 37.1601C8.70032 37.6579 9.41037 37.2534 9.41037 36.2605C9.38089 35.7198 9.22439 35.1937 8.95358 34.7248C8.68277 34.2559 8.30526 33.8575 7.85167 33.5618C6.98887 33.0639 6.29297 33.4684 6.29297 34.4613Z" fill="#5F646B"/>
<path d="M14.7098 48.4581C15.055 48.2403 15.2756 47.7651 15.2756 47.0975V34.8344C15.2756 33.5812 14.5118 32.1243 13.5783 31.5812L2.12709 24.9702C1.96953 24.86 1.78603 24.7927 1.5946 24.7748C1.40316 24.757 1.21038 24.7892 1.03516 24.8683" stroke="#373A3A" stroke-width="0.848656" stroke-linecap="round" stroke-linejoin="round"/>
<path d="M1.01223 24.895C0.650136 25.0902 0.423828 25.5739 0.423828 26.2585V38.5216C0.423828 39.7748 1.18479 41.2288 2.12114 41.772L13.578 48.3745C13.7388 48.4879 13.9271 48.5559 14.1232 48.5714C14.3194 48.5868 14.516 48.5491 14.6926 48.4622" stroke="#373A3A" stroke-width="0.848656" stroke-linecap="round" stroke-linejoin="round"/>
<path d="M6.29297 34.4613C6.29297 33.4684 6.98887 33.0639 7.85167 33.5618C8.30526 33.8575 8.68277 34.2559 8.95358 34.7248C9.22439 35.1937 9.38089 35.7198 9.41037 36.2605C9.41037 37.2534 8.71164 37.6579 7.85167 37.1601C7.39761 36.8649 7.01974 36.4665 6.74886 35.9975C6.47799 35.5285 6.32178 35.0022 6.29297 34.4613Z" stroke="#373A3A" stroke-width="0.848656" stroke-linecap="round" stroke-linejoin="round"/>
<path d="M7.85352 37.1587V40.0441" stroke="#373A3A" stroke-width="0.848656" stroke-linecap="round" stroke-linejoin="round"/>
<path d="M14.6914 48.4742L20.8328 44.9297C21.1949 44.7203 21.4213 44.2394 21.4213 43.552V31.2889C21.4213 30.0358 20.6603 28.5789 19.7239 28.0386L16.1228 25.9565" stroke="#373A3A" stroke-width="0.848656" stroke-linecap="round" stroke-linejoin="round"/>
<path d="M13.6707 24.5412L8.26761 21.4295C8.13944 21.3541 8.00138 21.297 7.85742 21.2598" stroke="#373A3A" stroke-width="0.848656" stroke-linecap="round" stroke-linejoin="round"/>
<path d="M5.41537 22.3408L1.01367 24.8811" stroke="#373A3A" stroke-width="0.848656" stroke-linecap="round" stroke-linejoin="round"/>
<path d="M5.41406 22.3446V15.4478C5.41406 13.7505 6.07601 12.3842 7.23584 11.7166C8.39568 11.049 9.90063 11.1508 11.3773 11.9995C14.0336 13.5384 16.1241 17.1451 16.1241 20.2173V28.817C16.1142 28.9249 16.0757 29.0282 16.0126 29.1162C15.9494 29.2043 15.8639 29.2738 15.7648 29.3177C15.4968 29.453 15.2008 29.5234 14.9006 29.5234C14.6004 29.5234 14.3044 29.453 14.0364 29.3177C13.9374 29.2738 13.8518 29.2043 13.7887 29.1162C13.7255 29.0282 13.687 28.9249 13.6771 28.817V20.2173C13.6771 18.0136 12.0675 15.2244 10.1609 14.1239C9.47064 13.7251 8.83698 13.6176 8.46357 13.841C8.09016 14.0645 7.86385 14.6586 7.86385 15.4535V24.0419C7.84999 24.1449 7.8103 24.2428 7.74847 24.3264C7.68665 24.41 7.6047 24.4765 7.51024 24.52C7.24175 24.6553 6.94527 24.7257 6.64461 24.7257C6.34396 24.7257 6.04748 24.6553 5.77898 24.52C5.68294 24.4777 5.59927 24.4116 5.53591 24.3279C5.47255 24.2443 5.43158 24.1458 5.41689 24.0419L5.41406 22.3446Z" stroke="#373A3A" stroke-width="0.848656" stroke-linecap="round" stroke-linejoin="round"/>
</g>
<defs>
<clipPath id="clip0_8813_4838">
<rect width="53.5757" height="50" fill="white"/>
</clipPath>
</defs>
</svg>
