<svg width="32" height="53" viewBox="0 0 32 53" fill="none" xmlns="http://www.w3.org/2000/svg">
<path d="M23.1535 23.5358C24.0229 22.0643 24.5595 20.3888 24.5595 18.8775C24.5595 15.9109 22.474 14.7041 19.9034 16.1874C17.3329 17.6707 15.2497 21.284 15.2497 24.2529C15.2497 25.7619 15.791 26.8305 16.6557 27.2991C17.5203 27.7678 18.6381 27.6764 19.9011 26.9453C21.1641 26.2142 22.317 24.9652 23.1535 23.5358ZM8.42383 44.8313V19.0251C8.42383 17.4199 9.39862 15.5547 10.6054 14.8564L29.2061 4.11965C30.4129 3.41667 31.3877 4.16183 31.3877 5.75993V36.9088C31.3877 38.5163 30.4129 40.3815 29.2061 41.0751L10.6054 51.8165C9.39862 52.5195 8.42383 51.772 8.42383 50.1646V44.8313Z" fill="white"/>
<path d="M27.9617 4.83645L10.6053 14.8562C9.39849 15.5592 8.4237 17.4197 8.4237 19.0248V24.8174C7.87179 25.056 7.29131 25.2222 6.69672 25.3118C5.8426 25.4438 4.97326 25.4438 4.11914 25.3118V16.7261C4.12617 15.2358 5.02364 13.5252 6.13434 12.8926L23.2682 2.99232C23.7697 2.69941 24.2313 2.68301 24.5828 2.88687L27.9617 4.83645Z" fill="#DAE0E5"/>
<path d="M25.3315 3.31326L24.584 2.88679C24.2325 2.68293 23.7708 2.69933 23.2694 2.99224L6.13553 12.8925C5.02483 13.5252 4.12736 15.2357 4.12736 16.726V25.3117C3.52066 25.227 2.92803 25.0615 2.36523 24.8196V15.5263C2.36523 13.9188 3.34003 12.0536 4.54446 11.36L23.1499 0.616181C24.352 -0.086795 25.3315 0.660702 25.3315 2.26817V3.31326Z" fill="#FF4F4F"/>
<path d="M24.5633 18.8771C24.5633 20.3885 24.0243 22.0639 23.1573 23.5355C22.8661 23.0954 22.4831 22.7236 22.0345 22.4457C21.5858 22.1678 21.0824 21.9904 20.5586 21.9256C20.8292 21.5519 20.9848 21.1072 21.0062 20.6462C21.0062 19.9432 20.5141 19.6597 19.9072 20.0112C19.5879 20.22 19.3222 20.501 19.1317 20.8316C18.9412 21.1622 18.8312 21.5329 18.8106 21.9139C18.8106 22.3287 18.9863 22.5982 19.2581 22.6731C18.1726 24.0781 17.2979 25.634 16.6618 27.2917C15.7925 26.823 15.2559 25.7615 15.2559 24.2455C15.2559 21.2766 17.339 17.668 19.9119 16.18C22.4848 14.692 24.5633 15.9105 24.5633 18.8771Z" fill="#DAE0E5"/>
<path d="M20.557 21.9258C21.0803 21.9908 21.5833 22.1684 22.0315 22.4463C22.4797 22.7242 22.8624 23.0958 23.1533 23.5356C22.3168 24.965 21.1686 26.2046 19.9056 26.938C18.6425 27.6714 17.499 27.7488 16.6602 27.2918C17.2963 25.6342 18.1709 24.0783 19.2565 22.6733C19.4811 22.718 19.7142 22.6725 19.9056 22.5467C20.1626 22.3861 20.3842 22.1748 20.557 21.9258Z" fill="#FF4F4F"/>
<path d="M21.0062 20.6463C20.9848 21.1072 20.8292 21.5519 20.5586 21.9257C20.3858 22.1747 20.1642 22.386 19.9072 22.5467C19.7158 22.6725 19.4827 22.7179 19.2581 22.6732C18.9863 22.6006 18.8105 22.3287 18.8105 21.914C18.8311 21.533 18.9411 21.1622 19.1317 20.8317C19.3222 20.5011 19.5879 20.22 19.9072 20.0113C20.5141 19.6598 21.0062 19.9456 21.0062 20.6463Z" fill="white"/>
<path d="M8.42408 44.8311V49.1192L4.82016 47.0384C4.39135 46.7924 4.11719 46.2229 4.11719 45.4122V45.3255C4.9715 45.455 5.84045 45.455 6.69477 45.3255C7.29023 45.2365 7.87156 45.0702 8.42408 44.8311Z" fill="#DAE0E5"/>
<path d="M8.42369 38.1621V44.831C7.87158 45.0676 7.29106 45.2314 6.69672 45.3184C5.84241 45.4479 4.97345 45.4479 4.11914 45.3184V38.6518C4.97326 38.7839 5.8426 38.7839 6.69672 38.6518C7.29116 38.5641 7.87168 38.3995 8.42369 38.1621Z" fill="#DAE0E5"/>
<path d="M8.42369 31.4883V38.1619C7.87135 38.3968 7.29084 38.5591 6.69672 38.6446C5.8426 38.7766 4.97326 38.7766 4.11914 38.6446V31.9804C4.97353 32.1088 5.84232 32.1088 6.69672 31.9804C7.29072 31.8894 7.87093 31.724 8.42369 31.4883Z" fill="#DAE0E5"/>
<path d="M8.42369 24.8174V31.4886C7.87072 31.7228 7.29052 31.8865 6.69672 31.976C5.84232 32.1045 4.97353 32.1045 4.11914 31.976V25.3118C4.97326 25.4438 5.8426 25.4438 6.69672 25.3118C7.29131 25.2222 7.87179 25.0561 8.42369 24.8174Z" fill="#DAE0E5"/>
<path d="M5.79107 47.5961L4.54446 48.3178C3.34003 49.0208 2.36523 48.2756 2.36523 46.6775V44.8428C2.92889 45.0822 3.52119 45.2476 4.12736 45.3349V45.4216C4.12736 46.2323 4.39215 46.8017 4.83034 47.0478L5.79107 47.5961Z" fill="#FF4F4F"/>
<path d="M4.12736 38.6518V45.3254C3.52119 45.2382 2.92889 45.0728 2.36523 44.8333V38.1621C2.929 38.4008 3.5213 38.5654 4.12736 38.6518Z" fill="#FF4F4F"/>
<path d="M4.12736 31.9804V38.6516C3.5213 38.5651 2.929 38.4005 2.36523 38.1619V31.4883C2.92889 31.7277 3.52119 31.8931 4.12736 31.9804Z" fill="#FF4F4F"/>
<path d="M4.12736 25.3117V31.9853C3.52119 31.8981 2.92889 31.7327 2.36523 31.4932V24.8149C2.9278 25.0585 3.52044 25.2255 4.12736 25.3117Z" fill="#FF4F4F"/>
<path d="M5.79107 47.596L4.54446 48.3178C3.34003 49.0207 2.36523 48.2756 2.36523 46.6775V15.5263C2.36523 13.9188 3.34003 12.0536 4.54446 11.36L23.1499 0.616181C24.352 -0.086795 25.3315 0.660702 25.3315 2.26817V3.31326" stroke="#373A3A" stroke-width="0.702976" stroke-linecap="round" stroke-linejoin="round"/>
<path d="M27.9619 4.83668L29.2061 4.11965C30.4129 3.41667 31.3877 4.16183 31.3877 5.75993V36.9088C31.3877 38.5162 30.4129 40.3815 29.2061 41.0751L10.6054 51.8165C9.39862 52.5195 8.42383 51.772 8.42383 50.1646V19.0251C8.42383 17.4199 9.39862 15.5547 10.6054 14.8564L27.9619 4.83668Z" stroke="#373A3A" stroke-width="0.702976" stroke-linecap="round" stroke-linejoin="round"/>
<path d="M23.1557 23.5356C24.0227 22.0617 24.5617 20.3886 24.5617 18.8772C24.5617 15.9107 22.4762 14.7039 19.9057 16.1872C17.3351 17.6705 15.252 21.2838 15.252 24.2527C15.252 25.7617 15.7932 26.8302 16.6579 27.2989C17.5226 27.7675 18.6403 27.6761 19.9033 26.945C21.1663 26.214 22.3169 24.965 23.1557 23.5356Z" stroke="#373A3A" stroke-width="0.702976" stroke-linecap="round" stroke-linejoin="round"/>
<path d="M20.5586 21.9256C20.8306 21.5526 20.9863 21.1075 21.0062 20.6462C21.0062 19.9432 20.5141 19.6597 19.9072 20.0112C19.5879 20.22 19.3222 20.501 19.1317 20.8316C18.9411 21.1622 18.8311 21.5329 18.8105 21.9139C18.8105 22.3287 18.9863 22.6005 19.2581 22.6731C19.4827 22.7178 19.7158 22.6724 19.9072 22.5466C20.1647 22.3865 20.3864 22.1752 20.5586 21.9256Z" stroke="#373A3A" stroke-width="0.702976" stroke-linecap="round" stroke-linejoin="round"/>
<path d="M19.2565 22.6733C18.1709 24.0783 17.2963 25.6342 16.6602 27.2919" stroke="#373A3A" stroke-width="0.702976" stroke-linecap="round" stroke-linejoin="round"/>
<path d="M20.5586 21.9258C21.0819 21.9908 21.5849 22.1684 22.0331 22.4463C22.4813 22.7242 22.864 23.0958 23.1549 23.5356" stroke="#373A3A" stroke-width="0.702976" stroke-linecap="round" stroke-linejoin="round"/>
<path d="M10.4307 29.2413C10.3932 30.1294 9.64572 30.9589 8.42488 31.4885C7.87191 31.7226 7.2917 31.8864 6.69791 31.9759C5.84351 32.1043 4.97472 32.1043 4.12033 31.9759C3.5141 31.889 2.92175 31.7235 2.3582 31.4838C1.48886 31.1065 0.828061 30.5652 0.525781 29.9161C-0.0225399 28.7445 0.760106 27.5331 2.3582 26.8418" stroke="#373A3A" stroke-width="0.702976" stroke-linecap="round" stroke-linejoin="round"/>
<path d="M10.4237 22.6236C10.3581 23.4929 9.61994 24.299 8.42488 24.8169C7.87337 25.0566 7.29274 25.2229 6.69791 25.3113C5.8436 25.4409 4.97464 25.4409 4.12033 25.3113C3.51433 25.2233 2.92212 25.0579 2.3582 24.8192C1.4912 24.4396 0.828061 23.9054 0.525781 23.2516C-0.0225399 22.08 0.760106 20.8708 2.3582 20.1772" stroke="#373A3A" stroke-width="0.702976" stroke-linecap="round" stroke-linejoin="round"/>
<path d="M10.4307 35.8422C10.4307 36.7584 9.67618 37.616 8.42488 38.162C7.87219 38.396 7.29181 38.5582 6.69791 38.6447C5.84369 38.7754 4.97455 38.7754 4.12033 38.6447C3.51421 38.5586 2.92186 38.3939 2.3582 38.155C1.48886 37.7754 0.828061 37.2364 0.525781 36.5827C-0.0225399 35.411 0.760106 34.2042 2.3582 33.5083" stroke="#373A3A" stroke-width="0.702976" stroke-linecap="round" stroke-linejoin="round"/>
<path d="M10.4284 42.6073C10.3768 43.4884 9.634 44.3038 8.42488 44.831C7.87277 45.0676 7.29225 45.2315 6.69791 45.3184C5.8436 45.448 4.97464 45.448 4.12033 45.3184C3.5141 45.2315 2.92175 45.0661 2.3582 44.8264C1.48886 44.4491 0.828061 43.9055 0.525781 43.254C-0.02254 42.0824 0.760106 40.8709 2.3582 40.1797" stroke="#373A3A" stroke-width="0.702976" stroke-linecap="round" stroke-linejoin="round"/>
<path d="M8.42408 49.1192L4.82016 47.0384C4.39135 46.7924 4.11719 46.223 4.11719 45.4122V16.7261C4.12656 15.2358 5.02403 13.5252 6.13473 12.8926L23.2686 2.99232C23.77 2.69941 24.2317 2.68301 24.5832 2.88687L27.9621 4.83645" stroke="#373A3A" stroke-width="0.702976" stroke-linecap="round" stroke-linejoin="round"/>
</svg>
