<svg width="48" height="52" viewBox="0 0 48 52" fill="none" xmlns="http://www.w3.org/2000/svg">
<g clip-path="url(#clip0_8813_4682)">
<path d="M39.0924 51.5257L46.9695 46.9783L46.2939 44.1128C45.9562 42.6808 45.3293 41.333 44.4516 40.1523C43.5738 38.9715 42.4639 37.9828 41.1899 37.2468L27.9342 29.603L20.0645 34.1407L33.3153 41.8039C34.5891 42.5389 35.699 43.5267 36.5767 44.7067C37.4545 45.8866 38.0815 47.2337 38.4192 48.665L39.0924 51.5257Z" fill="white" stroke="#373A3A" stroke-width="0.729135" stroke-linecap="round" stroke-linejoin="round"/>
<path d="M13.9645 0.364746L4.34961 17.0182L10.0296 13.7395V34.1213L17.8994 29.5788V9.19457L23.5793 5.91589L13.9645 0.364746Z" fill="white" stroke="#373A3A" stroke-width="0.729135" stroke-linecap="round" stroke-linejoin="round"/>
<path d="M0.365234 33.9561V37.0986L16.6517 46.502V43.357L0.365234 33.9561Z" fill="white"/>
<path d="M0.365234 30.9033V33.956L16.6517 43.3569V40.3067L0.365234 30.9033Z" fill="white"/>
<path d="M0.365234 27.7388V30.9032L16.6517 40.3066V37.1397L0.365234 27.7388Z" fill="white"/>
<path d="M0.365234 27.7389L16.6492 37.1423L46.7868 19.7403L30.5028 10.3345L0.365234 27.7389ZM19.6873 25.9793C17.5412 24.7446 17.5412 22.7322 19.6873 21.4951C21.8334 20.258 25.3138 20.258 27.4647 21.4951C29.6157 22.7322 29.6108 24.7446 27.4647 25.9793C25.3187 27.2139 21.8407 27.2212 19.6873 25.9793Z" fill="white"/>
<path d="M16.6523 43.3566V46.5016L46.7972 29.0996V25.9546L16.6523 43.3566Z" fill="#C2C7CC"/>
<path d="M16.6523 40.3068V43.357L46.7972 25.955V22.9048L16.6523 40.3068Z" fill="#C2C7CC"/>
<path d="M16.6523 37.1398V40.3067L46.7972 22.9047V19.7402L16.6523 37.1398Z" fill="#C2C7CC"/>
<path d="M19.6877 21.4947C17.5416 22.7318 17.5416 24.7442 19.6877 25.9789C21.8338 27.2136 25.3142 27.2233 27.4651 25.9789C29.6161 24.7345 29.6112 22.7318 27.4651 21.4947C25.319 20.2576 21.8411 20.2576 19.6877 21.4947Z" fill="#FF4F4F"/>
<path d="M33.954 15.3533L30.5076 13.3604L26.998 15.3898" stroke="#373A3A" stroke-width="0.729135" stroke-linecap="round" stroke-linejoin="round"/>
<path d="M38.1081 17.7495L41.5545 19.7401L38.0449 21.767" stroke="#373A3A" stroke-width="0.729135" stroke-linecap="round" stroke-linejoin="round"/>
<path d="M9.09802 25.7217L5.60547 27.739L9.04942 29.7271" stroke="#373A3A" stroke-width="0.729135" stroke-linecap="round" stroke-linejoin="round"/>
<path d="M20.1464 32.0991L16.6515 34.1164L13.2051 32.1259" stroke="#373A3A" stroke-width="0.729135" stroke-linecap="round" stroke-linejoin="round"/>
<path d="M19.6877 25.9789C17.5416 24.7442 17.5416 22.7318 19.6877 21.4947C21.8338 20.2576 25.3142 20.2576 27.4651 21.4947C29.6161 22.7318 29.6112 24.7442 27.4651 25.9789C25.319 27.2136 21.8411 27.2209 19.6877 25.9789Z" stroke="#373A3A" stroke-width="0.729135" stroke-linecap="round" stroke-linejoin="round"/>
<path d="M16.6517 37.1399L46.7965 19.7403L30.5077 10.3345L0.365234 27.7389L16.6517 37.1399Z" stroke="#373A3A" stroke-width="0.729135" stroke-linecap="round" stroke-linejoin="round"/>
<path d="M46.7965 19.7402V29.0999L16.6517 46.5019L0.365234 37.0985V27.7388" stroke="#373A3A" stroke-width="0.729135" stroke-linecap="round" stroke-linejoin="round"/>
<path d="M46.7965 25.9546L16.6517 43.3566L0.365234 33.9556" stroke="#373A3A" stroke-width="0.729135" stroke-linecap="round" stroke-linejoin="round"/>
<path d="M46.7965 22.9048L16.6517 40.3068L0.365234 30.9034" stroke="#373A3A" stroke-width="0.729135" stroke-linecap="round" stroke-linejoin="round"/>
<path d="M16.6523 37.1421V46.5017" stroke="#373A3A" stroke-width="0.729135" stroke-linecap="round" stroke-linejoin="round"/>
</g>
<defs>
<clipPath id="clip0_8813_4682">
<rect width="47.333" height="51.8852" fill="white"/>
</clipPath>
</defs>
</svg>
