<svg width="25" height="26" viewBox="0 0 25 26" fill="none" xmlns="http://www.w3.org/2000/svg">
<path d="M24.2188 5.77051C24.426 5.77051 24.6247 5.85282 24.7712 5.99933C24.9177 6.14584 25 6.34456 25 6.55176V19.0518C25 19.259 24.9177 19.4577 24.7712 19.6042C24.6247 19.7507 24.426 19.833 24.2188 19.833C24.0115 19.833 23.8128 19.7507 23.6663 19.6042C23.5198 19.4577 23.4375 19.259 23.4375 19.0518V13.9768L13.6453 19.658C12.8328 20.1299 11.7188 19.5908 11.7188 18.5705V13.9768L1.92656 19.658C1.11406 20.1299 0 19.5908 0 18.5705V7.03301C0 6.0127 1.11406 5.47363 1.92656 5.94551L11.7188 11.6268V7.03301C11.7188 6.0127 12.8328 5.47363 13.6453 5.94551L23.4375 11.6268V6.55176C23.4375 6.34456 23.5198 6.14584 23.6663 5.99933C23.8128 5.85282 24.0115 5.77051 24.2188 5.77051ZM1.5625 7.54082V18.0627L10.6312 12.8018L1.5625 7.54082ZM13.2812 7.54082V18.0627L22.35 12.8018L13.2812 7.54082Z" fill="#FF4F4F"/>
</svg>
