<svg width="43" height="43" viewBox="0 0 43 43" fill="none" xmlns="http://www.w3.org/2000/svg">
<rect x="0.5" y="0.646484" width="41.7067" height="41.7067" rx="4.76648" fill="#FFF7F7"/>
<path d="M18.5819 24.7128C18.2474 24.4648 17.7752 24.535 17.5272 24.8695C17.2793 25.204 17.3494 25.6762 17.6839 25.9241C18.6615 26.6488 19.857 27.0777 21.1488 27.0777C22.4406 27.0777 23.636 26.6488 24.6136 25.9241C24.9481 25.6762 25.0183 25.204 24.7703 24.8695C24.5223 24.535 24.0501 24.4648 23.7156 24.7128C22.9834 25.2554 22.0997 25.5698 21.1488 25.5698C20.1979 25.5698 19.314 25.2554 18.5819 24.7128Z" fill="#FF4F4F"/>
<path fill-rule="evenodd" clip-rule="evenodd" d="M21.1505 10.4902C20.4216 10.4902 19.7566 10.6904 19.0286 11.0302C18.324 11.3591 17.5091 11.8445 16.4878 12.4529L15.0245 13.3245C13.8995 13.9947 13.0031 14.5287 12.3243 15.0394C11.6236 15.5665 11.0977 16.1093 10.755 16.8242C10.4121 17.5394 10.3192 18.288 10.349 19.1616C10.3778 20.0072 10.5258 21.0353 10.7112 22.3243L11.0051 24.3668C11.2438 26.0254 11.4332 27.3415 11.7161 28.3663C12.0077 29.4225 12.4215 30.2609 13.1682 30.9039C13.9143 31.5464 14.807 31.8337 15.8993 31.9707C16.96 32.1037 18.2983 32.1037 19.9867 32.1037H22.3143C24.0027 32.1037 25.341 32.1037 26.4018 31.9707C27.494 31.8337 28.3867 31.5464 29.1328 30.9039C29.8794 30.2609 30.2933 29.4225 30.5849 28.3663C30.8678 27.3416 31.0572 26.0254 31.2959 24.3668L31.5897 22.3243C31.7753 21.0352 31.9232 20.0072 31.952 19.1616C31.9819 18.288 31.8889 17.5394 31.546 16.8242C31.2033 16.1093 30.6774 15.5665 29.9767 15.0394C29.298 14.5287 28.4015 13.9947 27.2765 13.3245L25.8132 12.4529C24.7919 11.8445 23.977 11.3591 23.2723 11.0302C22.5444 10.6904 21.8794 10.4902 21.1505 10.4902ZM17.2255 13.7687C18.2886 13.1354 19.0386 12.6896 19.6664 12.3966C20.2787 12.1108 20.719 11.9982 21.1505 11.9982C21.5821 11.9982 22.0223 12.1108 22.6346 12.3966C23.2624 12.6896 24.0124 13.1354 25.0755 13.7687L26.4677 14.598C27.6382 15.2952 28.4641 15.7884 29.0702 16.2443C29.6617 16.6894 29.9857 17.0577 30.1862 17.4761C30.3867 17.8942 30.47 18.375 30.445 19.1102C30.4193 19.8639 30.284 20.8107 30.091 22.1526L29.8108 24.1001C29.563 25.8223 29.3858 27.0433 29.1314 27.965C28.8827 28.8656 28.5834 29.3871 28.1488 29.7612C27.7137 30.136 27.1496 30.3572 26.2141 30.4746C25.2581 30.5944 24.0143 30.5958 22.2624 30.5958H20.0386C18.2867 30.5958 17.043 30.5944 16.0869 30.4746C15.1515 30.3572 14.5873 30.136 14.1522 29.7612C13.7176 29.3871 13.4183 28.8656 13.1696 27.965C12.9152 27.0433 12.738 25.8223 12.4902 24.1001L12.21 22.1525C12.0169 20.8107 11.8817 19.8639 11.856 19.1102C11.8309 18.375 11.9143 17.8942 12.1147 17.4761C12.3153 17.0577 12.6393 16.6894 13.2309 16.2443C13.8369 15.7884 14.6629 15.2952 15.8333 14.598L17.2255 13.7687Z" fill="#FF4F4F"/>
</svg>
