<svg width="30" height="30" viewBox="0 0 30 30" fill="none" xmlns="http://www.w3.org/2000/svg">
<path d="M25.4537 21.2963C24.6157 20.4575 23.6364 19.773 22.5609 19.2739C24.0776 18.0452 25.0453 16.1702 25.0453 14.0675C25.0453 10.3576 21.9515 7.31412 18.2417 7.37104C14.5888 7.42796 11.6457 10.4045 11.6457 14.0675C11.6457 16.1702 12.6167 18.0452 14.1301 19.2739C13.0543 19.7726 12.075 20.4572 11.2372 21.2963C9.40909 23.1277 8.37114 25.5452 8.30418 28.1233C8.30329 28.159 8.30955 28.1946 8.32261 28.2278C8.33567 28.2611 8.35526 28.2914 8.38022 28.317C8.40519 28.3426 8.43502 28.3629 8.46796 28.3768C8.5009 28.3907 8.53629 28.3978 8.57204 28.3978H10.447C10.591 28.3978 10.7115 28.284 10.7149 28.14C10.7785 26.1981 11.5653 24.38 12.9482 23.0005C13.6558 22.2891 14.4974 21.7252 15.4245 21.3413C16.3515 20.9573 17.3455 20.7611 18.3488 20.7639C20.3879 20.7639 22.3064 21.5574 23.7495 23.0005C25.129 24.38 25.9158 26.1981 25.9828 28.14C25.9861 28.284 26.1066 28.3978 26.2506 28.3978H28.1256C28.1614 28.3978 28.1967 28.3907 28.2297 28.3768C28.2626 28.3629 28.2925 28.3426 28.3174 28.317C28.3424 28.2914 28.362 28.2611 28.375 28.2278C28.3881 28.1946 28.3944 28.159 28.3935 28.1233C28.3265 25.5452 27.2886 23.1277 25.4537 21.2963ZM18.3488 18.3532C17.2037 18.3532 16.1256 17.9079 15.3187 17.0976C14.9137 16.6958 14.5939 16.2166 14.3781 15.6885C14.1624 15.1605 14.0553 14.5943 14.0631 14.0239C14.0732 12.9257 14.5118 11.8643 15.2785 11.0775C16.0821 10.2539 17.1569 9.79515 18.3053 9.78176C19.4403 9.77171 20.5419 10.2137 21.3522 11.0072C22.1825 11.8208 22.6379 12.909 22.6379 14.0675C22.6379 15.2126 22.1926 16.2873 21.3823 17.0976C20.9848 17.497 20.512 17.8137 19.9913 18.0292C19.4706 18.2447 18.9124 18.3548 18.3488 18.3532ZM9.96154 14.9514C9.93141 14.6601 9.91467 14.3655 9.91467 14.0675C9.91467 13.5351 9.96489 13.0161 10.0586 12.5106C10.0821 12.39 10.0185 12.2661 9.90797 12.2159C9.45262 12.0117 9.03409 11.7304 8.67248 11.3755C8.24639 10.9624 7.91109 10.4649 7.68799 9.91496C7.46489 9.36499 7.35888 8.77455 7.37672 8.18131C7.40686 7.10653 7.83878 6.08533 8.59213 5.31524C9.41913 4.46814 10.5307 4.00609 11.7127 4.01948C12.7807 4.02952 13.812 4.44135 14.5921 5.17127C14.8566 5.41903 15.0843 5.69359 15.2752 5.98823C15.3421 6.09202 15.4727 6.13555 15.5865 6.09537C16.1758 5.89113 16.7986 5.74716 17.4381 5.68019C17.6256 5.66011 17.7327 5.45921 17.649 5.2918C16.5609 3.1389 14.3377 1.65229 11.7662 1.61211C8.05306 1.55519 4.95931 4.59872 4.95931 8.30519C4.95931 10.4079 5.92695 12.2829 7.44369 13.5117C6.37896 14.0039 5.39793 14.6835 4.54748 15.534C2.71266 17.3655 1.67471 19.7829 1.60775 22.3643C1.60686 22.4001 1.61312 22.4356 1.62618 22.4689C1.63924 22.5022 1.65883 22.5325 1.6838 22.5581C1.70876 22.5837 1.73859 22.604 1.77153 22.6179C1.80447 22.6318 1.83986 22.6389 1.87561 22.6389H3.75396C3.89793 22.6389 4.01846 22.5251 4.02181 22.3811C4.08543 20.4391 4.87226 18.621 6.25507 17.2416C7.23945 16.2572 8.4448 15.5742 9.76065 15.2427C9.89123 15.2092 9.97829 15.0853 9.96154 14.9514Z" fill="#FF3A3A"/>
</svg>
