<svg width="40" height="40" viewBox="0 0 40 40" fill="none" xmlns="http://www.w3.org/2000/svg">
<rect width="40" height="40" rx="6" fill="white"/>
<g clip-path="url(#clip0_32243_26279)">
<path d="M30.7738 10.9062H9.22162C8.88354 10.9062 8.60938 11.1804 8.60938 11.5185V25.502C8.60938 25.8402 8.88354 26.1143 9.22162 26.1143H30.7739C31.112 26.1143 31.3861 25.8402 31.3861 25.502V11.5185C31.3861 11.1804 31.1119 10.9062 30.7738 10.9062ZM30.1616 24.8898H9.83381V12.1307H30.1616L30.1616 24.8898Z" fill="black"/>
<path d="M34.3878 26.8863H33.3555V10.9895C33.3555 9.84941 32.4577 8.92188 31.3539 8.92188H8.64564C7.54203 8.92188 6.64408 9.84941 6.64408 10.9895V26.8863H5.61225C5.27416 26.8863 5 27.1604 5 27.4985V29.0202C5 30.1588 5.92596 31.0851 7.06414 31.0851H32.9359C34.0741 31.0851 35.0001 30.1588 35.0001 29.0202V27.4985C35 27.1604 34.7258 26.8863 34.3878 26.8863ZM7.86863 10.9895C7.86863 10.5246 8.21727 10.1464 8.6457 10.1464H31.354C31.7824 10.1464 32.131 10.5246 32.131 10.9895V26.8863H23.9854H16.014H7.86863V10.9895ZM22.9423 28.1107C22.7347 28.2261 22.4701 28.2964 22.186 28.2964H17.8296C17.5454 28.2964 17.2806 28.2261 17.0728 28.1107H22.9423ZM33.7755 29.0202C33.7755 29.4836 33.3989 29.8606 32.9359 29.8606H7.06414C6.60113 29.8606 6.22449 29.4837 6.22449 29.0202V28.1107H7.25639H15.5231C15.8343 28.9275 16.7504 29.5209 17.8295 29.5209H22.186C23.2647 29.5209 24.1806 28.9275 24.4917 28.1107H32.7433H33.7755V29.0202Z" fill="black"/>
<path d="M19.762 22.6875H11.0107C10.6726 22.6875 10.3984 22.9616 10.3984 23.2997C10.3984 23.6379 10.6725 23.912 11.0107 23.912H19.7621C20.1002 23.912 20.3743 23.6379 20.3743 23.2997C20.3743 22.9616 20.1001 22.6875 19.762 22.6875Z" fill="black"/>
<path d="M23.0017 22.6875H21.6122C21.2742 22.6875 21 22.9616 21 23.2997C21 23.6379 21.2741 23.912 21.6122 23.912H23.0017C23.3398 23.912 23.614 23.6379 23.614 23.2997C23.614 22.9616 23.3398 22.6875 23.0017 22.6875Z" fill="black"/>
</g>
<defs>
<clipPath id="clip0_32243_26279">
<rect width="30" height="30" fill="white" transform="translate(5 5)"/>
</clipPath>
</defs>
</svg>
