<svg width="40" height="40" viewBox="0 0 40 40" fill="none" xmlns="http://www.w3.org/2000/svg">
<rect width="40" height="40" rx="6" fill="white"/>
<path d="M31.25 10C31.25 9.66848 31.1183 9.35054 30.8839 9.11612C30.6495 8.8817 30.3315 8.75 30 8.75H26.25V7.5C26.25 7.16848 26.1183 6.85054 25.8839 6.61612C25.6495 6.3817 25.3315 6.25 25 6.25H15C14.6685 6.25 14.3505 6.3817 14.1161 6.61612C13.8817 6.85054 13.75 7.16848 13.75 7.5V8.75H10C9.66848 8.75 9.35054 8.8817 9.11612 9.11612C8.8817 9.35054 8.75 9.66848 8.75 10V32.5C8.75 32.8315 8.8817 33.1495 9.11612 33.3839C9.35054 33.6183 9.66848 33.75 10 33.75H30C30.3315 33.75 30.6495 33.6183 30.8839 33.3839C31.1183 33.1495 31.25 32.8315 31.25 32.5V10ZM16.25 8.75H23.75V11.25H16.25V8.75ZM28.75 31.25H11.25V11.25H13.75V12.5C13.75 12.8315 13.8817 13.1495 14.1161 13.3839C14.3505 13.6183 14.6685 13.75 15 13.75H25C25.3315 13.75 25.6495 13.6183 25.8839 13.3839C26.1183 13.1495 26.25 12.8315 26.25 12.5V11.25H28.75V31.25ZM21.25 27.5C21.25 27.8315 21.1183 28.1495 20.8839 28.3839C20.6495 28.6183 20.3315 28.75 20 28.75H15C14.6685 28.75 14.3505 28.6183 14.1161 28.3839C13.8817 28.1495 13.75 27.8315 13.75 27.5C13.75 27.1685 13.8817 26.8505 14.1161 26.6161C14.3505 26.3817 14.6685 26.25 15 26.25H20C20.3315 26.25 20.6495 26.3817 20.8839 26.6161C21.1183 26.8505 21.25 27.1685 21.25 27.5ZM26.25 22.5C26.25 22.8315 26.1183 23.1495 25.8839 23.3839C25.6495 23.6183 25.3315 23.75 25 23.75H15C14.6685 23.75 14.3505 23.6183 14.1161 23.3839C13.8817 23.1495 13.75 22.8315 13.75 22.5C13.75 22.1685 13.8817 21.8505 14.1161 21.6161C14.3505 21.3817 14.6685 21.25 15 21.25H25C25.3315 21.25 25.6495 21.3817 25.8839 21.6161C26.1183 21.8505 26.25 22.1685 26.25 22.5ZM26.25 17.5C26.25 17.8315 26.1183 18.1495 25.8839 18.3839C25.6495 18.6183 25.3315 18.75 25 18.75H15C14.6685 18.75 14.3505 18.6183 14.1161 18.3839C13.8817 18.1495 13.75 17.8315 13.75 17.5C13.75 17.1685 13.8817 16.8505 14.1161 16.6161C14.3505 16.3817 14.6685 16.25 15 16.25H25C25.3315 16.25 25.6495 16.3817 25.8839 16.6161C26.1183 16.8505 26.25 17.1685 26.25 17.5Z" fill="black"/>
</svg>
