<svg width="40" height="40" viewBox="0 0 40 40" fill="none" xmlns="http://www.w3.org/2000/svg">
<rect width="40" height="40" rx="6" fill="white"/>
<path d="M20.0881 8.59375H6.87053C6.32502 8.59375 5.88281 9.03601 5.88281 9.58146V15.958C5.88281 16.5036 6.32496 16.9458 6.87053 16.9458H20.0881C20.6336 16.9458 21.0758 16.5035 21.0758 15.9581V9.58146C21.0758 9.03601 20.6336 8.59375 20.0881 8.59375ZM19.1004 14.9703H7.85824V10.5692H19.1004V14.9703Z" fill="black"/>
<path d="M12.1811 28.4637C12.6521 28.4637 13.034 28.0818 13.034 27.6108C13.034 27.1397 12.6521 26.7578 12.1811 26.7578C11.71 26.7578 11.3281 27.1397 11.3281 27.6108C11.3281 28.0818 11.71 28.4637 12.1811 28.4637Z" fill="black"/>
<path d="M34.0122 17.1983H31.7371L29.6192 12.6635C29.4568 12.3159 29.1079 12.0938 28.7242 12.0938H23.2695C22.724 12.0938 22.2818 12.536 22.2818 13.0815V18.0513H5.98771C5.44226 18.0513 5 18.4935 5 19.039V26.8371C5 27.3826 5.44226 27.8248 5.98771 27.8248H8.3979C8.51029 29.8145 10.1642 31.3989 12.1816 31.3989C14.199 31.3989 15.8528 29.8146 15.9652 27.8248C16.2364 27.8248 23.8153 27.8248 24.2379 27.8248C24.3503 29.8145 26.0041 31.3989 28.0215 31.3989C30.0389 31.3989 31.6927 29.8146 31.8052 27.8248H34.0123C34.5578 27.8248 35 27.3825 35 26.8371V18.186C34.9999 17.6406 34.5577 17.1983 34.0122 17.1983ZM12.1816 29.4236C11.1809 29.4236 10.3668 28.6095 10.3668 27.6089C10.3668 26.598 11.1953 25.7942 12.1816 25.7942C13.1679 25.7942 13.9963 26.5977 13.9963 27.6089C13.9962 28.6095 13.1822 29.4236 12.1816 29.4236ZM22.2669 25.8494H15.5377C14.8913 24.6222 13.6087 23.8186 12.1815 23.8186C10.7348 23.8186 9.46372 24.6387 8.82517 25.8494H6.97548V20.0267H22.2669V25.8494ZM24.2572 14.0692H28.0953L29.5568 17.1983H24.2572V14.0692ZM28.0214 29.4236C27.0208 29.4236 26.2067 28.6095 26.2067 27.6089C26.2067 26.5989 27.0345 25.7942 28.0214 25.7942C29.0174 25.7942 29.8362 26.6072 29.8362 27.6089C29.8362 28.6095 29.0222 29.4236 28.0214 29.4236ZM33.0245 25.8494H31.3777C30.7203 24.6027 29.4265 23.8186 28.0214 23.8186C26.5993 23.8186 25.3134 24.619 24.6652 25.8494H24.2572V19.1738C24.3965 19.1738 32.8249 19.1738 33.0245 19.1738V25.8494Z" fill="black"/>
<path d="M28.0248 28.4637C28.4959 28.4637 28.8778 28.0818 28.8778 27.6108C28.8778 27.1397 28.4959 26.7578 28.0248 26.7578C27.5538 26.7578 27.1719 27.1397 27.1719 27.6108C27.1719 28.0818 27.5538 28.4637 28.0248 28.4637Z" fill="black"/>
</svg>
