<svg width="40" height="40" viewBox="0 0 40 40" fill="none" xmlns="http://www.w3.org/2000/svg">
<rect width="40" height="40" rx="6" fill="white"/>
<path d="M11.6449 5H24.9629L32.4141 12.4507V31.2421H11.6448L11.6449 5ZM13.3673 29.5191H30.6911V13.4562H23.9574V6.72254H13.3673V29.5191Z" fill="black"/>
<path d="M16.9783 17.2031H27.0859V18.5304H16.9783V17.2031Z" fill="black"/>
<path d="M16.9783 20.8281H27.0859V22.1554H16.9783V20.8281Z" fill="black"/>
<path d="M16.9783 24.4531H27.0859V25.7804H16.9783V24.4531Z" fill="black"/>
<g clip-path="url(#clip0_32243_26268)">
<path d="M22.2222 13.4775C22.2568 13.4494 22.2918 13.4219 22.3252 13.392L22.3256 13.3928C22.3264 13.392 22.3273 13.3914 22.3282 13.3906L23.1559 15.1638L23.1797 15.2275L23.1484 15.2771C23.1257 15.3116 23.089 15.3321 23.048 15.3321H23.0286L22.2375 15.0861L21.9245 15.8351C21.9051 15.8793 21.863 15.9085 21.8144 15.9085C21.768 15.9085 21.7259 15.8815 21.7065 15.8394L21.0663 14.4682L20.877 14.0651C20.8773 14.0651 20.8777 14.065 20.878 14.065L20.8766 14.0619C21.3807 13.9899 21.8415 13.7814 22.2222 13.4775Z" fill="black"/>
<path d="M18.4396 13.7929L18.6255 13.3931C18.6257 13.3932 18.626 13.3934 18.6262 13.3937L18.6276 13.3906C19 13.7187 19.4612 13.9483 19.968 14.041C20.0037 14.0472 20.0391 14.0546 20.0752 14.0594L20.0748 14.0602C20.0759 14.0604 20.077 14.0606 20.0781 14.0608L19.2482 15.8394C19.2288 15.8815 19.1867 15.9085 19.1403 15.9085C19.0917 15.9085 19.0496 15.8793 19.0302 15.8351L18.7172 15.0861L17.9412 15.3268L17.9229 15.3321H17.9067C17.8657 15.3321 17.829 15.3116 17.8063 15.2771L17.7739 15.2167L18.4396 13.7929Z" fill="black"/>
<path d="M18.1029 11.2806C18.1029 9.96929 19.166 8.90625 20.4772 8.90625C21.7885 8.90625 22.8516 9.96929 22.8516 11.2806C22.8516 12.593 21.7885 13.6549 20.4772 13.6549C19.166 13.6549 18.1029 12.593 18.1029 11.2806ZM20.4772 12.3804C21.0827 12.3804 21.5759 11.8871 21.5759 11.2806C21.5759 10.6751 21.0827 10.1819 20.4772 10.1819C19.8707 10.1819 19.3775 10.6751 19.3775 11.2806C19.3775 11.8871 19.8707 12.3804 20.4772 12.3804Z" fill="black"/>
</g>
<path d="M10.8303 8.75781V10.4804H9.31272V33.277H26.6364V32.0586H28.3594V35H7.59018V8.75781H10.8303Z" fill="black"/>
<defs>
<clipPath id="clip0_32243_26268">
<rect width="7" height="7" fill="white" transform="matrix(-1 0 0 1 23.9766 8.90625)"/>
</clipPath>
</defs>
</svg>
