<svg width="26" height="26" viewBox="0 0 26 26" fill="none" xmlns="http://www.w3.org/2000/svg">
<path d="M13.4008 2.33063L23.1508 6.2306C23.53 6.38227 23.8333 6.83726 23.8333 7.23809V10.8348C23.8333 11.4306 23.3458 11.9181 22.75 11.9181H3.24996C2.65413 11.9181 2.16663 11.4306 2.16663 10.8348V7.23809C2.16663 6.83726 2.46996 6.38227 2.84913 6.2306L12.5991 2.33063C12.8158 2.24396 13.1841 2.24396 13.4008 2.33063Z" stroke="#615FFF" stroke-width="1.625" stroke-miterlimit="10" stroke-linecap="round" stroke-linejoin="round"/>
<path d="M23.8333 23.8333H2.16663V20.5833C2.16663 19.9875 2.65413 19.5 3.24996 19.5H22.75C23.3458 19.5 23.8333 19.9875 23.8333 20.5833V23.8333Z" stroke="#615FFF" stroke-width="1.625" stroke-miterlimit="10" stroke-linecap="round" stroke-linejoin="round"/>
<path d="M4.33337 19.4974V11.9141" stroke="#615FFF" stroke-width="1.625" stroke-miterlimit="10" stroke-linecap="round" stroke-linejoin="round"/>
<path d="M8.66663 19.4974V11.9141" stroke="#615FFF" stroke-width="1.625" stroke-miterlimit="10" stroke-linecap="round" stroke-linejoin="round"/>
<path d="M13 19.4974V11.9141" stroke="#615FFF" stroke-width="1.625" stroke-miterlimit="10" stroke-linecap="round" stroke-linejoin="round"/>
<path d="M17.3334 19.4974V11.9141" stroke="#615FFF" stroke-width="1.625" stroke-miterlimit="10" stroke-linecap="round" stroke-linejoin="round"/>
<path d="M21.6666 19.4974V11.9141" stroke="#615FFF" stroke-width="1.625" stroke-miterlimit="10" stroke-linecap="round" stroke-linejoin="round"/>
<path d="M1.08337 23.8359H24.9167" stroke="#615FFF" stroke-width="1.625" stroke-miterlimit="10" stroke-linecap="round" stroke-linejoin="round"/>
<path d="M13 9.21094C13.8975 9.21094 14.625 8.4834 14.625 7.58594C14.625 6.68847 13.8975 5.96094 13 5.96094C12.1025 5.96094 11.375 6.68847 11.375 7.58594C11.375 8.4834 12.1025 9.21094 13 9.21094Z" stroke="#615FFF" stroke-width="1.625" stroke-miterlimit="10" stroke-linecap="round" stroke-linejoin="round"/>
</svg>
