<svg width="32" height="53" viewBox="0 0 32 53" fill="none" xmlns="http://www.w3.org/2000/svg">
<path d="M23.1545 23.5329C24.0238 22.0613 24.5604 20.3859 24.5604 18.8745C24.5604 15.908 22.4749 14.7012 19.9044 16.1845C17.3339 17.6677 15.2507 21.281 15.2507 24.2499C15.2507 25.759 15.792 26.8275 16.6567 27.2962C17.5213 27.7648 18.639 27.6734 19.9021 26.9423C21.1651 26.2112 22.3179 24.9623 23.1545 23.5329ZM8.4248 44.8284V19.0221C8.4248 17.417 9.3996 15.5518 10.6064 14.8535L29.2071 4.11672C30.4139 3.41374 31.3887 4.1589 31.3887 5.757V36.9058C31.3887 38.5133 30.4139 40.3785 29.2071 41.0722L10.6064 51.8136C9.3996 52.5166 8.4248 51.7691 8.4248 50.1616V44.8284Z" fill="white"/>
<path d="M27.9622 4.83597L10.6058 14.8557C9.39898 15.5587 8.42418 17.4192 8.42418 19.0244V24.8169C7.87228 25.0556 7.2918 25.2217 6.69721 25.3113C5.84309 25.4433 4.97375 25.4433 4.11963 25.3113V16.7256C4.12666 15.2353 5.02412 13.5247 6.13483 12.8921L23.2687 2.99183C23.7701 2.69892 24.2318 2.68252 24.5833 2.88638L27.9622 4.83597Z" fill="#DAE0E5"/>
<path d="M25.3315 3.31326L24.584 2.88679C24.2325 2.68293 23.7708 2.69933 23.2694 2.99224L6.13553 12.8925C5.02483 13.5252 4.12736 15.2357 4.12736 16.726V25.3117C3.52066 25.227 2.92803 25.0615 2.36523 24.8196V15.5263C2.36523 13.9188 3.34003 12.0536 4.54446 11.36L23.1499 0.616181C24.352 -0.086795 25.3315 0.660702 25.3315 2.26817V3.31326Z" fill="#FF4F4F"/>
<path d="M24.5628 18.879C24.5628 20.3904 24.0238 22.0658 23.1568 23.5374C22.8656 23.0973 22.4826 22.7255 22.034 22.4476C21.5854 22.1697 21.0819 21.9923 20.5582 21.9276C20.8288 21.5538 20.9843 21.1091 21.0057 20.6482C21.0057 19.9452 20.5136 19.6617 19.9067 20.0132C19.5874 20.2219 19.3217 20.503 19.1312 20.8336C18.9407 21.1641 18.8307 21.5349 18.8101 21.9159C18.8101 22.3306 18.9858 22.6001 19.2576 22.6751C18.1721 24.0801 17.2974 25.636 16.6613 27.2936C15.792 26.825 15.2554 25.7635 15.2554 24.2474C15.2554 21.2785 17.3385 17.6699 19.9114 16.1819C22.4843 14.694 24.5628 15.9125 24.5628 18.879Z" fill="#DAE0E5"/>
<path d="M20.558 21.9297C21.0813 21.9947 21.5843 22.1723 22.0325 22.4502C22.4807 22.7281 22.8634 23.0997 23.1543 23.5395C22.3177 24.9689 21.1695 26.2085 19.9065 26.9419C18.6435 27.6753 17.5 27.7527 16.6611 27.2957C17.2972 25.6381 18.1719 24.0822 19.2575 22.6772C19.482 22.7219 19.7152 22.6764 19.9065 22.5506C20.1635 22.39 20.3852 22.1787 20.558 21.9297Z" fill="#FF4F4F"/>
<path d="M21.0062 20.6448C20.9848 21.1058 20.8292 21.5504 20.5586 21.9242C20.3858 22.1732 20.1642 22.3845 19.9072 22.5452C19.7158 22.671 19.4827 22.7164 19.2581 22.6717C18.9863 22.5991 18.8105 22.3273 18.8105 21.9125C18.8311 21.5315 18.9411 21.1608 19.1317 20.8302C19.3222 20.4996 19.5879 20.2186 19.9072 20.0098C20.5141 19.6583 21.0062 19.9442 21.0062 20.6448Z" fill="white"/>
<path d="M8.42506 44.8281V49.1163L4.82114 47.0355C4.39232 46.7894 4.11816 46.22 4.11816 45.4093V45.3226C4.97247 45.4521 5.84143 45.4521 6.69574 45.3226C7.2912 45.2335 7.87253 45.0673 8.42506 44.8281Z" fill="#DAE0E5"/>
<path d="M8.42418 38.1641V44.833C7.87207 45.0695 7.29155 45.2334 6.69721 45.3204C5.8429 45.4499 4.97394 45.4499 4.11963 45.3204V38.6538C4.97375 38.7858 5.84309 38.7858 6.69721 38.6538C7.29165 38.5661 7.87217 38.4014 8.42418 38.1641Z" fill="#DAE0E5"/>
<path d="M8.42418 31.4922V38.1658C7.87184 38.4007 7.29133 38.563 6.69721 38.6485C5.84309 38.7805 4.97375 38.7805 4.11963 38.6485V31.9843C4.97402 32.1127 5.84281 32.1127 6.69721 31.9843C7.29121 31.8933 7.87142 31.7279 8.42418 31.4922Z" fill="#DAE0E5"/>
<path d="M8.42418 24.8203V31.4916C7.8712 31.7257 7.291 31.8894 6.69721 31.9789C5.84281 32.1074 4.97402 32.1074 4.11963 31.9789V25.3147C4.97375 25.4468 5.84309 25.4468 6.69721 25.3147C7.2918 25.2252 7.87228 25.059 8.42418 24.8203Z" fill="#DAE0E5"/>
<path d="M5.79107 47.5971L4.54446 48.3188C3.34003 49.0218 2.36523 48.2766 2.36523 46.6785V44.8438C2.92889 45.0832 3.52119 45.2486 4.12736 45.3358V45.4225C4.12736 46.2333 4.39215 46.8027 4.83034 47.0487L5.79107 47.5971Z" fill="#FF4F4F"/>
<path d="M4.12736 38.6538V45.3274C3.52119 45.2402 2.92889 45.0748 2.36523 44.8353V38.1641C2.929 38.4027 3.5213 38.5673 4.12736 38.6538Z" fill="#FF4F4F"/>
<path d="M4.12736 31.9843V38.6555C3.5213 38.569 2.929 38.4044 2.36523 38.1658V31.4922C2.92889 31.7316 3.52119 31.8971 4.12736 31.9843Z" fill="#FF4F4F"/>
<path d="M4.12736 25.3093V31.9829C3.52119 31.8956 2.92889 31.7302 2.36523 31.4908V24.8125C2.9278 25.056 3.52044 25.2231 4.12736 25.3093Z" fill="#FF4F4F"/>
<path d="M5.79107 47.596L4.54446 48.3178C3.34003 49.0207 2.36523 48.2756 2.36523 46.6775V15.5263C2.36523 13.9188 3.34003 12.0536 4.54446 11.36L23.1499 0.616181C24.352 -0.086795 25.3315 0.660702 25.3315 2.26817V3.31326" stroke="#373A3A" stroke-width="0.702976" stroke-linecap="round" stroke-linejoin="round"/>
<path d="M27.9628 4.83376L29.2071 4.11672C30.4139 3.41374 31.3887 4.1589 31.3887 5.757V36.9058C31.3887 38.5133 30.4139 40.3785 29.2071 41.0722L10.6064 51.8136C9.3996 52.5166 8.4248 51.7691 8.4248 50.1616V19.0221C8.4248 17.417 9.3996 15.5518 10.6064 14.8535L27.9628 4.83376Z" stroke="#373A3A" stroke-width="0.702976" stroke-linecap="round" stroke-linejoin="round"/>
<path d="M23.1548 23.5376C24.0218 22.0637 24.5607 20.3906 24.5607 18.8792C24.5607 15.9126 22.4752 14.7058 19.9047 16.1891C17.3341 17.6724 15.251 21.2857 15.251 24.2546C15.251 25.7637 15.7923 26.8322 16.6569 27.3008C17.5216 27.7695 18.6393 27.6781 19.9023 26.947C21.1653 26.2159 22.3159 24.967 23.1548 23.5376Z" stroke="#373A3A" stroke-width="0.702976" stroke-linecap="round" stroke-linejoin="round"/>
<path d="M20.5586 21.9247C20.8306 21.5516 20.9863 21.1065 21.0062 20.6452C21.0062 19.9423 20.5141 19.6587 19.9072 20.0102C19.5879 20.219 19.3222 20.5001 19.1317 20.8306C18.9411 21.1612 18.8311 21.532 18.8105 21.9129C18.8105 22.3277 18.9863 22.5995 19.2581 22.6721C19.4827 22.7169 19.7158 22.6714 19.9072 22.5456C20.1647 22.3856 20.3864 22.1742 20.5586 21.9247Z" stroke="#373A3A" stroke-width="0.702976" stroke-linecap="round" stroke-linejoin="round"/>
<path d="M19.2575 22.6719C18.1719 24.0769 17.2972 25.6328 16.6611 27.2904" stroke="#373A3A" stroke-width="0.702976" stroke-linecap="round" stroke-linejoin="round"/>
<path d="M20.5581 21.9297C21.0814 21.9947 21.5844 22.1723 22.0326 22.4502C22.4808 22.7281 22.8635 23.0997 23.1544 23.5395" stroke="#373A3A" stroke-width="0.702976" stroke-linecap="round" stroke-linejoin="round"/>
<path d="M10.4307 29.2432C10.3932 30.1313 9.64572 30.9608 8.42488 31.4904C7.87191 31.7246 7.2917 31.8883 6.69791 31.9778C5.84351 32.1062 4.97472 32.1062 4.12033 31.9778C3.5141 31.8909 2.92175 31.7255 2.3582 31.4857C1.48886 31.1085 0.828061 30.5672 0.525781 29.9181C-0.0225399 28.7465 0.760106 27.535 2.3582 26.8438" stroke="#373A3A" stroke-width="0.702976" stroke-linecap="round" stroke-linejoin="round"/>
<path d="M10.4237 22.626C10.3581 23.4954 9.61994 24.3015 8.42488 24.8193C7.87337 25.0591 7.29274 25.2253 6.69791 25.3138C5.8436 25.4434 4.97464 25.4434 4.12033 25.3138C3.51433 25.2257 2.92212 25.0604 2.3582 24.8217C1.4912 24.4421 0.828061 23.9078 0.525781 23.254C-0.0225399 22.0824 0.760106 20.8733 2.3582 20.1797" stroke="#373A3A" stroke-width="0.702976" stroke-linecap="round" stroke-linejoin="round"/>
<path d="M10.4307 35.8417C10.4307 36.7579 9.67618 37.6155 8.42488 38.1615C7.87219 38.3955 7.29181 38.5577 6.69791 38.6442C5.84369 38.7749 4.97455 38.7749 4.12033 38.6442C3.51421 38.5581 2.92186 38.3934 2.3582 38.1545C1.48886 37.7749 0.828061 37.2359 0.525781 36.5822C-0.0225399 35.4105 0.760106 34.2038 2.3582 33.5078" stroke="#373A3A" stroke-width="0.702976" stroke-linecap="round" stroke-linejoin="round"/>
<path d="M10.4284 42.6073C10.3768 43.4884 9.634 44.3038 8.42488 44.831C7.87277 45.0676 7.29225 45.2315 6.69791 45.3184C5.8436 45.448 4.97464 45.448 4.12033 45.3184C3.5141 45.2315 2.92175 45.0661 2.3582 44.8264C1.48886 44.4491 0.828061 43.9055 0.525781 43.254C-0.02254 42.0824 0.760106 40.8709 2.3582 40.1797" stroke="#373A3A" stroke-width="0.702976" stroke-linecap="round" stroke-linejoin="round"/>
<path d="M8.42506 49.1188L4.82114 47.0379C4.39232 46.7919 4.11816 46.2225 4.11816 45.4117V16.7256C4.12754 15.2353 5.025 13.5247 6.1357 12.8921L23.2696 2.99183C23.771 2.69892 24.2326 2.68252 24.5841 2.88638L27.9631 4.83597" stroke="#373A3A" stroke-width="0.702976" stroke-linecap="round" stroke-linejoin="round"/>
</svg>
