<svg width="45" height="56" viewBox="0 0 45 56" fill="none" xmlns="http://www.w3.org/2000/svg">
<path d="M44.0511 10.3758C44.7253 19.3121 44.7793 27.9967 39.3537 31.1275C35.789 33.184 35.2631 28.9946 33.2268 27.8191L21.771 21.2068L21.9733 21.0967C27.4011 17.9793 27.3427 9.26774 26.6639 0.335938L44.0511 10.3758Z" fill="white"/>
<path d="M19.3692 55.0636L19.3445 55.0501C17.8453 54.0499 17.7127 50.6381 17.7127 47.9973L7.19189 41.9154C10.3138 35.2895 7.11997 21.4401 12.9232 18.0912C14.2223 17.3405 15.1303 17.3787 15.845 17.7945L33.1827 27.8052C32.468 27.4096 31.5667 27.3849 30.2878 28.1221C23.435 32.08 29.1393 50.7033 22.1449 54.7399C20.902 55.4457 20.0142 55.4726 19.3692 55.0636Z" fill="white"/>
<path d="M19.3445 55.0446L2.06529 45.07C0.476263 44.153 0.336914 40.6535 0.336914 37.9609L7.19197 41.9144L17.7173 47.9828C17.7128 50.6327 17.8454 54.0445 19.3445 55.0446Z" fill="#FF4F4F"/>
<path d="M7.19189 41.9136C10.3138 35.2878 7.11997 21.4383 12.9232 18.0894C14.2223 17.3387 15.1303 17.3769 15.845 17.7927L33.2186 27.8236C35.2549 28.9991 35.7809 33.1885 39.3455 31.132C44.7734 27.9967 44.7262 19.3121 44.0519 10.3758L26.6648 0.335938C27.339 9.26774 27.402 17.9725 21.9741 21.0967L21.7718 21.2068" stroke="#373A3A" stroke-width="0.674268" stroke-linecap="round" stroke-linejoin="round"/>
<path d="M19.3701 55.0632C20.0152 55.479 20.9097 55.452 22.1481 54.7395C29.1425 50.6939 23.4382 32.0796 30.291 28.1217C31.5699 27.3845 32.4711 27.4092 33.1859 27.8048" stroke="#373A3A" stroke-width="0.674268" stroke-linecap="round" stroke-linejoin="round"/>
<path d="M19.3445 55.0446L2.06529 45.07C0.476263 44.153 0.336914 40.6535 0.336914 37.9609L7.19197 41.9144L17.7173 47.9828C17.7128 50.6327 17.8454 54.0445 19.3445 55.0446Z" stroke="#373A3A" stroke-width="0.674268" stroke-linecap="round" stroke-linejoin="round"/>
<path d="M19.3457 55.0469L19.3701 55.0602" stroke="#373A3A" stroke-width="0.674268" stroke-linecap="round" stroke-linejoin="round"/>
<path d="M19.442 55.0974L19.3701 55.0547" stroke="#373A3A" stroke-width="0.674268" stroke-linecap="round" stroke-linejoin="round"/>
<path d="M40.3733 13.9525L34.624 10.6328" stroke="#373A3A" stroke-width="0.674268" stroke-linecap="round" stroke-linejoin="round"/>
<path d="M31.9773 9.1013L30.0669 8" stroke="#373A3A" stroke-width="0.674268" stroke-linecap="round" stroke-linejoin="round"/>
<path d="M40.4132 19.6765L29.6631 13.4688" stroke="#373A3A" stroke-width="0.674268" stroke-linecap="round" stroke-linejoin="round"/>
<path d="M39.5906 24.8984L28.3394 18.3984" stroke="#373A3A" stroke-width="0.674268" stroke-linecap="round" stroke-linejoin="round"/>
<path d="M24.907 28.5147L13.5815 21.9766" stroke="#373A3A" stroke-width="0.674268" stroke-linecap="round" stroke-linejoin="round"/>
<path d="M23.21 33.2337L20.5557 31.7031" stroke="#373A3A" stroke-width="0.674268" stroke-linecap="round" stroke-linejoin="round"/>
<path d="M18.0007 30.22L12.3301 26.9453" stroke="#373A3A" stroke-width="0.674268" stroke-linecap="round" stroke-linejoin="round"/>
<path d="M22.5577 38.5543L11.9492 32.4297" stroke="#373A3A" stroke-width="0.674268" stroke-linecap="round" stroke-linejoin="round"/>
<path d="M22.2325 44.0647L16.8833 40.9766" stroke="#373A3A" stroke-width="0.674268" stroke-linecap="round" stroke-linejoin="round"/>
<path d="M14.4082 39.5428L11.4863 37.8594" stroke="#373A3A" stroke-width="0.674268" stroke-linecap="round" stroke-linejoin="round"/>
</svg>
