<svg width="32" height="52" viewBox="0 0 32 52" fill="none" xmlns="http://www.w3.org/2000/svg">
<g clip-path="url(#clip0_4350_32879)">
<path d="M31.484 9.88612V35.0055C31.484 36.1782 31.0725 36.9959 30.4116 37.3791L6.63721 51.1037C7.30325 50.718 7.71728 49.8977 7.71728 48.7379V27.787L21.7479 19.6813C22.0329 19.5176 22.28 19.2955 22.4733 19.0296C22.6665 18.7637 22.8014 18.46 22.8691 18.1384L23.8412 13.5532C23.9084 13.2317 24.0428 12.928 24.2356 12.6621C24.4283 12.3962 24.6752 12.1741 24.9599 12.0103L30.0619 9.06578C30.2059 8.98204 30.3694 8.93779 30.536 8.9375C30.7026 8.93721 30.8662 8.98088 31.0105 9.06411C31.1548 9.14734 31.2746 9.26717 31.3577 9.4115C31.4408 9.55584 31.4844 9.71956 31.484 9.88612ZM27.5135 17.6343C27.9056 17.3788 28.2319 17.0345 28.466 16.6292C28.7001 16.224 28.8354 15.7692 28.861 15.3019C28.861 14.443 28.2566 14.0958 27.5135 14.5304C27.1207 14.7859 26.794 15.1306 26.5598 15.5364C26.3256 15.9422 26.1907 16.3976 26.1659 16.8654C26.1556 17.7192 26.7574 18.0664 27.5135 17.6343Z" fill="white"/>
<path d="M28.8508 15.3041C28.8264 15.7705 28.6927 16.2246 28.4604 16.6298C28.2281 17.035 27.9037 17.3798 27.5135 17.6365C26.7678 18.0685 26.166 17.7214 26.166 16.865C26.1899 16.3963 26.3245 15.9399 26.5587 15.5331C26.7929 15.1264 27.1201 14.7809 27.5135 14.5249C28.2464 14.098 28.8508 14.4529 28.8508 15.3041Z" fill="#5F646B"/>
<path d="M26.1556 0.179688V11.325L24.9598 12.0142C24.6752 12.178 24.4283 12.4001 24.2355 12.6661C24.0428 12.932 23.9084 13.2356 23.8412 13.5572L22.8691 18.1423C22.8014 18.4639 22.6665 18.7676 22.4733 19.0335C22.28 19.2994 22.0329 19.5215 21.7479 19.6853L7.71213 27.7884V41.5927L5.09424 43.1048V17.2963L9.06222 14.3158L9.38624 9.86176L26.1556 0.179688Z" fill="white"/>
<path d="M9.38624 9.85938L9.06479 14.3134L5.09424 17.2939L9.38624 9.85938Z" fill="#DAE0E5"/>
<path d="M7.7109 41.5913V48.7301C7.7109 49.8899 7.29687 50.7102 6.63082 51.096C5.96478 51.4817 5.057 51.4277 4.05922 50.8542C2.02766 49.6816 0.381836 46.8528 0.381836 44.5024V23.5567L5.09301 20.8359V43.1034L7.7109 41.5913Z" fill="#FF4F4F"/>
<path d="M6.63597 51.1012L30.4104 37.3765C31.0713 36.9934 31.4828 36.1756 31.4828 35.0029V9.88355C31.4827 9.7172 31.4388 9.55381 31.3555 9.40983C31.2722 9.26586 31.1524 9.14639 31.0082 9.06347C30.864 8.98055 30.7005 8.9371 30.5341 8.9375C30.3678 8.93791 30.2045 8.98215 30.0607 9.06578L24.9586 12.0103C24.6739 12.1741 24.4271 12.3962 24.2343 12.6621C24.0415 12.928 23.9071 13.2317 23.84 13.5532L22.8679 18.1384C22.8001 18.46 22.6652 18.7637 22.472 19.0296C22.2788 19.2955 22.0316 19.5176 21.7467 19.6813L7.7109 27.7845V48.7276C7.7109 49.8874 7.29687 50.7103 6.63082 51.0934C5.96478 51.4766 5.057 51.4252 4.05922 50.8517C2.02766 49.6791 0.381836 46.8503 0.381836 44.4999V23.5542L5.09301 20.8334" stroke="#373A3A" stroke-width="0.77148" stroke-linecap="round" stroke-linejoin="round"/>
<path d="M5.09424 17.2939L9.06479 14.3134L9.38624 9.85938" stroke="#373A3A" stroke-width="0.77148" stroke-linecap="round" stroke-linejoin="round"/>
<path d="M7.71213 41.5927L5.09424 43.1074V17.2963L9.38624 9.86176L26.1556 0.179688V11.325" stroke="#373A3A" stroke-width="0.77148" stroke-linecap="round" stroke-linejoin="round"/>
<path d="M10.9019 16.092L12.9308 14.9219" stroke="#373A3A" stroke-width="0.77148" stroke-linecap="round" stroke-linejoin="round"/>
<path d="M14.731 13.8756L20.3473 10.6328" stroke="#373A3A" stroke-width="0.77148" stroke-linecap="round" stroke-linejoin="round"/>
<path d="M10.9019 19.5087L16.8294 16.0859" stroke="#373A3A" stroke-width="0.77148" stroke-linecap="round" stroke-linejoin="round"/>
<path d="M17.8799 15.4741L20.346 14.0469" stroke="#373A3A" stroke-width="0.77148" stroke-linecap="round" stroke-linejoin="round"/>
<path d="M10.9019 23.1419L20.3473 17.6875" stroke="#373A3A" stroke-width="0.77148" stroke-linecap="round" stroke-linejoin="round"/>
<path d="M28.8508 15.3041C28.8264 15.7705 28.6927 16.2246 28.4604 16.6298C28.2281 17.035 27.9037 17.3798 27.5135 17.6365C26.7678 18.0685 26.166 17.7214 26.166 16.865C26.1899 16.3963 26.3245 15.9399 26.5587 15.5331C26.7929 15.1264 27.1201 14.7809 27.5135 14.5249C28.2464 14.098 28.8508 14.4529 28.8508 15.3041Z" stroke="#373A3A" stroke-width="0.77148" stroke-linecap="round" stroke-linejoin="round"/>
</g>
<defs>
<clipPath id="clip0_4350_32879">
<rect width="31.8724" height="51.9335" fill="white"/>
</clipPath>
</defs>
</svg>
