<svg width="38" height="58" viewBox="0 0 38 58" fill="none" xmlns="http://www.w3.org/2000/svg">
<g clip-path="url(#clip0_4350_32840)">
<path d="M36.8533 26.9219V51.6902C36.8533 52.5777 36.5477 53.197 36.0731 53.4437L31.5581 55.7923C32.0059 55.5323 32.2874 54.929 32.2874 54.0684V29.4984L32.3383 29.5279L36.8533 26.9219Z" fill="#646464"/>
<path d="M36.854 26.9151V26.9285L32.339 29.5346L32.2881 29.5051V25.8936C32.2881 24.3171 31.3309 22.4859 30.1485 21.7995L25.2983 19.0004C25.3144 18.8476 25.3386 18.6921 25.3707 18.5339C25.5825 17.4721 26.1295 16.3434 26.8695 15.4184C26.9151 15.3648 26.9606 15.3112 27.0116 15.2522C27.0625 15.1932 27.1108 15.1396 27.1617 15.0859L29.6418 16.5177L29.9099 16.6732L31.0467 17.33L32.1889 17.9896L34.7172 19.4481C35.8942 20.1292 36.854 21.9604 36.854 23.5369V26.9205V26.9151Z" fill="#646464"/>
<path d="M25.2979 18.9977C25.247 19.4803 25.2738 19.9147 25.3837 20.2444C25.4293 20.3839 25.4803 20.4884 25.5392 20.5742C25.6009 20.66 25.6679 20.7244 25.735 20.7592C26.3704 21.0944 26.6117 21.8826 26.2712 22.5207C26.0406 22.9631 25.5875 23.2125 25.121 23.2125C24.9172 23.2125 24.7054 23.1642 24.5124 23.0569C24.0753 22.8291 23.7053 22.4966 23.4077 22.073C23.1959 21.7673 23.0243 21.4215 22.9064 21.0434C22.6249 20.1935 22.5927 19.1398 22.8152 18.0137C22.8447 17.8716 22.8769 17.7295 22.9144 17.5874C23.2549 16.2495 23.9279 14.917 24.8368 13.7856C24.8475 13.7668 24.8636 13.7507 24.8797 13.732C24.9306 13.6703 24.9869 13.6006 25.0432 13.5389C26.4133 11.9383 28.0622 11.0616 29.577 11.1286C30.5905 11.1768 31.4646 11.6568 32.0437 12.4826C32.9365 13.7507 33.0303 15.6704 32.3011 17.7403C32.2743 17.8207 32.2421 17.8958 32.1992 17.9628L32.1885 17.9789L31.0463 17.3193L29.9095 16.6624L29.9202 16.6437C30.317 15.3755 30.2098 14.4022 29.9122 13.9813C29.7942 13.8178 29.6628 13.7454 29.4537 13.7346C28.9711 13.7132 28.0917 14.0537 27.1587 15.0779C27.1077 15.1342 27.0594 15.1878 27.0085 15.2441C26.9576 15.3058 26.912 15.3594 26.8664 15.4104C26.1237 16.3353 25.5795 17.4641 25.3677 18.5258C25.3355 18.684 25.3113 18.8422 25.2953 18.9923L25.2979 18.9977Z" fill="white"/>
<path d="M13.1707 40.7283L20.3374 44.868L26.9545 48.6859C27.4987 49.005 27.9438 48.6672 27.9438 47.9379V32.7948C27.9438 32.0656 27.4987 31.2183 26.9545 30.9019L20.4179 27.1269L13.1681 22.9417L6.77356 19.2524C6.22661 18.9334 5.78154 19.2712 5.78154 20.0005V35.1435C5.78154 35.8728 6.22661 36.72 6.77356 37.0364L13.1681 40.7283H13.1707ZM32.2899 29.5319V54.0723C32.2899 54.933 32.0084 55.5362 31.5606 55.7963L31.5499 55.8043L31.5338 55.8124C31.5338 55.8124 31.5285 55.8124 31.5258 55.8177C31.1585 56.0027 30.6866 55.9732 30.1718 55.6756L3.7975 40.4522C2.6178 39.7658 1.65527 37.9372 1.65527 36.3607V11.8203H1.66332L32.2899 29.5024V29.5319Z" fill="white"/>
<path d="M32.2899 25.8876V29.4991L1.66332 11.817H1.65527V8.19214C1.65527 7.30468 1.9636 6.68802 2.43816 6.44136C2.43816 6.44136 2.44353 6.436 2.44889 6.436C2.8162 6.251 3.2854 6.28049 3.7975 6.5781L7.09261 8.47902H7.10066C7.06312 8.62112 7.03363 8.75518 7.00414 8.8946C6.77892 10.0207 6.81378 11.0744 7.0953 11.9216C7.21595 12.2996 7.38486 12.6455 7.59935 12.9512C7.89427 13.3721 8.26427 13.7046 8.7013 13.9351C8.89434 14.0397 9.10615 14.0906 9.30991 14.0906C9.77643 14.0906 10.2269 13.8386 10.4628 13.3962C10.8006 12.7608 10.5593 11.9725 9.92389 11.6347C9.84882 11.5972 9.78447 11.5382 9.72817 11.4551C9.6665 11.3693 9.61824 11.2647 9.57266 11.1226C9.46274 10.7875 9.43324 10.3424 9.48955 9.84908L22.9059 17.5949C22.8684 17.737 22.8362 17.8791 22.8067 18.0212C22.5842 19.1473 22.6164 20.2009 22.8979 21.0509C23.0186 21.4289 23.1875 21.7748 23.3993 22.0804C23.6969 22.504 24.0696 22.8365 24.5039 23.0644C24.6969 23.1716 24.9088 23.2199 25.1125 23.2199C25.579 23.2199 26.0321 22.9706 26.2627 22.5282C26.6032 21.8901 26.3619 21.1018 25.7265 20.7667C25.6568 20.7291 25.5898 20.6648 25.5308 20.5817C25.4718 20.4959 25.4209 20.3913 25.3753 20.2519C25.2653 19.9221 25.2385 19.4878 25.2895 19.0052L30.1396 21.8043C31.322 22.4906 32.2792 24.3218 32.2792 25.8984L32.2899 25.8876Z" fill="#373A3A"/>
<path d="M27.9477 44.0168V47.9313C27.9477 48.6606 27.5026 48.9984 26.9583 48.6793L20.3413 44.8614V39.7109L27.8002 44.0168H27.9477Z" fill="white"/>
<path d="M27.9477 43.783V44.0216H27.8002L20.3413 39.7157V34.2891L27.8002 38.595H27.9477V43.783Z" fill="white"/>
<path d="M27.946 37.6272V38.5897H27.7985L20.3396 34.2838L13.1702 30.1442L5.78369 25.8785V19.9934C5.78369 19.2641 6.22876 18.9263 6.77571 19.2453L13.1702 22.9346L20.42 27.1198L26.9566 30.8949C27.5009 31.2112 27.946 32.0585 27.946 32.7878V37.6272Z" fill="#FF4F4F"/>
<path d="M16.3949 8.84117L24.8753 13.7369C24.8592 13.7557 24.8431 13.7718 24.8324 13.7905C23.9235 14.9193 23.2506 16.2545 22.9101 17.5924L9.49365 9.84391C9.50974 9.70181 9.53387 9.55435 9.56336 9.40421C9.77517 8.34516 10.3221 7.21372 11.0594 6.29409C11.1077 6.23779 11.1533 6.1788 11.2069 6.11982C11.2632 6.05547 11.3168 5.9938 11.3704 5.9375L13.8317 7.3585L14.1132 7.51937L15.2635 8.18429L16.3922 8.83849L16.3949 8.84117Z" fill="#646464"/>
<path d="M20.3407 40.7125V44.8683H20.3381L13.1714 40.7286V35.5781L20.3407 39.7178V40.7125Z" fill="white"/>
<path d="M20.3407 34.2881V39.7147L13.1714 35.5751V35.3364V30.1484L20.3407 34.2881Z" fill="white"/>
<path d="M16.2328 3.35275C17.1229 4.62361 17.2194 6.54062 16.4929 8.61582C16.466 8.69357 16.4312 8.76865 16.391 8.83567L15.2622 8.18148L14.112 7.51656C14.5061 6.24838 14.3989 5.27513 14.1013 4.85151C13.9833 4.68796 13.8546 4.61557 13.6455 4.60752C13.1682 4.58071 12.2942 4.92122 11.3665 5.93469C11.3102 5.99367 11.2566 6.05534 11.203 6.117C11.1493 6.17867 11.1038 6.23765 11.0555 6.29128C10.3155 7.21091 9.77125 8.34235 9.55944 9.40139C9.52994 9.55154 9.50581 9.699 9.48973 9.8411C9.43342 10.3344 9.46292 10.7795 9.57284 11.1146C9.61842 11.2567 9.66668 11.3613 9.72835 11.4471C9.78733 11.5329 9.85168 11.5919 9.92407 11.6267C10.5595 11.9646 10.8008 12.7528 10.463 13.3882C10.227 13.8306 9.77661 14.0827 9.31009 14.0827C9.10632 14.0827 8.89452 14.0317 8.70147 13.9271C8.26177 13.6966 7.89445 13.3641 7.59953 12.9432C7.38504 12.6375 7.21344 12.2917 7.09547 11.9136C6.81395 11.0664 6.7791 10.0127 7.00431 8.88662C7.03381 8.7472 7.0633 8.61314 7.10084 8.47372C7.43866 7.12779 8.1143 5.79259 9.02589 4.65578C9.02589 4.65578 9.0393 4.6397 9.04198 4.63702C9.0527 4.62629 9.06075 4.61557 9.07147 4.60484C9.12241 4.53513 9.17871 4.46811 9.23234 4.40644C10.6078 2.81116 12.2674 1.93175 13.7715 2.00414C14.7823 2.05508 15.6563 2.53233 16.2328 3.35543V3.35275Z" fill="white"/>
<path d="M13.1702 35.5755V40.726L6.77571 37.034C6.22876 36.7177 5.78369 35.8704 5.78369 35.1412V31.3125L13.1702 35.5728V35.5755Z" fill="white"/>
<path d="M13.1702 35.3365V35.5751L5.78369 31.3148V31.0708V25.8828L13.1702 30.1485V35.3365Z" fill="white"/>
<path d="M9.07405 4.61414C9.07405 4.61414 9.05529 4.63559 9.04456 4.64631C9.04456 4.64631 9.03116 4.6624 9.02848 4.66508C8.11689 5.7992 7.44124 7.13709 7.10342 8.48302H7.09538L3.80026 6.57941C3.29085 6.28449 2.81897 6.25231 2.45165 6.43731L2.44629 6.42391L6.98545 4.05646C7.35813 3.8661 7.83001 3.89828 8.34747 4.19588L9.07137 4.61414H9.07405Z" fill="#646464"/>
<path d="M5.78369 31.3125L13.1702 35.5728L20.3396 39.7125L27.7985 44.0184" stroke="#646464" stroke-width="0.670284" stroke-linecap="round" stroke-linejoin="round"/>
<path d="M13.1714 30.1484V35.3364V35.5751V40.7255V40.7336" stroke="#646464" stroke-width="0.670284" stroke-linecap="round" stroke-linejoin="round"/>
<path d="M20.3413 34.2891V39.7157V40.7104V44.8661" stroke="#646464" stroke-width="0.670284" stroke-linecap="round" stroke-linejoin="round"/>
<path d="M25.2529 18.9688L25.2985 18.9956L30.1487 21.7947C31.3311 22.481 32.2882 24.3123 32.2882 25.8888V54.0729C32.2882 54.9335 32.0067 55.5367 31.559 55.7968" stroke="#3A3A3A" stroke-width="0.670284" stroke-linecap="round" stroke-linejoin="round"/>
<path d="M1.66113 11.8203L32.2877 29.5024L32.3387 29.5319L36.851 26.9285L36.8805 26.9124" stroke="#3A3A3A" stroke-width="0.670284" stroke-linecap="round" stroke-linejoin="round"/>
<path d="M2.44629 6.42391L6.98545 4.05646C7.35813 3.8661 7.83001 3.89828 8.34747 4.19588L9.07137 4.61414" stroke="#3A3A3A" stroke-width="0.670284" stroke-linecap="round" stroke-linejoin="round"/>
<path d="M11.373 5.9375L13.8343 7.3585L14.1158 7.52205L15.2661 8.18697L16.3975 8.84117L24.8779 13.7369" stroke="#3A3A3A" stroke-width="0.670284" stroke-linecap="round" stroke-linejoin="round"/>
<path d="M2.44043 6.44136C2.44043 6.44136 2.44579 6.436 2.45115 6.436C2.81847 6.251 3.28767 6.28049 3.79976 6.5781L7.09488 8.47902" stroke="#3A3A3A" stroke-width="0.670284" stroke-linecap="round" stroke-linejoin="round"/>
<path d="M27.1502 15.0708H27.1582L29.6383 16.5052L29.9064 16.6607L31.0432 17.3175L32.1854 17.9771L34.7137 19.4356C35.8907 20.1166 36.8505 21.9479 36.8505 23.5244V51.6897C36.8505 52.5771 36.5449 53.1965 36.0703 53.4432L31.5553 55.7918L31.5446 55.7999L31.5285 55.8079C31.5285 55.8079 31.5231 55.8079 31.5204 55.8133C31.1531 55.9983 30.6812 55.9688 30.1665 55.6712L3.7975 40.445C2.6178 39.7586 1.65527 37.9301 1.65527 36.3536V8.18828C1.65527 7.30083 1.9636 6.68416 2.43816 6.4375" stroke="#3A3A3A" stroke-width="0.670284" stroke-linecap="round" stroke-linejoin="round"/>
<path d="M9.49365 9.84375L22.9101 17.5922" stroke="#3A3A3A" stroke-width="0.670284" stroke-linecap="round" stroke-linejoin="round"/>
<path d="M29.919 16.649C30.3158 15.3809 30.2086 14.4076 29.911 13.9867C29.793 13.8231 29.6616 13.7507 29.4525 13.74C28.9699 13.7186 28.0905 14.0591 27.1574 15.0833C27.1065 15.1396 27.0582 15.1932 27.0073 15.2495C26.9563 15.3112 26.9108 15.3648 26.8652 15.4157C26.1225 16.3407 25.5782 17.4695 25.3664 18.5312C25.3343 18.6894 25.3101 18.8476 25.294 18.9977C25.2431 19.4803 25.2699 19.9147 25.3798 20.2444C25.4254 20.3839 25.4764 20.4884 25.5353 20.5742C25.597 20.66 25.664 20.7244 25.7311 20.7592C26.3665 21.0944 26.6078 21.8826 26.2673 22.5207C26.0367 22.9631 25.5836 23.2125 25.1171 23.2125C24.9133 23.2125 24.7015 23.1642 24.5085 23.0569C24.0714 22.8291 23.7014 22.4966 23.4038 22.073C23.192 21.7673 23.0204 21.4215 22.9025 21.0434C22.6209 20.1935 22.5888 19.1398 22.8113 18.0137C22.8408 17.8716 22.873 17.7295 22.9105 17.5874C23.251 16.2495 23.924 14.917 24.8329 13.7856C24.8436 13.7668 24.8597 13.7507 24.8758 13.732C24.9267 13.6703 24.983 13.6006 25.0393 13.5389C26.4094 11.9383 28.0583 11.0616 29.5731 11.1286C30.5866 11.1768 31.4606 11.6568 32.0398 12.4826C32.9326 13.7507 33.0264 15.6704 32.2972 17.7403C32.2703 17.8207 32.2382 17.8958 32.1953 17.9628" stroke="#3A3A3A" stroke-width="0.670284" stroke-linecap="round" stroke-linejoin="round"/>
<path d="M14.112 7.51924C14.5061 6.25106 14.3989 5.27781 14.1013 4.85419C13.9833 4.69064 13.8546 4.61825 13.6455 4.61021C13.1682 4.58339 12.2942 4.9239 11.3665 5.93737C11.3102 5.99635 11.2566 6.05802 11.203 6.11969C11.1493 6.18135 11.1038 6.24034 11.0555 6.29396C10.3155 7.21359 9.77125 8.34503 9.55944 9.40408C9.52994 9.55422 9.50581 9.70168 9.48973 9.84378C9.43342 10.3371 9.46292 10.7822 9.57284 11.1173C9.61842 11.2594 9.66668 11.364 9.72835 11.4498C9.78733 11.5356 9.85168 11.5946 9.92407 11.6294C10.5595 11.9672 10.8008 12.7555 10.463 13.3909C10.227 13.8333 9.77661 14.0853 9.31009 14.0853C9.10632 14.0853 8.89452 14.0344 8.70147 13.9298C8.26177 13.6993 7.89445 13.3668 7.59953 12.9459C7.38504 12.6402 7.21344 12.2943 7.09547 11.9163C6.81395 11.0691 6.7791 10.0154 7.00431 8.8893C7.03381 8.74988 7.0633 8.61582 7.10084 8.4764C7.43866 7.13047 8.1143 5.79527 9.02589 4.65847C9.02589 4.65847 9.0393 4.64238 9.04198 4.6397C9.0527 4.62897 9.06075 4.61825 9.07147 4.60752C9.12241 4.53782 9.17872 4.47079 9.23234 4.40912C10.6078 2.81116 12.2674 1.93175 13.7715 2.00414C14.7823 2.05508 15.6563 2.53233 16.2328 3.35543C17.1229 4.62629 17.2194 6.5433 16.4929 8.6185C16.466 8.69626 16.4312 8.77133 16.391 8.83836" stroke="#3A3A3A" stroke-width="0.670284" stroke-linecap="round" stroke-linejoin="round"/>
<path d="M27.9447 38.5897V47.9308C27.9447 48.6601 27.4997 48.9979 26.9554 48.6788L20.3384 44.8609L13.1717 40.7212L6.77718 37.0293C6.23022 36.7129 5.78516 35.8657 5.78516 35.1364V19.9934C5.78516 19.2641 6.23022 18.9263 6.77718 19.2453L13.1717 22.9346L20.4215 27.1198L26.9581 30.8949C27.5023 31.2112 27.9474 32.0585 27.9474 32.7878V38.5897H27.9447Z" stroke="#3A3A3A" stroke-width="0.670284" stroke-linecap="round" stroke-linejoin="round"/>
<path d="M5.78369 25.8828L13.1702 30.1485L20.3396 34.2882L27.7985 38.5941" stroke="#3A3A3A" stroke-width="0.670284" stroke-linecap="round" stroke-linejoin="round"/>
<path d="M9.75146 24.2578L23.7711 32.3522" stroke="#3A3A3A" stroke-width="0.670284" stroke-linecap="round" stroke-linejoin="round"/>
<path d="M22.0552 29.8359L23.7738 32.3508L22.0552 32.8817" stroke="#3A3A3A" stroke-width="0.670284" stroke-linecap="round" stroke-linejoin="round"/>
</g>
<defs>
<clipPath id="clip0_4350_32840">
<rect width="37.6294" height="57.238" fill="white"/>
</clipPath>
</defs>
</svg>
