<svg width="48" height="52" viewBox="0 0 48 52" fill="none" xmlns="http://www.w3.org/2000/svg">
<g clip-path="url(#clip0_4350_32814)">
<path d="M39.092 51.5242L46.969 46.9768L46.2934 44.1113C45.9557 42.6794 45.3288 41.3316 44.4511 40.1508C43.5733 38.97 42.4634 37.9813 41.1894 37.2453L27.9338 29.6016L20.064 34.1392L33.3148 41.8024C34.5886 42.5374 35.6985 43.5253 36.5762 44.7052C37.454 45.8852 38.081 47.2322 38.4187 48.6636L39.092 51.5242Z" fill="white" stroke="#373A3A" stroke-width="0.729135" stroke-linecap="round" stroke-linejoin="round"/>
<path d="M13.9635 0.367188L4.34863 17.0206L10.0286 13.742V34.1237L17.8984 29.5812V9.19701L23.5784 5.91833L13.9635 0.367188Z" fill="white" stroke="#373A3A" stroke-width="0.729135" stroke-linecap="round" stroke-linejoin="round"/>
<path d="M0.365234 33.9609V37.1035L16.6517 46.5069V43.3619L0.365234 33.9609Z" fill="white"/>
<path d="M0.365234 30.9062V33.9589L16.6517 43.3599V40.3097L0.365234 30.9062Z" fill="white"/>
<path d="M0.365234 27.7422V30.9066L16.6517 40.31V37.1432L0.365234 27.7422Z" fill="white"/>
<path d="M0.365234 27.7404L16.6492 37.1438L46.7868 19.7418L30.5028 10.3359L0.365234 27.7404ZM19.6873 25.9807C17.5412 24.7461 17.5412 22.7337 19.6873 21.4966C21.8334 20.2595 25.3138 20.2595 27.4647 21.4966C29.6157 22.7337 29.6108 24.7461 27.4647 25.9807C25.3187 27.2154 21.8407 27.2227 19.6873 25.9807Z" fill="white"/>
<path d="M16.6514 43.363V46.508L46.7962 29.1059V25.9609L16.6514 43.363Z" fill="#C2C7CC"/>
<path d="M16.6514 40.3083V43.3585L46.7962 25.9565V22.9062L16.6514 40.3083Z" fill="#C2C7CC"/>
<path d="M16.6514 37.1418V40.3087L46.7962 22.9066V19.7422L16.6514 37.1418Z" fill="#C2C7CC"/>
<path d="M19.6872 21.4981C17.5411 22.7352 17.5411 24.7476 19.6872 25.9823C21.8333 27.217 25.3137 27.2267 27.4646 25.9823C29.6156 24.7379 29.6107 22.7352 27.4646 21.4981C25.3186 20.261 21.8406 20.261 19.6872 21.4981Z" fill="#FF4F4F"/>
<path d="M33.954 15.3523L30.5076 13.3594L26.998 15.3888" stroke="#373A3A" stroke-width="0.729135" stroke-linecap="round" stroke-linejoin="round"/>
<path d="M38.1076 17.75L41.554 19.7405L38.0444 21.7675" stroke="#373A3A" stroke-width="0.729135" stroke-linecap="round" stroke-linejoin="round"/>
<path d="M9.09754 25.7266L5.60498 27.7438L9.04893 29.7319" stroke="#373A3A" stroke-width="0.729135" stroke-linecap="round" stroke-linejoin="round"/>
<path d="M20.1464 32.1016L16.6515 34.1188L13.2051 32.1283" stroke="#373A3A" stroke-width="0.729135" stroke-linecap="round" stroke-linejoin="round"/>
<path d="M19.6872 25.9823C17.5411 24.7476 17.5411 22.7352 19.6872 21.4981C21.8333 20.261 25.3137 20.261 27.4646 21.4981C29.6156 22.7352 29.6107 24.7476 27.4646 25.9823C25.3186 27.217 21.8406 27.2243 19.6872 25.9823Z" stroke="#373A3A" stroke-width="0.729135" stroke-linecap="round" stroke-linejoin="round"/>
<path d="M16.6517 37.1414L46.7965 19.7418L30.5077 10.3359L0.365234 27.7404L16.6517 37.1414Z" stroke="#373A3A" stroke-width="0.729135" stroke-linecap="round" stroke-linejoin="round"/>
<path d="M46.7965 19.7422V29.1018L16.6517 46.5039L0.365234 37.1005V27.7408" stroke="#373A3A" stroke-width="0.729135" stroke-linecap="round" stroke-linejoin="round"/>
<path d="M46.7965 25.9609L16.6517 43.363L0.365234 33.962" stroke="#373A3A" stroke-width="0.729135" stroke-linecap="round" stroke-linejoin="round"/>
<path d="M46.7965 22.9062L16.6517 40.3083L0.365234 30.9049" stroke="#373A3A" stroke-width="0.729135" stroke-linecap="round" stroke-linejoin="round"/>
<path d="M16.6514 37.1484V46.5081" stroke="#373A3A" stroke-width="0.729135" stroke-linecap="round" stroke-linejoin="round"/>
</g>
<defs>
<clipPath id="clip0_4350_32814">
<rect width="47.333" height="51.8852" fill="white"/>
</clipPath>
</defs>
</svg>
