<svg width="20" height="21" viewBox="0 0 20 21" fill="none" xmlns="http://www.w3.org/2000/svg">
<path fill-rule="evenodd" clip-rule="evenodd" d="M9.99915 7.375C8.27326 7.375 6.87415 8.77411 6.87415 10.5C6.87415 12.2259 8.27326 13.625 9.99915 13.625C11.7251 13.625 13.1241 12.2259 13.1241 10.5C13.1241 8.77411 11.7251 7.375 9.99915 7.375ZM8.12415 10.5C8.12415 9.4645 8.96365 8.625 9.99915 8.625C11.0346 8.625 11.8741 9.4645 11.8741 10.5C11.8741 11.5355 11.0346 12.375 9.99915 12.375C8.96365 12.375 8.12415 11.5355 8.12415 10.5Z" fill="#FF4F4F"/>
<path fill-rule="evenodd" clip-rule="evenodd" d="M9.97798 1.54688C9.60765 1.54687 9.2984 1.54687 9.04456 1.56418C8.78031 1.58222 8.53073 1.62108 8.28874 1.72132C7.72722 1.95391 7.28109 2.40003 7.0485 2.96156C6.92742 3.25389 6.89462 3.56198 6.8821 3.89684C6.87203 4.16603 6.73618 4.39063 6.53569 4.50638C6.33521 4.62213 6.07277 4.62748 5.83462 4.50161C5.53835 4.34502 5.25514 4.21937 4.94142 4.17807C4.33884 4.09873 3.72942 4.26203 3.24722 4.63203C3.03942 4.79148 2.88096 4.98821 2.73322 5.20804C2.5913 5.41922 2.43671 5.687 2.25152 6.00777L2.23047 6.04422C2.04527 6.36497 1.89067 6.63274 1.77875 6.86123C1.66224 7.0991 1.5711 7.3347 1.53691 7.59438C1.45757 8.19697 1.62087 8.80639 1.99087 9.28862C2.18347 9.53954 2.43384 9.72204 2.71754 9.90029C2.94569 10.0436 3.0723 10.2736 3.07228 10.5052C3.07227 10.7367 2.94567 10.9667 2.71754 11.11C2.43381 11.2883 2.18341 11.4708 1.99079 11.7218C1.62079 12.204 1.4575 12.8134 1.53682 13.416C1.57102 13.6756 1.66216 13.9113 1.77867 14.1491C1.89059 14.3776 2.04519 14.6454 2.23038 14.9661L2.25143 15.0026C2.43662 15.3234 2.59122 15.5911 2.73314 15.8023C2.88087 16.0221 3.03934 16.2189 3.24714 16.3783C3.72933 16.7483 4.33876 16.9116 4.94134 16.8323C5.25504 16.791 5.53823 16.6654 5.83448 16.5088C6.07267 16.3829 6.33514 16.3882 6.53565 16.504C6.73617 16.6198 6.87203 16.8444 6.8821 17.1136C6.89462 17.4485 6.92742 17.7565 7.0485 18.0489C7.28109 18.6104 7.72722 19.0565 8.28874 19.2891C8.53073 19.3894 8.78031 19.4282 9.04456 19.4462C9.2984 19.4635 9.60765 19.4635 9.97798 19.4635H10.0201C10.3905 19.4635 10.6996 19.4635 10.9536 19.4462C11.2178 19.4282 11.4674 19.3894 11.7094 19.2891C12.2709 19.0565 12.7171 18.6104 12.9496 18.0489C13.0707 17.7565 13.1035 17.4485 13.116 17.1135C13.1261 16.8444 13.2619 16.6198 13.4624 16.504C13.6629 16.3882 13.9254 16.3829 14.1636 16.5087C14.4598 16.6653 14.743 16.791 15.0567 16.8322C15.6593 16.9115 16.2687 16.7483 16.7509 16.3783C16.9587 16.2188 17.1171 16.0221 17.2649 15.8023C17.4068 15.5911 17.5614 15.3234 17.7466 15.0026L17.7676 14.9661C17.9528 14.6454 18.1075 14.3775 18.2194 14.149C18.3359 13.9112 18.427 13.6756 18.4612 13.416C18.5406 12.8133 18.3772 12.2039 18.0072 11.7217C17.8146 11.4707 17.5642 11.2883 17.2806 11.11C17.0524 10.9667 16.9258 10.7367 16.9258 10.5051C16.9258 10.2736 17.0524 10.0437 17.2805 9.90037C17.5643 9.72212 17.8147 9.53971 18.0073 9.28862C18.3773 8.80645 18.5406 8.19703 18.4613 7.59444C18.4271 7.33476 18.336 7.09916 18.2195 6.86129C18.1076 6.63282 17.953 6.36507 17.7677 6.04433L17.7467 6.00786C17.5615 5.68708 17.4069 5.41927 17.265 5.2081C17.1172 4.98827 16.9588 4.79154 16.751 4.63208C16.2688 4.26209 15.6594 4.09879 15.0567 4.17812C14.7431 4.21942 14.4599 4.34506 14.1636 4.50164C13.9255 4.62753 13.663 4.62217 13.4625 4.50641C13.262 4.39065 13.1261 4.16602 13.116 3.8968C13.1035 3.56194 13.0707 3.25388 12.9496 2.96156C12.7171 2.40003 12.2709 1.95391 11.7094 1.72132C11.4674 1.62108 11.2178 1.58222 10.9536 1.56418C10.6996 1.54687 10.3905 1.54687 10.0201 1.54688H9.97798ZM8.76706 2.87617C8.8314 2.84953 8.92907 2.82498 9.12965 2.81128C9.3359 2.79722 9.60223 2.79688 9.99906 2.79688C10.3959 2.79688 10.6622 2.79722 10.8684 2.81128C11.0691 2.82498 11.1667 2.84953 11.231 2.87617C11.4862 2.98189 11.6891 3.18468 11.7947 3.43992C11.8281 3.52043 11.8557 3.64593 11.8669 3.94352C11.8916 4.60383 12.2324 5.23962 12.8375 5.58894C13.4425 5.93827 14.1636 5.91554 14.7477 5.60677C15.011 5.46762 15.1336 5.42881 15.2199 5.41743C15.4938 5.38137 15.7708 5.4556 15.99 5.62378C16.0452 5.66614 16.1153 5.73845 16.2275 5.90534C16.3428 6.0769 16.4762 6.30737 16.6746 6.65104C16.8731 6.99472 17.006 7.22552 17.0969 7.41115C17.1853 7.59172 17.2129 7.6886 17.222 7.7576C17.2581 8.0315 17.1838 8.30852 17.0156 8.52769C16.9626 8.59683 16.8677 8.68353 16.6155 8.84196C16.0561 9.19354 15.6759 9.80654 15.6758 10.5051C15.6758 11.2038 16.056 11.8169 16.6155 12.1685C16.8676 12.3269 16.9625 12.4135 17.0156 12.4827C17.1837 12.7019 17.258 12.9789 17.2219 13.2528C17.2128 13.3218 17.1852 13.4186 17.0968 13.5992C17.0059 13.7848 16.873 14.0156 16.6746 14.3593C16.4761 14.703 16.3427 14.9335 16.2274 15.105C16.1152 15.2719 16.0451 15.3442 15.9899 15.3865C15.7707 15.5548 15.4937 15.629 15.2198 15.593C15.1335 15.5815 15.0109 15.5427 14.7476 15.4036C14.1635 15.0948 13.4424 15.0721 12.8373 15.4215C12.2324 15.7708 11.8916 16.4065 11.8669 17.0669C11.8557 17.3645 11.8281 17.49 11.7947 17.5705C11.6891 17.8257 11.4862 18.0285 11.231 18.1343C11.1667 18.1609 11.0691 18.1855 10.8684 18.1991C10.6622 18.2132 10.3959 18.2135 9.99906 18.2135C9.60223 18.2135 9.3359 18.2132 9.12965 18.1991C8.92907 18.1855 8.8314 18.1609 8.76706 18.1343C8.5119 18.0285 8.30907 17.8257 8.20335 17.5705C8.17 17.49 8.14236 17.3645 8.13122 17.0669C8.10653 16.4066 7.76571 15.7708 7.16065 15.4215C6.5556 15.0721 5.83458 15.0949 5.25038 15.4036C4.98711 15.5428 4.86459 15.5816 4.77819 15.593C4.50428 15.629 4.22727 15.5548 4.0081 15.3866C3.95288 15.3443 3.88277 15.272 3.77062 15.105C3.65532 14.9335 3.52187 14.703 3.32345 14.3594C3.12502 14.0157 2.99216 13.7849 2.90123 13.5993C2.81278 13.4187 2.78522 13.3218 2.77613 13.2528C2.74007 12.9789 2.8143 12.7019 2.98248 12.4827C3.03553 12.4136 3.13041 12.3269 3.38257 12.1685C3.94205 11.817 4.32225 11.2039 4.32228 10.5053C4.32232 9.80654 3.94211 9.19346 3.38257 8.84187C3.13047 8.68345 3.03561 8.59677 2.98256 8.52763C2.81438 8.30846 2.74016 8.03145 2.77622 7.75754C2.7853 7.68855 2.81287 7.59167 2.90132 7.4111C2.99224 7.22547 3.12511 6.99466 3.32352 6.65098C3.52195 6.30732 3.6554 6.07684 3.7707 5.90528C3.88286 5.7384 3.95297 5.66608 4.00817 5.62372C4.22736 5.45554 4.50437 5.38132 4.77827 5.41737C4.86467 5.42875 4.9872 5.46757 5.25051 5.60674C5.83467 5.9155 6.55566 5.93822 7.16068 5.58892C7.76572 5.23961 8.10653 4.60385 8.13122 3.94356C8.14236 3.64595 8.17 3.52043 8.20335 3.43992C8.30907 3.18468 8.5119 2.98189 8.76706 2.87617Z" fill="#FF4F4F"/>
</svg>
