<svg width="43" height="42" viewBox="0 0 43 42" fill="none" xmlns="http://www.w3.org/2000/svg">
<path opacity="0.15" d="M21.3581 5.22656C19.2982 5.22656 17.2584 5.6323 15.3553 6.42061C13.4521 7.20891 11.7229 8.36436 10.2663 9.82096C8.80967 11.2776 7.65423 13.0068 6.86592 14.9099C6.07761 16.8131 5.67188 18.8529 5.67188 20.9128C5.67187 22.9728 6.07761 25.0125 6.86592 26.9157C7.65423 28.8188 8.80967 30.5481 10.2663 32.0047C11.7229 33.4613 13.4521 34.6167 15.3553 35.405C17.2584 36.1933 19.2982 36.5991 21.3581 36.5991C23.4181 36.5991 25.4578 36.1933 27.361 35.405C29.2641 34.6167 30.9934 33.4613 32.45 32.0047C33.9066 30.5481 35.062 28.8188 35.8503 26.9157C36.6386 25.0125 37.0444 22.9728 37.0444 20.9128C37.0444 18.8529 36.6386 16.8131 35.8503 14.9099C35.062 13.0068 33.9066 11.2776 32.45 9.82096C30.9934 8.36436 29.2641 7.20891 27.361 6.42061C25.4578 5.6323 23.4181 5.22656 21.3581 5.22656Z" fill="#FF0000"/>
<path d="M21.3579 38.3427C11.7718 38.3427 3.92871 30.4996 3.92871 20.9135C3.92871 11.3275 11.7718 3.48438 21.3579 3.48438C30.9439 3.48438 38.787 11.3275 38.787 20.9135C38.787 30.4996 30.9439 38.3427 21.3579 38.3427ZM21.3579 6.97021C13.689 6.97021 7.41454 13.2447 7.41454 20.9135C7.41454 28.5824 13.689 34.8569 21.3579 34.8569C29.0267 34.8569 35.3012 28.5824 35.3012 20.9135C35.3012 13.2447 29.0267 6.97021 21.3579 6.97021Z" fill="#FF0000"/>
<path d="M13.1006 15.125L15.5654 12.6601L29.4921 26.5863L27.0273 29.0512L13.1006 15.125Z" fill="#FF0000"/>
<path d="M13.1016 26.7109L27.0278 12.7843L29.4927 15.2491L15.5665 29.1758L13.1016 26.7109Z" fill="#FF0000"/>
</svg>