<svg width="170" height="38" viewBox="0 0 170 38" fill="none" xmlns="http://www.w3.org/2000/svg">
<path d="M62.3253 10.8463C60.7575 9.79615 58.816 9.26514 56.5549 9.26514C54.1162 9.26514 52.0851 9.83505 50.5174 10.9596C48.9547 12.0809 47.7878 13.5521 47.0521 15.3346C46.3215 17.1018 45.9512 19.0027 45.9512 20.988C45.9512 24.6747 46.9743 27.5801 48.9902 29.6246C51.0078 31.6726 53.8423 32.7109 57.4157 32.7109C59.3048 32.7109 60.837 32.5249 61.9701 32.1579C63.0914 31.7943 64.1484 31.3293 65.1022 30.778C65.454 30.5852 65.7533 30.3349 65.9934 30.0322C66.2522 29.7058 66.3824 29.3304 66.3824 28.916C66.3824 28.3411 66.1744 27.8591 65.7668 27.4837C65.366 27.1167 64.8908 26.929 64.3547 26.929C64.0215 26.929 63.7154 26.9983 63.4431 27.1336C62.6618 27.5242 61.8247 27.8439 60.9571 28.0823C60.098 28.3174 59.0241 28.4375 57.7641 28.4375C55.5284 28.4375 53.8017 27.8777 52.6314 26.7751C51.6623 25.8636 51.0112 24.6865 50.6899 23.2711C50.6205 22.965 50.8522 22.6724 51.1668 22.6724H64.8299C65.5165 22.6724 66.0763 22.4526 66.494 22.0179C66.9084 21.5884 67.1181 21.0523 67.1181 20.4266C67.1181 18.4649 66.7088 16.6232 65.9021 14.9507C65.092 13.2714 63.8896 11.8898 62.3286 10.8446L62.3253 10.8463ZM53.8795 13.8126C54.7826 13.4016 55.6823 13.1936 56.5532 13.1936C57.4242 13.1936 58.3239 13.4016 59.227 13.8126C60.1216 14.2201 60.8996 14.8678 61.5422 15.7405C62.0411 16.4203 62.3726 17.2811 62.5316 18.3076C62.5772 18.6052 62.3489 18.8741 62.0479 18.8741H51.4932C50.9723 18.8741 50.5867 18.3938 50.6933 17.8848C50.8691 17.0409 51.1685 16.3239 51.5879 15.7388C52.2136 14.8678 52.9848 14.2201 53.8795 13.8143V13.8126Z" fill="#23233C"/>
<path d="M73.9168 0C73.2894 0 72.7533 0.218155 72.322 0.649393C71.8908 1.08063 71.6726 1.63194 71.6726 2.2881V30.2492C71.6726 30.8766 71.8908 31.4144 72.322 31.8439C72.7533 32.2752 73.2894 32.4933 73.9168 32.4933C74.5442 32.4933 75.1226 32.2752 75.5556 31.8439C75.9868 31.4127 76.205 30.8766 76.205 30.2492V2.2881C76.205 1.63363 75.9868 1.08232 75.5556 0.649393C75.1243 0.218155 74.573 0 73.9185 0H73.9168Z" fill="#23233C"/>
<path d="M82.1647 15.3326C81.4341 17.0999 81.0637 19.0007 81.0637 20.9861C81.0637 24.6727 82.0869 27.5781 84.1028 29.6227C86.1204 31.6706 88.9548 32.709 92.5283 32.709C94.4173 32.709 95.9496 32.5229 97.0827 32.156C98.2039 31.7924 99.2609 31.3273 100.222 30.7726C100.567 30.5832 100.868 30.3329 101.106 30.0285C101.363 29.7021 101.495 29.3267 101.495 28.9141C101.495 28.3391 101.287 27.8571 100.879 27.4817C100.477 27.1147 100.002 26.927 99.4655 26.927C99.1324 26.927 98.8263 26.9963 98.554 27.1316C97.771 27.524 96.9355 27.8419 96.0679 28.0804C95.2088 28.3154 94.1349 28.4355 92.875 28.4355C90.6392 28.4355 88.9125 27.8757 87.7422 26.7731C86.8121 25.8971 86.1745 24.7776 85.8396 23.4365C85.7432 23.0476 86.0307 22.6704 86.4316 22.6704H99.9408C100.627 22.6704 101.187 22.4506 101.605 22.016C102.019 21.5864 102.229 21.0503 102.229 20.4246C102.229 18.4629 101.82 16.6213 101.013 14.9487C100.203 13.2694 99.0005 11.8878 97.4395 10.8427C95.8718 9.79249 93.9303 9.26147 91.6692 9.26147C89.2305 9.26147 87.1994 9.83139 85.6316 10.956C84.069 12.0772 82.902 13.5485 82.1664 15.3309L82.1647 15.3326ZM96.6565 15.7385C97.1283 16.3828 97.4513 17.1895 97.6205 18.1467C97.6864 18.5238 97.4023 18.8705 97.0201 18.8705H86.3605C85.9783 18.8705 85.6942 18.5255 85.7585 18.1484C85.9242 17.1895 86.2405 16.3794 86.7038 15.7351C87.3296 14.8642 88.1008 14.2165 88.9954 13.8106C89.8985 13.3997 90.7982 13.1917 91.6692 13.1917C92.5401 13.1917 93.4398 13.3997 94.3429 13.8106C95.2376 14.2182 96.0155 14.8659 96.6582 15.7385H96.6565Z" fill="#23233C"/>
<path d="M123.374 10.4574C122.178 9.66593 120.715 9.26514 119.026 9.26514C117.05 9.26514 115.391 9.69468 114.098 10.5436C113.362 11.0256 112.675 11.5448 112.048 12.0961C111.764 12.3464 111.317 12.1468 111.317 11.768C111.317 11.1102 111.091 10.5588 110.643 10.1259C110.198 9.69806 109.655 9.47991 109.031 9.47991C108.407 9.47991 107.867 9.69807 107.436 10.1293C107.005 10.5605 106.787 11.1118 106.787 11.768V30.2503C106.787 30.8778 107.005 31.4155 107.436 31.8451C107.867 32.2763 108.403 32.4945 109.031 32.4945C109.658 32.4945 110.198 32.278 110.643 31.8485C111.091 31.4172 111.317 30.8794 111.317 30.2503V20.3894C111.317 18.1503 112.366 16.0296 114.174 14.7106C114.184 14.7021 114.196 14.6953 114.206 14.6869C115.297 13.8971 116.599 13.4963 118.077 13.4963C119.665 13.4963 120.808 13.9276 121.478 14.7799C122.165 15.6542 122.511 16.8887 122.511 18.448V30.252C122.511 30.8794 122.729 31.4172 123.161 31.8468C123.592 32.278 124.128 32.4962 124.755 32.4962C125.383 32.4962 125.922 32.2797 126.367 31.8502C126.815 31.4189 127.042 30.8811 127.042 30.252V18.0167C127.042 16.4271 126.727 14.9558 126.108 13.6418C125.484 12.3193 124.563 11.2471 123.372 10.4591L123.374 10.4574Z" fill="#23233C"/>
<path d="M143.413 28.2638C143.002 28.2638 142.609 28.3366 142.246 28.4786C141.952 28.5936 141.475 28.6511 140.827 28.6511C140.499 28.6511 140.117 28.6156 139.69 28.5479C139.317 28.4888 139.004 28.3044 138.733 27.9848C138.468 27.6702 138.332 27.1291 138.332 26.3732V14.2782C138.332 13.94 138.606 13.6677 138.943 13.6677H142.895C143.469 13.6677 143.949 13.4698 144.323 13.0775C144.693 12.6902 144.881 12.2201 144.881 11.6806C144.881 11.1124 144.691 10.6338 144.317 10.2584C143.944 9.88465 143.465 9.69524 142.895 9.69524H138.943C138.605 9.69524 138.332 9.42128 138.332 9.08475V6.55482C138.332 6.24872 138.226 5.97645 138.014 5.74477C137.8 5.51139 137.521 5.38794 137.208 5.38794C136.966 5.38794 136.751 5.46066 136.567 5.60271C136.423 5.71602 136.325 5.79888 136.261 5.86146L130.413 11.5809C129.851 12.029 129.751 12.7088 130.213 13.436C130.304 13.5798 130.46 13.6677 130.629 13.6677H133.188C133.526 13.6677 133.798 13.9417 133.798 14.2782V26.7165C133.798 28.088 134.045 29.199 134.531 30.0175C135.016 30.8394 135.63 31.4499 136.352 31.8338C137.052 32.2075 137.783 32.4494 138.52 32.5559C139.237 32.6574 139.866 32.7098 140.394 32.7098C141.103 32.7098 141.772 32.6337 142.384 32.4849C142.985 32.3378 143.553 32.1467 144.089 31.9082L144.133 31.8862C144.886 31.4871 145.266 30.8918 145.266 30.119C145.266 29.5728 145.073 29.1195 144.691 28.7729C144.317 28.4346 143.886 28.2621 143.409 28.2621L143.413 28.2638Z" fill="#23233C"/>
<path d="M168.584 14.8726C167.642 13.1223 166.305 11.7339 164.614 10.7463C162.921 9.76036 160.92 9.26147 158.666 9.26147C156.411 9.26147 154.402 9.76036 152.696 10.7463C150.988 11.7339 149.65 13.1223 148.723 14.8743C147.798 16.6196 147.33 18.676 147.33 20.9844C147.33 23.2928 147.798 25.3492 148.723 27.0944C149.652 28.8481 150.988 30.2365 152.696 31.2225C154.4 32.2067 156.408 32.7073 158.666 32.7073C160.923 32.7073 162.924 32.2084 164.614 31.2225C166.306 30.2365 167.642 28.8481 168.584 27.0961C169.523 25.3509 170 23.2945 170 20.9844C170 18.6743 169.525 16.6196 168.584 14.8726ZM161.808 27.7743C160.763 28.2698 159.704 28.52 158.664 28.52C157.624 28.52 156.557 28.2681 155.498 27.7726C154.451 27.2838 153.575 26.4738 152.894 25.3678C152.209 24.2601 151.862 22.7702 151.862 20.9404C151.862 19.1106 152.209 17.6292 152.892 16.535C153.573 15.4442 154.449 14.6494 155.495 14.1742C156.557 13.6922 157.622 13.447 158.664 13.447C159.706 13.447 160.763 13.6905 161.811 14.1725C162.843 14.6477 163.721 15.4442 164.417 16.5367C165.114 17.6309 165.468 19.1123 165.468 20.9387C165.468 22.7651 165.114 24.255 164.416 25.3644C163.719 26.4721 162.841 27.2821 161.808 27.7709V27.7743Z" fill="#23233C"/>
<path d="M38.3226 35.2428C38.3226 36.2947 39.0887 37.1859 40.0645 37.2721C40.6108 37.3195 41.1317 37.1436 41.5325 36.7766C41.9282 36.4147 42.1548 35.8989 42.1548 35.3645V22.3733C42.1548 22.2921 42.1481 22.2042 42.1328 22.0959L42.1278 22.0452C42.0398 18.761 41.7777 16.27 41.387 15.0287C40.6497 12.6831 38.8012 10.7637 36.3152 9.75916C33.7293 8.71404 30.8289 8.82904 28.5577 10.0653C28.0977 10.3155 27.1303 11.0326 26.376 11.6329C25.9803 11.9492 25.4222 11.9221 25.0485 11.5721C22.9869 9.63064 19.958 8.69206 17.1455 9.12499L17.1236 9.12837C15.155 9.32454 13.4165 10.1177 12.099 11.4215C11.6948 11.8223 11.0623 11.8511 10.6277 11.4892C9.97321 10.943 9.24938 10.4762 8.47651 10.1025C7.71378 9.7321 6.87157 9.84879 6.22723 10.417C5.80951 10.784 5.61671 11.315 5.69789 11.8731C5.78245 12.4582 6.15282 12.9554 6.69062 13.2057C9.42865 14.4791 10.0899 17.1731 9.79564 19.2684C9.69417 19.9922 9.99689 20.7025 10.5668 21.0779C10.9169 21.3096 11.3262 21.411 11.749 21.3738C12.6605 21.2943 13.43 20.4268 13.43 19.4798L13.4334 18.4448C13.6143 17.1156 13.8629 15.2942 15.2463 14.0546L15.2599 14.0428C17.2132 12.4278 20.166 12.4869 22.1261 14.1781L22.1548 14.2051C23.3488 15.4481 24.0185 17.332 23.9492 19.243C23.9306 19.7301 23.9238 20.1697 23.9255 20.5891V20.6128C23.9238 20.6433 23.9204 20.6737 23.9154 20.7041V20.7227L23.9137 24.3079C23.9678 25.5814 24.8793 26.1513 25.7604 26.1513C26.6432 26.1513 27.5565 25.578 27.6072 24.2995C27.6208 23.552 27.6123 22.6811 27.6038 21.7594C27.5886 20.2188 27.5717 18.6257 27.6647 17.4132C27.9793 14.3675 30.4636 12.9486 32.6385 12.9131C32.6673 12.9131 32.6977 12.9131 32.7265 12.9131C35.1381 12.9131 37.7577 14.5112 38.2499 18.1167C38.3733 19.0181 38.4055 20.2425 38.3497 21.7628L38.4207 21.7493L38.3294 22.3226C38.3226 22.7267 38.3243 27.8238 38.326 31.2179C38.326 34.3769 38.326 35.1142 38.326 35.2428H38.3226Z" fill="#23233C"/>
<path d="M28.5152 17.4899C28.4256 18.6534 28.4425 20.2279 28.4577 21.7499C28.4679 22.6783 28.4763 23.5543 28.4611 24.3238C28.3884 26.1688 27.0084 27.0059 25.7586 27.0059C24.5088 27.0059 23.1288 26.1688 23.0561 24.3322V24.3153V20.7098C23.0561 20.6574 23.0628 20.6134 23.0662 20.5847V20.5728C23.0662 20.1467 23.073 19.7019 23.0916 19.2115C23.1524 17.5356 22.5758 15.8918 21.5492 14.8129C19.9307 13.4278 17.4142 13.3771 15.8093 14.6962C14.6745 15.7176 14.4547 17.2735 14.2839 18.53V19.477C14.2839 20.8739 13.1795 22.105 11.8215 22.2234C11.2059 22.2775 10.6072 22.127 10.0948 21.7888C9.24919 21.2307 8.79934 20.194 8.94647 19.1455C9.06823 18.2763 9.24243 15.3337 6.32851 13.9791C5.52858 13.6071 4.97556 12.8647 4.85041 11.9921C4.73034 11.1549 5.03306 10.3246 5.66049 9.77161C6.5602 8.98016 7.78124 8.81105 8.85007 9.32853C9.68383 9.73271 10.4668 10.2384 11.1755 10.8286C11.2685 10.9064 11.4071 10.8996 11.4968 10.81C12.9529 9.36912 14.8656 8.49142 17.027 8.27496C20.0914 7.80821 23.3892 8.83134 25.6351 10.9469C25.696 11.0027 25.7822 11.0095 25.8431 10.9622C26.1053 10.7525 27.4514 9.69043 28.1482 9.31162C28.6217 9.05457 29.1206 8.84149 29.6348 8.67237C27.1978 4.30081 22.7313 1.15362 17.3737 0.624294H17.3703C8.67926 -0.23649 0.938696 6.112 0.0778814 14.801C-0.781242 23.4917 5.56579 31.232 14.2568 32.0928H14.2602C22.9512 32.9536 30.6918 26.6051 31.5526 17.9161C31.6862 16.5632 31.6456 15.2323 31.4477 13.947C30.0018 14.3613 28.7215 15.5028 28.5152 17.4899Z" fill="#FC77B6"/>
<path d="M42.1309 22.0942L42.1258 22.0435C42.0379 18.7593 41.7757 16.2683 41.3851 15.027C40.6477 12.6814 38.7992 10.762 36.3132 9.75743C34.2618 8.92878 32.0142 8.83239 30.0372 9.44288C29.5231 9.60185 29.0259 9.80648 28.5557 10.0618C28.0957 10.3121 27.1284 11.0292 26.3741 11.6295C25.9784 11.9458 25.4203 11.9187 25.0465 11.5686C22.9849 9.62722 19.956 8.68864 17.1436 9.12157L17.1216 9.12495C15.1531 9.32112 13.4145 10.1143 12.0971 11.4181C11.6929 11.8189 11.0604 11.8477 10.6257 11.4858C9.97126 10.9395 9.24743 10.4728 8.47456 10.099C7.71183 9.72868 6.86962 9.84537 6.22528 10.4136C5.80755 10.7806 5.61476 11.3116 5.69594 11.8697C5.7805 12.4548 6.15087 12.952 6.68866 13.2023C9.4267 14.4757 10.088 17.1696 9.79368 19.265C9.69221 19.9888 9.99494 20.699 10.5649 21.0745C10.9149 21.3061 11.3242 21.4076 11.747 21.3704C12.6586 21.2909 13.428 20.4234 13.428 19.4763L13.4314 18.4414C13.6124 17.1122 13.861 15.2908 15.2444 14.0512L15.2579 14.0394C17.2112 12.4243 20.164 12.4835 22.1241 14.1747L22.1529 14.2017C23.3469 15.4447 24.0166 17.3286 23.9472 19.2396C23.9286 19.7266 23.9219 20.1663 23.9236 20.5857V20.6094C23.9219 20.6398 23.9185 20.6703 23.9134 20.7007V20.7193L23.9117 24.3045C23.9658 25.5779 24.8774 26.1478 25.7585 26.1478C26.6413 26.1478 27.5545 25.5746 27.6053 24.2961C27.6188 23.5486 27.6104 22.6777 27.6019 21.756C27.5867 20.2154 27.5698 18.6223 27.6628 17.4098C27.9131 14.983 29.5417 13.5895 31.2938 13.1059C31.7402 12.9824 32.1935 12.9182 32.6366 12.9097C32.6653 12.9097 32.6958 12.9097 32.7245 12.9097C35.1361 12.9097 37.7558 14.5078 38.2479 18.1133C38.3714 19.0147 38.4035 20.239 38.3477 21.7594L38.4187 21.7458L38.3274 22.3191C38.3206 22.7233 38.3223 27.8204 38.324 31.2145C38.324 34.3735 38.324 35.1108 38.324 35.2394C38.324 36.2912 39.0901 37.1825 40.0659 37.2687C40.6122 37.3161 41.1331 37.1402 41.5339 36.7732C41.9296 36.4113 42.1563 35.8955 42.1563 35.3611V22.3699C42.1563 22.2887 42.1495 22.2008 42.1343 22.0925L42.1309 22.0942Z" fill="#23233C"/>
</svg>
