<svg width="60" height="61" viewBox="0 0 80 81" fill="none" xmlns="http://www.w3.org/2000/svg">
<path d="M40.0026 7.0625V27.0625C40.0026 30.7444 42.9873 33.7292 46.6693 33.7292H66.6693V67.0625C66.6693 70.7445 63.6846 73.7292 60.0026 73.7292H37.3039C41.0399 69.8362 43.3359 64.5508 43.3359 58.7292C43.3359 46.7628 33.6356 37.0625 21.6693 37.0625C18.7163 37.0625 15.9012 37.6532 13.3359 38.7232V13.7292C13.3359 10.0473 16.3207 7.0625 20.0026 7.0625H40.0026Z" fill="#FF4D4F"/>
<path d="M45 8.73438V27.0677C45 27.9882 45.7463 28.7344 46.6667 28.7344H65L45 8.73438Z" fill="#FF4D4F"/>
<path d="M21.8662 40.6094C11.7411 40.6094 3.53125 48.8192 3.53125 58.9444C3.53125 69.0695 11.7411 77.2794 21.8662 77.2794C31.9914 77.2794 40.2012 69.0695 40.2012 58.9444C40.2012 48.8192 31.9914 40.6094 21.8662 40.6094ZM28.6355 65.91L25.9343 65.8978L21.8662 61.048L17.8023 65.8937L15.097 65.9059C14.917 65.9059 14.7696 65.7627 14.7696 65.5785C14.7696 65.5008 14.7983 65.4271 14.8474 65.3657L20.1719 59.0221L14.8474 52.6826C14.7979 52.6227 14.7705 52.5476 14.7696 52.4698C14.7696 52.2898 14.917 52.1424 15.097 52.1424L17.8023 52.1547L21.8662 57.0045L25.9302 52.1588L28.6314 52.1465C28.8114 52.1465 28.9588 52.2898 28.9588 52.4739C28.9588 52.5517 28.9301 52.6253 28.881 52.6867L23.5647 59.0262L28.8851 65.3698C28.9342 65.4312 28.9629 65.5049 28.9629 65.5826C28.9629 65.7627 28.8155 65.91 28.6355 65.91Z" fill="#FF4D4F"/>
</svg>
