<svg width="28" height="28" viewBox="0 0 33 33" fill="none" xmlns="http://www.w3.org/2000/svg">
<path d="M30.25 16.5C30.25 24.0934 24.0934 30.25 16.5 30.25C8.90656 30.25 2.75 24.0934 2.75 16.5C2.75 8.90656 8.90656 2.75 16.5 2.75C24.0934 2.75 30.25 8.90656 30.25 16.5Z" fill="url(#paint0_linear_33274_24235)"/>
<path opacity="0.05" d="M22.1181 11.1215L15.1248 18.1147L11.5691 14.559C11.0321 14.022 10.1618 14.022 9.62483 14.559L8.6527 15.5311C8.11577 16.068 8.11577 16.9384 8.6527 17.4753L14.1527 22.9753C14.6896 23.5123 15.56 23.5123 16.097 22.9753L25.0345 14.0378C25.5714 13.5009 25.5714 12.6305 25.0345 12.0936L24.0623 11.1215C23.5254 10.5845 22.655 10.5845 22.1181 11.1215Z" fill="black"/>
<path opacity="0.07" d="M14.3959 22.7325L8.89591 17.2325C8.49303 16.8296 8.49303 16.1765 8.89591 15.7743L9.86803 14.8022C10.2709 14.3993 10.924 14.3993 11.3262 14.8022L15.1253 18.6006L22.3613 11.3647C22.7642 10.9618 23.4173 10.9618 23.8195 11.3647L24.7916 12.3368C25.1945 12.7397 25.1945 13.3928 24.7916 13.795L15.8541 22.7325C15.4519 23.1347 14.7988 23.1347 14.3959 22.7325Z" fill="black"/>
<path d="M14.6391 22.4896L9.13911 16.9896C8.8703 16.7208 8.8703 16.2856 9.13911 16.0175L10.1112 15.0454C10.38 14.7765 10.8152 14.7765 11.0834 15.0454L15.1252 19.0872L22.6045 11.6079C22.8733 11.339 23.3085 11.339 23.5766 11.6079L24.5487 12.58C24.8175 12.8488 24.8175 13.284 24.5487 13.5521L15.6112 22.4896C15.3431 22.7584 14.9072 22.7584 14.6391 22.4896Z" fill="white"/>
<defs>
<linearGradient id="paint0_linear_33274_24235" x1="6.77738" y1="6.77738" x2="26.2226" y2="26.2226" gradientUnits="userSpaceOnUse">
<stop stop-color="#21AD64"/>
<stop offset="1" stop-color="#088242"/>
</linearGradient>
</defs>
</svg>
