<svg width="18" height="17" viewBox="0 0 18 19" fill="none" xmlns="http://www.w3.org/2000/svg">
<path d="M8.992 2.33594C4.8596 2.33594 1.49219 5.70335 1.49219 9.83575C1.49219 13.9682 4.8596 17.3356 8.992 17.3356C13.1244 17.3356 16.4918 13.9682 16.4918 9.83575C16.4918 5.70335 13.1244 2.33594 8.992 2.33594ZM12.2544 12.5132C12.1494 12.6932 11.9619 12.7907 11.7669 12.7907C11.6694 12.7907 11.5719 12.7682 11.4819 12.7082L9.157 11.3207C8.57951 10.9757 8.15202 10.2182 8.15202 9.55076V6.47584C8.15202 6.16834 8.40702 5.91335 8.71451 5.91335C9.022 5.91335 9.277 6.16834 9.277 6.47584V9.55076C9.277 9.82075 9.50199 10.2182 9.73448 10.3532L12.0594 11.7407C12.3294 11.8982 12.4194 12.2432 12.2544 12.5132Z" fill="#FF7A1A"/>
</svg>
