<svg width="18" height="20" viewBox="0 0 18 19" fill="none" xmlns="http://www.w3.org/2000/svg">
<path d="M8.0026 1.33594C4.32927 1.33594 1.33594 4.32927 1.33594 8.0026C1.33594 11.6759 4.32927 14.6693 8.0026 14.6693C11.6759 14.6693 14.6693 11.6759 14.6693 8.0026C14.6693 4.32927 11.6759 1.33594 8.0026 1.33594ZM10.2426 9.53594C10.4359 9.72927 10.4359 10.0493 10.2426 10.2426C10.1426 10.3426 10.0159 10.3893 9.88927 10.3893C9.7626 10.3893 9.63594 10.3426 9.53594 10.2426L8.0026 8.70927L6.46927 10.2426C6.36927 10.3426 6.2426 10.3893 6.11594 10.3893C5.98927 10.3893 5.8626 10.3426 5.7626 10.2426C5.56927 10.0493 5.56927 9.72927 5.7626 9.53594L7.29594 8.0026L5.7626 6.46927C5.56927 6.27594 5.56927 5.95594 5.7626 5.7626C5.95594 5.56927 6.27594 5.56927 6.46927 5.7626L8.0026 7.29594L9.53594 5.7626C9.72927 5.56927 10.0493 5.56927 10.2426 5.7626C10.4359 5.95594 10.4359 6.27594 10.2426 6.46927L8.70927 8.0026L10.2426 9.53594Z" fill="#F90000"/>
</svg>
