<svg width="36" height="36" viewBox="0 0 36 36" fill="none" xmlns="http://www.w3.org/2000/svg">
<g clip-path="url(#clip0_33652_24098)">
<path d="M28.2169 34.5667C31.7238 34.5667 34.5667 31.7238 34.5667 28.2169C34.5667 24.7101 31.7238 21.8672 28.2169 21.8672C24.7101 21.8672 21.8672 24.7101 21.8672 28.2169C21.8672 31.7238 24.7101 34.5667 28.2169 34.5667Z" stroke="black" stroke-width="1.41106" stroke-miterlimit="10"/>
<path d="M25.2109 28.3835L27.6951 30.6306L31.2037 25.1875" stroke="black" stroke-width="1.41106" stroke-miterlimit="10"/>
<path d="M22.2239 30.3287H9.16106C8.38145 30.3287 7.75 29.6972 7.75 28.9176V6.34074C7.75 5.56114 8.38145 4.92969 9.16106 4.92969H15.5108" stroke="black" stroke-width="1.41106" stroke-miterlimit="10" stroke-linejoin="round"/>
<path d="M19.7422 4.92969H26.0919C26.8715 4.92969 27.503 5.56114 27.503 6.34074V21.8624" stroke="black" stroke-width="1.41106" stroke-miterlimit="10" stroke-linejoin="round"/>
<path d="M19.7488 7.05588H15.5156V4.23377C15.5156 3.06471 16.4631 2.11719 17.6322 2.11719C18.8013 2.11719 19.7488 3.06471 19.7488 4.23377V7.05588Z" stroke="black" stroke-width="1.41106" stroke-miterlimit="10" stroke-linecap="round" stroke-linejoin="round"/>
<path d="M17.6274 4.92668C18.0171 4.92668 18.3329 4.61081 18.3329 4.22115C18.3329 3.8315 18.0171 3.51562 17.6274 3.51562C17.2378 3.51562 16.9219 3.8315 16.9219 4.22115C16.9219 4.61081 17.2378 4.92668 17.6274 4.92668Z" fill="black"/>
<path d="M23.2552 23.6492C22.9829 21.1791 19.6549 21.3802 19.1709 20.0806C19.1257 19.5768 19.1427 19.2248 19.1427 18.7641C19.3713 18.6441 19.7798 17.8808 19.8489 17.2352C20.0288 17.2204 20.311 17.0454 20.3943 16.354C20.4387 15.9829 20.2616 15.7741 20.153 15.7084C20.4451 14.8301 21.0518 12.1124 19.0312 11.8316C18.8231 11.4661 18.2904 11.2812 17.5983 11.2812C14.8298 11.332 14.4953 13.3724 15.1021 15.7084C14.9942 15.7741 14.8164 15.9829 14.8608 16.354C14.9441 17.0454 15.227 17.2204 15.4062 17.2352C15.4746 17.8801 15.9001 18.6441 16.1294 18.7641C16.1294 19.2248 16.1463 19.5761 16.1011 20.0806C15.5543 21.5537 11.9844 21.1586 11.9844 23.9808H22.9462" stroke="black" stroke-width="1.41106" stroke-miterlimit="10"/>
</g>
<defs>
<clipPath id="clip0_33652_24098">
<rect width="35.2764" height="35.2764" fill="white"/>
</clipPath>
</defs>
</svg>
