<svg width="36" height="36" viewBox="0 0 36 36" fill="none" xmlns="http://www.w3.org/2000/svg">
<path d="M10.5781 11.9922H24.6887" stroke="black" stroke-width="1.41106" stroke-miterlimit="10" stroke-linejoin="round"/>
<path d="M10.5781 16.2188H24.6887" stroke="black" stroke-width="1.41106" stroke-miterlimit="10" stroke-linejoin="round"/>
<path d="M18.35 24.8304C18.2795 24.4071 17.9267 24.0543 17.5034 23.9838C17.5034 23.9132 17.4329 23.9132 17.4329 23.8427C17.574 23.4193 17.5034 22.996 17.1507 22.7138C16.7979 22.4316 16.304 22.4316 15.9513 22.6433C15.8807 22.6433 15.8807 22.6433 15.8101 22.5727C15.669 22.1494 15.3163 21.8672 14.8224 21.8672C14.3991 21.8672 13.9758 22.1494 13.8347 22.5727C13.7641 22.5727 13.7641 22.5727 13.6936 22.6433C13.3408 22.4316 12.8469 22.4316 12.4942 22.7138C12.1414 22.996 12.0708 23.4193 12.212 23.8427C12.212 23.9132 12.1414 23.9132 12.1414 23.9838C11.7181 24.0543 11.3653 24.4071 11.2948 24.8304C11.2242 25.2537 11.4359 25.677 11.7886 25.8887C11.7886 25.9593 11.7886 26.0298 11.7886 26.1004C11.5064 26.4531 11.5064 26.8764 11.7181 27.2292C11.9297 27.582 12.3531 27.7936 12.7764 27.7231C12.8469 27.7936 12.9175 27.7936 12.9175 27.8642C12.9175 28.2875 13.1997 28.6403 13.5525 28.7814C13.9758 28.9225 14.3991 28.7814 14.6813 28.4992C14.7519 28.4992 14.7519 28.4992 14.8224 28.4992C14.893 28.4992 14.893 28.4992 14.9635 28.4992C15.1752 28.7108 15.4574 28.8519 15.7396 28.8519C15.8807 28.8519 15.9513 28.8519 16.0924 28.7814C16.5157 28.6403 16.7273 28.2875 16.7273 27.8642C16.7979 27.7936 16.8684 27.7936 16.8684 27.7231C17.2918 27.7936 17.7151 27.582 17.9267 27.2292C18.1384 26.8764 18.0678 26.3826 17.8562 26.1004C17.8562 26.0298 17.8562 25.9593 17.8562 25.8887C18.2089 25.677 18.4206 25.2537 18.35 24.8304Z" stroke="black" stroke-width="1.41106" stroke-miterlimit="10" stroke-linejoin="round"/>
<path d="M10.5847 31.7367H6.35156V3.51562H28.9285V31.7367H19.0511" stroke="black" stroke-width="1.41106" stroke-miterlimit="10" stroke-linejoin="round"/>
<path d="M17.6364 27.5078V33.8576L14.8143 31.741L11.9922 33.8576V27.5078" stroke="black" stroke-width="1.41106" stroke-miterlimit="10" stroke-linejoin="round"/>
</svg>
