<svg width="36" height="28" viewBox="0 0 36 28" fill="none" xmlns="http://www.w3.org/2000/svg">
<path d="M24.0819 8.40219H17.9219V2.24219" stroke="black" stroke-width="1.12" stroke-miterlimit="10" stroke-linecap="round"/>
<path d="M13.4394 12.8759C13.4394 10.0922 11.1831 7.83594 8.39938 7.83594C5.61561 7.83594 3.35938 10.0922 3.35938 12.8759V17.9159L5.31042 18.6966L5.71137 26.3159H11.0874L11.4883 18.6966L13.4394 17.9159V12.8759Z" stroke="black" stroke-width="1.12" stroke-miterlimit="10" stroke-linecap="round"/>
<path d="M8.39625 6.15969C9.63337 6.15969 10.6363 5.15681 10.6363 3.91969C10.6363 2.68257 9.63337 1.67969 8.39625 1.67969C7.15913 1.67969 6.15625 2.68257 6.15625 3.91969C6.15625 5.15681 7.15913 6.15969 8.39625 6.15969Z" stroke="black" stroke-width="1.12" stroke-miterlimit="10"/>
<path d="M18.1546 1.125H11.1406C11.4693 1.44644 11.7387 1.82556 11.9386 2.245H17.6904L24.0828 8.63684V25.765H12.8027L12.7439 26.885H25.2028V8.17316L18.1546 1.125Z" fill="black"/>
<path d="M8.39844 7.84375V8.96375" stroke="black" stroke-width="1.12" stroke-miterlimit="10"/>
<path d="M8.39844 9.52344V15.1234" stroke="black" stroke-width="1.12" stroke-miterlimit="10"/>
</svg>
