<svg width="36" height="30" viewBox="0 0 36 30" fill="none" xmlns="http://www.w3.org/2000/svg">
<g clip-path="url(#clip0_33652_24089)">
<path d="M25.4992 2.36497V27.256C25.4992 27.9079 24.9658 28.4413 24.3139 28.4413H5.34935C4.69744 28.4413 4.16406 27.9079 4.16406 27.256V2.36497C4.16406 1.71307 4.69744 1.17969 5.34935 1.17969H24.3139C24.9658 1.17969 25.4992 1.71307 25.4992 2.36497Z" stroke="black" stroke-width="1.41106" stroke-miterlimit="10" stroke-linecap="round" stroke-linejoin="round"/>
<path d="M14.8249 5.92188C18.0844 5.92188 20.7513 8.58877 20.7513 11.8483C20.7513 15.1079 18.0844 17.7747 14.8249 17.7747C11.5653 17.7747 8.89844 15.1079 8.89844 11.8483C8.89844 8.58877 11.5653 5.92188 14.8249 5.92188Z" stroke="black" stroke-width="1.41106" stroke-miterlimit="10"/>
<path d="M14.8226 5.92188C16.482 5.92188 17.7858 8.58877 17.7858 11.8483C17.7858 15.1079 16.482 17.7747 14.8226 17.7747C13.1632 17.7747 11.8594 15.1079 11.8594 11.8483C11.8594 8.58877 13.1632 5.92188 14.8226 5.92188Z" stroke="black" stroke-width="1.41106" stroke-miterlimit="10"/>
<path d="M14.8203 17.7669V5.91406" stroke="black" stroke-width="1.41106" stroke-miterlimit="10"/>
<path d="M8.89844 11.8438H20.7513" stroke="black" stroke-width="1.41106" stroke-miterlimit="10"/>
<path d="M7.71875 23.1094H21.9422" stroke="black" stroke-width="1.41106" stroke-miterlimit="10" stroke-linecap="round"/>
</g>
<defs>
<clipPath id="clip0_33652_24089">
<rect width="29.6322" height="29.6322" fill="white"/>
</clipPath>
</defs>
</svg>
