<svg width="35" height="30" viewBox="0 0 35 30" fill="none" xmlns="http://www.w3.org/2000/svg">
<g clip-path="url(#clip0_34335_23870)">
<path d="M11.2784 16.4832C11.24 16.0548 11.2784 15.7554 11.2784 15.3636C11.5466 15.2352 11.9858 14.7198 12.074 14.0964C12.074 14.0964 12.5378 13.8036 12.5378 13.3146C12.5378 12.9726 12.4244 12.72 12.3326 12.6276C12.581 11.8806 13.0064 9.5952 11.3684 9.5952C11.192 9.2844 10.7492 9 10.1606 9C7.80624 9.0432 7.60764 10.8684 8.06604 12.627C8.06604 12.627 7.82004 12.8754 7.83264 13.2258C7.85664 13.887 8.29644 14.0958 8.29644 14.0958C8.38044 14.7096 8.92344 15.261 9.11784 15.363C9.11784 15.7548 9.15624 16.0536 9.11784 16.4826C8.65224 17.736 5.54364 17.3838 5.39844 19.8H14.9984C14.8532 17.3838 11.7446 17.736 11.2784 16.4832Z" stroke="black" stroke-width="1.2" stroke-miterlimit="10" stroke-linecap="round" stroke-linejoin="round"/>
<path d="M17.3984 14.3984H24.5984" stroke="black" stroke-width="1.2" stroke-miterlimit="10" stroke-linecap="round" stroke-linejoin="round"/>
<path d="M17.3984 11.4062H24.5984" stroke="black" stroke-width="1.2" stroke-miterlimit="10" stroke-linecap="round" stroke-linejoin="round"/>
<path d="M24 30C20.7 30 18 27.3 18 24C18 20.7 20.7 18 24 18C27.3 18 30 20.7 30 24C30 27.3 27.3 30 24 30ZM24 19.2C21.36 19.2 19.2 21.36 19.2 24C19.2 26.64 21.36 28.8 24 28.8C26.64 28.8 28.8 26.64 28.8 24C28.8 21.36 26.64 19.2 24 19.2ZM27.48 22.02L26.58 21.24L23.34 25.02L21.36 23.52L20.64 24.48L23.46 26.64L27.48 22.02Z" fill="black"/>
<path d="M16.7953 23.3969C16.7953 23.1941 16.8091 22.9955 16.8253 22.7969H3.59531C2.93351 22.7969 2.39531 22.2587 2.39531 21.5969V7.19687C2.39531 6.53507 2.93351 5.99687 3.59531 5.99687H26.3953C27.0571 5.99687 27.5953 6.53507 27.5953 7.19687V17.1677C28.0261 17.4173 28.4269 17.7107 28.7953 18.0407V7.19687C28.7953 5.87327 27.7189 4.79688 26.3953 4.79688H3.59531C2.27171 4.79688 1.19531 5.87327 1.19531 7.19687V21.5969C1.19531 22.9205 2.27171 23.9969 3.59531 23.9969H16.8253C16.8091 23.7983 16.7953 23.5997 16.7953 23.3969Z" fill="black"/>
<path d="M17.3891 17.9891H20.0123C21.1523 17.2319 22.5185 16.7891 23.9891 16.7891H17.3891C17.0573 16.7891 16.7891 17.0579 16.7891 17.3891C16.7891 17.7203 17.0573 17.9891 17.3891 17.9891Z" fill="black"/>
</g>
<defs>
<clipPath id="clip0_34335_23870">
<rect width="30" height="30" fill="white"/>
</clipPath>
</defs>
</svg>
