<svg width="18" height="18" viewBox="0 0 18 18" fill="none" xmlns="http://www.w3.org/2000/svg">
<path d="M8.82285 1.64062C4.77074 1.64062 1.46875 4.94261 1.46875 8.99472C1.46875 13.0468 4.77074 16.3488 8.82285 16.3488C12.875 16.3488 16.1769 13.0468 16.1769 8.99472C16.1769 4.94261 12.875 1.64062 8.82285 1.64062ZM12.3381 7.30328L8.16833 11.4731C8.06537 11.576 7.92565 11.6348 7.77857 11.6348C7.63148 11.6348 7.49176 11.576 7.3888 11.4731L5.30759 9.39184C5.09432 9.17857 5.09432 8.82558 5.30759 8.61231C5.52086 8.39904 5.87385 8.39904 6.08712 8.61231L7.77857 10.3038L11.5586 6.52375C11.7718 6.31048 12.1248 6.31048 12.3381 6.52375C12.5514 6.73701 12.5514 7.08266 12.3381 7.30328Z" fill="#1CAD2B"/>
</svg>
