<svg width="61" height="60" viewBox="0 0 61 60" fill="none" xmlns="http://www.w3.org/2000/svg">
<g clip-path="url(#clip0_1284_16016)">
<path d="M30.25 60C46.8185 60 60.25 46.5685 60.25 30C60.25 13.4315 46.8185 0 30.25 0C13.6815 0 0.25 13.4315 0.25 30C0.25 46.5685 13.6815 60 30.25 60Z" fill="#90DFAA"/>
<path d="M43.8213 46.4516H17.6666C17.369 46.4516 17.1309 46.2135 17.1309 45.9159V14.0826C17.1309 13.785 17.369 13.5469 17.6666 13.5469H43.8213C44.119 13.5469 44.357 13.785 44.357 14.0826V45.9159C44.357 46.2135 44.119 46.4516 43.8213 46.4516Z" fill="#E6E9EE"/>
<path d="M21.7737 13.5469H19.2618C18.0832 13.5469 17.1309 14.4993 17.1309 15.6778V44.3326C17.1309 45.5112 18.0832 46.4635 19.2618 46.4635H21.7737V13.5469Z" fill="#324A5E"/>
<path d="M32.607 21.9062C28.1427 21.9062 24.5117 25.5372 24.5117 30.0015C24.5117 34.4658 28.1427 38.0967 32.607 38.0967C37.0712 38.0967 40.7022 34.4658 40.7022 30.0015C40.7022 25.5372 37.0712 21.9062 32.607 21.9062ZM39.8212 29.5729H36.9046C36.8331 26.8348 36.0712 24.5015 34.9284 23.1443C37.6546 24.0729 39.6546 26.5848 39.8212 29.5729ZM32.1784 22.8229V29.5729H29.1665C29.2736 26.1443 30.5712 23.2634 32.1784 22.8229ZM32.1784 30.4301V37.1801C30.5712 36.7396 29.2617 33.8705 29.1665 30.4301H32.1784ZM33.0355 37.1801V30.4301H36.0474C35.9522 33.8586 34.6427 36.7396 33.0355 37.1801ZM33.0355 29.5729V22.8229C34.6427 23.2634 35.9522 26.1324 36.0474 29.5729H33.0355ZM30.2974 23.1562C29.1546 24.5015 28.3927 26.8467 28.3212 29.5848H25.4046C25.5712 26.5848 27.5712 24.0729 30.2974 23.1562ZM25.3927 30.4301H28.3093C28.3808 33.1801 29.1546 35.5134 30.2974 36.8586C27.5712 35.9301 25.5712 33.4301 25.3927 30.4301ZM34.9165 36.8586C36.0712 35.5134 36.8331 33.1801 36.9046 30.4301H39.8212C39.6546 33.4301 37.6546 35.9301 34.9165 36.8586Z" fill="#54C0EB"/>
<path d="M19.4523 19.5472C20.0112 19.5472 20.4642 19.0942 20.4642 18.5353C20.4642 17.9765 20.0112 17.5234 19.4523 17.5234C18.8935 17.5234 18.4404 17.9765 18.4404 18.5353C18.4404 19.0942 18.8935 19.5472 19.4523 19.5472Z" fill="white"/>
<path d="M19.0717 19.1802H16.2503C15.8931 19.1802 15.6074 18.8945 15.6074 18.5374C15.6074 18.1802 15.8931 17.8945 16.2503 17.8945H19.0717C19.4289 17.8945 19.7146 18.1802 19.7146 18.5374C19.7146 18.8945 19.4289 19.1802 19.0717 19.1802Z" fill="#FF7058"/>
<path d="M19.4523 25.2738C20.0112 25.2738 20.4642 24.8208 20.4642 24.2619C20.4642 23.703 20.0112 23.25 19.4523 23.25C18.8935 23.25 18.4404 23.703 18.4404 24.2619C18.4404 24.8208 18.8935 25.2738 19.4523 25.2738Z" fill="white"/>
<path d="M19.0717 24.9185H16.2503C15.8931 24.9185 15.6074 24.6328 15.6074 24.2757C15.6074 23.9185 15.8931 23.6328 16.2503 23.6328H19.0717C19.4289 23.6328 19.7146 23.9185 19.7146 24.2757C19.7146 24.6209 19.4289 24.9185 19.0717 24.9185Z" fill="#FF7058"/>
<path d="M19.4523 31.0121C20.0112 31.0121 20.4642 30.559 20.4642 30.0002C20.4642 29.4413 20.0112 28.9883 19.4523 28.9883C18.8935 28.9883 18.4404 29.4413 18.4404 30.0002C18.4404 30.559 18.8935 31.0121 19.4523 31.0121Z" fill="white"/>
<path d="M19.0717 30.6412H16.2503C15.8931 30.6412 15.6074 30.3555 15.6074 29.9983C15.6074 29.6412 15.8931 29.3555 16.2503 29.3555H19.0717C19.4289 29.3555 19.7146 29.6412 19.7146 29.9983C19.7146 30.3555 19.4289 30.6412 19.0717 30.6412Z" fill="#FF7058"/>
<path d="M19.4523 36.7504C20.0112 36.7504 20.4642 36.2973 20.4642 35.7385C20.4642 35.1796 20.0112 34.7266 19.4523 34.7266C18.8935 34.7266 18.4404 35.1796 18.4404 35.7385C18.4404 36.2973 18.8935 36.7504 19.4523 36.7504Z" fill="white"/>
<path d="M19.0717 36.3795H16.2503C15.8931 36.3795 15.6074 36.0938 15.6074 35.7366C15.6074 35.3795 15.8931 35.0938 16.2503 35.0938H19.0717C19.4289 35.0938 19.7146 35.3795 19.7146 35.7366C19.7146 36.0818 19.4289 36.3795 19.0717 36.3795Z" fill="#FF7058"/>
<path d="M19.4523 42.4769C20.0112 42.4769 20.4642 42.0239 20.4642 41.465C20.4642 40.9062 20.0112 40.4531 19.4523 40.4531C18.8935 40.4531 18.4404 40.9062 18.4404 41.465C18.4404 42.0239 18.8935 42.4769 19.4523 42.4769Z" fill="white"/>
<path d="M19.0717 42.106H16.2503C15.8931 42.106 15.6074 41.8203 15.6074 41.4632C15.6074 41.106 15.8931 40.8203 16.2503 40.8203H19.0717C19.4289 40.8203 19.7146 41.106 19.7146 41.4632C19.7146 41.8203 19.4289 42.106 19.0717 42.106Z" fill="#FF7058"/>
</g>
<defs>
<clipPath id="clip0_1284_16016">
<rect width="60" height="60" fill="white" transform="translate(0.25)"/>
</clipPath>
</defs>
</svg>
