<svg width="61" height="60" viewBox="0 0 61 60" fill="none" xmlns="http://www.w3.org/2000/svg">
<g clip-path="url(#clip0_1284_15259)">
<path d="M30.75 60C47.3185 60 60.75 46.5685 60.75 30C60.75 13.4315 47.3185 0 30.75 0C14.1815 0 0.75 13.4315 0.75 30C0.75 46.5685 14.1815 60 30.75 60Z" fill="#FFD05B"/>
<path d="M48.4167 34.9628H19.2619C19.119 34.9628 19 34.8438 19 34.7009V15.3557C19 15.2128 19.119 15.0938 19.2619 15.0938H48.4167C48.5595 15.0938 48.6786 15.2128 48.6786 15.3557V34.7128C48.6786 34.8557 48.5595 34.9628 48.4167 34.9628Z" fill="#E6E9EE"/>
<path d="M48.6905 18.6914H19V23.3819H48.6905V18.6914Z" fill="#324A5E"/>
<path d="M42.238 44.9042H13.0832C12.9403 44.9042 12.8213 44.7852 12.8213 44.6423V25.2971C12.8213 25.1542 12.9403 25.0352 13.0832 25.0352H42.238C42.3808 25.0352 42.4999 25.1542 42.4999 25.2971V44.6423C42.4999 44.7852 42.3927 44.9042 42.238 44.9042Z" fill="#84DBFF"/>
<path d="M42.5 29.5949V26.0592C42.5 25.4877 42.0358 25.0234 41.4643 25.0234H13.8453C13.2739 25.0234 12.8096 25.4877 12.8096 26.0592V29.5949H42.5Z" fill="#54C0EB"/>
<path d="M39.4406 36.7493H34.262C34.2144 36.7493 34.1787 36.7135 34.1787 36.6659V32.3802C34.1787 32.3326 34.2144 32.2969 34.262 32.2969H39.4406C39.4882 32.2969 39.524 32.3326 39.524 32.3802V36.6659C39.524 36.7135 39.4882 36.7493 39.4406 36.7493Z" fill="#FFD05B"/>
<path d="M38.5241 33.2256V32.2852H38.417V33.2256H37.6789C37.5003 32.9756 37.2146 32.8328 36.9051 32.809V32.2852H36.7979V32.809C36.4646 32.8209 36.1789 32.9994 36.0003 33.2494H35.0479V32.2852H34.9408V33.2494H34.167V33.3566H35.9289C35.8575 33.4994 35.8218 33.6542 35.8218 33.8209C35.8218 33.9518 35.8456 34.0709 35.8932 34.1899H34.167V34.2971H35.9408C35.9884 34.3685 36.036 34.4399 36.0956 34.5113C35.9884 34.6304 35.9051 34.7613 35.8575 34.928H34.167V35.0352H35.9051C35.9289 35.0352 35.9527 35.0232 35.9527 34.9875C35.9884 34.8209 36.0837 34.6661 36.2146 34.5471C36.2265 34.5352 36.2265 34.5232 36.2265 34.5113C36.2265 34.4994 36.2146 34.4756 36.2146 34.4756C36.036 34.309 35.9289 34.0709 35.9289 33.8209C35.9289 33.3209 36.3337 32.9042 36.8456 32.9042C37.1551 32.9042 37.417 33.0471 37.5956 33.2971C37.6075 33.309 37.6194 33.3209 37.6432 33.3209H39.5241V33.2137H38.5241V33.2256ZM34.9408 36.7494V35.809H34.167V35.7018H36.0479C36.0598 35.7018 36.0837 35.7137 36.0956 35.7256C36.2622 35.9756 36.5479 36.1185 36.8456 36.1185C37.3456 36.1185 37.7503 35.7137 37.7503 35.2137C37.7503 34.9637 37.6551 34.7375 37.4765 34.559C37.4646 34.5471 37.4646 34.5352 37.4646 34.5233C37.4646 34.5113 37.4765 34.4875 37.4765 34.4875C37.6075 34.3685 37.6908 34.2137 37.7265 34.0471C37.7265 34.0232 37.7503 34.0113 37.7741 34.0113H39.5122V34.1185H37.8218C37.786 34.2733 37.7027 34.4161 37.5956 34.5352C37.6432 34.5828 37.6908 34.6423 37.7265 34.7018H39.5241V34.809H37.7741C37.8337 34.9399 37.8694 35.0828 37.8694 35.2256C37.8694 35.3685 37.8337 35.4994 37.786 35.6304H39.5241V35.7375H38.5837V36.7613H38.4765V35.7375H37.7265C37.5598 36.0233 37.2622 36.2137 36.9051 36.2375V36.7613H36.7979V36.2375C36.5003 36.2256 36.2146 36.0709 36.036 35.8209H35.0598V36.7613H34.9408V36.7494Z" fill="#F9B54C"/>
<path d="M23.9524 32.9898L23.9048 32.9422C22.2739 31.3112 20.1072 30.4064 17.7977 30.3945H17.512V30.4064C15.8096 30.4541 14.1905 30.9779 12.8096 31.9302V32.6445C14.1548 31.6088 15.7977 31.0374 17.5239 30.9898C17.5477 31.8707 17.7024 32.7279 18 33.5612C16.9643 34.1564 15.9286 34.9421 14.9286 35.8826L12.8096 33.7636V34.585L14.5239 36.2874C13.8929 36.9302 13.3096 37.6207 12.8096 38.3112V39.3469C13.381 38.4422 14.0953 37.5374 14.9286 36.6922L17.4048 39.1683L15.3215 41.2517C14.5834 40.5493 13.7381 40.0017 12.8215 39.6088V40.2398C13.5834 40.5969 14.2858 41.0731 14.9167 41.6683L12.8215 43.7636V43.8945C12.8215 44.0969 12.881 44.2755 12.9762 44.4302L15.3215 42.085C15.9643 42.7755 16.4643 43.5493 16.8215 44.4064C16.4286 44.6207 16.0358 44.7993 15.6548 44.9302H17.631C17.6072 44.835 17.5715 44.7398 17.5358 44.6564C18.5596 44.0612 19.5953 43.2755 20.5715 42.3469L23.1548 44.9302H24.2381C25.6072 43.4064 26.381 41.466 26.4405 39.4183H26.4524V39.1326C26.4524 36.8112 25.5715 34.6445 23.9524 32.9898ZM23.0834 38.1921C22.2143 37.835 21.4167 37.3231 20.7024 36.6683L23.7262 33.6445C24.381 34.5731 24.1429 36.2636 23.0834 38.1921ZM20.2977 36.2636C19.6191 35.5374 19.0834 34.716 18.7143 33.8112C20.6786 32.7755 22.3929 32.5493 23.3334 33.2279L20.2977 36.2636ZM18.3572 31.0017C18.4762 31.0136 18.5953 31.0255 18.7262 31.0374C18.8572 31.0493 19 31.0731 19.1429 31.0969C19.262 31.1207 19.381 31.1326 19.4881 31.1683C19.631 31.1921 19.7619 31.2398 19.9048 31.2755C20.0119 31.2993 20.131 31.335 20.2381 31.3707C20.3691 31.4183 20.5 31.466 20.6429 31.5136C20.75 31.5493 20.8572 31.585 20.9524 31.6326C21.0834 31.6922 21.2143 31.7517 21.3453 31.8231C21.4405 31.8707 21.5477 31.9183 21.6429 31.966C21.7739 32.0374 21.9048 32.1207 22.0358 32.2041C22.0834 32.2279 22.1191 32.2517 22.1667 32.2874C21.1429 32.2279 19.8929 32.5731 18.5239 33.2874C18.2739 32.5493 18.131 31.7755 18.1072 31.0017C18.1786 30.9898 18.2739 30.9898 18.3572 31.0017ZM15.3453 36.2874C16.2739 35.4183 17.25 34.6683 18.2262 34.1088C18.6191 35.0612 19.1905 35.9183 19.9048 36.6802L17.8215 38.7636L15.3453 36.2874ZM17.3096 44.0969C16.9286 43.2041 16.3929 42.3826 15.7262 41.6564L17.8215 39.5612L20.1786 41.9183C19.25 42.7755 18.2858 43.5255 17.3096 44.0969ZM18.2143 39.1683L20.3096 37.0731C21.0477 37.7636 21.8929 38.2993 22.7977 38.6802C22.2143 39.6445 21.4643 40.6088 20.5715 41.5136L18.2143 39.1683ZM23.6905 44.6445L20.9762 41.9183C21.9048 40.966 22.7143 39.9302 23.3334 38.8945C24.1429 39.1802 24.9881 39.335 25.8572 39.3826C25.8096 41.3469 25.0477 43.2041 23.6905 44.6445ZM23.631 38.3945C24.3572 37.0612 24.7024 35.835 24.6667 34.835C24.6667 34.8469 24.6786 34.8588 24.6905 34.8826C24.7739 35.0136 24.8572 35.1445 24.9286 35.2874C24.9762 35.3826 25.0239 35.4779 25.0715 35.5731C25.1429 35.7041 25.2024 35.835 25.2619 35.9779C25.3096 36.0731 25.3334 36.1802 25.381 36.2874C25.4286 36.4183 25.4762 36.5612 25.5239 36.6922C25.5596 36.7993 25.5834 36.9183 25.6072 37.0255C25.6429 37.1683 25.6786 37.2993 25.7143 37.4422C25.7381 37.5493 25.7619 37.6683 25.7739 37.7874C25.7977 37.9302 25.8215 38.0612 25.8334 38.2041C25.8453 38.3231 25.8572 38.4421 25.8572 38.5612C25.8572 38.6445 25.8691 38.7398 25.8691 38.8231C25.0953 38.7874 24.3453 38.6326 23.631 38.3945Z" fill="#54C0EB"/>
<path d="M15.0117 41.3359H15.4879V42.5264H15.2379V41.5621H15.0117V41.3359Z" fill="white"/>
<path d="M16.2256 41.5387C16.1542 41.5387 16.0946 41.5625 16.0589 41.6101C16.0232 41.6577 15.9994 41.7292 15.9875 41.8125C16.0589 41.7649 16.1423 41.7411 16.2256 41.7411C16.3327 41.7411 16.428 41.7768 16.4994 41.8482C16.5708 41.9196 16.6065 42.0149 16.6065 42.1339C16.6065 42.253 16.5708 42.3482 16.4875 42.4196C16.4042 42.4911 16.3089 42.5268 16.1899 42.5268C16.1065 42.5268 16.0351 42.5149 15.9756 42.4792C15.9161 42.4435 15.8684 42.4077 15.8327 42.3482C15.7613 42.2411 15.7256 42.0982 15.7256 41.9315C15.7256 41.8244 15.7375 41.7292 15.7613 41.6458C15.7851 41.5625 15.8208 41.503 15.8684 41.4554C15.9637 41.3601 16.0708 41.3125 16.2018 41.3125C16.2613 41.3125 16.3089 41.3244 16.3565 41.3363C16.4042 41.3482 16.4399 41.372 16.4756 41.3839C16.4994 41.3958 16.5351 41.4196 16.5708 41.4435L16.4399 41.6339C16.428 41.622 16.428 41.622 16.4042 41.6101C16.3923 41.5982 16.3684 41.5863 16.3327 41.5625C16.297 41.5387 16.2613 41.5387 16.2256 41.5387ZM16.1899 41.9673C16.1423 41.9673 16.0946 41.9792 16.0589 42.0149C16.0232 42.0506 16.0113 42.0863 16.0113 42.1339C16.0113 42.1815 16.0232 42.2292 16.0589 42.2649C16.0946 42.3006 16.1303 42.3125 16.1899 42.3125C16.2494 42.3125 16.2851 42.3006 16.3208 42.2649C16.3565 42.2292 16.3684 42.1935 16.3684 42.1458C16.3684 42.0982 16.3565 42.0506 16.3208 42.0149C16.2851 41.9792 16.2494 41.9673 16.1899 41.9673Z" fill="white"/>
<path d="M17.5474 41.3359V41.5621H17.0831V41.7645C17.1189 41.7526 17.1546 41.7526 17.2022 41.7526C17.3212 41.7526 17.4165 41.7883 17.4998 41.8597C17.5831 41.9312 17.6189 42.0264 17.6189 42.1336C17.6189 42.2526 17.5712 42.3478 17.4879 42.4193C17.4046 42.4907 17.2974 42.5383 17.1665 42.5383C16.9998 42.5383 16.8689 42.4788 16.7617 42.3597L16.9046 42.1693C16.9165 42.1812 16.9284 42.1931 16.9403 42.205C16.9522 42.2169 16.9879 42.2407 17.0355 42.2645C17.0831 42.2883 17.1308 42.3002 17.1665 42.3002C17.2141 42.3002 17.2498 42.2883 17.2855 42.2645C17.3212 42.2407 17.3331 42.1931 17.3331 42.1455C17.3331 42.0978 17.3093 42.0502 17.2736 42.0264C17.2379 42.0026 17.1903 41.9788 17.1308 41.9788C17.0712 41.9788 16.9998 42.0026 16.9165 42.0383L16.8093 41.9193V41.3359H17.5474Z" fill="white"/>
<path d="M18.226 42.0028V41.8004H18.476V42.0028H18.607V42.229H18.4879V42.5147H18.2379V42.229H17.7617V42.0266L18.1903 41.3242H18.476L18.0712 42.0028H18.226Z" fill="white"/>
<path d="M21.0352 41.5387C20.9637 41.5387 20.9042 41.5625 20.8685 41.6101C20.8328 41.6577 20.809 41.7292 20.7971 41.8125C20.8685 41.7649 20.9518 41.7411 21.0352 41.7411C21.1423 41.7411 21.2375 41.7768 21.309 41.8482C21.3804 41.9196 21.4161 42.0149 21.4161 42.1339C21.4161 42.253 21.3804 42.3482 21.2971 42.4196C21.2137 42.4911 21.1185 42.5268 20.9994 42.5268C20.9161 42.5268 20.8447 42.5149 20.7852 42.4792C20.7256 42.4435 20.678 42.4077 20.6423 42.3482C20.5709 42.2411 20.5352 42.0982 20.5352 41.9315C20.5352 41.8244 20.5471 41.7292 20.5709 41.6458C20.5947 41.5625 20.6304 41.503 20.678 41.4554C20.7733 41.3601 20.8804 41.3125 21.0113 41.3125C21.0709 41.3125 21.1185 41.3244 21.1661 41.3363C21.2137 41.3482 21.2494 41.372 21.2852 41.3839C21.309 41.3958 21.3447 41.4196 21.3804 41.4435L21.2494 41.6339C21.2375 41.622 21.2375 41.622 21.2137 41.6101C21.2018 41.5982 21.178 41.5863 21.1423 41.5625C21.1066 41.5387 21.0709 41.5387 21.0352 41.5387ZM20.9994 41.9673C20.9518 41.9673 20.9042 41.9792 20.8685 42.0149C20.8328 42.0506 20.8209 42.0863 20.8209 42.1339C20.8209 42.1815 20.8328 42.2292 20.8685 42.2649C20.9042 42.3006 20.9399 42.3125 20.9994 42.3125C21.059 42.3125 21.0947 42.3006 21.1304 42.2649C21.1661 42.2292 21.178 42.1935 21.178 42.1458C21.178 42.0982 21.1661 42.0506 21.1304 42.0149C21.0947 41.9792 21.0471 41.9673 20.9994 41.9673Z" fill="white"/>
<path d="M22.3453 41.3359V41.5621H21.881V41.7645C21.9167 41.7526 21.9524 41.7526 22 41.7526C22.1191 41.7526 22.2143 41.7883 22.2977 41.8597C22.381 41.9312 22.4167 42.0264 22.4167 42.1336C22.4167 42.2526 22.3691 42.3478 22.2858 42.4193C22.2024 42.4907 22.0953 42.5383 21.9643 42.5383C21.7977 42.5383 21.6667 42.4788 21.5596 42.3597L21.7024 42.1693C21.7143 42.1812 21.7262 42.1931 21.7381 42.205C21.75 42.2169 21.7858 42.2407 21.8334 42.2645C21.881 42.2883 21.9286 42.3002 21.9643 42.3002C22.012 42.3002 22.0477 42.2883 22.0834 42.2645C22.1191 42.2407 22.131 42.1931 22.131 42.1455C22.131 42.0978 22.1072 42.0502 22.0715 42.0264C22.0358 42.0026 21.9881 41.9788 21.9286 41.9788C21.8691 41.9788 21.7977 42.0026 21.7143 42.0383L21.6072 41.9193V41.3359H22.3453Z" fill="white"/>
<path d="M22.5469 41.3359H23.0231V42.5264H22.7731V41.5621H22.5469V41.3359Z" fill="white"/>
<path d="M23.7617 41.5387C23.6903 41.5387 23.6308 41.5625 23.5951 41.6101C23.5593 41.6577 23.5355 41.7292 23.5236 41.8125C23.5951 41.7649 23.6784 41.7411 23.7617 41.7411C23.8689 41.7411 23.9641 41.7768 24.0355 41.8482C24.107 41.9196 24.1427 42.0149 24.1427 42.1339C24.1427 42.253 24.107 42.3482 24.0236 42.4196C23.9403 42.4911 23.8451 42.5268 23.726 42.5268C23.6427 42.5268 23.5712 42.5149 23.5117 42.4792C23.4522 42.4435 23.4046 42.4077 23.3689 42.3482C23.2974 42.2411 23.2617 42.0982 23.2617 41.9315C23.2617 41.8244 23.2736 41.7292 23.2974 41.6458C23.3212 41.5625 23.357 41.503 23.4046 41.4554C23.4998 41.3601 23.607 41.3125 23.7379 41.3125C23.7974 41.3125 23.8451 41.3244 23.8927 41.3363C23.9403 41.3482 23.976 41.372 24.0117 41.3839C24.0355 41.3958 24.0712 41.4196 24.107 41.4435L23.976 41.6339C23.9641 41.622 23.9641 41.622 23.9403 41.6101C23.9284 41.5982 23.9046 41.5863 23.8689 41.5625C23.8451 41.5387 23.7974 41.5387 23.7617 41.5387ZM23.726 41.9673C23.6784 41.9673 23.6308 41.9792 23.5951 42.0149C23.5593 42.0506 23.5474 42.0863 23.5474 42.1339C23.5474 42.1815 23.5593 42.2292 23.5951 42.2649C23.6308 42.3006 23.6665 42.3125 23.726 42.3125C23.7855 42.3125 23.8212 42.3006 23.857 42.2649C23.8927 42.2292 23.9046 42.1935 23.9046 42.1458C23.9046 42.0982 23.8927 42.0506 23.857 42.0149C23.8212 41.9792 23.7855 41.9673 23.726 41.9673Z" fill="white"/>
<path d="M25.5947 41.3359H26.0709V42.5264H25.8209V41.5621H25.5947V41.3359Z" fill="white"/>
<path d="M26.8096 41.5387C26.7381 41.5387 26.6786 41.5625 26.6429 41.6101C26.6072 41.6577 26.5834 41.7292 26.5715 41.8125C26.6429 41.7649 26.7262 41.7411 26.8096 41.7411C26.9167 41.7411 27.012 41.7768 27.0834 41.8482C27.1548 41.9196 27.1905 42.0149 27.1905 42.1339C27.1905 42.253 27.1548 42.3482 27.0715 42.4196C26.9881 42.4911 26.8929 42.5268 26.7739 42.5268C26.6905 42.5268 26.6191 42.5149 26.5596 42.4792C26.5 42.4435 26.4524 42.4077 26.4167 42.3482C26.3453 42.2411 26.3096 42.0982 26.3096 41.9315C26.3096 41.8244 26.3215 41.7292 26.3453 41.6458C26.3691 41.5625 26.4048 41.503 26.4524 41.4554C26.5477 41.3601 26.6548 41.3125 26.7858 41.3125C26.8453 41.3125 26.8929 41.3244 26.9405 41.3363C26.9881 41.3482 27.0239 41.372 27.0596 41.3839C27.0834 41.3958 27.1191 41.4196 27.1548 41.4435L27.0239 41.6339C27.012 41.622 27.012 41.622 26.9881 41.6101C26.9762 41.5982 26.9524 41.5863 26.9167 41.5625C26.8929 41.5387 26.8453 41.5387 26.8096 41.5387ZM26.7739 41.9673C26.7262 41.9673 26.6786 41.9792 26.6429 42.0149C26.6072 42.0506 26.5953 42.0863 26.5953 42.1339C26.5953 42.1815 26.6072 42.2292 26.6429 42.2649C26.6786 42.3006 26.7143 42.3125 26.7739 42.3125C26.8334 42.3125 26.8691 42.3006 26.9048 42.2649C26.9405 42.2292 26.9524 42.1935 26.9524 42.1458C26.9524 42.0982 26.9405 42.0506 26.9048 42.0149C26.8691 41.9792 26.8334 41.9673 26.7739 41.9673Z" fill="white"/>
<path d="M28.1304 41.3359V41.5621H27.6662V41.7645C27.7019 41.7526 27.7376 41.7526 27.7852 41.7526C27.9043 41.7526 27.9995 41.7883 28.0828 41.8597C28.1662 41.9312 28.2019 42.0264 28.2019 42.1336C28.2019 42.2526 28.1543 42.3478 28.0709 42.4193C27.9876 42.4907 27.8804 42.5383 27.7495 42.5383C27.5828 42.5383 27.4519 42.4788 27.3447 42.3597L27.4876 42.1693C27.4995 42.1812 27.5114 42.1931 27.5233 42.205C27.5352 42.2169 27.5709 42.2407 27.6185 42.2645C27.6662 42.2883 27.7138 42.3002 27.7495 42.3002C27.7971 42.3002 27.8328 42.2883 27.8685 42.2645C27.9043 42.2407 27.9162 42.1931 27.9162 42.1455C27.9162 42.0978 27.8923 42.0502 27.8566 42.0264C27.8209 42.0026 27.7733 41.9788 27.7138 41.9788C27.6543 41.9788 27.5828 42.0026 27.4995 42.0383L27.3923 41.9193V41.3359H28.1304Z" fill="white"/>
<path d="M28.3213 41.3359H28.7975V42.5264H28.5475V41.5621H28.3213V41.3359Z" fill="white"/>
<path d="M31.2969 41.5387C31.2254 41.5387 31.1659 41.5625 31.1302 41.6101C31.0945 41.6577 31.0707 41.7292 31.0588 41.8125C31.1302 41.7649 31.2135 41.7411 31.2969 41.7411C31.404 41.7411 31.4993 41.7768 31.5707 41.8482C31.6421 41.9196 31.6778 42.0149 31.6778 42.1339C31.6778 42.253 31.6421 42.3482 31.5588 42.4196C31.4754 42.4911 31.3802 42.5268 31.2612 42.5268C31.1778 42.5268 31.1064 42.5149 31.0469 42.4792C30.9874 42.4435 30.9397 42.4077 30.904 42.3482C30.8326 42.2411 30.7969 42.0982 30.7969 41.9315C30.7969 41.8244 30.8088 41.7292 30.8326 41.6458C30.8564 41.5625 30.8921 41.503 30.9397 41.4554C31.035 41.3601 31.1421 41.3125 31.2731 41.3125C31.3326 41.3125 31.3802 41.3244 31.4278 41.3363C31.4754 41.3482 31.5112 41.372 31.5469 41.3839C31.5707 41.3958 31.6064 41.4196 31.6421 41.4435L31.5112 41.6339C31.4993 41.622 31.4993 41.622 31.4754 41.6101C31.4635 41.5982 31.4397 41.5863 31.404 41.5625C31.3683 41.5387 31.3326 41.5387 31.2969 41.5387ZM31.2612 41.9673C31.2135 41.9673 31.1659 41.9792 31.1302 42.0149C31.0945 42.0506 31.0826 42.0863 31.0826 42.1339C31.0826 42.1815 31.0945 42.2292 31.1302 42.2649C31.1659 42.3006 31.2016 42.3125 31.2612 42.3125C31.3207 42.3125 31.3564 42.3006 31.3921 42.2649C31.4278 42.2292 31.4397 42.1935 31.4397 42.1458C31.4397 42.0982 31.4278 42.0506 31.3921 42.0149C31.3564 41.9792 31.3207 41.9673 31.2612 41.9673Z" fill="white"/>
<path d="M32.6187 41.3359V41.5621H32.1544V41.7645C32.1901 41.7526 32.2259 41.7526 32.2735 41.7526C32.3925 41.7526 32.4878 41.7883 32.5711 41.8597C32.6544 41.9312 32.6901 42.0264 32.6901 42.1336C32.6901 42.2526 32.6425 42.3478 32.5592 42.4193C32.4759 42.4907 32.3687 42.5383 32.2378 42.5383C32.0711 42.5383 31.9402 42.4788 31.833 42.3597L31.9759 42.1693C31.9878 42.1812 31.9997 42.1931 32.0116 42.205C32.0235 42.2169 32.0592 42.2407 32.1068 42.2645C32.1544 42.2883 32.2021 42.3002 32.2378 42.3002C32.2854 42.3002 32.3211 42.2883 32.3568 42.2645C32.3925 42.2407 32.4044 42.1931 32.4044 42.1455C32.4044 42.0978 32.3806 42.0502 32.3449 42.0264C32.3092 42.0026 32.2616 41.9788 32.2021 41.9788C32.1425 41.9788 32.0711 42.0026 31.9878 42.0383L31.8806 41.9193V41.3359H32.6187Z" fill="white"/>
<path d="M32.8096 41.3359H33.2858V42.5264H33.0358V41.5621H32.8096V41.3359Z" fill="white"/>
<path d="M15.7972 28.3346H14.9639V26.418H15.7139C15.8448 26.418 15.952 26.4299 16.0472 26.4656C16.1424 26.5013 16.2139 26.537 16.2615 26.5965C16.3448 26.6918 16.3924 26.8108 16.3924 26.9299C16.3924 27.0846 16.3448 27.1918 16.2496 27.2632C16.2139 27.287 16.1901 27.3108 16.1782 27.3108C16.1662 27.3227 16.1424 27.3227 16.1067 27.3465C16.2258 27.3704 16.321 27.4299 16.3924 27.5013C16.4639 27.5846 16.4996 27.6799 16.4996 27.7989C16.4996 27.9299 16.452 28.0489 16.3686 28.1561C16.2496 28.2751 16.0591 28.3346 15.7972 28.3346ZM15.3924 27.1918H15.5948C15.7139 27.1918 15.7972 27.1799 15.8567 27.1561C15.9162 27.1323 15.9401 27.0727 15.9401 26.9894C15.9401 26.9061 15.9162 26.8465 15.8567 26.8227C15.8091 26.7989 15.7139 26.787 15.5829 26.787H15.3924V27.1918ZM15.3924 27.9656H15.6901C15.8091 27.9656 15.9043 27.9537 15.9639 27.918C16.0234 27.8823 16.0591 27.8346 16.0591 27.7394C16.0591 27.6561 16.0234 27.5965 15.9639 27.5608C15.9043 27.537 15.7972 27.5132 15.6543 27.5132H15.3924V27.9656Z" fill="white"/>
<path d="M18.1667 28.3346L17.9881 27.918H17.1905L17.012 28.3346H16.5596L17.381 26.418H17.7977L18.6191 28.3346H18.1667ZM17.5953 26.9894L17.3572 27.5489H17.8334L17.5953 26.9894Z" fill="white"/>
<path d="M20.1665 26.418H20.5951V28.3346H20.1665L19.2499 27.1323V28.3346H18.8213V26.418H19.2261L20.1665 27.6442V26.418Z" fill="white"/>
<path d="M21.0469 26.418H21.4754V27.2037L22.2016 26.418H22.7254L21.9635 27.2632C22.035 27.3584 22.154 27.5251 22.3326 27.7751C22.5112 28.0251 22.6421 28.2156 22.7254 28.3346H22.2254L21.6659 27.5846L21.4754 27.7989V28.3346H21.0469V26.418Z" fill="white"/>
</g>
<defs>
<clipPath id="clip0_1284_15259">
<rect width="60" height="60" fill="white" transform="translate(0.75)"/>
</clipPath>
</defs>
</svg>
