<svg width="50" height="81" viewBox="0 0 50 81" fill="none" xmlns="http://www.w3.org/2000/svg">
<path d="M48.6646 15.6029V54.4271C48.6646 56.2395 48.0287 57.5035 47.0072 58.0957L10.2617 79.3083C11.2911 78.7121 11.9311 77.4442 11.9311 75.6516V43.2703L33.6167 30.7423C34.0571 30.4891 34.4391 30.1458 34.7377 29.7349C35.0364 29.3239 35.2449 28.8546 35.3496 28.3575L36.852 21.2707C36.9558 20.7738 37.1635 20.3045 37.4615 19.8935C37.7595 19.4825 38.141 19.1391 38.581 18.8859L46.4666 14.335C46.6892 14.2056 46.9419 14.1372 47.1994 14.1367C47.4568 14.1363 47.7098 14.2038 47.9328 14.3324C48.1558 14.461 48.3409 14.6463 48.4694 14.8693C48.5979 15.0924 48.6652 15.3455 48.6646 15.6029ZM42.5278 27.5785C43.1338 27.1835 43.6382 26.6513 44.0001 26.0249C44.3619 25.3986 44.571 24.6958 44.6105 23.9735C44.6105 22.6459 43.6765 22.1094 42.5278 22.7811C41.9208 23.176 41.4157 23.7087 41.0538 24.3359C40.6919 24.9631 40.4833 25.6669 40.4451 26.39C40.4292 27.7096 41.3592 28.2462 42.5278 27.5785Z" fill="white"/>
<path d="M44.5948 23.9725C44.5572 24.6934 44.3505 25.3953 43.9914 26.0215C43.6324 26.6478 43.1311 27.1808 42.528 27.5775C41.3754 28.2453 40.4453 27.7087 40.4453 26.3851C40.4823 25.6606 40.6903 24.9552 41.0523 24.3265C41.4143 23.6979 41.92 23.1639 42.528 22.7682C43.6608 22.1084 44.5948 22.6569 44.5948 23.9725Z" fill="#5F646B"/>
<path d="M40.4292 0.597656V17.8237L38.581 18.8889C38.141 19.1421 37.7595 19.4854 37.4615 19.8964C37.1635 20.3074 36.9558 20.7768 36.852 21.2737L35.3496 28.3605C35.2449 28.8575 35.0364 29.3269 34.7377 29.7379C34.4391 30.1488 34.0571 30.4921 33.6167 30.7452L11.9231 43.2693V64.6051L7.87695 66.9422V27.0528L14.0098 22.4462L14.5106 15.5621L40.4292 0.597656Z" fill="white"/>
<path d="M14.5106 15.5625L14.0138 22.4466L7.87695 27.0532L14.5106 15.5625Z" fill="#DAE0E5"/>
<path d="M11.9234 64.6027V75.6363C11.9234 77.4288 11.2835 78.6967 10.2541 79.2929C9.22463 79.8891 7.82159 79.8057 6.27943 78.9193C3.13947 77.1069 0.595703 72.7348 0.595703 69.102V36.7286L7.87723 32.5234V66.9398L11.9234 64.6027Z" fill="#FF4F4F"/>
<path d="M10.262 79.3043L47.0075 58.0917C48.029 57.4995 48.6649 56.2356 48.6649 54.4231V15.5989C48.6648 15.3418 48.597 15.0893 48.4682 14.8668C48.3394 14.6442 48.1543 14.4596 47.9314 14.3314C47.7085 14.2033 47.4558 14.1361 47.1987 14.1367C46.9416 14.1373 46.6892 14.2057 46.4669 14.335L38.5813 18.8859C38.1413 19.1391 37.7598 19.4825 37.4618 19.8935C37.1638 20.3045 36.9561 20.7738 36.8523 21.2707L35.3499 28.3575C35.2452 28.8546 35.0366 29.3239 34.738 29.7349C34.4394 30.1458 34.0574 30.4891 33.617 30.7423L11.9234 43.2663V75.6357C11.9234 77.4283 11.2835 78.7002 10.2541 79.2924C9.22463 79.8846 7.82159 79.8051 6.27943 78.9188C3.13947 77.1064 0.595703 72.7343 0.595703 69.1014V36.7281L7.87723 32.5229" stroke="#373A3A" stroke-width="1.19239" stroke-linecap="round" stroke-linejoin="round"/>
<path d="M7.87695 27.0532L14.0138 22.4466L14.5106 15.5625" stroke="#373A3A" stroke-width="1.19239" stroke-linecap="round" stroke-linejoin="round"/>
<path d="M11.9231 64.6051L7.87695 66.9462V27.0528L14.5106 15.5621L40.4292 0.597656V17.8237" stroke="#373A3A" stroke-width="1.19239" stroke-linecap="round" stroke-linejoin="round"/>
<path d="M16.8516 25.1874L19.9875 23.3789" stroke="#373A3A" stroke-width="1.19239" stroke-linecap="round" stroke-linejoin="round"/>
<path d="M22.7695 21.7698L31.4501 16.7578" stroke="#373A3A" stroke-width="1.19239" stroke-linecap="round" stroke-linejoin="round"/>
<path d="M16.8516 30.466L26.0131 25.1758" stroke="#373A3A" stroke-width="1.19239" stroke-linecap="round" stroke-linejoin="round"/>
<path d="M27.6387 24.2372L31.4503 22.0312" stroke="#373A3A" stroke-width="1.19239" stroke-linecap="round" stroke-linejoin="round"/>
<path d="M16.8516 36.0825L31.4504 27.6523" stroke="#373A3A" stroke-width="1.19239" stroke-linecap="round" stroke-linejoin="round"/>
<path d="M44.5948 23.9725C44.5572 24.6934 44.3505 25.3953 43.9914 26.0216C43.6324 26.6478 43.1311 27.1808 42.528 27.5775C41.3754 28.2453 40.4453 27.7087 40.4453 26.3851C40.4823 25.6606 40.6903 24.9552 41.0523 24.3265C41.4143 23.6979 41.92 23.1639 42.528 22.7682C43.6608 22.1084 44.5948 22.6569 44.5948 23.9725Z" stroke="#373A3A" stroke-width="1.19239" stroke-linecap="round" stroke-linejoin="round"/>
</svg>
