<svg width="37" height="37" viewBox="0 0 37 37" fill="none" xmlns="http://www.w3.org/2000/svg">
<rect width="37" height="37" rx="9.99" fill="#FFF4F4"/>
<path d="M29 13V15.42C29 17 28 18 26.42 18H23V11.01C23 9.9 23.91 9 25.02 9C26.11 9.01 27.11 9.45 27.83 10.17C28.55 10.9 29 11.9 29 13Z" stroke="#FF4F4F" stroke-width="1.5" stroke-miterlimit="10" stroke-linecap="round" stroke-linejoin="round"/>
<path d="M9 14V28C9 28.83 9.94 29.3 10.6 28.8L12.31 27.52C12.71 27.22 13.27 27.26 13.63 27.62L15.29 29.29C15.68 29.68 16.32 29.68 16.71 29.29L18.39 27.61C18.74 27.26 19.3 27.22 19.69 27.52L21.4 28.8C22.06 29.29 23 28.82 23 28V11C23 9.9 23.9 9 25 9H14H13C10 9 9 10.79 9 13V14Z" stroke="#FF4F4F" stroke-width="1.5" stroke-miterlimit="10" stroke-linecap="round" stroke-linejoin="round"/>
<path d="M16 20.0117H19" stroke="#FF4F4F" stroke-width="1.5" stroke-linecap="round" stroke-linejoin="round"/>
<path d="M16 16.0117H19" stroke="#FF4F4F" stroke-width="1.5" stroke-linecap="round" stroke-linejoin="round"/>
<path d="M12.9961 20H13.0051" stroke="#FF4F4F" stroke-width="1.5" stroke-linecap="round" stroke-linejoin="round"/>
<path d="M12.9961 16H13.0051" stroke="#FF4F4F" stroke-width="1.5" stroke-linecap="round" stroke-linejoin="round"/>
</svg>
