<svg width="36" height="36" viewBox="0 0 36 36" fill="none" xmlns="http://www.w3.org/2000/svg">
<rect width="36" height="36" rx="12" fill="#FFF8F8"/>
<path d="M19.418 19.418C19.7937 19.418 20.154 19.2687 20.4197 19.003C20.6854 18.7374 20.8346 18.377 20.8346 18.0013V15.168H19.418" stroke="#FF4F4F" stroke-width="1.41667" stroke-linecap="round" stroke-linejoin="round"/>
<path d="M25.0846 21.5417C25.0846 21.9174 24.9354 22.2777 24.6697 22.5434C24.404 22.8091 24.0437 22.9583 23.668 22.9583H14.3378C13.9621 22.9584 13.6018 23.1077 13.3362 23.3734L11.7765 24.9332C11.7061 25.0035 11.6165 25.0514 11.519 25.0708C11.4214 25.0902 11.3203 25.0802 11.2284 25.0422C11.1365 25.0041 11.058 24.9396 11.0027 24.857C10.9475 24.7743 10.918 24.677 10.918 24.5776V13.0417C10.918 12.6659 11.0672 12.3056 11.3329 12.0399C11.5986 11.7743 11.9589 11.625 12.3346 11.625H23.668C24.0437 11.625 24.404 11.7743 24.6697 12.0399C24.9354 12.3056 25.0846 12.6659 25.0846 13.0417V21.5417Z" stroke="#FF4F4F" stroke-width="1.41667" stroke-linecap="round" stroke-linejoin="round"/>
<path d="M15.168 19.418C15.5437 19.418 15.904 19.2687 16.1697 19.003C16.4354 18.7374 16.5846 18.377 16.5846 18.0013V15.168H15.168" stroke="#FF4F4F" stroke-width="1.41667" stroke-linecap="round" stroke-linejoin="round"/>
</svg>
