<svg width="36" height="36" viewBox="0 0 36 36" fill="none" xmlns="http://www.w3.org/2000/svg">
<rect width="36" height="36" rx="12" fill="#FFF8F8"/>
<path d="M20.8346 24.375V22.9583C20.8346 22.2069 20.5361 21.4862 20.0048 20.9549C19.4734 20.4235 18.7527 20.125 18.0013 20.125H13.7513C12.9999 20.125 12.2792 20.4235 11.7478 20.9549C11.2165 21.4862 10.918 22.2069 10.918 22.9583V24.375" stroke="#FF4F4F" stroke-width="1.41667" stroke-linecap="round" stroke-linejoin="round"/>
<path d="M15.8763 17.2917C17.4411 17.2917 18.7096 16.0231 18.7096 14.4583C18.7096 12.8935 17.4411 11.625 15.8763 11.625C14.3115 11.625 13.043 12.8935 13.043 14.4583C13.043 16.0231 14.3115 17.2917 15.8763 17.2917Z" stroke="#FF4F4F" stroke-width="1.41667" stroke-linecap="round" stroke-linejoin="round"/>
<path d="M22.957 15.168V19.418" stroke="#FF4F4F" stroke-width="1.41667" stroke-linecap="round" stroke-linejoin="round"/>
<path d="M25.082 17.293H20.832" stroke="#FF4F4F" stroke-width="1.41667" stroke-linecap="round" stroke-linejoin="round"/>
</svg>
