<svg width="48" height="76" viewBox="0 0 48 76" fill="none" xmlns="http://www.w3.org/2000/svg">
<g clip-path="url(#clip0_5226_25154)">
<path d="M38.4326 23.6839V73.743C38.4326 74.8887 37.626 75.3529 36.6351 74.78L2.30544 54.9585C1.78124 54.619 1.34502 54.16 1.03256 53.6192C0.72011 53.0784 0.540329 52.4712 0.507972 51.8475V1.77848C0.494804 0.632846 1.29807 0.168665 2.30544 0.741484L16.2803 8.82021C16.3103 9.81356 16.5742 10.7858 17.0506 11.658L2.73999 3.39818V52.1635L36.1841 71.4748V22.716L21.8735 14.4431C22.3541 14.0776 22.6438 13.4094 22.6438 12.4942L36.6351 20.5696C37.1584 20.9108 37.594 21.3707 37.9063 21.9118C38.2186 22.4529 38.3989 23.06 38.4326 23.6839Z" fill="#DAE0E5"/>
<path d="M36.1843 22.7163V71.4751L2.74023 52.1638V3.39844L17.0508 11.6582C17.5945 12.7531 18.4295 13.6768 19.4639 14.3281C20.4252 14.8845 21.291 14.8877 21.8737 14.4433L36.1843 22.7163Z" fill="white"/>
<path d="M26.4401 14.6881L22.6443 12.5153C22.6443 13.4305 22.3546 14.0988 21.874 14.4642C21.2913 14.9087 20.4255 14.9054 19.4642 14.349C18.4297 13.6977 17.5948 12.774 17.0511 11.6791C16.5747 10.807 16.3107 9.83472 16.2807 8.84137L12.4883 6.6324C13.3804 3.66954 16.1655 2.75105 19.4642 4.65716C22.7628 6.56326 25.5446 10.6981 26.4401 14.6881Z" fill="#FF4F4F"/>
<path d="M21.8737 14.4427L36.1843 22.7058V71.4712L2.74023 52.1599V3.39453L17.0508 11.6576" stroke="#373A3A" stroke-width="0.98762" stroke-linecap="round" stroke-linejoin="round"/>
<path d="M14.0453 22.2779V25.8729L8.08008 22.4294V15.5391L13.0182 18.3933" stroke="#373A3A" stroke-width="0.98762" stroke-linecap="round" stroke-linejoin="round"/>
<path d="M9.41602 19.0234L11.0752 21.904L15.0158 19.6325" stroke="#373A3A" stroke-width="0.98762" stroke-linecap="round" stroke-linejoin="round"/>
<path d="M17.9883 22.5898L32.1277 30.7509" stroke="#373A3A" stroke-width="0.98762" stroke-linecap="round" stroke-linejoin="round"/>
<path d="M17.9883 26.25L26.4983 31.1618" stroke="#373A3A" stroke-width="0.98762" stroke-linecap="round" stroke-linejoin="round"/>
<path d="M14.0453 33.8834V37.475L8.08008 34.0348V27.1445L13.0182 29.9955" stroke="#373A3A" stroke-width="0.98762" stroke-linecap="round" stroke-linejoin="round"/>
<path d="M9.41602 30.625L11.0752 33.499L15.0158 31.2307" stroke="#373A3A" stroke-width="0.98762" stroke-linecap="round" stroke-linejoin="round"/>
<path d="M17.9883 34.1875L32.1277 42.3518" stroke="#373A3A" stroke-width="0.98762" stroke-linecap="round" stroke-linejoin="round"/>
<path d="M17.9883 37.8555L26.4983 42.7672" stroke="#373A3A" stroke-width="0.98762" stroke-linecap="round" stroke-linejoin="round"/>
<path d="M14.0453 45.485V49.0766L8.08008 45.6364V38.7461L13.0182 41.6003" stroke="#373A3A" stroke-width="0.98762" stroke-linecap="round" stroke-linejoin="round"/>
<path d="M9.41602 42.2266L11.0752 45.1038L15.0158 42.8323" stroke="#373A3A" stroke-width="0.98762" stroke-linecap="round" stroke-linejoin="round"/>
<path d="M17.9883 45.793L32.1277 53.954" stroke="#373A3A" stroke-width="0.98762" stroke-linecap="round" stroke-linejoin="round"/>
<path d="M17.9883 49.457L26.4983 54.3688" stroke="#373A3A" stroke-width="0.98762" stroke-linecap="round" stroke-linejoin="round"/>
<path d="M26.4401 14.6875C25.5446 10.6975 22.7595 6.55936 19.4642 4.65325C16.1688 2.74715 13.3804 3.66563 12.4883 6.62849" stroke="#373A3A" stroke-width="0.98762" stroke-linecap="round" stroke-linejoin="round"/>
<path d="M12.4878 6.6277L16.2803 8.82021C16.3106 9.8135 16.5745 10.7857 17.0506 11.658C17.5953 12.7521 18.43 13.6757 19.4637 14.3278C20.425 14.8842 21.2908 14.8842 21.8735 14.4431C22.3541 14.0743 22.6438 13.4094 22.6438 12.4942L36.6351 20.5696C37.1584 20.9108 37.594 21.3707 37.9063 21.9118C38.2186 22.4529 38.3989 23.06 38.4326 23.6839V73.743C38.4326 74.8887 37.626 75.3529 36.6351 74.78L2.30544 54.9585C1.78124 54.619 1.34502 54.16 1.03256 53.6192C0.72011 53.0784 0.540329 52.4712 0.507972 51.8475V1.77848C0.494804 0.632846 1.29807 0.168665 2.30544 0.741484L12.4878 6.6277Z" stroke="#373A3A" stroke-width="0.98762" stroke-linecap="round" stroke-linejoin="round"/>
<path d="M16.4858 74.0404L13.1016 74.8042L13.8587 71.3047C13.8587 71.3277 13.8587 71.3508 13.8587 71.3705C14.0525 71.9925 14.3919 72.5593 14.8489 73.0237C15.3058 73.4881 15.867 73.8366 16.4858 74.0404Z" fill="white"/>
<path d="M21.7305 71.1555L42.2795 50.6064C42.6345 50.7736 43.0036 50.9091 43.3824 51.0113C43.5634 51.0574 43.7445 51.0969 43.9124 51.1233C45.0943 51.3109 46.0325 51.0706 46.6284 50.4648L26.0628 71.0271C25.9943 71.094 25.9218 71.1567 25.8456 71.2147C25.2563 71.6789 24.3905 71.8468 23.3469 71.6723C23.179 71.646 22.9979 71.6065 22.8169 71.5604C22.4443 71.4553 22.081 71.3198 21.7305 71.1555Z" fill="#969A9E"/>
<path d="M16.6113 65.9788L37.1637 45.4297C37.4668 46.1222 37.8526 46.7755 38.3126 47.3753C38.6055 47.7601 38.9233 48.1252 39.264 48.4683L18.7117 69.0173C18.3778 68.6736 18.0665 68.3085 17.78 67.9244C17.3125 67.3259 16.9201 66.6725 16.6113 65.9788Z" fill="white"/>
<path d="M21.7293 71.16C22.0851 71.3252 22.4539 71.4606 22.8321 71.5649C23.0132 71.611 23.1942 71.6505 23.3621 71.6768C24.4057 71.8513 25.2682 71.6768 25.8608 71.2192C25.2458 71.8248 24.4739 72.2467 23.6321 72.4373L16.485 74.0438C15.8686 73.8383 15.3101 73.4889 14.8555 73.0246C14.401 72.5604 14.0635 71.9945 13.8711 71.3739C13.8711 71.3542 13.8711 71.3311 13.8711 71.3081L15.4052 64.2269C15.5874 63.3534 16.0211 62.5524 16.6529 61.9224L16.8142 61.7578C16.1558 62.4162 15.9385 63.4664 16.2315 64.7964C16.2315 64.8655 16.2644 64.9314 16.2842 65.0038C16.3713 65.3337 16.4813 65.6571 16.6134 65.9717C16.917 66.6646 17.3039 67.318 17.7656 67.9173C18.0574 68.3019 18.3742 68.667 18.7137 69.0102C19.1511 69.4527 19.6246 69.8579 20.1293 70.2217C20.6299 70.5872 21.1659 70.9016 21.7293 71.16Z" fill="white"/>
<path d="M42.2615 50.6053L21.7289 71.1544C21.1706 70.8994 20.6391 70.5895 20.1422 70.2293C19.6374 69.8655 19.1639 69.4603 18.7266 69.0178L39.2789 48.4688C39.7152 48.9112 40.1876 49.3164 40.6912 49.6802C41.1822 50.0407 41.7083 50.3506 42.2615 50.6053Z" fill="#C2C7CC"/>
<path d="M43.572 46.2712C43.809 47.1502 43.2889 47.6737 42.4066 47.4366C41.9367 47.2815 41.5097 47.0185 41.1599 46.6686C40.81 46.3187 40.5469 45.8918 40.3919 45.4219C40.1581 44.5396 40.6783 44.0195 41.5572 44.2565C42.028 44.4099 42.4559 44.6724 42.806 45.0225C43.1561 45.3726 43.4185 45.8005 43.572 46.2712Z" fill="#373A3A"/>
<path d="M46.6107 50.4764C46.0148 51.0723 45.0766 51.3126 43.8947 51.1348C43.7268 51.1085 43.5458 51.069 43.3647 51.0229C42.9859 50.9206 42.6168 50.7851 42.2619 50.618C41.7029 50.3643 41.1712 50.0543 40.6751 49.6929C40.1714 49.3291 39.699 48.9238 39.2628 48.4814C38.922 48.1383 38.6042 47.7732 38.3114 47.3885C37.8513 46.7886 37.4656 46.1353 37.1624 45.4428C37.0295 45.1286 36.9195 44.8051 36.8332 44.475C36.8135 44.4058 36.797 44.3334 36.7806 44.2676C36.4514 42.9508 36.7147 41.8775 37.3666 41.229C38.0184 40.5805 39.1838 40.3138 40.6125 40.6957C43.4635 41.4594 46.3934 44.3894 47.1572 47.2436C47.5259 48.6592 47.2954 49.7917 46.6107 50.4764ZM42.4067 47.4378C43.289 47.6749 43.8091 47.1514 43.5721 46.2724C43.4186 45.8017 43.1562 45.3738 42.8061 45.0237C42.456 44.6736 42.0281 44.4112 41.5574 44.2577C40.6784 44.0207 40.1582 44.5408 40.392 45.4231C40.547 45.893 40.8101 46.32 41.16 46.6698C41.5098 47.0197 41.9368 47.2827 42.4067 47.4378Z" fill="white"/>
<path d="M16.2198 64.8064C15.9268 63.4896 16.154 62.4164 16.8025 61.7678L37.3549 41.2188C36.6965 41.8772 36.4529 42.9306 36.7689 44.2573C36.7689 44.3232 36.8018 44.3956 36.8216 44.4647C36.9079 44.7949 37.0179 45.1183 37.1508 45.4326L16.6116 65.9817C16.4795 65.6671 16.3695 65.3437 16.2824 65.0138C16.2528 64.9414 16.233 64.8755 16.2198 64.8064Z" fill="#DAE0E5"/>
<path d="M36.7687 44.2538C36.7687 44.3196 36.8016 44.392 36.8214 44.4612C36.9092 44.7908 37.0192 45.1142 37.1506 45.429C37.4537 46.1215 37.8395 46.7748 38.2995 47.3747C38.9712 48.2536 39.7675 49.0299 40.6632 49.6791C41.1606 50.0386 41.6921 50.3485 42.25 50.6042C42.6056 50.7699 42.9745 50.9054 43.3528 51.0091C43.5339 51.0552 43.7149 51.0947 43.8828 51.121C45.0647 51.3087 46.0029 51.0683 46.5988 50.4626C47.2835 49.7779 47.514 48.6454 47.1321 47.2199C46.3684 44.3657 43.4384 41.4358 40.5875 40.672C39.1587 40.2901 38.0263 40.5206 37.3415 41.2053C36.6568 41.8901 36.4559 42.9271 36.7687 44.2538Z" stroke="#373A3A" stroke-width="0.98762" stroke-linecap="round" stroke-linejoin="round"/>
<path d="M43.572 46.2712C43.4185 45.8005 43.1561 45.3726 42.806 45.0225C42.4559 44.6724 42.028 44.4099 41.5572 44.2565C40.6783 44.0195 40.1581 44.5396 40.3919 45.4219C40.5469 45.8918 40.81 46.3187 41.1599 46.6686C41.5097 47.0185 41.9367 47.2815 42.4066 47.4366C43.2889 47.6737 43.809 47.1502 43.572 46.2712Z" stroke="#373A3A" stroke-width="0.98762" stroke-linecap="round" stroke-linejoin="round"/>
<path d="M13.8594 71.3047C13.8594 71.3277 13.8594 71.3508 13.8594 71.3705C14.0518 71.9911 14.3893 72.5569 14.8438 73.0212C15.2983 73.4855 15.8569 73.8348 16.4733 74.0404" stroke="#373A3A" stroke-width="0.98762" stroke-linecap="round" stroke-linejoin="round"/>
<path d="M37.3548 41.2188L16.7926 61.7678C16.1342 62.4262 15.9169 63.4764 16.2099 64.8064C16.2099 64.8755 16.2428 64.9414 16.2626 65.0138C16.3497 65.3437 16.4597 65.6671 16.5918 65.9817C16.8966 66.674 17.2834 67.3272 17.744 67.9273C18.0358 68.3119 18.3525 68.677 18.6921 69.0202C19.1286 69.4636 19.6022 69.8689 20.1077 70.2317C20.6174 70.5921 21.1609 70.9019 21.7307 71.1568C22.0871 71.3206 22.4558 71.456 22.8335 71.5617C23.0146 71.6078 23.1957 71.6473 23.3636 71.6737C24.4071 71.8481 25.273 71.6737 25.8622 71.2161C25.9384 71.158 26.011 71.0954 26.0795 71.0284L46.6286 50.476" stroke="#373A3A" stroke-width="0.98762" stroke-linecap="round" stroke-linejoin="round"/>
<path d="M16.7916 61.7695L16.6303 61.9341C15.9985 62.5641 15.5647 63.3652 15.3826 64.2386L13.0781 74.8193L23.616 72.4292C24.4584 72.24 25.2306 71.8179 25.8448 71.2112L26.0489 71.0104" stroke="#373A3A" stroke-width="0.98762" stroke-linecap="round" stroke-linejoin="round"/>
<path d="M37.1637 45.4297L16.6113 65.9788" stroke="#373A3A" stroke-width="0.98762" stroke-linecap="round" stroke-linejoin="round"/>
<path d="M39.2633 48.4688L18.7109 69.0178" stroke="#373A3A" stroke-width="0.98762" stroke-linecap="round" stroke-linejoin="round"/>
<path d="M42.262 50.6055L21.7129 71.1545" stroke="#373A3A" stroke-width="0.98762" stroke-linecap="round" stroke-linejoin="round"/>
</g>
<defs>
<clipPath id="clip0_5226_25154">
<rect width="47.8205" height="75.5233" fill="white"/>
</clipPath>
</defs>
</svg>
