<svg width="74" height="69" viewBox="0 0 74 69" fill="none" xmlns="http://www.w3.org/2000/svg">
<path d="M72.9303 45.2518L33.6907 67.9047L4.69336 51.1607L43.936 28.5078L72.9303 45.2518Z" fill="white"/>
<path d="M4.69336 51.1607L43.936 28.5078L72.9303 45.2518L33.6907 67.9047L4.69336 51.1607Z" stroke="#3A3A3A" stroke-width="0.907205" stroke-linecap="round" stroke-linejoin="round"/>
<path d="M56.9616 46.4141L35.7148 58.6855" stroke="#3A3A3A" stroke-width="0.907205" stroke-linecap="round" stroke-linejoin="round"/>
<path d="M46.2092 40.2109L42.8223 42.1675" stroke="#3A3A3A" stroke-width="0.907205" stroke-linecap="round" stroke-linejoin="round"/>
<path d="M37.6003 45.1758L24.9629 52.4727" stroke="#3A3A3A" stroke-width="0.907205" stroke-linecap="round" stroke-linejoin="round"/>
<path d="M41.9088 37.7266L20.6621 49.992" stroke="#3A3A3A" stroke-width="0.907205" stroke-linecap="round" stroke-linejoin="round"/>
<path d="M53.3786 44.3477L51.7305 45.3002" stroke="#3A3A3A" stroke-width="0.907205" stroke-linecap="round" stroke-linejoin="round"/>
<path d="M45.381 48.957L32.1328 56.6138" stroke="#3A3A3A" stroke-width="0.907205" stroke-linecap="round" stroke-linejoin="round"/>
<path d="M49.7961 42.2812L34.918 50.8695" stroke="#3A3A3A" stroke-width="0.907205" stroke-linecap="round" stroke-linejoin="round"/>
<path d="M30.6447 53.3398L28.543 54.5464" stroke="#3A3A3A" stroke-width="0.907205" stroke-linecap="round" stroke-linejoin="round"/>
<path d="M43.4152 38.1777C44.7156 38.8067 45.9161 39.2935 46.7417 39.4417C47.4644 39.5687 48.1841 39.6504 48.8585 39.7441C50.0469 39.8923 51.1174 40.0465 51.9157 40.5364C52.1531 40.6741 52.3472 40.8756 52.4757 41.118C52.6043 41.3605 52.6623 41.6341 52.6431 41.9079C52.6239 42.1816 52.5282 42.4445 52.367 42.6666C52.2059 42.8887 51.9856 43.0611 51.7313 43.1643C50.9027 43.5151 50.0278 43.7443 49.1337 43.8447C47.9601 43.974 46.7736 43.92 45.6167 43.6844L45.9373 44.1773C42.4476 45.9917 38.9276 45.647 35.2655 44.4374C33.8624 45.5774 31.8907 46.1097 30.0037 46.3365C28.4364 46.5082 26.8506 46.3141 25.3709 45.7694C23.8912 45.2248 22.558 44.3444 21.476 43.1975C20.1636 41.8216 19.9852 40.9991 18.8088 39.6655C18.2488 39.0418 17.6423 38.4615 16.9944 37.9297C14.5676 35.8719 11.99 33.9988 9.28317 32.3262C9.18555 31.7858 9.1159 31.2408 9.07451 30.6932C8.46971 22.096 12.9573 16.3473 17.4873 14.5117C21.1161 16.7434 24.0525 18.4429 26.5594 19.7796C31.9633 22.6887 35.3472 23.9739 39.6201 25.5887L42.4627 34.9904C39.7925 33.6779 36.0306 33.9894 36.0306 33.9894C36.0306 33.9894 40.0556 36.5568 43.4152 38.1777Z" fill="white"/>
<path d="M49.1576 43.8421V49.0888L45.6406 43.6758C46.7975 43.9113 47.984 43.9654 49.1576 43.8361V43.8421Z" fill="#373A3A"/>
<path d="M47.1594 29.5487C47.8837 29.8354 48.473 30.385 48.8095 31.0876C49.1459 31.7901 49.2046 32.5938 48.9738 33.3378C48.484 34.9133 48.0183 36.7368 48.2118 37.4989L45.6172 28.9258L47.1594 29.5487Z" fill="white"/>
<path d="M48.2097 37.5366L48.881 39.7441C48.1976 39.6534 47.4779 39.5717 46.7642 39.4417C45.9296 39.2935 44.7291 38.8067 43.4378 38.1777C43.4378 38.1777 43.465 38.2654 42.4792 34.9994L32.7207 2.82993C32.9838 3.67364 34.2327 4.03954 35.4726 3.63432C36.7124 3.2291 37.4956 2.28864 37.287 1.45703L48.2097 37.5366Z" fill="#FF4F4F"/>
<path d="M37.2888 1.46062C37.4974 2.29222 36.7051 3.25688 35.4744 3.63791C34.2436 4.01894 32.9856 3.67722 32.7225 2.83352C32.4624 1.99587 33.2699 1.00097 34.5369 0.610869C35.6225 0.269155 37.0196 0.477812 37.2918 1.42735L37.2888 1.46062Z" fill="white"/>
<path d="M23.7642 14.89C25.5363 16.3838 26.4556 17.8807 26.5463 19.7828C24.0515 18.4402 21.1272 16.7467 17.4863 14.5089C19.7876 13.5836 22.104 13.6622 23.7642 14.89Z" fill="#373A3A"/>
<path d="M9.30482 32.3286C9.73121 34.6571 10.7322 36.7497 12.5556 38.298C9.86124 36.7074 4.51176 33.4596 4.3908 33.3931C-5.79409 26.7402 5.74555 4.36252 16.4294 10.2896C19.6591 12.0556 22.0783 13.4739 23.7657 14.8921C22.1055 13.6644 19.7891 13.5858 17.4878 14.5111C12.9518 16.3255 8.47322 22.0893 9.09616 30.6896C9.13735 31.2392 9.207 31.7863 9.30482 32.3286Z" fill="#A7A7A7"/>
<path d="M18.8334 39.6674C17.2458 40.2722 15.4404 39.6432 13.2329 38.6997L12.5555 38.2975C10.7411 36.7492 9.73107 34.6687 9.30469 32.3281C12.0115 34.0007 14.5891 35.8738 17.0159 37.9316C17.6648 38.4634 18.2724 39.0436 18.8334 39.6674Z" fill="#373A3A"/>
<path d="M4.74023 33.6094C7.25924 35.1486 13.0049 38.5657 13.2317 38.7048C15.4392 39.6483 17.2445 40.2834 18.8322 39.6725" stroke="#3A3A3A" stroke-width="0.907205" stroke-linecap="round" stroke-linejoin="round"/>
<path d="M17.4863 14.5117C21.1151 16.7434 24.0515 18.4429 26.5584 19.7796C31.9623 22.6887 35.3462 23.9739 39.6191 25.5887" stroke="#3A3A3A" stroke-width="0.907205" stroke-linecap="round" stroke-linejoin="round"/>
<path d="M23.7649 14.89C22.1047 13.6622 19.7883 13.5836 17.487 14.5089C12.951 16.3233 8.47242 22.0871 9.09536 30.6874C9.13676 31.235 9.2064 31.78 9.30402 32.3204C9.73041 34.6489 10.7314 36.7415 12.5548 38.2898" stroke="#3A3A3A" stroke-width="0.907205" stroke-linecap="round" stroke-linejoin="round"/>
<path d="M9.30078 32.3281C12.0076 34.0007 14.5852 35.8738 17.012 37.9316C17.6599 38.4635 18.2664 39.0437 18.8264 39.6674C19.9998 41.001 20.1812 41.8235 21.4936 43.1995C22.5756 44.3464 23.9088 45.2267 25.3885 45.7714C26.8682 46.316 28.454 46.5101 30.0213 46.3384C31.9083 46.1116 33.88 45.5794 35.2831 44.4393C35.2924 44.4365 35.3007 44.4313 35.3073 44.4242" stroke="#3A3A3A" stroke-width="0.907205" stroke-linecap="round" stroke-linejoin="round"/>
<path d="M28.8066 41.7266C30.9157 42.7532 33.0802 43.6619 35.2901 44.4482C38.9522 45.6578 42.4722 46.0055 45.9619 44.1881" stroke="#3A3A3A" stroke-width="0.907205" stroke-linecap="round" stroke-linejoin="round"/>
<path d="M45.6402 43.687C46.7973 43.921 47.9836 43.9751 49.1572 43.8472C50.0511 43.7454 50.9258 43.5163 51.7548 43.1668C52.0091 43.0637 52.2294 42.8913 52.3906 42.6692C52.5517 42.4471 52.6474 42.1842 52.6666 41.9104C52.6858 41.6367 52.6278 41.363 52.4993 41.1206C52.3707 40.8781 52.1767 40.6766 51.9393 40.539C51.1409 40.0612 50.0704 39.8979 48.882 39.7467C48.1955 39.659 47.4788 39.5743 46.7652 39.4443C45.9305 39.2961 44.73 38.8092 43.4388 38.1802C40.0791 36.5594 36.0692 34.0131 36.045 33.998C36.0208 33.9829 39.8069 33.6956 42.4771 34.999" stroke="#3A3A3A" stroke-width="0.907205" stroke-linecap="round" stroke-linejoin="round"/>
<path d="M49.1576 43.8538V49.1005L45.6406 43.6875" stroke="#3A3A3A" stroke-width="0.907205" stroke-linecap="round" stroke-linejoin="round"/>
<path d="M33.5684 38.8359C38.431 41.1493 42.2564 43.0454 45.6493 43.6744" stroke="#3A3A3A" stroke-width="0.907205" stroke-linecap="round" stroke-linejoin="round"/>
<path d="M32.7188 2.82422L42.4531 34.9877C43.4389 38.2536 43.4147 38.1417 43.4117 38.1659" stroke="#3A3A3A" stroke-width="0.907205" stroke-linecap="round" stroke-linejoin="round"/>
<path d="M37.287 1.45703C37.4956 2.28864 36.7033 3.2533 35.4726 3.63432C34.2418 4.01535 32.9838 3.67364 32.7207 2.82993" stroke="#3A3A3A" stroke-width="0.907205" stroke-linecap="round" stroke-linejoin="round"/>
<path d="M32.7186 2.82962C32.4585 1.99196 33.2659 0.997061 34.533 0.606963C35.6186 0.265249 37.0157 0.473906 37.2879 1.42345" stroke="#3A3A3A" stroke-width="0.907205" stroke-linecap="round" stroke-linejoin="round"/>
<path d="M48.202 37.4945L37.2793 1.41797" stroke="#3A3A3A" stroke-width="0.907205" stroke-linecap="round" stroke-linejoin="round"/>
<path d="M48.8842 39.7466L48.2129 37.5391" stroke="#3A3A3A" stroke-width="0.907205" stroke-linecap="round" stroke-linejoin="round"/>
<path d="M45.6074 28.9258L47.1587 29.5487C47.883 29.8354 48.4723 30.385 48.8088 31.0876C49.1452 31.7901 49.2039 32.5938 48.9732 33.3378C48.4833 34.9133 48.0176 36.7368 48.2111 37.4989V37.5412" stroke="#3A3A3A" stroke-width="0.907205" stroke-linecap="round" stroke-linejoin="round"/>
<path d="M26.5455 19.7838C26.4548 17.8817 25.5355 16.3848 23.7634 14.891C22.076 13.4727 19.6568 12.0544 16.4362 10.2763C5.74635 4.3553 -5.78725 26.724 4.39764 33.3919C4.50953 33.4675 4.62142 33.5371 4.73935 33.6066" stroke="#3A3A3A" stroke-width="0.907205" stroke-linecap="round" stroke-linejoin="round"/>
</svg>
