<svg width="71" height="62" viewBox="0 0 71 62" fill="none" xmlns="http://www.w3.org/2000/svg">
<path d="M0.421875 41.9612C0.421875 49.6838 3.84011 57.9129 8.0546 60.3483C9.38724 61.1179 10.6399 61.2145 11.7194 60.7414C11.9293 60.6215 12.3524 60.4083 12.3524 60.4083C14.3513 59.0456 15.684 55.5774 15.684 50.7899C15.684 43.0706 12.2658 34.8382 8.0546 32.4061C6.91185 31.7398 5.82575 31.5799 4.85292 31.8431C2.23427 32.5394 0.421875 36.3407 0.421875 41.9612Z" fill="#FF4F4F"/>
<path d="M4.85352 31.8252C5.82635 31.562 6.91245 31.7286 8.05519 32.3883C12.2663 34.8203 15.6846 43.0494 15.6846 50.7721C15.6846 55.5596 14.3519 59.0278 12.353 60.3904C15.3627 58.8021 18.4984 57.4649 21.7281 56.3925C19.2894 52.148 24.1002 47.9269 30.7235 39.0681C36.3872 31.4587 34.9046 35.7365 34.1584 24.5057C36.2041 24.3859 38.2261 24.0053 40.1753 23.3729C42.674 26.5046 46.1522 29.2332 50.0668 27.0377C50.3387 26.8933 50.5631 26.6735 50.7131 26.4047C50.8618 26.1238 50.9179 25.8032 50.8737 25.4885C50.8294 25.1739 50.6869 24.8812 50.4666 24.6523C48.1416 22.2377 45.9495 19.6986 43.9 17.0462C43.3812 16.3739 42.7198 15.825 41.9634 15.439C41.207 15.053 40.3744 14.8396 39.5256 14.814C35.7342 14.6974 31.7163 14.4808 28.2348 14.2343C27.1706 14.161 26.1045 14.3474 25.1284 14.7775C24.1522 15.2075 23.2952 15.8683 22.631 16.703C21.6981 17.8724 20.6787 19.0585 19.5792 20.2479C15.0816 25.0987 9.48112 29.713 4.85352 31.8252Z" fill="#C2C7CC"/>
<path d="M12.3654 60.3906C12.1555 60.5072 11.9423 60.6205 11.7324 60.7238C11.9534 60.6327 12.1653 60.5212 12.3654 60.3906Z" fill="white"/>
<path d="M66.3006 29.2597C68.4695 28.0704 69.8588 24.4689 69.8588 19.4915C69.8588 11.7721 66.4439 3.5397 62.2294 1.10763C60.7935 0.281389 59.4408 0.208093 58.3048 0.831105C58.2015 0.887742 58.1015 0.947711 58.0016 1.00768C51.0285 5.04892 46.4476 9.73983 38.2351 10.1396C36.5693 10.2196 34.9035 10.3395 33.2377 10.4461C30.6491 11.0591 26.7311 11.4123 24.2424 12.8482C22.1734 14.0343 21.4638 16.4197 19.5781 20.2477C20.6642 19.075 21.6837 17.889 22.6132 16.7196C23.2797 15.8815 24.1405 15.2186 25.1211 14.7884C26.1016 14.3582 27.1723 14.1737 28.2403 14.2508C31.7218 14.4807 35.7398 14.7139 39.5311 14.8305C40.3775 14.8551 41.2079 15.0664 41.963 15.4494C42.7181 15.8324 43.3792 16.3777 43.8989 17.0461C45.9474 19.6972 48.1384 22.2352 50.4622 24.6488C50.6825 24.8777 50.825 25.1704 50.8692 25.4851C50.9135 25.7997 50.8573 26.1204 50.7087 26.4012C50.5587 26.67 50.3342 26.8898 50.0624 27.0342C46.1477 29.2431 42.6695 26.5145 40.1708 23.3695C38.2216 24.0018 36.1996 24.3825 34.1539 24.5022C34.9002 35.7431 36.3861 31.4553 30.719 39.0647C24.1124 47.9301 19.3016 52.1512 21.7403 56.389C21.7403 56.389 21.7403 56.389 21.7403 56.409C21.8618 56.6076 22.03 56.7734 22.2304 56.8918C22.4308 57.0102 22.6572 57.0776 22.8897 57.0881C23.1223 57.0986 23.3538 57.0519 23.5641 56.9521C23.7744 56.8523 23.9569 56.7025 24.0958 56.5156C24.379 56.1425 24.6455 55.796 24.8987 55.4762C26.3646 55.4762 27.8139 55.9992 29.2298 55.8693C31.2288 58.0515 32.3948 58.7945 34.8636 57.5951C37.7187 60.5169 40.0375 59.784 44.6385 57.1253C44.8817 56.9854 45.2315 56.7689 45.658 56.4957C46.914 55.6861 48.8097 54.4034 50.3222 53.2973C50.0624 51.0252 49.8425 46.7141 51.4983 45.7612C51.7052 45.6396 51.9403 45.5738 52.1803 45.5703C52.4203 45.5668 52.6572 45.6257 52.8676 45.7412C52.5744 43.0759 53.8871 41.0137 54.9832 40.3807C55.1911 40.2747 55.4227 40.2237 55.656 40.2324C55.8892 40.2412 56.1163 40.3094 56.3158 40.4306C56.4124 38.8381 56.8122 37.3456 58.3348 36.466C58.523 36.3367 58.7432 36.2618 58.9713 36.2494C59.1993 36.2371 59.4263 36.2878 59.6274 36.3961C60.1005 35.4632 60.7002 34.557 61.5531 34.0639C61.6948 33.981 61.8457 33.915 62.0029 33.8674C63.2522 31.8384 64.7081 30.136 66.3006 29.2597Z" fill="white"/>
<path d="M50.3518 53.3299C48.8359 54.436 46.9402 55.7187 45.6875 56.5282C47.5699 57.3811 50.2551 57.6077 52.5006 56.3117C53.4315 55.6801 54.2789 54.9334 55.0227 54.0895C55.4576 53.6272 55.7575 53.0544 55.8897 52.4335C56.0219 51.8126 55.9812 51.1674 55.7723 50.568C55.3156 49.3107 54.7434 48.0984 54.0632 46.9465C53.7932 46.455 53.3887 46.0505 52.8971 45.7805C52.6867 45.6649 52.4499 45.606 52.2098 45.6095C51.9698 45.613 51.7348 45.6788 51.5278 45.8005C49.872 46.7466 50.0919 51.0577 50.3518 53.3299Z" fill="#C2C7CC"/>
<path d="M55.0127 40.4098C53.9166 41.0428 52.6039 43.1217 52.8971 45.7703C53.3887 46.0403 53.7932 46.4448 54.0632 46.9364C54.7438 48.0903 55.3159 49.3049 55.7723 50.5645C56.0409 51.3343 56.0303 52.1739 55.7423 52.9366C56.203 52.7892 56.6491 52.5996 57.075 52.3702H57.0916C59.2971 51.0942 60.7797 49.555 60.9096 47.6793C60.9477 46.667 60.6782 45.667 60.1367 44.8108C59.4337 43.5948 57.8046 41.186 56.3453 40.4797C56.1476 40.3554 55.9214 40.2837 55.6881 40.2714C55.4549 40.2592 55.2224 40.3068 55.0127 40.4098Z" fill="#C2C7CC"/>
<path d="M58.3588 36.4994C56.8363 37.379 56.4365 38.8715 56.3398 40.4641C57.7958 41.177 59.4282 43.5858 60.1312 44.7951C60.6693 45.6547 60.9342 46.6572 60.8908 47.6703C62.5566 46.2444 63.746 44.5853 63.3196 42.3397C63.1535 41.5449 62.855 40.7836 62.4367 40.0876C61.2007 37.952 60.3778 36.8059 59.6381 36.4228C59.4381 36.3181 59.2132 36.27 58.9878 36.2835C58.7624 36.297 58.545 36.3716 58.3588 36.4994Z" fill="#C2C7CC"/>
<path d="M58.002 1.00861C58.1019 0.948638 58.2019 0.888669 58.3051 0.832031C58.2004 0.884405 58.0992 0.943382 58.002 1.00861Z" fill="white"/>
<path d="M61.5761 34.0922C60.7232 34.5853 60.1235 35.4915 59.6504 36.4243C60.39 36.8075 61.2129 37.9535 62.4489 40.0891C62.8673 40.7851 63.1657 41.5464 63.3318 42.3413C64.941 39.676 67.7395 36.7342 66.9666 35.3982C66.5335 34.6452 63.7883 33.3626 62.0258 33.8956C61.8687 33.9433 61.7178 34.0093 61.5761 34.0922Z" fill="#C2C7CC"/>
<path d="M12.3647 60.3888C14.3637 59.0261 15.6963 55.5579 15.6963 50.7704C15.6963 43.051 12.2781 34.8186 8.06691 32.3866C6.92417 31.7202 5.83806 31.5603 4.86523 31.8235" stroke="#373A3A" stroke-width="0.842955" stroke-linecap="round" stroke-linejoin="round"/>
<path d="M4.84625 31.8281C2.23427 32.5378 0.421875 36.3391 0.421875 41.9596C0.421875 49.6822 3.84011 57.9113 8.0546 60.3467C9.38724 61.1163 10.6399 61.2096 11.7194 60.7398C11.9403 60.6488 12.1522 60.5372 12.3524 60.4067" stroke="#373A3A" stroke-width="0.842955" stroke-linecap="round" stroke-linejoin="round"/>
<path d="M66.0978 29.37L66.301 29.2568C68.4266 27.9907 69.8592 24.4659 69.8592 19.4885C69.8592 11.7691 66.4443 3.53672 62.2298 1.10464C60.7938 0.278404 59.4512 0.221767 58.3051 0.82812C58.2004 0.880494 58.0992 0.939471 58.002 1.0047" stroke="#373A3A" stroke-width="0.842955" stroke-linecap="round" stroke-linejoin="round"/>
<path d="M19.5792 20.2461C15.0816 25.1003 9.48112 29.7112 4.85352 31.8234" stroke="#373A3A" stroke-width="0.842955" stroke-linecap="round" stroke-linejoin="round"/>
<path d="M38.0752 40.0909C29.9861 52.921 30.0294 49.0596 24.9087 55.5063C24.6555 55.8395 24.389 56.1726 24.1058 56.5458C23.9669 56.7326 23.7844 56.8825 23.5741 56.9823C23.3638 57.0821 23.1323 57.1288 22.8997 57.1182C22.6672 57.1077 22.4408 57.0403 22.2404 56.9219C22.04 56.8035 21.8717 56.6377 21.7503 56.4392C21.7503 56.4392 21.7503 56.4392 21.7503 56.4192C19.3116 52.1747 24.1224 47.9535 30.7457 39.0948C36.4094 31.4854 34.9269 35.7632 34.1806 24.5323C36.2263 24.4126 38.2483 24.0319 40.1975 23.3996C42.6962 26.5313 46.1744 29.2599 50.089 27.0643C50.3609 26.9199 50.5853 26.7001 50.7354 26.4313C50.884 26.1505 50.9402 25.8299 50.8959 25.5152C50.8516 25.2005 50.7092 24.9079 50.4888 24.6789C48.1551 22.2563 45.9552 19.7083 43.8989 17.0462C43.3801 16.3739 42.7187 15.825 41.9623 15.439C41.2059 15.053 40.3733 14.8396 39.5245 14.814C35.7331 14.6974 31.7152 14.4808 28.2337 14.2343C27.1695 14.161 26.1034 14.3474 25.1273 14.7775C24.1511 15.2075 23.294 15.8683 22.6299 16.703C21.697 17.8724 20.6776 19.0585 19.5781 20.2479" stroke="#373A3A" stroke-width="0.842955" stroke-linecap="round" stroke-linejoin="round"/>
<path d="M40.0869 45.5664C38.2345 47.9385 32.8773 54.2286 30.905 55.3913C30.4045 55.6777 29.8472 55.8506 29.2725 55.8977C27.8499 56.0243 26.4007 55.5013 24.9414 55.5046" stroke="#373A3A" stroke-width="0.842955" stroke-linecap="round" stroke-linejoin="round"/>
<path d="M42.3444 52.3242C41.8946 52.7573 36.8672 56.5187 35.6512 57.2184C35.3846 57.3749 35.1314 57.5082 34.8916 57.6248C32.4262 58.8309 31.2468 58.0812 29.2578 55.899" stroke="#373A3A" stroke-width="0.842955" stroke-linecap="round" stroke-linejoin="round"/>
<path d="M45.6856 56.5282C47.568 57.3811 50.2533 57.6077 52.4988 56.3117C53.4296 55.6801 54.277 54.9334 55.0208 54.0895C55.4563 53.6275 55.7568 53.0549 55.8896 52.434C56.0223 51.8131 55.9823 51.1677 55.7737 50.568C55.317 49.3107 54.7449 48.0984 54.0646 46.9465C53.7926 46.4565 53.3886 46.0525 52.8986 45.7805C52.6881 45.6649 52.4513 45.606 52.2113 45.6095C51.9712 45.613 51.7362 45.6788 51.5293 45.8005C49.8635 46.7533 50.0933 51.0644 50.3532 53.3366C48.8373 54.4427 46.945 55.7253 45.6889 56.5349C45.2625 56.8081 44.9127 57.0247 44.6695 57.1646C40.0685 59.8299 37.7497 60.5562 34.8945 57.6343" stroke="#373A3A" stroke-width="0.842955" stroke-linecap="round" stroke-linejoin="round"/>
<path d="M58.3048 0.832031C58.2015 0.888669 58.1015 0.948638 58.0016 1.00861C51.0285 5.04985 46.4476 9.74076 38.2351 10.1406C36.5693 10.2205 34.9035 10.3404 33.2377 10.4471C30.6491 11.0601 26.7311 11.4132 24.2424 12.8492C22.1734 14.0352 21.4638 16.4206 19.5781 20.2487" stroke="#373A3A" stroke-width="0.842955" stroke-linecap="round" stroke-linejoin="round"/>
<path d="M66.3018 29.2578C64.6893 30.0974 63.2534 31.8365 62.0273 33.8954" stroke="#373A3A" stroke-width="0.842955" stroke-linecap="round" stroke-linejoin="round"/>
<path d="M63.3318 42.3413C64.941 39.676 67.7395 36.7342 66.9666 35.3982C66.5335 34.6452 63.7883 33.3626 62.0258 33.8956C61.8687 33.9433 61.7178 34.0093 61.5761 34.0922C60.7232 34.5853 60.1235 35.4915 59.6504 36.4243" stroke="#373A3A" stroke-width="0.842955" stroke-linecap="round" stroke-linejoin="round"/>
<path d="M60.8905 47.6655C62.5563 46.2396 63.7457 44.5804 63.3192 42.3349C63.1531 41.5401 62.8547 40.7787 62.4363 40.0828C61.2003 37.9472 60.3774 36.8045 59.6378 36.418C59.4367 36.3097 59.2097 36.259 58.9816 36.2713C58.7536 36.2837 58.5334 36.3586 58.3451 36.4879C56.8226 37.3675 56.4228 38.8601 56.3262 40.4526" stroke="#373A3A" stroke-width="0.842955" stroke-linecap="round" stroke-linejoin="round"/>
<path d="M55.7423 52.9295C56.203 52.7821 56.6491 52.5925 57.075 52.3631H57.0916C59.2971 51.0871 60.7764 49.5479 60.9096 47.6722C60.9477 46.6599 60.6782 45.6598 60.1367 44.8037C59.4337 43.5876 57.8046 41.1789 56.3453 40.4726C56.1459 40.3514 55.9188 40.2831 55.6855 40.2744C55.4523 40.2657 55.2207 40.3167 55.0127 40.4226C53.9166 41.0556 52.6039 43.1345 52.8971 45.7832" stroke="#373A3A" stroke-width="0.842955" stroke-linecap="round" stroke-linejoin="round"/>
<path d="M11.7324 60.7413C11.9423 60.6213 12.3654 60.4081 12.3654 60.4081C15.3751 58.8197 18.5108 57.4825 21.7406 56.4102" stroke="#373A3A" stroke-width="0.842955" stroke-linecap="round" stroke-linejoin="round"/>
</svg>
