<svg width="41" height="67" viewBox="0 0 41 67" fill="none" xmlns="http://www.w3.org/2000/svg">
<path d="M29.4927 29.9796C30.6 28.1052 31.2835 25.9711 31.2835 24.0459C31.2835 20.2672 28.6271 18.7301 25.3528 20.6194C22.0785 22.5088 19.4251 27.1113 19.4251 30.893C19.4251 32.8152 20.1146 34.1762 21.2159 34.7732C22.3173 35.3701 23.741 35.2537 25.3498 34.3225C26.9586 33.3912 28.4271 31.8003 29.4927 29.9796ZM10.7305 57.1052V24.234C10.7305 22.1894 11.9721 19.8135 13.5093 18.9241L37.2023 5.24791C38.7395 4.35248 39.9811 5.30163 39.9811 7.33724V47.0137C39.9811 49.0612 38.7395 51.4371 37.2023 52.3206L13.5093 66.0027C11.9721 66.8982 10.7305 65.946 10.7305 63.8985V57.1052Z" fill="white"/>
<path d="M35.618 6.16095L13.5099 18.9238C11.9727 19.8192 10.7311 22.1891 10.7311 24.2337V31.612C10.0281 31.916 9.28865 32.1277 8.53128 32.2418C7.44333 32.41 6.336 32.41 5.24805 32.2418V21.3056C5.257 19.4073 6.40017 17.2284 7.81494 16.4226L29.6395 3.81194C30.2783 3.43884 30.8663 3.41795 31.314 3.67762L35.618 6.16095Z" fill="#DAE0E5"/>
<path d="M32.2654 4.22174L31.3132 3.67852C30.8655 3.41884 30.2775 3.43973 29.6388 3.81283L7.8142 16.4234C6.39942 17.2293 5.25626 19.4082 5.25626 21.3065V32.2427C4.48347 32.1348 3.72859 31.924 3.01172 31.6159V19.7783C3.01172 17.7308 4.25338 15.3549 5.78755 14.4714L29.4866 0.786281C31.0177 -0.109147 32.2654 0.842992 32.2654 2.89054V4.22174Z" fill="#FF4F4F"/>
<path d="M31.2871 24.0452C31.2871 25.9703 30.6006 28.1044 29.4963 29.9789C29.1254 29.4183 28.6374 28.9447 28.066 28.5907C27.4946 28.2368 26.8533 28.0108 26.1862 27.9283C26.5308 27.4522 26.729 26.8858 26.7562 26.2987C26.7562 25.4032 26.1294 25.0421 25.3564 25.4898C24.9496 25.7557 24.6112 26.1137 24.3685 26.5348C24.1259 26.9559 23.9857 27.4281 23.9595 27.9134C23.9595 28.4417 24.1834 28.785 24.5296 28.8805C23.1469 30.6701 22.0327 32.652 21.2225 34.7634C20.1152 34.1665 19.4316 32.8144 19.4316 30.8833C19.4316 27.1016 22.0851 22.505 25.3624 20.6097C28.6396 18.7144 31.2871 20.2665 31.2871 24.0452Z" fill="#DAE0E5"/>
<path d="M26.1863 27.9297C26.8529 28.0125 27.4936 28.2387 28.0645 28.5927C28.6354 28.9466 29.1229 29.42 29.4934 29.9802C28.4279 31.8009 26.9653 33.3799 25.3566 34.3141C23.7478 35.2483 22.2912 35.3468 21.2227 34.7648C22.0329 32.6533 23.147 30.6714 24.5298 28.8818C24.8158 28.9388 25.1128 28.8809 25.3566 28.7206C25.6839 28.516 25.9662 28.2469 26.1863 27.9297Z" fill="#FF4F4F"/>
<path d="M26.7557 26.3012C26.7285 26.8884 26.5303 27.4548 26.1856 27.9309C25.9655 28.2481 25.6832 28.5172 25.3559 28.7219C25.1121 28.8821 24.8151 28.94 24.5291 28.8831C24.1828 28.7905 23.959 28.4443 23.959 27.916C23.9852 27.4307 24.1253 26.9584 24.368 26.5374C24.6107 26.1163 24.9491 25.7583 25.3559 25.4924C26.1289 25.0447 26.7557 25.4088 26.7557 26.3012Z" fill="white"/>
<path d="M10.7301 57.1055V62.5676L6.13957 59.9171C5.59336 59.6037 5.24414 58.8784 5.24414 57.8457V57.7353C6.33233 57.9002 7.43918 57.9002 8.52738 57.7353C9.28586 57.6219 10.0263 57.4101 10.7301 57.1055Z" fill="#DAE0E5"/>
<path d="M10.7311 48.6133V57.1079C10.0278 57.4093 9.28834 57.618 8.53128 57.7287C7.44309 57.8937 6.33624 57.8937 5.24805 57.7287V49.2371C6.336 49.4053 7.44333 49.4053 8.53128 49.2371C9.28847 49.1253 10.0279 48.9156 10.7311 48.6133Z" fill="#DAE0E5"/>
<path d="M10.7311 40.1094V48.61C10.0275 48.9092 9.28806 49.1159 8.53128 49.2248C7.44333 49.393 6.336 49.393 5.24805 49.2248V40.7362C6.33635 40.8998 7.44299 40.8998 8.53128 40.7362C9.28791 40.6202 10.027 40.4097 10.7311 40.1094Z" fill="#DAE0E5"/>
<path d="M10.7311 31.6133V40.1109C10.0267 40.4091 9.28764 40.6177 8.53128 40.7317C7.44299 40.8953 6.33635 40.8953 5.24805 40.7317V32.2431C6.336 32.4113 7.44333 32.4113 8.53128 32.2431C9.28865 32.129 10.0281 31.9173 10.7311 31.6133Z" fill="#DAE0E5"/>
<path d="M7.37544 60.6321L5.78755 61.5514C4.25338 62.4468 3.01172 61.4977 3.01172 59.4621V57.125C3.72968 57.43 4.48414 57.6407 5.25626 57.7518V57.8622C5.25626 58.895 5.59354 59.6203 6.15169 59.9337L7.37544 60.6321Z" fill="#FF4F4F"/>
<path d="M5.25626 49.2371V57.7377C4.48414 57.6266 3.72968 57.4159 3.01172 57.1109V48.6133C3.72982 48.9173 4.48428 49.127 5.25626 49.2371Z" fill="#FF4F4F"/>
<path d="M5.25626 40.7362V49.2338C4.48428 49.1237 3.72982 48.914 3.01172 48.61V40.1094C3.72968 40.4144 4.48414 40.6251 5.25626 40.7362Z" fill="#FF4F4F"/>
<path d="M5.25626 32.2421V40.7427C4.48414 40.6316 3.72968 40.421 3.01172 40.1159V31.6094C3.7283 31.9196 4.48319 32.1324 5.25626 32.2421Z" fill="#FF4F4F"/>
<path d="M7.37544 60.6278L5.78755 61.5471C4.25338 62.4425 3.01172 61.4933 3.01172 59.4577V19.7783C3.01172 17.7308 4.25338 15.3549 5.78755 14.4714L29.4866 0.786281C31.0177 -0.109147 32.2654 0.842992 32.2654 2.89054V4.22174" stroke="#373A3A" stroke-width="0.895429" stroke-linecap="round" stroke-linejoin="round"/>
<path d="M35.6174 6.16124L37.2023 5.24791C38.7395 4.35248 39.9811 5.30163 39.9811 7.33724V47.0137C39.9811 49.0612 38.7395 51.4371 37.2023 52.3206L13.5093 66.0027C11.9721 66.8982 10.7305 65.946 10.7305 63.8985V24.234C10.7305 22.1894 11.9721 19.8135 13.5093 18.9241L35.6174 6.16124Z" stroke="#373A3A" stroke-width="0.895429" stroke-linecap="round" stroke-linejoin="round"/>
<path d="M29.4934 29.9808C30.5977 28.1034 31.2842 25.9723 31.2842 24.0471C31.2842 20.2684 28.6278 18.7313 25.3535 20.6206C22.0792 22.51 19.4258 27.1125 19.4258 30.8942C19.4258 32.8164 20.1153 34.1774 21.2166 34.7744C22.318 35.3713 23.7417 35.2549 25.3505 34.3237C26.9593 33.3924 28.4248 31.8015 29.4934 29.9808Z" stroke="#373A3A" stroke-width="0.895429" stroke-linecap="round" stroke-linejoin="round"/>
<path d="M26.1856 27.9315C26.532 27.4563 26.7304 26.8893 26.7557 26.3018C26.7557 25.4064 26.1289 25.0452 25.3559 25.4929C24.9491 25.7589 24.6107 26.1169 24.368 26.5379C24.1253 26.959 23.9852 27.4313 23.959 27.9165C23.959 28.4448 24.1828 28.7911 24.5291 28.8836C24.8151 28.9406 25.1121 28.8827 25.3559 28.7224C25.6838 28.5186 25.9663 28.2493 26.1856 27.9315Z" stroke="#373A3A" stroke-width="0.895429" stroke-linecap="round" stroke-linejoin="round"/>
<path d="M24.5298 28.8828C23.147 30.6724 22.0329 32.6543 21.2227 34.7658" stroke="#373A3A" stroke-width="0.895429" stroke-linecap="round" stroke-linejoin="round"/>
<path d="M26.1855 27.9297C26.8521 28.0125 27.4929 28.2387 28.0637 28.5927C28.6346 28.9466 29.1221 29.42 29.4927 29.9802" stroke="#373A3A" stroke-width="0.895429" stroke-linecap="round" stroke-linejoin="round"/>
<path d="M13.2858 37.2478C13.238 38.379 12.2859 39.4356 10.7308 40.1102C10.0264 40.4084 9.2874 40.617 8.53104 40.731C7.44274 40.8946 6.3361 40.8946 5.2478 40.731C4.47561 40.6203 3.72109 40.4096 3.00326 40.1042C1.89592 39.6237 1.05421 38.9342 0.66918 38.1074C-0.0292544 36.615 0.967656 35.0719 3.00326 34.1914" stroke="#373A3A" stroke-width="0.895429" stroke-linecap="round" stroke-linejoin="round"/>
<path d="M13.2768 28.8192C13.1932 29.9266 12.253 30.9533 10.7308 31.613C10.0283 31.9183 9.28872 32.1301 8.53104 32.2427C7.44286 32.4078 6.33599 32.4078 5.2478 32.2427C4.4759 32.1306 3.72157 31.92 3.00326 31.6159C1.8989 31.1324 1.05421 30.4519 0.66918 29.6191C-0.0292544 28.1268 0.967656 26.5866 3.00326 25.7031" stroke="#373A3A" stroke-width="0.895429" stroke-linecap="round" stroke-linejoin="round"/>
<path d="M13.2858 45.6564C13.2858 46.8235 12.3247 47.9159 10.7308 48.6113C10.0268 48.9093 9.28754 49.116 8.53104 49.2262C7.44296 49.3927 6.33588 49.3927 5.2478 49.2262C4.47574 49.1164 3.72123 48.9068 3.00326 48.6024C1.89592 48.1188 1.05421 47.4324 0.66918 46.5996C-0.0292544 45.1072 0.967656 43.5701 3.00326 42.6836" stroke="#373A3A" stroke-width="0.895429" stroke-linecap="round" stroke-linejoin="round"/>
<path d="M13.2828 54.2719C13.2171 55.3942 12.2709 56.4329 10.7308 57.1044C10.0275 57.4058 9.28809 57.6145 8.53104 57.7253C7.44285 57.8903 6.336 57.8903 5.2478 57.7253C4.47561 57.6146 3.72109 57.4039 3.00326 57.0985C1.89592 56.6179 1.05421 55.9255 0.66918 55.0957C-0.0292544 53.6033 0.967656 52.0602 3.00326 51.1797" stroke="#373A3A" stroke-width="0.895429" stroke-linecap="round" stroke-linejoin="round"/>
<path d="M10.7301 62.567L6.13957 59.9165C5.59336 59.6031 5.24414 58.8778 5.24414 57.8451V21.3056C5.25608 19.4073 6.39924 17.2284 7.81402 16.4226L29.6386 3.81194C30.2773 3.43884 30.8653 3.41795 31.313 3.67762L35.6171 6.16095" stroke="#373A3A" stroke-width="0.895429" stroke-linecap="round" stroke-linejoin="round"/>
</svg>
