<svg width="59" height="78" viewBox="0 0 59 78" fill="none" xmlns="http://www.w3.org/2000/svg">
<path d="M41.0831 48.457C46.7808 52.7954 56.1769 52.7954 57.7314 69.1617C54.0185 74.8558 48.5486 77.6684 41.4952 77.4551C35.5445 77.2744 29.084 75.0221 23.925 72.7553C23.5309 70.4053 22.5078 60.1488 22.5078 60.0657C24.0732 58.07 26.0435 55.6912 27.0703 54.8308C28.1707 56.7125 28.9893 58.7454 29.4998 60.8646C32.6523 58.493 37.7137 53.9269 41.0831 48.457Z" fill="white"/>
<path d="M39.6245 10.9252C41.8117 12.5086 43.0229 14.6055 43.0229 17.8665C43.0229 26.2828 37.148 29.2257 36.7106 37.0925C35.2593 35.7382 33.9609 34.2288 32.8386 32.5915C33.8111 30.6139 34.5414 28.2532 34.5414 26.5938C34.5414 24.815 33.4568 22.4796 32.2276 22.4796C30.7815 22.4796 29.697 24.7319 29.0064 27.0493C28.8157 26.7444 28.6056 26.4522 28.3774 26.1744C26.5011 23.9691 25.1236 22.7869 25.1236 20.5743C25.1503 19.2317 25.4987 17.915 26.1395 16.7349C25.3829 16.2108 24.4781 15.9435 23.5582 15.9721C21.1685 15.9721 19.1259 17.1543 16.9206 17.1543C12.4666 17.1543 8.65968 16.7168 6.11453 14.9851C4.01406 13.5354 2.78125 11.1963 2.78125 7.46896C2.78125 3.1704 9.22005 2.06413 13.6018 2.06413L18.8403 2.04243C21.6638 1.26515 24.9863 0.53125 27.3976 0.53125C35.2789 0.53125 39.7113 5.6794 39.7113 9.93096C39.7114 10.2643 39.6824 10.5969 39.6245 10.9252Z" fill="#373A3A"/>
<path d="M27.0703 54.8265C26.3828 53.6223 25.5865 52.4836 24.6914 51.4245C24.9947 51.4643 25.3002 51.4836 25.6061 51.4824C30.6458 51.4824 34.5683 47.9213 37.7028 44.1289C38.4038 45.8615 39.5744 47.364 41.0831 48.4672C37.7136 53.9371 32.6522 58.5032 29.5142 60.864C28.9995 58.7427 28.1761 56.7085 27.0703 54.8265Z" fill="white"/>
<path d="M19.5722 48.068C19.283 48.0897 18.9829 48.097 18.672 48.097H18.6177C17.1585 48.093 15.7134 47.812 14.359 47.269C11.4588 46.0839 9.07511 43.9052 7.63455 41.1231C6.58828 39.1659 6.03483 36.9831 6.02213 34.7638C6.02213 32.4862 6.45958 30.1435 6.45958 27.8948C6.45958 25.2593 5.375 24.4531 5.375 21.174C5.4389 19.0935 5.6918 17.023 6.13059 14.9883C8.66128 16.7236 12.4826 17.1574 16.9366 17.1574C19.142 17.1574 21.1846 15.9753 23.5743 15.9753C24.4942 15.9466 25.399 16.214 26.1556 16.7381C25.5147 17.9182 25.1664 19.2349 25.1397 20.5775C25.1397 22.79 26.5063 23.9722 28.3934 26.1775C28.6217 26.4554 28.8318 26.7476 29.0225 27.0524C29.7022 24.7351 30.7868 22.4827 32.2437 22.4827C33.4765 22.4827 34.5575 24.8182 34.5575 26.5969C34.5575 28.2599 33.8344 30.6171 32.8547 32.5947C33.977 34.232 35.2754 35.7414 36.7266 37.0957C36.7086 37.3957 36.7013 37.7067 36.7013 38.0284C36.7013 40.5591 37.0629 42.5475 37.7208 44.131C34.5864 47.9234 30.6638 51.4845 25.6241 51.4845C25.3183 51.4857 25.0127 51.4664 24.7095 51.4266C23.4667 51.2811 22.2927 50.7789 21.3292 49.9805C20.6548 49.4307 20.063 48.7866 19.5722 48.068Z" fill="#DAE0E5"/>
<path d="M27.0721 54.8265C26.0453 55.6869 24.075 58.0803 22.5096 60.0614C20.8431 59.7892 19.2746 59.0933 17.9544 58.0405C17.864 55.687 17.8242 53.3406 17.8242 50.9799V50.6762C18.9775 50.3833 20.1416 50.1447 21.3093 49.9531C22.2719 50.7529 23.4464 51.2554 24.6896 51.3992C25.5872 52.4662 26.3847 53.6134 27.0721 54.8265Z" fill="#FF4F4F"/>
<path d="M22.5083 60.0597C22.5083 60.1429 23.5314 70.3994 23.9255 72.7493C21.6515 71.7443 19.6342 70.7392 18.0217 69.9041C16.4853 69.1087 14.815 68.1796 13.123 67.1203C14.2655 64.1269 16.102 61.1696 17.9747 58.6714C17.9747 58.4618 17.9747 58.2448 17.9531 58.0352C19.2733 59.0879 20.8418 59.7838 22.5083 60.0561V60.0597Z" fill="#FF4F4F"/>
<path d="M21.3309 49.9593C20.1631 50.1364 18.999 50.3751 17.8457 50.6823C16.0017 51.1557 14.1999 51.7808 12.459 52.5514C12.9608 50.7432 13.6039 48.9771 14.3823 47.2695C15.7367 47.8125 17.1819 48.0935 18.6411 48.0974H18.6953C19.0062 48.0974 19.3063 48.0974 19.5955 48.0685C20.0814 48.7779 20.6657 49.4145 21.3309 49.9593Z" fill="white"/>
<path d="M17.9541 58.0358C17.9541 58.2455 17.9541 58.4624 17.9758 58.6721C16.1031 61.1702 14.2665 64.1275 13.1241 67.121C7.92174 63.8672 2.56029 59.3951 0.542969 53.7083C1.17203 48.1299 3.01943 44.0375 7.63252 41.1055C9.07308 43.8876 11.4568 46.0663 14.3569 47.2514C13.5785 48.959 12.9354 50.7251 12.4336 52.5333C14.1745 51.7627 15.9763 51.1376 17.8204 50.6642V50.9607C17.824 53.3396 17.8854 55.6823 17.9541 58.0358Z" fill="white"/>
<path d="M6.12473 14.9805C5.68594 17.0152 5.43304 19.0857 5.36914 21.1662C5.36914 24.4453 6.45372 25.2515 6.45372 27.887C6.45372 30.1248 6.01627 32.4675 6.01627 34.756C6.03071 36.9751 6.58405 39.1574 7.62869 41.1153C9.07128 43.8959 11.4543 46.0739 14.3531 47.2612C15.708 47.8026 17.1529 48.0834 18.6119 48.0891H18.6661C18.977 48.0891 19.2771 48.0891 19.5663 48.0602C24.1324 47.7565 26.4064 45.3054 28.3008 43.6387" stroke="#373A3A" stroke-width="1.08458" stroke-linecap="round" stroke-linejoin="round"/>
<path d="M7.63252 41.1063C3.01943 44.0383 1.17203 48.1308 0.542969 53.7092C2.56029 59.396 7.92536 63.8681 13.1241 67.1218C14.8161 68.1811 16.4863 69.1102 18.0228 69.9056C19.6352 70.7407 21.6381 71.7458 23.9266 72.7508C29.0819 75.0284 35.546 77.2771 41.4968 77.4507C48.5502 77.664 54.0201 74.8513 57.733 69.1572C56.1784 52.8054 46.7823 52.7945 41.1027 48.4526C39.5959 47.3475 38.4256 45.8455 37.7224 44.1142C37.0753 42.5307 36.7029 40.5568 36.7029 38.0117C36.7029 37.6899 36.7029 37.379 36.7282 37.0789C37.144 29.2229 43.0224 26.2801 43.0224 17.8637C43.0224 14.61 41.8113 12.5059 39.6241 10.9224C39.6811 10.5989 39.7102 10.2711 39.7108 9.94268C39.7108 5.67666 35.2785 0.542969 27.3972 0.542969C24.9858 0.542969 21.6634 1.26602 18.8399 2.05415L13.6013 2.07584C9.21962 2.07584 2.78082 3.18212 2.78082 7.49875C2.78082 11.2261 4.01363 13.5652 6.12495 15.0113C8.65564 16.7466 12.477 17.1805 16.931 17.1805C19.1363 17.1805 21.1789 15.9983 23.5686 15.9983C24.4886 15.9696 25.3934 16.237 26.1499 16.7611C25.5091 17.9412 25.1607 19.2579 25.1341 20.6005C25.1341 22.813 26.5006 23.9952 28.3878 26.2006C28.616 26.4784 28.8262 26.7706 29.0169 27.0755C29.6965 24.7581 30.7811 22.5058 32.2381 22.5058C33.4709 22.5058 34.5518 24.8412 34.5518 26.6199C34.5518 28.283 33.8288 30.6401 32.849 32.6177C33.9713 34.255 35.2697 35.7644 36.721 37.1187" stroke="#373A3A" stroke-width="1.08458" stroke-linecap="round" stroke-linejoin="round"/>
<path d="M19.5723 48.0681C20.0667 48.7773 20.6582 49.4138 21.3293 49.9589C22.2936 50.7558 23.4672 51.2579 24.7096 51.405C25.0128 51.4447 25.3184 51.4641 25.6242 51.4628C30.6639 51.4628 34.5865 47.9018 37.7209 44.1094" stroke="#373A3A" stroke-width="1.08458" stroke-linecap="round" stroke-linejoin="round"/>
<path d="M14.3608 47.2617C13.5824 48.9693 12.9393 50.7353 12.4375 52.5436C14.1778 51.7714 15.9797 51.1462 17.8243 50.6745C18.973 50.3749 20.1362 50.1336 21.3094 49.9515" stroke="#373A3A" stroke-width="1.08458" stroke-linecap="round" stroke-linejoin="round"/>
<path d="M24.6914 51.4179C25.5845 52.4785 26.3806 53.6171 27.0703 54.8199C28.1692 56.7024 28.9876 58.7351 29.4997 60.8538C32.6522 58.493 37.7136 53.9269 41.0686 48.457" stroke="#373A3A" stroke-width="1.08458" stroke-linecap="round" stroke-linejoin="round"/>
<path d="M23.925 72.7526C23.5309 70.4027 22.5078 60.1462 22.5078 60.063C24.0732 58.0674 26.0435 55.6886 27.0703 54.8281" stroke="#373A3A" stroke-width="1.08458" stroke-linecap="round" stroke-linejoin="round"/>
<path d="M13.123 67.1214C14.2655 64.1279 16.102 61.1706 17.9747 58.6725C17.9747 58.4628 17.9747 58.2459 17.9531 58.0362C17.8844 55.6826 17.8229 53.3363 17.8229 50.9756V50.6719" stroke="#373A3A" stroke-width="1.08458" stroke-linecap="round" stroke-linejoin="round"/>
<path d="M17.9492 58.0312C19.2694 59.084 20.838 59.7799 22.5045 60.0522" stroke="#373A3A" stroke-width="1.08458" stroke-linecap="round" stroke-linejoin="round"/>
<path d="M10.7591 27.5391C10.876 28.1637 10.9341 28.798 10.9326 29.4335C10.9326 33.2512 9.125 34.3105 9.125 35.1745C9.125 35.706 9.61306 36.3061 10.2096 36.7833C10.6989 37.2097 11.2865 37.5078 11.9196 37.651" stroke="#373A3A" stroke-width="1.08458" stroke-linecap="round" stroke-linejoin="round"/>
<path d="M6.26562 23.3984C7.51651 23.666 8.68424 24.7722 9.51937 25.6941" stroke="#373A3A" stroke-width="1.08458" stroke-linecap="round" stroke-linejoin="round"/>
<path d="M16.4219 25.9062C17.5824 26.369 19.2346 26.8535 19.6756 28.1911" stroke="#373A3A" stroke-width="1.08458" stroke-linecap="round" stroke-linejoin="round"/>
<path d="M8.13431 28.3594C8.18681 28.6601 8.21102 28.9651 8.20661 29.2704C8.20334 29.7683 8.16103 30.2651 8.08008 30.7563" stroke="#373A3A" stroke-width="1.08458" stroke-linecap="round" stroke-linejoin="round"/>
<path d="M17.1211 31.2188C17.1211 32.278 17.1681 33.312 17.2729 34.3677" stroke="#373A3A" stroke-width="1.08458" stroke-linecap="round" stroke-linejoin="round"/>
</svg>
