<svg width="48" height="50" viewBox="0 0 48 50" fill="none" xmlns="http://www.w3.org/2000/svg">
<path d="M1.83984 7.51562C1.03086 7.51562 0.375 8.17148 0.375 8.98047V48.5353C0.375 49.3442 1.03086 50.0001 1.83984 50.0001H18.4981L19.4747 28.908L18.4981 7.51562H1.83984Z" fill="#EBF5FF"/>
<path d="M35.1563 7.51562H18.498V50.0001H35.1706C35.9798 50.0001 36.6357 49.3439 36.6355 48.5348L36.6213 8.98047C36.6212 8.17148 35.9653 7.51562 35.1563 7.51562Z" fill="#DAEBFF"/>
<path d="M8.68706 44.3413C8.31216 44.3413 7.93735 44.1983 7.65132 43.9122L4.7269 40.9877C4.15483 40.4158 4.15483 39.4882 4.7269 38.9162C5.29888 38.3442 6.22642 38.3442 6.79849 38.9162L8.68716 40.8048L13.0551 36.4369C13.6271 35.8648 14.5546 35.8648 15.1267 36.4369C15.6988 37.0089 15.6988 37.9364 15.1267 38.5084L9.7229 43.9122C9.43686 44.1982 9.06187 44.3413 8.68706 44.3413Z" fill="#7FE390"/>
<path d="M8.68706 34.2553C8.31216 34.2553 7.93735 34.1124 7.65132 33.8262L4.7269 30.9018C4.15483 30.3298 4.15483 29.4023 4.7269 28.8302C5.29888 28.2583 6.22642 28.2583 6.79849 28.8302L8.68716 30.7189L13.0551 26.3509C13.6271 25.7789 14.5546 25.7789 15.1267 26.3509C15.6988 26.923 15.6988 27.8504 15.1267 28.4225L9.7229 33.8262C9.43686 34.1123 9.06187 34.2553 8.68706 34.2553Z" fill="#7FE390"/>
<path d="M29.3076 42.8398H22.9248C22.1158 42.8398 21.46 42.184 21.46 41.375C21.46 40.566 22.1158 39.9102 22.9248 39.9102H29.3076C30.1166 39.9102 30.7725 40.566 30.7725 41.375C30.7725 42.184 30.1166 42.8398 29.3076 42.8398Z" fill="#C6D9FF"/>
<path d="M29.3076 31.5547H22.9248C22.1158 31.5547 21.46 30.8988 21.46 30.0898C21.46 29.2809 22.1158 28.625 22.9248 28.625H29.3076C30.1166 28.625 30.7725 29.2809 30.7725 30.0898C30.7725 30.8988 30.1166 31.5547 29.3076 31.5547Z" fill="#C6D9FF"/>
<path d="M8.68706 24.1733C8.31216 24.1733 7.93735 24.0303 7.65132 23.7442L4.7269 20.8198C4.15483 20.2478 4.15483 19.3203 4.7269 18.7482C5.29888 18.1762 6.22642 18.1762 6.79849 18.7482L8.68716 20.6369L13.0551 16.2689C13.6271 15.6968 14.5546 15.6968 15.1267 16.2689C15.6988 16.8409 15.6988 17.7684 15.1267 18.3405L9.7229 23.7442C9.43686 24.0302 9.06187 24.1733 8.68706 24.1733Z" fill="#7FE390"/>
<path d="M29.3076 21.4727H22.9248C22.1158 21.4727 21.46 20.8168 21.46 20.0078C21.46 19.1988 22.1158 18.543 22.9248 18.543H29.3076C30.1166 18.543 30.7725 19.1988 30.7725 20.0078C30.7725 20.8168 30.1166 21.4727 29.3076 21.4727Z" fill="#C6D9FF"/>
<path d="M14.1127 4.079H13.2922C10.8711 4.079 8.90137 6.04873 8.90137 8.46982V11.4009C8.90137 12.2099 9.55723 12.8657 10.3662 12.8657H18.4979L19.4744 7.40664L18.4979 0C16.1803 0 14.2759 1.80225 14.1127 4.079Z" fill="#FFDF40"/>
<path d="M23.7036 4.079H22.8831C22.72 1.80225 20.8155 0 18.498 0V12.8656H26.6297C27.4387 12.8656 28.0945 12.2098 28.0945 11.4008V8.46973C28.0944 6.04863 26.1247 4.079 23.7036 4.079Z" fill="#FFBE40"/>
<path d="M25.6465 39.0093C25.6465 45.069 30.5765 49.9989 36.6362 49.9989L37.6128 38.4743L36.6362 28.0195C30.5765 28.0196 25.6465 32.9495 25.6465 39.0093Z" fill="#F36A3D"/>
<path d="M36.6367 28.0195V49.9988C42.6965 49.9988 47.6264 45.0689 47.6264 39.0092C47.6264 32.9494 42.6964 28.0195 36.6367 28.0195Z" fill="#EC4C36"/>
<path d="M35.1719 35.3086V39.0102C35.1719 39.8191 35.8277 40.475 36.6367 40.475L37.6133 37.5275L36.6367 33.8438C35.8276 33.8438 35.1719 34.4996 35.1719 35.3086Z" fill="#EBF5FF"/>
<path d="M40.3086 37.5453H38.1016V35.3086C38.1016 34.4996 37.4457 33.8438 36.6367 33.8438V40.475H40.3086C41.1176 40.475 41.7734 39.8191 41.7734 39.0102C41.7734 38.2012 41.1176 37.5453 40.3086 37.5453Z" fill="#DAEBFF"/>
</svg>
