<svg width="50" height="50" viewBox="0 0 50 50" fill="none" xmlns="http://www.w3.org/2000/svg">
<path d="M2.83984 7.51562C2.03086 7.51562 1.375 8.17148 1.375 8.98047V48.5353C1.375 49.3442 2.03086 50.0001 2.83984 50.0001H19.4981L20.4747 28.908L19.4981 7.51562H2.83984Z" fill="#EBF5FF"/>
<path d="M36.1563 7.51562H19.498V50.0001H36.1706C36.9798 50.0001 37.6357 49.3439 37.6355 48.5348L37.6213 8.98047C37.6212 8.17148 36.9653 7.51562 36.1563 7.51562Z" fill="#DAEBFF"/>
<path d="M9.68706 44.3413C9.31216 44.3413 8.93735 44.1983 8.65132 43.9122L5.7269 40.9877C5.15483 40.4158 5.15483 39.4882 5.7269 38.9162C6.29888 38.3442 7.22642 38.3442 7.79849 38.9162L9.68716 40.8048L14.0551 36.4369C14.6271 35.8648 15.5546 35.8648 16.1267 36.4369C16.6988 37.0089 16.6988 37.9364 16.1267 38.5084L10.7229 43.9122C10.4369 44.1982 10.0619 44.3413 9.68706 44.3413Z" fill="#7FE390"/>
<path d="M9.68706 34.2553C9.31216 34.2553 8.93735 34.1124 8.65132 33.8262L5.7269 30.9018C5.15483 30.3298 5.15483 29.4023 5.7269 28.8302C6.29888 28.2583 7.22642 28.2583 7.79849 28.8302L9.68716 30.7189L14.0551 26.3509C14.6271 25.7789 15.5546 25.7789 16.1267 26.3509C16.6988 26.923 16.6988 27.8504 16.1267 28.4225L10.7229 33.8262C10.4369 34.1123 10.0619 34.2553 9.68706 34.2553Z" fill="#7FE390"/>
<path d="M30.3076 42.8398H23.9248C23.1158 42.8398 22.46 42.184 22.46 41.375C22.46 40.566 23.1158 39.9102 23.9248 39.9102H30.3076C31.1166 39.9102 31.7725 40.566 31.7725 41.375C31.7725 42.184 31.1166 42.8398 30.3076 42.8398Z" fill="#C6D9FF"/>
<path d="M30.3076 31.5547H23.9248C23.1158 31.5547 22.46 30.8988 22.46 30.0898C22.46 29.2809 23.1158 28.625 23.9248 28.625H30.3076C31.1166 28.625 31.7725 29.2809 31.7725 30.0898C31.7725 30.8988 31.1166 31.5547 30.3076 31.5547Z" fill="#C6D9FF"/>
<path d="M9.68706 24.1733C9.31216 24.1733 8.93735 24.0303 8.65132 23.7442L5.7269 20.8198C5.15483 20.2478 5.15483 19.3203 5.7269 18.7482C6.29888 18.1762 7.22642 18.1762 7.79849 18.7482L9.68716 20.6369L14.0551 16.2689C14.6271 15.6968 15.5546 15.6968 16.1267 16.2689C16.6988 16.8409 16.6988 17.7684 16.1267 18.3405L10.7229 23.7442C10.4369 24.0302 10.0619 24.1733 9.68706 24.1733Z" fill="#7FE390"/>
<path d="M30.3076 21.4727H23.9248C23.1158 21.4727 22.46 20.8168 22.46 20.0078C22.46 19.1988 23.1158 18.543 23.9248 18.543H30.3076C31.1166 18.543 31.7725 19.1988 31.7725 20.0078C31.7725 20.8168 31.1166 21.4727 30.3076 21.4727Z" fill="#C6D9FF"/>
<path d="M15.1127 4.079H14.2922C11.8711 4.079 9.90137 6.04873 9.90137 8.46982V11.4009C9.90137 12.2099 10.5572 12.8657 11.3662 12.8657H19.4979L20.4744 7.40664L19.4979 0C17.1803 0 15.2759 1.80225 15.1127 4.079Z" fill="#FFDF40"/>
<path d="M24.7036 4.079H23.8831C23.72 1.80225 21.8155 0 19.498 0V12.8656H27.6297C28.4387 12.8656 29.0945 12.2098 29.0945 11.4008V8.46973C29.0944 6.04863 27.1247 4.079 24.7036 4.079Z" fill="#FFBE40"/>
<path d="M26.6465 39.0093C26.6465 45.069 31.5765 49.9989 37.6362 49.9989L38.6128 38.4743L37.6362 28.0195C31.5765 28.0196 26.6465 32.9495 26.6465 39.0093Z" fill="#F36A3D"/>
<path d="M37.6367 28.0195V49.9988C43.6965 49.9988 48.6264 45.0689 48.6264 39.0092C48.6264 32.9494 43.6964 28.0195 37.6367 28.0195Z" fill="#EC4C36"/>
<path d="M36.1719 35.3086V39.0102C36.1719 39.8191 36.8277 40.475 37.6367 40.475L38.6133 37.5275L37.6367 33.8438C36.8276 33.8438 36.1719 34.4996 36.1719 35.3086Z" fill="#EBF5FF"/>
<path d="M41.3086 37.5453H39.1016V35.3086C39.1016 34.4996 38.4457 33.8438 37.6367 33.8438V40.475H41.3086C42.1176 40.475 42.7734 39.8191 42.7734 39.0102C42.7734 38.2012 42.1176 37.5453 41.3086 37.5453Z" fill="#DAEBFF"/>
</svg>
