<svg width="70" height="52" viewBox="0 0 76 59" fill="none" xmlns="http://www.w3.org/2000/svg">
<path d="M39.13 5.38945V13.1117C39.13 14.0689 38.354 14.8449 37.3968 14.8449H29.6746C28.7173 14.8449 27.9414 14.0688 27.9414 13.1117V5.38945C27.9414 4.43218 28.7175 3.65625 29.6746 3.65625H37.3968C38.354 3.6561 39.13 4.43218 39.13 5.38945Z" fill="url(#paint0_linear_1669_23295)"/>
<path d="M39.13 5.38945V13.1117C39.13 14.0689 38.354 14.8449 37.3968 14.8449H29.6746C28.7173 14.8449 27.9414 14.0688 27.9414 13.1117V5.38945C27.9414 4.43218 28.7175 3.65625 29.6746 3.65625H37.3968C38.354 3.6561 39.13 4.43218 39.13 5.38945Z" fill="url(#paint1_linear_1669_23295)"/>
<path d="M39.13 5.38945V13.1117C39.13 14.0689 38.354 14.8449 37.3968 14.8449H29.6746C28.7173 14.8449 27.9414 14.0688 27.9414 13.1117V5.38945C27.9414 4.43218 28.7175 3.65625 29.6746 3.65625H37.3968C38.354 3.6561 39.13 4.43218 39.13 5.38945Z" fill="url(#paint2_linear_1669_23295)"/>
<path d="M39.13 5.38945V13.1117C39.13 14.0689 38.354 14.8449 37.3968 14.8449H29.6746C28.7173 14.8449 27.9414 14.0688 27.9414 13.1117V5.38945C27.9414 4.43218 28.7175 3.65625 29.6746 3.65625H37.3968C38.354 3.6561 39.13 4.43218 39.13 5.38945Z" fill="url(#paint3_linear_1669_23295)"/>
<path d="M50.3185 5.38945V13.1117C50.3185 14.0689 49.5424 14.8449 48.5853 14.8449H40.8631C39.9058 14.8449 39.1299 14.0688 39.1299 13.1117V5.38945C39.1299 4.43218 39.906 3.65625 40.8631 3.65625H48.5853C49.5424 3.6561 50.3185 4.43218 50.3185 5.38945Z" fill="url(#paint4_linear_1669_23295)"/>
<path d="M50.3185 5.38945V13.1117C50.3185 14.0689 49.5424 14.8449 48.5853 14.8449H40.8631C39.9058 14.8449 39.1299 14.0688 39.1299 13.1117V5.38945C39.1299 4.43218 39.906 3.65625 40.8631 3.65625H48.5853C49.5424 3.6561 50.3185 4.43218 50.3185 5.38945Z" fill="url(#paint5_linear_1669_23295)"/>
<path d="M50.3185 5.38945V13.1117C50.3185 14.0689 49.5424 14.8449 48.5853 14.8449H40.8631C39.9058 14.8449 39.1299 14.0688 39.1299 13.1117V5.38945C39.1299 4.43218 39.906 3.65625 40.8631 3.65625H48.5853C49.5424 3.6561 50.3185 4.43218 50.3185 5.38945Z" fill="url(#paint6_linear_1669_23295)"/>
<path d="M61.508 5.38945V13.1117C61.508 14.0689 60.7319 14.8449 59.7748 14.8449H52.0525C51.0953 14.8449 50.3193 14.0688 50.3193 13.1117V5.38945C50.3193 4.43218 51.0954 3.65625 52.0525 3.65625H59.7748C60.7319 3.6561 61.508 4.43218 61.508 5.38945Z" fill="url(#paint7_linear_1669_23295)"/>
<path d="M61.508 5.38945V13.1117C61.508 14.0689 60.7319 14.8449 59.7748 14.8449H52.0525C51.0953 14.8449 50.3193 14.0688 50.3193 13.1117V5.38945C50.3193 4.43218 51.0954 3.65625 52.0525 3.65625H59.7748C60.7319 3.6561 61.508 4.43218 61.508 5.38945Z" fill="url(#paint8_linear_1669_23295)"/>
<path d="M61.508 5.38945V13.1117C61.508 14.0689 60.7319 14.8449 59.7748 14.8449H52.0525C51.0953 14.8449 50.3193 14.0688 50.3193 13.1117V5.38945C50.3193 4.43218 51.0954 3.65625 52.0525 3.65625H59.7748C60.7319 3.6561 61.508 4.43218 61.508 5.38945Z" fill="url(#paint9_linear_1669_23295)"/>
<path d="M72.6964 5.38945V13.1117C72.6964 14.0689 71.9204 14.8449 70.9632 14.8449H63.241C62.2837 14.8449 61.5078 14.0688 61.5078 13.1117V5.38945C61.5078 4.43218 62.2839 3.65625 63.241 3.65625H70.9632C71.9204 3.6561 72.6964 4.43218 72.6964 5.38945Z" fill="url(#paint10_linear_1669_23295)"/>
<path d="M72.6964 5.38945V13.1117C72.6964 14.0689 71.9204 14.8449 70.9632 14.8449H63.241C62.2837 14.8449 61.5078 14.0688 61.5078 13.1117V5.38945C61.5078 4.43218 62.2839 3.65625 63.241 3.65625H70.9632C71.9204 3.6561 72.6964 4.43218 72.6964 5.38945Z" fill="url(#paint11_linear_1669_23295)"/>
<path d="M72.6964 5.38945V13.1117C72.6964 14.0689 71.9204 14.8449 70.9632 14.8449H63.241C62.2837 14.8449 61.5078 14.0688 61.5078 13.1117V5.38945C61.5078 4.43218 62.2839 3.65625 63.241 3.65625H70.9632C71.9204 3.6561 72.6964 4.43218 72.6964 5.38945Z" fill="url(#paint12_linear_1669_23295)"/>
<path d="M7.87527 54.9597L0.531125 11.507C0.305685 10.1733 1.33357 8.95703 2.68635 8.95703H9.1718L7.91862 54.9566C7.91804 54.983 7.87966 54.9858 7.87527 54.9597Z" fill="url(#paint13_linear_1669_23295)"/>
<path d="M28.4417 4.73452C28.4417 2.31387 26.4794 0.351562 24.0589 0.351562H12.2129C9.79224 0.351562 7.83008 2.31387 7.83008 4.73437V54.33C7.83008 56.7507 9.79238 58.7128 12.2129 58.7128H71.1172C73.5378 58.7128 75.5 56.7505 75.5 54.33V15.8071C75.5 13.3865 73.5377 11.4243 71.1172 11.4243H35.1314C31.4368 11.4242 28.4417 8.42915 28.4417 4.73452Z" fill="url(#paint14_linear_1669_23295)"/>
<path d="M7.83008 30.5703V54.3301C7.83008 56.7507 9.79238 58.7129 12.2129 58.7129H71.1172C73.5378 58.7129 75.5 56.7506 75.5 54.3301V30.5703H7.83008Z" fill="url(#paint15_linear_1669_23295)"/>
<path d="M71.117 11.4219H42.7109V58.7108H71.117C73.5377 58.7108 75.4999 56.7485 75.4999 54.328V15.8048C75.4999 13.3842 73.5375 11.4219 71.117 11.4219Z" fill="url(#paint16_linear_1669_23295)"/>
<defs>
<linearGradient id="paint0_linear_1669_23295" x1="29.9544" y1="5.66938" x2="36.1938" y2="11.9087" gradientUnits="userSpaceOnUse">
<stop stop-color="#F5FBFF"/>
<stop offset="1" stop-color="#DBD5EF"/>
</linearGradient>
<linearGradient id="paint1_linear_1669_23295" x1="32.643" y1="9.25049" x2="39.5037" y2="9.25049" gradientUnits="userSpaceOnUse">
<stop stop-color="#DBD5EF" stop-opacity="0"/>
<stop offset="0.2853" stop-color="#D9D2EE" stop-opacity="0.285"/>
<stop offset="0.4739" stop-color="#D4C9E9" stop-opacity="0.474"/>
<stop offset="0.6346" stop-color="#CBBAE2" stop-opacity="0.635"/>
<stop offset="0.7795" stop-color="#BFA5D7" stop-opacity="0.78"/>
<stop offset="0.9126" stop-color="#AF8ACA" stop-opacity="0.913"/>
<stop offset="1" stop-color="#A274BF"/>
</linearGradient>
<linearGradient id="paint2_linear_1669_23295" x1="33.5356" y1="8.72417" x2="33.5356" y2="11.8526" gradientUnits="userSpaceOnUse">
<stop stop-color="#DBD5EF" stop-opacity="0"/>
<stop offset="0.2853" stop-color="#D9D2EE" stop-opacity="0.285"/>
<stop offset="0.4739" stop-color="#D4C9E9" stop-opacity="0.474"/>
<stop offset="0.6346" stop-color="#CBBAE2" stop-opacity="0.635"/>
<stop offset="0.7795" stop-color="#BFA5D7" stop-opacity="0.78"/>
<stop offset="0.9126" stop-color="#AF8ACA" stop-opacity="0.913"/>
<stop offset="1" stop-color="#A274BF"/>
</linearGradient>
<linearGradient id="paint3_linear_1669_23295" x1="34.4431" y1="8.15728" x2="31.402" y2="11.8206" gradientUnits="userSpaceOnUse">
<stop stop-color="#DBD5EF" stop-opacity="0"/>
<stop offset="0.2853" stop-color="#D9D2EE" stop-opacity="0.285"/>
<stop offset="0.4739" stop-color="#D4C9E9" stop-opacity="0.474"/>
<stop offset="0.6346" stop-color="#CBBAE2" stop-opacity="0.635"/>
<stop offset="0.7795" stop-color="#BFA5D7" stop-opacity="0.78"/>
<stop offset="0.9126" stop-color="#AF8ACA" stop-opacity="0.913"/>
<stop offset="1" stop-color="#A274BF"/>
</linearGradient>
<linearGradient id="paint4_linear_1669_23295" x1="40.5073" y1="5.03364" x2="48.1905" y2="12.7169" gradientUnits="userSpaceOnUse">
<stop stop-color="#B3DAFE"/>
<stop offset="1" stop-color="#0182FC"/>
</linearGradient>
<linearGradient id="paint5_linear_1669_23295" x1="47.7363" y1="9.25049" x2="50.2876" y2="9.25049" gradientUnits="userSpaceOnUse">
<stop stop-color="#314DC9" stop-opacity="0"/>
<stop offset="0.2761" stop-color="#304BC4" stop-opacity="0.276"/>
<stop offset="0.5628" stop-color="#2B45B8" stop-opacity="0.563"/>
<stop offset="0.8535" stop-color="#243BA3" stop-opacity="0.854"/>
<stop offset="1" stop-color="#1F3596"/>
</linearGradient>
<linearGradient id="paint6_linear_1669_23295" x1="44.7241" y1="9.44136" x2="44.7241" y2="12.1932" gradientUnits="userSpaceOnUse">
<stop stop-color="#314DC9" stop-opacity="0"/>
<stop offset="0.2761" stop-color="#304BC4" stop-opacity="0.276"/>
<stop offset="0.5628" stop-color="#2B45B8" stop-opacity="0.563"/>
<stop offset="0.8535" stop-color="#243BA3" stop-opacity="0.854"/>
<stop offset="1" stop-color="#1F3596"/>
</linearGradient>
<linearGradient id="paint7_linear_1669_23295" x1="53.2729" y1="6.60981" x2="58.4913" y2="11.8283" gradientUnits="userSpaceOnUse">
<stop stop-color="#FFA1AE"/>
<stop offset="1" stop-color="#FF4565"/>
</linearGradient>
<linearGradient id="paint8_linear_1669_23295" x1="58.7664" y1="9.25049" x2="61.6528" y2="9.25049" gradientUnits="userSpaceOnUse">
<stop stop-color="#FE0364" stop-opacity="0"/>
<stop offset="0.2343" stop-color="#F90362" stop-opacity="0.234"/>
<stop offset="0.5173" stop-color="#EA035B" stop-opacity="0.517"/>
<stop offset="0.8243" stop-color="#D20250" stop-opacity="0.824"/>
<stop offset="1" stop-color="#C00148"/>
</linearGradient>
<linearGradient id="paint9_linear_1669_23295" x1="55.9136" y1="8.72417" x2="55.9136" y2="12.4374" gradientUnits="userSpaceOnUse">
<stop stop-color="#FE0364" stop-opacity="0"/>
<stop offset="0.2343" stop-color="#F90362" stop-opacity="0.234"/>
<stop offset="0.5173" stop-color="#EA035B" stop-opacity="0.517"/>
<stop offset="0.8243" stop-color="#D20250" stop-opacity="0.824"/>
<stop offset="1" stop-color="#C00148"/>
</linearGradient>
<linearGradient id="paint10_linear_1669_23295" x1="64.344" y1="6.49263" x2="70.0222" y2="12.1707" gradientUnits="userSpaceOnUse">
<stop stop-color="#BBEC6C"/>
<stop offset="0.1974" stop-color="#B5E665"/>
<stop offset="0.4799" stop-color="#A5D552"/>
<stop offset="0.8118" stop-color="#8ABB33"/>
<stop offset="1" stop-color="#78A91F"/>
</linearGradient>
<linearGradient id="paint11_linear_1669_23295" x1="70.2935" y1="9.25049" x2="73.2825" y2="9.25049" gradientUnits="userSpaceOnUse">
<stop stop-color="#334C0F" stop-opacity="0"/>
<stop offset="0.3197" stop-color="#344C12" stop-opacity="0.32"/>
<stop offset="0.5654" stop-color="#374A1C" stop-opacity="0.565"/>
<stop offset="0.7856" stop-color="#3C482C" stop-opacity="0.786"/>
<stop offset="0.9909" stop-color="#444443" stop-opacity="0.991"/>
<stop offset="1" stop-color="#444444"/>
</linearGradient>
<linearGradient id="paint12_linear_1669_23295" x1="67.102" y1="9.32183" x2="67.102" y2="12.1906" gradientUnits="userSpaceOnUse">
<stop stop-color="#334C0F" stop-opacity="0"/>
<stop offset="0.3197" stop-color="#344C12" stop-opacity="0.32"/>
<stop offset="0.5654" stop-color="#374A1C" stop-opacity="0.565"/>
<stop offset="0.7856" stop-color="#3C482C" stop-opacity="0.786"/>
<stop offset="0.9909" stop-color="#444443" stop-opacity="0.991"/>
<stop offset="1" stop-color="#444444"/>
</linearGradient>
<linearGradient id="paint13_linear_1669_23295" x1="2.87986" y1="31.9674" x2="9.76272" y2="31.9674" gradientUnits="userSpaceOnUse">
<stop stop-color="#FEF0AE"/>
<stop offset="1" stop-color="#FAC600"/>
</linearGradient>
<linearGradient id="paint14_linear_1669_23295" x1="27.8164" y1="3.05991" x2="52.2682" y2="59.5759" gradientUnits="userSpaceOnUse">
<stop stop-color="#FEF0AE"/>
<stop offset="1" stop-color="#FAC600"/>
</linearGradient>
<linearGradient id="paint15_linear_1669_23295" x1="41.665" y1="47.8713" x2="41.665" y2="57.8145" gradientUnits="userSpaceOnUse">
<stop stop-color="#FE9738" stop-opacity="0"/>
<stop offset="1" stop-color="#FE9738"/>
</linearGradient>
<linearGradient id="paint16_linear_1669_23295" x1="66.0421" y1="35.0664" x2="75.2807" y2="35.0664" gradientUnits="userSpaceOnUse">
<stop stop-color="#FE9738" stop-opacity="0"/>
<stop offset="1" stop-color="#FE9738"/>
</linearGradient>
</defs>
</svg>
