<svg width="50" height="51" viewBox="0 0 50 51" fill="none" xmlns="http://www.w3.org/2000/svg">
<path d="M36.179 50.0702L2.44141 50.0701C1.09522 50.0701 0 48.9749 0 47.6287V2.51172C0 1.16553 1.09522 0.0703125 2.44141 0.0703125H36.1923C37.5385 0.0703125 38.6337 1.16553 38.6337 2.51172V22.3767C38.6337 22.395 38.6333 22.4135 38.6326 22.4319L37.6427 48.6606C37.6131 49.4476 36.9665 50.0702 36.179 50.0702Z" fill="#F3F7FC"/>
<path d="M36.1918 0.0703125H19.3164V50.0702H36.1785C36.966 50.0702 37.6127 49.4476 37.6423 48.6606L38.6322 22.4319C38.6329 22.4136 38.6333 22.3951 38.6333 22.3767V2.51172C38.6332 1.16543 37.5381 0.0703125 36.1918 0.0703125Z" fill="#E0E8F4"/>
<path d="M17.8519 23.8828H8.34766C7.53867 23.8828 6.88281 23.227 6.88281 22.418C6.88281 21.609 7.53867 20.9531 8.34766 20.9531H17.8518C18.6607 20.9531 19.3166 21.609 19.3166 22.418C19.3166 23.227 18.6608 23.8828 17.8519 23.8828Z" fill="#6D88F7"/>
<path d="M17.8519 18.0234H8.34766C7.53867 18.0234 6.88281 17.3676 6.88281 16.5586C6.88281 15.7496 7.53867 15.0938 8.34766 15.0938H17.8518C18.6607 15.0938 19.3166 15.7496 19.3166 16.5586C19.3166 17.3676 18.6608 18.0234 17.8519 18.0234Z" fill="#6D88F7"/>
<path d="M30.1934 12.1641H8.34766C7.53867 12.1641 6.88281 11.5082 6.88281 10.6992C6.88281 9.89023 7.53867 9.23438 8.34766 9.23438H30.1933C31.0022 9.23438 31.6581 9.89023 31.6581 10.6992C31.6581 11.5082 31.0023 12.1641 30.1934 12.1641Z" fill="#6D88F7"/>
<path d="M30.1931 9.23438H19.3164V12.1641H30.1931C31.0021 12.1641 31.6579 11.5082 31.6579 10.6992C31.6579 9.89023 31.0021 9.23438 30.1931 9.23438Z" fill="#5E5EBF"/>
<path d="M17.8519 29.7031H8.34766C7.53867 29.7031 6.88281 29.0473 6.88281 28.2383C6.88281 27.4293 7.53867 26.7734 8.34766 26.7734H17.8518C18.6607 26.7734 19.3166 27.4293 19.3166 28.2383C19.3166 29.0473 18.6608 29.7031 17.8519 29.7031Z" fill="#6D88F7"/>
<path d="M17.8519 34.5859H8.34766C7.53867 34.5859 6.88281 33.9301 6.88281 33.1211C6.88281 32.3121 7.53867 31.6562 8.34766 31.6562H17.8518C18.6607 31.6562 19.3166 32.3121 19.3166 33.1211C19.3166 33.9301 18.6608 34.5859 17.8519 34.5859Z" fill="#6D88F7"/>
<path d="M17.8519 40.4453H8.34766C7.53867 40.4453 6.88281 39.7895 6.88281 38.9805C6.88281 38.1715 7.53867 37.5156 8.34766 37.5156H17.8518C18.6607 37.5156 19.3166 38.1715 19.3166 38.9805C19.3166 39.7895 18.6608 40.4453 17.8519 40.4453Z" fill="#6D88F7"/>
<path d="M37.2477 50.0724C36.9968 50.0724 36.7457 50.008 36.5204 49.879L33.1647 47.9594C30.4804 46.4238 28.2371 44.2124 26.6771 41.5643C25.1158 38.9135 24.2782 35.8914 24.2548 32.8247L24.2032 26.0182C24.2002 25.6296 24.3518 25.2559 24.6245 24.979C24.8971 24.7022 25.2687 24.5451 25.6572 24.5422C27.4627 24.5289 29.1089 23.4741 29.8507 21.8552C30.0877 21.338 30.6027 21.0048 31.1716 21.0007L42.9046 20.9141H42.9155C43.4798 20.9141 43.9946 21.2385 44.2376 21.7486C44.9993 23.3464 46.6451 24.3739 48.4375 24.3739C48.4528 24.3739 48.4684 24.3739 48.4832 24.3737C49.2871 24.3737 49.9418 25.0223 49.9479 25.8274L49.9995 32.634C50.0227 35.7007 49.231 38.7349 47.71 41.4085C46.1904 44.0796 43.9807 46.3239 41.3199 47.899L37.9936 49.868C37.7639 50.0041 37.5059 50.0724 37.2477 50.0724Z" fill="#6D88F7"/>
<path d="M36.1193 39.307C36.1018 39.307 36.0844 39.3067 36.0668 39.306C35.6449 39.291 35.2498 39.0944 34.9831 38.767L32.4704 35.6805C31.9598 35.0532 32.0542 34.1304 32.6817 33.6197C33.309 33.109 34.2317 33.2034 34.7425 33.8308L36.1987 35.6195L40.3519 31.2035C40.9062 30.6141 41.833 30.5857 42.4225 31.14C43.0118 31.6942 43.0403 32.6213 42.486 33.2106L37.1862 38.8458C36.9089 39.1406 36.5225 39.307 36.1193 39.307Z" fill="#F3F7FC"/>
</svg>
