<svg width="50" height="51" viewBox="0 0 50 51" fill="none" xmlns="http://www.w3.org/2000/svg">
<g clip-path="url(#clip0_1669_23596)">
<path d="M48.958 18.207H28.431C28.0393 18.207 27.6799 18.4268 27.5018 18.7758L24.3112 25.0435C24.1476 25.3664 24.1622 25.7518 24.3518 26.0612C24.5414 26.3706 24.8778 26.5581 25.2403 26.5581L30.9935 26.5529L25.9476 36.4852C25.7841 36.8081 25.7987 37.1935 25.9882 37.5018C26.1778 37.8102 26.5132 37.9987 26.8757 37.9987H34.2403L40.6997 25.5029L45.8341 25.4987C46.2278 25.4987 48.958 18.207 48.958 18.207Z" fill="#6BE3A2"/>
<path d="M28.1901 18.207H10.0495C9.65784 18.207 9.29846 18.4268 9.12034 18.7758L5.95784 24.9924C5.95055 25.0049 5.94013 25.0143 5.93388 25.0268L0.110965 36.4852C-0.0525764 36.8081 -0.0379931 37.1935 0.15159 37.5018C0.341174 37.8102 0.678674 37.9987 1.04117 37.9987H8.19742L10.9693 31.7487H19.113L22.387 25.5029L25.0016 25.4987C25.3922 25.4987 28.1901 18.207 28.1901 18.207Z" fill="#FCA66C"/>
<path d="M40.6258 20.2919C40.2894 20.2919 39.9581 20.1294 39.7581 19.8283C39.3237 19.1773 37.6998 18.9283 36.0446 20.0085C35.5644 20.3221 34.9175 20.1867 34.6029 19.7044C34.2883 19.2231 34.4248 18.5773 34.9071 18.2627C37.331 16.6825 40.2862 16.8648 41.4914 18.6731C41.8112 19.1512 41.6821 19.7981 41.2029 20.1179C41.0258 20.2356 40.8237 20.2919 40.6258 20.2919Z" fill="#324561"/>
<path d="M46.8765 13.5216C46.4911 13.5216 46.1203 13.307 45.9401 12.9373C45.0088 11.0331 40.0526 10.156 35.8099 11.882C35.2807 12.0987 34.6682 11.8435 34.4526 11.3102C34.2349 10.7779 34.4911 10.1695 35.0245 9.95288C39.563 8.10496 46.1401 8.60496 47.8109 12.0227C48.063 12.5393 47.8494 13.1633 47.3328 13.4164C47.1859 13.4873 47.0297 13.5216 46.8765 13.5216Z" fill="#324561"/>
<path d="M25.0003 26.5404H14.5837C14.0076 26.5404 13.542 26.0738 13.542 25.4988C13.542 24.9238 14.0076 24.4571 14.5837 24.4571H24.3628L27.2639 18.7748C27.5253 18.2623 28.1545 18.0602 28.666 18.3207C29.1774 18.5821 29.3816 19.2102 29.1201 19.7217L25.9295 25.9717C25.7503 26.3217 25.392 26.5404 25.0003 26.5404Z" fill="#324561"/>
<path d="M34.2395 37.999C34.0812 37.999 33.9197 37.9625 33.7687 37.8865C33.2562 37.6261 33.052 36.999 33.3124 36.4855L39.1343 25.0271C39.3114 24.6771 39.6707 24.4573 40.0624 24.4573H45.1895L48.027 18.7834C48.2853 18.2688 48.9103 18.0594 49.4249 18.3177C49.9395 18.575 50.1478 19.2011 49.8905 19.7157L46.7655 25.9657C46.5885 26.3177 46.228 26.5407 45.8332 26.5407H40.701L35.1687 37.4292C34.9853 37.7907 34.6187 37.999 34.2395 37.999Z" fill="#324561"/>
<path d="M44.2719 16.6105C43.9614 16.6105 43.6542 16.4719 43.4489 16.2084C42.6114 15.1334 39.5125 14.4949 36.3604 15.8959C35.8354 16.1324 35.2187 15.8938 34.9854 15.3678C34.7521 14.8428 34.9885 14.2261 35.5146 13.9928C39.1385 12.3803 43.4375 12.799 45.0927 14.9292C45.4458 15.3834 45.3646 16.0376 44.9104 16.3907C44.7208 16.5386 44.4948 16.6105 44.2719 16.6105Z" fill="#324561"/>
<path d="M8.19652 37.9988C8.03819 37.9988 7.87673 37.9623 7.72569 37.8863C7.21319 37.6258 7.00902 36.9988 7.26944 36.4852L9.91527 31.2769C10.0924 30.9269 10.4507 30.7071 10.8434 30.7071H17.9465L20.8194 25.0279C21.0799 24.5165 21.7059 24.3092 22.2194 24.5696C22.733 24.829 22.9382 25.4561 22.6788 25.9696L19.5163 32.2196C19.3382 32.5696 18.9799 32.7904 18.5871 32.7904H11.483L9.12673 37.429C8.94236 37.7904 8.57569 37.9988 8.19652 37.9988Z" fill="#324561"/>
</g>
<defs>
<clipPath id="clip0_1669_23596">
<rect width="50" height="50" fill="white" transform="translate(0 0.5)"/>
</clipPath>
</defs>
</svg>
