<svg width="75" height="75" viewBox="0 0 81 81" fill="none" xmlns="http://www.w3.org/2000/svg">
<g clip-path="url(#clip0_1669_23329)">
<path d="M78.5327 28.8633H45.6893C45.0627 28.8633 44.4877 29.2149 44.2027 29.7733L39.0977 39.8016C38.836 40.3183 38.8593 40.9349 39.1627 41.4299C39.466 41.9249 40.0043 42.2249 40.5843 42.2249L49.7893 42.2166L41.716 58.1083C41.4543 58.6249 41.4777 59.2416 41.781 59.7349C42.0843 60.2283 42.621 60.5299 43.201 60.5299H54.9843L65.3193 40.5366L73.5343 40.5299C74.1643 40.5299 78.5327 28.8633 78.5327 28.8633Z" fill="#6BE3A2"/>
<path d="M45.3046 28.8633H16.2796C15.6529 28.8633 15.0779 29.2149 14.7929 29.7733L9.73293 39.7199C9.72127 39.7399 9.7046 39.7549 9.6946 39.7749L0.377935 58.1083C0.116268 58.6249 0.139602 59.2416 0.442935 59.7349C0.746268 60.2283 1.28627 60.5299 1.86627 60.5299H13.3163L17.7513 50.5299H30.7813L36.0196 40.5366L40.2029 40.5299C40.8279 40.5299 45.3046 28.8633 45.3046 28.8633Z" fill="#FCA66C"/>
<path d="M65.2005 32.1975C64.6622 32.1975 64.1322 31.9375 63.8122 31.4558C63.1172 30.4141 60.5189 30.0158 57.8705 31.7441C57.1022 32.2458 56.0672 32.0291 55.5639 31.2575C55.0605 30.4875 55.2789 29.4541 56.0505 28.9508C59.9289 26.4225 64.6572 26.7141 66.5855 29.6075C67.0972 30.3725 66.8905 31.4075 66.1239 31.9191C65.8405 32.1075 65.5172 32.1975 65.2005 32.1975Z" fill="#324561"/>
<path d="M75.2007 21.3643C74.584 21.3643 73.9907 21.021 73.7024 20.4293C72.2124 17.3826 64.2824 15.9793 57.494 18.741C56.6474 19.0876 55.6674 18.6793 55.3224 17.826C54.974 16.9743 55.384 16.001 56.2374 15.6543C63.499 12.6976 74.0224 13.4976 76.6957 18.966C77.099 19.7926 76.7574 20.791 75.9307 21.196C75.6957 21.3093 75.4457 21.3643 75.2007 21.3643Z" fill="#324561"/>
<path d="M40.1995 42.1968H23.5329C22.6112 42.1968 21.8662 41.4501 21.8662 40.5301C21.8662 39.6101 22.6112 38.8634 23.5329 38.8634H39.1795L43.8212 29.7718C44.2395 28.9518 45.2462 28.6284 46.0645 29.0451C46.8829 29.4634 47.2095 30.4684 46.7912 31.2868L41.6862 41.2868C41.3995 41.8468 40.8262 42.1968 40.1995 42.1968Z" fill="#324561"/>
<path d="M54.9828 60.5304C54.7295 60.5304 54.4711 60.4721 54.2295 60.3504C53.4095 59.9337 53.0828 58.9304 53.4995 58.1088L62.8145 39.7754C63.0978 39.2154 63.6728 38.8638 64.2995 38.8638H72.5028L77.0428 29.7854C77.4561 28.9621 78.4561 28.6271 79.2795 29.0404C80.1028 29.4521 80.4361 30.4538 80.0245 31.2771L75.0245 41.2771C74.7411 41.8404 74.1645 42.1971 73.5328 42.1971H65.3211L56.4695 59.6187C56.1761 60.1971 55.5895 60.5304 54.9828 60.5304Z" fill="#324561"/>
<path d="M71.0344 26.3088C70.5377 26.3088 70.0461 26.0871 69.7177 25.6655C68.3777 23.9455 63.4194 22.9238 58.3761 25.1655C57.5361 25.5438 56.5494 25.1621 56.1761 24.3205C55.8027 23.4805 56.1811 22.4938 57.0227 22.1205C62.8211 19.5405 69.6994 20.2105 72.3477 23.6188C72.9127 24.3455 72.7827 25.3921 72.0561 25.9571C71.7527 26.1938 71.3911 26.3088 71.0344 26.3088Z" fill="#324561"/>
<path d="M13.3138 60.5301C13.0605 60.5301 12.8022 60.4717 12.5605 60.35C11.7405 59.9334 11.4138 58.9301 11.8305 58.1084L16.0638 49.7751C16.3472 49.2151 16.9205 48.8634 17.5488 48.8634H28.9138L33.5105 39.7767C33.9272 38.9584 34.9288 38.6267 35.7505 39.0434C36.5722 39.4584 36.9005 40.4617 36.4855 41.2834L31.4255 51.2834C31.1405 51.8434 30.5672 52.1967 29.9388 52.1967H18.5722L14.8022 59.6184C14.5072 60.1967 13.9205 60.5301 13.3138 60.5301Z" fill="#324561"/>
</g>
<defs>
<clipPath id="clip0_1669_23329">
<rect width="80" height="80" fill="white" transform="translate(0.199219 0.53125)"/>
</clipPath>
</defs>
</svg>
