<svg width="17" height="21" viewBox="0 0 17 21" fill="none" xmlns="http://www.w3.org/2000/svg">
<path d="M14.5202 2.93782L9.22951 0.956195C8.6812 0.754185 7.78658 0.754185 7.23827 0.956195L1.94753 2.93782C0.927864 3.3226 0.100586 4.51542 0.100586 5.60242V13.3942C0.100586 14.1734 0.61042 15.2027 1.23569 15.6644L6.52642 19.6181C7.45952 20.3203 8.98902 20.3203 9.92211 19.6181L15.2128 15.6644C15.8381 15.1931 16.348 14.1734 16.348 13.3942V5.60242C16.3576 4.51542 15.5303 3.3226 14.5202 2.93782ZM11.5767 8.32475L7.44028 12.4611C7.29599 12.6054 7.11321 12.6728 6.93044 12.6728C6.74767 12.6728 6.5649 12.6054 6.42061 12.4611L4.88149 10.9028C4.60252 10.6238 4.60252 10.1621 4.88149 9.88311C5.16045 9.60414 5.62219 9.60414 5.90115 9.88311L6.94006 10.922L10.5666 7.29546C10.8456 7.01649 11.3073 7.01649 11.5863 7.29546C11.8653 7.57442 11.8653 8.04578 11.5767 8.32475Z" fill="#BC90E0"/>
</svg>
