<svg width="50" height="50" viewBox="0 0 50 50" fill="none" xmlns="http://www.w3.org/2000/svg">
<g clip-path="url(#clip0_1669_32687)">
<path d="M25 2.66797C27.5231 10.4472 30.0463 18.2265 32.5694 26.0057C30.0463 33.4247 27.5231 40.8437 25 48.2627C16.1768 45.2686 10.0352 38.0107 6.74316 26.6816C4.85059 20.1689 4.48145 14.0664 4.41699 11.3115C12.3408 11.3115 17.7266 8.69434 20.9131 6.41602C22.7783 5.08301 24.1182 3.71777 25 2.66797Z" fill="#D5E8FE"/>
<path d="M45.584 11.3115C45.5225 14.0518 45.1572 20.1064 43.2793 26.6064C39.9922 37.9785 33.8438 45.2607 25 48.2627V2.66797C25.8818 3.71777 27.2217 5.08301 29.0869 6.41602C32.2725 8.69434 37.6563 11.3115 45.5791 11.3115H45.584Z" fill="#B5DBFF"/>
<path d="M25.0002 3.9375C25.4176 3.21123 25.835 2.48506 26.2523 1.75879C25.835 1.17256 25.4176 0.58623 25.0002 0C24.4738 0 23.9885 0.282227 23.7277 0.739258C23.676 0.829102 18.4104 9.76465 4.1584 9.13867C3.76778 9.12207 3.38594 9.26172 3.09883 9.52832C2.81172 9.79395 2.64278 10.1641 2.63008 10.5557C2.61934 10.8809 2.40156 18.624 4.925 27.3564C6.4211 32.5322 8.57637 36.9727 11.3303 40.5547C14.8195 45.0898 19.2688 48.2451 24.5549 49.9307C24.6994 49.9766 24.8498 50 25.0002 50C25.3665 49.352 25.7328 48.7039 26.0991 48.0559C25.7328 47.7017 25.3665 47.3474 25.0002 46.9932C16.6682 44.165 10.8693 37.3115 7.75996 26.6143C5.97285 20.4639 5.62422 14.7012 5.56367 12.0996C13.0461 12.0996 18.132 9.62891 21.1408 7.47754C22.9025 6.21875 24.1672 4.92871 25.0002 3.9375Z" fill="#EDF5FF"/>
<path d="M45.0752 27.3564C43.5791 32.5322 41.4238 36.9727 38.6699 40.5547C35.1807 45.0898 30.7314 48.2451 25.4453 49.9307C25.3008 49.9766 25.1504 50 25 50V46.9932C33.3516 44.1582 39.1572 37.2812 42.2607 26.543C44.0342 20.4053 44.3789 14.6875 44.4375 12.0996H44.4326C36.9512 12.0996 31.8672 9.62891 28.8594 7.47754C27.0977 6.21875 25.833 4.92871 25 3.9375V0C25.5264 0 26.0117 0.282227 26.2725 0.739258C26.2822 0.756836 27.623 3.02734 30.6885 5.18262C34.793 8.06934 39.8916 9.40039 45.8418 9.13867C46.2314 9.12109 46.6143 9.26172 46.9014 9.52832C47.1885 9.79395 47.3574 10.1641 47.3701 10.5557C47.3809 10.8809 47.5986 18.624 45.0752 27.3564Z" fill="#D5E8FE"/>
<path d="M25 10.9375L28.2997 17.6955L25 21.1914C22.1738 21.1914 19.873 18.8916 19.873 16.0645C19.873 13.2373 22.1738 10.9375 25 10.9375Z" fill="#E99A8B"/>
<path d="M25 21.1914L28.0514 28.5081L25 34.7617H20.4912L19.0264 33.6074L17.5615 34.7617H15.54C14.7646 34.7617 14.1367 34.1348 14.1367 33.3594V29.7822C14.1367 25.0459 17.9912 21.1914 22.7285 21.1914H25Z" fill="#66CCFF"/>
<path d="M30.127 16.0645C30.127 18.8916 27.8262 21.1914 25 21.1914V10.9375C27.8262 10.9375 30.127 13.2373 30.127 16.0645Z" fill="#D58678"/>
<path d="M35.8633 29.7822V33.3594C35.8633 34.1348 35.2354 34.7617 34.46 34.7617H32.4385L30.7393 33.4121L29.5088 34.7617H25V21.1914H27.2715C32.0088 21.1914 35.8633 25.0459 35.8633 29.7822Z" fill="#59ABFF"/>
<path d="M20.4912 29.4258V34.7617H17.5615V29.4258C17.5615 28.6162 18.2168 27.9609 19.0264 27.9609C19.835 27.9609 20.4912 28.6162 20.4912 29.4258Z" fill="#59ABFF"/>
<path d="M32.4385 29.4258V34.7617H29.5088V29.4258C29.5088 28.6162 30.165 27.9609 30.9736 27.9609C31.7832 27.9609 32.4385 28.6162 32.4385 29.4258Z" fill="#4D87FF"/>
</g>
<defs>
<clipPath id="clip0_1669_32687">
<rect width="50" height="50" fill="white"/>
</clipPath>
</defs>
</svg>
