<svg width="69" height="60" viewBox="0 0 76 71" fill="none" xmlns="http://www.w3.org/2000/svg">
<path d="M16.6251 20.0693C13.0597 20.0693 10.3711 15.7965 10.3711 10.1304C10.3711 4.46421 13.0597 0.191406 16.6251 0.191406C20.1905 0.191406 22.8791 4.46421 22.8791 10.1304C22.8791 15.7965 20.1905 20.0693 16.6251 20.0693ZM16.6251 15.8469C17.1309 15.8469 18.6567 13.8194 18.6567 10.1304C18.6567 6.44116 17.1308 4.41367 16.6251 4.41367C16.1193 4.41367 14.5935 6.44116 14.5935 10.1304C14.5935 13.8196 16.1194 15.8469 16.6251 15.8469Z" fill="url(#paint0_linear_1669_23342)"/>
<path d="M11.4459 4.41406H16.625C16.1191 4.41406 14.5934 6.44155 14.5934 10.1308C14.5934 11.2685 14.7388 12.2476 14.9543 13.0585H10.6267C10.4606 12.1396 10.3711 11.1586 10.3711 10.1308C10.3711 7.96851 10.7635 6.01045 11.4459 4.41406Z" fill="url(#paint1_linear_1669_23342)"/>
<path d="M60.6554 20.0693C57.0899 20.0693 54.4014 15.7965 54.4014 10.1304C54.4014 4.46421 57.0899 0.191406 60.6554 0.191406C64.2208 0.191406 66.9094 4.46421 66.9094 10.1304C66.9094 15.7965 64.2208 20.0693 60.6554 20.0693ZM60.6554 15.8469C61.1612 15.8469 62.687 13.8194 62.687 10.1304C62.687 6.44116 61.161 4.41367 60.6554 4.41367C60.1497 4.41367 58.6238 6.44116 58.6238 10.1304C58.6238 13.8196 60.1497 15.8469 60.6554 15.8469Z" fill="url(#paint2_linear_1669_23342)"/>
<path d="M55.4761 4.41406H60.6552C60.1494 4.41406 58.6236 6.44155 58.6236 10.1308C58.6236 11.2685 58.7691 12.2476 58.9846 13.0585H54.657C54.4909 12.1396 54.4014 11.1586 54.4014 10.1308C54.4014 7.96851 54.7938 6.01045 55.4761 4.41406Z" fill="url(#paint3_linear_1669_23342)"/>
<path d="M31.3019 20.0693C27.7364 20.0693 25.0479 15.7965 25.0479 10.1304C25.0479 4.46421 27.7364 0.191406 31.3019 0.191406C34.8673 0.191406 37.5559 4.46421 37.5559 10.1304C37.5559 15.7965 34.8673 20.0693 31.3019 20.0693ZM31.3019 15.8469C31.8077 15.8469 33.3334 13.8194 33.3334 10.1304C33.3334 6.44116 31.8075 4.41367 31.3019 4.41367C30.796 4.41367 29.2703 6.44116 29.2703 10.1304C29.2703 13.8196 30.796 15.8469 31.3019 15.8469Z" fill="url(#paint4_linear_1669_23342)"/>
<path d="M26.1226 4.41406H31.3017C30.7959 4.41406 29.2701 6.44155 29.2701 10.1308C29.2701 11.2685 29.4156 12.2476 29.6311 13.0585H25.3035C25.1374 12.1396 25.0479 11.1586 25.0479 10.1308C25.0477 7.96851 25.4403 6.01045 26.1226 4.41406Z" fill="url(#paint5_linear_1669_23342)"/>
<path d="M45.9786 20.0693C42.4132 20.0693 39.7246 15.7965 39.7246 10.1304C39.7246 4.46421 42.4132 0.191406 45.9786 0.191406C49.544 0.191406 52.2326 4.46421 52.2326 10.1304C52.2326 15.7965 49.5439 20.0693 45.9786 20.0693ZM45.9786 15.8469C46.4844 15.8469 48.0102 13.8194 48.0102 10.1304C48.0102 6.44116 46.4843 4.41367 45.9786 4.41367C45.4729 4.41367 43.947 6.44116 43.947 10.1304C43.9469 13.8196 45.4728 15.8469 45.9786 15.8469Z" fill="url(#paint6_linear_1669_23342)"/>
<path d="M40.7994 4.41406H45.9785C45.4727 4.41406 43.9469 6.44155 43.9469 10.1308C43.9469 11.2685 44.0923 12.2476 44.3078 13.0585H39.9802C39.8141 12.1396 39.7246 11.1586 39.7246 10.1308C39.7246 7.96851 40.117 6.01045 40.7994 4.41406Z" fill="url(#paint7_linear_1669_23342)"/>
<path d="M75.8994 63.8705V15.3815C75.8994 11.5163 72.766 8.38281 68.9007 8.38281H7.89814C4.03286 8.38281 0.899414 11.5163 0.899414 15.3815V63.8705C0.899414 67.7358 4.03286 70.8692 7.89814 70.8692H68.9007C72.766 70.8692 75.8994 67.7358 75.8994 63.8705Z" fill="url(#paint8_linear_1669_23342)"/>
<path d="M0.899414 63.8693V29.1367H75.8994V63.8693C75.8994 67.7346 72.766 70.8681 68.9007 70.8681H7.89814C4.03286 70.8681 0.899414 67.7346 0.899414 63.8693Z" fill="url(#paint9_linear_1669_23342)"/>
<path d="M39.3242 8.38281H68.9007C72.766 8.38281 75.8995 11.5163 75.8995 15.3815V63.8705C75.8995 67.7358 72.766 70.8692 68.9007 70.8692H39.3242V8.38281Z" fill="url(#paint10_linear_1669_23342)"/>
<path d="M71.0683 12.125L6.41113 65.4189L11.8637 70.8715H68.9006C72.7659 70.8715 75.8994 67.7381 75.8994 63.8728V16.9562L71.0683 12.125Z" fill="url(#paint11_linear_1669_23342)"/>
<path d="M72.6646 60.5289V16.223C72.6646 12.6912 69.8015 9.82812 66.2696 9.82812H10.5297C6.9978 9.82812 4.13477 12.6912 4.13477 16.223V60.5289C4.13477 64.0607 6.9978 66.9238 10.5297 66.9238H66.2695C69.8014 66.9238 72.6646 64.0607 72.6646 60.5289Z" fill="url(#paint12_linear_1669_23342)"/>
<path d="M66.2695 66.9238H61.1979L14.2148 19.9407L15.8741 18.2814C18.116 16.0395 19.3756 12.9988 19.3756 9.82812H66.2695C69.8014 9.82812 72.6645 12.6912 72.6645 16.223V60.5289C72.6645 64.0607 69.8013 66.9238 66.2695 66.9238Z" fill="url(#paint13_linear_1669_23342)"/>
<path d="M72.6645 16.223V60.5289C72.6645 61.4602 72.4638 62.3441 72.1058 63.1421L28.9043 19.9407L30.5635 18.2814C32.8055 16.0395 34.0651 12.9988 34.0651 9.82812H66.2695C69.8013 9.82812 72.6645 12.6913 72.6645 16.223Z" fill="url(#paint14_linear_1669_23342)"/>
<path d="M4.13477 60.5292V28.793H72.6644V60.5292C72.6644 64.0611 69.8014 66.9242 66.2695 66.9242H10.5297C6.99795 66.9242 4.13477 64.0611 4.13477 60.5292Z" fill="url(#paint15_linear_1669_23342)"/>
<path d="M39.2441 9.82812H66.269C69.8009 9.82812 72.664 12.6912 72.664 16.223V60.5289C72.664 64.0607 69.8009 66.9238 66.269 66.9238H39.2441V9.82812Z" fill="url(#paint16_linear_1669_23342)"/>
<path d="M72.6645 16.223V49.0114L43.5938 19.9407L45.253 18.2814C47.4949 16.0395 48.7544 12.9988 48.7544 9.82812H66.2695C69.8013 9.82812 72.6645 12.6913 72.6645 16.223Z" fill="url(#paint17_linear_1669_23342)"/>
<path d="M72.6645 16.223V34.3219L58.2832 19.9407L59.9424 18.2814C62.1844 16.0395 63.4438 12.9988 63.4438 9.82812H66.2695C69.8013 9.82812 72.6645 12.6913 72.6645 16.223Z" fill="url(#paint18_linear_1669_23342)"/>
<path d="M16.6241 20.9051C18.5524 20.9051 20.1157 19.3418 20.1157 17.4135C20.1157 15.4852 18.5524 13.9219 16.6241 13.9219C16.1662 13.9219 15.7288 14.0101 15.328 14.1703L13.3877 18.7261C13.9065 20.0039 15.1602 20.9051 16.6241 20.9051Z" fill="url(#paint19_linear_1669_23342)"/>
<path d="M16.6238 20.0688C17.8263 20.0688 18.9292 19.5823 19.8632 18.7193C21.6973 17.027 22.8778 13.8839 22.8778 10.1295C22.8778 10.0281 22.8762 9.92676 22.8745 9.82554C22.8626 9.18379 22.817 8.5605 22.7394 7.96094H18.4631C18.5678 8.51992 18.6354 9.14321 18.6506 9.82554C18.654 9.92515 18.6556 10.0265 18.6556 10.1295C18.6556 11.8505 18.3245 13.2084 17.9192 14.1694C17.4547 15.2689 16.8939 15.8465 16.6238 15.8465C16.3536 15.8465 15.7928 15.2689 15.3285 14.1694C14.0415 14.6846 13.1328 15.9411 13.1328 17.4121C13.1328 17.8766 13.2241 18.319 13.3895 18.7245C14.3218 19.584 15.4229 20.0688 16.6238 20.0688Z" fill="url(#paint20_linear_1669_23342)"/>
<path d="M16.6238 20.0688C17.8263 20.0688 18.9292 19.5823 19.8632 18.7193C21.6973 17.027 22.8778 13.8839 22.8778 10.1295C22.8778 10.0281 22.8762 9.92676 22.8745 9.82554C22.8626 9.18379 22.817 8.5605 22.7394 7.96094H18.4631C18.5678 8.51992 18.6354 9.14321 18.6506 9.82554C18.654 9.92515 18.6556 10.0265 18.6556 10.1295C18.6556 11.8505 18.3245 13.2084 17.9192 14.1694C17.4547 15.2689 16.8939 15.8465 16.6238 15.8465C16.3536 15.8465 15.7928 15.2689 15.3285 14.1694C14.0415 14.6846 13.1328 15.9411 13.1328 17.4121C13.1328 17.8766 13.2241 18.319 13.3895 18.7245C14.3218 19.584 15.4229 20.0688 16.6238 20.0688Z" fill="url(#paint21_linear_1669_23342)"/>
<path d="M16.6238 20.0688C17.8263 20.0688 18.9292 19.5823 19.8632 18.7193C21.6973 17.027 22.8778 13.8839 22.8778 10.1295C22.8778 10.0281 22.8762 9.92676 22.8745 9.82554C22.8626 9.18379 22.817 8.5605 22.7394 7.96094H18.4631C18.5678 8.51992 18.6354 9.14321 18.6506 9.82554C18.654 9.92515 18.6556 10.0265 18.6556 10.1295C18.6556 11.8505 18.3245 13.2084 17.9192 14.1694C17.4547 15.2689 16.8939 15.8465 16.6238 15.8465C16.3536 15.8465 15.7928 15.2689 15.3285 14.1694C14.0415 14.6846 13.1328 15.9411 13.1328 17.4121C13.1328 17.8766 13.2241 18.319 13.3895 18.7245C14.3218 19.584 15.4229 20.0688 16.6238 20.0688Z" fill="url(#paint22_linear_1669_23342)"/>
<path d="M16.752 15.812C17.3467 15.5378 18.656 13.5475 18.656 10.1294C18.656 6.71138 17.3467 4.72109 16.752 4.44687V0.195312C20.2534 0.296387 22.8784 4.53154 22.8784 10.1294C22.8784 15.7273 20.2534 19.9625 16.752 20.0636V15.812Z" fill="url(#paint23_linear_1669_23342)"/>
<path d="M31.3009 20.9051C33.2292 20.9051 34.7925 19.3418 34.7925 17.4135C34.7925 15.4852 33.2292 13.9219 31.3009 13.9219C30.843 13.9219 30.4056 14.0101 30.0048 14.1703L28.0645 18.7261C28.5833 20.0039 29.8369 20.9051 31.3009 20.9051Z" fill="url(#paint24_linear_1669_23342)"/>
<path d="M31.3006 20.0688C32.5031 20.0688 33.606 19.5823 34.5399 18.7193C36.3741 17.027 37.5546 13.8839 37.5546 10.1295C37.5546 10.0281 37.553 9.92676 37.5512 9.82554C37.5394 9.18379 37.4938 8.5605 37.4162 7.96094H33.1398C33.2446 8.51992 33.3121 9.14321 33.3273 9.82554C33.3307 9.92515 33.3323 10.0265 33.3323 10.1295C33.3323 11.8505 33.0013 13.2084 32.5959 14.1694C32.1314 15.2689 31.5707 15.8465 31.3006 15.8465C31.0303 15.8465 30.4696 15.2689 30.0052 14.1694C28.7182 14.6846 27.8096 15.9411 27.8096 17.4121C27.8096 17.8766 27.9008 18.319 28.0662 18.7245C28.9986 19.584 30.0999 20.0688 31.3006 20.0688Z" fill="url(#paint25_linear_1669_23342)"/>
<path d="M31.3006 20.0688C32.5031 20.0688 33.606 19.5823 34.5399 18.7193C36.3741 17.027 37.5546 13.8839 37.5546 10.1295C37.5546 10.0281 37.553 9.92676 37.5512 9.82554C37.5394 9.18379 37.4938 8.5605 37.4162 7.96094H33.1398C33.2446 8.51992 33.3121 9.14321 33.3273 9.82554C33.3307 9.92515 33.3323 10.0265 33.3323 10.1295C33.3323 11.8505 33.0013 13.2084 32.5959 14.1694C32.1314 15.2689 31.5707 15.8465 31.3006 15.8465C31.0303 15.8465 30.4696 15.2689 30.0052 14.1694C28.7182 14.6846 27.8096 15.9411 27.8096 17.4121C27.8096 17.8766 27.9008 18.319 28.0662 18.7245C28.9986 19.584 30.0999 20.0688 31.3006 20.0688Z" fill="url(#paint26_linear_1669_23342)"/>
<path d="M31.3006 20.0688C32.5031 20.0688 33.606 19.5823 34.5399 18.7193C36.3741 17.027 37.5546 13.8839 37.5546 10.1295C37.5546 10.0281 37.553 9.92676 37.5512 9.82554C37.5394 9.18379 37.4938 8.5605 37.4162 7.96094H33.1398C33.2446 8.51992 33.3121 9.14321 33.3273 9.82554C33.3307 9.92515 33.3323 10.0265 33.3323 10.1295C33.3323 11.8505 33.0013 13.2084 32.5959 14.1694C32.1314 15.2689 31.5707 15.8465 31.3006 15.8465C31.0303 15.8465 30.4696 15.2689 30.0052 14.1694C28.7182 14.6846 27.8096 15.9411 27.8096 17.4121C27.8096 17.8766 27.9008 18.319 28.0662 18.7245C28.9986 19.584 30.0999 20.0688 31.3006 20.0688Z" fill="url(#paint27_linear_1669_23342)"/>
<path d="M31.4287 15.812C32.0234 15.5378 33.3329 13.5475 33.3329 10.1294C33.3329 6.71138 32.0236 4.72109 31.4287 4.44687V0.195312C34.9301 0.296387 37.5551 4.53154 37.5551 10.1294C37.5551 15.7273 34.9301 19.9625 31.4287 20.0636V15.812Z" fill="url(#paint28_linear_1669_23342)"/>
<path d="M45.9776 20.9051C47.906 20.9051 49.4692 19.3418 49.4692 17.4135C49.4692 15.4852 47.906 13.9219 45.9776 13.9219C45.5197 13.9219 45.0823 14.0101 44.6815 14.1703L42.7412 18.7261C43.2601 20.0039 44.5135 20.9051 45.9776 20.9051Z" fill="url(#paint29_linear_1669_23342)"/>
<path d="M45.9773 20.0688C47.1798 20.0688 48.2827 19.5823 49.2167 18.7193C51.0508 17.027 52.2313 13.8839 52.2313 10.1295C52.2313 10.0281 52.2297 9.92676 52.228 9.82554C52.2161 9.18379 52.1706 8.5605 52.0929 7.96094H47.8166C47.9213 8.51992 47.9889 9.14321 48.0041 9.82554C48.0075 9.92515 48.0091 10.0265 48.0091 10.1295C48.0091 11.8505 47.678 13.2084 47.2727 14.1694C46.8082 15.2689 46.2475 15.8465 45.9773 15.8465C45.7071 15.8465 45.1463 15.2689 44.682 14.1694C43.395 14.6846 42.4863 15.9411 42.4863 17.4121C42.4863 17.8766 42.5774 18.319 42.743 18.7245C43.6753 19.584 44.7765 20.0688 45.9773 20.0688Z" fill="url(#paint30_linear_1669_23342)"/>
<path d="M45.9773 20.0688C47.1798 20.0688 48.2827 19.5823 49.2167 18.7193C51.0508 17.027 52.2313 13.8839 52.2313 10.1295C52.2313 10.0281 52.2297 9.92676 52.228 9.82554C52.2161 9.18379 52.1706 8.5605 52.0929 7.96094H47.8166C47.9213 8.51992 47.9889 9.14321 48.0041 9.82554C48.0075 9.92515 48.0091 10.0265 48.0091 10.1295C48.0091 11.8505 47.678 13.2084 47.2727 14.1694C46.8082 15.2689 46.2475 15.8465 45.9773 15.8465C45.7071 15.8465 45.1463 15.2689 44.682 14.1694C43.395 14.6846 42.4863 15.9411 42.4863 17.4121C42.4863 17.8766 42.5774 18.319 42.743 18.7245C43.6753 19.584 44.7765 20.0688 45.9773 20.0688Z" fill="url(#paint31_linear_1669_23342)"/>
<path d="M45.9773 20.0688C47.1798 20.0688 48.2827 19.5823 49.2167 18.7193C51.0508 17.027 52.2313 13.8839 52.2313 10.1295C52.2313 10.0281 52.2297 9.92676 52.228 9.82554C52.2161 9.18379 52.1706 8.5605 52.0929 7.96094H47.8166C47.9213 8.51992 47.9889 9.14321 48.0041 9.82554C48.0075 9.92515 48.0091 10.0265 48.0091 10.1295C48.0091 11.8505 47.678 13.2084 47.2727 14.1694C46.8082 15.2689 46.2475 15.8465 45.9773 15.8465C45.7071 15.8465 45.1463 15.2689 44.682 14.1694C43.395 14.6846 42.4863 15.9411 42.4863 17.4121C42.4863 17.8766 42.5774 18.319 42.743 18.7245C43.6753 19.584 44.7765 20.0688 45.9773 20.0688Z" fill="url(#paint32_linear_1669_23342)"/>
<path d="M46.1055 15.812C46.7002 15.5378 48.0096 13.5475 48.0096 10.1294C48.0096 6.71138 46.7003 4.72109 46.1055 4.44687V0.195312C49.6069 0.296387 52.2319 4.53154 52.2319 10.1294C52.2319 15.7273 49.6069 19.9625 46.1055 20.0636V15.812Z" fill="url(#paint33_linear_1669_23342)"/>
<path d="M60.6554 20.9051C62.5837 20.9051 64.147 19.3418 64.147 17.4135C64.147 15.4852 62.5837 13.9219 60.6554 13.9219C60.1975 13.9219 59.7601 14.0101 59.3593 14.1703L57.4189 18.7261C57.9378 20.0039 59.1914 20.9051 60.6554 20.9051Z" fill="url(#paint34_linear_1669_23342)"/>
<path d="M60.6551 20.0688C61.8576 20.0688 62.9605 19.5823 63.8944 18.7193C65.7286 17.027 66.9091 13.8839 66.9091 10.1295C66.9091 10.0281 66.9075 9.92676 66.9057 9.82554C66.8939 9.18379 66.8483 8.5605 66.7707 7.96094H62.4943C62.5991 8.51992 62.6666 9.14321 62.6818 9.82554C62.6852 9.92515 62.6868 10.0265 62.6868 10.1295C62.6868 11.8505 62.3558 13.2084 61.9504 14.1694C61.4859 15.2689 60.9252 15.8465 60.6551 15.8465C60.3848 15.8465 59.8241 15.2689 59.3597 14.1694C58.0727 14.6846 57.1641 15.9411 57.1641 17.4121C57.1641 17.8766 57.2552 18.319 57.4207 18.7245C58.3531 19.584 59.4542 20.0688 60.6551 20.0688Z" fill="url(#paint35_linear_1669_23342)"/>
<path d="M60.6551 20.0688C61.8576 20.0688 62.9605 19.5823 63.8944 18.7193C65.7286 17.027 66.9091 13.8839 66.9091 10.1295C66.9091 10.0281 66.9075 9.92676 66.9057 9.82554C66.8939 9.18379 66.8483 8.5605 66.7707 7.96094H62.4943C62.5991 8.51992 62.6666 9.14321 62.6818 9.82554C62.6852 9.92515 62.6868 10.0265 62.6868 10.1295C62.6868 11.8505 62.3558 13.2084 61.9504 14.1694C61.4859 15.2689 60.9252 15.8465 60.6551 15.8465C60.3848 15.8465 59.8241 15.2689 59.3597 14.1694C58.0727 14.6846 57.1641 15.9411 57.1641 17.4121C57.1641 17.8766 57.2552 18.319 57.4207 18.7245C58.3531 19.584 59.4542 20.0688 60.6551 20.0688Z" fill="url(#paint36_linear_1669_23342)"/>
<path d="M60.6551 20.0688C61.8576 20.0688 62.9605 19.5823 63.8944 18.7193C65.7286 17.027 66.9091 13.8839 66.9091 10.1295C66.9091 10.0281 66.9075 9.92676 66.9057 9.82554C66.8939 9.18379 66.8483 8.5605 66.7707 7.96094H62.4943C62.5991 8.51992 62.6666 9.14321 62.6818 9.82554C62.6852 9.92515 62.6868 10.0265 62.6868 10.1295C62.6868 11.8505 62.3558 13.2084 61.9504 14.1694C61.4859 15.2689 60.9252 15.8465 60.6551 15.8465C60.3848 15.8465 59.8241 15.2689 59.3597 14.1694C58.0727 14.6846 57.1641 15.9411 57.1641 17.4121C57.1641 17.8766 57.2552 18.319 57.4207 18.7245C58.3531 19.584 59.4542 20.0688 60.6551 20.0688Z" fill="url(#paint37_linear_1669_23342)"/>
<path d="M60.7822 15.812C61.377 15.5378 62.6864 13.5475 62.6864 10.1294C62.6864 6.71138 61.3771 4.72109 60.7822 4.44687V0.195312C64.2836 0.296387 66.9086 4.53154 66.9086 10.1294C66.9086 15.7273 64.2836 19.9625 60.7822 20.0636V15.812Z" fill="url(#paint38_linear_1669_23342)"/>
<path d="M18.2791 35.3924H10.7728C9.25649 35.3924 8.02734 34.1633 8.02734 32.647V29.8118C8.02734 28.2956 9.25649 27.0664 10.7728 27.0664H18.2791C19.7953 27.0664 21.0245 28.2956 21.0245 29.8118V32.647C21.0245 34.1633 19.7953 35.3924 18.2791 35.3924Z" fill="url(#paint39_linear_1669_23342)"/>
<path d="M18.2794 27.0664H11.4414V35.3923H18.2794C19.7957 35.3923 21.0249 34.1631 21.0249 32.6469V29.8117C21.0249 28.2956 19.7957 27.0664 18.2794 27.0664Z" fill="url(#paint40_linear_1669_23342)"/>
<path d="M8.02734 30.1641V32.6474C8.02734 34.1637 9.25649 35.3928 10.7728 35.3928H18.2791C19.7953 35.3928 21.0245 34.1637 21.0245 32.6474V30.1641H8.02734Z" fill="url(#paint41_linear_1669_23342)"/>
<path d="M34.1941 35.3924H26.6878C25.1715 35.3924 23.9424 34.1633 23.9424 32.647V29.8118C23.9424 28.2956 25.1715 27.0664 26.6878 27.0664H34.1941C35.7104 27.0664 36.9395 28.2956 36.9395 29.8118V32.647C36.9395 34.1633 35.7104 35.3924 34.1941 35.3924Z" fill="url(#paint42_linear_1669_23342)"/>
<path d="M34.1945 27.0664H27.3564V35.3923H34.1945C35.7107 35.3923 36.9399 34.1631 36.9399 32.6469V29.8117C36.9399 28.2956 35.7107 27.0664 34.1945 27.0664Z" fill="url(#paint43_linear_1669_23342)"/>
<path d="M23.9424 30.1641V32.6474C23.9424 34.1637 25.1715 35.3928 26.6878 35.3928H34.1941C35.7104 35.3928 36.9395 34.1637 36.9395 32.6474V30.1641H23.9424Z" fill="url(#paint44_linear_1669_23342)"/>
<path d="M50.1101 35.3924H42.6038C41.0875 35.3924 39.8584 34.1633 39.8584 32.647V29.8118C39.8584 28.2956 41.0875 27.0664 42.6038 27.0664H50.1101C51.6264 27.0664 52.8555 28.2956 52.8555 29.8118V32.647C52.8555 34.1633 51.6264 35.3924 50.1101 35.3924Z" fill="url(#paint45_linear_1669_23342)"/>
<path d="M50.1105 27.0664H43.2725V35.3923H50.1105C51.6268 35.3923 52.8559 34.1631 52.8559 32.6469V29.8117C52.8559 28.2956 51.6268 27.0664 50.1105 27.0664Z" fill="url(#paint46_linear_1669_23342)"/>
<path d="M39.8584 30.1641V32.6474C39.8584 34.1637 41.0875 35.3928 42.6038 35.3928H50.1101C51.6264 35.3928 52.8555 34.1637 52.8555 32.6474V30.1641H39.8584Z" fill="url(#paint47_linear_1669_23342)"/>
<path d="M66.0251 35.3924H58.5188C57.0026 35.3924 55.7734 34.1633 55.7734 32.647V29.8118C55.7734 28.2956 57.0026 27.0664 58.5188 27.0664H66.0251C67.5414 27.0664 68.7706 28.2956 68.7706 29.8118V32.647C68.7706 34.1633 67.5414 35.3924 66.0251 35.3924Z" fill="url(#paint48_linear_1669_23342)"/>
<path d="M66.0255 27.0664H59.1875V35.3923H66.0255C67.5418 35.3923 68.7709 34.1631 68.7709 32.6469V29.8117C68.7709 28.2956 67.5418 27.0664 66.0255 27.0664Z" fill="url(#paint49_linear_1669_23342)"/>
<path d="M55.7734 30.1641V32.6474C55.7734 34.1637 57.0026 35.3928 58.5188 35.3928H66.0251C67.5414 35.3928 68.7706 34.1637 68.7706 32.6474V30.1641H55.7734Z" fill="url(#paint50_linear_1669_23342)"/>
<path d="M18.2791 47.537H10.7728C9.25649 47.537 8.02734 46.3078 8.02734 44.7916V41.9563C8.02734 40.4401 9.25649 39.2109 10.7728 39.2109H18.2791C19.7953 39.2109 21.0245 40.4401 21.0245 41.9563V44.7916C21.0245 46.3078 19.7953 47.537 18.2791 47.537Z" fill="url(#paint51_linear_1669_23342)"/>
<path d="M18.2794 39.2109H11.4414V47.5368H18.2794C19.7957 47.5368 21.0249 46.3077 21.0249 44.7914V41.9562C21.0249 40.4401 19.7957 39.2109 18.2794 39.2109Z" fill="url(#paint52_linear_1669_23342)"/>
<path d="M8.02734 42.3086V44.7919C8.02734 46.3082 9.25649 47.5374 10.7728 47.5374H18.2791C19.7953 47.5374 21.0245 46.3082 21.0245 44.7919V42.3086H8.02734Z" fill="url(#paint53_linear_1669_23342)"/>
<path d="M34.1941 47.537H26.6878C25.1715 47.537 23.9424 46.3078 23.9424 44.7916V41.9563C23.9424 40.4401 25.1715 39.2109 26.6878 39.2109H34.1941C35.7104 39.2109 36.9395 40.4401 36.9395 41.9563V44.7916C36.9395 46.3078 35.7104 47.537 34.1941 47.537Z" fill="url(#paint54_linear_1669_23342)"/>
<path d="M34.1945 39.2109H27.3564V47.5368H34.1945C35.7107 47.5368 36.9399 46.3077 36.9399 44.7914V41.9562C36.9399 40.4401 35.7107 39.2109 34.1945 39.2109Z" fill="url(#paint55_linear_1669_23342)"/>
<path d="M23.9424 42.3086V44.7919C23.9424 46.3082 25.1715 47.5374 26.6878 47.5374H34.1941C35.7104 47.5374 36.9395 46.3082 36.9395 44.7919V42.3086H23.9424Z" fill="url(#paint56_linear_1669_23342)"/>
<path d="M50.1101 47.537H42.6038C41.0875 47.537 39.8584 46.3078 39.8584 44.7916V41.9563C39.8584 40.4401 41.0875 39.2109 42.6038 39.2109H50.1101C51.6264 39.2109 52.8555 40.4401 52.8555 41.9563V44.7916C52.8555 46.3078 51.6264 47.537 50.1101 47.537Z" fill="url(#paint57_linear_1669_23342)"/>
<path d="M50.1105 39.2109H43.2725V47.5368H50.1105C51.6268 47.5368 52.8559 46.3077 52.8559 44.7914V41.9562C52.8559 40.4401 51.6268 39.2109 50.1105 39.2109Z" fill="url(#paint58_linear_1669_23342)"/>
<path d="M39.8584 42.3086V44.7919C39.8584 46.3082 41.0875 47.5374 42.6038 47.5374H50.1101C51.6264 47.5374 52.8555 46.3082 52.8555 44.7919V42.3086H39.8584Z" fill="url(#paint59_linear_1669_23342)"/>
<path d="M66.0251 47.537H58.5188C57.0026 47.537 55.7734 46.3078 55.7734 44.7916V41.9563C55.7734 40.4401 57.0026 39.2109 58.5188 39.2109H66.0251C67.5414 39.2109 68.7706 40.4401 68.7706 41.9563V44.7916C68.7706 46.3078 67.5414 47.537 66.0251 47.537Z" fill="url(#paint60_linear_1669_23342)"/>
<path d="M66.0255 39.2109H59.1875V47.5368H66.0255C67.5418 47.5368 68.7709 46.3077 68.7709 44.7914V41.9562C68.7709 40.4401 67.5418 39.2109 66.0255 39.2109Z" fill="url(#paint61_linear_1669_23342)"/>
<path d="M55.7734 42.3086V44.7919C55.7734 46.3082 57.0026 47.5374 58.5188 47.5374H66.0251C67.5414 47.5374 68.7706 46.3082 68.7706 44.7919V42.3086H55.7734Z" fill="url(#paint62_linear_1669_23342)"/>
<path d="M18.2791 59.6854H10.7728C9.25649 59.6854 8.02734 58.4562 8.02734 56.94V54.1048C8.02734 52.5885 9.25649 51.3594 10.7728 51.3594H18.2791C19.7953 51.3594 21.0245 52.5885 21.0245 54.1048V56.94C21.0245 58.4562 19.7953 59.6854 18.2791 59.6854Z" fill="url(#paint63_linear_1669_23342)"/>
<path d="M18.2794 51.3594H11.4414V59.6853H18.2794C19.7957 59.6853 21.0249 58.4561 21.0249 56.9398V54.1046C21.0249 52.5885 19.7957 51.3594 18.2794 51.3594Z" fill="url(#paint64_linear_1669_23342)"/>
<path d="M8.02734 54.457V56.9404C8.02734 58.4566 9.25649 59.6858 10.7728 59.6858H18.2791C19.7953 59.6858 21.0245 58.4566 21.0245 56.9404V54.457H8.02734Z" fill="url(#paint65_linear_1669_23342)"/>
<path d="M34.1941 59.6854H26.6878C25.1715 59.6854 23.9424 58.4562 23.9424 56.94V54.1048C23.9424 52.5885 25.1715 51.3594 26.6878 51.3594H34.1941C35.7104 51.3594 36.9395 52.5885 36.9395 54.1048V56.94C36.9395 58.4562 35.7104 59.6854 34.1941 59.6854Z" fill="url(#paint66_linear_1669_23342)"/>
<path d="M34.1945 51.3594H27.3564V59.6853H34.1945C35.7107 59.6853 36.9399 58.4561 36.9399 56.9398V54.1046C36.9399 52.5885 35.7107 51.3594 34.1945 51.3594Z" fill="url(#paint67_linear_1669_23342)"/>
<path d="M23.9424 54.457V56.9404C23.9424 58.4566 25.1715 59.6858 26.6878 59.6858H34.1941C35.7104 59.6858 36.9395 58.4566 36.9395 56.9404V54.457H23.9424Z" fill="url(#paint68_linear_1669_23342)"/>
<path d="M50.1101 59.6854H42.6038C41.0875 59.6854 39.8584 58.4562 39.8584 56.94V54.1048C39.8584 52.5885 41.0875 51.3594 42.6038 51.3594H50.1101C51.6264 51.3594 52.8555 52.5885 52.8555 54.1048V56.94C52.8555 58.4562 51.6264 59.6854 50.1101 59.6854Z" fill="url(#paint69_linear_1669_23342)"/>
<path d="M50.1105 51.3594H43.2725V59.6853H50.1105C51.6268 59.6853 52.8559 58.4561 52.8559 56.9398V54.1046C52.8559 52.5885 51.6268 51.3594 50.1105 51.3594Z" fill="url(#paint70_linear_1669_23342)"/>
<path d="M39.8584 54.457V56.9404C39.8584 58.4566 41.0875 59.6858 42.6038 59.6858H50.1101C51.6264 59.6858 52.8555 58.4566 52.8555 56.9404V54.457H39.8584Z" fill="url(#paint71_linear_1669_23342)"/>
<path d="M66.0251 59.6854H58.5188C57.0026 59.6854 55.7734 58.4562 55.7734 56.94V54.1048C55.7734 52.5885 57.0026 51.3594 58.5188 51.3594H66.0251C67.5414 51.3594 68.7706 52.5885 68.7706 54.1048V56.94C68.7706 58.4562 67.5414 59.6854 66.0251 59.6854Z" fill="url(#paint72_linear_1669_23342)"/>
<path d="M66.0255 51.3594H59.1875V59.6853H66.0255C67.5418 59.6853 68.7709 58.4561 68.7709 56.9398V54.1046C68.7709 52.5885 67.5418 51.3594 66.0255 51.3594Z" fill="url(#paint73_linear_1669_23342)"/>
<path d="M55.7734 54.457V56.9404C55.7734 58.4566 57.0026 59.6858 58.5188 59.6858H66.0251C67.5414 59.6858 68.7706 58.4566 68.7706 56.9404V54.457H55.7734Z" fill="url(#paint74_linear_1669_23342)"/>
<defs>
<linearGradient id="paint0_linear_1669_23342" x1="12.0935" y1="6.22495" x2="19.4979" y2="12.6061" gradientUnits="userSpaceOnUse">
<stop stop-color="#FEF0AE"/>
<stop offset="1" stop-color="#FAC600"/>
</linearGradient>
<linearGradient id="paint1_linear_1669_23342" x1="13.4981" y1="6.07549" x2="13.4981" y2="9.73086" gradientUnits="userSpaceOnUse">
<stop stop-color="#FE9738" stop-opacity="0"/>
<stop offset="1" stop-color="#FE9738"/>
</linearGradient>
<linearGradient id="paint2_linear_1669_23342" x1="56.1237" y1="6.22495" x2="63.5282" y2="12.6061" gradientUnits="userSpaceOnUse">
<stop stop-color="#FEF0AE"/>
<stop offset="1" stop-color="#FAC600"/>
</linearGradient>
<linearGradient id="paint3_linear_1669_23342" x1="57.5284" y1="6.07549" x2="57.5284" y2="9.73086" gradientUnits="userSpaceOnUse">
<stop stop-color="#FE9738" stop-opacity="0"/>
<stop offset="1" stop-color="#FE9738"/>
</linearGradient>
<linearGradient id="paint4_linear_1669_23342" x1="26.7701" y1="6.22495" x2="34.1746" y2="12.6061" gradientUnits="userSpaceOnUse">
<stop stop-color="#FEF0AE"/>
<stop offset="1" stop-color="#FAC600"/>
</linearGradient>
<linearGradient id="paint5_linear_1669_23342" x1="28.1747" y1="6.07549" x2="28.1747" y2="9.73086" gradientUnits="userSpaceOnUse">
<stop stop-color="#FE9738" stop-opacity="0"/>
<stop offset="1" stop-color="#FE9738"/>
</linearGradient>
<linearGradient id="paint6_linear_1669_23342" x1="41.4468" y1="6.22495" x2="48.8513" y2="12.6061" gradientUnits="userSpaceOnUse">
<stop stop-color="#FEF0AE"/>
<stop offset="1" stop-color="#FAC600"/>
</linearGradient>
<linearGradient id="paint7_linear_1669_23342" x1="42.8516" y1="6.07549" x2="42.8516" y2="9.73086" gradientUnits="userSpaceOnUse">
<stop stop-color="#FE9738" stop-opacity="0"/>
<stop offset="1" stop-color="#FE9738"/>
</linearGradient>
<linearGradient id="paint8_linear_1669_23342" x1="20.6257" y1="21.8523" x2="69.8253" y2="71.0521" gradientUnits="userSpaceOnUse">
<stop stop-color="#B3DAFE"/>
<stop offset="1" stop-color="#0182FC"/>
</linearGradient>
<linearGradient id="paint9_linear_1669_23342" x1="38.3994" y1="57.071" x2="38.3994" y2="72.1501" gradientUnits="userSpaceOnUse">
<stop stop-color="#314DC9" stop-opacity="0"/>
<stop offset="0.2761" stop-color="#304BC4" stop-opacity="0.276"/>
<stop offset="0.5628" stop-color="#2B45B8" stop-opacity="0.563"/>
<stop offset="0.8535" stop-color="#243BA3" stop-opacity="0.854"/>
<stop offset="1" stop-color="#1F3596"/>
</linearGradient>
<linearGradient id="paint10_linear_1669_23342" x1="64.4653" y1="39.626" x2="76.371" y2="39.626" gradientUnits="userSpaceOnUse">
<stop stop-color="#314DC9" stop-opacity="0"/>
<stop offset="0.2761" stop-color="#304BC4" stop-opacity="0.276"/>
<stop offset="0.5628" stop-color="#2B45B8" stop-opacity="0.563"/>
<stop offset="0.8535" stop-color="#243BA3" stop-opacity="0.854"/>
<stop offset="1" stop-color="#1F3596"/>
</linearGradient>
<linearGradient id="paint11_linear_1669_23342" x1="54.4192" y1="60.4519" x2="36.8759" y2="34.9723" gradientUnits="userSpaceOnUse">
<stop stop-color="#314DC9" stop-opacity="0"/>
<stop offset="0.2761" stop-color="#304BC4" stop-opacity="0.276"/>
<stop offset="0.5628" stop-color="#2B45B8" stop-opacity="0.563"/>
<stop offset="0.8535" stop-color="#243BA3" stop-opacity="0.854"/>
<stop offset="1" stop-color="#1F3596"/>
</linearGradient>
<linearGradient id="paint12_linear_1669_23342" x1="22.1592" y1="22.1356" x2="67.1144" y2="67.0908" gradientUnits="userSpaceOnUse">
<stop stop-color="#F5FBFF"/>
<stop offset="1" stop-color="#DBD5EF"/>
</linearGradient>
<linearGradient id="paint13_linear_1669_23342" x1="34.0031" y1="16.7804" x2="21.3678" y2="7.90435" gradientUnits="userSpaceOnUse">
<stop stop-color="#DBD5EF" stop-opacity="0"/>
<stop offset="0.2853" stop-color="#D9D2EE" stop-opacity="0.285"/>
<stop offset="0.4739" stop-color="#D4C9E9" stop-opacity="0.474"/>
<stop offset="0.6346" stop-color="#CBBAE2" stop-opacity="0.635"/>
<stop offset="0.7795" stop-color="#BFA5D7" stop-opacity="0.78"/>
<stop offset="0.9126" stop-color="#AF8ACA" stop-opacity="0.913"/>
<stop offset="1" stop-color="#A274BF"/>
</linearGradient>
<linearGradient id="paint14_linear_1669_23342" x1="45.5339" y1="20.1397" x2="32.7942" y2="11.6813" gradientUnits="userSpaceOnUse">
<stop stop-color="#DBD5EF" stop-opacity="0"/>
<stop offset="0.2853" stop-color="#D9D2EE" stop-opacity="0.285"/>
<stop offset="0.4739" stop-color="#D4C9E9" stop-opacity="0.474"/>
<stop offset="0.6346" stop-color="#CBBAE2" stop-opacity="0.635"/>
<stop offset="0.7795" stop-color="#BFA5D7" stop-opacity="0.78"/>
<stop offset="0.9126" stop-color="#AF8ACA" stop-opacity="0.913"/>
<stop offset="1" stop-color="#A274BF"/>
</linearGradient>
<linearGradient id="paint15_linear_1669_23342" x1="38.3997" y1="54.3174" x2="38.3997" y2="68.0956" gradientUnits="userSpaceOnUse">
<stop stop-color="#DBD5EF" stop-opacity="0"/>
<stop offset="0.2853" stop-color="#D9D2EE" stop-opacity="0.285"/>
<stop offset="0.4739" stop-color="#D4C9E9" stop-opacity="0.474"/>
<stop offset="0.6346" stop-color="#CBBAE2" stop-opacity="0.635"/>
<stop offset="0.7795" stop-color="#BFA5D7" stop-opacity="0.78"/>
<stop offset="0.9126" stop-color="#AF8ACA" stop-opacity="0.913"/>
<stop offset="1" stop-color="#A274BF"/>
</linearGradient>
<linearGradient id="paint16_linear_1669_23342" x1="62.2164" y1="38.376" x2="73.0949" y2="38.376" gradientUnits="userSpaceOnUse">
<stop stop-color="#DBD5EF" stop-opacity="0"/>
<stop offset="0.2853" stop-color="#D9D2EE" stop-opacity="0.285"/>
<stop offset="0.4739" stop-color="#D4C9E9" stop-opacity="0.474"/>
<stop offset="0.6346" stop-color="#CBBAE2" stop-opacity="0.635"/>
<stop offset="0.7795" stop-color="#BFA5D7" stop-opacity="0.78"/>
<stop offset="0.9126" stop-color="#AF8ACA" stop-opacity="0.913"/>
<stop offset="1" stop-color="#A274BF"/>
</linearGradient>
<linearGradient id="paint17_linear_1669_23342" x1="60.2471" y1="22.7993" x2="44.6878" y2="12.6702" gradientUnits="userSpaceOnUse">
<stop stop-color="#DBD5EF" stop-opacity="0"/>
<stop offset="0.2853" stop-color="#D9D2EE" stop-opacity="0.285"/>
<stop offset="0.4739" stop-color="#D4C9E9" stop-opacity="0.474"/>
<stop offset="0.6346" stop-color="#CBBAE2" stop-opacity="0.635"/>
<stop offset="0.7795" stop-color="#BFA5D7" stop-opacity="0.78"/>
<stop offset="0.9126" stop-color="#AF8ACA" stop-opacity="0.913"/>
<stop offset="1" stop-color="#A274BF"/>
</linearGradient>
<linearGradient id="paint18_linear_1669_23342" x1="71.7916" y1="22.9919" x2="60.3048" y2="15.0556" gradientUnits="userSpaceOnUse">
<stop stop-color="#DBD5EF" stop-opacity="0"/>
<stop offset="0.2853" stop-color="#D9D2EE" stop-opacity="0.285"/>
<stop offset="0.4739" stop-color="#D4C9E9" stop-opacity="0.474"/>
<stop offset="0.6346" stop-color="#CBBAE2" stop-opacity="0.635"/>
<stop offset="0.7795" stop-color="#BFA5D7" stop-opacity="0.78"/>
<stop offset="0.9126" stop-color="#AF8ACA" stop-opacity="0.913"/>
<stop offset="1" stop-color="#A274BF"/>
</linearGradient>
<linearGradient id="paint19_linear_1669_23342" x1="20.1913" y1="23.6619" x2="14.2115" y2="13.1873" gradientUnits="userSpaceOnUse">
<stop stop-color="#F5FBFF"/>
<stop offset="1" stop-color="#DBD5EF"/>
</linearGradient>
<linearGradient id="paint20_linear_1669_23342" x1="11.1165" y1="7.35728" x2="18.5209" y2="13.7383" gradientUnits="userSpaceOnUse">
<stop stop-color="#FEF0AE"/>
<stop offset="1" stop-color="#FAC600"/>
</linearGradient>
<linearGradient id="paint21_linear_1669_23342" x1="18.0053" y1="14.6731" x2="18.0053" y2="18.7605" gradientUnits="userSpaceOnUse">
<stop stop-color="#FE9738" stop-opacity="0"/>
<stop offset="1" stop-color="#FE9738"/>
</linearGradient>
<linearGradient id="paint22_linear_1669_23342" x1="16.0147" y1="13.6756" x2="13.4863" y2="13.4348" gradientUnits="userSpaceOnUse">
<stop stop-color="#FE9738" stop-opacity="0"/>
<stop offset="1" stop-color="#FE9738"/>
</linearGradient>
<linearGradient id="paint23_linear_1669_23342" x1="19.632" y1="10.1294" x2="22.0521" y2="10.1294" gradientUnits="userSpaceOnUse">
<stop stop-color="#FE9738" stop-opacity="0"/>
<stop offset="1" stop-color="#FE9738"/>
</linearGradient>
<linearGradient id="paint24_linear_1669_23342" x1="34.8681" y1="23.6619" x2="28.8883" y2="13.1873" gradientUnits="userSpaceOnUse">
<stop stop-color="#F5FBFF"/>
<stop offset="1" stop-color="#DBD5EF"/>
</linearGradient>
<linearGradient id="paint25_linear_1669_23342" x1="25.7934" y1="7.35728" x2="33.1979" y2="13.7383" gradientUnits="userSpaceOnUse">
<stop stop-color="#FEF0AE"/>
<stop offset="1" stop-color="#FAC600"/>
</linearGradient>
<linearGradient id="paint26_linear_1669_23342" x1="32.6822" y1="14.6731" x2="32.6822" y2="18.7605" gradientUnits="userSpaceOnUse">
<stop stop-color="#FE9738" stop-opacity="0"/>
<stop offset="1" stop-color="#FE9738"/>
</linearGradient>
<linearGradient id="paint27_linear_1669_23342" x1="30.6915" y1="13.6756" x2="28.1632" y2="13.4348" gradientUnits="userSpaceOnUse">
<stop stop-color="#FE9738" stop-opacity="0"/>
<stop offset="1" stop-color="#FE9738"/>
</linearGradient>
<linearGradient id="paint28_linear_1669_23342" x1="34.3087" y1="10.1294" x2="36.7287" y2="10.1294" gradientUnits="userSpaceOnUse">
<stop stop-color="#FE9738" stop-opacity="0"/>
<stop offset="1" stop-color="#FE9738"/>
</linearGradient>
<linearGradient id="paint29_linear_1669_23342" x1="49.5447" y1="23.6619" x2="43.5649" y2="13.1873" gradientUnits="userSpaceOnUse">
<stop stop-color="#F5FBFF"/>
<stop offset="1" stop-color="#DBD5EF"/>
</linearGradient>
<linearGradient id="paint30_linear_1669_23342" x1="40.4701" y1="7.35728" x2="47.8746" y2="13.7383" gradientUnits="userSpaceOnUse">
<stop stop-color="#FEF0AE"/>
<stop offset="1" stop-color="#FAC600"/>
</linearGradient>
<linearGradient id="paint31_linear_1669_23342" x1="47.3588" y1="14.6731" x2="47.3588" y2="18.7605" gradientUnits="userSpaceOnUse">
<stop stop-color="#FE9738" stop-opacity="0"/>
<stop offset="1" stop-color="#FE9738"/>
</linearGradient>
<linearGradient id="paint32_linear_1669_23342" x1="45.3683" y1="13.6756" x2="42.8399" y2="13.4348" gradientUnits="userSpaceOnUse">
<stop stop-color="#FE9738" stop-opacity="0"/>
<stop offset="1" stop-color="#FE9738"/>
</linearGradient>
<linearGradient id="paint33_linear_1669_23342" x1="48.9855" y1="10.1294" x2="51.4054" y2="10.1294" gradientUnits="userSpaceOnUse">
<stop stop-color="#FE9738" stop-opacity="0"/>
<stop offset="1" stop-color="#FE9738"/>
</linearGradient>
<linearGradient id="paint34_linear_1669_23342" x1="64.2226" y1="23.6619" x2="58.2428" y2="13.1873" gradientUnits="userSpaceOnUse">
<stop stop-color="#F5FBFF"/>
<stop offset="1" stop-color="#DBD5EF"/>
</linearGradient>
<linearGradient id="paint35_linear_1669_23342" x1="55.1477" y1="7.35728" x2="62.5522" y2="13.7383" gradientUnits="userSpaceOnUse">
<stop stop-color="#FEF0AE"/>
<stop offset="1" stop-color="#FAC600"/>
</linearGradient>
<linearGradient id="paint36_linear_1669_23342" x1="62.0366" y1="14.6731" x2="62.0366" y2="18.7605" gradientUnits="userSpaceOnUse">
<stop stop-color="#FE9738" stop-opacity="0"/>
<stop offset="1" stop-color="#FE9738"/>
</linearGradient>
<linearGradient id="paint37_linear_1669_23342" x1="60.046" y1="13.6756" x2="57.5175" y2="13.4348" gradientUnits="userSpaceOnUse">
<stop stop-color="#FE9738" stop-opacity="0"/>
<stop offset="1" stop-color="#FE9738"/>
</linearGradient>
<linearGradient id="paint38_linear_1669_23342" x1="63.6623" y1="10.1294" x2="66.0823" y2="10.1294" gradientUnits="userSpaceOnUse">
<stop stop-color="#FE9738" stop-opacity="0"/>
<stop offset="1" stop-color="#FE9738"/>
</linearGradient>
<linearGradient id="paint39_linear_1669_23342" x1="5.94683" y1="16.0776" x2="17.0861" y2="35.7509" gradientUnits="userSpaceOnUse">
<stop stop-color="#DBD5EF" stop-opacity="0"/>
<stop offset="0.2853" stop-color="#D9D2EE" stop-opacity="0.285"/>
<stop offset="0.4739" stop-color="#D4C9E9" stop-opacity="0.474"/>
<stop offset="0.6346" stop-color="#CBBAE2" stop-opacity="0.635"/>
<stop offset="0.7795" stop-color="#BFA5D7" stop-opacity="0.78"/>
<stop offset="0.9126" stop-color="#AF8ACA" stop-opacity="0.913"/>
<stop offset="1" stop-color="#A274BF"/>
</linearGradient>
<linearGradient id="paint40_linear_1669_23342" x1="14.9529" y1="31.2293" x2="21.491" y2="31.2293" gradientUnits="userSpaceOnUse">
<stop stop-color="#DBD5EF" stop-opacity="0"/>
<stop offset="0.2853" stop-color="#D9D2EE" stop-opacity="0.285"/>
<stop offset="0.4739" stop-color="#D4C9E9" stop-opacity="0.474"/>
<stop offset="0.6346" stop-color="#CBBAE2" stop-opacity="0.635"/>
<stop offset="0.7795" stop-color="#BFA5D7" stop-opacity="0.78"/>
<stop offset="0.9126" stop-color="#AF8ACA" stop-opacity="0.913"/>
<stop offset="1" stop-color="#A274BF"/>
</linearGradient>
<linearGradient id="paint41_linear_1669_23342" x1="14.5258" y1="31.2101" x2="14.5258" y2="35.6128" gradientUnits="userSpaceOnUse">
<stop stop-color="#DBD5EF" stop-opacity="0"/>
<stop offset="0.2853" stop-color="#D9D2EE" stop-opacity="0.285"/>
<stop offset="0.4739" stop-color="#D4C9E9" stop-opacity="0.474"/>
<stop offset="0.6346" stop-color="#CBBAE2" stop-opacity="0.635"/>
<stop offset="0.7795" stop-color="#BFA5D7" stop-opacity="0.78"/>
<stop offset="0.9126" stop-color="#AF8ACA" stop-opacity="0.913"/>
<stop offset="1" stop-color="#A274BF"/>
</linearGradient>
<linearGradient id="paint42_linear_1669_23342" x1="21.8619" y1="16.0776" x2="33.0011" y2="35.7509" gradientUnits="userSpaceOnUse">
<stop stop-color="#DBD5EF" stop-opacity="0"/>
<stop offset="0.2853" stop-color="#D9D2EE" stop-opacity="0.285"/>
<stop offset="0.4739" stop-color="#D4C9E9" stop-opacity="0.474"/>
<stop offset="0.6346" stop-color="#CBBAE2" stop-opacity="0.635"/>
<stop offset="0.7795" stop-color="#BFA5D7" stop-opacity="0.78"/>
<stop offset="0.9126" stop-color="#AF8ACA" stop-opacity="0.913"/>
<stop offset="1" stop-color="#A274BF"/>
</linearGradient>
<linearGradient id="paint43_linear_1669_23342" x1="30.868" y1="31.2293" x2="37.406" y2="31.2293" gradientUnits="userSpaceOnUse">
<stop stop-color="#DBD5EF" stop-opacity="0"/>
<stop offset="0.2853" stop-color="#D9D2EE" stop-opacity="0.285"/>
<stop offset="0.4739" stop-color="#D4C9E9" stop-opacity="0.474"/>
<stop offset="0.6346" stop-color="#CBBAE2" stop-opacity="0.635"/>
<stop offset="0.7795" stop-color="#BFA5D7" stop-opacity="0.78"/>
<stop offset="0.9126" stop-color="#AF8ACA" stop-opacity="0.913"/>
<stop offset="1" stop-color="#A274BF"/>
</linearGradient>
<linearGradient id="paint44_linear_1669_23342" x1="30.441" y1="31.2101" x2="30.441" y2="35.6128" gradientUnits="userSpaceOnUse">
<stop stop-color="#DBD5EF" stop-opacity="0"/>
<stop offset="0.2853" stop-color="#D9D2EE" stop-opacity="0.285"/>
<stop offset="0.4739" stop-color="#D4C9E9" stop-opacity="0.474"/>
<stop offset="0.6346" stop-color="#CBBAE2" stop-opacity="0.635"/>
<stop offset="0.7795" stop-color="#BFA5D7" stop-opacity="0.78"/>
<stop offset="0.9126" stop-color="#AF8ACA" stop-opacity="0.913"/>
<stop offset="1" stop-color="#A274BF"/>
</linearGradient>
<linearGradient id="paint45_linear_1669_23342" x1="37.7779" y1="16.0776" x2="48.9171" y2="35.7509" gradientUnits="userSpaceOnUse">
<stop stop-color="#DBD5EF" stop-opacity="0"/>
<stop offset="0.2853" stop-color="#D9D2EE" stop-opacity="0.285"/>
<stop offset="0.4739" stop-color="#D4C9E9" stop-opacity="0.474"/>
<stop offset="0.6346" stop-color="#CBBAE2" stop-opacity="0.635"/>
<stop offset="0.7795" stop-color="#BFA5D7" stop-opacity="0.78"/>
<stop offset="0.9126" stop-color="#AF8ACA" stop-opacity="0.913"/>
<stop offset="1" stop-color="#A274BF"/>
</linearGradient>
<linearGradient id="paint46_linear_1669_23342" x1="46.784" y1="31.2293" x2="53.322" y2="31.2293" gradientUnits="userSpaceOnUse">
<stop stop-color="#DBD5EF" stop-opacity="0"/>
<stop offset="0.2853" stop-color="#D9D2EE" stop-opacity="0.285"/>
<stop offset="0.4739" stop-color="#D4C9E9" stop-opacity="0.474"/>
<stop offset="0.6346" stop-color="#CBBAE2" stop-opacity="0.635"/>
<stop offset="0.7795" stop-color="#BFA5D7" stop-opacity="0.78"/>
<stop offset="0.9126" stop-color="#AF8ACA" stop-opacity="0.913"/>
<stop offset="1" stop-color="#A274BF"/>
</linearGradient>
<linearGradient id="paint47_linear_1669_23342" x1="46.357" y1="31.2101" x2="46.357" y2="35.6128" gradientUnits="userSpaceOnUse">
<stop stop-color="#DBD5EF" stop-opacity="0"/>
<stop offset="0.2853" stop-color="#D9D2EE" stop-opacity="0.285"/>
<stop offset="0.4739" stop-color="#D4C9E9" stop-opacity="0.474"/>
<stop offset="0.6346" stop-color="#CBBAE2" stop-opacity="0.635"/>
<stop offset="0.7795" stop-color="#BFA5D7" stop-opacity="0.78"/>
<stop offset="0.9126" stop-color="#AF8ACA" stop-opacity="0.913"/>
<stop offset="1" stop-color="#A274BF"/>
</linearGradient>
<linearGradient id="paint48_linear_1669_23342" x1="53.6929" y1="16.0776" x2="64.8322" y2="35.7509" gradientUnits="userSpaceOnUse">
<stop stop-color="#DBD5EF" stop-opacity="0"/>
<stop offset="0.2853" stop-color="#D9D2EE" stop-opacity="0.285"/>
<stop offset="0.4739" stop-color="#D4C9E9" stop-opacity="0.474"/>
<stop offset="0.6346" stop-color="#CBBAE2" stop-opacity="0.635"/>
<stop offset="0.7795" stop-color="#BFA5D7" stop-opacity="0.78"/>
<stop offset="0.9126" stop-color="#AF8ACA" stop-opacity="0.913"/>
<stop offset="1" stop-color="#A274BF"/>
</linearGradient>
<linearGradient id="paint49_linear_1669_23342" x1="62.699" y1="31.2293" x2="69.2371" y2="31.2293" gradientUnits="userSpaceOnUse">
<stop stop-color="#DBD5EF" stop-opacity="0"/>
<stop offset="0.2853" stop-color="#D9D2EE" stop-opacity="0.285"/>
<stop offset="0.4739" stop-color="#D4C9E9" stop-opacity="0.474"/>
<stop offset="0.6346" stop-color="#CBBAE2" stop-opacity="0.635"/>
<stop offset="0.7795" stop-color="#BFA5D7" stop-opacity="0.78"/>
<stop offset="0.9126" stop-color="#AF8ACA" stop-opacity="0.913"/>
<stop offset="1" stop-color="#A274BF"/>
</linearGradient>
<linearGradient id="paint50_linear_1669_23342" x1="62.2721" y1="31.2101" x2="62.2721" y2="35.6128" gradientUnits="userSpaceOnUse">
<stop stop-color="#DBD5EF" stop-opacity="0"/>
<stop offset="0.2853" stop-color="#D9D2EE" stop-opacity="0.285"/>
<stop offset="0.4739" stop-color="#D4C9E9" stop-opacity="0.474"/>
<stop offset="0.6346" stop-color="#CBBAE2" stop-opacity="0.635"/>
<stop offset="0.7795" stop-color="#BFA5D7" stop-opacity="0.78"/>
<stop offset="0.9126" stop-color="#AF8ACA" stop-opacity="0.913"/>
<stop offset="1" stop-color="#A274BF"/>
</linearGradient>
<linearGradient id="paint51_linear_1669_23342" x1="5.94683" y1="28.2223" x2="17.0861" y2="47.8956" gradientUnits="userSpaceOnUse">
<stop stop-color="#DBD5EF" stop-opacity="0"/>
<stop offset="0.2853" stop-color="#D9D2EE" stop-opacity="0.285"/>
<stop offset="0.4739" stop-color="#D4C9E9" stop-opacity="0.474"/>
<stop offset="0.6346" stop-color="#CBBAE2" stop-opacity="0.635"/>
<stop offset="0.7795" stop-color="#BFA5D7" stop-opacity="0.78"/>
<stop offset="0.9126" stop-color="#AF8ACA" stop-opacity="0.913"/>
<stop offset="1" stop-color="#A274BF"/>
</linearGradient>
<linearGradient id="paint52_linear_1669_23342" x1="14.9529" y1="43.3739" x2="21.491" y2="43.3739" gradientUnits="userSpaceOnUse">
<stop stop-color="#DBD5EF" stop-opacity="0"/>
<stop offset="0.2853" stop-color="#D9D2EE" stop-opacity="0.285"/>
<stop offset="0.4739" stop-color="#D4C9E9" stop-opacity="0.474"/>
<stop offset="0.6346" stop-color="#CBBAE2" stop-opacity="0.635"/>
<stop offset="0.7795" stop-color="#BFA5D7" stop-opacity="0.78"/>
<stop offset="0.9126" stop-color="#AF8ACA" stop-opacity="0.913"/>
<stop offset="1" stop-color="#A274BF"/>
</linearGradient>
<linearGradient id="paint53_linear_1669_23342" x1="14.5258" y1="43.3545" x2="14.5258" y2="47.7572" gradientUnits="userSpaceOnUse">
<stop stop-color="#DBD5EF" stop-opacity="0"/>
<stop offset="0.2853" stop-color="#D9D2EE" stop-opacity="0.285"/>
<stop offset="0.4739" stop-color="#D4C9E9" stop-opacity="0.474"/>
<stop offset="0.6346" stop-color="#CBBAE2" stop-opacity="0.635"/>
<stop offset="0.7795" stop-color="#BFA5D7" stop-opacity="0.78"/>
<stop offset="0.9126" stop-color="#AF8ACA" stop-opacity="0.913"/>
<stop offset="1" stop-color="#A274BF"/>
</linearGradient>
<linearGradient id="paint54_linear_1669_23342" x1="21.8619" y1="28.2223" x2="33.0011" y2="47.8956" gradientUnits="userSpaceOnUse">
<stop stop-color="#DBD5EF" stop-opacity="0"/>
<stop offset="0.2853" stop-color="#D9D2EE" stop-opacity="0.285"/>
<stop offset="0.4739" stop-color="#D4C9E9" stop-opacity="0.474"/>
<stop offset="0.6346" stop-color="#CBBAE2" stop-opacity="0.635"/>
<stop offset="0.7795" stop-color="#BFA5D7" stop-opacity="0.78"/>
<stop offset="0.9126" stop-color="#AF8ACA" stop-opacity="0.913"/>
<stop offset="1" stop-color="#A274BF"/>
</linearGradient>
<linearGradient id="paint55_linear_1669_23342" x1="30.868" y1="43.3739" x2="37.406" y2="43.3739" gradientUnits="userSpaceOnUse">
<stop stop-color="#DBD5EF" stop-opacity="0"/>
<stop offset="0.2853" stop-color="#D9D2EE" stop-opacity="0.285"/>
<stop offset="0.4739" stop-color="#D4C9E9" stop-opacity="0.474"/>
<stop offset="0.6346" stop-color="#CBBAE2" stop-opacity="0.635"/>
<stop offset="0.7795" stop-color="#BFA5D7" stop-opacity="0.78"/>
<stop offset="0.9126" stop-color="#AF8ACA" stop-opacity="0.913"/>
<stop offset="1" stop-color="#A274BF"/>
</linearGradient>
<linearGradient id="paint56_linear_1669_23342" x1="30.441" y1="43.3545" x2="30.441" y2="47.7572" gradientUnits="userSpaceOnUse">
<stop stop-color="#DBD5EF" stop-opacity="0"/>
<stop offset="0.2853" stop-color="#D9D2EE" stop-opacity="0.285"/>
<stop offset="0.4739" stop-color="#D4C9E9" stop-opacity="0.474"/>
<stop offset="0.6346" stop-color="#CBBAE2" stop-opacity="0.635"/>
<stop offset="0.7795" stop-color="#BFA5D7" stop-opacity="0.78"/>
<stop offset="0.9126" stop-color="#AF8ACA" stop-opacity="0.913"/>
<stop offset="1" stop-color="#A274BF"/>
</linearGradient>
<linearGradient id="paint57_linear_1669_23342" x1="37.7779" y1="28.2223" x2="48.9171" y2="47.8956" gradientUnits="userSpaceOnUse">
<stop stop-color="#DBD5EF" stop-opacity="0"/>
<stop offset="0.2853" stop-color="#D9D2EE" stop-opacity="0.285"/>
<stop offset="0.4739" stop-color="#D4C9E9" stop-opacity="0.474"/>
<stop offset="0.6346" stop-color="#CBBAE2" stop-opacity="0.635"/>
<stop offset="0.7795" stop-color="#BFA5D7" stop-opacity="0.78"/>
<stop offset="0.9126" stop-color="#AF8ACA" stop-opacity="0.913"/>
<stop offset="1" stop-color="#A274BF"/>
</linearGradient>
<linearGradient id="paint58_linear_1669_23342" x1="46.784" y1="43.3739" x2="53.322" y2="43.3739" gradientUnits="userSpaceOnUse">
<stop stop-color="#DBD5EF" stop-opacity="0"/>
<stop offset="0.2853" stop-color="#D9D2EE" stop-opacity="0.285"/>
<stop offset="0.4739" stop-color="#D4C9E9" stop-opacity="0.474"/>
<stop offset="0.6346" stop-color="#CBBAE2" stop-opacity="0.635"/>
<stop offset="0.7795" stop-color="#BFA5D7" stop-opacity="0.78"/>
<stop offset="0.9126" stop-color="#AF8ACA" stop-opacity="0.913"/>
<stop offset="1" stop-color="#A274BF"/>
</linearGradient>
<linearGradient id="paint59_linear_1669_23342" x1="46.357" y1="43.3545" x2="46.357" y2="47.7572" gradientUnits="userSpaceOnUse">
<stop stop-color="#DBD5EF" stop-opacity="0"/>
<stop offset="0.2853" stop-color="#D9D2EE" stop-opacity="0.285"/>
<stop offset="0.4739" stop-color="#D4C9E9" stop-opacity="0.474"/>
<stop offset="0.6346" stop-color="#CBBAE2" stop-opacity="0.635"/>
<stop offset="0.7795" stop-color="#BFA5D7" stop-opacity="0.78"/>
<stop offset="0.9126" stop-color="#AF8ACA" stop-opacity="0.913"/>
<stop offset="1" stop-color="#A274BF"/>
</linearGradient>
<linearGradient id="paint60_linear_1669_23342" x1="53.6929" y1="28.2223" x2="64.8322" y2="47.8956" gradientUnits="userSpaceOnUse">
<stop stop-color="#DBD5EF" stop-opacity="0"/>
<stop offset="0.2853" stop-color="#D9D2EE" stop-opacity="0.285"/>
<stop offset="0.4739" stop-color="#D4C9E9" stop-opacity="0.474"/>
<stop offset="0.6346" stop-color="#CBBAE2" stop-opacity="0.635"/>
<stop offset="0.7795" stop-color="#BFA5D7" stop-opacity="0.78"/>
<stop offset="0.9126" stop-color="#AF8ACA" stop-opacity="0.913"/>
<stop offset="1" stop-color="#A274BF"/>
</linearGradient>
<linearGradient id="paint61_linear_1669_23342" x1="62.699" y1="43.3739" x2="69.2371" y2="43.3739" gradientUnits="userSpaceOnUse">
<stop stop-color="#DBD5EF" stop-opacity="0"/>
<stop offset="0.2853" stop-color="#D9D2EE" stop-opacity="0.285"/>
<stop offset="0.4739" stop-color="#D4C9E9" stop-opacity="0.474"/>
<stop offset="0.6346" stop-color="#CBBAE2" stop-opacity="0.635"/>
<stop offset="0.7795" stop-color="#BFA5D7" stop-opacity="0.78"/>
<stop offset="0.9126" stop-color="#AF8ACA" stop-opacity="0.913"/>
<stop offset="1" stop-color="#A274BF"/>
</linearGradient>
<linearGradient id="paint62_linear_1669_23342" x1="62.2721" y1="43.3545" x2="62.2721" y2="47.7572" gradientUnits="userSpaceOnUse">
<stop stop-color="#DBD5EF" stop-opacity="0"/>
<stop offset="0.2853" stop-color="#D9D2EE" stop-opacity="0.285"/>
<stop offset="0.4739" stop-color="#D4C9E9" stop-opacity="0.474"/>
<stop offset="0.6346" stop-color="#CBBAE2" stop-opacity="0.635"/>
<stop offset="0.7795" stop-color="#BFA5D7" stop-opacity="0.78"/>
<stop offset="0.9126" stop-color="#AF8ACA" stop-opacity="0.913"/>
<stop offset="1" stop-color="#A274BF"/>
</linearGradient>
<linearGradient id="paint63_linear_1669_23342" x1="5.94683" y1="40.3707" x2="17.0861" y2="60.044" gradientUnits="userSpaceOnUse">
<stop stop-color="#DBD5EF" stop-opacity="0"/>
<stop offset="0.2853" stop-color="#D9D2EE" stop-opacity="0.285"/>
<stop offset="0.4739" stop-color="#D4C9E9" stop-opacity="0.474"/>
<stop offset="0.6346" stop-color="#CBBAE2" stop-opacity="0.635"/>
<stop offset="0.7795" stop-color="#BFA5D7" stop-opacity="0.78"/>
<stop offset="0.9126" stop-color="#AF8ACA" stop-opacity="0.913"/>
<stop offset="1" stop-color="#A274BF"/>
</linearGradient>
<linearGradient id="paint64_linear_1669_23342" x1="14.9529" y1="55.5223" x2="21.491" y2="55.5223" gradientUnits="userSpaceOnUse">
<stop stop-color="#DBD5EF" stop-opacity="0"/>
<stop offset="0.2853" stop-color="#D9D2EE" stop-opacity="0.285"/>
<stop offset="0.4739" stop-color="#D4C9E9" stop-opacity="0.474"/>
<stop offset="0.6346" stop-color="#CBBAE2" stop-opacity="0.635"/>
<stop offset="0.7795" stop-color="#BFA5D7" stop-opacity="0.78"/>
<stop offset="0.9126" stop-color="#AF8ACA" stop-opacity="0.913"/>
<stop offset="1" stop-color="#A274BF"/>
</linearGradient>
<linearGradient id="paint65_linear_1669_23342" x1="14.5258" y1="55.5031" x2="14.5258" y2="59.9058" gradientUnits="userSpaceOnUse">
<stop stop-color="#DBD5EF" stop-opacity="0"/>
<stop offset="0.2853" stop-color="#D9D2EE" stop-opacity="0.285"/>
<stop offset="0.4739" stop-color="#D4C9E9" stop-opacity="0.474"/>
<stop offset="0.6346" stop-color="#CBBAE2" stop-opacity="0.635"/>
<stop offset="0.7795" stop-color="#BFA5D7" stop-opacity="0.78"/>
<stop offset="0.9126" stop-color="#AF8ACA" stop-opacity="0.913"/>
<stop offset="1" stop-color="#A274BF"/>
</linearGradient>
<linearGradient id="paint66_linear_1669_23342" x1="21.8619" y1="40.3707" x2="33.0011" y2="60.044" gradientUnits="userSpaceOnUse">
<stop stop-color="#FFA1AE"/>
<stop offset="1" stop-color="#FF4565"/>
</linearGradient>
<linearGradient id="paint67_linear_1669_23342" x1="30.868" y1="55.5223" x2="37.406" y2="55.5223" gradientUnits="userSpaceOnUse">
<stop stop-color="#FE0364" stop-opacity="0"/>
<stop offset="0.2343" stop-color="#F90362" stop-opacity="0.234"/>
<stop offset="0.5173" stop-color="#EA035B" stop-opacity="0.517"/>
<stop offset="0.8243" stop-color="#D20250" stop-opacity="0.824"/>
<stop offset="1" stop-color="#C00148"/>
</linearGradient>
<linearGradient id="paint68_linear_1669_23342" x1="30.441" y1="55.5031" x2="30.441" y2="59.9058" gradientUnits="userSpaceOnUse">
<stop stop-color="#FE0364" stop-opacity="0"/>
<stop offset="0.2343" stop-color="#F90362" stop-opacity="0.234"/>
<stop offset="0.5173" stop-color="#EA035B" stop-opacity="0.517"/>
<stop offset="0.8243" stop-color="#D20250" stop-opacity="0.824"/>
<stop offset="1" stop-color="#C00148"/>
</linearGradient>
<linearGradient id="paint69_linear_1669_23342" x1="37.7779" y1="40.3707" x2="48.9171" y2="60.044" gradientUnits="userSpaceOnUse">
<stop stop-color="#DBD5EF" stop-opacity="0"/>
<stop offset="0.2853" stop-color="#D9D2EE" stop-opacity="0.285"/>
<stop offset="0.4739" stop-color="#D4C9E9" stop-opacity="0.474"/>
<stop offset="0.6346" stop-color="#CBBAE2" stop-opacity="0.635"/>
<stop offset="0.7795" stop-color="#BFA5D7" stop-opacity="0.78"/>
<stop offset="0.9126" stop-color="#AF8ACA" stop-opacity="0.913"/>
<stop offset="1" stop-color="#A274BF"/>
</linearGradient>
<linearGradient id="paint70_linear_1669_23342" x1="46.784" y1="55.5223" x2="53.322" y2="55.5223" gradientUnits="userSpaceOnUse">
<stop stop-color="#DBD5EF" stop-opacity="0"/>
<stop offset="0.2853" stop-color="#D9D2EE" stop-opacity="0.285"/>
<stop offset="0.4739" stop-color="#D4C9E9" stop-opacity="0.474"/>
<stop offset="0.6346" stop-color="#CBBAE2" stop-opacity="0.635"/>
<stop offset="0.7795" stop-color="#BFA5D7" stop-opacity="0.78"/>
<stop offset="0.9126" stop-color="#AF8ACA" stop-opacity="0.913"/>
<stop offset="1" stop-color="#A274BF"/>
</linearGradient>
<linearGradient id="paint71_linear_1669_23342" x1="46.357" y1="55.5031" x2="46.357" y2="59.9058" gradientUnits="userSpaceOnUse">
<stop stop-color="#DBD5EF" stop-opacity="0"/>
<stop offset="0.2853" stop-color="#D9D2EE" stop-opacity="0.285"/>
<stop offset="0.4739" stop-color="#D4C9E9" stop-opacity="0.474"/>
<stop offset="0.6346" stop-color="#CBBAE2" stop-opacity="0.635"/>
<stop offset="0.7795" stop-color="#BFA5D7" stop-opacity="0.78"/>
<stop offset="0.9126" stop-color="#AF8ACA" stop-opacity="0.913"/>
<stop offset="1" stop-color="#A274BF"/>
</linearGradient>
<linearGradient id="paint72_linear_1669_23342" x1="53.6929" y1="40.3707" x2="64.8322" y2="60.044" gradientUnits="userSpaceOnUse">
<stop stop-color="#DBD5EF" stop-opacity="0"/>
<stop offset="0.2853" stop-color="#D9D2EE" stop-opacity="0.285"/>
<stop offset="0.4739" stop-color="#D4C9E9" stop-opacity="0.474"/>
<stop offset="0.6346" stop-color="#CBBAE2" stop-opacity="0.635"/>
<stop offset="0.7795" stop-color="#BFA5D7" stop-opacity="0.78"/>
<stop offset="0.9126" stop-color="#AF8ACA" stop-opacity="0.913"/>
<stop offset="1" stop-color="#A274BF"/>
</linearGradient>
<linearGradient id="paint73_linear_1669_23342" x1="62.699" y1="55.5223" x2="69.2371" y2="55.5223" gradientUnits="userSpaceOnUse">
<stop stop-color="#DBD5EF" stop-opacity="0"/>
<stop offset="0.2853" stop-color="#D9D2EE" stop-opacity="0.285"/>
<stop offset="0.4739" stop-color="#D4C9E9" stop-opacity="0.474"/>
<stop offset="0.6346" stop-color="#CBBAE2" stop-opacity="0.635"/>
<stop offset="0.7795" stop-color="#BFA5D7" stop-opacity="0.78"/>
<stop offset="0.9126" stop-color="#AF8ACA" stop-opacity="0.913"/>
<stop offset="1" stop-color="#A274BF"/>
</linearGradient>
<linearGradient id="paint74_linear_1669_23342" x1="62.2721" y1="55.5031" x2="62.2721" y2="59.9058" gradientUnits="userSpaceOnUse">
<stop stop-color="#DBD5EF" stop-opacity="0"/>
<stop offset="0.2853" stop-color="#D9D2EE" stop-opacity="0.285"/>
<stop offset="0.4739" stop-color="#D4C9E9" stop-opacity="0.474"/>
<stop offset="0.6346" stop-color="#CBBAE2" stop-opacity="0.635"/>
<stop offset="0.7795" stop-color="#BFA5D7" stop-opacity="0.78"/>
<stop offset="0.9126" stop-color="#AF8ACA" stop-opacity="0.913"/>
<stop offset="1" stop-color="#A274BF"/>
</linearGradient>
</defs>
</svg>
