<svg width="25" height="25" viewBox="0 0 25 25" fill="none" xmlns="http://www.w3.org/2000/svg">
<g clip-path="url(#clip0_2351_17537)">
<path d="M23.4516 10.7717L19.0993 3.07154C18.7471 2.44852 18.0838 2.06152 17.3682 2.06152C16.6525 2.06152 15.9892 2.44852 15.637 3.07159L14.9404 4.30398C14.6038 4.14113 14.2558 4.00445 13.8994 3.89438V3.09277C13.8994 1.87487 12.9144 0.889648 11.6963 0.889648C10.4815 0.889648 9.49316 1.87796 9.49316 3.09277V3.89396C6.45562 4.83573 4.24316 7.67162 4.24316 11.0146V15.9586C4.24316 17.0725 3.69018 18.1323 2.74171 18.7642C2.28257 19.0698 1.99316 19.591 1.99316 20.1628C1.99316 21.0891 2.74682 21.8428 3.67316 21.8428H8.05255C8.36338 23.5726 9.87838 24.8896 11.6963 24.8896C13.5142 24.8896 15.0292 23.5726 15.34 21.8428H19.7194C20.6458 21.8428 21.3994 21.0891 21.3994 20.1628C21.3994 19.6014 21.1187 19.0756 20.6512 18.7644C19.7108 18.1377 19.1494 17.0888 19.1494 15.9586V13.5928H21.8056C22.8481 13.5928 23.6963 12.7446 23.6963 11.7021C23.6963 11.3767 23.6116 11.055 23.4516 10.7717ZM10.8994 3.09277C10.8994 2.65337 11.2569 2.2959 11.6963 2.2959C12.137 2.2959 12.4932 2.65201 12.4932 3.09277V3.60446C11.9681 3.54826 11.4415 3.54629 10.8994 3.60418V3.09277ZM11.6963 23.4834C10.6578 23.4834 9.77854 22.7904 9.49546 21.8428H13.8971C13.614 22.7904 12.7348 23.4834 11.6963 23.4834ZM19.8717 19.9348C19.9492 19.9865 19.9932 20.0724 19.9932 20.1628C19.9932 20.3137 19.8704 20.4365 19.7194 20.4365H3.67316C3.46462 20.4365 3.33571 20.2129 3.43115 20.0341C3.45271 19.9938 3.48379 19.9595 3.5211 19.9347C4.84588 19.0523 5.64941 17.5606 5.64941 15.9586V11.0146C5.64941 7.68038 8.36202 4.96777 11.6963 4.96777C12.5823 4.96777 13.452 5.1616 14.2467 5.5314L11.2848 10.7717C11.1247 11.055 11.04 11.3767 11.04 11.7021C11.04 12.7446 11.8882 13.5928 12.9307 13.5928H17.7432V15.9586C17.7432 17.5602 18.5388 19.0466 19.8717 19.9348ZM21.8056 12.1865H12.9307C12.5601 12.1865 12.3273 11.7852 12.509 11.4637L16.8612 3.76355C17.0838 3.36999 17.6524 3.36962 17.8751 3.76351L22.2274 11.4637C22.409 11.7852 22.1763 12.1865 21.8056 12.1865Z" fill="black"/>
<path d="M17.3682 8.71777C17.7565 8.71777 18.0713 8.40296 18.0713 8.01465V6.13965C18.0713 5.75134 17.7565 5.43652 17.3682 5.43652C16.9799 5.43652 16.665 5.75134 16.665 6.13965V8.01465C16.665 8.40296 16.9799 8.71777 17.3682 8.71777Z" fill="#FF4F4F"/>
<path d="M17.3684 10.9682C17.7569 10.9682 18.0718 10.6533 18.0718 10.2649C18.0718 9.87643 17.7569 9.56152 17.3684 9.56152C16.9799 9.56152 16.665 9.87643 16.665 10.2649C16.665 10.6533 16.9799 10.9682 17.3684 10.9682Z" fill="#FF4F4F"/>
</g>
<defs>
<clipPath id="clip0_2351_17537">
<rect width="24" height="24" fill="white" transform="translate(0.0712891 0.889648)"/>
</clipPath>
</defs>
</svg>