<svg width="41" height="40" viewBox="0 0 41 40" fill="none" xmlns="http://www.w3.org/2000/svg">
<g id="FileZip" clip-path="url(#clip0_1522_17477)">
<path id="Vector" d="M10.8585 14.6429H13.7157V17.5H10.8585V14.6429ZM10.8585 23.125V30.2679H16.5728V23.125H13.7157V20.3571H10.8585V23.125ZM14.43 25.2679V28.125H13.0014V25.2679H14.43ZM13.7157 11.7857H16.5728V14.6429H13.7157V11.7857ZM10.8585 8.92857H13.7157V11.7857H10.8585V8.92857ZM13.7157 17.5H16.5728V20.3571H13.7157V17.5ZM13.7157 6.07143H16.5728V8.92857H13.7157V6.07143ZM35.796 10.0268L26.1889 0.419643C25.921 0.151786 25.5594 0 25.18 0H6.21568C5.4255 0 4.78711 0.638393 4.78711 1.42857V38.5714C4.78711 39.3616 5.4255 40 6.21568 40H34.7871C35.5773 40 36.2157 39.3616 36.2157 38.5714V11.0402C36.2157 10.6607 36.0639 10.2946 35.796 10.0268ZM32.921 11.6964H24.5193V3.29464L32.921 11.6964ZM33.0014 36.7857H8.0014V3.21429H10.8585V6.07143H13.7157V3.21429H21.4835V12.8571C21.4835 13.3544 21.6811 13.8313 22.0327 14.183C22.3843 14.5346 22.8613 14.7321 23.3585 14.7321H33.0014V36.7857Z" fill="#FF3A3A"/>
</g>
<defs>
<clipPath id="clip0_1522_17477">
<rect width="40" height="40" fill="white" transform="translate(0.5)"/>
</clipPath>
</defs>
</svg>
