<svg width="141" height="140" viewBox="0 0 141 140" fill="none" xmlns="http://www.w3.org/2000/svg">
<rect x="0.5" width="140" height="140" rx="70" fill="#FFF1F0"/>
<path d="M53.6735 51.0363C53.4491 51.0363 53.2043 50.9955 53.0003 50.8935C52.2048 50.5263 51.858 49.5676 52.2455 48.772L55.9583 40.918C56.2235 40.3672 56.7743 40 57.4067 40H67.5047C68.3819 40 69.0959 40.714 69.0959 41.5912C69.0959 42.4684 68.3819 43.1824 67.5047 43.1824H58.4063L55.1219 50.1184C54.8567 50.6895 54.2855 51.0363 53.6735 51.0363Z" fill="#414753"/>
<path d="M42.1954 48.4219C42.175 48.4219 42.1546 48.4219 42.1138 48.4219V60.5394C42.1342 60.5394 42.1546 60.5394 42.1954 60.5394C45.541 60.5394 48.2541 57.8262 48.2541 54.4806C48.2541 51.1351 45.541 48.4219 42.1954 48.4219Z" fill="#414753"/>
<path d="M37.6109 99.9981C44.2356 99.9981 49.606 94.6277 49.606 88.003C49.606 81.3782 44.2356 76.0078 37.6109 76.0078C30.9861 76.0078 25.6157 81.3782 25.6157 88.003C25.6157 94.6277 30.9861 99.9981 37.6109 99.9981Z" fill="#414753"/>
<path d="M37.612 94.2425C41.0596 94.2425 43.8544 91.4477 43.8544 88.0002C43.8544 84.5526 41.0596 81.7578 37.612 81.7578C34.1644 81.7578 31.3696 84.5526 31.3696 88.0002C31.3696 91.4477 34.1644 94.2425 37.612 94.2425Z" fill="#BDBDBE"/>
<path d="M96.3413 99.9981C102.966 99.9981 108.336 94.6277 108.336 88.003C108.336 81.3782 102.966 76.0078 96.3413 76.0078C89.7166 76.0078 84.3462 81.3782 84.3462 88.003C84.3462 94.6277 89.7166 99.9981 96.3413 99.9981Z" fill="#414753"/>
<path d="M96.3366 94.2425C99.7842 94.2425 102.579 91.4477 102.579 88.0002C102.579 84.5526 99.7842 81.7578 96.3366 81.7578C92.889 81.7578 90.0942 84.5526 90.0942 88.0002C90.0942 91.4477 92.889 94.2425 96.3366 94.2425Z" fill="#BDBDBE"/>
<path d="M102.517 63.7904H72.5294C69.8162 63.7904 67.6131 65.9936 67.6131 68.7068C67.6131 71.012 69.2042 72.9704 71.4482 73.5008C74.9978 74.3372 78.221 76.7036 78.221 79.58C78.221 82.5787 76.4258 85.6591 73.121 85.6591C69.8162 85.6591 51.0687 88.7803 53.0883 73.1744C55.1079 57.5685 58.7799 50.4081 58.7799 50.4081L56.0463 46.3281L48.1515 50.1837L42.0928 65.7896C42.0928 65.7896 27.8741 65.402 25.0181 78.0704C25.0181 78.0704 47.6008 77.1728 50.3547 91.5139H116.838V82.5175C116.838 82.5175 113.533 63.7904 102.517 63.7904Z" fill="#6EB1E1"/>
<path d="M48.5366 86.9453C49.373 88.2713 50.0054 89.7809 50.3522 91.5149H116.835V86.9453H48.5366Z" fill="#4485C5"/>
<path d="M85.6997 63.7967H69.4818C68.8086 63.7967 68.2578 63.2459 68.2578 62.5727V56.6771C68.2578 56.0039 68.8086 55.4531 69.4818 55.4531H85.6997C86.3729 55.4531 86.9237 56.0039 86.9237 56.6771V62.5727C86.9441 63.2459 86.3729 63.7967 85.6997 63.7967Z" fill="#414753"/>
<path d="M104.321 63.7967H90.1024C89.4292 63.7967 88.8784 63.2459 88.8784 62.5727V56.6771C88.8784 56.0039 89.4292 55.4531 90.1024 55.4531H104.321C104.994 55.4531 105.545 56.0039 105.545 56.6771V62.5727C105.545 63.2459 104.994 63.7967 104.321 63.7967Z" fill="#414753"/>
<path d="M112.514 66.343H107.435C106.843 66.343 106.374 65.8738 106.374 65.2822V48.6155C106.374 48.0239 106.843 47.5547 107.435 47.5547H112.514C113.106 47.5547 113.575 48.0239 113.575 48.6155V65.2822C113.575 65.8738 113.086 66.343 112.514 66.343Z" fill="#414753"/>
<path d="M49.4954 88.7609C49.2914 88.1897 48.9854 87.5981 48.5366 86.9453C48.9038 87.5165 49.2098 88.1285 49.4954 88.7609Z" fill="#6EB1E1"/>
<path d="M42.0747 65.806C42.0747 65.806 27.856 65.4184 25 78.0867C25 78.0867 41.9319 77.4339 48.2559 86.5527C38.1783 71.8851 42.0747 65.806 42.0747 65.806Z" fill="#89CBF4"/>
<path d="M26.326 74.4037C25.7752 75.4849 25.3264 76.7089 25 78.0961C25 78.0961 41.9319 77.4433 48.2559 86.5621C45.9711 83.2369 44.4207 80.3809 43.3599 77.9125C37.1583 74.7709 30.2224 74.3425 26.326 74.4037Z" fill="#4485C5"/>
<path d="M102.556 74.3747H86.3586C85.971 74.3747 85.665 74.0687 85.665 73.6811V70.3967C85.665 70.0091 85.971 69.7031 86.3586 69.7031H102.556C102.944 69.7031 103.25 70.0091 103.25 70.3967V73.7015C103.25 74.0687 102.923 74.3747 102.556 74.3747Z" fill="#89CBF4"/>
<path d="M102.556 82.3356H86.3586C85.971 82.3356 85.665 82.0296 85.665 81.642V78.3577C85.665 77.9701 85.971 77.6641 86.3586 77.6641H102.556C102.944 77.6641 103.25 77.9701 103.25 78.3577V81.6624C103.25 82.0296 102.923 82.3356 102.556 82.3356Z" fill="#89CBF4"/>
</svg>
