<svg width="141" height="140" viewBox="0 0 141 140" fill="none" xmlns="http://www.w3.org/2000/svg">
<rect x="0.5" width="140" height="140" rx="70" fill="#FFF1F0"/>
<path d="M28.9431 73.4961H86.6387V82.6749H28.9431V73.4961Z" fill="#5B5E5E"/>
<path d="M42.7405 75.6367C45.4286 75.6367 47.1988 78.6526 46.6415 82.3569C46.0842 86.0613 43.4617 89.0772 40.7736 89.0772H36.512C36.3481 88.2248 36.7414 83.3732 36.8726 82.3569C37.3971 78.6526 40.0196 75.6367 42.7405 75.6367Z" fill="#2A2B2A"/>
<path d="M39.3644 75.6367C42.0525 75.6367 44.4784 78.6526 44.8062 82.3569C45.1013 86.0613 43.1671 89.0772 40.4463 89.0772H36.1846C35.824 88.2248 35.1029 83.3732 35.0373 82.3569C34.7095 78.6526 36.6436 75.6367 39.3644 75.6367Z" fill="#5B5E5E"/>
<path d="M30.8 83.048C30.2309 79.362 31.8582 76.0514 34.4348 75.6536C37.0114 75.2557 39.5615 77.9213 40.1306 81.6073C40.6998 85.2932 39.0724 88.6038 36.4958 89.0016C33.9192 89.3994 31.3691 86.7339 30.8 83.048Z" fill="#2A2B2A"/>
<path d="M32.4884 82.7896C32.1265 80.4456 33.1676 78.3394 34.8137 78.0852C36.4599 77.831 38.0877 79.5252 38.4497 81.8691C38.8116 84.2131 37.7705 86.3193 36.1244 86.5735C34.4782 86.8277 32.8504 85.1336 32.4884 82.7896Z" fill="#F3F1ED"/>
<path d="M87.3245 75.6367C90.0126 75.6367 91.7828 78.6526 91.2255 82.3569C90.6682 86.0613 88.0457 89.0772 85.3576 89.0772H81.096C80.9321 88.2248 81.3254 83.3732 81.4566 82.3569C81.9811 78.6526 84.6036 75.6367 87.3245 75.6367Z" fill="#2A2B2A"/>
<path d="M83.9484 75.6367C86.6365 75.6367 89.0624 78.6526 89.3902 82.3569C89.6852 86.0613 87.7511 89.0772 85.0302 89.0772H80.7686C80.408 88.2248 79.6868 83.3732 79.6213 82.3569C79.2935 78.6526 81.2276 75.6367 83.9484 75.6367Z" fill="#5B5E5E"/>
<path d="M75.3893 83.048C74.8202 79.362 76.4476 76.0514 79.0241 75.6536C81.6007 75.2557 84.1508 77.9213 84.72 81.6073C85.2891 85.2932 83.6617 88.6038 81.0852 89.0016C78.5086 89.3994 75.9585 86.7339 75.3893 83.048Z" fill="#2A2B2A"/>
<path d="M77.0709 82.7896C76.709 80.4456 77.7501 78.3394 79.3962 78.0852C81.0424 77.831 82.6703 79.5252 83.0322 81.8691C83.3941 84.2131 82.353 86.3193 80.7069 86.5735C79.0607 86.8277 77.4329 85.1336 77.0709 82.7896Z" fill="#F3F1ED"/>
<path d="M65.8865 75.6406C68.968 75.6406 71.4594 78.6565 71.4922 82.3609C71.4922 86.0652 69.0008 89.0811 65.8865 89.0811H61.0021C60.6743 88.2288 60.3137 83.3771 60.3137 82.3609C60.2809 78.6565 62.8051 75.6406 65.8865 75.6406Z" fill="#5B5E5E"/>
<path d="M60.3779 75.6406C63.3611 75.6406 66.0164 78.6565 66.3442 82.3609C66.672 86.0652 64.5412 89.0811 61.5581 89.0811C58.5749 89.0811 55.9196 86.0652 55.5918 82.3609C55.264 78.6565 57.3948 75.6406 60.3779 75.6406Z" fill="#2A2B2A"/>
<path d="M109.552 75.6406C112.535 75.6406 115.19 78.6565 115.518 82.3609C115.846 86.0652 113.715 89.0811 110.732 89.0811H106.044C105.651 88.2288 104.864 83.3771 104.766 82.3609C104.438 78.6565 106.569 75.6406 109.552 75.6406Z" fill="#5B5E5E"/>
<path d="M104.959 75.6406C107.942 75.6406 110.597 78.6565 110.925 82.3609C111.253 86.0652 109.122 89.0811 106.139 89.0811C103.156 89.0811 100.5 86.0652 100.172 82.3609C99.8445 78.6565 101.975 75.6406 104.959 75.6406Z" fill="#2A2B2A"/>
<path d="M18.2856 63.6748L34.0208 50.2344H85.8157L104.272 62.3636L123.416 66.3957L124.072 68.6904L121.22 82.6881H86.4057L83.8816 74.6567H75.6862L73.3587 82.6881H41.6589L39.2986 74.9845H31.431L29.0379 82.6881H19.2691L16.9743 68.5921L18.2856 63.6748Z" fill="#E3E1DC"/>
<path d="M19.2705 82.6871L18.5166 78.0977L69.787 61.543L73.0651 62.1986H76.0155L92.4062 66.1324L91.095 69.0827L90.0132 82.6871H86.4072L83.883 74.6556H75.6876L73.3602 82.6871H41.6603L39.3001 74.9834H31.4325L29.0394 82.6871H19.2705Z" fill="#F3F1ED"/>
<path d="M52.6101 62.2007H73.5903L64.7393 51.3828H54.9048L52.6101 62.2007Z" fill="#0D2241"/>
<path d="M51.2984 62.2007H29.9903L38.1857 51.3828H53.9209L51.2984 62.2007Z" fill="#0D2241"/>
<path d="M101.456 61.2173H76.6727L68.0183 51.3828H86.7039L101.456 61.2173Z" fill="#0D2241"/>
<mask id="mask0_1027_12000" style="mask-type:luminance" maskUnits="userSpaceOnUse" x="66" y="51" width="34" height="11">
<path d="M66.7691 51.3828H85.4546L99.5835 61.2173H76.3086L66.7691 51.3828Z" fill="white"/>
</mask>
<g mask="url(#mask0_1027_12000)">
<path d="M66.1806 49.7461L88.4721 61.8753H90.8979L69.8194 50.0739L66.1806 49.7461Z" fill="#484A71"/>
</g>
<mask id="mask1_1027_12000" style="mask-type:luminance" maskUnits="userSpaceOnUse" x="67" y="51" width="33" height="11">
<path d="M67.4248 51.3828H86.1103L99.5835 61.2173H76.3086L67.4248 51.3828Z" fill="white"/>
</mask>
<g mask="url(#mask1_1027_12000)">
<path d="M95.8105 61.6457L73.978 49.582L69.1919 50.0082L93.8764 63.842L95.8105 61.6457Z" fill="#313155"/>
</g>
<path d="M34.0527 52.0352L23.7265 59.0176L31.9219 52.0352H34.0527Z" fill="#0D2241"/>
<mask id="mask2_1027_12000" style="mask-type:luminance" maskUnits="userSpaceOnUse" x="16" y="50" width="109" height="33">
<path d="M18.2837 63.6748L34.0188 50.2344H85.8137L104.27 62.3636L123.414 66.3957L124.07 68.6904L121.218 82.6881H86.4038L83.8796 74.6567H75.6842L73.3567 82.6881H41.6569L39.2967 74.9845H31.4291L29.036 82.6881H19.2671L16.9724 68.5921L18.2837 63.6748Z" fill="white"/>
</mask>
<g mask="url(#mask2_1027_12000)">
<path d="M115.678 72.3635H99.2875L98.3041 68.4297H117.317L115.678 72.3635Z" fill="#2A2B2A"/>
</g>
<mask id="mask3_1027_12000" style="mask-type:luminance" maskUnits="userSpaceOnUse" x="16" y="50" width="109" height="33">
<path d="M18.2837 63.6748L34.0188 50.2344H85.8137L104.27 62.3636L123.414 66.3957L124.07 68.6904L121.218 82.6881H86.4038L83.8796 74.6567H75.6842L73.3567 82.6881H41.6569L39.2967 74.9845H31.4291L29.036 82.6881H19.2671L16.9724 68.5921L18.2837 63.6748Z" fill="white"/>
</mask>
<g mask="url(#mask3_1027_12000)">
<path d="M22.251 66.793H16.2192L16.4487 68.432H21.8904L22.251 66.793Z" fill="#FFEDCC"/>
</g>
<mask id="mask4_1027_12000" style="mask-type:luminance" maskUnits="userSpaceOnUse" x="16" y="50" width="109" height="33">
<path d="M18.2837 63.6748L34.0188 50.2344H85.8137L104.27 62.3636L123.414 66.3957L124.07 68.6904L121.218 82.6881H86.4038L83.8796 74.6567H75.6842L73.3567 82.6881H41.6569L39.2967 74.9845H31.4291L29.036 82.6881H19.2671L16.9724 68.5921L18.2837 63.6748Z" fill="white"/>
</mask>
<g mask="url(#mask4_1027_12000)">
<path d="M21.9219 68.4297H15.3L15.9556 73.0191H20.9384L21.9219 68.4297Z" fill="#AD2024"/>
</g>
<mask id="mask5_1027_12000" style="mask-type:luminance" maskUnits="userSpaceOnUse" x="16" y="50" width="109" height="33">
<path d="M18.2837 63.6748L34.0188 50.2344H85.8137L104.27 62.3636L123.414 66.3957L124.07 68.6904L121.218 82.6881H86.4038L83.8796 74.6567H75.6842L73.3567 82.6881H41.6569L39.2967 74.9845H31.4291L29.036 82.6881H19.2671L16.9724 68.5921L18.2837 63.6748Z" fill="white"/>
</mask>
<g mask="url(#mask5_1027_12000)">
<path d="M97.3183 73.0191H84.8613L84.5335 68.4297H98.3018L97.3183 73.0191Z" fill="#FFEDCC"/>
</g>
<mask id="mask6_1027_12000" style="mask-type:luminance" maskUnits="userSpaceOnUse" x="16" y="50" width="109" height="33">
<path d="M18.2837 63.6748L34.0188 50.2344H85.8137L104.27 62.3636L123.414 66.3957L124.07 68.6904L121.218 82.6881H86.4038L83.8796 74.6567H75.6842L73.3567 82.6881H41.6569L39.2967 74.9845H31.4291L29.036 82.6881H19.2671L16.9724 68.5921L18.2837 63.6748Z" fill="white"/>
</mask>
<g mask="url(#mask6_1027_12000)">
<path d="M116.99 73.0191L115.35 72.3635L117.317 68.4297L116.99 73.0191Z" fill="#EE9B74"/>
</g>
<mask id="mask7_1027_12000" style="mask-type:luminance" maskUnits="userSpaceOnUse" x="16" y="50" width="109" height="33">
<path d="M18.2837 63.6748L34.0188 50.2344H85.8137L104.27 62.3636L123.414 66.3957L124.07 68.6904L121.218 82.6881H86.4038L83.8796 74.6567H75.6842L73.3567 82.6881H41.6569L39.2967 74.9845H31.4291L29.036 82.6881H19.2671L16.9724 68.5921L18.2837 63.6748Z" fill="white"/>
</mask>
<g mask="url(#mask7_1027_12000)">
<path d="M97.3236 73.0191L99.2905 72.3635L98.3071 68.4297L97.3236 73.0191Z" fill="#EE9B74"/>
</g>
<mask id="mask8_1027_12000" style="mask-type:luminance" maskUnits="userSpaceOnUse" x="16" y="50" width="109" height="33">
<path d="M18.2837 63.6748L34.0188 50.2344H85.8137L104.27 62.3636L123.414 66.3957L124.07 68.6904L121.218 82.6881H86.4038L83.8796 74.6567H75.6842L73.3567 82.6881H41.6569L39.2967 74.9845H31.4291L29.036 82.6881H19.2671L16.9724 68.5921L18.2837 63.6748Z" fill="white"/>
</mask>
<g mask="url(#mask8_1027_12000)">
<path d="M129.444 73.0191H116.987L117.315 68.4297H130.428L129.444 73.0191Z" fill="#FFEDCC"/>
</g>
<mask id="mask9_1027_12000" style="mask-type:luminance" maskUnits="userSpaceOnUse" x="16" y="50" width="109" height="33">
<path d="M18.2837 63.6748L34.0188 50.2344H85.8137L104.27 62.3636L123.414 66.3957L124.07 68.6904L121.218 82.6881H86.4038L83.8796 74.6567H75.6842L73.3567 82.6881H41.6569L39.2967 74.9845H31.4291L29.036 82.6881H19.2671L16.9724 68.5921L18.2837 63.6748Z" fill="white"/>
</mask>
<g mask="url(#mask9_1027_12000)">
<path d="M99.9428 69.6094H115.35L114.76 71.0518H100.303L99.9428 69.6094Z" fill="#5B5E5E"/>
</g>
<path d="M67.8209 62.1985L69.46 58.2647L65.854 57.2812L62.5758 58.2647C62.5758 58.2647 62.5758 60.8872 63.5593 60.8872H67.1653L66.8374 62.1985H67.8209Z" fill="#E3E1DC"/>
<path d="M68.4765 60.8911H67.1652L68.4437 58.0391L69.46 58.2685L68.4765 60.8911Z" fill="#C0BDBA"/>
</svg>
