<svg width="21" height="21" viewBox="0 0 21 21" fill="none" xmlns="http://www.w3.org/2000/svg">
<path d="M18.5302 5.27578C18.0889 4.25831 17.4527 3.33708 16.6575 2.56406C15.8597 1.78406 14.9191 1.16498 13.8872 0.740625C12.8138 0.295312 11.6747 0.0703125 10.5005 0.0703125C9.32627 0.0703125 8.18721 0.295313 7.11377 0.738281C6.07549 1.16719 5.14502 1.78125 4.34346 2.56172C3.54874 3.33517 2.91263 4.2563 2.4708 5.27344C2.01377 6.32812 1.78174 7.44844 1.78174 8.60156C1.78174 10.2562 2.17783 11.9039 2.95596 13.493C3.58174 14.7703 4.45596 16.0148 5.55752 17.1984C7.43955 19.2187 9.41299 20.4539 9.97314 20.7844C10.1321 20.8783 10.3135 20.9277 10.4981 20.9273C10.681 20.9273 10.8614 20.8805 11.0231 20.7844C11.5833 20.4539 13.5567 19.2187 15.4388 17.1984C16.5403 16.0172 17.4146 14.7703 18.0403 13.493C18.8231 11.9063 19.2192 10.2609 19.2192 8.60391C19.2192 7.45078 18.9872 6.33047 18.5302 5.27578ZM10.5005 19.1297C8.95596 18.1477 3.46924 14.2594 3.46924 8.60391C3.46924 6.77813 4.19814 5.0625 5.52236 3.76875C6.85127 2.47266 8.61846 1.75781 10.5005 1.75781C12.3825 1.75781 14.1497 2.47266 15.4786 3.77109C16.8028 5.0625 17.5317 6.77813 17.5317 8.60391C17.5317 14.2594 12.045 18.1477 10.5005 19.1297ZM10.5005 4.66406C8.22236 4.66406 6.37549 6.51094 6.37549 8.78906C6.37549 11.0672 8.22236 12.9141 10.5005 12.9141C12.7786 12.9141 14.6255 11.0672 14.6255 8.78906C14.6255 6.51094 12.7786 4.66406 10.5005 4.66406ZM12.3567 10.6453C12.1133 10.8895 11.8239 11.0831 11.5054 11.215C11.1868 11.347 10.8453 11.4146 10.5005 11.4141C9.79971 11.4141 9.14111 11.1398 8.64424 10.6453C8.40007 10.4018 8.20646 10.1125 8.07453 9.79394C7.94259 9.47538 7.87495 9.13387 7.87549 8.78906C7.87549 8.08828 8.14971 7.42969 8.64424 6.93281C9.14111 6.43594 9.79971 6.16406 10.5005 6.16406C11.2013 6.16406 11.8599 6.43594 12.3567 6.93281C12.8536 7.42969 13.1255 8.08828 13.1255 8.78906C13.1255 9.48984 12.8536 10.1484 12.3567 10.6453Z" fill="#7B7B7B" fill-opacity="0.85"/>
</svg>
