<svg width="18" height="19" viewBox="0 0 18 19" fill="none" xmlns="http://www.w3.org/2000/svg">
<path d="M6.75 7.25H6.7575M11.25 11.75H11.2575M12 6.5L6 12.5M7.125 7.25C7.125 7.45711 6.95711 7.625 6.75 7.625C6.54289 7.625 6.375 7.45711 6.375 7.25C6.375 7.04289 6.54289 6.875 6.75 6.875C6.95711 6.875 7.125 7.04289 7.125 7.25ZM11.625 11.75C11.625 11.9571 11.4571 12.125 11.25 12.125C11.0429 12.125 10.875 11.9571 10.875 11.75C10.875 11.5429 11.0429 11.375 11.25 11.375C11.4571 11.375 11.625 11.5429 11.625 11.75ZM16.5 9.5C16.5 13.6421 13.1421 17 9 17C4.85786 17 1.5 13.6421 1.5 9.5C1.5 5.35786 4.85786 2 9 2C13.1421 2 16.5 5.35786 16.5 9.5Z" stroke="#FF3A3A" stroke-width="1.5" stroke-linecap="round" stroke-linejoin="round"/>
</svg>
