<svg width="141" height="140" viewBox="0 0 141 140" fill="none" xmlns="http://www.w3.org/2000/svg">
<rect x="0.5" width="140" height="140" rx="70" fill="#FFF1F0"/>
<path d="M37.0724 46.1562L35.0415 78.5964L58.6852 78.618L61.3832 56.1311L54.1537 46.1562H37.0724Z" fill="#C1BEBB"/>
<path d="M37.0724 46.1562L35.0415 78.5964L58.6852 78.618L61.3832 56.1311L54.1537 46.1562H37.0724Z" fill="#C1BEBB"/>
<path d="M37.0724 46.1562L35.0415 78.5964L58.6852 78.618L61.3832 56.1311L54.1537 46.1562H37.0724Z" fill="#F8BB1C"/>
<path d="M35.0415 78.6139H50.8345L35.9721 63.8594L35.0415 78.6139Z" fill="#FCD157"/>
<path d="M59.9099 59.3897L37.6411 59.3826L38.3962 47.8438H53.3925L60.595 58.03L59.9099 59.3897Z" fill="#313156"/>
<g opacity="0.3">
<path d="M38.388 47.8508L37.6343 59.3835L59.9003 59.391L60.5935 58.0276L53.3924 47.8359L38.388 47.8508Z" fill="#0A1723"/>
</g>
<path d="M37.6774 66.4347H35.7896L35.9796 64.5469H37.6774V66.4347Z" fill="#2A2B2A"/>
<path d="M39.5724 66.4453H37.6846V68.3332H39.5724V66.4453Z" fill="#2A2B2A"/>
<path d="M41.4616 64.5469H39.5737V66.4347H41.4616V64.5469Z" fill="#2A2B2A"/>
<path d="M43.3566 66.4453H41.4688V68.3332H43.3566V66.4453Z" fill="#2A2B2A"/>
<path d="M45.2458 64.5469H43.3579V66.4347H45.2458V64.5469Z" fill="#2A2B2A"/>
<path d="M47.1408 66.4453H45.2529V68.3332H47.1408V66.4453Z" fill="#2A2B2A"/>
<path d="M49.0236 64.5469H47.1357V66.4347H49.0236V64.5469Z" fill="#2A2B2A"/>
<path d="M50.925 66.4453H49.0371V68.3332H50.925V66.4453Z" fill="#2A2B2A"/>
<path d="M52.8136 64.5469H50.9258V66.4347H52.8136V64.5469Z" fill="#2A2B2A"/>
<path d="M54.7087 66.4453H52.8208V68.3332H54.7087V66.4453Z" fill="#2A2B2A"/>
<path d="M56.5856 64.5469H54.6978V66.4347H56.5856V64.5469Z" fill="#2A2B2A"/>
<path d="M58.487 66.4453H56.5991V68.3332H58.487V66.4453Z" fill="#2A2B2A"/>
<path d="M37.6774 66.4374H35.7896L35.9187 64.5469L36.6613 64.5496L37.6774 65.5603V66.4374Z" fill="#5D5F60"/>
<path d="M39.5724 68.3332H37.6846V66.4453H38.5675L39.5724 67.4388V68.3332Z" fill="#5D5F60"/>
<path d="M63.2245 56.8995L62.4396 56.1086L62.0139 53.8359L56.8535 54.7361L57.8003 57.1974L62.4163 58.0259L63.2245 56.8995Z" fill="#FCD157"/>
<path d="M59.3281 57.4575L61.567 53.9063L62.0055 53.8359L62.4346 56.1005L63.1985 56.8393L62.4117 58.0208L59.3281 57.4575Z" fill="#F8BB1C"/>
<path d="M99.9741 56.0689L99.189 56.8601L99.9971 57.9861L104.613 57.1577L105.56 54.6963L100.4 53.7969L99.9741 56.0689Z" fill="#FCD157"/>
<path d="M103.079 57.436L100.833 53.875L100.395 53.8047L99.9655 56.0692L99.2017 56.8081L99.9885 57.9896L103.079 57.436Z" fill="#F8BB1C"/>
<path d="M97.1415 85.7538H103.675L104.243 79.1491L95.792 79.0781L97.1415 85.7538Z" fill="#5C5E5F"/>
<path d="M95.1182 79.0781L97.1443 85.7538L97.4284 79.0781H95.1182Z" fill="#2A2B2A"/>
<path d="M58.7612 79.2198L59.329 85.7531H65.8724L67.2124 79.1484L58.7612 79.2198Z" fill="#5C5E5F"/>
<path d="M65.5874 79.1484L65.8813 85.7531L67.8979 79.1484H65.5874Z" fill="#2A2B2A"/>
<path d="M66.7772 45.4766L57.4766 64.4468L58.7602 79.2909L103.61 79.1323L104.25 79.13L105.101 64.3555L95.5934 45.4766H66.7772Z" fill="#FCD157"/>
<path d="M94.4149 46.8594H67.828L63.2056 57.0101H99.6997L94.4149 46.8594Z" fill="#313156"/>
<g opacity="0.3">
<path d="M94.4061 46.8594H80.1294L90.2436 57.0104H99.7035L94.4061 46.8594Z" fill="#0F2342"/>
</g>
<g opacity="0.3">
<path d="M67.8205 46.8594L63.2119 57.0104H79.2751L69.0567 46.8594H67.8205Z" fill="#0A1723"/>
</g>
<path d="M79.0888 57.0101H81.7009L71.8559 46.8594H69.0537L79.0888 57.0101Z" fill="#494A72"/>
<path d="M105.107 64.6226L94.9502 64.6094L95.3056 69.5162L104.814 69.5256L105.107 64.6226Z" fill="#F6F1E1"/>
<path d="M95.3035 69.5162L92.3877 68.9474L94.9478 64.6094L95.3035 69.5162Z" fill="#EF9C74"/>
<path d="M57.4893 64.6226L67.5183 64.6094L67.1625 69.5162L57.9163 69.5114L57.4893 64.6226Z" fill="#F6F1E1"/>
<path d="M67.1646 69.5162L69.4876 68.9474L67.5203 64.6094L67.1646 69.5162Z" fill="#EF9C74"/>
<path d="M69.4735 68.9403H92.3709L94.9421 64.6016L67.5322 64.6161L69.4735 68.9403Z" fill="#2A2B2A"/>
<path d="M92.6339 65.8984L91.7574 67.343L70.1034 67.3244L69.4521 65.9935L92.6339 65.8984Z" fill="#5C5E5F"/>
<path d="M76.254 45.4725H84.9937L84.3174 43H77.2411C77.2411 43 76.2402 45.4914 76.254 45.4725Z" fill="#F6F1E2"/>
<path d="M77.7437 45.4817H83.5328L83.0847 43.8438H78.3977C78.3977 43.8438 77.7346 45.4942 77.7437 45.4817Z" fill="#2A2B2A"/>
<path d="M112.585 85.7188H28V96.9967H112.585V85.7188Z" fill="#292B29"/>
</svg>
