<svg width="15" height="17" viewBox="0 0 20 22" fill="none" xmlns="http://www.w3.org/2000/svg">
<path fill-rule="evenodd" clip-rule="evenodd" d="M1.65984 1.80046C0.429687 3.03062 0.429688 5.01051 0.429688 8.97031V13.1703C0.429688 17.1301 0.429687 19.1101 1.65984 20.3401C2.89 21.5703 4.86989 21.5703 8.82969 21.5703H10.9297C14.8895 21.5703 16.8694 21.5703 18.0995 20.3401C19.3297 19.1101 19.3297 17.1301 19.3297 13.1703V8.97031C19.3297 5.01051 19.3297 3.03062 18.0995 1.80046C16.8694 0.570313 14.8895 0.570312 10.9297 0.570312H8.82969C4.86989 0.570312 2.89 0.570313 1.65984 1.80046ZM4.89219 6.87031C4.89219 6.43539 5.24477 6.08281 5.67969 6.08281H14.0797C14.5146 6.08281 14.8672 6.43539 14.8672 6.87031C14.8672 7.30523 14.5146 7.65781 14.0797 7.65781H5.67969C5.24477 7.65781 4.89219 7.30523 4.89219 6.87031ZM4.89219 11.0703C4.89219 10.6354 5.24477 10.2828 5.67969 10.2828H14.0797C14.5146 10.2828 14.8672 10.6354 14.8672 11.0703C14.8672 11.5052 14.5146 11.8578 14.0797 11.8578H5.67969C5.24477 11.8578 4.89219 11.5052 4.89219 11.0703ZM5.67969 14.4828C5.24477 14.4828 4.89219 14.8354 4.89219 15.2703C4.89219 15.7052 5.24477 16.0578 5.67969 16.0578H10.9297C11.3646 16.0578 11.7172 15.7052 11.7172 15.2703C11.7172 14.8354 11.3646 14.4828 10.9297 14.4828H5.67969Z" fill="#707991"/>
</svg>
