<svg width="80" height="80" viewBox="0 0 80 80" fill="none" xmlns="http://www.w3.org/2000/svg">
<path d="M39.9632 6.62891C21.5965 6.62891 6.62988 21.5956 6.62988 39.9622C6.62988 58.3289 21.5965 73.2956 39.9632 73.2956C58.3299 73.2956 73.2966 58.3289 73.2966 39.9622C73.2966 21.5956 58.3299 6.62891 39.9632 6.62891ZM54.4632 51.8622C53.9966 52.6622 53.1632 53.0956 52.2966 53.0956C51.8632 53.0956 51.4299 52.9956 51.0299 52.7289L40.6966 46.5622C38.1299 45.0289 36.2299 41.6622 36.2299 38.6956V25.0289C36.2299 23.6622 37.3632 22.5289 38.7299 22.5289C40.0966 22.5289 41.2299 23.6622 41.2299 25.0289V38.6956C41.2299 39.8956 42.2299 41.6622 43.2632 42.2622L53.5966 48.4289C54.7966 49.1289 55.1966 50.6622 54.4632 51.8622Z" fill="#FFC53D"/>
</svg>
