<svg width="22" height="23" viewBox="0 0 24 25" fill="none" xmlns="http://www.w3.org/2000/svg">
<path d="M3.9889 15.1585L2.46891 13.6385C1.84891 13.0185 1.84891 11.9985 2.46891 11.3785L3.9889 9.85843C4.2489 9.59843 4.4589 9.08843 4.4589 8.72843V6.5784C4.4589 5.6984 5.1789 4.97843 6.0589 4.97843H8.2089C8.5689 4.97843 9.0789 4.76846 9.3389 4.50846L10.8589 2.98844C11.4789 2.36844 12.4989 2.36844 13.1189 2.98844L14.6389 4.50846C14.8989 4.76846 15.4089 4.97843 15.7689 4.97843H17.9189C18.7989 4.97843 19.5189 5.6984 19.5189 6.5784V8.72843C19.5189 9.08843 19.7289 9.59843 19.9889 9.85843L21.5089 11.3785C22.1289 11.9985 22.1289 13.0185 21.5089 13.6385L19.9889 15.1585C19.7289 15.4185 19.5189 15.9285 19.5189 16.2885V18.4384C19.5189 19.3184 18.7989 20.0385 17.9189 20.0385H15.7689C15.4089 20.0385 14.8989 20.2485 14.6389 20.5085L13.1189 22.0285C12.4989 22.6485 11.4789 22.6485 10.8589 22.0285L9.3389 20.5085C9.0789 20.2485 8.5689 20.0385 8.2089 20.0385H6.0589C5.1789 20.0385 4.4589 19.3184 4.4589 18.4384V16.2885C4.4589 15.9185 4.2489 15.4085 3.9889 15.1585Z" stroke="#028700" stroke-width="1.5" stroke-linecap="round" stroke-linejoin="round"/>
<path d="M9 15.5L15 9.5" stroke="#028700" stroke-width="1.5" stroke-linecap="round" stroke-linejoin="round"/>
<path d="M14.4945 15H14.5035" stroke="#028700" stroke-width="2" stroke-linecap="round" stroke-linejoin="round"/>
<path d="M9.49451 10H9.50349" stroke="#028700" stroke-width="2" stroke-linecap="round" stroke-linejoin="round"/>
</svg>
