<svg width="16" height="16" viewBox="0 0 16 16" fill="none" xmlns="http://www.w3.org/2000/svg">
<g clip-path="url(#clip0_2_27978)">
<path d="M8.97472 7.99963L8.97439 7.99918L8.97368 7.99819L6.37862 6.12061C6.23055 6.01357 6.14314 5.84053 6.14314 5.65856V4.82106C6.14305 4.79478 6.15024 4.76899 6.16392 4.74655C6.17759 4.72411 6.19721 4.70589 6.2206 4.69392C6.244 4.68195 6.27025 4.67669 6.29645 4.67872C6.32265 4.68075 6.34777 4.69 6.36904 4.70544L10.7619 7.88401C10.8402 7.94093 10.8402 8.05833 10.7619 8.11525L6.36904 11.2938C6.27477 11.3614 6.14314 11.2938 6.14314 11.1782V10.3407C6.14314 10.157 6.23055 9.98569 6.37862 9.87866L8.97505 8.00008L8.97472 7.99963ZM0.000558036 8C0.000558036 3.58245 3.58245 0.000558036 8 0.000558036C12.4176 0.000558036 15.9994 3.58245 15.9994 8C15.9994 12.4176 12.4176 15.9994 8 15.9994C3.58245 15.9994 0.000558036 12.4176 0.000558036 8ZM1.35658 8C1.35658 11.6682 4.33184 14.6434 8 14.6434C11.6682 14.6434 14.6434 11.6682 14.6434 8C14.6434 4.33184 11.6682 1.35658 8 1.35658C4.33184 1.35658 1.35658 4.33184 1.35658 8Z" fill="black" stroke="black" stroke-width="0.00111607"/>
</g>
<defs>
<clipPath id="clip0_2_27978">
<rect width="16" height="16" fill="white"/>
</clipPath>
</defs>
</svg>
