<svg width="133" height="140" viewBox="0 0 163 170" fill="none" xmlns="http://www.w3.org/2000/svg">
<g clip-path="url(#clip0_33046_24250)">
<path d="M120.606 12.1738H33.0717C29.987 12.1738 27.4844 14.6765 27.4844 17.7611V95.2849C27.4844 98.3696 29.987 100.872 33.0717 100.872H120.606C123.691 100.872 126.193 98.3696 126.193 95.2849V17.7611C126.193 14.6765 123.691 12.1738 120.606 12.1738Z" fill="#F4F4F4"/>
<path d="M38.659 32.8937V95.2852C38.659 98.371 36.1575 100.872 33.0717 100.872C29.9859 100.872 27.4844 98.371 27.4844 95.2852V31.0312H36.7965C37.8251 31.0312 38.659 31.8652 38.659 32.8937Z" fill="#E8EBF2"/>
<path d="M126.193 17.7611V31.031H27.4844V17.7611C27.4844 14.6765 29.987 12.1738 33.0717 12.1738H120.606C123.691 12.1738 126.193 14.6765 126.193 17.7611Z" fill="#E0E2EE"/>
<path d="M120.62 19.3908H44.2463C41.1605 19.3908 38.659 21.8922 38.659 24.9781V29.1685C38.659 30.1971 37.8251 31.031 36.7965 31.031H27.4844V17.7611C27.4844 14.6753 29.9859 12.1738 33.0717 12.1738H120.606C125.568 12.1738 125.316 19.3908 120.62 19.3908Z" fill="#E8EBF2"/>
<path d="M69.1601 12.1738H65.4352C65.4352 7.68068 61.7802 4.02565 57.2871 4.02565C52.794 4.02565 49.1389 7.68068 49.1389 12.1738C49.1389 16.6669 52.794 20.322 57.2871 20.322C58.3161 20.322 59.1495 21.1554 59.1495 22.1844C59.1495 23.2134 58.3161 24.0468 57.2871 24.0468C50.7406 24.0468 45.4141 18.7203 45.4141 12.1738C45.4141 5.62735 50.7406 0.300781 57.2871 0.300781C63.8335 0.300781 69.1601 5.62735 69.1601 12.1738Z" fill="#CECED3"/>
<path d="M108.269 12.1738H104.545C104.545 7.68068 100.89 4.02565 96.3965 4.02565C91.9033 4.02565 88.2483 7.68068 88.2483 12.1738C88.2483 16.6669 91.9033 20.322 96.3965 20.322C97.4255 20.322 98.2589 21.1554 98.2589 22.1844C98.2589 23.2134 97.4255 24.0468 96.3965 24.0468C89.85 24.0468 84.5234 18.7203 84.5234 12.1738C84.5234 5.62735 89.85 0.300781 96.3965 0.300781C102.943 0.300781 108.269 5.62735 108.269 12.1738Z" fill="#CECED3"/>
<path d="M112.233 72.0048V85.2747C112.233 87.3327 110.567 88.9995 108.509 88.9995H105.948C103.89 88.9995 102.223 87.3327 102.223 85.2747V78.7562H51.4715V85.2747C51.4715 87.3327 49.8046 88.9995 47.7467 88.9995H45.1858C43.1278 88.9995 41.4609 87.3327 41.4609 85.2747V46.6292C41.4609 44.5712 43.1278 42.9043 45.1858 42.9043H47.7467C49.8046 42.9043 51.4715 44.5712 51.4715 46.6292V68.28H108.509C110.567 68.28 112.233 69.9468 112.233 72.0048Z" fill="#E0E2EE"/>
<path d="M106.411 64.3217V68.2793H51.4688V64.3217C51.4688 61.237 53.9714 58.7344 57.0561 58.7344H100.823C103.908 58.7344 106.411 61.237 106.411 64.3217Z" fill="#CECED3"/>
<g filter="url(#filter0_d_33046_24250)">
<path d="M113.162 110.3C125.505 110.3 135.511 100.294 135.511 87.9508C135.511 75.6076 125.505 65.6016 113.162 65.6016C100.819 65.6016 90.8125 75.6076 90.8125 87.9508C90.8125 100.294 100.819 110.3 113.162 110.3Z" fill="url(#paint0_linear_33046_24250)"/>
</g>
<path d="M115.794 87.8354L121.344 82.2846C122.072 81.5574 122.072 80.3782 121.344 79.6509C120.617 78.9236 119.438 78.9236 118.711 79.6509L113.16 85.2017L107.609 79.6509C106.882 78.9236 105.703 78.9236 104.975 79.6509C104.248 80.3782 104.248 81.5574 104.975 82.2846L110.526 87.8354L104.975 93.3861C104.248 94.1134 104.248 95.2926 104.975 96.0199C105.703 96.7474 106.882 96.7471 107.609 96.0199L113.16 90.4691L118.711 96.0199C119.438 96.7474 120.617 96.7471 121.344 96.0199C122.072 95.2926 122.072 94.1134 121.344 93.3861L115.794 87.8354Z" fill="white"/>
</g>
<path d="M2.29932 148.793H6.771C7.78532 148.793 8.64193 148.948 9.34082 149.257C10.0459 149.566 10.5809 150.024 10.9458 150.63C11.3169 151.23 11.5024 151.969 11.5024 152.847C11.5024 153.466 11.3757 154.032 11.1221 154.545C10.8747 155.052 10.516 155.485 10.0459 155.844C9.58203 156.196 9.02539 156.459 8.37598 156.632L7.875 156.827H3.67236L3.65381 155.371H6.82666C7.46989 155.371 8.00488 155.259 8.43164 155.037C8.8584 154.808 9.18001 154.502 9.39648 154.118C9.61296 153.735 9.72119 153.311 9.72119 152.847C9.72119 152.328 9.61914 151.873 9.41504 151.483C9.21094 151.094 8.88932 150.794 8.4502 150.583C8.01725 150.367 7.45752 150.259 6.771 150.259H4.08984V162.301H2.29932V148.793ZM10.1943 162.301L6.91016 156.178L8.7749 156.168L12.1055 162.189V162.301H10.1943ZM13.293 157.393V157.18C13.293 156.456 13.3981 155.785 13.6084 155.167C13.8187 154.542 14.1217 154.001 14.5176 153.543C14.9134 153.079 15.3927 152.72 15.9556 152.467C16.5184 152.207 17.1493 152.077 17.8481 152.077C18.5532 152.077 19.1872 152.207 19.75 152.467C20.319 152.72 20.8014 153.079 21.1973 153.543C21.5993 154.001 21.9054 154.542 22.1157 155.167C22.326 155.785 22.4312 156.456 22.4312 157.18V157.393C22.4312 158.117 22.326 158.788 22.1157 159.406C21.9054 160.025 21.5993 160.566 21.1973 161.03C20.8014 161.487 20.3221 161.846 19.7593 162.106C19.2026 162.36 18.5718 162.486 17.8667 162.486C17.1616 162.486 16.5277 162.36 15.9648 162.106C15.402 161.846 14.9196 161.487 14.5176 161.03C14.1217 160.566 13.8187 160.025 13.6084 159.406C13.3981 158.788 13.293 158.117 13.293 157.393ZM15.0093 157.18V157.393C15.0093 157.894 15.068 158.367 15.1855 158.812C15.3031 159.252 15.4793 159.641 15.7144 159.981C15.9556 160.322 16.2555 160.591 16.6143 160.789C16.973 160.98 17.3905 161.076 17.8667 161.076C18.3368 161.076 18.748 160.98 19.1006 160.789C19.4593 160.591 19.7562 160.322 19.9912 159.981C20.2262 159.641 20.4025 159.252 20.52 158.812C20.6437 158.367 20.7056 157.894 20.7056 157.393V157.18C20.7056 156.685 20.6437 156.218 20.52 155.779C20.4025 155.333 20.2231 154.941 19.9819 154.601C19.7469 154.254 19.45 153.982 19.0913 153.784C18.7388 153.586 18.3244 153.487 17.8481 153.487C17.3781 153.487 16.9637 153.586 16.605 153.784C16.2524 153.982 15.9556 154.254 15.7144 154.601C15.4793 154.941 15.3031 155.333 15.1855 155.779C15.068 156.218 15.0093 156.685 15.0093 157.18ZM24.1289 157.393V157.18C24.1289 156.456 24.234 155.785 24.4443 155.167C24.6546 154.542 24.9577 154.001 25.3535 153.543C25.7493 153.079 26.2287 152.72 26.7915 152.467C27.3543 152.207 27.9852 152.077 28.6841 152.077C29.3892 152.077 30.0231 152.207 30.5859 152.467C31.1549 152.72 31.6374 153.079 32.0332 153.543C32.4352 154.001 32.7414 154.542 32.9517 155.167C33.1619 155.785 33.2671 156.456 33.2671 157.18V157.393C33.2671 158.117 33.1619 158.788 32.9517 159.406C32.7414 160.025 32.4352 160.566 32.0332 161.03C31.6374 161.487 31.158 161.846 30.5952 162.106C30.0386 162.36 29.4077 162.486 28.7026 162.486C27.9976 162.486 27.3636 162.36 26.8008 162.106C26.238 161.846 25.7555 161.487 25.3535 161.03C24.9577 160.566 24.6546 160.025 24.4443 159.406C24.234 158.788 24.1289 158.117 24.1289 157.393ZM25.8452 157.18V157.393C25.8452 157.894 25.904 158.367 26.0215 158.812C26.139 159.252 26.3153 159.641 26.5503 159.981C26.7915 160.322 27.0915 160.591 27.4502 160.789C27.8089 160.98 28.2264 161.076 28.7026 161.076C29.1727 161.076 29.584 160.98 29.9365 160.789C30.2952 160.591 30.5921 160.322 30.8271 159.981C31.0622 159.641 31.2384 159.252 31.356 158.812C31.4797 158.367 31.5415 157.894 31.5415 157.393V157.18C31.5415 156.685 31.4797 156.218 31.356 155.779C31.2384 155.333 31.0591 154.941 30.8179 154.601C30.5828 154.254 30.286 153.982 29.9272 153.784C29.5747 153.586 29.1603 153.487 28.6841 153.487C28.214 153.487 27.7996 153.586 27.4409 153.784C27.0884 153.982 26.7915 154.254 26.5503 154.601C26.3153 154.941 26.139 155.333 26.0215 155.779C25.904 156.218 25.8452 156.685 25.8452 157.18ZM37.1265 154.257V162.301H35.4009V152.263H37.0337L37.1265 154.257ZM36.7739 156.901L35.9761 156.874C35.9823 156.187 36.0719 155.553 36.2451 154.972C36.4183 154.384 36.675 153.874 37.0151 153.441C37.3553 153.008 37.779 152.674 38.2861 152.439C38.7933 152.198 39.3809 152.077 40.0488 152.077C40.5189 152.077 40.9518 152.145 41.3477 152.281C41.7435 152.411 42.0868 152.618 42.3774 152.903C42.6681 153.187 42.8939 153.552 43.0547 153.998C43.2155 154.443 43.2959 154.981 43.2959 155.612V162.301H41.5796V155.695C41.5796 155.17 41.4899 154.749 41.3105 154.434C41.1374 154.118 40.89 153.889 40.5684 153.747C40.2467 153.599 39.8695 153.524 39.4365 153.524C38.9294 153.524 38.5057 153.614 38.1655 153.793C37.8254 153.973 37.5532 154.22 37.3491 154.536C37.145 154.851 36.9966 155.213 36.9038 155.621C36.8172 156.023 36.7739 156.45 36.7739 156.901ZM43.2773 155.955L42.127 156.308C42.1331 155.757 42.2228 155.228 42.396 154.721C42.5754 154.214 42.832 153.763 43.166 153.367C43.5062 152.971 43.9237 152.659 44.4185 152.43C44.9132 152.195 45.4792 152.077 46.1162 152.077C46.6543 152.077 47.1305 152.148 47.5449 152.291C47.9655 152.433 48.318 152.652 48.6025 152.949C48.8932 153.24 49.1128 153.614 49.2612 154.072C49.4097 154.529 49.4839 155.074 49.4839 155.705V162.301H47.7583V155.686C47.7583 155.123 47.6686 154.687 47.4893 154.378C47.3161 154.062 47.0687 153.843 46.7471 153.719C46.4316 153.589 46.0544 153.524 45.6152 153.524C45.238 153.524 44.904 153.589 44.6133 153.719C44.3226 153.849 44.0783 154.028 43.8804 154.257C43.6825 154.48 43.5309 154.737 43.4258 155.027C43.3268 155.318 43.2773 155.627 43.2773 155.955ZM58.5107 154.406V162.301H56.7944V152.263H58.418L58.5107 154.406ZM58.1025 156.901L57.3882 156.874C57.3944 156.187 57.4964 155.553 57.6943 154.972C57.8923 154.384 58.1706 153.874 58.5293 153.441C58.888 153.008 59.3148 152.674 59.8096 152.439C60.3105 152.198 60.8641 152.077 61.4702 152.077C61.965 152.077 62.4103 152.145 62.8062 152.281C63.202 152.411 63.5391 152.621 63.8174 152.912C64.1019 153.203 64.3184 153.58 64.4668 154.044C64.6152 154.502 64.6895 155.061 64.6895 155.723V162.301H62.9639V155.705C62.9639 155.179 62.8866 154.758 62.7319 154.443C62.5773 154.121 62.3516 153.889 62.0547 153.747C61.7578 153.599 61.3929 153.524 60.96 153.524C60.5332 153.524 60.1436 153.614 59.791 153.793C59.4447 153.973 59.1447 154.22 58.8911 154.536C58.6437 154.851 58.4489 155.213 58.3066 155.621C58.1706 156.023 58.1025 156.45 58.1025 156.901ZM66.8418 157.393V157.18C66.8418 156.456 66.9469 155.785 67.1572 155.167C67.3675 154.542 67.6706 154.001 68.0664 153.543C68.4622 153.079 68.9416 152.72 69.5044 152.467C70.0672 152.207 70.6981 152.077 71.397 152.077C72.1021 152.077 72.736 152.207 73.2988 152.467C73.8678 152.72 74.3503 153.079 74.7461 153.543C75.1481 154.001 75.4543 154.542 75.6646 155.167C75.8748 155.785 75.98 156.456 75.98 157.18V157.393C75.98 158.117 75.8748 158.788 75.6646 159.406C75.4543 160.025 75.1481 160.566 74.7461 161.03C74.3503 161.487 73.8709 161.846 73.3081 162.106C72.7515 162.36 72.1206 162.486 71.4155 162.486C70.7104 162.486 70.0765 162.36 69.5137 162.106C68.9508 161.846 68.4684 161.487 68.0664 161.03C67.6706 160.566 67.3675 160.025 67.1572 159.406C66.9469 158.788 66.8418 158.117 66.8418 157.393ZM68.5581 157.18V157.393C68.5581 157.894 68.6169 158.367 68.7344 158.812C68.8519 159.252 69.0282 159.641 69.2632 159.981C69.5044 160.322 69.8044 160.591 70.1631 160.789C70.5218 160.98 70.9393 161.076 71.4155 161.076C71.8856 161.076 72.2969 160.98 72.6494 160.789C73.0081 160.591 73.305 160.322 73.54 159.981C73.7751 159.641 73.9513 159.252 74.0688 158.812C74.1925 158.367 74.2544 157.894 74.2544 157.393V157.18C74.2544 156.685 74.1925 156.218 74.0688 155.779C73.9513 155.333 73.772 154.941 73.5308 154.601C73.2957 154.254 72.9989 153.982 72.6401 153.784C72.2876 153.586 71.8732 153.487 71.397 153.487C70.9269 153.487 70.5125 153.586 70.1538 153.784C69.8013 153.982 69.5044 154.254 69.2632 154.601C69.0282 154.941 68.8519 155.333 68.7344 155.779C68.6169 156.218 68.5581 156.685 68.5581 157.18ZM82.335 152.263V153.58H76.9077V152.263H82.335ZM78.7446 149.823H80.4609V159.814C80.4609 160.155 80.5135 160.411 80.6187 160.584C80.7238 160.758 80.8599 160.872 81.0269 160.928C81.1938 160.983 81.3732 161.011 81.5649 161.011C81.7072 161.011 81.8556 160.999 82.0103 160.974C82.1711 160.943 82.2917 160.918 82.3721 160.9L82.3813 162.301C82.2453 162.344 82.0659 162.384 81.8433 162.421C81.6268 162.465 81.3639 162.486 81.0547 162.486C80.6341 162.486 80.2476 162.403 79.895 162.236C79.5425 162.069 79.2611 161.791 79.0508 161.401C78.8467 161.005 78.7446 160.473 78.7446 159.805V149.823ZM94.98 160.584V155.417C94.98 155.021 94.8996 154.678 94.7388 154.387C94.5841 154.09 94.3491 153.861 94.0337 153.701C93.7183 153.54 93.3286 153.459 92.8647 153.459C92.4318 153.459 92.0514 153.534 91.7236 153.682C91.402 153.831 91.1484 154.025 90.9629 154.267C90.7835 154.508 90.6938 154.768 90.6938 155.046H88.9775C88.9775 154.687 89.0703 154.332 89.2559 153.979C89.4414 153.626 89.7074 153.308 90.0537 153.023C90.4062 152.733 90.8268 152.504 91.3154 152.337C91.8102 152.164 92.3607 152.077 92.9668 152.077C93.6966 152.077 94.3398 152.201 94.8965 152.448C95.4593 152.696 95.8984 153.07 96.2139 153.571C96.5355 154.066 96.6963 154.687 96.6963 155.436V160.111C96.6963 160.445 96.7241 160.801 96.7798 161.178C96.8416 161.556 96.9313 161.88 97.0488 162.152V162.301H95.2583C95.1717 162.103 95.1037 161.84 95.0542 161.512C95.0047 161.178 94.98 160.869 94.98 160.584ZM95.2769 156.215L95.2954 157.421H93.5605C93.0719 157.421 92.6359 157.461 92.2524 157.542C91.869 157.616 91.5474 157.73 91.2876 157.885C91.0278 158.039 90.8299 158.234 90.6938 158.469C90.5578 158.698 90.4897 158.967 90.4897 159.276C90.4897 159.592 90.5609 159.879 90.7031 160.139C90.8454 160.399 91.0588 160.606 91.3433 160.761C91.634 160.909 91.9896 160.983 92.4102 160.983C92.9359 160.983 93.3997 160.872 93.8018 160.649C94.2038 160.427 94.5223 160.155 94.7573 159.833C94.9985 159.511 95.1284 159.199 95.147 158.896L95.8799 159.722C95.8366 159.981 95.7191 160.269 95.5273 160.584C95.3356 160.9 95.0789 161.203 94.7573 161.494C94.4419 161.778 94.0646 162.016 93.6255 162.208C93.1925 162.394 92.7039 162.486 92.1597 162.486C91.4793 162.486 90.8825 162.353 90.3691 162.087C89.862 161.821 89.4661 161.466 89.1816 161.021C88.9033 160.569 88.7642 160.065 88.7642 159.508C88.7642 158.97 88.8693 158.497 89.0796 158.089C89.2899 157.674 89.5929 157.331 89.9888 157.059C90.3846 156.781 90.8608 156.57 91.4175 156.428C91.9741 156.286 92.5957 156.215 93.2822 156.215H95.2769ZM102.3 160.751L105.046 152.263H106.799L103.19 162.301H102.04L102.3 160.751ZM100.008 152.263L102.838 160.798L103.033 162.301H101.882L98.2456 152.263H100.008ZM114.221 160.584V155.417C114.221 155.021 114.141 154.678 113.98 154.387C113.825 154.09 113.59 153.861 113.275 153.701C112.959 153.54 112.57 153.459 112.106 153.459C111.673 153.459 111.293 153.534 110.965 153.682C110.643 153.831 110.39 154.025 110.204 154.267C110.025 154.508 109.935 154.768 109.935 155.046H108.219C108.219 154.687 108.312 154.332 108.497 153.979C108.683 153.626 108.949 153.308 109.295 153.023C109.647 152.733 110.068 152.504 110.557 152.337C111.051 152.164 111.602 152.077 112.208 152.077C112.938 152.077 113.581 152.201 114.138 152.448C114.701 152.696 115.14 153.07 115.455 153.571C115.777 154.066 115.938 154.687 115.938 155.436V160.111C115.938 160.445 115.965 160.801 116.021 161.178C116.083 161.556 116.173 161.88 116.29 162.152V162.301H114.5C114.413 162.103 114.345 161.84 114.295 161.512C114.246 161.178 114.221 160.869 114.221 160.584ZM114.518 156.215L114.537 157.421H112.802C112.313 157.421 111.877 157.461 111.494 157.542C111.11 157.616 110.789 157.73 110.529 157.885C110.269 158.039 110.071 158.234 109.935 158.469C109.799 158.698 109.731 158.967 109.731 159.276C109.731 159.592 109.802 159.879 109.944 160.139C110.087 160.399 110.3 160.606 110.584 160.761C110.875 160.909 111.231 160.983 111.651 160.983C112.177 160.983 112.641 160.872 113.043 160.649C113.445 160.427 113.764 160.155 113.999 159.833C114.24 159.511 114.37 159.199 114.388 158.896L115.121 159.722C115.078 159.981 114.96 160.269 114.769 160.584C114.577 160.9 114.32 161.203 113.999 161.494C113.683 161.778 113.306 162.016 112.867 162.208C112.434 162.394 111.945 162.486 111.401 162.486C110.721 162.486 110.124 162.353 109.61 162.087C109.103 161.821 108.707 161.466 108.423 161.021C108.145 160.569 108.005 160.065 108.005 159.508C108.005 158.97 108.111 158.497 108.321 158.089C108.531 157.674 108.834 157.331 109.23 157.059C109.626 156.781 110.102 156.57 110.659 156.428C111.215 156.286 111.837 156.215 112.523 156.215H114.518ZM120.502 152.263V162.301H118.776V152.263H120.502ZM118.646 149.6C118.646 149.322 118.73 149.087 118.897 148.895C119.07 148.703 119.324 148.607 119.658 148.607C119.986 148.607 120.236 148.703 120.409 148.895C120.589 149.087 120.678 149.322 120.678 149.6C120.678 149.866 120.589 150.095 120.409 150.287C120.236 150.472 119.986 150.565 119.658 150.565C119.324 150.565 119.07 150.472 118.897 150.287C118.73 150.095 118.646 149.866 118.646 149.6ZM125.122 148.051V162.301H123.396V148.051H125.122ZM133.796 160.584V155.417C133.796 155.021 133.716 154.678 133.555 154.387C133.401 154.09 133.166 153.861 132.85 153.701C132.535 153.54 132.145 153.459 131.681 153.459C131.248 153.459 130.868 153.534 130.54 153.682C130.218 153.831 129.965 154.025 129.779 154.267C129.6 154.508 129.51 154.768 129.51 155.046H127.794C127.794 154.687 127.887 154.332 128.072 153.979C128.258 153.626 128.524 153.308 128.87 153.023C129.223 152.733 129.643 152.504 130.132 152.337C130.627 152.164 131.177 152.077 131.783 152.077C132.513 152.077 133.156 152.201 133.713 152.448C134.276 152.696 134.715 153.07 135.03 153.571C135.352 154.066 135.513 154.687 135.513 155.436V160.111C135.513 160.445 135.541 160.801 135.596 161.178C135.658 161.556 135.748 161.88 135.865 162.152V162.301H134.075C133.988 162.103 133.92 161.84 133.871 161.512C133.821 161.178 133.796 160.869 133.796 160.584ZM134.093 156.215L134.112 157.421H132.377C131.888 157.421 131.452 157.461 131.069 157.542C130.685 157.616 130.364 157.73 130.104 157.885C129.844 158.039 129.646 158.234 129.51 158.469C129.374 158.698 129.306 158.967 129.306 159.276C129.306 159.592 129.377 159.879 129.52 160.139C129.662 160.399 129.875 160.606 130.16 160.761C130.45 160.909 130.806 160.983 131.227 160.983C131.752 160.983 132.216 160.872 132.618 160.649C133.02 160.427 133.339 160.155 133.574 159.833C133.815 159.511 133.945 159.199 133.963 158.896L134.696 159.722C134.653 159.981 134.535 160.269 134.344 160.584C134.152 160.9 133.895 161.203 133.574 161.494C133.258 161.778 132.881 162.016 132.442 162.208C132.009 162.394 131.52 162.486 130.976 162.486C130.296 162.486 129.699 162.353 129.186 162.087C128.678 161.821 128.283 161.466 127.998 161.021C127.72 160.569 127.581 160.065 127.581 159.508C127.581 158.97 127.686 158.497 127.896 158.089C128.106 157.674 128.409 157.331 128.805 157.059C129.201 156.781 129.677 156.57 130.234 156.428C130.791 156.286 131.412 156.215 132.099 156.215H134.093ZM138.203 148.051H139.929V160.353L139.78 162.301H138.203V148.051ZM146.71 157.198V157.393C146.71 158.123 146.624 158.8 146.451 159.425C146.278 160.043 146.024 160.581 145.69 161.039C145.356 161.497 144.948 161.852 144.465 162.106C143.983 162.36 143.429 162.486 142.805 162.486C142.168 162.486 141.608 162.378 141.125 162.162C140.649 161.939 140.247 161.62 139.919 161.206C139.592 160.792 139.329 160.291 139.131 159.703C138.939 159.116 138.806 158.454 138.732 157.718V156.864C138.806 156.122 138.939 155.457 139.131 154.87C139.329 154.282 139.592 153.781 139.919 153.367C140.247 152.946 140.649 152.628 141.125 152.411C141.602 152.188 142.155 152.077 142.786 152.077C143.417 152.077 143.977 152.201 144.465 152.448C144.954 152.689 145.362 153.036 145.69 153.487C146.024 153.939 146.278 154.48 146.451 155.111C146.624 155.736 146.71 156.431 146.71 157.198ZM144.985 157.393V157.198C144.985 156.697 144.938 156.227 144.846 155.788C144.753 155.343 144.604 154.953 144.4 154.619C144.196 154.279 143.927 154.013 143.593 153.821C143.259 153.623 142.848 153.524 142.359 153.524C141.926 153.524 141.549 153.599 141.228 153.747C140.912 153.896 140.643 154.097 140.42 154.35C140.198 154.597 140.015 154.882 139.873 155.204C139.737 155.519 139.635 155.847 139.567 156.187V158.423C139.666 158.856 139.827 159.273 140.049 159.675C140.278 160.071 140.581 160.396 140.958 160.649C141.342 160.903 141.815 161.03 142.378 161.03C142.842 161.03 143.238 160.937 143.565 160.751C143.899 160.56 144.168 160.297 144.373 159.963C144.583 159.629 144.737 159.242 144.836 158.803C144.935 158.364 144.985 157.894 144.985 157.393ZM150.746 148.051V162.301H149.021V148.051H150.746ZM157.667 162.486C156.968 162.486 156.334 162.369 155.765 162.134C155.202 161.893 154.717 161.556 154.309 161.123C153.907 160.69 153.597 160.176 153.381 159.583C153.164 158.989 153.056 158.339 153.056 157.634V157.245C153.056 156.428 153.177 155.701 153.418 155.064C153.659 154.421 153.987 153.877 154.401 153.432C154.816 152.986 155.286 152.649 155.812 152.42C156.337 152.192 156.882 152.077 157.444 152.077C158.162 152.077 158.78 152.201 159.3 152.448C159.826 152.696 160.255 153.042 160.589 153.487C160.923 153.926 161.171 154.446 161.332 155.046C161.492 155.64 161.573 156.289 161.573 156.994V157.764H154.077V156.363H159.856V156.233C159.832 155.788 159.739 155.355 159.578 154.935C159.424 154.514 159.176 154.168 158.836 153.896C158.496 153.623 158.032 153.487 157.444 153.487C157.055 153.487 156.696 153.571 156.368 153.738C156.04 153.899 155.759 154.14 155.524 154.461C155.289 154.783 155.106 155.176 154.977 155.64C154.847 156.104 154.782 156.639 154.782 157.245V157.634C154.782 158.111 154.847 158.559 154.977 158.979C155.113 159.394 155.307 159.759 155.561 160.074C155.821 160.39 156.133 160.637 156.498 160.816C156.869 160.996 157.29 161.085 157.76 161.085C158.366 161.085 158.879 160.962 159.3 160.714C159.72 160.467 160.088 160.136 160.404 159.722L161.443 160.547C161.226 160.875 160.951 161.188 160.617 161.484C160.283 161.781 159.872 162.022 159.383 162.208C158.901 162.394 158.329 162.486 157.667 162.486Z" fill="#8C8C8C"/>
<defs>
<filter id="filter0_d_33046_24250" x="82.8125" y="59.6016" width="60.6953" height="60.6992" filterUnits="userSpaceOnUse" color-interpolation-filters="sRGB">
<feFlood flood-opacity="0" result="BackgroundImageFix"/>
<feColorMatrix in="SourceAlpha" type="matrix" values="0 0 0 0 0 0 0 0 0 0 0 0 0 0 0 0 0 0 127 0" result="hardAlpha"/>
<feOffset dy="2"/>
<feGaussianBlur stdDeviation="4"/>
<feColorMatrix type="matrix" values="0 0 0 0 1 0 0 0 0 0.415686 0 0 0 0 0.596078 0 0 0 0.3 0"/>
<feBlend mode="normal" in2="BackgroundImageFix" result="effect1_dropShadow_33046_24250"/>
<feBlend mode="normal" in="SourceGraphic" in2="effect1_dropShadow_33046_24250" result="shape"/>
</filter>
<linearGradient id="paint0_linear_33046_24250" x1="113.162" y1="43.2524" x2="68.4633" y2="87.9508" gradientUnits="userSpaceOnUse">
<stop stop-color="#FF8960"/>
<stop offset="1" stop-color="#FF62A5"/>
</linearGradient>
<clipPath id="clip0_33046_24250">
<rect width="110" height="110" fill="white" transform="translate(26.5 0.300781)"/>
</clipPath>
</defs>
</svg>
