<svg width="26" height="26" viewBox="0 0 26 26" fill="none" xmlns="http://www.w3.org/2000/svg">
<path d="M23.8334 20.5833V23.8333H2.16675V20.5833C2.16675 19.9875 2.65425 19.5 3.25008 19.5H22.7501C23.3459 19.5 23.8334 19.9875 23.8334 20.5833Z" fill="#F59E0B" stroke="#F59E0B" stroke-width="1.625" stroke-miterlimit="10" stroke-linecap="round" stroke-linejoin="round"/>
<path d="M7.58341 11.9141H5.41675V19.4974H7.58341V11.9141Z" fill="#F59E0B"/>
<path d="M11.9167 11.9141H9.75V19.4974H11.9167V11.9141Z" fill="#F59E0B"/>
<path d="M16.2499 11.9141H14.0833V19.4974H16.2499V11.9141Z" fill="#F59E0B"/>
<path d="M20.5834 11.9141H18.4167V19.4974H20.5834V11.9141Z" fill="#F59E0B"/>
<path d="M24.9166 24.6484H1.08325C0.639085 24.6484 0.270752 24.2801 0.270752 23.8359C0.270752 23.3918 0.639085 23.0234 1.08325 23.0234H24.9166C25.3608 23.0234 25.7291 23.3918 25.7291 23.8359C25.7291 24.2801 25.3608 24.6484 24.9166 24.6484Z" fill="#F59E0B"/>
<path d="M23.1509 6.23062L13.4009 2.33062C13.1842 2.24396 12.8159 2.24396 12.5992 2.33062L2.84925 6.23062C2.47008 6.38229 2.16675 6.82646 2.16675 7.23812V10.8348C2.16675 11.4306 2.65425 11.9181 3.25008 11.9181H22.7501C23.3459 11.9181 23.8334 11.4306 23.8334 10.8348V7.23812C23.8334 6.82646 23.5301 6.38229 23.1509 6.23062ZM13.0001 9.20979C12.1009 9.20979 11.3751 8.48396 11.3751 7.58479C11.3751 6.68563 12.1009 5.95979 13.0001 5.95979C13.8992 5.95979 14.6251 6.68563 14.6251 7.58479C14.6251 8.48396 13.8992 9.20979 13.0001 9.20979Z" fill="#F59E0B"/>
</svg>
