<svg width="26" height="26" viewBox="0 0 26 26" fill="none" xmlns="http://www.w3.org/2000/svg">
<path d="M7.85421 12.9974C7.85421 12.5532 8.22255 12.1849 8.66671 12.1849H11.9167V8.1224C11.9167 7.52656 11.4292 7.03906 10.8334 7.03906H8.41755C5.00505 7.03906 2.03671 9.83406 2.16671 13.2357C2.23171 14.7849 2.88171 16.1824 3.91088 17.2116C4.99421 18.2841 6.47838 18.9557 8.12505 18.9557H10.8334C11.4292 18.9557 11.9167 18.4682 11.9167 17.8724V13.8099H8.66671C8.22255 13.8099 7.85421 13.4416 7.85421 12.9974Z" fill="#FF4F4F"/>
<path d="M22.0891 8.78323C21.0058 7.71073 19.5216 7.03906 17.8749 7.03906H15.1666C14.5708 7.03906 14.0833 7.52656 14.0833 8.1224V12.1849H17.3333C17.7774 12.1849 18.1458 12.5532 18.1458 12.9974C18.1458 13.4416 17.7774 13.8099 17.3333 13.8099H14.0833V17.8724C14.0833 18.4682 14.5708 18.9557 15.1666 18.9557H17.5824C20.9949 18.9557 23.9633 16.1607 23.8224 12.7591C23.7683 11.2099 23.1074 9.8124 22.0891 8.78323Z" fill="#FF4F4F"/>
<path d="M14.0834 12.1875H11.9167V13.8125H14.0834V12.1875Z" fill="#FF4F4F"/>
</svg>
