<svg width="26" height="26" viewBox="0 0 26 26" fill="none" xmlns="http://www.w3.org/2000/svg">
<path d="M17.5933 2.16406H8.40659C5.41659 2.16406 4.33325 3.2474 4.33325 6.29156V19.7032C4.33325 22.7474 5.41659 23.8307 8.40659 23.8307H17.5824C20.5833 23.8307 21.6666 22.7474 21.6666 19.7032V6.29156C21.6666 3.2474 20.5833 2.16406 17.5933 2.16406ZM12.9999 20.9057C11.9599 20.9057 11.1041 20.0499 11.1041 19.0099C11.1041 17.9699 11.9599 17.1141 12.9999 17.1141C14.0399 17.1141 14.8958 17.9699 14.8958 19.0099C14.8958 20.0499 14.0399 20.9057 12.9999 20.9057ZM15.1666 6.76823H10.8333C10.3891 6.76823 10.0208 6.3999 10.0208 5.95573C10.0208 5.51156 10.3891 5.14323 10.8333 5.14323H15.1666C15.6108 5.14323 15.9791 5.51156 15.9791 5.95573C15.9791 6.3999 15.6108 6.76823 15.1666 6.76823Z" fill="#615FFF"/>
</svg>
