<svg width="26" height="26" viewBox="0 0 26 26" fill="none" xmlns="http://www.w3.org/2000/svg">
<path d="M18.4166 4.33594H7.58329C4.33329 4.33594 2.16663 5.96094 2.16663 9.7526V13.6093C2.16663 14.0101 2.57829 14.2593 2.93579 14.0968C3.99746 13.6093 5.22163 13.4251 6.51079 13.6526C9.35996 14.1618 11.4508 16.8051 11.375 19.6976C11.3641 20.1526 11.2991 20.5968 11.18 21.0301C11.0933 21.3659 11.3641 21.6801 11.7108 21.6801H18.4166C21.6666 21.6801 23.8333 20.0551 23.8333 16.2634V9.7526C23.8333 5.96094 21.6666 4.33594 18.4166 4.33594ZM13 15.7109C11.505 15.7109 10.2916 14.4976 10.2916 13.0026C10.2916 11.5076 11.505 10.2943 13 10.2943C14.495 10.2943 15.7083 11.5076 15.7083 13.0026C15.7083 14.4976 14.495 15.7109 13 15.7109ZM20.8541 15.1693C20.8541 15.6134 20.4858 15.9818 20.0416 15.9818C19.5975 15.9818 19.2291 15.6134 19.2291 15.1693V10.8359C19.2291 10.3918 19.5975 10.0234 20.0416 10.0234C20.4858 10.0234 20.8541 10.3918 20.8541 10.8359V15.1693Z" fill="#615FFF"/>
<path d="M5.41671 15.1641C3.02254 15.1641 1.08337 17.1032 1.08337 19.4974C1.08337 20.3099 1.31087 21.0791 1.71171 21.7291C2.45921 22.9857 3.83504 23.8307 5.41671 23.8307C6.99837 23.8307 8.37421 22.9857 9.12171 21.7291C9.52254 21.0791 9.75004 20.3099 9.75004 19.4974C9.75004 17.1032 7.81087 15.1641 5.41671 15.1641ZM7.55087 19.1399L5.24337 21.2741C5.09171 21.4149 4.88587 21.4907 4.69087 21.4907C4.48504 21.4907 4.27921 21.4149 4.11671 21.2524L3.04421 20.1799C2.73004 19.8657 2.73004 19.3457 3.04421 19.0316C3.35837 18.7174 3.87837 18.7174 4.19254 19.0316L4.71254 19.5516L6.44587 17.9482C6.77087 17.6449 7.29087 17.6666 7.59421 17.9916C7.89754 18.3166 7.87587 18.8366 7.55087 19.1399Z" fill="#615FFF"/>
</svg>
