<svg width="26" height="26" viewBox="0 0 26 26" fill="none" xmlns="http://www.w3.org/2000/svg">
<path d="M4.23591 18.6132C4.03008 18.6132 3.82425 18.5373 3.66175 18.3748C2.17758 16.8798 1.35425 14.9082 1.35425 12.8173C1.35425 8.47318 4.87508 4.94151 9.20842 4.94151L15.7842 4.96318L14.6034 3.83651C14.2784 3.52234 14.2676 3.01318 14.5817 2.68818C14.8959 2.36318 15.4051 2.35234 15.7301 2.66651L18.3734 5.20151C18.6117 5.42901 18.6876 5.78651 18.5684 6.08984C18.4492 6.39318 18.1459 6.59901 17.8101 6.59901L9.20842 6.57734C5.77425 6.57734 2.97925 9.38318 2.97925 12.8282C2.97925 14.4857 3.62925 16.0565 4.81008 17.2373C5.12425 17.5515 5.12425 18.0715 4.81008 18.3857C4.64758 18.5373 4.44175 18.6132 4.23591 18.6132Z" fill="#43B75D"/>
<path d="M10.8332 23.5651C10.6274 23.5651 10.4324 23.4893 10.2699 23.3376L7.62656 20.8026C7.38823 20.5751 7.31239 20.2176 7.43156 19.9143C7.55073 19.6109 7.85406 19.4051 8.18989 19.4051L16.8024 19.4268C20.2366 19.4268 23.0316 16.6209 23.0316 13.1759C23.0316 11.5184 22.3816 9.9476 21.2007 8.76677C20.8866 8.4526 20.8866 7.9326 21.2007 7.61844C21.5149 7.30427 22.0349 7.30427 22.3491 7.61844C23.8332 9.11344 24.6566 11.0851 24.6566 13.1759C24.6566 17.5201 21.1357 21.0518 16.8024 21.0518L10.2266 21.0301L11.4074 22.1568C11.7324 22.4709 11.7432 22.9801 11.4291 23.3051C11.2557 23.4784 11.0499 23.5651 10.8332 23.5651Z" fill="#43B75D"/>
<path d="M9.74992 16.7943H16.2499C18.3299 16.7943 20.0416 15.0934 20.0416 13.0026C20.0416 10.9226 18.3408 9.21094 16.2499 9.21094H9.74992C7.66992 9.21094 5.95825 10.9118 5.95825 13.0026C5.95825 15.0934 7.65909 16.7943 9.74992 16.7943Z" fill="#43B75D"/>
</svg>
