<svg width="309" height="255" viewBox="0 0 309 255" fill="none" xmlns="http://www.w3.org/2000/svg">
<path opacity="0.2" d="M40.5114 252.014L2.53942 230.179C-0.721583 228.296 -0.312558 225.008 3.45244 222.834L249.289 82.2983C253.054 80.1243 258.75 79.8883 262.011 81.7713L299.983 103.606C303.244 105.489 302.835 108.777 299.07 110.951L53.2334 251.487C49.4684 253.661 43.7724 253.897 40.5114 252.014Z" fill="#92B4D1"/>
<path d="M191.824 143.25V154.124L280.777 102.775V91.9023L191.824 143.25Z" fill="#03336E"/>
<path d="M191.838 143.25V154.124L150.815 130.642V119.785L191.838 143.25Z" fill="#084C94"/>
<path d="M150.815 119.787L191.838 143.252L280.777 91.9039L239.725 68.4219L150.815 119.787Z" fill="#084C94"/>
<path d="M298.331 79.567V98.606L300.194 97.119V78.125L298.331 79.567Z" fill="#03336E"/>
<path d="M298.336 79.5691V98.608L252.956 73.1121V54.0391L298.336 79.5691Z" fill="#084C94"/>
<path d="M252.956 54.0384L298.336 79.5684L300.194 78.1264L254.806 52.6094L252.956 54.0384Z" fill="#2672AB"/>
<path d="M78.2229 183.342L79.3629 183.9V189.903L76.3029 188.761C73.1419 187.582 71.0469 184.563 71.0469 181.19V151.841C71.7889 151.343 72.8809 151.027 74.1019 151.027C75.3229 151.027 76.4159 151.343 77.1579 151.841V181.634C77.1569 182.36 77.5709 183.022 78.2229 183.342Z" fill="#A8CFF0"/>
<path d="M78.9038 141.395H69.2988V182.501H69.3008C69.3008 182.514 69.2988 182.527 69.2988 182.54C69.2988 184.085 71.4488 185.337 74.1008 185.337C76.7528 185.337 78.9038 184.085 78.9038 182.54C78.9038 182.527 78.9028 182.514 78.9018 182.501H78.9038V141.395Z" fill="#ADD2F0"/>
<path d="M78.9038 141.414C78.9038 142.958 76.7538 144.211 74.1008 144.211C71.4488 144.211 69.2988 142.959 69.2988 141.414C69.2988 139.869 71.4488 138.617 74.1008 138.617C76.7538 138.617 78.9038 139.869 78.9038 141.414Z" fill="#D1EBFF"/>
<path d="M78.1487 141.412C78.1487 142.713 76.3367 143.768 74.1017 143.768C71.8667 143.768 70.0547 142.713 70.0547 141.412C70.0547 140.111 71.8667 139.055 74.1017 139.055C76.3367 139.055 78.1487 140.11 78.1487 141.412Z" fill="#3F92D1"/>
<path d="M78.2229 111.455L79.3629 110.897V104.895L76.3029 106.037C73.1419 107.216 71.0469 110.235 71.0469 113.608V142.957C71.7889 143.455 72.8809 143.771 74.1019 143.771C75.3229 143.771 76.4159 143.455 77.1579 142.957V113.163C77.1569 112.437 77.5709 111.774 78.2229 111.455Z" fill="#A8CFF0"/>
<path d="M32.1272 157.539C35.5802 157.539 38.3892 159.228 38.3892 161.303C38.3892 161.459 38.2632 161.586 38.1062 161.586C37.9502 161.586 37.8232 161.46 37.8232 161.303C37.8232 159.539 35.2682 158.104 32.1272 158.104C28.9862 158.104 26.4312 159.539 26.4312 161.303C26.4312 161.459 26.3052 161.586 26.1482 161.586C25.9922 161.586 25.8652 161.46 25.8652 161.303C25.8662 159.228 28.6742 157.539 32.1272 157.539Z" fill="#3F92D1"/>
<path d="M32.1272 163.168C35.5802 163.168 38.3892 164.857 38.3892 166.932C38.3892 167.088 38.2632 167.215 38.1062 167.215C37.9502 167.215 37.8232 167.088 37.8232 166.932C37.8232 165.168 35.2682 163.733 32.1272 163.733C28.9862 163.733 26.4312 165.168 26.4312 166.932C26.4312 167.088 26.3052 167.215 26.1482 167.215C25.9922 167.215 25.8652 167.088 25.8652 166.932C25.8662 164.857 28.6742 163.168 32.1272 163.168Z" fill="#3F92D1"/>
<path d="M32.1272 168.707C35.5802 168.707 38.3892 170.396 38.3892 172.471C38.3892 172.627 38.2632 172.754 38.1062 172.754C37.9502 172.754 37.8232 172.628 37.8232 172.471C37.8232 170.707 35.2682 169.272 32.1272 169.272C28.9862 169.272 26.4312 170.707 26.4312 172.471C26.4312 172.627 26.3052 172.754 26.1482 172.754C25.9922 172.754 25.8652 172.628 25.8652 172.471C25.8662 170.396 28.6742 168.707 32.1272 168.707Z" fill="#3F92D1"/>
<path d="M32.1272 174.207C35.5802 174.207 38.3892 175.896 38.3892 177.971C38.3892 178.127 38.2632 178.254 38.1062 178.254C37.9502 178.254 37.8232 178.128 37.8232 177.971C37.8232 176.207 35.2682 174.772 32.1272 174.772C28.9862 174.772 26.4312 176.207 26.4312 177.971C26.4312 178.127 26.3052 178.254 26.1482 178.254C25.9922 178.254 25.8652 178.128 25.8652 177.971C25.8662 175.896 28.6742 174.207 32.1272 174.207Z" fill="#3F92D1"/>
<path d="M37.8318 160.156H26.4229V180.148H26.4249C26.4249 180.163 26.4229 180.178 26.4229 180.194C26.4229 182.029 28.9769 183.516 32.1279 183.516C35.2789 183.516 37.8329 182.029 37.8329 180.194C37.8329 180.179 37.8309 180.163 37.8309 180.148H37.8329V160.156H37.8318Z" fill="#2672AB"/>
<path d="M37.8318 160.177C37.8318 162.012 35.2779 163.499 32.1269 163.499C28.9759 163.499 26.4219 162.012 26.4219 160.177C26.4219 158.342 28.9759 156.855 32.1269 156.855C35.2779 156.855 37.8318 158.342 37.8318 160.177Z" fill="#3F92D1"/>
<path d="M32.1269 163.216C29.0579 163.216 26.5619 161.804 26.4349 160.035C26.4319 160.082 26.4229 160.128 26.4229 160.176C26.4229 162.011 28.9769 163.498 32.1279 163.498C35.2789 163.498 37.8318 162.011 37.8318 160.176C37.8318 160.128 37.8229 160.082 37.8199 160.035C37.6919 161.804 35.1959 163.216 32.1269 163.216Z" fill="#72B5E8"/>
<path d="M32.1272 182.047C28.6742 182.047 25.8652 180.358 25.8652 178.283C25.8652 178.127 25.9922 178 26.1482 178C26.3042 178 26.4312 178.126 26.4312 178.283C26.4312 180.047 28.9862 181.482 32.1272 181.482C35.2682 181.482 37.8232 180.047 37.8232 178.283C37.8232 178.127 37.9492 178 38.1062 178C38.2622 178 38.3892 178.126 38.3892 178.283C38.3892 180.358 35.5802 182.047 32.1272 182.047Z" fill="#084C94"/>
<path d="M32.1272 181.692C28.6742 181.692 25.8652 180.003 25.8652 177.928C25.8652 177.772 25.9922 177.645 26.1482 177.645C26.3042 177.645 26.4312 177.771 26.4312 177.928C26.4312 179.692 28.9862 181.127 32.1272 181.127C35.2682 181.127 37.8232 179.692 37.8232 177.928C37.8232 177.772 37.9492 177.645 38.1062 177.645C38.2622 177.645 38.3892 177.771 38.3892 177.928C38.3892 180.003 35.5802 181.692 32.1272 181.692Z" fill="#3F92D1"/>
<path d="M32.1272 176.414C28.6742 176.414 25.8652 174.725 25.8652 172.65C25.8652 172.494 25.9922 172.367 26.1482 172.367C26.3042 172.367 26.4312 172.493 26.4312 172.65C26.4312 174.414 28.9862 175.849 32.1272 175.849C35.2682 175.849 37.8232 174.414 37.8232 172.65C37.8232 172.494 37.9492 172.367 38.1062 172.367C38.2622 172.367 38.3892 172.493 38.3892 172.65C38.3892 174.725 35.5802 176.414 32.1272 176.414Z" fill="#084C94"/>
<path d="M32.1272 176.063C28.6742 176.063 25.8652 174.374 25.8652 172.299C25.8652 172.143 25.9922 172.016 26.1482 172.016C26.3042 172.016 26.4312 172.142 26.4312 172.299C26.4312 174.063 28.9862 175.498 32.1272 175.498C35.2682 175.498 37.8232 174.063 37.8232 172.299C37.8232 172.143 37.9492 172.016 38.1062 172.016C38.2622 172.016 38.3892 172.142 38.3892 172.299C38.3892 174.374 35.5802 176.063 32.1272 176.063Z" fill="#3F92D1"/>
<path d="M32.1272 170.879C28.6742 170.879 25.8652 169.19 25.8652 167.115C25.8652 166.959 25.9922 166.832 26.1482 166.832C26.3042 166.832 26.4312 166.958 26.4312 167.115C26.4312 168.879 28.9862 170.314 32.1272 170.314C35.2682 170.314 37.8232 168.879 37.8232 167.115C37.8232 166.959 37.9492 166.832 38.1062 166.832C38.2622 166.832 38.3892 166.958 38.3892 167.115C38.3892 169.191 35.5802 170.879 32.1272 170.879Z" fill="#084C94"/>
<path d="M32.1272 170.524C28.6742 170.524 25.8652 168.835 25.8652 166.76C25.8652 166.604 25.9922 166.477 26.1482 166.477C26.3042 166.477 26.4312 166.603 26.4312 166.76C26.4312 168.524 28.9862 169.959 32.1272 169.959C35.2682 169.959 37.8232 168.524 37.8232 166.76C37.8232 166.604 37.9492 166.477 38.1062 166.477C38.2622 166.477 38.3892 166.603 38.3892 166.76C38.3892 168.835 35.5802 170.524 32.1272 170.524Z" fill="#3F92D1"/>
<path d="M32.1272 165.379C28.6742 165.379 25.8652 163.69 25.8652 161.615C25.8652 161.459 25.9922 161.332 26.1482 161.332C26.3042 161.332 26.4312 161.458 26.4312 161.615C26.4312 163.379 28.9862 164.814 32.1272 164.814C35.2682 164.814 37.8232 163.379 37.8232 161.615C37.8232 161.459 37.9492 161.332 38.1062 161.332C38.2622 161.332 38.3892 161.458 38.3892 161.615C38.3892 163.69 35.5802 165.379 32.1272 165.379Z" fill="#084C94"/>
<path d="M32.1272 165.024C28.6742 165.024 25.8652 163.335 25.8652 161.26C25.8652 161.104 25.9922 160.977 26.1482 160.977C26.3042 160.977 26.4312 161.103 26.4312 161.26C26.4312 163.024 28.9862 164.459 32.1272 164.459C35.2682 164.459 37.8232 163.024 37.8232 161.26C37.8232 161.104 37.9492 160.977 38.1062 160.977C38.2622 160.977 38.3892 161.103 38.3892 161.26C38.3892 163.336 35.5802 165.024 32.1272 165.024Z" fill="#3F92D1"/>
<path d="M298.788 95.4623L287.432 88.4103C287.432 88.4103 292.38 86.4113 295.525 88.2753C299.168 90.4343 298.788 95.4623 298.788 95.4623Z" fill="#03336E"/>
<path d="M269.908 107.64C269.908 110.988 271.063 113.358 272.941 114.506C272.997 114.54 278.874 117.942 278.931 117.974C280.885 119.066 279.635 116.587 282.603 114.874C288.575 111.426 293.416 103.076 293.416 96.2233C293.416 92.8343 296.549 92.8073 294.63 91.6753C294.576 91.6433 288.324 88.1833 288.269 88.1543C286.32 87.0993 283.657 87.2933 280.721 88.9893C274.75 92.4373 269.908 100.787 269.908 107.64Z" fill="#084C94"/>
<path d="M294.59 109.399C298.84 102.13 298.883 94.2488 294.686 91.7956C290.49 89.3425 283.644 93.2462 279.394 100.515C275.145 107.783 275.102 115.664 279.298 118.118C283.494 120.571 290.341 116.667 294.59 109.399Z" fill="#03336E"/>
<path d="M286.465 92.2837C289.328 90.6307 291.929 90.4077 293.863 91.3757C292.06 90.8717 289.823 91.2477 287.399 92.6467C281.427 96.0947 276.586 104.445 276.586 111.298C276.586 114.866 277.9 117.321 280.001 118.372C277.361 117.634 275.652 115.007 275.652 110.935C275.652 104.083 280.493 95.7317 286.465 92.2837Z" fill="#2672AB"/>
<path d="M273.462 110.324C273.462 102.228 279.181 92.3626 286.237 88.2896C290.114 86.0516 293.584 86.0316 295.927 87.8076C295.825 87.6446 295.619 87.4696 295.27 87.2646C295.207 87.2276 287.82 83.1396 287.756 83.1046C285.454 81.8576 282.308 82.0876 278.839 84.0906C271.784 88.1636 266.064 98.0286 266.064 106.125L273.462 110.324Z" fill="#3F92D1"/>
<path d="M272.85 110.016C272.85 101.92 278.569 92.0554 285.625 87.9824C289.007 86.0294 292.08 85.7664 294.365 86.9094C292.235 86.3134 289.592 86.7584 286.728 88.4114C279.823 92.3984 274.197 101.932 273.961 109.926L272.85 110.016Z" fill="#72B5E8"/>
<path d="M287.07 97.4726C283.216 99.6976 280.081 105.106 280.081 109.527C280.081 113.949 283.216 115.737 287.07 113.512C290.924 111.287 294.059 105.879 294.059 101.457C294.059 97.0356 290.924 95.2476 287.07 97.4726Z" fill="#A8CFF0"/>
<path d="M291.587 96.793C292.642 97.586 293.292 99.024 293.292 101.018C293.292 105.44 290.157 110.848 286.303 113.073C284.584 114.066 283.013 114.249 281.795 113.766C283.077 114.729 284.961 114.731 287.071 113.513C290.925 111.288 294.06 105.88 294.06 101.458C294.06 99.015 293.094 97.393 291.587 96.793Z" fill="#72B5E8"/>
<path d="M282.572 107.342C282.572 109.656 284.207 110.588 286.223 109.424C288.24 108.26 289.874 105.44 289.874 103.126C289.874 100.812 288.239 99.8803 286.223 101.044C284.207 102.208 282.572 105.028 282.572 107.342Z" fill="#3F92D1"/>
<path d="M283.183 107.702C283.183 110.016 284.818 110.948 286.834 109.784C288.851 108.62 290.485 105.8 290.485 103.486C290.485 101.172 288.85 100.24 286.834 101.404C284.818 102.568 283.183 105.388 283.183 107.702Z" fill="#2672AB"/>
<path d="M275.036 109.255C275.383 101.871 280.568 93.1741 286.915 89.5101C293.239 85.8591 298.408 88.5361 298.789 95.4631L299.008 95.3361C298.896 87.4151 293.224 84.2561 286.239 88.2891C279.229 92.3361 273.541 102.1 273.468 110.166L275.036 109.255Z" fill="#2672AB"/>
<path d="M269.179 112.165L257.823 105.113C257.823 105.113 262.771 103.114 265.917 104.978C269.558 107.137 269.179 112.165 269.179 112.165Z" fill="#03336E"/>
<path d="M240.3 124.343C240.3 127.691 241.455 130.061 243.333 131.209C243.389 131.244 249.266 134.645 249.323 134.677C251.277 135.769 250.027 133.29 252.995 131.577C258.967 128.129 263.808 119.779 263.808 112.926C263.808 109.537 266.941 109.51 265.022 108.378C264.968 108.346 258.716 104.886 258.661 104.857C256.712 103.802 254.049 103.996 251.113 105.692C245.141 109.14 240.3 117.49 240.3 124.343Z" fill="#084C94"/>
<path d="M264.98 126.102C269.229 118.833 269.272 110.952 265.076 108.499C260.88 106.046 254.033 109.949 249.784 117.218C245.535 124.487 245.492 132.368 249.688 134.821C253.884 137.274 260.73 133.37 264.98 126.102Z" fill="#03336E"/>
<path d="M256.857 108.987C259.72 107.334 262.321 107.111 264.255 108.079C262.452 107.575 260.215 107.951 257.791 109.351C251.819 112.799 246.978 121.149 246.978 128.002C246.978 131.57 248.292 134.025 250.393 135.075C247.753 134.337 246.044 131.71 246.044 127.638C246.043 120.786 250.885 112.435 256.857 108.987Z" fill="#2672AB"/>
<path d="M243.854 127.027C243.854 118.931 249.573 109.066 256.628 104.993C260.505 102.755 263.975 102.735 266.318 104.511C266.217 104.348 266.01 104.173 265.661 103.968C265.598 103.931 258.211 99.8427 258.147 99.8077C255.845 98.5607 252.699 98.7907 249.229 100.794C242.174 104.867 236.454 114.732 236.454 122.828L243.854 127.027Z" fill="#3F92D1"/>
<path d="M243.241 126.719C243.241 118.623 248.96 108.758 256.016 104.685C259.398 102.733 262.471 102.469 264.756 103.612C262.626 103.016 259.983 103.461 257.119 105.114C250.214 109.101 244.588 118.635 244.352 126.629L243.241 126.719Z" fill="#72B5E8"/>
<path d="M257.462 114.175C253.608 116.4 250.473 121.808 250.473 126.229C250.473 130.651 253.608 132.439 257.462 130.214C261.316 127.989 264.451 122.581 264.451 118.159C264.451 113.738 261.315 111.951 257.462 114.175Z" fill="#A8CFF0"/>
<path d="M261.978 113.496C263.033 114.289 263.683 115.727 263.683 117.721C263.683 122.143 260.548 127.551 256.694 129.776C254.975 130.769 253.404 130.952 252.186 130.469C253.468 131.432 255.352 131.434 257.462 130.216C261.316 127.991 264.451 122.583 264.451 118.161C264.452 115.718 263.486 114.096 261.978 113.496Z" fill="#72B5E8"/>
<path d="M252.963 124.045C252.963 126.359 254.598 127.291 256.614 126.127C258.63 124.963 260.265 122.143 260.265 119.829C260.265 117.515 258.63 116.583 256.614 117.747C254.598 118.911 252.963 121.731 252.963 124.045Z" fill="#3F92D1"/>
<path d="M253.574 124.405C253.574 126.719 255.209 127.651 257.225 126.487C259.241 125.323 260.876 122.503 260.876 120.189C260.876 117.875 259.241 116.943 257.225 118.107C255.209 119.271 253.574 122.091 253.574 124.405Z" fill="#2672AB"/>
<path d="M245.426 125.958C245.773 118.574 250.958 109.877 257.305 106.213C263.629 102.562 268.798 105.239 269.178 112.166L269.397 112.039C269.285 104.118 263.613 100.959 256.628 104.992C249.618 109.039 243.93 118.803 243.857 126.869L245.426 125.958Z" fill="#2672AB"/>
<path d="M194.254 154.956L196.388 156.215L231.161 136.174L229.002 134.949L194.254 154.956Z" fill="#3F92D1"/>
<path d="M231.205 123.446V136.196L229.002 134.963V122.133L231.205 123.446Z" fill="#2672AB"/>
<path d="M193.226 143.63V161.764L234.365 137.91V119.93L193.226 143.63ZM231.161 136.063L196.431 156.201V145.481L231.161 125.473V136.063Z" fill="#084C94"/>
<path d="M193.243 143.627V161.761L190.545 160.395V142.148L193.243 143.627Z" fill="#2672AB"/>
<path d="M190.545 142.149L193.243 143.628L234.365 119.928L231.639 118.488L190.545 142.149Z" fill="#3F92D1"/>
<path d="M125.249 179.918V190.792L161.263 169.951V159.078L125.249 179.918Z" fill="#03336E"/>
<path d="M125.264 179.918V190.792L84.2402 167.31V156.453L125.264 179.918Z" fill="#084C94"/>
<path d="M84.2402 156.455L125.264 179.92L161.263 159.08L120.211 135.598L84.2402 156.455Z" fill="#084C94"/>
<path d="M36.4579 201.571V209.84L27.0469 204.597L27.4639 196.352L36.4579 201.571Z" fill="#3F92D1"/>
<path d="M11.6885 227.841V215.863L19.4825 202.421L30.4635 196.081L22.4205 191.555L11.3995 197.918L3.60547 211.361V223.338L11.6885 227.841Z" fill="#D1EBFF"/>
<path opacity="0.7" d="M11.6885 227.839V215.861L3.60547 211.359V223.336L11.6885 227.839Z" fill="#72B5E8"/>
<path d="M11.6885 215.863L19.4825 202.421L11.3995 197.918L3.60547 211.361L11.6885 215.863Z" fill="#A8CFF0"/>
<path d="M13.5285 226.85V216.359L20.8275 203.77L30.5095 198.18L36.4575 201.571V209.84L38.2975 208.784V200.502L30.5035 196.059L19.4825 202.422L11.6885 215.864V227.906L13.5285 226.85Z" fill="#72B5E8"/>
<path d="M11.3994 197.919L19.4824 202.422L30.5034 196.059L19.4904 202.026L11.3994 197.919Z" fill="white"/>
<path d="M175.474 165.763L164.118 158.711C164.118 158.711 169.067 156.712 172.212 158.576C175.854 160.734 175.474 165.763 175.474 165.763Z" fill="#03336E"/>
<path d="M146.595 177.94C146.595 181.287 147.75 183.658 149.628 184.806C149.684 184.84 155.561 188.242 155.618 188.274C157.572 189.366 156.322 186.887 159.29 185.174C165.262 181.726 170.103 173.376 170.103 166.523C170.103 163.134 173.236 163.107 171.317 161.976C171.263 161.944 165.011 158.484 164.956 158.455C163.007 157.4 160.344 157.594 157.408 159.29C151.437 162.737 146.595 171.087 146.595 177.94Z" fill="#084C94"/>
<path d="M171.274 179.699C175.523 172.431 175.566 164.55 171.37 162.096C167.174 159.643 160.327 163.547 156.078 170.816C151.829 178.084 151.785 185.965 155.982 188.418C160.178 190.872 167.024 186.968 171.274 179.699Z" fill="#03336E"/>
<path d="M163.152 162.584C166.015 160.931 168.616 160.708 170.55 161.676C168.747 161.172 166.51 161.548 164.086 162.948C158.114 166.396 153.273 174.746 153.273 181.599C153.273 185.167 154.587 187.622 156.688 188.672C154.048 187.934 152.339 185.307 152.339 181.235C152.339 174.382 157.18 166.032 163.152 162.584Z" fill="#2672AB"/>
<path d="M150.149 180.624C150.149 172.528 155.868 162.663 162.924 158.59C166.801 156.352 170.272 156.332 172.614 158.108C172.513 157.945 172.306 157.77 171.957 157.565C171.894 157.528 164.507 153.44 164.443 153.405C162.141 152.158 158.995 152.388 155.525 154.391C148.47 158.464 142.75 168.329 142.75 176.425L150.149 180.624Z" fill="#3F92D1"/>
<path d="M149.536 180.317C149.536 172.221 155.255 162.356 162.31 158.283C165.692 156.33 168.765 156.067 171.05 157.21C168.92 156.614 166.277 157.059 163.413 158.712C156.508 162.699 150.882 172.233 150.646 180.227L149.536 180.317Z" fill="#72B5E8"/>
<path d="M163.757 167.773C159.903 169.998 156.768 175.406 156.768 179.827C156.768 184.249 159.903 186.037 163.757 183.812C167.611 181.587 170.746 176.179 170.746 171.757C170.746 167.336 167.611 165.548 163.757 167.773Z" fill="#A8CFF0"/>
<path d="M168.273 167.094C169.328 167.887 169.978 169.325 169.978 171.319C169.978 175.741 166.843 181.149 162.989 183.374C161.269 184.367 159.699 184.55 158.481 184.067C159.763 185.03 161.647 185.032 163.757 183.813C167.611 181.588 170.746 176.18 170.746 171.758C170.746 169.315 169.78 167.694 168.273 167.094Z" fill="#72B5E8"/>
<path d="M159.259 177.643C159.259 179.957 160.894 180.889 162.91 179.725C164.926 178.561 166.561 175.741 166.561 173.427C166.561 171.113 164.926 170.181 162.91 171.345C160.894 172.51 159.259 175.33 159.259 177.643Z" fill="#3F92D1"/>
<path d="M166.09 177.396C167.525 174.941 167.539 172.28 166.122 171.451C164.705 170.623 162.393 171.941 160.959 174.396C159.524 176.85 159.509 179.511 160.926 180.34C162.343 181.168 164.655 179.85 166.09 177.396Z" fill="#2672AB"/>
<path d="M151.722 179.556C152.069 172.172 157.254 163.476 163.601 159.811C169.925 156.16 175.094 158.837 175.475 165.764L175.694 165.637C175.582 157.716 169.91 154.557 162.925 158.59C155.915 162.637 150.227 172.401 150.154 180.467L151.722 179.556Z" fill="#2672AB"/>
<path d="M300.192 24.1523V75.9633L145.897 165.689V113.726L300.192 24.1523Z" fill="#084C94"/>
<path opacity="0.3" d="M297.758 28.3789L148.332 115.126V161.455L297.758 74.5599V28.3789Z" fill="#2672AB"/>
<path d="M296.208 73.9399V29.2789L297.759 28.3789V74.5599L148.332 161.455V159.933L296.208 73.9399Z" fill="#03336E"/>
<path d="M145.914 113.725V165.688L103.588 141.609V89.5352L145.914 113.725Z" fill="#2672AB"/>
<path d="M103.588 89.535L145.914 113.725L300.193 24.151L257.839 0L103.588 89.535Z" fill="#3F92D1"/>
<path d="M103.588 89.5363L145.914 113.726L300.193 24.1523L146.237 112.786L103.588 89.5363Z" fill="#72B5E8"/>
<g opacity="0.3">
<path d="M152.405 113.871L151.722 114.29V157.927L152.405 157.508V113.871Z" fill="#03336E"/>
<path d="M158.442 110.371L157.76 110.79V154.428L158.442 154.008V110.371Z" fill="#03336E"/>
<path d="M164.48 106.871L163.797 107.29V150.927L164.48 150.508V106.871Z" fill="#03336E"/>
<path d="M170.517 103.371L169.835 103.79V147.427L170.517 147.008V103.371Z" fill="#03336E"/>
<path d="M176.555 99.8711L175.872 100.291V143.928L176.555 143.509V99.8711Z" fill="#03336E"/>
<path d="M182.592 96.3711L181.91 96.7901V140.427L182.592 140.008V96.3711Z" fill="#03336E"/>
<path d="M188.629 92.8711L187.946 93.2901V136.928L188.629 136.508V92.8711Z" fill="#03336E"/>
<path d="M194.666 89.375L193.983 89.794V133.431L194.666 133.011V89.375Z" fill="#03336E"/>
<path d="M200.703 85.875L200.021 86.294V129.931L200.703 129.512V85.875Z" fill="#03336E"/>
<path d="M206.742 82.375L206.059 82.794V126.432L206.742 126.012V82.375Z" fill="#03336E"/>
<path d="M212.779 78.875L212.097 79.294V122.931L212.779 122.512V78.875Z" fill="#03336E"/>
<path d="M218.817 75.375L218.134 75.794V119.431L218.817 119.012V75.375Z" fill="#03336E"/>
<path d="M224.854 71.875L224.172 72.294V115.932L224.854 115.512V71.875Z" fill="#03336E"/>
<path d="M230.892 68.375L230.209 68.794V112.431L230.892 112.012V68.375Z" fill="#03336E"/>
<path d="M236.929 64.875L236.247 65.294V108.931L236.929 108.512V64.875Z" fill="#03336E"/>
<path d="M242.966 61.375L242.283 61.794V105.432L242.966 105.012V61.375Z" fill="#03336E"/>
<path d="M249.003 57.875L248.321 58.294V101.931L249.003 101.512V57.875Z" fill="#03336E"/>
<path d="M255.04 54.375L254.358 54.794V98.431L255.04 98.012V54.375Z" fill="#03336E"/>
<path d="M261.079 50.875L260.396 51.295V94.932L261.079 94.512V50.875Z" fill="#03336E"/>
<path d="M267.116 47.3789L266.434 47.7979V91.4349L267.116 91.0159V47.3789Z" fill="#03336E"/>
<path d="M273.154 43.8789L272.471 44.2979V87.9359L273.154 87.5159V43.8789Z" fill="#03336E"/>
<path d="M279.191 40.3789L278.509 40.7979V84.4349L279.191 84.0159V40.3789Z" fill="#03336E"/>
<path d="M285.229 36.8789L284.546 37.2979V80.9349L285.229 80.5159V36.8789Z" fill="#03336E"/>
<path d="M291.266 33.3789L290.584 33.7979V77.4359L291.266 77.0159V33.3789Z" fill="#03336E"/>
</g>
<g opacity="0.3">
<path d="M153.109 112.953L152.427 113.372V157.01L153.109 156.59V112.953Z" fill="#3F92D1"/>
<path d="M159.147 109.453L158.464 109.872V153.509L159.147 153.09V109.453Z" fill="#3F92D1"/>
<path d="M165.184 105.953L164.502 106.372V150.009L165.184 149.59V105.953Z" fill="#3F92D1"/>
<path d="M171.222 102.453L170.539 102.872V146.51L171.222 146.09V102.453Z" fill="#3F92D1"/>
<path d="M177.259 98.9531L176.577 99.3721V143.009L177.259 142.59V98.9531Z" fill="#3F92D1"/>
<path d="M183.296 95.4531L182.613 95.8721V139.509L183.296 139.09V95.4531Z" fill="#3F92D1"/>
<path d="M189.333 91.9531L188.65 92.3731V136.01L189.333 135.591V91.9531Z" fill="#3F92D1"/>
<path d="M195.37 88.4531L194.688 88.8721V132.509L195.37 132.09V88.4531Z" fill="#3F92D1"/>
<path d="M201.409 84.9531L200.726 85.3721V129.01L201.409 128.59V84.9531Z" fill="#3F92D1"/>
<path d="M207.446 81.457L206.764 81.876V125.513L207.446 125.094V81.457Z" fill="#3F92D1"/>
<path d="M213.484 77.957L212.801 78.376V122.013L213.484 121.594V77.957Z" fill="#3F92D1"/>
<path d="M219.521 74.457L218.839 74.876V118.514L219.521 118.094V74.457Z" fill="#3F92D1"/>
<path d="M225.559 70.957L224.876 71.376V115.013L225.559 114.594V70.957Z" fill="#3F92D1"/>
<path d="M231.596 67.457L230.914 67.876V111.513L231.596 111.094V67.457Z" fill="#3F92D1"/>
<path d="M237.634 63.957L236.951 64.377V108.014L237.634 107.594V63.957Z" fill="#3F92D1"/>
<path d="M243.67 60.457L242.988 60.876V104.513L243.67 104.094V60.457Z" fill="#3F92D1"/>
<path d="M249.707 56.957L249.025 57.376V101.013L249.707 100.594V56.957Z" fill="#3F92D1"/>
<path d="M255.745 53.457L255.062 53.876V97.514L255.745 97.095V53.457Z" fill="#3F92D1"/>
<path d="M261.783 49.957L261.101 50.376V94.013L261.783 93.594V49.957Z" fill="#3F92D1"/>
<path d="M267.821 46.457L267.138 46.876V90.513L267.821 90.094V46.457Z" fill="#3F92D1"/>
<path d="M273.858 42.9609L273.176 43.3799V87.0169L273.858 86.5979V42.9609Z" fill="#3F92D1"/>
<path d="M279.896 39.4609L279.213 39.8799V83.5169L279.896 83.0979V39.4609Z" fill="#3F92D1"/>
<path d="M285.933 35.9609L285.251 36.3799V80.0179L285.933 79.5979V35.9609Z" fill="#3F92D1"/>
<path d="M291.971 32.4609L291.288 32.8799V76.5169L291.971 76.0979V32.4609Z" fill="#3F92D1"/>
</g>
<g opacity="0.3">
<path d="M295.837 23.4023L296.383 23.7533L146.027 110.4L145.482 110.05L295.837 23.4023Z" fill="#72B5E8"/>
<path d="M291.645 20.9727L292.19 21.3227L141.835 107.971L141.289 107.62L291.645 20.9727Z" fill="#72B5E8"/>
<path d="M287.452 18.543L287.998 18.893L137.642 105.541L137.097 105.19L287.452 18.543Z" fill="#72B5E8"/>
<path d="M283.259 16.1133L283.805 16.4643L133.45 103.111L132.904 102.761L283.259 16.1133Z" fill="#72B5E8"/>
<path d="M279.067 13.6836L279.613 14.0346L129.257 100.682L128.711 100.331L279.067 13.6836Z" fill="#72B5E8"/>
<path d="M274.874 11.2539L275.42 11.6039L125.065 98.2519L124.519 97.9009L274.874 11.2539Z" fill="#72B5E8"/>
<path d="M270.682 8.82031L271.227 9.17031L120.872 95.8183L120.326 95.4673L270.682 8.82031Z" fill="#72B5E8"/>
<path d="M266.489 6.39062L267.035 6.74162L116.679 93.3886L116.134 93.0386L266.489 6.39062Z" fill="#72B5E8"/>
<path d="M262.297 3.96094L262.842 4.31194L112.487 90.9589L111.941 90.6089L262.297 3.96094Z" fill="#72B5E8"/>
<path d="M258.104 1.53125L258.65 1.88125L108.294 88.5293L107.749 88.1783L258.104 1.53125Z" fill="#72B5E8"/>
</g>
<g opacity="0.3">
<path d="M296.802 23.418L297.347 23.769L146.992 110.416L146.446 110.065L296.802 23.418Z" fill="#2672AB"/>
<path d="M292.609 20.9883L293.155 21.3383L142.799 107.986L142.254 107.635L292.609 20.9883Z" fill="#2672AB"/>
<path d="M288.416 18.5586L288.962 18.9086L138.607 105.557L138.061 105.206L288.416 18.5586Z" fill="#2672AB"/>
<path d="M284.224 16.1289L284.77 16.4799L134.414 103.127L133.868 102.777L284.224 16.1289Z" fill="#2672AB"/>
<path d="M280.031 13.6992L280.577 14.0502L130.222 100.697L129.676 100.346L280.031 13.6992Z" fill="#2672AB"/>
<path d="M275.838 11.2695L276.383 11.6195L126.028 98.2675L125.482 97.9165L275.838 11.2695Z" fill="#2672AB"/>
<path d="M271.646 8.83594L272.192 9.18594L121.836 95.8339L121.291 95.4829L271.646 8.83594Z" fill="#2672AB"/>
<path d="M267.454 6.40625L267.999 6.75725L117.644 93.4042L117.098 93.0543L267.454 6.40625Z" fill="#2672AB"/>
<path d="M263.261 3.97656L263.807 4.32756L113.451 90.9746L112.906 90.6236L263.261 3.97656Z" fill="#2672AB"/>
<path d="M259.068 1.54688L259.614 1.89687L109.259 88.5449L108.713 88.1939L259.068 1.54688Z" fill="#2672AB"/>
</g>
<path d="M41.0758 163.584C40.9668 163.584 40.8588 163.534 40.7888 163.439L38.6798 160.562C38.0498 159.703 37.7168 158.686 37.7168 157.62V150.634C37.7168 148.351 39.2628 146.368 41.4758 145.811L47.6018 144.265C47.7938 144.215 47.9858 144.332 48.0328 144.523C48.0818 144.713 47.9658 144.906 47.7758 144.954L41.6498 146.5C39.7528 146.978 38.4278 148.678 38.4278 150.635V157.621C38.4278 158.535 38.7128 159.406 39.2538 160.143L41.3628 163.02C41.4788 163.178 41.4448 163.401 41.2868 163.517C41.2228 163.562 41.1488 163.584 41.0758 163.584Z" fill="#A8CFF0"/>
<path d="M39.3536 159.263L37.6396 158.274C36.8856 157.839 36.2686 156.66 36.2686 155.654V147.785C36.2686 146.78 36.8856 146.313 37.6396 146.749L39.3536 147.738C40.1076 148.173 40.7246 149.352 40.7246 150.357V158.226C40.7246 159.232 40.1076 159.699 39.3536 159.263Z" fill="#A8CFF0"/>
<path d="M39.3534 147.739L37.6393 146.75C37.2053 146.499 36.8213 146.555 36.5693 146.833C36.7503 146.819 36.9513 146.863 37.1653 146.987L38.8794 147.976C39.6334 148.411 40.2503 149.59 40.2503 150.595V158.464C40.2503 158.891 40.1343 159.212 39.9493 159.417C40.4053 159.383 40.7244 158.947 40.7244 158.227V150.358C40.7244 149.353 40.1074 148.175 39.3534 147.739Z" fill="#72B5E8"/>
<path d="M11.624 191.266L36.174 205.205V239.467L11.714 225.258L11.624 191.266Z" fill="#A8CFF0"/>
<path d="M11.624 191.267L36.174 205.206L67.559 182.814L36.534 165.008L11.624 191.267Z" fill="#D1EBFF"/>
<path d="M11.624 191.266L36.174 205.204L67.559 182.812L36.174 204.786L11.624 191.266Z" fill="white"/>
<path d="M36.5342 165.005L67.5592 182.811L77.9902 160.509L47.5952 142.883L36.5342 165.005Z" fill="#A8CFF0"/>
<path d="M39.9794 162.943L47.8194 147.263C48.1874 146.526 49.1014 146.253 49.8134 146.666L74.0674 160.73C74.7074 161.101 74.9584 161.9 74.6444 162.571L67.2564 178.366C66.9024 179.123 65.9764 179.416 65.2514 179L40.5454 164.821C39.8894 164.444 39.6404 163.62 39.9794 162.943Z" fill="#001A46"/>
<path d="M66.5241 177.529C66.3691 177.529 66.2201 177.489 66.0831 177.411L41.3771 163.232C40.9691 162.998 40.8141 162.485 41.0241 162.063L48.3001 147.504C48.4521 147.201 48.7571 147.012 49.0971 147.012C49.2521 147.012 49.4061 147.054 49.5411 147.132L73.7941 161.197C74.1961 161.43 74.3501 161.922 74.1531 162.342L67.3291 177.016C67.1861 177.328 66.8691 177.529 66.5241 177.529Z" fill="#084C94"/>
<path d="M143.987 127.14L105.204 104.781C99.1652 108.298 95.4512 111.229 95.4512 118.217L95.5122 144.925L134.145 167.422L143.987 127.14Z" fill="#D1EBFF"/>
<path d="M134.105 140.649V167.347L144.012 161.408V127.066L143.858 127.212C137.819 130.729 134.105 133.66 134.105 140.649Z" fill="#72B5E8"/>
<path d="M143.987 114.277L105.204 91.918C99.1652 95.435 95.4512 98.366 95.4512 105.354L95.5122 132.062L134.145 154.559L143.987 114.277Z" fill="#084C94"/>
<path d="M134.105 127.786V154.484L144.012 148.545V114.203L143.858 114.349C137.819 117.867 134.105 120.798 134.105 127.786Z" fill="#03336E"/>
<path d="M142.075 123.89L136.37 127.142C136.023 127.342 135.809 127.712 135.809 128.112V128.364C135.809 128.716 136.189 128.935 136.494 128.76L142.199 125.508C142.546 125.308 142.76 124.938 142.76 124.537V124.286C142.76 123.934 142.38 123.714 142.075 123.89Z" fill="#084C94"/>
<path d="M142.278 123.833C142.325 123.904 142.355 123.989 142.355 124.084V124.336C142.355 124.736 142.141 125.107 141.794 125.306L136.089 128.558C136.023 128.596 135.954 128.612 135.886 128.616C136.012 128.805 136.272 128.888 136.494 128.761L142.199 125.509C142.546 125.309 142.76 124.939 142.76 124.538V124.286C142.76 124.011 142.526 123.82 142.278 123.833Z" fill="#001A46"/>
<path d="M142.075 127.042L136.37 130.294C136.023 130.494 135.809 130.864 135.809 131.264V131.516C135.809 131.868 136.189 132.087 136.494 131.912L142.199 128.66C142.546 128.46 142.76 128.09 142.76 127.69V127.438C142.76 127.086 142.38 126.866 142.075 127.042Z" fill="#084C94"/>
<path d="M142.278 126.985C142.325 127.056 142.355 127.141 142.355 127.237V127.489C142.355 127.889 142.141 128.259 141.794 128.459L136.089 131.711C136.023 131.749 135.954 131.765 135.886 131.769C136.012 131.958 136.272 132.041 136.494 131.914L142.199 128.662C142.546 128.462 142.76 128.092 142.76 127.692V127.44C142.76 127.163 142.526 126.971 142.278 126.985Z" fill="#001A46"/>
<path d="M142.075 130.19L136.37 133.442C136.023 133.642 135.809 134.012 135.809 134.412V134.664C135.809 135.016 136.189 135.236 136.494 135.06L142.199 131.808C142.546 131.608 142.76 131.238 142.76 130.837V130.586C142.76 130.235 142.38 130.015 142.075 130.19Z" fill="#084C94"/>
<path d="M142.278 130.133C142.325 130.204 142.355 130.289 142.355 130.384V130.636C142.355 131.036 142.141 131.407 141.794 131.607L136.089 134.859C136.023 134.897 135.954 134.913 135.886 134.917C136.012 135.106 136.272 135.189 136.494 135.062L142.199 131.81C142.546 131.61 142.76 131.24 142.76 130.84V130.588C142.76 130.311 142.526 130.12 142.278 130.133Z" fill="#001A46"/>
<path d="M142.075 133.343L136.37 136.595C136.023 136.795 135.809 137.165 135.809 137.565V137.817C135.809 138.169 136.189 138.388 136.494 138.213L142.199 134.961C142.546 134.761 142.76 134.391 142.76 133.991V133.739C142.76 133.387 142.38 133.167 142.075 133.343Z" fill="#084C94"/>
<path d="M142.278 133.286C142.325 133.357 142.355 133.442 142.355 133.538V133.79C142.355 134.19 142.141 134.56 141.794 134.76L136.089 138.012C136.023 138.05 135.954 138.066 135.886 138.07C136.012 138.259 136.272 138.342 136.494 138.215L142.199 134.963C142.546 134.763 142.76 134.393 142.76 133.993V133.741C142.76 133.464 142.526 133.272 142.278 133.286Z" fill="#001A46"/>
<path d="M142.075 136.491L136.37 139.743C136.023 139.943 135.809 140.313 135.809 140.714V140.966C135.809 141.318 136.189 141.537 136.494 141.362L142.199 138.11C142.546 137.91 142.76 137.54 142.76 137.14V136.888C142.76 136.536 142.38 136.316 142.075 136.491Z" fill="#084C94"/>
<path d="M142.278 136.434C142.325 136.505 142.355 136.59 142.355 136.685V136.937C142.355 137.337 142.141 137.707 141.794 137.907L136.089 141.159C136.023 141.197 135.954 141.213 135.886 141.217C136.012 141.406 136.272 141.489 136.494 141.362L142.199 138.11C142.546 137.91 142.76 137.54 142.76 137.14V136.888C142.76 136.612 142.526 136.42 142.278 136.434Z" fill="#001A46"/>
<path d="M142.075 139.643L136.37 142.895C136.023 143.095 135.809 143.465 135.809 143.865V144.117C135.809 144.469 136.189 144.689 136.494 144.513L142.199 141.261C142.546 141.061 142.76 140.691 142.76 140.291V140.039C142.76 139.688 142.38 139.468 142.075 139.643Z" fill="#084C94"/>
<path d="M142.278 139.587C142.325 139.658 142.355 139.743 142.355 139.838V140.09C142.355 140.49 142.141 140.86 141.794 141.06L136.089 144.312C136.023 144.35 135.954 144.366 135.886 144.37C136.012 144.559 136.272 144.642 136.494 144.515L142.199 141.263C142.546 141.063 142.76 140.693 142.76 140.293V140.041C142.76 139.765 142.526 139.574 142.278 139.587Z" fill="#001A46"/>
<path d="M142.075 142.792L136.37 146.044C136.023 146.244 135.809 146.614 135.809 147.014V147.266C135.809 147.618 136.189 147.837 136.494 147.662L142.199 144.41C142.546 144.21 142.76 143.84 142.76 143.44V143.188C142.76 142.836 142.38 142.616 142.075 142.792Z" fill="#084C94"/>
<path d="M142.278 142.735C142.325 142.806 142.355 142.891 142.355 142.986V143.238C142.355 143.638 142.141 144.008 141.794 144.209L136.089 147.461C136.023 147.499 135.954 147.515 135.886 147.519C136.012 147.708 136.272 147.791 136.494 147.664L142.199 144.412C142.546 144.212 142.76 143.842 142.76 143.442V143.19C142.76 142.913 142.526 142.722 142.278 142.735Z" fill="#001A46"/>
<path d="M142.075 145.944L136.37 149.196C136.023 149.396 135.809 149.766 135.809 150.167V150.419C135.809 150.771 136.189 150.99 136.494 150.815L142.199 147.563C142.546 147.363 142.76 146.993 142.76 146.592V146.341C142.76 145.989 142.38 145.769 142.075 145.944Z" fill="#084C94"/>
<path d="M142.278 145.887C142.325 145.958 142.355 146.043 142.355 146.138V146.39C142.355 146.79 142.141 147.161 141.794 147.361L136.089 150.613C136.023 150.651 135.954 150.667 135.886 150.671C136.012 150.86 136.272 150.943 136.494 150.816L142.199 147.564C142.546 147.364 142.76 146.994 142.76 146.593V146.341C142.76 146.065 142.526 145.873 142.278 145.887Z" fill="#001A46"/>
<path opacity="0.5" d="M41.3781 163.232C40.9701 162.998 40.8151 162.485 41.0251 162.063L48.3011 147.504C48.4531 147.201 48.7581 147.012 49.0981 147.012C49.2531 147.012 49.4071 147.054 49.5421 147.132L73.7951 161.197C74.1971 161.43 74.3511 161.922 74.1541 162.342L41.3781 163.232Z" fill="#2672AB"/>
<path d="M95.7067 114.625L126.732 132.431L77.9907 160.511L47.5957 142.885L95.7067 114.625Z" fill="#D1EBFF"/>
<path d="M78.0497 160.123L126.732 132.43L77.9907 160.51L47.5957 142.884L78.0497 160.123Z" fill="white"/>
<path d="M36.1748 239.466V205.204L67.5598 182.812L77.9908 160.51L126.732 132.43V187.218L36.1748 239.466Z" fill="#72B5E8"/>
<path d="M80.1352 165.566L74.0342 182.363L96.1562 169.683V153.676L84.3132 160.567C82.3772 161.692 80.8992 163.462 80.1352 165.566Z" fill="#03336E"/>
<path d="M95.3462 154.147V169.076L74.5252 181.011L74.0332 182.363L96.1562 169.683V153.676L95.3462 154.147Z" fill="#001A46"/>
<path opacity="0.5" d="M55.1543 210.081L72.9993 208.965V218.198L61.9383 223.729L55.1543 210.081Z" fill="#3F92D1"/>
<path d="M69.1912 220.098V228.367L59.7812 223.124L60.1982 214.879L69.1912 220.098Z" fill="#3F92D1"/>
<path d="M41.1387 237.238C41.1387 240.605 42.3007 242.99 44.1897 244.144C44.2467 244.179 49.8897 247.451 49.9477 247.483C51.9127 248.582 50.6557 246.088 53.6407 244.365C59.6477 240.897 64.5167 232.498 64.5167 225.606C64.5167 222.198 67.6677 222.17 65.7377 221.032C65.6837 221 59.6617 217.669 59.6067 217.639C57.6467 216.578 54.9677 216.773 52.0147 218.478C46.0077 221.946 41.1387 230.345 41.1387 237.238Z" fill="#084C94"/>
<path d="M65.6924 238.854C69.9663 231.544 70.0095 223.617 65.789 221.15C61.5685 218.682 54.6824 222.609 50.4085 229.919C46.1346 237.23 46.0913 245.156 50.3118 247.624C54.5324 250.091 61.4185 246.165 65.6924 238.854Z" fill="#03336E"/>
<path d="M50.2969 238.858C50.2969 243.769 53.7669 245.748 58.0469 243.276C62.3269 240.805 65.7969 234.82 65.7969 229.909C65.7969 224.998 62.3269 223.019 58.0469 225.49C53.7669 227.962 50.2969 233.947 50.2969 238.858Z" fill="#A8CFF0"/>
<path d="M62.4742 224.531C63.8562 225.339 64.7102 227.052 64.7102 229.487C64.7102 234.398 61.2402 240.383 56.9602 242.854C55.3132 243.805 53.7882 244.095 52.5322 243.814C53.9372 244.636 55.8882 244.522 58.0462 243.276C62.3262 240.805 65.7962 234.82 65.7962 229.909C65.7962 226.888 64.4812 224.979 62.4742 224.531Z" fill="#72B5E8"/>
<path d="M57.5244 221.644C60.4034 219.982 63.0195 219.757 64.9655 220.73C63.1515 220.223 60.9014 220.602 58.4634 222.009C52.4564 225.477 47.5874 233.876 47.5874 240.768C47.5874 244.357 48.9094 246.826 51.0224 247.883C48.3674 247.14 46.6484 244.499 46.6484 240.403C46.6484 233.511 51.5174 225.112 57.5244 221.644Z" fill="#2672AB"/>
<path d="M56.9417 227.149C56.3827 227.472 55.9297 228.254 55.9297 228.895C55.9297 229.537 56.3827 229.795 56.9417 229.472C57.5007 229.149 57.9547 228.367 57.9547 227.726C57.9547 227.085 57.5007 226.827 56.9417 227.149ZM56.9417 239.009C56.3827 239.332 55.9297 240.114 55.9297 240.755C55.9297 241.397 56.3827 241.655 56.9417 241.332C57.5007 241.009 57.9547 240.227 57.9547 239.586C57.9547 238.945 57.5007 238.687 56.9417 239.009ZM59.8797 229.173C60.2747 229.398 60.9157 229.028 61.3117 228.346C61.7067 227.664 61.7067 226.928 61.3117 226.703C60.9167 226.478 60.2757 226.848 59.8797 227.53C59.4847 228.212 59.4847 228.948 59.8797 229.173ZM54.0037 239.309C53.6087 239.084 52.9677 239.454 52.5717 240.136C52.1767 240.818 52.1767 241.554 52.5717 241.779C52.9667 242.004 53.6077 241.634 54.0037 240.952C54.3987 240.27 54.3987 239.535 54.0037 239.309ZM62.1097 230.096C61.5507 230.419 61.0977 231.201 61.0977 231.842C61.0977 232.484 61.5507 232.742 62.1097 232.419C62.6687 232.096 63.1227 231.314 63.1227 230.673C63.1217 230.031 62.6687 229.773 62.1097 230.096ZM51.7737 236.063C51.2147 236.386 50.7617 237.168 50.7617 237.809C50.7617 238.45 51.2147 238.709 51.7737 238.386C52.3327 238.063 52.7867 237.281 52.7867 236.64C52.7867 235.999 52.3337 235.74 51.7737 236.063ZM61.3117 235.09C60.9167 234.865 60.2757 235.235 59.8797 235.917C59.4847 236.599 59.4847 237.335 59.8797 237.56C60.2747 237.785 60.9157 237.415 61.3117 236.733C61.7067 236.051 61.7067 235.315 61.3117 235.09ZM54.0037 230.923C53.6087 230.698 52.9677 231.068 52.5717 231.75C52.1767 232.432 52.1767 233.168 52.5717 233.393C52.9667 233.618 53.6077 233.248 54.0037 232.566C54.3987 231.884 54.3987 231.148 54.0037 230.923Z" fill="#03336E"/>
<path d="M53.8096 235.596C53.8096 236.524 54.1296 237.181 54.6506 237.499C54.6666 237.508 55.8976 238.246 55.8976 238.246C56.4546 238.558 56.1085 237.871 56.9315 237.396C58.5865 236.44 59.9286 234.126 59.9286 232.227C59.9286 231.288 60.7966 231.28 60.2646 230.967C60.2496 230.958 58.9136 230.204 58.8986 230.196C58.3586 229.903 57.6205 229.957 56.8065 230.427C55.1505 231.382 53.8096 233.696 53.8096 235.596Z" fill="#3F92D1"/>
<path d="M55.1484 236.377C55.1484 238.276 56.4904 239.041 58.1454 238.086C59.8004 237.13 61.1425 234.816 61.1425 232.917C61.1425 231.018 59.8004 230.253 58.1454 231.208C56.4904 232.163 55.1484 234.478 55.1484 236.377Z" fill="#2672AB"/>
<path d="M44.4229 246.368V234.391L52.2159 220.948L63.1978 214.608L55.1548 210.082L44.1328 216.446L36.3398 229.888V241.865L44.4229 246.368Z" fill="#D1EBFF"/>
<path opacity="0.7" d="M44.4229 246.367V234.39L36.3398 229.887V241.864L44.4229 246.367Z" fill="#72B5E8"/>
<path d="M44.4229 234.39L52.2159 220.947L44.1328 216.445L36.3398 229.887L44.4229 234.39Z" fill="#A8CFF0"/>
<path d="M46.2618 245.377V234.886L53.5618 222.297L63.2438 216.707L69.1908 220.098V228.367L71.0309 227.311V219.029L63.2379 214.586L52.2159 220.949L44.4229 234.392V246.433L46.2618 245.377Z" fill="#72B5E8"/>
<path d="M44.1328 216.447L52.2158 220.949L63.2378 214.586L52.2248 220.554L44.1328 216.447Z" fill="white"/>
<path d="M114.414 189.953C114.505 189.953 114.593 189.999 114.644 190.082C114.722 190.209 114.681 190.375 114.554 190.453C113.702 190.974 113.232 192.059 113.232 193.507C113.232 196.694 115.492 200.592 118.27 202.196C119.543 202.931 120.731 203.071 121.618 202.592C121.749 202.522 121.913 202.569 121.984 202.7C122.055 202.831 122.007 202.995 121.876 203.066C120.818 203.639 119.443 203.495 118.001 202.663C115.075 200.973 112.693 196.866 112.693 193.507C112.693 191.863 113.254 190.615 114.273 189.992C114.317 189.966 114.366 189.953 114.414 189.953Z" fill="#D1EBFF"/>
<path d="M121.317 186.086C121.408 186.086 121.496 186.132 121.547 186.215C121.624 186.342 121.584 186.508 121.457 186.586C120.605 187.107 120.135 188.191 120.135 189.64C120.135 192.827 122.395 196.725 125.173 198.329C126.446 199.064 127.634 199.204 128.521 198.725C128.652 198.655 128.815 198.702 128.887 198.833C128.958 198.964 128.91 199.128 128.778 199.199C127.72 199.772 126.345 199.629 124.904 198.797C121.977 197.107 119.596 193 119.596 189.641C119.596 187.997 120.157 186.749 121.176 186.126C121.22 186.099 121.269 186.086 121.317 186.086Z" fill="#D1EBFF"/>
<path d="M137.081 191.466C137.081 193.012 136.547 194.109 135.68 194.639C135.654 194.655 113.591 207.219 113.565 207.234C112.662 207.739 113.24 206.592 111.869 205.801C109.11 204.208 106.874 200.351 106.874 197.186C106.874 195.621 105.427 195.607 106.313 195.084C106.338 195.069 128.574 182.478 128.599 182.464C129.499 181.977 130.729 182.067 132.086 182.85C134.844 184.444 137.081 188.301 137.081 191.466Z" fill="#A8CFF0"/>
<path d="M128.807 199.171C128.716 199.171 128.628 199.125 128.577 199.042C128.5 198.915 128.54 198.749 128.667 198.671C129.519 198.15 129.989 197.066 129.989 195.617C129.989 192.43 127.729 188.532 124.951 186.928C123.678 186.193 122.49 186.053 121.604 186.532C121.473 186.602 121.309 186.555 121.238 186.423C121.167 186.292 121.215 186.128 121.347 186.057C122.405 185.484 123.78 185.627 125.221 186.459C128.148 188.149 130.529 192.256 130.529 195.615C130.529 197.259 129.968 198.507 128.949 199.13C128.904 199.158 128.855 199.171 128.807 199.171Z" fill="#72B5E8"/>
<path d="M128.605 199.264C128.514 199.264 128.426 199.218 128.375 199.135C128.298 199.008 128.338 198.842 128.465 198.764C129.317 198.243 129.787 197.159 129.787 195.71C129.787 192.523 127.527 188.625 124.749 187.021C123.476 186.286 122.288 186.146 121.402 186.625C121.271 186.695 121.107 186.648 121.036 186.516C120.965 186.385 121.013 186.221 121.145 186.15C122.203 185.577 123.578 185.721 125.019 186.553C127.946 188.243 130.327 192.35 130.327 195.709C130.327 197.353 129.766 198.601 128.747 199.224C128.701 199.251 128.653 199.264 128.605 199.264Z" fill="#D1EBFF"/>
<path d="M121.905 203.041C121.814 203.041 121.726 202.995 121.675 202.912C121.597 202.785 121.638 202.619 121.765 202.541C122.617 202.02 123.087 200.936 123.087 199.487C123.087 196.3 120.827 192.402 118.049 190.798C116.776 190.063 115.588 189.923 114.701 190.402C114.57 190.472 114.406 190.425 114.335 190.293C114.264 190.162 114.312 189.998 114.444 189.927C115.502 189.354 116.877 189.498 118.318 190.33C121.244 192.02 123.626 196.127 123.626 199.486C123.626 201.13 123.065 202.378 122.046 203.001C122.002 203.028 121.953 203.041 121.905 203.041Z" fill="#72B5E8"/>
<path d="M121.702 203.131C121.611 203.131 121.523 203.085 121.472 203.002C121.394 202.875 121.434 202.709 121.562 202.631C122.414 202.11 122.884 201.026 122.884 199.577C122.884 196.39 120.624 192.492 117.846 190.888C116.573 190.153 115.385 190.013 114.498 190.492C114.367 190.562 114.203 190.515 114.132 190.384C114.061 190.253 114.109 190.089 114.24 190.018C115.298 189.445 116.673 189.588 118.115 190.42C121.041 192.11 123.423 196.217 123.423 199.576C123.423 201.22 122.862 202.468 121.843 203.091C121.799 203.118 121.75 203.131 121.702 203.131Z" fill="#D1EBFF"/>
<path d="M110.085 195.368C108.763 194.605 107.561 194.502 106.667 194.948C107.5 194.715 108.533 194.889 109.653 195.535C112.412 197.128 114.648 200.985 114.648 204.151C114.648 205.799 114.041 206.933 113.07 207.418C114.289 207.077 115.079 205.864 115.079 203.983C115.08 200.818 112.843 196.961 110.085 195.368Z" fill="#D1EBFF"/>
<path d="M114.84 204.103C114.84 207.269 112.604 208.544 109.845 206.951C107.086 205.358 104.85 201.501 104.85 198.335C104.85 195.169 107.086 193.894 109.845 195.487C112.604 197.08 114.84 200.937 114.84 204.103Z" fill="#ADD2F0"/>
<path d="M42.6953 241.068V251.941L44.4473 250.866V239.992L42.6953 241.068Z" fill="#084C94"/>
<path d="M42.7105 241.071V251.944L1.6875 228.462V217.605L42.7105 241.071Z" fill="#2672AB"/>
<path d="M1.6875 217.604L42.7105 241.07L44.4475 239.994L3.39551 216.512L1.6875 217.604Z" fill="#3F92D1"/>
<path d="M8.46643 212.089C7.55843 211.57 6.55144 211.589 5.72144 211.976L5.71146 211.97L4.25043 212.824L4.53845 212.956C4.19445 213.437 3.98145 214.027 3.98145 214.693V216.445L12.5024 222.334L13.4244 221.772V214.846L8.46643 212.089Z" fill="#3F92D1"/>
<path d="M12.6532 215.324C12.3092 215.805 12.5001 222.332 12.5001 222.332L13.4222 221.77V214.844L12.6532 215.324Z" fill="#084C94"/>
<path d="M12.6676 215.32L12.4866 222.282L3.22461 216.919V215.167C3.22461 212.865 5.7116 211.421 7.7106 212.563L12.6676 215.32Z" fill="#72B5E8"/>
<path d="M12.5016 215.386V222.313L3.05957 216.986V215.234C3.05957 212.932 5.54656 211.488 7.54556 212.63L12.5016 215.386Z" fill="#2672AB"/>
<path d="M4.1377 216.355V215.233C4.1377 214.045 5.13668 213.309 6.06168 213.309C6.39168 213.309 6.7107 213.395 7.0087 213.566L11.4217 216.02V220.464L4.1377 216.355Z" fill="white"/>
<path d="M4.8447 216.038V214.916C4.8447 214.218 5.1927 213.683 5.6637 213.355C4.8717 213.53 4.1377 214.212 4.1377 215.231V216.353L11.4217 220.462V219.749L4.8447 216.038Z" fill="#D1EBFF"/>
<path d="M79.1627 184.518C79.0427 184.518 78.9257 184.457 78.8587 184.346C78.7577 184.178 78.8107 183.96 78.9797 183.859L81.3877 182.407C82.6597 181.639 83.4497 180.24 83.4497 178.755V169.363C83.4497 167.933 82.7397 166.607 81.5507 165.814L79.1877 164.237C79.0247 164.128 78.9807 163.907 79.0887 163.744C79.1987 163.58 79.4187 163.537 79.5817 163.646L81.9447 165.223C83.3317 166.148 84.1607 167.695 84.1607 169.363V178.755C84.1607 180.488 83.2388 182.12 81.7548 183.015L79.3467 184.467C79.2887 184.502 79.2257 184.518 79.1627 184.518Z" fill="#A8CFF0"/>
<path d="M85.3194 180.904L83.6054 179.914C82.8514 179.479 82.2344 178.3 82.2344 177.295V169.426C82.2344 168.421 82.8514 167.954 83.6054 168.39L85.3194 169.379C86.0734 169.814 86.6904 170.993 86.6904 171.998V179.867C86.6904 180.872 86.0734 181.339 85.3194 180.904Z" fill="#A8CFF0"/>
<path d="M85.3201 169.38L83.6061 168.391C83.1721 168.14 82.7881 168.196 82.5361 168.474C82.7171 168.46 82.9181 168.504 83.1321 168.628L84.8461 169.617C85.6001 170.052 86.2171 171.231 86.2171 172.237V180.106C86.2171 180.533 86.1011 180.854 85.9161 181.059C86.3721 181.025 86.6911 180.589 86.6911 179.869V172C86.6911 170.995 86.0741 169.816 85.3201 169.38Z" fill="#72B5E8"/>
<path d="M52.4584 131.807C52.4174 131.807 52.3744 131.802 52.3324 131.791C52.0654 131.721 51.9044 131.448 51.9744 131.181C52.1464 130.521 52.3534 129.864 52.5894 129.226C52.6864 128.968 52.9714 128.835 53.2324 128.931C53.4914 129.027 53.6234 129.315 53.5274 129.574C53.3024 130.18 53.1064 130.805 52.9434 131.433C52.8844 131.658 52.6814 131.807 52.4584 131.807ZM54.3084 127.176C54.2264 127.176 54.1424 127.155 54.0664 127.113C53.8244 126.979 53.7374 126.674 53.8714 126.433C54.2014 125.837 54.5654 125.252 54.9544 124.692C55.1124 124.465 55.4234 124.408 55.6504 124.567C55.8774 124.725 55.9334 125.036 55.7764 125.263C55.4064 125.795 55.0594 126.352 54.7464 126.917C54.6534 127.084 54.4834 127.176 54.3084 127.176ZM57.2544 123.153C57.1314 123.153 57.0074 123.108 56.9104 123.016C56.7104 122.826 56.7014 122.51 56.8904 122.309C57.3604 121.813 57.8604 121.337 58.3744 120.894C58.5854 120.714 58.9004 120.739 59.0794 120.947C59.2604 121.156 59.2354 121.472 59.0264 121.653C58.5374 122.073 58.0624 122.525 57.6164 122.997C57.5194 123.101 57.3874 123.153 57.2544 123.153ZM61.1154 119.999C60.9484 119.999 60.7854 119.915 60.6904 119.763C60.5444 119.529 60.6164 119.221 60.8504 119.075C61.0054 118.978 61.1614 118.884 61.3194 118.792C61.5554 118.652 61.8634 118.732 62.0044 118.97C62.1444 119.208 62.0644 119.515 61.8254 119.654C61.6764 119.742 61.5274 119.832 61.3804 119.924C61.2974 119.975 61.2064 119.999 61.1154 119.999Z" fill="#A8CFF0"/>
<path d="M126.703 123.23L95.8371 105.523L65.7501 123.289C60.7171 126.22 57.6211 131.606 57.6211 137.431L57.6711 137.401L88.0831 154.81L126.703 123.23Z" fill="#D1EBFF"/>
<path opacity="0.5" d="M95.2496 147.23L100.386 141.799L67.0276 122.52L65.7496 123.287C63.8866 124.372 62.2906 125.795 61.0176 127.45L95.2496 147.23Z" fill="white"/>
<path d="M87.8438 154.703L126.519 132.4V123.086L95.9738 140.561C90.9398 143.492 87.8438 148.878 87.8438 154.703Z" fill="white"/>
<path d="M88.0498 154.785L126.725 132.482V123.168L96.1798 140.643C91.1458 143.575 88.0498 148.961 88.0498 154.785Z" fill="#72B5E8"/>
<path d="M108.505 200.202L109.645 200.76V206.763L106.585 205.621C103.424 204.442 101.329 201.423 101.329 198.05V168.701C102.071 168.203 103.163 167.887 104.384 167.887C105.605 167.887 106.698 168.203 107.439 168.701V198.494C107.439 199.22 107.853 199.883 108.505 200.202Z" fill="#A8CFF0"/>
<path d="M109.186 158.254H99.5811V199.36H99.583C99.583 199.373 99.5811 199.386 99.5811 199.399C99.5811 200.943 101.731 202.196 104.383 202.196C107.035 202.196 109.185 200.944 109.185 199.399C109.185 199.386 109.184 199.373 109.183 199.36H109.185L109.186 158.254Z" fill="#ADD2F0"/>
<path d="M104.384 161.071C107.036 161.071 109.186 159.818 109.186 158.274C109.186 156.729 107.036 155.477 104.384 155.477C101.732 155.477 99.582 156.729 99.582 158.274C99.582 159.818 101.732 161.071 104.384 161.071Z" fill="#D1EBFF"/>
<path d="M108.431 158.275C108.431 159.576 106.619 160.632 104.384 160.632C102.149 160.632 100.337 159.577 100.337 158.275C100.337 156.973 102.149 155.918 104.384 155.918C106.619 155.919 108.431 156.974 108.431 158.275Z" fill="#3F92D1"/>
<path d="M108.505 128.315L109.645 127.757V121.754L106.585 122.896C103.424 124.075 101.329 127.094 101.329 130.467V159.816C102.071 160.314 103.163 160.631 104.384 160.631C105.605 160.631 106.698 160.315 107.439 159.816V130.023C107.439 129.297 107.853 128.634 108.505 128.315Z" fill="#A8CFF0"/>
<path opacity="0.5" d="M103.678 159.96C103.264 159.96 102.862 159.909 102.506 159.818V130.526C102.506 127.953 104.126 125.62 106.537 124.72L107.054 124.527V126.641L106.969 126.682C105.681 127.312 104.849 128.647 104.849 130.081V159.817C104.494 159.909 104.092 159.96 103.678 159.96Z" fill="#D1EBFF"/>
<path opacity="0.5" d="M101.465 161.5L101.467 199.358C101.607 199.611 102.405 200.142 103.744 200.277L103.742 162.052C102.89 161.986 102.115 161.792 101.465 161.5Z" fill="#D1EBFF"/>
<path d="M24.2646 197.337L29.7166 203.561L48.4496 175.305L24.2646 197.337Z" fill="#A8CFF0"/>
<path opacity="0.3" d="M16.2109 196.145L24.2649 197.337L48.4499 175.305L16.2109 196.145Z" fill="white"/>
<path opacity="0.7" d="M23.7598 197.208L24.2648 197.337L48.4498 175.305L23.7598 197.208Z" fill="white"/>
<path d="M31.5957 206.775V234.748L33.3477 233.672V205.699L31.5957 206.775Z" fill="#084C94"/>
<path d="M31.6106 206.774V234.747L12.9736 224.203V196.246L22.9156 197.877L31.6106 206.774Z" fill="#2672AB"/>
<path d="M15.1318 224.787V202.68L29.4529 211.152V232.889L15.1318 224.787Z" fill="#084C94"/>
<path d="M16.2108 224.147V203.348L15.1318 202.68V224.787L29.4529 232.889V231.638L16.2108 224.147Z" fill="#03336E"/>
<path d="M22.916 197.877L31.611 206.774L33.348 205.698L24.597 196.82L22.916 197.877Z" fill="#3F92D1"/>
<path d="M22.916 197.875L31.611 206.772L33.348 205.696L31.571 206.332L22.916 197.875Z" fill="#72B5E8"/>
<path d="M14.6816 195.152L12.9736 196.244L22.9156 197.875L24.5966 196.818L14.6816 195.152Z" fill="#72B5E8"/>
<path d="M16.7168 225.717V203.555L17.8968 204.305V226.38L16.7168 225.717Z" fill="#2672AB"/>
<path d="M18.6725 225.922V204.838L17.8965 204.305V226.38L18.6725 225.922Z" fill="#03336E"/>
<path d="M19.3125 227.202V205.094L20.4935 205.844V227.865L19.3125 227.202Z" fill="#2672AB"/>
<path d="M21.2682 227.406V206.377L20.4932 205.844V227.865L21.2682 227.406Z" fill="#03336E"/>
<path d="M21.9092 228.639V206.477L23.0892 207.227V229.302L21.9092 228.639Z" fill="#2672AB"/>
<path d="M23.8658 228.845V207.869L23.0898 207.391V229.304L23.8658 228.845Z" fill="#03336E"/>
<path d="M24.5068 230.123V207.961L25.6868 208.711V230.786L24.5068 230.123Z" fill="#2672AB"/>
<path d="M26.4625 230.327V209.405L25.6865 208.926V230.785L26.4625 230.327Z" fill="#03336E"/>
<path d="M27.0693 231.599V209.438L28.2494 210.188V232.262L27.0693 231.599Z" fill="#2672AB"/>
<path d="M29.026 231.804V210.936L28.25 210.457V232.262L29.026 231.804Z" fill="#03336E"/>
<path d="M43.8773 235.976V239.131L42.9373 239.647L33.1093 234.189L32.7783 226.603L33.6933 226.039L40.1573 229.567C42.4583 230.882 43.8773 233.328 43.8773 235.976Z" fill="#3F92D1"/>
<path d="M43.2063 236.433L42.9663 239.659L33.0233 233.927L32.8203 226.617L39.4863 230.025C41.7863 231.338 43.2063 233.784 43.2063 236.433Z" fill="#72B5E8"/>
<path d="M42.9565 236.514V239.669L32.7734 234.008V226.578L39.2375 230.106C41.5365 231.42 42.9565 233.865 42.9565 236.514Z" fill="#2672AB"/>
<path d="M33.8525 233.375V228.398L38.7195 231.054C40.6605 232.163 41.8775 234.26 41.8775 236.515V237.835L33.8525 233.375Z" fill="white"/>
<path d="M34.5195 232.982V228.762L33.8525 228.398V233.374L41.8775 237.835V237.072L34.5195 232.982Z" fill="#D1EBFF"/>
<path d="M11.0375 233.758L10.9785 232.207C10.9785 230.563 12.7565 229.535 14.1815 230.354L28.2025 238.416C30.3815 239.669 31.7255 241.992 31.7255 244.506V245.715L11.0375 233.758Z" fill="#3F92D1"/>
<path d="M27.8351 239.842V243.595L14.2881 235.944V232.094L27.8351 239.842Z" fill="#D1EBFF"/>
<path d="M14.2881 232.094V232.652L27.3851 240.142V243.341L27.8351 243.595V239.842L14.2881 232.094Z" fill="white"/>
<path d="M7.43079 227.741C7.43079 228.825 6.66479 229.262 5.71979 228.716C4.77479 228.17 4.00879 226.85 4.00879 225.765C4.00879 224.681 4.77479 224.244 5.71979 224.79C6.66479 225.336 7.43079 226.657 7.43079 227.741Z" fill="#A8CFF0"/>
<path d="M6.61377 228.219C5.66877 227.673 4.90277 226.352 4.90277 225.268C4.90277 224.984 4.95779 224.748 5.05179 224.559C4.43879 224.504 4.00879 224.952 4.00879 225.764C4.00879 226.848 4.77479 228.169 5.71979 228.715C6.41779 229.118 7.01577 228.982 7.28177 228.448C7.07677 228.431 6.85077 228.356 6.61377 228.219Z" fill="#03336E"/>
<path d="M40.4796 246.581C40.4796 247.665 39.7136 248.102 38.7686 247.556C37.8236 247.01 37.0576 245.689 37.0576 244.605C37.0576 243.521 37.8236 243.084 38.7686 243.63C39.7136 244.176 40.4796 245.497 40.4796 246.581Z" fill="#A8CFF0"/>
<path d="M39.6636 247.059C38.7186 246.513 37.9526 245.192 37.9526 244.108C37.9526 243.824 38.0076 243.588 38.1016 243.399C37.4886 243.343 37.0586 243.792 37.0586 244.604C37.0586 245.688 37.8246 247.009 38.7696 247.555C39.4676 247.958 40.0656 247.822 40.3316 247.288C40.1256 247.271 39.9006 247.196 39.6636 247.059Z" fill="#03336E"/>
<path d="M34.7334 230.535L35.9264 233.059C35.9264 233.059 37.8584 231.379 37.4984 230.602C37.1364 229.825 34.7334 230.535 34.7334 230.535Z" fill="#FFCC00"/>
<path d="M36.3147 232.327C36.3147 232.963 35.8657 233.219 35.3107 232.899C34.7557 232.579 34.3066 231.804 34.3066 231.167C34.3066 230.531 34.7557 230.275 35.3107 230.595C35.8647 230.915 36.3147 231.69 36.3147 232.327Z" fill="#FFDE17"/>
<path d="M5.64062 215.141L6.75763 217.504C6.75763 217.504 8.56661 215.931 8.22961 215.203C7.89061 214.477 5.64062 215.141 5.64062 215.141Z" fill="#FFCC00"/>
<path d="M7.12024 216.818C7.12024 217.414 6.69924 217.654 6.18024 217.354C5.66124 217.054 5.24023 216.328 5.24023 215.732C5.24023 215.136 5.66124 214.896 6.18024 215.196C6.69924 215.496 7.12024 216.222 7.12024 216.818Z" fill="#FFDE17"/>
<path d="M7.94238 215.778L9.05939 218.141C9.05939 218.141 10.8684 216.568 10.5314 215.84C10.1924 215.114 7.94238 215.778 7.94238 215.778Z" fill="#FFCC00"/>
<path d="M9.422 217.454C9.422 218.05 9.00099 218.29 8.48199 217.99C7.96299 217.69 7.54199 216.964 7.54199 216.368C7.54199 215.772 7.96299 215.532 8.48199 215.832C9.00099 216.132 9.422 216.858 9.422 217.454Z" fill="#FFDE17"/>
<path d="M36.8643 232.716L38.0673 235.261C38.0673 235.261 40.6683 233.335 40.3043 232.552C39.9403 231.769 36.8643 232.716 36.8643 232.716Z" fill="#FFCC00"/>
<path d="M38.4586 234.522C38.4586 235.164 38.0056 235.422 37.4466 235.099C36.8876 234.776 36.4336 233.994 36.4336 233.353C36.4336 232.711 36.8866 232.453 37.4466 232.776C38.0056 233.099 38.4586 233.88 38.4586 234.522Z" fill="#FFDE17"/>
<path d="M57.2258 164.299L42.6199 161.113C42.4229 161.072 42.2328 161.193 42.1908 161.388C42.1488 161.582 42.2719 161.775 42.4659 161.817L47.7419 162.968L49.4689 168.899C49.5159 169.057 49.6589 169.159 49.8149 169.159C49.8479 169.159 49.8818 169.154 49.9158 169.145C50.1078 169.089 50.2168 168.889 50.1618 168.698L48.5439 163.143L57.0719 165.003C57.0979 165.009 57.1228 165.011 57.1488 165.011C57.3148 165.011 57.4648 164.896 57.5008 164.727C57.5438 164.533 57.4198 164.341 57.2258 164.299Z" fill="#001A46"/>
<path d="M68.1731 170.612L53.5671 167.426C53.3701 167.385 53.1801 167.506 53.1381 167.701C53.0961 167.896 53.2191 168.088 53.4131 168.13L58.6891 169.281L60.4161 175.212C60.4631 175.37 60.6061 175.472 60.7621 175.472C60.7951 175.472 60.8291 175.467 60.8631 175.458C61.0551 175.402 61.1641 175.202 61.1091 175.011L59.4911 169.456L68.0191 171.316C68.0451 171.322 68.0701 171.325 68.0961 171.325C68.2621 171.325 68.4111 171.21 68.4481 171.041C68.4911 170.847 68.3671 170.655 68.1731 170.612Z" fill="#001A46"/>
<path d="M93.45 176.858L91.221 178.158C90.723 178.449 90.416 178.982 90.416 179.559V179.664C90.416 180.239 91.04 180.598 91.537 180.308L93.553 179.132C94.033 178.852 94.328 178.338 94.328 177.783V177.362C94.329 176.912 93.839 176.631 93.45 176.858Z" fill="#A8CFF0"/>
<path d="M93.554 179.13L91.538 180.306C91.059 180.585 90.467 180.26 90.425 179.721C90.424 179.742 90.417 179.761 90.417 179.782V180.164C90.417 180.739 91.041 181.098 91.538 180.808L93.554 179.632C94.034 179.352 94.329 178.839 94.329 178.283V177.781C94.329 178.336 94.034 178.85 93.554 179.13Z" fill="#A8CFF0"/>
<path d="M96.1097 169.715L95.4277 170.134V200.679L96.1097 200.26V169.715Z" fill="#3F92D1"/>
<path d="M96.8148 152.695L96.1318 153.114V200.405L96.8148 199.986V152.695Z" fill="#A8CFF0"/>
<path d="M113.518 160.965C112.855 160.965 112.315 160.425 112.315 159.762V147.012C112.315 145.905 112.911 144.873 113.871 144.32L121.786 139.731C121.97 139.626 122.177 139.57 122.385 139.57C123.048 139.57 123.588 140.11 123.588 140.773V153.523C123.588 154.63 122.992 155.661 122.032 156.215L114.117 160.804C113.933 160.909 113.727 160.965 113.518 160.965ZM122.385 140.237C122.293 140.237 122.203 140.262 122.119 140.31L114.204 144.899C113.45 145.333 112.982 146.143 112.982 147.012V159.762C112.983 160.212 113.469 160.408 113.783 160.225L121.698 155.636C122.452 155.202 122.92 154.393 122.92 153.523V140.773C122.921 140.442 122.643 140.237 122.385 140.237Z" fill="#A8CFF0"/>
<path d="M113.518 160.966C113.311 160.966 113.104 160.911 112.916 160.802L113.251 160.225C113.418 160.321 113.618 160.322 113.785 160.225L121.7 155.636C122.454 155.202 122.922 154.393 122.922 153.523V140.773C122.922 140.506 122.747 140.341 122.584 140.275L122.831 139.656C123.291 139.84 123.589 140.278 123.589 140.773V153.523C123.589 154.63 122.993 155.661 122.033 156.215L114.118 160.804C113.929 160.912 113.723 160.966 113.518 160.966Z" fill="#A8CFF0"/>
<path d="M100.903 212.285V215.257L79.083 227.97V224.681L100.903 212.285Z" fill="#084C94"/>
<path d="M100.903 212.286L79.0827 224.682L75.8447 222.626L97.2857 210.23L100.903 212.286Z" fill="#3F92D1"/>
<path d="M100.903 212.285L79.0827 224.681L75.8447 222.625L79.1548 224.324L100.903 212.285Z" fill="#72B5E8"/>
<path d="M75.8447 222.627V219.212L97.2227 206.879L97.2857 210.231L75.8447 222.627Z" fill="#084C94"/>
<path d="M73.6318 217.819L75.8448 219.21L97.2228 206.877L95.0728 205.422L73.6318 217.819Z" fill="#3F92D1"/>
<path d="M73.6318 217.821L75.8448 219.212L97.2228 206.879L75.7358 218.912L73.6318 217.821Z" fill="#72B5E8"/>
<path d="M75.8447 213.964V210.548L97.2227 198.215L97.2857 201.567L75.8447 213.964Z" fill="#084C94"/>
<path d="M75.8447 222.641V210.547L76.6947 210.078L76.7578 222.109L75.8447 222.641Z" fill="#084C94"/>
<path d="M72.999 209.029L75.845 210.547L97.223 198.214L94.44 196.633L72.999 209.029Z" fill="#3F92D1"/>
<path d="M72.999 209.03L75.845 210.548L97.223 198.215L75.861 210.1L72.999 209.03Z" fill="#72B5E8"/>
<path d="M72.999 208.965V224.398L79.083 227.971V224.682L75.845 222.626V210.483L72.999 208.965Z" fill="#2672AB"/>
<path d="M77.3167 180.742C80.7697 180.742 83.5787 182.431 83.5787 184.506C83.5787 184.662 83.4527 184.789 83.2957 184.789C83.1397 184.789 83.0127 184.663 83.0127 184.506C83.0127 182.742 80.4577 181.307 77.3167 181.307C74.1757 181.307 71.6207 182.742 71.6207 184.506C71.6207 184.662 71.4947 184.789 71.3377 184.789C71.1807 184.789 71.0547 184.663 71.0547 184.506C71.0547 182.43 73.8637 180.742 77.3167 180.742Z" fill="#3F92D1"/>
<path d="M77.3167 186.371C80.7697 186.371 83.5787 188.06 83.5787 190.135C83.5787 190.291 83.4527 190.418 83.2957 190.418C83.1397 190.418 83.0127 190.292 83.0127 190.135C83.0127 188.371 80.4577 186.936 77.3167 186.936C74.1757 186.936 71.6207 188.371 71.6207 190.135C71.6207 190.291 71.4947 190.418 71.3377 190.418C71.1807 190.418 71.0547 190.292 71.0547 190.135C71.0547 188.06 73.8637 186.371 77.3167 186.371Z" fill="#3F92D1"/>
<path d="M77.3167 191.91C80.7697 191.91 83.5787 193.599 83.5787 195.674C83.5787 195.83 83.4527 195.957 83.2957 195.957C83.1397 195.957 83.0127 195.831 83.0127 195.674C83.0127 193.91 80.4577 192.475 77.3167 192.475C74.1757 192.475 71.6207 193.91 71.6207 195.674C71.6207 195.83 71.4947 195.957 71.3377 195.957C71.1807 195.957 71.0547 195.831 71.0547 195.674C71.0547 193.599 73.8637 191.91 77.3167 191.91Z" fill="#3F92D1"/>
<path d="M77.3167 197.41C80.7697 197.41 83.5787 199.099 83.5787 201.174C83.5787 201.33 83.4527 201.457 83.2957 201.457C83.1397 201.457 83.0127 201.331 83.0127 201.174C83.0127 199.41 80.4577 197.975 77.3167 197.975C74.1757 197.975 71.6207 199.41 71.6207 201.174C71.6207 201.33 71.4947 201.457 71.3377 201.457C71.1807 201.457 71.0547 201.331 71.0547 201.174C71.0547 199.099 73.8637 197.41 77.3167 197.41Z" fill="#3F92D1"/>
<path d="M83.0203 183.359H71.6113V203.351H71.6133C71.6133 203.366 71.6113 203.381 71.6113 203.397C71.6113 205.232 74.1653 206.719 77.3153 206.719C80.4663 206.719 83.0203 205.232 83.0203 203.397C83.0203 203.382 83.0183 203.366 83.0183 203.351H83.0203V183.359Z" fill="#2672AB"/>
<path d="M83.0203 183.381C83.0203 185.216 80.4663 186.703 77.3153 186.703C74.1643 186.703 71.6113 185.216 71.6113 183.381C71.6113 181.546 74.1653 180.059 77.3153 180.059C80.4663 180.059 83.0203 181.546 83.0203 183.381Z" fill="#3F92D1"/>
<path d="M77.3163 186.423C74.2473 186.423 71.7513 185.011 71.6243 183.242C71.6213 183.289 71.6123 183.335 71.6123 183.383C71.6123 185.218 74.1663 186.705 77.3173 186.705C80.4683 186.705 83.0223 185.218 83.0223 183.383C83.0223 183.336 83.0133 183.29 83.0103 183.242C82.8813 185.01 80.3853 186.423 77.3163 186.423Z" fill="#72B5E8"/>
<path d="M77.3167 205.25C73.8637 205.25 71.0547 203.561 71.0547 201.486C71.0547 201.33 71.1807 201.203 71.3377 201.203C71.4947 201.203 71.6207 201.329 71.6207 201.486C71.6207 203.25 74.1757 204.685 77.3167 204.685C80.4577 204.685 83.0127 203.25 83.0127 201.486C83.0127 201.33 83.1387 201.203 83.2957 201.203C83.4517 201.203 83.5787 201.329 83.5787 201.486C83.5777 203.562 80.7687 205.25 77.3167 205.25Z" fill="#084C94"/>
<path d="M77.3167 204.899C73.8637 204.899 71.0547 203.21 71.0547 201.135C71.0547 200.979 71.1807 200.852 71.3377 200.852C71.4947 200.852 71.6207 200.978 71.6207 201.135C71.6207 202.899 74.1757 204.334 77.3167 204.334C80.4577 204.334 83.0127 202.899 83.0127 201.135C83.0127 200.979 83.1387 200.852 83.2957 200.852C83.4517 200.852 83.5787 200.978 83.5787 201.135C83.5777 203.21 80.7687 204.899 77.3167 204.899Z" fill="#3F92D1"/>
<path d="M77.3167 199.617C73.8637 199.617 71.0547 197.928 71.0547 195.853C71.0547 195.697 71.1807 195.57 71.3377 195.57C71.4947 195.57 71.6207 195.696 71.6207 195.853C71.6207 197.617 74.1757 199.052 77.3167 199.052C80.4577 199.052 83.0127 197.617 83.0127 195.853C83.0127 195.697 83.1387 195.57 83.2957 195.57C83.4517 195.57 83.5787 195.696 83.5787 195.853C83.5777 197.928 80.7687 199.617 77.3167 199.617Z" fill="#084C94"/>
<path d="M77.3167 199.266C73.8637 199.266 71.0547 197.577 71.0547 195.502C71.0547 195.346 71.1807 195.219 71.3377 195.219C71.4947 195.219 71.6207 195.345 71.6207 195.502C71.6207 197.266 74.1757 198.701 77.3167 198.701C80.4577 198.701 83.0127 197.266 83.0127 195.502C83.0127 195.346 83.1387 195.219 83.2957 195.219C83.4517 195.219 83.5787 195.345 83.5787 195.502C83.5777 197.577 80.7687 199.266 77.3167 199.266Z" fill="#3F92D1"/>
<path d="M77.3167 194.082C73.8637 194.082 71.0547 192.393 71.0547 190.318C71.0547 190.162 71.1807 190.035 71.3377 190.035C71.4947 190.035 71.6207 190.161 71.6207 190.318C71.6207 192.082 74.1757 193.517 77.3167 193.517C80.4577 193.517 83.0127 192.082 83.0127 190.318C83.0127 190.162 83.1387 190.035 83.2957 190.035C83.4517 190.035 83.5787 190.161 83.5787 190.318C83.5777 192.393 80.7687 194.082 77.3167 194.082Z" fill="#084C94"/>
<path d="M77.3167 193.727C73.8637 193.727 71.0547 192.038 71.0547 189.963C71.0547 189.807 71.1807 189.68 71.3377 189.68C71.4947 189.68 71.6207 189.806 71.6207 189.963C71.6207 191.727 74.1757 193.162 77.3167 193.162C80.4577 193.162 83.0127 191.727 83.0127 189.963C83.0127 189.807 83.1387 189.68 83.2957 189.68C83.4517 189.68 83.5787 189.806 83.5787 189.963C83.5777 192.038 80.7687 193.727 77.3167 193.727Z" fill="#3F92D1"/>
<path d="M77.3167 188.582C73.8637 188.582 71.0547 186.893 71.0547 184.818C71.0547 184.662 71.1807 184.535 71.3377 184.535C71.4947 184.535 71.6207 184.661 71.6207 184.818C71.6207 186.582 74.1757 188.017 77.3167 188.017C80.4577 188.017 83.0127 186.582 83.0127 184.818C83.0127 184.662 83.1387 184.535 83.2957 184.535C83.4517 184.535 83.5787 184.661 83.5787 184.818C83.5777 186.893 80.7687 188.582 77.3167 188.582Z" fill="#084C94"/>
<path d="M77.3167 188.228C73.8637 188.228 71.0547 186.539 71.0547 184.463C71.0547 184.307 71.1807 184.18 71.3377 184.18C71.4947 184.18 71.6207 184.306 71.6207 184.463C71.6207 186.227 74.1757 187.662 77.3167 187.662C80.4577 187.662 83.0127 186.227 83.0127 184.463C83.0127 184.307 83.1387 184.18 83.2957 184.18C83.4517 184.18 83.5787 184.306 83.5787 184.463C83.5777 186.539 80.7687 188.228 77.3167 188.228Z" fill="#3F92D1"/>
<path d="M299.778 78.477L147.366 166.473V161.452L299.778 73.457V78.477Z" fill="#72B5E8"/>
<path d="M298.145 72.6406L145.732 160.637L147.366 161.451L299.778 73.4556L298.145 72.6406Z" fill="#D1EBFF"/>
<path d="M145.766 165.583L147.367 166.471V161.449L145.766 160.562V165.583Z" fill="#A8CFF0"/>
<path d="M299.619 78.5696L295.243 81.0966L289.09 79.6276L293.466 77.1016L299.619 78.5696Z" fill="#D62D69"/>
<path d="M288.806 84.8118L284.431 87.3378L278.278 85.8698L282.653 83.3438L288.806 84.8118Z" fill="#D62D69"/>
<path d="M277.994 91.0549L273.618 93.5809L267.465 92.1119L271.841 89.5859L277.994 91.0549Z" fill="#D62D69"/>
<path d="M267.181 97.2961L262.806 99.8221L256.653 98.3541L261.028 95.8281L267.181 97.2961Z" fill="#D62D69"/>
<path d="M256.369 103.539L251.994 106.065L245.84 104.596L250.216 102.07L256.369 103.539Z" fill="#D62D69"/>
<path d="M245.557 109.784L241.181 112.311L235.028 110.842L239.403 108.316L245.557 109.784Z" fill="#D62D69"/>
<path d="M234.745 116.024L230.37 118.55L224.217 117.082L228.592 114.555L234.745 116.024Z" fill="#D62D69"/>
<path d="M223.932 122.27L219.556 124.796L213.403 123.327L217.779 120.801L223.932 122.27Z" fill="#D62D69"/>
<path d="M213.12 128.511L208.745 131.037L202.592 129.569L206.967 127.043L213.12 128.511Z" fill="#D62D69"/>
<path d="M202.307 134.754L197.931 137.28L191.778 135.812L196.154 133.285L202.307 134.754Z" fill="#D62D69"/>
<path d="M191.495 140.995L187.12 143.522L180.967 142.053L185.342 139.527L191.495 140.995Z" fill="#D62D69"/>
<path d="M180.682 147.238L176.306 149.764L170.153 148.296L174.529 145.77L180.682 147.238Z" fill="#D62D69"/>
<path d="M169.87 153.48L165.495 156.007L159.342 154.538L163.717 152.012L169.87 153.48Z" fill="#D62D69"/>
<path d="M159.057 159.722L154.681 162.248L148.528 160.78L152.904 158.254L159.057 159.722Z" fill="#D62D69"/>
<path d="M31.6104 234.746L42.7104 241.071L44.4474 239.995L42.6953 240.828L31.6104 234.746Z" fill="#72B5E8"/>
<path d="M259.985 72.416C259.985 81.095 266.116 84.591 273.68 80.224C281.244 75.857 287.375 65.282 287.375 56.603C287.375 47.924 281.244 44.428 273.68 48.795C266.116 53.162 259.985 63.737 259.985 72.416Z" fill="#084C94"/>
<path d="M281.964 47.2344C284.219 48.7334 285.607 51.6644 285.607 55.7784C285.607 64.4574 279.476 75.0324 271.912 79.3994C268.794 81.1994 265.929 81.6444 263.627 80.9604C266.129 82.6244 269.7 82.5204 273.678 80.2244C281.241 75.8574 287.373 65.2824 287.373 56.6034C287.374 51.5024 285.246 48.2104 281.964 47.2344Z" fill="#03336E"/>
<path d="M306.451 66.3675H306.449C306.173 66.3665 305.95 66.1425 305.951 65.8665C305.952 65.5335 305.942 65.2065 305.926 64.8845C305.911 64.6095 306.123 64.3735 306.4 64.3585C306.682 64.3435 306.912 64.5555 306.925 64.8315C306.944 65.1715 306.952 65.5175 306.951 65.8695C306.95 66.1445 306.727 66.3675 306.451 66.3675ZM306.016 62.3915C305.788 62.3915 305.582 62.2355 305.528 62.0055C305.379 61.3635 305.189 60.7435 304.964 60.1625C304.863 59.9055 304.99 59.6155 305.248 59.5155C305.501 59.4145 305.794 59.5425 305.894 59.8005C306.137 60.4255 306.342 61.0905 306.503 61.7785C306.565 62.0475 306.398 62.3165 306.129 62.3795C306.091 62.3865 306.053 62.3915 306.016 62.3915ZM304.011 57.8465C303.857 57.8465 303.702 57.7745 303.605 57.6395C303.228 57.1175 302.805 56.6395 302.35 56.2185C302.147 56.0315 302.134 55.7155 302.322 55.5115C302.51 55.3105 302.826 55.2965 303.028 55.4835C303.533 55.9485 304 56.4775 304.416 57.0535C304.578 57.2775 304.527 57.5905 304.304 57.7515C304.214 57.8155 304.112 57.8465 304.011 57.8465Z" fill="#A8CFF0"/>
<path d="M295.147 59.4114C295.147 69.3364 288.136 81.4304 279.486 86.4234C270.837 91.4174 263.825 87.4194 263.825 77.4944C263.825 67.5694 270.836 55.4754 279.486 50.4824C288.136 45.4894 295.147 49.4874 295.147 59.4114Z" fill="url(#paint0_radial_1669_22765)"/>
<path d="M274.326 80.6418C274.326 71.9628 280.457 61.3868 288.021 57.0208C291.668 54.9158 294.981 54.6388 297.435 55.8878L297.443 55.8748L299.566 57.0578L298.58 58.7508C299.039 60.0558 299.288 61.5928 299.288 63.3408C299.288 72.0198 293.157 82.5958 285.593 86.9618C284.04 87.8588 282.547 88.4228 281.155 88.6798L280.15 90.4058L278.729 89.6428C276.023 88.3358 274.326 85.2068 274.326 80.6418Z" fill="#F76195"/>
<path d="M299.255 79.2364C304.637 70.0311 304.691 60.0499 299.376 56.9428C294.062 53.8357 285.39 58.7793 280.009 67.9846C274.627 77.1899 274.573 87.1711 279.888 90.2782C285.203 93.3853 293.874 88.4417 299.255 79.2364Z" fill="white"/>
<path d="M276.235 81.6777C276.235 90.3567 282.366 93.8527 289.93 89.4857C297.493 85.1187 303.625 74.5437 303.625 65.8647C303.625 57.1857 297.494 53.6897 289.93 58.0567C282.366 62.4237 276.235 72.9987 276.235 81.6777Z" fill="#D62D69"/>
<path d="M297.501 74.0292L295.537 73.8622L297.568 72.0652C297.859 71.8082 298.032 71.3642 297.954 71.0762C297.876 70.7872 297.576 70.7622 297.286 71.0192L294.201 73.7492L291.511 73.5202L294.201 70.1852L297.286 69.3532C297.333 69.3402 297.381 69.3202 297.428 69.2922C297.669 69.1532 297.889 68.8412 297.954 68.5242C298.032 68.1452 297.859 67.9012 297.568 67.9802L295.537 68.5282L297.501 66.0932C297.762 65.7692 297.852 65.3352 297.701 65.1222C297.55 64.9092 297.215 65.0002 296.956 65.3232L294.992 67.7582L295.536 65.1142C295.614 64.7352 295.441 64.4922 295.15 64.5702C294.86 64.6482 294.56 65.0192 294.482 65.3982L293.656 69.4142L290.924 72.8012V69.2372L293.182 65.3422C293.395 64.9742 293.395 64.5782 293.182 64.4572C292.969 64.3352 292.624 64.5352 292.411 64.9022L290.924 67.4662V64.7532C290.924 64.4072 290.68 64.2682 290.379 64.4422C290.077 64.6162 289.833 65.0372 289.833 65.3832V68.0962L288.347 67.2482C288.134 67.1272 287.789 67.3262 287.576 67.6932C287.363 68.0612 287.363 68.4572 287.576 68.5782L289.834 69.8662V73.3752L287.186 73.1502L286.36 70.0872C286.282 69.7982 285.982 69.7732 285.692 70.0302C285.401 70.2872 285.229 70.7302 285.306 71.0192L285.85 73.0352L283.802 72.8612C283.541 72.8392 283.208 73.1342 283.057 73.5212C282.906 73.9082 282.996 74.2382 283.257 74.2612L285.305 74.4352L283.274 76.2312C282.983 76.4882 282.81 76.9312 282.888 77.2202C282.953 77.4632 283.174 77.5192 283.414 77.3802C283.461 77.3532 283.508 77.3192 283.556 77.2772L286.64 74.5482L289.33 74.7772L286.64 78.1122L283.556 78.9442C283.266 79.0232 282.967 79.3922 282.888 79.7722C282.81 80.1512 282.983 80.3952 283.274 80.3162L285.305 79.7682L283.257 82.3072C282.996 82.6312 282.906 83.0652 283.057 83.2782C283.158 83.4212 283.341 83.4272 283.53 83.3182C283.623 83.2642 283.716 83.1832 283.802 83.0772L285.85 80.5382L285.306 83.1832C285.228 83.5622 285.401 83.8052 285.692 83.7272C285.74 83.7142 285.787 83.6942 285.834 83.6662C286.075 83.5272 286.295 83.2152 286.36 82.8982L287.186 78.8812L289.834 75.5982V79.1622L287.576 83.0572C287.363 83.4252 287.363 83.8212 287.576 83.9422C287.789 84.0642 288.134 83.8642 288.347 83.4972L289.833 80.9332V83.5362C289.833 83.8822 290.077 84.0212 290.379 83.8472C290.68 83.6732 290.924 83.2522 290.924 82.9062V80.3032L292.411 81.1512C292.518 81.2122 292.657 81.1922 292.797 81.1122C292.937 81.0312 293.076 80.8902 293.183 80.7062C293.396 80.3392 293.396 79.9422 293.183 79.8212L290.925 78.5342V74.9152L293.657 75.1482L294.483 78.2102C294.548 78.4522 294.769 78.5092 295.009 78.3702C295.056 78.3432 295.103 78.3092 295.151 78.2672C295.442 78.0102 295.615 77.5672 295.537 77.2782L294.993 75.2622L296.957 75.4292C297.043 75.4362 297.137 75.4092 297.229 75.3562C297.418 75.2472 297.601 75.0292 297.702 74.7702C297.852 74.3832 297.762 74.0522 297.501 74.0292Z" fill="white"/>
<path d="M228.288 254.169C227.864 254.169 227.511 253.836 227.49 253.408C227.469 252.967 227.808 252.592 228.25 252.57C228.859 252.54 229.466 252.444 230.051 252.285C230.478 252.172 230.916 252.421 231.032 252.848C231.148 253.275 230.897 253.714 230.471 253.83C229.774 254.019 229.053 254.133 228.328 254.168C228.314 254.169 228.302 254.169 228.288 254.169ZM225.322 253.831C225.251 253.831 225.177 253.821 225.104 253.801C224.408 253.605 223.731 253.331 223.092 252.99C222.703 252.782 222.556 252.297 222.765 251.907C222.972 251.519 223.456 251.369 223.848 251.58C224.384 251.867 224.953 252.097 225.539 252.263C225.964 252.383 226.211 252.825 226.091 253.25C225.992 253.601 225.672 253.831 225.322 253.831ZM232.988 252.632C232.713 252.632 232.445 252.49 232.297 252.237C232.073 251.855 232.202 251.365 232.583 251.142L234.309 250.132C234.692 249.908 235.182 250.037 235.404 250.418C235.628 250.8 235.499 251.29 235.118 251.513L233.392 252.523C233.265 252.597 233.125 252.632 232.988 252.632ZM220.86 251.603C220.726 251.603 220.59 251.57 220.465 251.499L218.726 250.511C218.342 250.293 218.207 249.805 218.426 249.42C218.645 249.037 219.133 248.902 219.517 249.12L221.256 250.108C221.64 250.326 221.774 250.814 221.556 251.199C221.409 251.458 221.139 251.603 220.86 251.603ZM237.304 250.107C237.029 250.107 236.762 249.965 236.613 249.711C236.389 249.33 236.518 248.84 236.899 248.616L238.624 247.605C239.007 247.38 239.495 247.511 239.719 247.891C239.943 248.272 239.814 248.762 239.433 248.986L237.707 249.997C237.58 250.072 237.44 250.107 237.304 250.107ZM216.514 249.131C216.38 249.131 216.244 249.098 216.119 249.027L214.381 248.039C213.997 247.821 213.862 247.332 214.081 246.948C214.3 246.565 214.787 246.429 215.172 246.648L216.91 247.636C217.294 247.854 217.428 248.343 217.21 248.727C217.062 248.986 216.792 249.131 216.514 249.131ZM212.167 246.66C212.033 246.66 211.897 246.627 211.772 246.556L210.034 245.568C209.65 245.35 209.515 244.861 209.734 244.477C209.953 244.094 210.44 243.957 210.825 244.177L212.563 245.165C212.947 245.383 213.081 245.872 212.863 246.256C212.716 246.514 212.445 246.66 212.167 246.66ZM207.82 244.189C207.686 244.189 207.55 244.156 207.425 244.085L205.687 243.096C205.303 242.877 205.169 242.389 205.387 242.005C205.606 241.62 206.093 241.486 206.478 241.705L208.216 242.694C208.6 242.913 208.735 243.401 208.516 243.785C208.369 244.045 208.099 244.189 207.82 244.189ZM203.474 241.717C203.34 241.717 203.204 241.684 203.079 241.612L201.341 240.624C200.957 240.406 200.823 239.917 201.041 239.533C201.26 239.15 201.747 239.013 202.132 239.233L203.87 240.221C204.254 240.439 204.389 240.928 204.17 241.312C204.022 241.572 203.752 241.717 203.474 241.717ZM199.128 239.246C198.994 239.246 198.858 239.213 198.733 239.142L196.994 238.154C196.61 237.936 196.475 237.448 196.694 237.063C196.913 236.68 197.4 236.544 197.785 236.763L199.524 237.751C199.908 237.969 200.043 238.457 199.824 238.842C199.677 239.1 199.406 239.246 199.128 239.246ZM194.781 236.774C194.647 236.774 194.511 236.741 194.386 236.67L192.648 235.682C192.264 235.464 192.129 234.975 192.348 234.591C192.566 234.208 193.054 234.073 193.439 234.291L195.177 235.279C195.561 235.497 195.695 235.986 195.477 236.37C195.33 236.628 195.06 236.774 194.781 236.774ZM190.435 234.303C190.301 234.303 190.165 234.27 190.04 234.199L188.302 233.21C187.918 232.991 187.783 232.503 188.002 232.119C188.22 231.735 188.708 231.599 189.093 231.819L190.831 232.808C191.215 233.027 191.349 233.515 191.131 233.899C190.983 234.159 190.713 234.303 190.435 234.303ZM186.088 231.832C185.954 231.832 185.818 231.799 185.693 231.727L183.955 230.739C183.571 230.521 183.436 230.032 183.655 229.648C183.873 229.265 184.361 229.131 184.746 229.348L186.484 230.336C186.868 230.554 187.002 231.043 186.784 231.427C186.637 231.686 186.366 231.832 186.088 231.832ZM181.741 229.36C181.607 229.36 181.471 229.327 181.346 229.256L179.608 228.268C179.224 228.05 179.09 227.561 179.308 227.177C179.526 226.794 180.014 226.658 180.399 226.877L182.137 227.865C182.521 228.083 182.656 228.572 182.437 228.956C182.29 229.215 182.019 229.36 181.741 229.36ZM177.395 226.888C177.261 226.888 177.125 226.855 177 226.783L175.261 225.795C174.877 225.577 174.743 225.089 174.961 224.704C175.179 224.321 175.667 224.185 176.052 224.404L177.791 225.392C178.175 225.61 178.31 226.098 178.091 226.483C177.944 226.743 177.674 226.888 177.395 226.888ZM173.049 224.417C172.915 224.417 172.779 224.384 172.654 224.313L170.916 223.325C170.532 223.107 170.397 222.618 170.616 222.234C170.835 221.851 171.323 221.716 171.707 221.934L173.445 222.922C173.829 223.14 173.964 223.629 173.745 224.013C173.598 224.271 173.327 224.417 173.049 224.417ZM169.046 221.523C168.78 221.523 168.521 221.391 168.369 221.151C167.948 220.485 167.682 219.748 167.579 218.96C167.521 218.522 167.83 218.12 168.268 218.063C168.721 218.002 169.108 218.314 169.165 218.752C169.238 219.309 169.425 219.828 169.721 220.296C169.957 220.67 169.846 221.164 169.473 221.399C169.34 221.483 169.191 221.523 169.046 221.523ZM168.925 216.76C168.792 216.76 168.657 216.727 168.532 216.656C168.147 216.439 168.012 215.951 168.229 215.566C168.616 214.881 169.14 214.298 169.788 213.836C170.15 213.577 170.647 213.663 170.904 214.021C171.162 214.38 171.079 214.88 170.719 215.137C170.262 215.464 169.893 215.873 169.621 216.354C169.476 216.614 169.204 216.76 168.925 216.76ZM172.808 213.713C172.538 213.713 172.275 213.577 172.124 213.33C171.894 212.953 172.013 212.461 172.39 212.23L174.097 211.187C174.474 210.955 174.968 211.076 175.197 211.453C175.427 211.83 175.308 212.322 174.931 212.553L173.224 213.596C173.094 213.675 172.949 213.713 172.808 213.713ZM177.075 211.106C176.805 211.106 176.542 210.97 176.391 210.723C176.161 210.346 176.28 209.854 176.657 209.623L178.364 208.581C178.741 208.349 179.234 208.47 179.464 208.847C179.694 209.224 179.575 209.717 179.198 209.947L177.491 210.989C177.361 211.069 177.217 211.106 177.075 211.106ZM181.343 208.501C181.073 208.501 180.81 208.365 180.659 208.118C180.429 207.741 180.548 207.249 180.925 207.018L182.631 205.976C183.008 205.743 183.501 205.865 183.731 206.242C183.962 206.619 183.842 207.111 183.465 207.342L181.759 208.384C181.629 208.464 181.484 208.501 181.343 208.501ZM185.609 205.895C185.339 205.895 185.076 205.759 184.925 205.512C184.695 205.135 184.814 204.643 185.191 204.412L186.898 203.37C187.275 203.139 187.769 203.259 187.998 203.636C188.228 204.013 188.109 204.506 187.732 204.736L186.025 205.778C185.895 205.858 185.751 205.895 185.609 205.895ZM189.877 203.29C189.607 203.29 189.344 203.154 189.193 202.907C188.963 202.53 189.082 202.038 189.459 201.807L191.166 200.764C191.543 200.532 192.036 200.653 192.266 201.03C192.496 201.407 192.377 201.899 192 202.13L190.293 203.173C190.163 203.253 190.019 203.29 189.877 203.29ZM194.144 200.683C193.874 200.683 193.611 200.547 193.461 200.3C193.23 199.923 193.35 199.431 193.727 199.2L195.434 198.158C195.811 197.926 196.304 198.047 196.534 198.424C196.764 198.801 196.645 199.294 196.268 199.524L194.561 200.566C194.431 200.646 194.286 200.683 194.144 200.683ZM198.412 198.078C198.142 198.078 197.879 197.942 197.728 197.695C197.498 197.318 197.617 196.826 197.994 196.595L199.7 195.553C200.077 195.32 200.571 195.442 200.8 195.819C201.03 196.196 200.911 196.688 200.534 196.919L198.828 197.961C198.698 198.041 198.554 198.078 198.412 198.078ZM202.679 195.472C202.409 195.472 202.146 195.336 201.995 195.089C201.765 194.712 201.884 194.22 202.261 193.989L203.968 192.946C204.345 192.714 204.838 192.835 205.068 193.212C205.298 193.589 205.179 194.081 204.802 194.312L203.095 195.355C202.965 195.435 202.82 195.472 202.679 195.472ZM206.946 192.867C206.676 192.867 206.413 192.731 206.262 192.484C206.032 192.107 206.151 191.615 206.528 191.384L208.235 190.341C208.612 190.109 209.105 190.23 209.335 190.607C209.565 190.984 209.446 191.476 209.069 191.707L207.362 192.75C207.232 192.83 207.088 192.867 206.946 192.867ZM211.214 190.26C210.944 190.26 210.681 190.124 210.53 189.877C210.3 189.5 210.419 189.007 210.796 188.777L212.503 187.735C212.881 187.502 213.373 187.624 213.603 188.001C213.833 188.378 213.714 188.871 213.337 189.101L211.63 190.143C211.5 190.223 211.355 190.26 211.214 190.26ZM215.481 187.655C215.211 187.655 214.948 187.519 214.797 187.272C214.567 186.895 214.686 186.403 215.063 186.172L216.769 185.13C217.146 184.897 217.639 185.019 217.869 185.396C218.099 185.773 217.98 186.265 217.603 186.496L215.897 187.538C215.768 187.618 215.623 187.655 215.481 187.655ZM219.748 185.049C219.478 185.049 219.215 184.913 219.064 184.666C218.834 184.289 218.953 183.797 219.33 183.566L221.037 182.523C221.414 182.291 221.907 182.412 222.137 182.789C222.367 183.166 222.248 183.658 221.871 183.889L220.164 184.932C220.034 185.012 219.89 185.049 219.748 185.049ZM224.016 182.443C223.746 182.443 223.483 182.307 223.332 182.06C223.102 181.683 223.221 181.191 223.598 180.96L225.305 179.918C225.683 179.686 226.175 179.807 226.405 180.184C226.635 180.561 226.516 181.054 226.139 181.284L224.432 182.326C224.302 182.406 224.157 182.443 224.016 182.443ZM228.283 179.838C228.013 179.838 227.75 179.702 227.599 179.455C227.369 179.078 227.488 178.585 227.865 178.355L229.572 177.313C229.949 177.08 230.442 177.202 230.672 177.579C230.902 177.956 230.783 178.448 230.406 178.679L228.699 179.721C228.569 179.8 228.425 179.838 228.283 179.838ZM232.551 177.232C232.281 177.232 232.018 177.096 231.867 176.849C231.637 176.472 231.756 175.98 232.133 175.749L233.839 174.707C234.216 174.476 234.709 174.596 234.939 174.973C235.17 175.35 235.05 175.842 234.673 176.073L232.967 177.115C232.837 177.195 232.692 177.232 232.551 177.232ZM236.817 174.627C236.547 174.627 236.284 174.491 236.133 174.244C235.902 173.867 236.022 173.375 236.399 173.144L238.106 172.101C238.484 171.869 238.976 171.99 239.206 172.367C239.436 172.744 239.317 173.236 238.94 173.467L237.233 174.51C237.103 174.59 236.959 174.627 236.817 174.627ZM241.085 172.02C240.815 172.02 240.552 171.884 240.401 171.637C240.171 171.26 240.29 170.768 240.667 170.537L242.374 169.495C242.752 169.263 243.244 169.384 243.474 169.761C243.705 170.138 243.585 170.631 243.208 170.861L241.501 171.903C241.371 171.983 241.227 172.02 241.085 172.02ZM245.353 169.415C245.083 169.415 244.82 169.279 244.669 169.032C244.438 168.655 244.558 168.162 244.935 167.932L246.642 166.89C247.019 166.657 247.512 166.779 247.742 167.156C247.973 167.533 247.853 168.025 247.476 168.256L245.769 169.298C245.639 169.378 245.494 169.415 245.353 169.415ZM249.62 166.809C249.351 166.809 249.087 166.673 248.936 166.426C248.706 166.049 248.825 165.557 249.202 165.326L250.909 164.284C251.286 164.052 251.779 164.173 252.009 164.55C252.239 164.927 252.12 165.42 251.743 165.65L250.036 166.692C249.906 166.772 249.762 166.809 249.62 166.809ZM253.887 164.204C253.618 164.204 253.354 164.068 253.203 163.821C252.973 163.444 253.092 162.952 253.469 162.721L255.176 161.678C255.554 161.446 256.046 161.567 256.276 161.944C256.506 162.321 256.387 162.813 256.01 163.044L254.303 164.087C254.173 164.167 254.028 164.204 253.887 164.204ZM258.154 161.597C257.884 161.597 257.621 161.461 257.47 161.214C257.24 160.837 257.359 160.344 257.736 160.114L259.443 159.072C259.82 158.839 260.313 158.961 260.543 159.338C260.774 159.715 260.654 160.208 260.277 160.438L258.57 161.48C258.44 161.56 258.296 161.597 258.154 161.597ZM262.422 158.992C262.152 158.992 261.889 158.856 261.738 158.609C261.507 158.232 261.627 157.74 262.004 157.509L263.711 156.467C264.088 156.234 264.581 156.356 264.811 156.733C265.041 157.11 264.922 157.603 264.545 157.833L262.838 158.875C262.708 158.955 262.563 158.992 262.422 158.992ZM266.689 156.386C266.419 156.386 266.156 156.25 266.005 156.003C265.775 155.626 265.894 155.133 266.271 154.903L267.978 153.861C268.355 153.629 268.848 153.75 269.078 154.127C269.309 154.504 269.189 154.996 268.812 155.227L267.105 156.269C266.976 156.349 266.831 156.386 266.689 156.386ZM270.956 153.781C270.686 153.781 270.423 153.645 270.272 153.398C270.042 153.021 270.161 152.529 270.538 152.298L272.245 151.255C272.622 151.023 273.115 151.144 273.345 151.521C273.576 151.898 273.456 152.39 273.079 152.621L271.372 153.664C271.242 153.744 271.098 153.781 270.956 153.781ZM275.224 151.174C274.954 151.174 274.691 151.038 274.541 150.791C274.31 150.414 274.43 149.921 274.807 149.691L276.514 148.649C276.891 148.416 277.384 148.538 277.614 148.915C277.845 149.292 277.725 149.784 277.348 150.015L275.641 151.057C275.51 151.137 275.365 151.174 275.224 151.174ZM279.491 148.569C279.222 148.569 278.958 148.433 278.807 148.186C278.577 147.809 278.696 147.317 279.073 147.086L280.78 146.044C281.157 145.813 281.65 145.933 281.88 146.31C282.11 146.687 281.991 147.18 281.614 147.41L279.907 148.452C279.777 148.532 279.633 148.569 279.491 148.569ZM283.645 145.808C283.434 145.808 283.223 145.725 283.066 145.56C282.761 145.241 282.773 144.734 283.093 144.429C283.528 144.014 283.913 143.546 284.24 143.036C284.478 142.664 284.971 142.557 285.345 142.794C285.717 143.032 285.826 143.527 285.587 143.899C285.191 144.515 284.724 145.084 284.196 145.587C284.043 145.735 283.844 145.808 283.645 145.808ZM286.052 141.508C285.996 141.508 285.94 141.502 285.883 141.49C285.45 141.397 285.176 140.971 285.269 140.54C285.381 140.02 285.438 139.485 285.438 138.95V138.721C285.438 138.28 285.796 137.921 286.238 137.921C286.679 137.921 287.038 138.279 287.038 138.721V138.95C287.038 139.598 286.97 140.246 286.834 140.876C286.752 141.252 286.42 141.508 286.052 141.508ZM286.237 136.522C285.796 136.522 285.437 136.164 285.437 135.722V133.722C285.437 133.281 285.795 132.922 286.237 132.922C286.678 132.922 287.037 133.28 287.037 133.722V135.722C287.037 136.164 286.679 136.522 286.237 136.522ZM286.237 131.522C285.796 131.522 285.437 131.164 285.437 130.722V128.722C285.437 128.281 285.795 127.922 286.237 127.922C286.678 127.922 287.037 128.28 287.037 128.722V130.722C287.037 131.164 286.679 131.522 286.237 131.522ZM286.237 126.522C285.796 126.522 285.437 126.164 285.437 125.722V123.722C285.437 123.28 285.795 122.922 286.237 122.922C286.678 122.922 287.037 123.28 287.037 123.722V125.722C287.037 126.164 286.679 126.522 286.237 126.522ZM286.237 121.522C285.796 121.522 285.437 121.164 285.437 120.722V118.722C285.437 118.28 285.795 117.922 286.237 117.922C286.678 117.922 287.037 118.28 287.037 118.722V120.722C287.037 121.164 286.679 121.522 286.237 121.522ZM286.237 116.522C285.796 116.522 285.437 116.164 285.437 115.722V113.722C285.437 113.28 285.795 112.922 286.237 112.922C286.678 112.922 287.037 113.28 287.037 113.722V115.722C287.037 116.164 286.679 116.522 286.237 116.522ZM286.237 111.522C285.796 111.522 285.437 111.164 285.437 110.722V108.722C285.437 108.28 285.795 107.922 286.237 107.922C286.678 107.922 287.037 108.28 287.037 108.722V110.722C287.037 111.164 286.679 111.522 286.237 111.522ZM286.237 106.522C285.796 106.522 285.437 106.164 285.437 105.722V103.722C285.437 103.28 285.795 102.922 286.237 102.922C286.678 102.922 287.037 103.28 287.037 103.722V105.722C287.037 106.164 286.679 106.522 286.237 106.522ZM286.237 101.522C285.796 101.522 285.437 101.164 285.437 100.722V98.7219C285.437 98.2799 285.795 97.9219 286.237 97.9219C286.678 97.9219 287.037 98.2799 287.037 98.7219V100.722C287.037 101.164 286.679 101.522 286.237 101.522ZM286.237 96.5219C285.796 96.5219 285.437 96.1639 285.437 95.7219V93.7219C285.437 93.2799 285.795 92.9219 286.237 92.9219C286.678 92.9219 287.037 93.2799 287.037 93.7219V95.7219C287.037 96.1639 286.679 96.5219 286.237 96.5219Z" fill="#EB4680"/>
<path opacity="0.2" d="M274.204 241.283C264.269 247.019 243.142 245.482 243.142 245.482C243.142 245.482 240.48 233.285 250.415 227.549C256.943 223.78 267.56 223.799 274.129 227.592C280.699 231.384 280.732 237.514 274.204 241.283Z" fill="#92B4D1"/>
<path d="M283.042 186.717C282.824 186.717 282.623 186.573 282.561 186.354L282.506 186.162C282.43 185.896 282.583 185.619 282.848 185.543C283.117 185.464 283.39 185.62 283.467 185.885L283.524 186.081C283.599 186.347 283.445 186.623 283.179 186.699C283.133 186.712 283.087 186.717 283.042 186.717ZM282.096 183.659C281.888 183.659 281.694 183.528 281.622 183.32C281.41 182.696 281.187 182.074 280.953 181.453C280.855 181.194 280.986 180.906 281.244 180.808C281.504 180.712 281.792 180.841 281.889 181.099C282.127 181.73 282.354 182.364 282.57 182.997C282.659 183.259 282.519 183.543 282.257 183.632C282.203 183.65 282.15 183.659 282.096 183.659ZM280.297 178.994C280.104 178.994 279.92 178.882 279.838 178.693C279.575 178.087 279.303 177.484 279.022 176.884C278.904 176.634 279.011 176.336 279.261 176.219C279.514 176.103 279.809 176.209 279.926 176.458C280.213 177.067 280.49 177.68 280.756 178.294C280.865 178.548 280.749 178.842 280.496 178.952C280.431 178.981 280.363 178.994 280.297 178.994ZM278.136 174.487C277.956 174.487 277.783 174.39 277.694 174.22C277.385 173.634 277.068 173.054 276.742 172.479C276.605 172.239 276.689 171.933 276.93 171.797C277.169 171.658 277.475 171.743 277.612 171.985C277.944 172.57 278.267 173.16 278.58 173.754C278.709 173.999 278.615 174.301 278.371 174.43C278.294 174.468 278.215 174.487 278.136 174.487Z" fill="#A8CFF0"/>
<path d="M279.849 199.6C279.578 199.6 279.354 199.382 279.349 199.11C279.336 198.456 279.307 197.798 279.26 197.137C279.241 196.862 279.448 196.622 279.724 196.603C279.988 196.58 280.239 196.792 280.258 197.067C280.305 197.746 280.336 198.421 280.349 199.09C280.354 199.366 280.135 199.594 279.859 199.6C279.855 199.6 279.852 199.6 279.849 199.6ZM279.441 194.62C279.197 194.62 278.983 194.44 278.947 194.19C278.854 193.541 278.748 192.889 278.628 192.237C278.577 191.965 278.757 191.705 279.028 191.655C279.295 191.602 279.56 191.783 279.61 192.055C279.734 192.721 279.842 193.386 279.937 194.049C279.976 194.322 279.786 194.575 279.512 194.614C279.489 194.618 279.465 194.62 279.441 194.62ZM278.481 189.715C278.256 189.715 278.053 189.564 277.996 189.336C277.837 188.698 277.664 188.061 277.479 187.424C277.403 187.158 277.555 186.881 277.82 186.804C278.088 186.725 278.363 186.88 278.44 187.145C278.628 187.795 278.803 188.445 278.966 189.094C279.032 189.362 278.87 189.633 278.602 189.7C278.563 189.71 278.522 189.715 278.481 189.715ZM277.045 184.924C276.839 184.924 276.646 184.795 276.573 184.589C276.355 183.968 276.126 183.347 275.885 182.73C275.784 182.472 275.912 182.182 276.17 182.082C276.423 181.982 276.716 182.109 276.816 182.366C277.06 182.995 277.293 183.626 277.515 184.259C277.607 184.52 277.469 184.805 277.208 184.896C277.155 184.916 277.1 184.924 277.045 184.924ZM275.193 180.278C275.003 180.278 274.82 180.169 274.737 179.983C274.467 179.381 274.186 178.782 273.896 178.185C273.775 177.937 273.877 177.638 274.127 177.517C274.372 177.397 274.674 177.498 274.795 177.747C275.091 178.351 275.375 178.961 275.649 179.572C275.762 179.824 275.65 180.12 275.398 180.233C275.332 180.264 275.262 180.278 275.193 180.278ZM272.966 175.802C272.79 175.802 272.618 175.708 272.528 175.542C272.21 174.962 271.882 174.388 271.546 173.817C271.405 173.58 271.485 173.273 271.723 173.132C271.956 172.992 272.265 173.071 272.408 173.309C272.75 173.887 273.082 174.471 273.406 175.061C273.539 175.302 273.45 175.607 273.208 175.74C273.13 175.783 273.048 175.802 272.966 175.802ZM270.39 171.518C270.228 171.518 270.069 171.439 269.972 171.293C269.608 170.739 269.236 170.192 268.856 169.652C268.697 169.426 268.751 169.115 268.976 168.956C269.202 168.795 269.513 168.85 269.672 169.076C270.06 169.624 270.438 170.181 270.808 170.742C270.959 170.973 270.896 171.283 270.666 171.435C270.58 171.492 270.484 171.518 270.39 171.518Z" fill="#A8CFF0"/>
<path d="M250.279 159.518C243.217 155.441 236.89 155.319 232.51 158.373L227.436 160.741L228.06 163.998C226.969 166.51 226.352 169.571 226.352 173.16C226.352 183.547 231.905 199.931 237.661 214.131L243.661 245.464L250.279 242.155C250.279 242.155 274.206 222.351 274.206 200.79C274.206 185.625 263.494 167.148 250.279 159.518Z" fill="#D62D69"/>
<path d="M267.587 204.1C267.587 225.662 243.659 245.466 243.659 245.466C243.659 245.466 219.731 198.033 219.731 176.471C219.731 161.307 230.444 155.199 243.659 162.829C256.875 170.458 267.587 188.936 267.587 204.1Z" fill="#F76195"/>
<path opacity="0.7" d="M245.177 161.999C238.274 158.014 232.073 157.807 227.706 160.65C231.942 158.735 237.522 159.282 243.66 162.826C256.875 170.455 267.587 188.933 267.587 204.097C267.587 222.573 250.03 239.746 245.002 244.286C245.106 244.495 244.174 245.035 244.174 245.035C244.174 245.035 269.104 224.831 269.104 203.27C269.104 188.106 258.391 169.628 245.177 161.999Z" fill="white"/>
<path d="M252.371 195.312C252.371 200.833 248.471 203.057 243.659 200.279C238.848 197.501 234.947 190.774 234.947 185.253C234.947 179.732 238.847 177.508 243.659 180.286C248.471 183.063 252.371 189.791 252.371 195.312Z" fill="white"/>
<path d="M246.348 199.038C241.537 196.26 237.636 189.533 237.636 184.012C237.636 181.826 238.255 180.167 239.292 179.121C236.697 179.354 234.947 181.56 234.947 185.253C234.947 190.774 238.848 197.501 243.659 200.279C246.565 201.957 249.132 201.8 250.714 200.203C249.431 200.319 247.942 199.958 246.348 199.038Z" fill="#D62D69"/>
<defs>
<radialGradient id="paint0_radial_1669_22765" cx="0" cy="0" r="1" gradientUnits="userSpaceOnUse" gradientTransform="translate(279.487 68.4536) rotate(-30.0008) scale(13.7083 11.7983)">
<stop offset="0.0562" stop-color="#92A3B0"/>
<stop offset="1" stop-color="white"/>
</radialGradient>
</defs>
</svg>
