<svg width="236" height="141" viewBox="0 0 236 141" fill="none" xmlns="http://www.w3.org/2000/svg">
<path d="M107.462 64.5283C107.462 64.5283 112.426 63.6323 114.886 67.7282C116.507 70.4304 116.322 73.9006 114.402 76.4036C113.051 78.1529 110.719 79.6747 106.708 79.0916C106.708 79.0916 100.792 77.9965 100.92 71.3691C100.92 71.3691 100.82 65.3816 107.462 64.5283Z" fill="#1D1418"/>
<path d="M119.038 69.4506C119.038 69.4506 125.182 68.3413 128.211 73.4043C130.217 76.7465 129.989 81.0273 127.628 84.1135C125.964 86.2752 123.077 88.1525 118.114 87.4414C118.114 87.4414 110.789 86.0903 110.96 77.8985C110.946 77.9127 110.832 70.5173 119.038 69.4506Z" fill="#1D1418"/>
<path d="M236 130.672C236 130.672 206.077 127.899 172.2 129.293C138.323 130.672 76.8132 129.933 60.913 129.293C45.0129 128.653 12.1602 130.672 12.1602 130.672C12.1602 130.672 27.6052 113.25 31.8149 107.22C31.8149 107.22 67.0427 108.898 81.9047 108.059C96.7666 107.22 196.733 104.959 217.056 108.287C217.056 108.287 229.287 124.073 236 130.672Z" fill="#F5F5F5"/>
<path d="M223.07 125.815C223.07 125.815 198.267 124.166 167.619 124.991C136.97 125.815 81.3198 125.375 66.9272 124.991C52.5346 124.607 25.4844 125.815 25.4844 125.815C25.4844 125.815 33.4345 115.405 37.2459 111.793C37.2459 111.793 72.4595 112.802 85.9135 112.29C99.3533 111.793 194.868 110.441 213.257 112.433C213.257 112.433 217.296 119.856 223.07 125.815Z" fill="#E59F93"/>
<path d="M13.7969 83.4476C13.7969 83.4476 6.27344 89.6484 6.27344 98.3949C6.27344 107.141 9.23161 115.902 23.5958 117.538C23.5958 117.538 36.9644 120.098 43.4923 106.956C50.0202 93.8154 35.8409 82.8787 35.8409 82.8787C35.8409 82.8787 25.5869 79.4796 13.7969 83.4476Z" fill="#DD984C"/>
<path d="M34.8739 84.8359C34.8739 84.8359 23.8235 88.3061 15.4609 84.8359C15.4609 84.8359 24.3923 92.4447 34.8739 84.8359Z" fill="#1D1418"/>
<path d="M31.1166 51.4343C31.1166 51.4343 27.1202 56.412 26.8642 64.9594C26.6082 73.5068 27.2055 82.495 27.1202 85.1546H25.6838C25.6838 85.1546 26.0251 77.8302 25.698 70.6055C25.3851 63.7932 27.0349 54.8618 29.8224 51.1641L31.1166 51.4343Z" fill="#253D35"/>
<path d="M28.4039 55.1741C28.4039 55.1741 27.4795 50.6657 27.1666 47.4942C26.74 43.1281 26.5835 40.2837 30.4092 38.0508C35.5434 35.0642 30.3666 29.6741 37.5344 25.1942C44.7023 20.7143 41.1184 16.4334 45.0578 13.6602C45.0578 13.6602 47.0916 17.1161 44.3468 22.7195C41.0757 29.4323 48.5707 29.8732 43.209 35.8891C37.8473 41.905 44.0481 42.1752 39.7815 48.3475C35.5291 54.5199 28.4039 55.1741 28.4039 55.1741Z" fill="#E59F93"/>
<path d="M30.8334 70.3161C30.8334 70.3161 26.3393 76.0191 25.0877 85.1496H23.3242C23.3242 85.1496 25.23 75.9337 29.5677 69.7188L30.8334 70.3161Z" fill="#253D35"/>
<path d="M22.4005 61.3438C22.4005 61.3438 28.0893 73.5746 26.2973 85.1513H24.6333C24.6333 85.1513 28.0466 76.9026 21.0352 61.3438H22.4005Z" fill="#253D35"/>
<path d="M22.7406 33.1289C22.7406 33.1289 25.1584 39.9128 25.4997 52.3997C25.841 64.8866 24.0206 75.3681 27.121 85.1529H25.9264C25.9264 85.1529 24.1344 79.3361 24.5468 68.7692C24.5468 68.7692 24.8028 54.661 24.3335 48.4602C23.8642 42.2594 22.826 36.0586 21.9727 33.1289H22.7406Z" fill="#253D35"/>
<path d="M23.1249 64.3465C23.1249 64.3465 25.6138 47.6072 19.4557 45.8295C12.7713 43.8953 14.0371 37.9363 12.7571 35.4617C10.3109 30.7258 3.76882 27.8245 0 27.3125C0 27.3125 0.540435 32.4182 1.22309 36.5994C2.10485 41.9611 2.19018 42.9567 6.84077 45.8295C11.4913 48.7023 5.06302 54.5333 11.9322 58.8142C17.9055 62.5403 23.1249 64.3465 23.1249 64.3465Z" fill="#E59F93"/>
<path d="M1.875 29.2617C1.875 29.2617 17.2774 47.2383 21.9849 62.4273C21.9849 62.4273 10.4366 40.9948 1.875 29.2617Z" fill="#253D35"/>
<path d="M29.4375 52.7985C29.4375 52.7985 38.7244 43.6538 44.6834 15.793C44.6834 15.793 39.3787 37.0406 29.4375 52.7985Z" fill="#253D35"/>
<path d="M28.2461 73.1458C28.2461 73.1458 35.8691 73.2311 40.4628 66.0775C45.0564 58.9238 39.6379 57.9283 44.3453 54.4013C51.2146 49.2671 45.8387 41.1606 45.0707 38.8851C44.4307 36.9651 42.3969 41.0895 38.7703 44.9152C35.1437 48.7409 39.4814 53.3488 36.0397 56.8048C32.598 60.2607 28.9999 58.4687 28.2461 73.1458Z" fill="#E59F93"/>
<path d="M24.1187 41.6591C24.1187 41.6591 20.4779 37.5205 17.1642 35.8565C12.855 33.6805 16.1971 28.3473 14.7465 24.2798C13.2958 20.2123 8.94391 17.1831 13.4665 11.3094C17.9891 5.43573 13.1252 0.785146 16.1402 0.0313817C18.3162 -0.523275 17.8753 6.41704 21.2175 9.57432C26.9347 14.9787 22.085 19.7857 22.853 21.6345C24.6734 26.0576 28.5844 26.3136 27.0627 32.4006C25.5409 38.4876 24.1187 41.6591 24.1187 41.6591Z" fill="#E59F93"/>
<path d="M23.5078 38.7336C23.5078 38.7336 18.9995 28.4511 18.2173 19.7757C17.435 11.1004 16.5391 1.94141 16.5391 1.94141C16.5391 1.94141 18.203 9.19461 19.1986 20.2024C19.1986 20.2024 22.4554 35.5621 23.5078 38.7336Z" fill="#253D35"/>
<path d="M30.0664 71.0171C30.0664 71.0171 43.0653 58.3026 44.2173 41.1367C44.203 41.1367 41.3302 55.4725 30.0664 71.0171Z" fill="#253D35"/>
<path d="M144.551 94.9237C144.551 94.9237 134.823 91.7238 124.129 85.1106C116.648 80.4742 110.006 76.0796 110.006 76.0796C110.006 76.0796 91.0767 72.3108 82.9275 81.6973C74.7641 91.098 69.0469 117.906 69.0469 117.906C69.0469 117.906 122.109 122.031 125.764 121.96C129.419 121.903 144.75 120.324 144.75 120.324C144.75 120.324 153.938 106.429 144.551 94.9237Z" fill="#F5F5F5"/>
<path d="M100.578 58.6834C100.578 58.6834 103.877 59.6221 106.352 62.9642C109.438 67.117 109.296 72.8911 105.968 76.8875C104.418 78.7506 102.085 80.3861 98.5725 80.9123C98.5725 80.9123 90.8358 82.8039 86.7825 74.3276C82.7293 65.8371 89.2145 61.286 91.6322 59.9349C91.6322 59.9207 96.3397 57.2328 100.578 58.6834Z" fill="#E59F93"/>
<path d="M95.1758 58.5443C95.1758 58.5443 97.1811 72.2116 108.544 70.4907C108.544 70.4907 109.327 64.93 104.292 60.7771C104.292 60.7771 100.424 56.9514 95.1758 58.5443Z" fill="#1D1418"/>
<path d="M102.169 66.2901C102.169 66.2901 94.8307 70.6136 92.1285 64.4128C92.1285 64.4128 89.3979 67.0865 86.3828 65.1666C86.3828 65.1666 89.1419 58.3969 98.187 58.1836C98.2013 58.1978 101.686 60.8858 102.169 66.2901Z" fill="#1D1418"/>
<path d="M57.3727 89.9845C57.3727 89.9845 29.2558 90.0983 25.8852 89.9845C25.8852 89.9845 22.9839 89.7427 24.3208 92.9996C25.6434 96.2564 36.509 120.149 36.509 120.149C36.509 120.149 37.1206 122.197 40.6761 122.567C44.2316 122.923 75.719 122.567 75.719 122.567L62.3219 93.4831C62.3219 93.4831 61.241 89.9703 57.3727 89.9845Z" fill="#1D1418"/>
<path d="M49.614 108.212C50.7743 107.584 51.0325 105.814 50.1908 104.26C49.349 102.706 47.726 101.956 46.5658 102.585C45.4055 103.213 45.1472 104.982 45.989 106.536C46.8307 108.09 48.4537 108.841 49.614 108.212Z" fill="#F5F5F5"/>
<path d="M89.5265 116.695H69.0469V122.555H93.3949C94.874 122.555 95.3006 120.023 93.9638 119.255L89.5265 116.695Z" fill="#1D1418"/>
<path d="M123.773 40.7486C123.773 40.7486 124.342 36.4109 121.811 33.2962C119.279 30.1816 115.183 23.1418 119.763 15.8601C124.342 8.57846 136.787 9.47445 140.797 16.9268C144.808 24.3791 139.645 31.5754 138.095 33.9504C136.545 36.3255 136.047 37.8757 135.962 40.7486H123.773Z" fill="#DD984C"/>
<path d="M135.89 39.5806C135.89 39.5806 127.47 39.5664 124.384 39.5664C123.573 39.5664 122.862 40.1495 122.749 40.9459C122.72 41.1166 122.706 41.3157 122.706 41.529C122.734 44.345 122.535 44.4588 122.763 47.36C122.905 49.152 124.868 51.968 130.144 51.968C130.144 51.968 132.32 51.8969 134.61 50.6453C136.288 49.7351 137.283 47.9289 137.283 46.0232V41.3157C137.283 40.3344 137.07 39.5664 135.89 39.5806Z" fill="#1D1418"/>
<path d="M129.278 40.7513C129.278 40.7513 129.605 37.4091 128.624 35.6314C127.642 33.8537 124.969 32.8866 124.684 28.4209C124.4 23.9552 127.913 24.0121 129.42 25.5622C129.42 25.5622 129.946 22.4619 133.331 22.9312C136.403 23.3578 134.938 29.4591 133.687 31.7915C133.459 32.2181 132.99 32.4883 132.521 32.3888C132.151 32.3177 131.838 32.0475 132.108 31.3364C132.833 29.388 133.9 26.2165 133.289 25.2351C132.677 24.2538 131.113 25.1925 130.871 26.8564C130.785 27.5249 131.312 28.6484 130.615 29.0182C129.918 29.388 127.884 26.06 127.031 26.4867C126.178 26.9133 125.509 29.2457 128.41 32.531C131.312 35.8163 130.871 40.7513 130.871 40.7513H129.278Z" fill="#1D1418"/>
<path d="M124.539 42.7422C124.539 42.7422 129.346 43.7804 135.476 42.7422C135.49 42.7422 130.214 45.999 124.539 42.7422Z" fill="#F5F5F5"/>
<path d="M124.539 45.7695C124.539 45.7695 129.346 46.8077 135.476 45.7695C135.49 45.7695 130.214 49.0264 124.539 45.7695Z" fill="#F5F5F5"/>
<path d="M110.32 25.9027C110.32 25.9027 107.76 26.2441 106.181 25.8032C106.181 25.8032 105.157 25.1774 105.84 24.0966C106.523 23.0157 109.495 23.6699 110.405 23.8406C111.33 24.0112 112.226 25.5045 110.32 25.9027Z" fill="#DD984C"/>
<path d="M113.449 12.8608C113.449 12.8608 110.946 12.2492 109.609 11.2537C109.609 11.2537 108.856 10.3008 109.851 9.53282C110.847 8.76483 113.421 10.4572 114.217 10.955C115.014 11.4528 115.355 13.1736 113.449 12.8608Z" fill="#DD984C"/>
<path d="M123.857 5.00949C123.857 5.00949 122.421 2.77664 122.094 1.09845C122.094 1.09845 122.165 -0.138859 123.388 0.0175826C124.611 0.174024 125.393 3.24597 125.663 4.18462C125.919 5.10904 125.052 6.61658 123.857 5.00949Z" fill="#DD984C"/>
<path d="M147.512 14.893C147.512 14.893 150.086 14.6939 151.536 13.9117C151.536 13.9117 152.418 13.0869 151.551 12.1767C150.683 11.2664 147.895 12.518 147.028 12.8877C146.16 13.2433 145.577 14.893 147.512 14.893Z" fill="#DD984C"/>
<path d="M149.485 25.931C149.485 25.931 152.031 26.3719 153.624 25.9737C153.624 25.9737 154.676 25.3906 154.022 24.2813C153.368 23.1719 150.381 23.7124 149.471 23.8546C148.547 23.9968 147.594 25.4617 149.485 25.931Z" fill="#DD984C"/>
<path d="M138.676 5.45031C138.676 5.45031 140.426 3.47346 140.995 1.86638C140.995 1.86638 141.108 0.629067 139.871 0.586401C138.634 0.543735 137.425 3.45924 137.027 4.341C136.628 5.22276 137.268 6.84407 138.676 5.45031Z" fill="#DD984C"/>
<path d="M86.6965 107.098C86.6965 107.098 82.7855 102.12 83.5819 91.1836C83.5819 91.1836 80.5668 96.8439 84.037 108.051L86.6965 107.098Z" fill="#1D1418"/>
<path d="M99.783 106.522C99.783 106.522 83.1575 104.873 81.5504 109.751C79.9434 114.629 93.3405 117.957 101.006 118.782C101.006 118.782 104.178 111.258 99.783 106.522Z" fill="#E59F93"/>
<path d="M98.8016 106.441C98.8016 106.441 107.676 105.787 120.191 104.777C126.165 104.293 132.792 105.061 132.792 105.061C132.792 105.061 139.633 119.852 132.067 121.559C124.501 123.266 98.9154 118.928 98.9154 118.928C98.9154 118.928 97.5501 111.746 98.8016 106.441Z" fill="#F5F5F5"/>
<path d="M79.387 116.993C78.4199 116.78 77.8653 115.742 78.2066 114.803C78.8608 112.968 80.6955 108.631 83.6821 107.777C86.2563 107.038 85.3318 110.295 85.3318 110.295C85.3318 110.295 87.1238 109.015 88.3327 109.697C90.1815 110.75 88.4891 112.812 88.4891 112.812C88.4891 112.812 90.8642 111.731 91.8597 112.712C92.7272 113.58 91.6179 115.102 91.6179 115.102C91.6179 115.102 93.6232 114.092 94.633 115.599C95.8419 117.406 90.3806 119.823 88.9869 120.236C87.5931 120.634 86.5834 119.866 86.37 119.041C86.37 119.041 84.2367 119.596 83.2839 118.031C83.2839 118.031 81.0937 118.757 80.411 117.022C80.3968 116.993 79.9275 117.107 79.387 116.993Z" fill="#E59F93"/>
<path d="M84.9208 110.512C84.9208 110.512 81.9484 114.963 80.9102 116.172C80.9102 116.172 81.8346 112.361 84.9208 110.512Z" fill="#1D1418"/>
<path d="M84.0391 117.225C84.0391 117.225 86.3288 115.191 88.4905 112.816C88.4763 112.816 85.2906 114.139 84.0391 117.225Z" fill="#1D1418"/>
<path d="M86.9961 118.49C86.9961 118.49 89.6129 116.982 91.1631 115.375C91.1631 115.375 88.5036 116.029 86.9961 118.49Z" fill="#1D1418"/>
<path d="M133.886 107.022C133.886 107.022 127.145 80.3847 113.364 76.3883C99.5685 72.392 111.87 106.766 118.157 115.001C124.457 123.235 139.987 122.866 133.886 107.022Z" fill="#F5F5F5"/>
<path d="M133.532 120.223C133.532 120.223 140.729 109.784 125.781 87.5977C125.781 87.5977 135.538 105.418 133.532 120.223Z" fill="#1D1418"/>
<path d="M99.7812 106.529C99.7812 106.529 107.319 105.064 113.747 105.064C113.747 105.064 113.776 97.4268 111.955 92.25C111.955 92.25 112.041 101.651 111.913 103.926C111.913 103.912 104.261 103.912 99.7812 106.529Z" fill="#1D1418"/>
<path d="M198.341 138.171C198.341 138.171 178.345 140.305 175.614 140.404L148.635 138.314C148.635 138.314 148.194 126.452 148.635 123.224L150.939 121.901L148.436 120.664C148.436 120.664 148.237 106.428 148.436 102.36L151.195 101.038L148.351 100.085V86.7021L173.353 82.3359L198.967 86.3181V99.1321L195.61 100.839L198.967 101.692L198.526 118.773L196.051 120.479L198.355 121.717V138.171H198.341Z" fill="#F5F5F5"/>
<path d="M152.875 121.997L173.653 125.41L193.038 120.859C193.038 120.859 174.45 123.988 173.653 123.889C172.857 123.803 152.875 121.997 152.875 121.997Z" fill="#1D1418"/>
<path d="M163.766 114.902L173.65 116.524L193.034 111.973C193.034 111.973 174.446 115.101 173.65 115.002C172.853 114.902 163.766 114.902 163.766 114.902Z" fill="#1D1418"/>
<path d="M160.48 114.605L151.762 113.709C151.762 113.709 154.819 112.373 160.48 114.605Z" fill="#1D1418"/>
<path d="M163.766 132.551L173.65 134.172L193.034 129.621C193.034 129.621 174.446 132.75 173.65 132.65C172.853 132.551 163.766 132.551 163.766 132.551Z" fill="#1D1418"/>
<path d="M160.48 132.267L151.762 131.371C151.762 131.356 154.819 130.034 160.48 132.267Z" fill="#1D1418"/>
<path d="M193.034 100.942C193.034 100.942 181.443 102.833 178.883 103.032C178.869 103.032 181.969 99.9034 193.034 100.942Z" fill="#1D1418"/>
<path d="M173.653 103.411C173.653 103.411 161.806 103.369 152.875 100.737C152.875 100.723 163.911 100.652 173.653 103.411Z" fill="#1D1418"/>
<path d="M193.035 88.8906C193.035 88.8906 177.334 92.3039 174.419 92.4461C171.503 92.5883 151.777 88.8906 151.777 88.8906C151.777 88.8906 172.243 90.3697 173.665 90.6684C175.087 90.967 193.035 88.8906 193.035 88.8906Z" fill="#1D1418"/>
</svg>
