<svg width="37" height="37" viewBox="0 0 37 37" fill="none" xmlns="http://www.w3.org/2000/svg">
<path d="M25.5831 16.6567V4.67188M19.5907 10.6643H31.5754M15.4365 20.9458C13.6364 19.1457 12.215 17.1104 11.1723 14.9387C11.0827 14.7519 11.0378 14.6585 11.0034 14.5403C10.8809 14.1203 10.9689 13.6046 11.2236 13.2489C11.2952 13.1488 11.3809 13.0632 11.5521 12.8919C12.0759 12.3682 12.3377 12.1063 12.5089 11.843C13.1546 10.8499 13.1546 9.56964 12.5089 8.57656C12.3377 8.31323 12.0759 8.05136 11.5521 7.52761L11.2602 7.23568C10.464 6.43953 10.066 6.04145 9.63843 5.82521C8.78817 5.39515 7.78404 5.39515 6.93378 5.82521C6.50625 6.04145 6.10818 6.43953 5.31203 7.23568L5.07587 7.47183C4.28245 8.26526 3.88573 8.66197 3.58275 9.20134C3.24654 9.79984 3.00481 10.7294 3.00685 11.4159C3.00869 12.0345 3.12869 12.4573 3.3687 13.3029C4.65852 17.8472 7.09214 22.1353 10.6696 25.7127C14.247 29.2902 18.5351 31.7238 23.0794 33.0136C23.925 33.2536 24.3478 33.3736 24.9664 33.3754C25.6529 33.3775 26.5825 33.1358 27.181 32.7995C27.7203 32.4966 28.117 32.0998 28.9105 31.3064L29.1466 31.0703C29.9428 30.2741 30.3408 29.876 30.5571 29.4485C30.9871 28.5982 30.9871 27.5941 30.5571 26.7439C30.3408 26.3163 29.9428 25.9183 29.1466 25.1221L28.8547 24.8302C28.3309 24.3064 28.0691 24.0446 27.8057 23.8733C26.8127 23.2277 25.5324 23.2277 24.5393 23.8733C24.276 24.0446 24.0141 24.3064 23.4904 24.8302C23.3191 25.0014 23.2335 25.087 23.1334 25.1587C22.7777 25.4134 22.262 25.5014 21.842 25.3789C21.7238 25.3445 21.6304 25.2996 21.4436 25.2099C19.2719 24.1673 17.2366 22.7459 15.4365 20.9458Z" stroke="#FF4D4F" stroke-width="2.56817" stroke-linecap="round" stroke-linejoin="round"/>
</svg>
