<svg width="44" height="44" viewBox="0 0 44 44" fill="none" xmlns="http://www.w3.org/2000/svg">
<path d="M0 22C0 9.84974 9.84974 0 22 0C34.1503 0 44 9.84974 44 22C44 34.1503 34.1503 44 22 44C9.84974 44 0 34.1503 0 22Z" fill="#FEF2F2"/>
<path d="M17.1667 24.9998V19.1665" stroke="#FF4F4F" stroke-width="1.25" stroke-linecap="round" stroke-linejoin="round"/>
<path d="M17.375 30.8332C18.8708 30.8332 20.0833 29.6206 20.0833 28.1248C20.0833 26.6291 18.8708 25.4165 17.375 25.4165C15.8792 25.4165 14.6667 26.6291 14.6667 28.1248C14.6667 29.6206 15.8792 30.8332 17.375 30.8332Z" stroke="#FF4F4F" stroke-width="1.25" stroke-linecap="round" stroke-linejoin="round"/>
<path d="M17.1667 19.1665C18.5474 19.1665 19.6667 18.0472 19.6667 16.6665C19.6667 15.2858 18.5474 14.1665 17.1667 14.1665C15.7859 14.1665 14.6667 15.2858 14.6667 16.6665C14.6667 18.0472 15.7859 19.1665 17.1667 19.1665Z" stroke="#FF4F4F" stroke-width="1.25" stroke-linecap="round" stroke-linejoin="round"/>
<path d="M28.8333 19.1665C30.2141 19.1665 31.3333 18.0472 31.3333 16.6665C31.3333 15.2858 30.2141 14.1665 28.8333 14.1665C27.4526 14.1665 26.3333 15.2858 26.3333 16.6665C26.3333 18.0472 27.4526 19.1665 28.8333 19.1665Z" stroke="#FF4F4F" stroke-width="1.25" stroke-linecap="round" stroke-linejoin="round"/>
<path d="M17.275 25C17.65 23.5416 18.9833 22.4583 20.5583 22.4666L23.4167 22.475C25.6 22.4833 27.4583 21.0833 28.1417 19.1333" stroke="#FF4F4F" stroke-width="1.25" stroke-linecap="round" stroke-linejoin="round"/>
</svg>
