<svg width="60" height="60" viewBox="0 0 60 60" fill="none" xmlns="http://www.w3.org/2000/svg">
<path d="M0 14C0 6.26801 6.26801 0 14 0H46C53.732 0 60 6.26801 60 14V46C60 53.732 53.732 60 46 60H14C6.26801 60 0 53.732 0 46V14Z" fill="#FEF2F2"/>
<path d="M29.9998 16.6665C22.6398 16.6665 16.6665 22.6398 16.6665 29.9998C16.6665 37.3598 22.6398 43.3332 29.9998 43.3332C37.3598 43.3332 43.3332 37.3598 43.3332 29.9998C43.3332 22.6398 37.3598 16.6665 29.9998 16.6665ZM25.3732 31.9598C25.7598 32.3465 25.7598 32.9865 25.3732 33.3732C25.1732 33.5732 24.9198 33.6665 24.6665 33.6665C24.4132 33.6665 24.1598 33.5732 23.9598 33.3732L21.2932 30.7065C20.9065 30.3198 20.9065 29.6798 21.2932 29.2932L23.9598 26.6265C24.3465 26.2398 24.9865 26.2398 25.3732 26.6265C25.7598 27.0132 25.7598 27.6532 25.3732 28.0398L23.4132 29.9998L25.3732 31.9598ZM32.2532 27.2798L29.5865 33.5065C29.4265 33.8798 29.0532 34.1065 28.6665 34.1065C28.5332 34.1065 28.3998 34.0798 28.2798 34.0265C27.7732 33.8132 27.5332 33.2265 27.7598 32.7065L30.4265 26.4798C30.6398 25.9732 31.2265 25.7332 31.7332 25.9598C32.2398 26.1865 32.4665 26.7732 32.2532 27.2798ZM38.7065 30.7065L36.0398 33.3732C35.8398 33.5732 35.5865 33.6665 35.3332 33.6665C35.0798 33.6665 34.8265 33.5732 34.6265 33.3732C34.2398 32.9865 34.2398 32.3465 34.6265 31.9598L36.5865 29.9998L34.6265 28.0398C34.2398 27.6532 34.2398 27.0132 34.6265 26.6265C35.0132 26.2398 35.6532 26.2398 36.0398 26.6265L38.7065 29.2932C39.0932 29.6798 39.0932 30.3198 38.7065 30.7065Z" fill="#FF4F4F"/>
</svg>
