<svg width="38" height="38" viewBox="0 0 38 38" fill="none" xmlns="http://www.w3.org/2000/svg">
<g clip-path="url(#clip0_42684_31162)">
<path d="M33.973 20.2526L32.6864 21.5392L31.5 18.8952L32.0571 18.3381C32.586 17.8092 33.4433 17.8092 33.9723 18.3381C34.5012 18.8671 34.5012 19.7244 33.9723 20.2533L33.973 20.2526Z" fill="black"/>
<path d="M36.8382 25.9643L35.3805 27.4219L34.1797 24.7923L34.923 24.0491C35.4519 23.5201 36.3092 23.5201 36.8382 24.0491C37.3671 24.578 37.3671 25.4353 36.8382 25.9643Z" fill="black"/>
<path d="M19.6835 5.9494L19.1265 6.50648L16.4824 5.32012L17.7691 4.03344C18.2981 3.50448 19.1553 3.50448 19.6843 4.03344C20.2133 4.5624 20.2133 5.41968 19.6843 5.94864L19.6835 5.9494Z" fill="black"/>
<path d="M13.9666 3.08926L13.2233 3.83254L10.5938 2.63174L12.0514 1.17406C12.5804 0.645104 13.4377 0.645104 13.9666 1.17406C14.4956 1.70302 14.4956 2.5603 13.9666 3.08926Z" fill="black"/>
<path d="M13.2589 37.2543C12.6205 37.2543 11.9821 37.0119 11.495 36.5255L7.20703 32.2376L7.87735 31.5673L12.1653 35.8552C12.7687 36.4601 13.7529 36.4563 14.3548 35.8552L14.7531 35.4554C15.225 34.9835 15.3413 34.2675 15.0434 33.6694L12.8356 29.2576L13.683 28.832L15.8908 33.2461C16.3719 34.2105 16.1834 35.3673 15.4226 36.1258L15.0244 36.5255C14.538 37.0119 13.8988 37.2543 13.2589 37.2543Z" fill="#231F20"/>
<path d="M32.0301 32.7706C31.9784 32.7706 31.9282 32.7706 31.8766 32.7668C31.1622 32.7227 30.4994 32.3724 30.0609 31.8085L21.2031 20.4229L29.1299 12.4961L35.979 27.5646C36.4084 28.5063 36.2048 29.6303 35.4721 30.3629L33.7933 32.0418C33.3251 32.5099 32.689 32.7706 32.0301 32.7706ZM30.8088 31.2271C31.0808 31.5767 31.492 31.7933 31.9343 31.8214C32.4063 31.8601 32.8114 31.6861 33.1245 31.3715L34.8033 29.6926C35.257 29.2389 35.3847 28.5412 35.118 27.9568L28.835 14.1324L22.467 20.5004L30.8103 31.2271H30.8088Z" fill="#231F20"/>
<path d="M17.585 16.8017L6.19944 7.94389C5.63476 7.50537 5.28516 6.84265 5.24108 6.12825C5.197 5.41537 5.46148 4.71617 5.96688 4.21077L7.64572 2.53193C8.38064 1.79701 9.50543 1.59333 10.444 2.02501L25.5126 8.87413L17.5858 16.8009L17.585 16.8017ZM6.78084 7.19681L17.5075 15.5401L23.8755 9.17205L10.0511 2.88837C9.46591 2.62161 8.76824 2.74777 8.31528 3.20301L6.63644 4.88185C6.32332 5.19497 6.15916 5.62741 6.18652 6.07201C6.21464 6.51433 6.43048 6.92549 6.78084 7.19757V7.19681Z" fill="#231F20"/>
<path d="M5.77395 30.7957L1.48603 26.5077C0.512469 25.5342 0.512469 23.9519 1.48603 22.9783L1.88579 22.5801C2.64807 21.8155 3.80479 21.6323 4.76391 22.1119L9.17951 24.3197L8.75391 25.1671L4.33983 22.9593C3.73867 22.6576 3.02731 22.7799 2.55611 23.2496L2.15635 23.6479C1.55291 24.2513 1.55291 25.234 2.15635 25.8374L6.44427 30.1253L5.77395 30.7957Z" fill="#231F20"/>
<path d="M7.08186 32.8621L5.13702 30.9173C4.39602 30.1763 4.34434 28.9929 5.01694 28.1896L23.3398 6.31986C25.8425 3.33306 29.7755 1.95062 33.5967 2.71518C34.4479 2.88542 35.1137 3.55118 35.2839 4.40238C36.0477 8.2229 34.6653 12.1559 31.6785 14.6586L9.80874 32.9822C9.00542 33.6548 7.82286 33.6031 7.08186 32.8621Z" fill="url(#paint0_linear_42684_31162)"/>
<path d="M31.3659 11.8785C31.3643 8.98742 29.0121 6.63522 26.1211 6.63522V5.6875C29.5335 5.6875 32.3113 8.46378 32.3136 11.8777H31.3659V11.8785Z" fill="white"/>
</g>
<defs>
<linearGradient id="paint0_linear_42684_31162" x1="4.54492" y1="17.981" x2="35.491" y2="17.981" gradientUnits="userSpaceOnUse">
<stop stop-color="#FFBBBB"/>
<stop offset="1" stop-color="#FF3A3A"/>
</linearGradient>
<clipPath id="clip0_42684_31162">
<rect width="38" height="38" fill="white"/>
</clipPath>
</defs>
</svg>
