<svg width="36" height="36" viewBox="0 0 36 36" fill="none" xmlns="http://www.w3.org/2000/svg">
<path d="M31.998 35.281H4.00006C3.27646 35.281 2.6875 34.6913 2.6875 33.9684V32.2188C2.6875 31.4959 3.27646 30.9062 4.00006 30.9062H31.998C32.7216 30.9062 33.3105 31.4959 33.3105 32.2188V33.9684C33.3105 34.6913 32.7216 35.281 31.998 35.281ZM4.00006 31.7811C3.75886 31.7811 3.5623 31.9776 3.5623 32.2188V33.9684C3.5623 34.2096 3.75886 34.4062 4.00006 34.4062H31.998C32.2392 34.4062 32.4357 34.2096 32.4357 33.9684V32.2188C32.4357 31.9776 32.2392 31.7811 31.998 31.7811H4.00006Z" fill="#231F20"/>
<path d="M15.3714 22.5977H20.6209C21.5865 22.5977 22.3705 23.3817 22.3705 24.3473V31.3471H13.6211V24.3473C13.6211 23.3817 14.4052 22.5977 15.3707 22.5977H15.3714Z" fill="url(#paint0_linear_42684_31179)"/>
<path d="M27.6215 2.47616V5.10128H8.37305V2.47616C8.37305 1.51352 9.16073 0.726562 10.1226 0.726562H25.8712C26.8338 0.726562 27.6208 1.51424 27.6208 2.47616H27.6215Z" fill="url(#paint1_linear_42684_31179)"/>
<path d="M31.1216 31.7904H4.87331C4.63139 31.7904 4.43555 31.5938 4.43555 31.3526V8.60493C4.43555 6.43485 6.20171 4.66797 8.37251 4.66797H27.621C29.7918 4.66797 31.5579 6.43485 31.5579 8.60493V31.3533C31.5579 31.5945 31.3621 31.7911 31.1202 31.7911L31.1216 31.7904ZM5.31107 30.9156H30.6846V8.60493C30.6846 6.91653 29.3108 5.54277 27.6224 5.54277H8.37323C6.68483 5.54277 5.31107 6.91653 5.31107 8.60493V30.9156Z" fill="#231F20"/>
<path d="M12.1229 9.47266H10.873C10.1827 9.47266 9.62305 10.0323 9.62305 10.7226V11.9725C9.62305 12.6628 10.1827 13.2224 10.873 13.2224H12.1229C12.8132 13.2224 13.3728 12.6628 13.3728 11.9725V10.7226C13.3728 10.0323 12.8132 9.47266 12.1229 9.47266Z" fill="#353535"/>
<path d="M25.1229 9.47266H23.873C23.1827 9.47266 22.623 10.0323 22.623 10.7226V11.9725C22.623 12.6628 23.1827 13.2224 23.873 13.2224H25.1229C25.8132 13.2224 26.3728 12.6628 26.3728 11.9725V10.7226C26.3728 10.0323 25.8132 9.47266 25.1229 9.47266Z" fill="#353535"/>
<path d="M18.6209 9.47266H17.371C16.6807 9.47266 16.1211 10.0323 16.1211 10.7226V11.9725C16.1211 12.6628 16.6807 13.2224 17.371 13.2224H18.6209C19.3112 13.2224 19.8709 12.6628 19.8709 11.9725V10.7226C19.8709 10.0323 19.3112 9.47266 18.6209 9.47266Z" fill="#353535"/>
<path d="M12.1229 16.4727H10.873C10.1827 16.4727 9.62305 17.0323 9.62305 17.7226V18.9725C9.62305 19.6628 10.1827 20.2224 10.873 20.2224H12.1229C12.8132 20.2224 13.3728 19.6628 13.3728 18.9725V17.7226C13.3728 17.0323 12.8132 16.4727 12.1229 16.4727Z" fill="#353535"/>
<path d="M25.1229 16.4727H23.873C23.1827 16.4727 22.623 17.0323 22.623 17.7226V18.9725C22.623 19.6628 23.1827 20.2224 23.873 20.2224H25.1229C25.8132 20.2224 26.3728 19.6628 26.3728 18.9725V17.7226C26.3728 17.0323 25.8132 16.4727 25.1229 16.4727Z" fill="#353535"/>
<path d="M18.6209 16.4727H17.371C16.6807 16.4727 16.1211 17.0323 16.1211 17.7226V18.9725C16.1211 19.6628 16.6807 20.2224 17.371 20.2224H18.6209C19.3112 20.2224 19.8709 19.6628 19.8709 18.9725V17.7226C19.8709 17.0323 19.3112 16.4727 18.6209 16.4727Z" fill="#353535"/>
<defs>
<linearGradient id="paint0_linear_42684_31179" x1="13.6211" y1="26.9724" x2="22.3705" y2="26.9724" gradientUnits="userSpaceOnUse">
<stop stop-color="#FFBBBB"/>
<stop offset="1" stop-color="#FF3A3A"/>
</linearGradient>
<linearGradient id="paint1_linear_42684_31179" x1="8.37305" y1="2.91392" x2="27.6215" y2="2.91392" gradientUnits="userSpaceOnUse">
<stop stop-color="#FFBBBB"/>
<stop offset="1" stop-color="#FF3A3A"/>
</linearGradient>
</defs>
</svg>
