<svg width="37" height="28" viewBox="0 0 37 28" fill="none" xmlns="http://www.w3.org/2000/svg">
<path d="M1.20476 7.93099L1.21085 7.92566L1.21657 7.91994L7.92033 1.21618C8.5727 0.563804 9.38208 0.242616 10.1862 0.242616L33.0835 0.242615C34.8646 0.242615 36.3229 1.70093 36.3229 3.48208L36.3229 24.3769C36.3229 26.1581 34.8646 27.6164 33.0835 27.6164L3.48247 27.6164C1.70132 27.6164 0.243005 26.1581 0.243005 24.3769L0.243005 10.1858C0.243005 9.28817 0.568132 8.48804 1.20476 7.93099Z" stroke="black" stroke-width="0.486011"/>
<path d="M30.4709 6.97341L30.4709 20.9033C30.4709 21.861 29.6873 22.6445 28.7297 22.6445L18.2823 22.6445C17.3246 22.6445 16.541 21.861 16.541 20.9033L16.541 6.97341C16.541 6.01573 17.3246 5.23218 18.2822 5.23218L28.7297 5.23218C29.6873 5.23218 30.4709 6.01573 30.4709 6.97341Z" fill="url(#paint0_linear_42684_31195)"/>
<path d="M23.506 9.58526L26.1178 9.58526L26.1178 5.23218L27.859 5.23218L27.859 9.58526L30.4709 9.58526L30.4709 11.3265L16.541 11.3265L16.541 9.58527L21.7647 9.58526L21.7647 5.23218L23.506 5.23218L23.506 9.58526ZM22.6353 22.6445L24.3766 22.6445L24.3766 18.2914L26.1178 18.2914L26.1178 22.6445L27.859 22.6445L27.859 18.2914L30.4709 18.2914L30.4709 16.5502L22.6353 16.5502L22.6353 22.6445Z" fill="white"/>
<defs>
<linearGradient id="paint0_linear_42684_31195" x1="23.506" y1="22.6445" x2="23.506" y2="5.23218" gradientUnits="userSpaceOnUse">
<stop stop-color="#FFBBBB"/>
<stop offset="1" stop-color="#FF3A3A"/>
</linearGradient>
</defs>
</svg>
