<svg width="38" height="39" viewBox="0 0 38 39" fill="none" xmlns="http://www.w3.org/2000/svg">
<path fill-rule="evenodd" clip-rule="evenodd" d="M14.307 25.0127C14.2282 25.009 14.1405 25.0056 14.0432 25.0026C13.4724 24.9853 12.7005 24.9852 11.6233 24.9852C10.5462 24.9852 9.77438 24.9854 9.20355 25.0027C9.10619 25.0057 9.01852 25.0091 8.9397 25.0128C9.13978 26.3151 10.2651 27.3124 11.6233 27.3124C12.9816 27.3124 14.107 26.315 14.307 25.0127ZM11.6233 28.864C13.9799 28.864 15.8903 26.9536 15.8903 24.5971C15.8903 24.2525 15.8903 24.0101 15.7795 23.8394C15.5163 23.4335 14.6271 23.4336 11.6233 23.4336C7.35645 23.4336 7.35645 23.4337 7.35645 24.5971C7.35645 26.9536 9.26678 28.864 11.6233 28.864Z" fill="#FF3A3A"/>
<path fill-rule="evenodd" clip-rule="evenodd" d="M22.482 21.8836H18.2196V23.4352H22.284L22.482 21.8836ZM16.668 20.332V24.9868H23.6502L24.2441 20.332H16.668Z" fill="#FF3A3A"/>
<path fill-rule="evenodd" clip-rule="evenodd" d="M23.7681 14.1211H27.5285V21.1033H25.9769V15.6727H25.0824L23.6389 24.334L22.1084 24.079L23.7681 14.1211Z" fill="#FF3A3A"/>
<path fill-rule="evenodd" clip-rule="evenodd" d="M26.0279 25.109C26.3097 26.5819 27.7322 27.5475 29.205 27.2656C30.678 26.9839 31.6435 25.5614 31.3617 24.0884L32.8857 23.7969C33.3285 26.1114 31.8112 28.3467 29.4966 28.7896C27.1821 29.2324 24.9467 27.7151 24.5039 25.4006L26.0279 25.109Z" fill="#FF3A3A"/>
<path fill-rule="evenodd" clip-rule="evenodd" d="M31.9134 23.2384C31.6602 22.6372 31.2412 22.1139 30.6984 21.7338C29.9399 21.2027 29.0016 20.9947 28.0898 21.1554C27.1779 21.3162 26.3673 21.8326 25.8362 22.5911C25.4561 23.134 25.2415 23.769 25.2092 24.4206L31.9134 23.2384ZM32.2688 24.7513L25.3926 25.9638C24.5956 26.1043 23.646 25.5683 23.6534 24.5567C23.6608 23.5416 23.9748 22.5444 24.5652 21.7011C25.3324 20.6056 26.5033 19.8596 27.8203 19.6274C29.1374 19.3951 30.4928 19.6957 31.5883 20.4628C32.4316 21.0532 33.0677 21.8829 33.4219 22.8343C33.7748 23.7823 33.0658 24.6108 32.2688 24.7513Z" fill="#FF3A3A"/>
<path fill-rule="evenodd" clip-rule="evenodd" d="M16.666 15.6727H9.68385C9.25537 15.6727 8.90805 16.02 8.90805 16.4485V17.2243H17.4419V16.4485C17.4419 16.02 17.0945 15.6727 16.666 15.6727ZM9.68385 14.1211C8.39842 14.1211 7.35645 15.1631 7.35645 16.4485V18.0001C7.35645 18.4286 7.70379 18.7759 8.13225 18.7759H18.2177C18.6461 18.7759 18.9935 18.4286 18.9935 18.0001V16.4485C18.9935 15.1631 17.9515 14.1211 16.666 14.1211H9.68385Z" fill="#FF3A3A"/>
<path fill-rule="evenodd" clip-rule="evenodd" d="M16.6696 18.7782H11.6701C8.84647 18.7782 6.48915 20.7746 5.9328 23.433H16.6696V18.7782ZM11.6701 17.2266C7.57584 17.2266 4.25684 20.5456 4.25684 24.6398C4.25684 24.8302 4.4112 24.9846 4.60163 24.9846H16.6696C17.5266 24.9846 18.2212 24.2899 18.2212 23.433V17.8472C18.2212 17.5045 17.9434 17.2266 17.6006 17.2266H11.6701Z" fill="#FF3A3A"/>
<path fill-rule="evenodd" clip-rule="evenodd" d="M27.5318 11.7938H25.5923C24.9496 11.7938 24.4286 12.3148 24.4286 12.9575C24.4286 13.6002 24.9496 14.1212 25.5923 14.1212H27.5318V11.7938ZM25.5923 10.2422C24.0926 10.2422 22.877 11.4579 22.877 12.9575C22.877 14.4571 24.0926 15.6728 25.5923 15.6728H28.6059C28.8696 15.6728 29.0834 15.4591 29.0834 15.1954V10.7196C29.0834 10.4559 28.8696 10.2422 28.6059 10.2422H25.5923Z" fill="#FF3A3A"/>
<path d="M19.9064 11.7862C19.9805 11.3642 20.3827 11.0822 20.8047 11.1564L23.097 11.5592C23.519 11.6334 23.801 12.0356 23.7268 12.4576C23.6526 12.8796 23.2505 13.1616 22.8284 13.0874L20.5362 12.6845C20.1142 12.6104 19.8322 12.2082 19.9064 11.7862Z" fill="#FF3A3A"/>
</svg>
