<svg width="40" height="40" viewBox="0 0 40 40" fill="none" xmlns="http://www.w3.org/2000/svg">
<path d="M3.33301 19.9987H36.6663M3.33301 19.9987C3.33301 29.2034 10.7949 36.6654 19.9997 36.6654M3.33301 19.9987C3.33301 10.794 10.7949 3.33203 19.9997 3.33203M36.6663 19.9987C36.6663 29.2034 29.2044 36.6654 19.9997 36.6654M36.6663 19.9987C36.6663 10.794 29.2044 3.33203 19.9997 3.33203M19.9997 3.33203C24.1685 7.89595 26.5376 13.8188 26.6663 19.9987C26.5376 26.1786 24.1685 32.1014 19.9997 36.6654M19.9997 3.33203C15.8309 7.89595 13.4618 13.8188 13.333 19.9987C13.4618 26.1786 15.8309 32.1014 19.9997 36.6654" stroke="#FF3A3A" stroke-width="2" stroke-linecap="round" stroke-linejoin="round"/>
</svg>
