<svg width="38" height="39" viewBox="0 0 38 39" fill="none" xmlns="http://www.w3.org/2000/svg">
<path d="M26.4478 5.625L18.6898 11.8314L10.9318 5.625M10.6215 33.5538H26.7582C29.3651 33.5538 30.6686 33.5538 31.6643 33.0465C32.5401 32.6002 33.2522 31.8881 33.6985 31.0122C34.2059 30.0165 34.2059 28.7131 34.2059 26.1061V19.2791C34.2059 16.6722 34.2059 15.3687 33.6985 14.373C33.2522 13.4971 32.5401 12.785 31.6643 12.3387C30.6686 11.8314 29.3651 11.8314 26.7582 11.8314H10.6215C8.01458 11.8314 6.71111 11.8314 5.7154 12.3387C4.83954 12.785 4.12744 13.4971 3.68117 14.373C3.17383 15.3687 3.17383 16.6722 3.17383 19.2791V26.1061C3.17383 28.7131 3.17383 30.0165 3.68117 31.0122C4.12744 31.8881 4.83954 32.6002 5.7154 33.0465C6.71111 33.5538 8.01458 33.5538 10.6215 33.5538Z" stroke="#FF4D4F" stroke-width="2.56817" stroke-linecap="round" stroke-linejoin="round"/>
</svg>
