<svg width="38" height="39" viewBox="0 0 38 39" fill="none" xmlns="http://www.w3.org/2000/svg">
<g clip-path="url(#clip0_660_14866)">
<path fill-rule="evenodd" clip-rule="evenodd" d="M23.3277 27.0412C23.3228 28.4115 24.1239 29.6499 25.357 30.1779C26.5901 30.7057 28.0119 30.4191 28.9585 29.4519C29.9051 28.4846 30.1897 27.0275 29.6795 25.7608C29.1693 24.4942 27.9649 23.668 26.6287 23.668C25.7548 23.6663 24.9161 24.0208 24.297 24.6534C23.678 25.286 23.3293 26.1448 23.3277 27.0412Z" stroke="#FF3A3A" stroke-width="2.56817" stroke-linecap="round" stroke-linejoin="round"/>
<path fill-rule="evenodd" clip-rule="evenodd" d="M7.11481 27.0412C7.11 28.4115 7.9111 29.6499 9.14415 30.1779C10.3772 30.7057 11.7991 30.4191 12.7456 29.4519C13.6922 28.4846 13.9768 27.0275 13.4666 25.7608C12.9564 24.4942 11.7521 23.668 10.4158 23.668C9.54198 23.6663 8.70319 24.0208 8.08426 24.6534C7.46517 25.286 7.11652 26.1448 7.11481 27.0412Z" stroke="#FF3A3A" stroke-width="2.56817" stroke-linecap="round" stroke-linejoin="round"/>
<path d="M32.7989 16.4342C33.0204 17.0374 32.711 17.7062 32.1077 17.9277C31.5044 18.1493 30.8357 17.8399 30.6142 17.2366L32.7989 16.4342ZM30.5462 13.6763L31.6291 13.2503C31.6323 13.2586 31.6355 13.2668 31.6385 13.2751L30.5462 13.6763ZM21.6493 9.85475C21.0066 9.85475 20.4856 9.33373 20.4856 8.69104C20.4856 8.04836 21.0066 7.52734 21.6493 7.52734V9.85475ZM31.7065 17.9991C31.0638 17.9991 30.5428 17.4781 30.5428 16.8354C30.5428 16.1927 31.0638 15.6717 31.7065 15.6717V17.9991ZM33.6868 16.8354L33.6956 17.9991H33.6868V16.8354ZM35.3372 18.5034L36.5009 18.495V18.5034H35.3372ZM36.5009 21.1039C36.5009 21.7465 35.9799 22.2676 35.3372 22.2676C34.6946 22.2676 34.1735 21.7465 34.1735 21.1039H36.5009ZM31.7065 15.6717C32.3492 15.6717 32.8702 16.1927 32.8702 16.8354C32.8702 17.4781 32.3492 17.9991 31.7065 17.9991V15.6717ZM21.6493 17.9991C21.0066 17.9991 20.4856 17.4781 20.4856 16.8354C20.4856 16.1927 21.0066 15.6717 21.6493 15.6717V17.9991ZM9.66039 17.2366C9.43882 17.8399 8.77008 18.1493 8.16682 17.9277C7.56355 17.7062 7.25417 17.0374 7.47573 16.4342L9.66039 17.2366ZM9.72835 13.6763L8.63602 13.2751C8.63913 13.2668 8.64223 13.2586 8.64549 13.2503L9.72835 13.6763ZM21.6493 7.52734C22.292 7.52734 22.813 8.04836 22.813 8.69104C22.813 9.33373 22.292 9.85475 21.6493 9.85475V7.52734ZM8.56806 17.9991C7.92539 17.9991 7.40436 17.4781 7.40436 16.8354C7.40436 16.1927 7.92539 15.6717 8.56806 15.6717V17.9991ZM21.6493 15.6717C22.292 15.6717 22.813 16.1927 22.813 16.8354C22.813 17.4781 22.292 17.9991 21.6493 17.9991V15.6717ZM8.56806 15.6717C9.21074 15.6717 9.73176 16.1927 9.73176 16.8354C9.73176 17.4781 9.21074 17.9991 8.56806 17.9991V15.6717ZM3.70441 16.8354V17.9991H3.69666L3.70441 16.8354ZM2.05537 18.5034H0.891674V18.495L2.05537 18.5034ZM3.21907 21.1039C3.21907 21.7465 2.69805 22.2676 2.05537 22.2676C1.4127 22.2676 0.891674 21.7465 0.891674 21.1039H3.21907ZM13.7177 28.204C13.075 28.204 12.554 27.683 12.554 27.0403C12.554 26.3976 13.075 25.8766 13.7177 25.8766V28.204ZM23.3285 25.8766C23.9713 25.8766 24.4922 26.3976 24.4922 27.0403C24.4922 27.683 23.9713 28.204 23.3285 28.204V25.8766ZM7.11576 25.8766C7.75844 25.8766 8.27946 26.3976 8.27946 27.0403C8.27946 27.683 7.75844 28.204 7.11576 28.204V25.8766ZM3.70581 27.0403L3.69697 25.8766H3.70581V27.0403ZM2.05537 25.3723L0.891674 25.3807V25.3723H2.05537ZM0.891674 21.1039C0.891674 20.4612 1.4127 19.9402 2.05537 19.9402C2.69805 19.9402 3.21907 20.4612 3.21907 21.1039H0.891674ZM29.9305 28.204C29.2878 28.204 28.7668 27.683 28.7668 27.0403C28.7668 26.3976 29.2878 25.8766 29.9305 25.8766V28.204ZM33.6868 27.0403V25.8766H33.6956L33.6868 27.0403ZM35.3372 25.3723H36.501L36.5009 25.3807L35.3372 25.3723ZM34.1735 21.1039C34.1735 20.4612 34.6946 19.9402 35.3372 19.9402C35.9799 19.9402 36.5009 20.4612 36.5009 21.1039H34.1735ZM20.4856 8.69104C20.4856 8.04836 21.0066 7.52734 21.6493 7.52734C22.292 7.52734 22.813 8.04836 22.813 8.69104H20.4856ZM22.813 16.8354C22.813 17.4781 22.292 17.9991 21.6493 17.9991C21.0066 17.9991 20.4856 17.4781 20.4856 16.8354H22.813ZM35.3372 19.9402C35.9799 19.9402 36.5009 20.4612 36.5009 21.1039C36.5009 21.7465 35.9799 22.2676 35.3372 22.2676V19.9402ZM32.3222 22.2676C31.6795 22.2676 31.1585 21.7465 31.1585 21.1039C31.1585 20.4612 31.6795 19.9402 32.3222 19.9402V22.2676ZM2.05537 22.2676C1.4127 22.2676 0.891674 21.7465 0.891674 21.1039C0.891674 20.4612 1.4127 19.9402 2.05537 19.9402V22.2676ZM5.19752 19.9402C5.84019 19.9402 6.36122 20.4612 6.36122 21.1039C6.36122 21.7465 5.84019 22.2676 5.19752 22.2676V19.9402ZM30.6142 17.2366L29.4538 14.0776L31.6385 13.2751L32.7989 16.4342L30.6142 17.2366ZM29.4633 14.1023C28.8971 12.6633 28.3297 11.6059 27.6207 10.9054C26.9612 10.2537 26.1226 9.85475 24.8368 9.85475V7.52734C26.7037 7.52734 28.1396 8.14622 29.2565 9.24982C30.324 10.3045 31.0349 11.7398 31.6291 13.2503L29.4633 14.1023ZM24.8368 9.85475H21.6493V7.52734H24.8368V9.85475ZM31.7065 15.6717H33.6868V17.9991H31.7065V15.6717ZM33.6779 15.6717C34.4307 15.666 35.1489 15.9676 35.676 16.5003L34.0217 18.1373C33.9297 18.0444 33.8119 17.9982 33.6956 17.9991L33.6779 15.6717ZM35.676 16.5003C36.2021 17.032 36.4956 17.7501 36.5009 18.495L34.1736 18.5117C34.1725 18.3653 34.1146 18.2312 34.0217 18.1373L35.676 16.5003ZM36.5009 18.5034V21.1039H34.1735V18.5034H36.5009ZM31.7065 17.9991H21.6493V15.6717H31.7065V17.9991ZM7.47573 16.4342L8.63602 13.2751L10.8207 14.0776L9.66039 17.2366L7.47573 16.4342ZM8.64549 13.2503C9.23975 11.7398 9.95054 10.3045 11.018 9.24982C12.1349 8.14622 13.5709 7.52734 15.4378 7.52734V9.85475C14.152 9.85475 13.3133 10.2537 12.6539 10.9054C11.9448 11.6059 11.3774 12.6633 10.8114 14.1023L8.64549 13.2503ZM15.4378 7.52734H21.6493V9.85475H15.4378V7.52734ZM8.56806 15.6717H21.6493V17.9991H8.56806V15.6717ZM8.56806 17.9991H3.70441V15.6717H8.56806V17.9991ZM3.69666 17.9991C3.46236 17.9975 3.2214 18.1988 3.21907 18.5117L0.891674 18.495C0.902847 16.953 2.13776 15.6612 3.71217 15.6717L3.69666 17.9991ZM3.21907 18.5034V21.1039H0.891674V18.5034H3.21907ZM13.7177 25.8766H23.3285V28.204H13.7177V25.8766ZM7.11576 28.204H3.70581V25.8766H7.11576V28.204ZM3.71481 28.204C2.96198 28.2097 2.24374 27.9081 1.71666 27.3754L3.37098 25.7383C3.46299 25.8313 3.58075 25.8775 3.69697 25.8766L3.71481 28.204ZM1.71666 27.3754C1.19051 26.8437 0.897106 26.1256 0.891674 25.3807L3.21907 25.3639C3.22016 25.5104 3.27803 25.6445 3.37098 25.7383L1.71666 27.3754ZM0.891674 25.3723V21.1039H3.21907V25.3723H0.891674ZM29.9305 25.8766H33.6868V28.204H29.9305V25.8766ZM33.6956 25.8766C33.8119 25.8775 33.9297 25.8313 34.0217 25.7383L35.676 27.3754C35.1489 27.9081 34.4307 28.2097 33.6779 28.204L33.6956 25.8766ZM34.0217 25.7383C34.1146 25.6445 34.1725 25.5104 34.1736 25.3639L36.5009 25.3807C36.4956 26.1256 36.2021 26.8437 35.676 27.3754L34.0217 25.7383ZM34.1735 25.3723V21.1039H36.5009L36.501 25.3723H34.1735ZM22.813 8.69104V16.8354H20.4856V8.69104H22.813ZM35.3372 22.2676H32.3222V19.9402H35.3372V22.2676ZM2.05537 19.9402H5.19752V22.2676H2.05537V19.9402Z" fill="#FF3A3A"/>
</g>
<defs>
<clipPath id="clip0_660_14866">
<rect width="37.2384" height="37.2384" fill="white" transform="translate(0.542969 0.933594)"/>
</clipPath>
</defs>
</svg>
