<svg width="34" height="32" viewBox="0 0 34 32" fill="none" xmlns="http://www.w3.org/2000/svg">
<path d="M10.0612 14.4167H5.56151C4.69253 14.4167 4.25804 14.4167 3.92613 14.5858C3.63418 14.7346 3.39682 14.9719 3.24806 15.2639C3.07894 15.5958 3.07894 16.0303 3.07894 16.8993V29.9327M24.0256 14.4167H28.5252C29.3942 14.4167 29.8287 14.4167 30.1606 14.5858C30.4525 14.7346 30.6899 14.9719 30.8387 15.2639C31.0078 15.5958 31.0078 16.0303 31.0078 16.8993V29.9327M24.0256 29.9327V6.96903C24.0256 5.23107 24.0256 4.3621 23.6873 3.69828C23.3898 3.11438 22.9151 2.63965 22.3312 2.34214C21.6674 2.00391 20.7984 2.00391 19.0604 2.00391H15.0263C13.2883 2.00391 12.4193 2.00391 11.7555 2.34214C11.1716 2.63965 10.6969 3.11438 10.3994 3.69828C10.0612 4.3621 10.0612 5.23107 10.0612 6.96903V29.9327M32.5594 29.9327H1.52734M15.4918 8.21031H18.595M15.4918 14.4167H18.595M15.4918 20.6231H18.595" stroke="#FF4D4F" stroke-width="2.56817" stroke-linecap="round" stroke-linejoin="round"/>
</svg>
