<svg width="38" height="38" viewBox="0 0 38 38" fill="none" xmlns="http://www.w3.org/2000/svg">
<path d="M25.2859 28.5146L28.3891 31.6178L34.5955 25.4114M34.5955 16.1018H3.56348M34.5955 19.205V13.3089C34.5955 11.5709 34.5955 10.7019 34.2573 10.0381C33.9598 9.45423 33.485 8.9795 32.9011 8.68198C32.2373 8.34375 31.3683 8.34375 29.6304 8.34375H8.5286C6.79064 8.34375 5.92167 8.34375 5.25786 8.68198C4.67395 8.97949 4.19922 9.45422 3.90171 10.0381C3.56348 10.7019 3.56348 11.5709 3.56348 13.3089V25.101C3.56348 26.839 3.56348 27.708 3.90171 28.3718C4.19922 28.9557 4.67395 29.4304 5.25785 29.7279C5.92167 30.0662 6.79064 30.0662 8.5286 30.0662H19.0795" stroke="#FF4D4F" stroke-width="2.56817" stroke-linecap="round" stroke-linejoin="round"/>
</svg>
