<svg width="39" height="38" viewBox="0 0 39 38" fill="none" xmlns="http://www.w3.org/2000/svg">
<path d="M8.6989 14.2444V26.6572M15.6811 14.2444V26.6572M23.4391 14.2444V26.6572M30.4213 14.2444V26.6572M5.5957 29.1398L5.5957 30.3811C5.5957 31.25 5.5957 31.6845 5.76482 32.0164C5.91357 32.3084 6.15094 32.5458 6.44289 32.6945C6.7748 32.8636 7.20929 32.8636 8.07826 32.8636H31.042C31.9109 32.8636 32.3454 32.8636 32.6773 32.6945C32.9693 32.5458 33.2066 32.3084 33.3554 32.0164C33.5245 31.6845 33.5245 31.25 33.5245 30.3811V29.1398C33.5245 28.2708 33.5245 27.8363 33.3554 27.5044C33.2066 27.2125 32.9693 26.9751 32.6773 26.8263C32.3454 26.6572 31.9109 26.6572 31.042 26.6572H8.07826C7.20929 26.6572 6.7748 26.6572 6.44289 26.8263C6.15094 26.9751 5.91357 27.2125 5.76482 27.5044C5.5957 27.8363 5.5957 28.2708 5.5957 29.1398ZM19.0216 5.05448L7.53972 7.606C6.84606 7.76015 6.49923 7.83722 6.24034 8.02374C6.01198 8.18825 5.83267 8.41178 5.72161 8.67039C5.5957 8.96358 5.5957 9.31887 5.5957 10.0294L5.5957 11.7618C5.5957 12.6308 5.5957 13.0653 5.76482 13.3972C5.91357 13.6892 6.15094 13.9265 6.44289 14.0753C6.7748 14.2444 7.20929 14.2444 8.07826 14.2444H31.042C31.9109 14.2444 32.3454 14.2444 32.6773 14.0753C32.9693 13.9265 33.2066 13.6892 33.3554 13.3972C33.5245 13.0653 33.5245 12.6308 33.5245 11.7619V10.0294C33.5245 9.31887 33.5245 8.96358 33.3986 8.67039C33.2875 8.41178 33.1082 8.18825 32.8799 8.02374C32.621 7.83723 32.2742 7.76015 31.5805 7.60601L20.0987 5.05448C19.8977 5.00982 19.7972 4.98749 19.6957 4.97859C19.6055 4.97068 19.5148 4.97068 19.4246 4.97859C19.323 4.98749 19.2225 5.00982 19.0216 5.05448Z" stroke="#FF4D4F" stroke-width="2.56817" stroke-linecap="round" stroke-linejoin="round"/>
</svg>
