<svg width="34" height="29" viewBox="0 0 34 29" fill="none" xmlns="http://www.w3.org/2000/svg">
<path d="M2.30607 14.5847H31.7865M7.73668 20.7911H13.9431M12.3396 2.17188H21.753C23.4238 2.17188 24.2593 2.17188 24.9969 2.42628C25.6491 2.65126 26.2432 3.01842 26.7361 3.5012C27.2935 4.04713 27.6671 4.79439 28.4144 6.28885L31.776 13.0121C32.0693 13.5986 32.2159 13.8919 32.3193 14.1992C32.4111 14.4721 32.4774 14.753 32.5173 15.0382C32.5623 15.3593 32.5623 15.6871 32.5623 16.3428V19.5498C32.5623 22.1567 32.5623 23.4602 32.055 24.4559C31.6087 25.3318 30.8966 26.0439 30.0207 26.4901C29.025 26.9975 27.7215 26.9975 25.1146 26.9975H8.97796C6.37102 26.9975 5.06756 26.9975 4.07184 26.4901C3.19598 26.0439 2.48389 25.3318 2.03762 24.4559C1.53027 23.4602 1.53027 22.1567 1.53027 19.5498V16.3428C1.53027 15.6871 1.53027 15.3593 1.57523 15.0382C1.61515 14.753 1.68146 14.4721 1.77329 14.1992C1.87668 13.8919 2.02331 13.5986 2.31655 13.0121L5.67819 6.28885C6.42543 4.79438 6.79905 4.04714 7.35645 3.5012C7.84937 3.01842 8.44345 2.65126 9.09571 2.42628C9.83328 2.17188 10.6687 2.17188 12.3396 2.17188Z" stroke="#FF4D4F" stroke-width="2.56817" stroke-linecap="round" stroke-linejoin="round"/>
</svg>
