<svg width="40" height="40" viewBox="0 0 40 40" fill="none" xmlns="http://www.w3.org/2000/svg">
<path d="M4.58301 26.9057V8.3294H2.08301V26.9057H4.58301ZM37.9163 26.9057V8.22174H35.4163V26.9057H37.9163ZM33.4262 3.78007C31.5288 3.84617 29.049 4.04352 27.1412 4.61465L27.8582 7.00964C29.4402 6.53605 31.6483 6.34352 33.5132 6.27855L33.4262 3.78007ZM27.1412 4.61465C25.4828 5.11114 23.6173 6.08087 22.1633 6.92245L23.4155 9.0862C24.833 8.26589 26.4912 7.41889 27.8582 7.00964L27.1412 4.61465ZM6.56032 6.3722C8.17031 6.47115 9.99372 6.66357 11.3474 7.02077L11.9853 4.60352C10.3839 4.18095 8.35829 3.97799 6.71369 3.8769L6.56032 6.3722ZM11.3474 7.02077C12.9509 7.44392 14.9244 8.36967 16.5525 9.23054L17.721 7.02049C16.0619 6.14317 13.8791 5.10327 11.9853 4.60352L11.3474 7.02077ZM23.3003 34.5515C24.952 33.671 26.9977 32.7005 28.652 32.264L28.014 29.8467C26.0635 30.3614 23.8042 31.4499 22.1243 32.3454L23.3003 34.5515ZM28.652 32.264C29.9902 31.9109 31.7883 31.7185 33.3863 31.6187L33.2302 29.1235C31.5967 29.2257 29.5982 29.4287 28.014 29.8467L28.652 32.264ZM17.875 32.3454C16.1951 31.4499 13.9358 30.3614 11.9853 29.8467L11.3474 32.264C13.0017 32.7005 15.0473 33.671 16.699 34.5515L17.875 32.3454ZM11.9853 29.8467C10.4012 29.4287 8.40261 29.2257 6.76914 29.1235L6.61307 31.6187C8.21101 31.7185 10.0091 31.9109 11.3474 32.264L11.9853 29.8467ZM35.4163 26.9057C35.4163 28.0487 34.4692 29.046 33.2302 29.1235L33.3863 31.6187C35.8433 31.465 37.9163 29.466 37.9163 26.9057H35.4163ZM37.9163 8.22174C37.9163 5.78289 35.9742 3.69132 33.4262 3.78007L33.5132 6.27855C34.5378 6.24287 35.4163 7.08575 35.4163 8.22174H37.9163ZM2.08301 26.9057C2.08301 29.466 4.15597 31.465 6.61307 31.6187L6.76914 29.1235C5.53019 29.046 4.58301 28.0487 4.58301 26.9057H2.08301ZM22.1243 32.3454C20.8038 33.0494 19.1955 33.0494 17.875 32.3454L16.699 34.5515C18.7545 35.6472 21.2448 35.6472 23.3003 34.5515L22.1243 32.3454ZM22.1633 6.92245C20.7998 7.71155 19.1025 7.75092 17.721 7.02049L16.5525 9.23054C18.7062 10.3694 21.318 10.3002 23.4155 9.0862L22.1633 6.92245ZM4.58301 8.3294C4.58301 7.16744 5.50372 6.30725 6.56032 6.3722L6.71369 3.8769C4.11662 3.71729 2.08301 5.83082 2.08301 8.3294H4.58301Z" fill="#FF3A3A"/>
<path d="M20 9.75781V35.001" stroke="#FF3A3A" stroke-width="2.5"/>
<path d="M8.33301 15L14.9997 16.6667" stroke="#FF3A3A" stroke-width="2.5" stroke-linecap="round"/>
<path d="M8.33301 21.668L14.9997 23.3346" stroke="#FF3A3A" stroke-width="2.5" stroke-linecap="round"/>
<path d="M31.6667 21.668L25 23.3346" stroke="#FF3A3A" stroke-width="2.5" stroke-linecap="round"/>
<path d="M31.6667 9.16797V15.8518C31.6667 16.3111 31.6667 16.5407 31.5085 16.6336C31.3505 16.7263 31.1343 16.6237 30.7018 16.4183L28.6315 15.4348C28.4852 15.3653 28.412 15.3306 28.3333 15.3306C28.2547 15.3306 28.1815 15.3653 28.0352 15.4348L25.9648 16.4183C25.5323 16.6237 25.3162 16.7263 25.1582 16.6336C25 16.5407 25 16.3111 25 15.8518V11.5847" stroke="#FF3A3A" stroke-width="2.5" stroke-linecap="round"/>
</svg>
