<svg width="33" height="40" viewBox="0 0 33 40" fill="none" xmlns="http://www.w3.org/2000/svg">
<path fill-rule="evenodd" clip-rule="evenodd" d="M32.1408 16.9742C31.4512 15.78 30.1876 15.3875 28.9813 15.2188C27.7653 15.0488 26.1378 15.0488 24.1694 15.0489H24.0574C22.8853 15.0489 22.1189 15.0373 21.5607 14.9597C21.0558 14.8895 20.8953 14.7856 20.8267 14.725C20.7766 14.6727 20.6871 14.5504 20.6263 14.1096C20.5545 13.5899 20.5513 12.8772 20.5513 11.7349V11.0383C20.5515 8.08523 20.5515 5.71957 20.3242 4.03297C20.1109 2.44985 19.6038 0.671808 17.8474 0.133586C16.1219 -0.395205 14.6747 0.738681 13.5498 1.90763C12.3514 3.15292 10.9278 5.07904 9.14544 7.49062L3.31008 15.3858C2.17476 16.9217 1.22832 18.2021 0.664413 19.2609C0.0991252 20.3223 -0.31227 21.5824 0.314756 22.8397L0.316933 22.8443L0.323536 22.8577L0.331052 22.8726L0.338455 22.8869L0.346528 22.902L0.354769 22.9173L0.362544 22.9312L0.370785 22.9457L0.378318 22.9585L0.38109 22.963C1.0647 24.147 2.32287 24.5615 3.54007 24.7473C4.79444 24.9389 6.46819 24.9512 8.49808 24.9512C9.68229 24.9512 10.4374 24.9538 10.9919 25.0245C11.4818 25.087 11.6283 25.1833 11.6911 25.2387C11.7467 25.297 11.8443 25.4326 11.9131 25.8894C11.9918 26.4121 12.0042 27.1359 12.0041 28.2652L12.0041 28.9615C12.004 31.9145 12.004 34.2803 12.2312 35.9669C12.4445 37.5501 12.9516 39.3281 14.708 39.8664C16.4335 40.3952 17.8807 39.2613 19.0057 38.0924C20.2041 36.847 21.6276 34.9209 23.4101 32.5092L29.1755 24.709C30.3489 23.1215 31.3139 21.795 31.883 20.6912C32.4399 19.611 32.8285 18.3435 32.2072 17.0977L32.205 17.0932L32.1984 17.0797L32.1908 17.0648L32.1834 17.0505L32.1754 17.0352L32.167 17.0199L32.1592 17.006L32.151 16.9915L32.1434 16.9785L32.1408 16.9742ZM15.5603 3.84242C14.5037 4.94027 13.1871 6.71659 11.3201 9.24281L5.62395 16.9496C4.40053 18.6048 3.58198 19.7187 3.12715 20.5727C2.90577 20.9883 2.82266 21.2505 2.799 21.4092C2.78438 21.5072 2.79331 21.5515 2.80497 21.58C2.84997 21.6462 3.04532 21.8491 3.96122 21.989C4.9618 22.1417 6.4005 22.1609 8.49808 22.1609H8.58359C9.65717 22.1607 10.5926 22.1607 11.3448 22.2567C12.1506 22.3594 12.9511 22.593 13.6136 23.2164L13.6246 23.2266L13.6352 23.237C14.2863 23.876 14.551 24.6684 14.6723 25.4739C14.7882 26.2438 14.7945 27.1906 14.7945 28.2652L14.7943 28.841C14.7943 31.9419 14.7975 34.1172 14.9965 35.5943C15.0956 36.3298 15.2288 36.7612 15.3566 37.0023C15.4522 37.1827 15.5073 37.1946 15.5227 37.198L15.5255 37.1985L15.5283 37.1995C15.5479 37.2062 15.6163 37.23 15.8278 37.1236C16.092 36.9906 16.4694 36.7039 16.9951 36.1576C18.0516 35.0597 19.3683 33.2834 21.2355 30.7571L26.9316 23.0504C28.1481 21.4046 28.9586 20.2745 29.403 19.4127C29.7838 18.6738 29.7423 18.4236 29.717 18.3572C29.6751 18.2962 29.4876 18.107 28.5949 17.9822C27.5958 17.8425 26.1663 17.8392 24.0574 17.8392C22.9361 17.8392 21.9634 17.8328 21.1764 17.7233C20.3638 17.6104 19.5616 17.3658 18.9045 16.748L18.8937 16.7378L18.8831 16.7273C18.2261 16.0824 17.9728 15.291 17.8623 14.4914C17.7609 13.7578 17.7611 12.8495 17.7611 11.8248V11.1588C17.7611 8.05809 17.7579 5.88271 17.5589 4.4056C17.4597 3.67011 17.3266 3.23866 17.1989 2.99775C17.1031 2.81718 17.0481 2.80537 17.0326 2.80204L17.0299 2.80137L17.0271 2.80044C17.0075 2.79372 16.9391 2.77004 16.7276 2.87645C16.4634 3.00937 16.0862 3.29601 15.5603 3.84242Z" fill="#FF3A3A"/>
</svg>
