<svg width="39" height="39" viewBox="0 0 39 39" fill="none" xmlns="http://www.w3.org/2000/svg">
<path d="M15.5228 28.8966L21.7292 19.587H12.4195L18.626 10.2773M34.9178 21.1386V18.0353M22.505 28.8966H22.8153C25.4222 28.8966 26.7257 28.8966 27.7214 28.3892C28.5973 27.9429 29.3093 27.2308 29.7556 26.355C30.263 25.3593 30.263 24.0558 30.263 21.4489V16.4837C30.263 15.0408 30.263 14.3193 30.1044 13.7274C29.6739 12.1211 28.4192 10.8664 26.8129 10.436C26.221 10.2773 25.4995 10.2773 24.0566 10.2773M11.6437 10.2773H11.3334C8.72649 10.2773 7.42303 10.2773 6.42731 10.7847C5.55145 11.231 4.83936 11.9431 4.39309 12.8189C3.88574 13.8146 3.88574 15.1181 3.88574 17.725V22.6902C3.88574 24.1331 3.88574 24.8546 4.04435 25.4465C4.47477 27.0528 5.72946 28.3075 7.33579 28.7379C7.92773 28.8966 8.6492 28.8966 10.0921 28.8966" stroke="#FF4D4F" stroke-width="2.56817" stroke-linecap="round" stroke-linejoin="round"/>
</svg>
