<svg width="38" height="39" viewBox="0 0 38 39" fill="none" xmlns="http://www.w3.org/2000/svg">
<path d="M18.8584 9.58602L18.0085 10.3808C18.2285 10.6161 18.5362 10.7497 18.8584 10.7497C19.1807 10.7497 19.4884 10.6161 19.7084 10.3808L18.8584 9.58602ZM14.8775 30.1016C12.6279 28.276 10.0014 25.8823 7.94711 23.2623C5.87045 20.6137 4.50611 17.8945 4.50611 15.3943H2.17871C2.17871 18.6804 3.93266 21.9142 6.11557 24.6983C8.32093 27.511 11.0953 30.0296 13.411 31.9087L14.8775 30.1016ZM4.50611 15.3943C4.50611 10.8875 6.47302 8.10143 8.90648 7.14856C11.3346 6.19781 14.7318 6.8764 18.0085 10.3808L19.7084 8.79124C16.0032 4.82838 11.6423 3.57783 8.05788 4.98138C4.47884 6.38282 2.17871 10.2345 2.17871 15.3943H4.50611ZM24.3059 31.9087C26.6215 30.0296 29.396 27.5112 31.6013 24.6984C33.7842 21.9142 35.5381 18.6804 35.5381 15.3942H33.2107C33.2107 17.8945 31.8464 20.6137 29.7698 23.2623C27.7156 25.8823 25.089 28.276 22.8394 30.1016L24.3059 31.9087ZM35.5381 15.3942C35.5381 10.2345 33.238 6.3828 29.659 4.98138C26.0746 3.57783 21.7137 4.82838 18.0085 8.79124L19.7084 10.3808C22.9851 6.8764 26.3823 6.19779 28.8104 7.14856C31.2438 8.10142 33.2107 10.8874 33.2107 15.3942H35.5381ZM13.411 31.9087C15.3837 33.5097 16.7518 34.6845 18.8584 34.6845V32.3571C17.7368 32.3571 17.0382 31.8549 14.8775 30.1016L13.411 31.9087ZM22.8394 30.1016C20.6786 31.8549 19.9801 32.3571 18.8584 32.3571V34.6845C20.965 34.6845 22.3331 33.5097 24.3059 31.9087L22.8394 30.1016Z" fill="#FF3A3A"/>
<path d="M28.9437 14.9001H25.8405M25.8405 14.9001H22.7373M25.8405 14.9001V11.7969M25.8405 14.9001V18.0033" stroke="#FF3A3A" stroke-width="3.21021" stroke-linecap="round"/>
</svg>
