<svg width="38" height="38" viewBox="0 0 38 38" fill="none" xmlns="http://www.w3.org/2000/svg">
<path d="M11.4766 4.15291C11.7449 3.88455 11.8791 3.75038 12.0357 3.65442C12.1745 3.56935 12.3259 3.50666 12.4842 3.46865C12.6628 3.42578 12.8525 3.42578 13.232 3.42578H24.0227C24.4022 3.42578 24.5919 3.42578 24.7705 3.46865C24.9288 3.50666 25.0802 3.56935 25.219 3.65442C25.3756 3.75038 25.5097 3.88455 25.7781 4.15291L33.4162 11.791C33.6846 12.0594 33.8188 12.1936 33.9147 12.3501C33.9998 12.489 34.0625 12.6403 34.1005 12.7986C34.1434 12.9772 34.1434 13.167 34.1434 13.5465V24.3371C34.1434 24.7166 34.1434 24.9064 34.1005 25.0849C34.0625 25.2433 33.9998 25.3946 33.9147 25.5334C33.8188 25.69 33.6846 25.8242 33.4162 26.0925L25.7781 33.7307C25.5097 33.999 25.3756 34.1332 25.219 34.2292C25.0802 34.3142 24.9288 34.3769 24.7705 34.4149C24.5919 34.4578 24.4022 34.4578 24.0227 34.4578H13.232C12.8525 34.4578 12.6628 34.4578 12.4842 34.4149C12.3259 34.3769 12.1745 34.3142 12.0357 34.2292C11.8791 34.1332 11.7449 33.999 11.4766 33.7307L3.83845 26.0925C3.5701 25.8242 3.43593 25.69 3.33997 25.5334C3.2549 25.3946 3.19221 25.2433 3.1542 25.0849C3.11133 24.9064 3.11133 24.7166 3.11133 24.3371V13.5465C3.11133 13.167 3.11133 12.9772 3.1542 12.7986C3.19221 12.6403 3.2549 12.489 3.33997 12.3501C3.43593 12.1936 3.5701 12.0594 3.83845 11.791L11.4766 4.15291Z" stroke="#FF4D4F" stroke-width="2.56817" stroke-linecap="round" stroke-linejoin="round"/>
<path fill-rule="evenodd" clip-rule="evenodd" d="M18.622 14.3924C17.0709 12.579 14.4844 12.0912 12.5409 13.7517C10.5975 15.4122 10.3239 18.1885 11.8501 20.1524C12.8276 21.4102 15.3311 23.7428 17.0047 25.2574C17.5609 25.7607 17.839 26.0123 18.1721 26.1133C18.4584 26.2 18.7856 26.2 19.072 26.1133C19.4051 26.0123 19.6832 25.7607 20.2393 25.2574C21.913 23.7428 24.4164 21.4102 25.394 20.1524C26.9201 18.1885 26.6799 15.3947 24.7031 13.7517C22.7263 12.1087 20.1731 12.579 18.622 14.3924Z" stroke="#FF4D4F" stroke-width="2.56817" stroke-linecap="round" stroke-linejoin="round"/>
</svg>
