<svg width="40" height="40" viewBox="0 0 40 40" fill="none" xmlns="http://www.w3.org/2000/svg">
<g clip-path="url(#clip0_817_15185)">
<path d="M38.8575 8.32442C38.8575 5.10606 38.024 2.88386 36.3092 1.53078C34.5898 0.174088 32.3195 0 30.5337 0H9.46757C7.68174 0 5.41136 0.173987 3.69181 1.53088C1.97698 2.88396 1.14345 5.10617 1.14355 8.32442C1.14355 11.4247 2.71698 12.9874 4.03687 13.7523C4.68062 14.1253 5.37677 14.3744 6.06256 14.5394C4.35155 16.2092 3.32855 18.5294 3.32855 21.0445V30.9118C3.32855 35.9231 7.40548 40 12.4168 40H27.5842C32.5956 40 36.6725 35.9231 36.6725 30.9118V21.0445C36.6725 18.5294 35.6396 16.209 33.933 14.5406C34.6206 14.3756 35.3186 14.1263 35.9642 13.7523C37.2841 12.9874 38.8575 11.4248 38.8575 8.32442ZM34.1582 21.0445V30.9118C34.1582 34.5367 31.2092 37.4857 27.5842 37.4857H12.4167C8.79174 37.4857 5.84271 34.5367 5.84271 30.9118V21.0445C5.84271 18.1843 7.68325 15.7133 10.3872 14.7895C12.6885 14.0032 13.8165 12.5782 14.7467 10.9749C15.6929 9.3441 16.3309 8.34474 17.4768 8.34474L22.5244 8.34453C23.6704 8.34453 24.2341 9.38946 25.2545 10.9748C27.3383 14.2126 29.2242 14.6765 29.2385 14.6802C32.1352 15.4307 34.1582 18.0479 34.1582 21.0445ZM34.7035 11.5769C33.642 12.192 32.2633 12.3211 31.2938 12.3211C30.4145 12.3211 29.7753 12.2144 29.7714 12.2138C29.7566 12.2113 29.7415 12.2089 29.7265 12.2068C28.8649 12.0891 28.2837 11.1863 27.4292 9.7131C26.4256 7.98319 25.1767 5.83027 22.5243 5.83027L17.4763 5.83047C14.8246 5.83047 13.5755 7.98329 12.5718 9.713C11.7171 11.1862 11.1359 12.0892 10.2741 12.207C10.2608 12.2091 10.2449 12.2114 10.2316 12.2136C10.2253 12.2147 9.58635 12.3212 8.70726 12.3212C5.35655 12.3212 3.65762 10.9765 3.65762 8.32442C3.65752 5.92622 4.17807 4.34977 5.24894 3.50468C6.11717 2.81969 7.41805 2.51426 9.46737 2.51426H30.5336C34.3013 2.51426 36.3431 3.44022 36.3431 8.32432C36.3432 9.87371 35.8069 10.9375 34.7035 11.5769Z" fill="#FF3A3A"/>
<path d="M20.0006 17.8711C15.4626 17.8711 11.7705 21.5631 11.7705 26.1014C11.7705 30.6392 15.4626 34.331 20.0006 34.331C24.5386 34.331 28.2307 30.6392 28.2307 26.1014C28.2307 21.5632 24.5386 17.8711 20.0006 17.8711ZM20.0006 31.8169C16.8489 31.8169 14.2848 29.253 14.2848 26.1015C14.2848 22.9496 16.8489 20.3855 20.0006 20.3855C23.1523 20.3855 25.7164 22.9496 25.7164 26.1015C25.7164 29.2528 23.1523 31.8169 20.0006 31.8169Z" fill="#FF3A3A"/>
</g>
<defs>
<clipPath id="clip0_817_15185">
<rect width="40" height="40" fill="white"/>
</clipPath>
</defs>
</svg>
