<svg width="39" height="39" viewBox="0 0 39 39" fill="none" xmlns="http://www.w3.org/2000/svg">
<path d="M19.5398 23.434V14.1244M14.885 18.7792H24.1946M31.9526 19.555C31.9526 27.171 23.6454 32.7101 20.6228 34.4735C20.2793 34.6739 20.1075 34.7741 19.8651 34.8261C19.677 34.8664 19.4025 34.8664 19.2144 34.8261C18.972 34.7741 18.8003 34.6739 18.4568 34.4735C15.4342 32.7101 7.12695 27.171 7.12695 19.555V12.1347C7.12695 10.8941 7.12695 10.2739 7.32984 9.7407C7.50907 9.26969 7.80032 8.84942 8.17841 8.51621C8.6064 8.13903 9.18717 7.92124 10.3487 7.48567L18.6681 4.3659C18.9906 4.24494 19.1519 4.18446 19.3179 4.16048C19.465 4.13921 19.6145 4.13921 19.7617 4.16048C19.9276 4.18446 20.0889 4.24494 20.4114 4.3659L28.7308 7.48567C29.8924 7.92124 30.4731 8.13903 30.9011 8.51621C31.2792 8.84942 31.5704 9.26969 31.7497 9.7407C31.9526 10.2739 31.9526 10.8941 31.9526 12.1347V19.555Z" stroke="#FF4D4F" stroke-width="2.56817" stroke-linecap="round" stroke-linejoin="round"/>
</svg>
