<svg width="38" height="38" viewBox="0 0 38 38" fill="none" xmlns="http://www.w3.org/2000/svg">
<path d="M21.8751 14.5502H17.9961C16.7107 14.5502 15.6687 15.5922 15.6687 16.8776C15.6687 18.1629 16.7107 19.205 17.9961 19.205H19.5477C20.8331 19.205 21.8751 20.247 21.8751 21.5324C21.8751 22.8177 20.8331 23.8598 19.5477 23.8598H15.6687M18.7719 12.9986V14.5502M18.7719 23.8598V25.4114M28.0815 19.205H28.097M9.46226 19.205H9.47778M3.25586 13.3089L3.25586 25.101C3.25586 26.839 3.25586 27.708 3.59409 28.3718C3.8916 28.9557 4.36633 29.4304 4.95024 29.7279C5.61405 30.0662 6.48303 30.0662 8.22098 30.0662L29.3228 30.0662C31.0607 30.0662 31.9297 30.0662 32.5935 29.7279C33.1774 29.4304 33.6521 28.9557 33.9497 28.3718C34.2879 27.708 34.2879 26.839 34.2879 25.101V13.3089C34.2879 11.5709 34.2879 10.7019 33.9497 10.0381C33.6521 9.45423 33.1774 8.9795 32.5935 8.68198C31.9297 8.34375 31.0607 8.34375 29.3228 8.34375L8.22098 8.34375C6.48303 8.34375 5.61405 8.34375 4.95024 8.68198C4.36633 8.97949 3.8916 9.45422 3.59409 10.0381C3.25586 10.7019 3.25586 11.5709 3.25586 13.3089ZM28.8573 19.205C28.8573 19.6334 28.5099 19.9808 28.0815 19.9808C27.653 19.9808 27.3057 19.6334 27.3057 19.205C27.3057 18.7765 27.653 18.4292 28.0815 18.4292C28.5099 18.4292 28.8573 18.7765 28.8573 19.205ZM10.2381 19.205C10.2381 19.6334 9.89073 19.9808 9.46226 19.9808C9.0338 19.9808 8.68646 19.6334 8.68646 19.205C8.68646 18.7765 9.0338 18.4292 9.46226 18.4292C9.89073 18.4292 10.2381 18.7765 10.2381 19.205Z" stroke="#FF4D4F" stroke-width="2.56817" stroke-linecap="round" stroke-linejoin="round"/>
</svg>
