<svg width="38" height="38" viewBox="0 0 38 38" fill="none" xmlns="http://www.w3.org/2000/svg">
<g clip-path="url(#clip0_1252_18077)">
<path d="M4.49275 9.60721C2.01392 9.61509 0 11.6337 0 14.1141V30.0635C0 32.5487 2.02238 34.5718 4.50719 34.5718H20.4577C22.943 34.5718 24.9654 32.5487 24.9654 30.0635V14.1148C24.9654 11.6344 22.9504 9.61582 20.4725 9.60838V6.30123C27.1461 6.6715 29.8645 14.7495 36.5729 15.991C38.0066 16.2561 38.6182 14.0641 37.1772 13.7971C30.1542 12.4979 27.8481 4.28031 20.4725 4.01592V0.507812H14.0413V1.64529C14.0413 2.5054 13.3419 3.20437 12.4828 3.20437C11.6237 3.20437 10.9243 2.5054 10.9243 1.64529V0.507812H4.49319V9.60736L4.49275 9.60721ZM22.6897 14.1148V30.0651C22.6897 31.2957 21.6885 32.297 20.4577 32.297H4.50646C3.27565 32.297 2.27409 31.2959 2.27409 30.0651V14.1148C2.27409 12.8842 3.27565 11.8822 4.50646 11.8822H20.4577C21.6885 11.8814 22.6897 12.8842 22.6897 14.1148ZM6.76771 2.78263H8.82116C9.30736 4.34331 10.7639 5.47918 12.4824 5.47918C14.2007 5.47918 15.658 4.34316 16.1435 2.78263H18.1969V9.26991H6.76771V2.78263Z" fill="#FF3A3A"/>
<path d="M4.05726 35.2188C3.42858 35.2188 2.91992 35.7283 2.91992 36.3562C2.91992 36.9836 3.42858 37.4937 4.05726 37.4937H20.9061C21.5355 37.4937 22.0436 36.9836 22.0436 36.3562C22.0436 35.7283 21.5357 35.2188 20.9061 35.2188H4.05726Z" fill="#FF4F4F"/>
</g>
<defs>
<clipPath id="clip0_1252_18077">
<rect width="38" height="38" fill="white"/>
</clipPath>
</defs>
</svg>
