<svg width="38" height="38" viewBox="0 0 38 38" fill="none" xmlns="http://www.w3.org/2000/svg">
<g clip-path="url(#clip0_660_14914)">
<path d="M19.0164 5.73438C8.74978 5.73438 0.397461 14.0872 0.397461 24.3538C0.397461 25.7827 0.560379 27.2073 0.882361 28.5888C0.919381 28.7474 0.961856 28.8944 1.00928 29.0306C1.57033 30.825 3.26016 32.072 5.14514 32.072H32.8822C34.6354 32.072 36.2168 30.9966 36.8825 29.4043C36.9631 29.2457 37.0301 29.0698 37.0813 28.8736C37.1009 28.799 37.1314 28.6743 37.1772 28.4716C37.4811 27.1276 37.6359 25.7412 37.6359 24.3537C37.6359 14.0872 29.2831 5.73438 19.0164 5.73438ZM35.0003 27.9808C34.9257 28.3116 34.9017 28.391 34.8962 28.391L34.9011 28.3241C34.6408 29.2223 33.8176 29.8407 32.8822 29.8407H5.14514C4.21193 29.8407 3.39094 29.2256 3.12838 28.33L3.14365 28.433C3.14038 28.433 3.11965 28.3584 3.05535 28.0827C2.77643 26.8848 2.62878 25.6367 2.62878 24.3538C2.62878 15.3025 9.9657 7.9657 19.0164 7.9657C28.0671 7.9657 35.4045 15.3025 35.4045 24.3538C35.4046 25.6003 35.2646 26.8139 35.0003 27.9808Z" fill="#FF4D4F"/>
<path d="M19.8568 21.9C19.5926 21.8095 19.3099 21.7578 19.0152 21.7578C17.5819 21.7578 16.4199 22.9198 16.4199 24.3536C16.4199 25.7868 17.5819 26.9488 19.0152 26.9488C20.327 26.9488 21.4089 25.9748 21.5832 24.7109C21.5996 24.5932 21.6104 24.4751 21.6104 24.3536C21.6104 23.2151 20.8766 22.2497 19.8568 21.9Z" fill="#FF4D4F"/>
<path d="M29.47 14.4505C29.2417 14.2038 28.8293 14.1983 28.5058 14.4374L19.5166 21.0563C19.7127 21.0862 19.9078 21.1326 20.0995 21.1985C21.2608 21.5972 22.0927 22.5936 22.3014 23.7719L29.4138 15.4141C29.6759 15.107 29.6999 14.6946 29.47 14.4505Z" fill="#FF4D4F"/>
<path d="M25.1585 13.5853C25.5617 13.819 26.077 13.68 26.3102 13.277C26.5433 12.8732 26.4049 12.3579 26.0019 12.1242C25.5987 11.8922 25.0822 12.0306 24.8491 12.4331C24.617 12.8373 24.7543 13.3532 25.1585 13.5853Z" fill="#FF4D4F"/>
<path d="M19.2495 12.0075C19.7159 12.0075 20.0928 11.6288 20.0928 11.1641C20.0928 10.6979 19.7159 10.3203 19.2495 10.3203C18.7843 10.3203 18.4062 10.6979 18.4062 11.1641C18.4063 11.6288 18.7843 12.0075 19.2495 12.0075Z" fill="#FF4D4F"/>
<path d="M5.9368 23.625C5.44761 23.625 5.04883 24.0227 5.04883 24.513C5.04883 25.0033 5.44754 25.3999 5.9368 25.3999C6.42709 25.3999 6.82369 25.0033 6.82369 24.513C6.82369 24.0227 6.42709 23.625 5.9368 23.625Z" fill="#FF4D4F"/>
<path d="M8.71838 16.7537C8.3153 16.5205 7.79884 16.6599 7.56566 17.0631C7.33365 17.4661 7.47198 17.9815 7.87397 18.2152C8.27821 18.4484 8.7946 18.3095 9.02778 17.9063C9.25986 17.5032 9.12153 16.9868 8.71838 16.7537Z" fill="#FF4D4F"/>
<path d="M12.5078 12.1243C12.1035 12.358 11.9663 12.8733 12.1995 13.277C12.4316 13.6801 12.948 13.8191 13.3511 13.5853C13.7543 13.3533 13.8926 12.8362 13.6605 12.4332C13.4274 12.0305 12.9109 11.8922 12.5078 12.1243Z" fill="#FF4D4F"/>
<path d="M29.7849 16.7537C29.3818 16.9868 29.2434 17.5032 29.4766 17.9064C29.7097 18.3106 30.2251 18.4484 30.6293 18.2153C31.0324 17.9816 31.1708 17.4662 30.9376 17.0631C30.7055 16.6599 30.189 16.5205 29.7849 16.7537Z" fill="#FF4D4F"/>
<path d="M31.9028 24.652C32.3692 24.652 32.7461 24.275 32.7461 23.8093C32.7461 23.3429 32.3692 22.9648 31.9028 22.9648C31.4365 22.9648 31.0596 23.3429 31.0596 23.8093C31.0596 24.275 31.4365 24.652 31.9028 24.652Z" fill="#FF4D4F"/>
</g>
<defs>
<clipPath id="clip0_660_14914">
<rect width="37.2384" height="37.2384" fill="white" transform="translate(0.394531 0.285156)"/>
</clipPath>
</defs>
</svg>
