<svg width="38" height="38" viewBox="0 0 38 38" fill="none" xmlns="http://www.w3.org/2000/svg">
<path d="M31.393 19.6746V10.8305C31.393 8.22356 31.393 6.9201 30.8857 5.92438C30.4394 5.04852 29.7273 4.33643 28.8514 3.89016C27.8557 3.38281 26.5522 3.38281 23.9453 3.38281H14.0151C11.4081 3.38281 10.1047 3.38281 9.10895 3.89016C8.23309 4.33643 7.521 5.04852 7.07473 5.92438C6.56738 6.9201 6.56738 8.22356 6.56738 10.8305V26.9672C6.56738 29.5741 6.56738 30.8776 7.07473 31.8733C7.521 32.7491 8.23309 33.4612 9.10895 33.9075C10.1047 34.4148 11.4081 34.4148 14.0151 34.4148H18.9802M22.0834 17.3472H12.7738M15.877 23.5536H12.7738M25.1866 11.1408H12.7738M22.8592 29.76L25.9624 32.8632L32.9446 25.881" stroke="#FF4D4F" stroke-width="2.56817" stroke-linecap="round" stroke-linejoin="round"/>
</svg>
