<svg width="39" height="38" viewBox="0 0 39 38" fill="none" xmlns="http://www.w3.org/2000/svg">
<g clip-path="url(#clip0_660_14733)">
<path d="M6.96659 0.152842H31.844C32.9224 0.152842 33.7994 1.02987 33.7994 2.10819V30.0953C33.7994 30.284 33.7245 30.465 33.591 30.5984C33.591 30.5984 33.591 30.5984 33.591 30.5984L26.7497 37.4396L6.96659 0.152842ZM6.96659 0.152842C5.88827 0.152842 5.01124 1.02987 5.01124 2.10819M6.96659 0.152842L5.01124 2.10819M5.01124 2.10819V35.6927M5.01124 2.10819V35.6927M5.01124 35.6927C5.01124 36.7711 5.88827 37.6481 6.96659 37.6481M5.01124 35.6927L6.96659 37.6481M6.96659 37.6481H26.2466M6.96659 37.6481H26.2466M26.2466 37.6481C26.4352 37.6481 26.6163 37.5732 26.7497 37.4397L26.2466 37.6481ZM31.3703 30.8068L26.9581 35.219V31.3392C26.9581 31.0457 27.197 30.8068 27.4905 30.8068H31.3703ZM32.3765 29.3838H27.4905C26.4122 29.3838 25.5351 30.2609 25.5351 31.3392V36.2252H6.96659C6.67312 36.2252 6.43416 35.9862 6.43416 35.6927V2.10819C6.43416 1.81472 6.67312 1.57576 6.96659 1.57576H31.844C32.1375 1.57576 32.3765 1.81472 32.3765 2.10819V29.3838Z" fill="#FF4D4F" stroke="#FF4D4F" stroke-width="0.256817"/>
<path d="M15.6797 5.25391H10.7042C10.3822 5.25391 10.1211 5.51494 10.1211 5.83699C10.1211 6.15905 10.3821 6.42008 10.7042 6.42008H12.6089V12.0564C12.6089 12.3784 12.8699 12.6395 13.192 12.6395C13.514 12.6395 13.775 12.3784 13.775 12.0564V6.42008H15.6797C16.0017 6.42008 16.2628 6.15905 16.2628 5.83699C16.2628 5.51494 16.0016 5.25391 15.6797 5.25391Z" fill="#FF4D4F"/>
<path d="M21.8233 11.8888L20.0905 6.11265C19.9363 5.59902 19.4725 5.25391 18.9363 5.25391H18.6179C18.0816 5.25391 17.6178 5.59902 17.4637 6.11265L15.7308 11.8888C15.6383 12.1973 15.8133 12.5223 16.1217 12.6148C16.4302 12.7076 16.7552 12.5323 16.8477 12.224L17.0962 11.3956H20.4577L20.7063 12.2239C20.7821 12.4765 21.0137 12.6396 21.2646 12.6396C21.32 12.6396 21.3764 12.6316 21.4323 12.6148C21.7409 12.5223 21.9159 12.1973 21.8233 11.8888ZM17.4462 10.2294L18.5806 6.44772C18.5855 6.43143 18.6008 6.42001 18.6179 6.42001H18.9363C18.9533 6.42001 18.9686 6.43135 18.9735 6.44772L20.108 10.2294H17.4462Z" fill="#FF4D4F"/>
<path d="M27.9701 11.722L26.0273 8.94674L27.9701 6.17146C28.1548 5.90766 28.0906 5.54408 27.8268 5.35941C27.563 5.17475 27.1995 5.23882 27.0148 5.50269L25.3156 7.93003L23.6165 5.50269C23.4318 5.23882 23.0682 5.17467 22.8044 5.35941C22.5406 5.54408 22.4764 5.90766 22.6612 6.17146L24.604 8.94674L22.6613 11.722C22.4766 11.9858 22.5408 12.3494 22.8046 12.5341C22.9063 12.6053 23.023 12.6394 23.1384 12.6394C23.3222 12.6394 23.5032 12.5528 23.6166 12.3907L25.3157 9.96337L27.0149 12.3907C27.1283 12.5528 27.3092 12.6394 27.493 12.6394C27.6084 12.6394 27.7252 12.6053 27.8268 12.5341C28.0906 12.3494 28.1549 11.9858 27.9701 11.722Z" fill="#FF4D4F"/>
<path d="M10.6951 15.832H9.45125C9.12927 15.832 8.86816 16.0931 8.86816 16.4151C8.86816 16.7372 9.1292 16.9982 9.45125 16.9982H10.6951C11.0171 16.9982 11.2782 16.7372 11.2782 16.4151C11.2782 16.0931 11.0171 15.832 10.6951 15.832Z" fill="#FF4D4F"/>
<path d="M10.6951 18.3125H9.45125C9.12927 18.3125 8.86816 18.5735 8.86816 18.8956C8.86816 19.2176 9.1292 19.4787 9.45125 19.4787H10.6951C11.0171 19.4787 11.2782 19.2176 11.2782 18.8956C11.2782 18.5735 11.0171 18.3125 10.6951 18.3125Z" fill="#FF4D4F"/>
<path d="M10.6951 20.8008H9.45125C9.12927 20.8008 8.86816 21.0618 8.86816 21.3839C8.86816 21.7059 9.1292 21.967 9.45125 21.967H10.6951C11.0171 21.967 11.2782 21.7059 11.2782 21.3839C11.2782 21.0618 11.0171 20.8008 10.6951 20.8008Z" fill="#FF4D4F"/>
<path d="M29.3553 15.832H28.1114C27.7894 15.832 27.5283 16.0931 27.5283 16.4151C27.5283 16.7372 27.7894 16.9982 28.1114 16.9982H29.3553C29.6772 16.9982 29.9383 16.7372 29.9383 16.4151C29.9383 16.0931 29.6773 15.832 29.3553 15.832Z" fill="#FF4D4F"/>
<path d="M29.3553 18.3125H28.1114C27.7894 18.3125 27.5283 18.5735 27.5283 18.8956C27.5283 19.2176 27.7894 19.4787 28.1114 19.4787H29.3553C29.6772 19.4787 29.9383 19.2176 29.9383 18.8956C29.9383 18.5735 29.6773 18.3125 29.3553 18.3125Z" fill="#FF4D4F"/>
<path d="M29.3553 20.8008H28.1114C27.7894 20.8008 27.5283 21.0618 27.5283 21.3839C27.5283 21.7059 27.7894 21.967 28.1114 21.967H29.3553C29.6772 21.967 29.9383 21.7059 29.9383 21.3839C29.9383 21.0618 29.6773 20.8008 29.3553 20.8008Z" fill="#FF4D4F"/>
<path d="M20.6459 15.832H13.1827C12.8607 15.832 12.5996 16.0931 12.5996 16.4151C12.5996 16.7372 12.8606 16.9982 13.1827 16.9982H20.6459C20.9679 16.9982 21.229 16.7372 21.229 16.4151C21.229 16.0931 20.9679 15.832 20.6459 15.832Z" fill="#FF4D4F"/>
<path d="M18.1582 18.3125H13.1827C12.8607 18.3125 12.5996 18.5735 12.5996 18.8956C12.5996 19.2176 12.8606 19.4787 13.1827 19.4787H18.1582C18.4802 19.4787 18.7413 19.2176 18.7413 18.8956C18.7413 18.5735 18.4802 18.3125 18.1582 18.3125Z" fill="#FF4D4F"/>
<path d="M20.6459 20.8008H13.1827C12.8607 20.8008 12.5996 21.0618 12.5996 21.3839C12.5996 21.7059 12.8606 21.967 13.1827 21.967H20.6459C20.9679 21.967 21.229 21.7059 21.229 21.3839C21.229 21.0618 20.9679 20.8008 20.6459 20.8008Z" fill="#FF4D4F"/>
<path d="M14.713 25.7812H10.3595C10.0375 25.7812 9.77637 26.0423 9.77637 26.3643C9.77637 26.6864 10.0374 26.9474 10.3595 26.9474H14.713C15.035 26.9474 15.2961 26.6864 15.2961 26.3643C15.2961 26.0423 15.0351 25.7812 14.713 25.7812Z" fill="#FF4D4F"/>
<path d="M12.8472 30.7539H10.3595C10.0375 30.7539 9.77637 31.0149 9.77637 31.337C9.77637 31.659 10.0374 31.9201 10.3595 31.9201H12.8472C13.1692 31.9201 13.4303 31.659 13.4303 31.337C13.4302 31.015 13.1692 30.7539 12.8472 30.7539Z" fill="#FF4D4F"/>
<path d="M16.5779 30.7539H15.3341C15.0121 30.7539 14.751 31.0149 14.751 31.337C14.751 31.659 15.012 31.9201 15.3341 31.9201H16.5779C16.8999 31.9201 17.161 31.659 17.161 31.337C17.1609 31.015 16.8999 30.7539 16.5779 30.7539Z" fill="#FF4D4F"/>
<path d="M18.4446 28.2617H10.3595C10.0375 28.2617 9.77637 28.5228 9.77637 28.8448C9.77637 29.1668 10.0374 29.4279 10.3595 29.4279H18.4446C18.7666 29.4279 19.0277 29.1669 19.0277 28.8448C19.0277 28.5228 18.7666 28.2617 18.4446 28.2617Z" fill="#FF4D4F"/>
<path d="M20.6475 19.4787C20.9696 19.4787 21.2306 19.2176 21.2306 18.8956C21.2306 18.5736 20.9696 18.3125 20.6475 18.3125C20.3255 18.3125 20.0645 18.5736 20.0645 18.8956C20.0645 19.2176 20.3255 19.4787 20.6475 19.4787Z" fill="#FF4D4F"/>
<path d="M23.1427 19.4787C23.4647 19.4787 23.7257 19.2176 23.7257 18.8956C23.7257 18.5736 23.4647 18.3125 23.1427 18.3125C22.8206 18.3125 22.5596 18.5736 22.5596 18.8956C22.5596 19.2176 22.8206 19.4787 23.1427 19.4787Z" fill="#FF4D4F"/>
<path d="M25.6212 19.4787C25.9432 19.4787 26.2043 19.2176 26.2043 18.8956C26.2043 18.5736 25.9432 18.3125 25.6212 18.3125C25.2991 18.3125 25.0381 18.5736 25.0381 18.8956C25.0381 19.2176 25.2991 19.4787 25.6212 19.4787Z" fill="#FF4D4F"/>
<path d="M23.1427 16.9982C23.4647 16.9982 23.7257 16.7371 23.7257 16.4151C23.7257 16.0931 23.4647 15.832 23.1427 15.832C22.8206 15.832 22.5596 16.0931 22.5596 16.4151C22.5596 16.7371 22.8206 16.9982 23.1427 16.9982Z" fill="#FF4D4F"/>
<path d="M25.6212 16.9982C25.9432 16.9982 26.2043 16.7371 26.2043 16.4151C26.2043 16.0931 25.9432 15.832 25.6212 15.832C25.2991 15.832 25.0381 16.0931 25.0381 16.4151C25.0381 16.7371 25.2991 16.9982 25.6212 16.9982Z" fill="#FF4D4F"/>
<path d="M23.1427 21.967C23.4647 21.967 23.7257 21.7059 23.7257 21.3839C23.7257 21.0618 23.4647 20.8008 23.1427 20.8008C22.8206 20.8008 22.5596 21.0618 22.5596 21.3839C22.5596 21.7059 22.8206 21.967 23.1427 21.967Z" fill="#FF4D4F"/>
<path d="M25.6212 21.967C25.9432 21.967 26.2043 21.7059 26.2043 21.3839C26.2043 21.0618 25.9432 20.8008 25.6212 20.8008C25.2991 20.8008 25.0381 21.0618 25.0381 21.3839C25.0381 21.7059 25.2991 21.967 25.6212 21.967Z" fill="#FF4D4F"/>
</g>
<defs>
<clipPath id="clip0_660_14733">
<rect width="37.2384" height="37.2384" fill="white" transform="translate(0.78418 0.277344)"/>
</clipPath>
</defs>
</svg>
