<svg width="39" height="38" viewBox="0 0 39 38" fill="none" xmlns="http://www.w3.org/2000/svg">
<path d="M15.692 34.4226H23.45M13.3646 3.39062H25.7774M19.571 8.04543V3.39062M7.1582 18.9066H31.9838M27.329 29.7678L29.6564 34.4226M11.813 29.7678L9.4856 34.4226M14.1404 24.3372H14.1559M25.0016 24.3372H25.0171M14.6059 29.7678H24.5361C27.1431 29.7678 28.4465 29.7678 29.4423 29.2605C30.3181 28.8142 31.0302 28.1021 31.4765 27.2263C31.9838 26.2306 31.9838 24.9271 31.9838 22.3202V15.4931C31.9838 12.8862 31.9838 11.5827 31.4765 10.587C31.0302 9.71114 30.3181 8.99904 29.4423 8.55277C28.4465 8.04543 27.1431 8.04543 24.5361 8.04543H14.6059C11.999 8.04543 10.6955 8.04543 9.69977 8.55277C8.82391 8.99904 8.11182 9.71114 7.66555 10.587C7.1582 11.5827 7.1582 12.8862 7.1582 15.4931V22.3202C7.1582 24.9271 7.1582 26.2306 7.66555 27.2263C8.11182 28.1021 8.82391 28.8142 9.69977 29.2605C10.6955 29.7678 11.999 29.7678 14.6059 29.7678ZM14.9162 24.3372C14.9162 24.7657 14.5689 25.113 14.1404 25.113C13.7119 25.113 13.3646 24.7657 13.3646 24.3372C13.3646 23.9088 13.7119 23.5614 14.1404 23.5614C14.5689 23.5614 14.9162 23.9088 14.9162 24.3372ZM25.7774 24.3372C25.7774 24.7657 25.4301 25.113 25.0016 25.113C24.5732 25.113 24.2258 24.7657 24.2258 24.3372C24.2258 23.9088 24.5732 23.5614 25.0016 23.5614C25.4301 23.5614 25.7774 23.9088 25.7774 24.3372Z" stroke="#FF4D4F" stroke-width="2.56817" stroke-linecap="round" stroke-linejoin="round"/>
</svg>
