<svg width="39" height="38" viewBox="0 0 39 38" fill="none" xmlns="http://www.w3.org/2000/svg">
<path d="M34.9519 15.8049H3.91992M34.9519 18.9081V13.012C34.9519 11.274 34.9519 10.4051 34.6137 9.74126C34.3162 9.15735 33.8415 8.68262 33.2576 8.38511C32.5938 8.04688 31.7248 8.04688 29.9868 8.04688H8.88505C7.14709 8.04688 6.27811 8.04688 5.6143 8.3851C5.0304 8.68262 4.55567 9.15735 4.25815 9.74125C3.91992 10.4051 3.91992 11.274 3.91992 13.012V24.8042C3.91992 26.5421 3.91992 27.4111 4.25815 28.0749C4.55567 28.6588 5.03039 29.1335 5.6143 29.4311C6.27811 29.7693 7.14709 29.7693 8.88504 29.7693H19.4359" stroke="#FF4D4F" stroke-width="2.56817" stroke-linecap="round" stroke-linejoin="round"/>
<path d="M26.5713 25.4221H30.9158M26.5713 23.2499H30.9158M29.9848 30.3874L26.5713 27.5945L27.5022 27.5944C30.2608 27.5944 30.2608 23.2499 27.5022 23.2499M34.9499 26.6634C34.9499 30.0911 32.1712 32.8698 28.7435 32.8698C25.3158 32.8698 22.5371 30.0911 22.5371 26.6634C22.5371 23.2357 25.3158 20.457 28.7435 20.457C32.1712 20.457 34.9499 23.2357 34.9499 26.6634Z" stroke="#FF4D4F" stroke-width="1.5409" stroke-linecap="round" stroke-linejoin="round"/>
</svg>
