<svg width="40" height="40" viewBox="0 0 40 40" fill="none" xmlns="http://www.w3.org/2000/svg">
<path d="M26.6667 36.6654V13.332C26.6667 8.61798 26.6667 6.26096 25.2022 4.7965C23.7377 3.33203 21.3807 3.33203 16.6667 3.33203H15C10.2859 3.33203 7.92893 3.33203 6.46447 4.7965C5 6.26096 5 8.61798 5 13.332V36.6654" stroke="#FF3A3A" stroke-width="2.5"/>
<path d="M18.3333 10H13.3333C11.762 10 10.9763 10 10.4882 10.4882C10 10.9763 10 11.762 10 13.3333C10 14.9047 10 15.6904 10.4882 16.1785C10.9763 16.6667 11.762 16.6667 13.3333 16.6667H18.3333C19.9047 16.6667 20.6903 16.6667 21.1785 16.1785C21.6667 15.6904 21.6667 14.9047 21.6667 13.3333C21.6667 11.762 21.6667 10.9763 21.1785 10.4882C20.6903 10 19.9047 10 18.3333 10Z" stroke="#FF3A3A" stroke-width="2.5"/>
<path d="M11.667 28.332H20.0003" stroke="#FF3A3A" stroke-width="2.5" stroke-linecap="round"/>
<path d="M28.333 36.668H3.33301" stroke="#FF3A3A" stroke-width="2.5" stroke-linecap="round"/>
<path d="M32.5003 6.66797L34.5555 8.31209C34.7852 8.49585 34.9 8.58773 35.0045 8.68138C35.9898 9.56475 36.585 10.8027 36.6592 12.124C36.667 12.2641 36.667 12.4112 36.667 12.7054V30.8346C36.667 32.2153 35.5477 33.3346 34.167 33.3346C32.7863 33.3346 31.667 32.2153 31.667 30.8346V30.7156C31.667 29.4006 30.601 28.3346 29.286 28.3346H26.667" stroke="#FF3A3A" stroke-width="2.5" stroke-linecap="round"/>
<path d="M36.667 13.332H34.167C32.7863 13.332 31.667 14.4513 31.667 15.832V19.8635C31.667 20.9395 32.3555 21.8949 33.3765 22.2352L36.667 23.332" stroke="#FF3A3A" stroke-width="2.5" stroke-linecap="round"/>
</svg>
