<svg width="39" height="39" viewBox="0 0 39 39" fill="none" xmlns="http://www.w3.org/2000/svg">
<g clip-path="url(#clip0_660_14817)">
<path d="M34.5207 12.2621L32.8908 12.5863L22.8613 5.28202C22.9233 5.04193 22.9563 4.79028 22.9563 4.53114C22.9563 2.87483 21.6089 1.52734 19.9525 1.52734C18.2962 1.52734 16.9488 2.87483 16.9488 4.53114C16.9488 4.89356 17.0133 5.24121 17.1315 5.5632L2.44601 18.6422L0.964844 18.9369L4.64737 37.4496L38.2033 30.7749L34.5207 12.2621ZM19.9525 3.7383C20.3897 3.7383 20.7454 4.09395 20.7454 4.53114C20.7454 4.96833 20.3897 5.32398 19.9525 5.32398C19.5154 5.32398 19.1597 4.96833 19.1597 4.53114C19.1597 4.09403 19.5154 3.7383 19.9525 3.7383ZM18.6029 7.21354C19.009 7.41871 19.4673 7.53501 19.9525 7.53501C20.5428 7.53501 21.0932 7.36322 21.558 7.06808L29.9409 13.1731L6.72646 17.7908L18.6029 7.21354ZM3.56469 20.674L32.7836 14.8619L35.6033 29.0378L6.38441 34.8498L3.56469 20.674Z" fill="#FF4D4F"/>
<path d="M26.9474 28.2304L25.1766 19.3281L23.0081 19.7594L23.7037 23.2558L19.1807 20.0847L20.9515 28.987L23.1201 28.5557L22.4245 25.0593L26.9474 28.2304Z" fill="#FF4D4F"/>
<path d="M32.5855 20.106L32.1541 17.9375L26.25 19.1119L26.6814 21.2804L28.5492 20.9089L29.806 27.2275L31.9745 26.7961L30.7177 20.4775L32.5855 20.106Z" fill="#FF4D4F"/>
<path d="M19.4423 27.0416L15.7024 27.7855L15.5049 26.7926L17.2889 26.4377L16.8575 24.2693L15.0736 24.624L14.8761 23.6312L18.616 22.8873L18.1846 20.7188L12.2764 21.8941L13.9653 30.3853L19.8737 29.21L19.4423 27.0416Z" fill="#FF4D4F"/>
<path d="M12.5713 29.0454L10.3688 27.8054L12.2684 27.4275L11.2083 22.0977L5.2959 23.2737L6.14031 27.5194L6.98392 31.7609L9.1524 31.3295L8.7779 29.4471L11.4865 30.9721L12.5713 29.0454ZM8.09314 26.0037L7.8956 25.0108L9.4711 24.6974L9.66864 25.6903L8.09314 26.0037Z" fill="#FF4D4F"/>
</g>
<defs>
<clipPath id="clip0_660_14817">
<rect width="37.2384" height="37.2384" fill="white" transform="translate(0.961914 0.863281)"/>
</clipPath>
</defs>
</svg>
