<svg width="39" height="38" viewBox="0 0 39 38" fill="none" xmlns="http://www.w3.org/2000/svg">
<path d="M14.8309 32.905V21.4232C14.8309 20.5542 14.8309 20.1197 15.0001 19.7878C15.1488 19.4958 15.3862 19.2585 15.6781 19.1097C16.01 18.9406 16.4445 18.9406 17.3135 18.9406H21.658C22.527 18.9406 22.9615 18.9406 23.2934 19.1097C23.5853 19.2585 23.8227 19.4958 23.9714 19.7878C24.1405 20.1197 24.1405 20.5542 24.1405 21.4232V32.905M3.96973 15.0616L17.9962 4.54175C18.5304 4.14114 18.7974 3.94083 19.0908 3.86362C19.3497 3.79546 19.6218 3.79546 19.8807 3.86362C20.1741 3.94083 20.4411 4.14114 20.9753 4.54175L35.0018 15.0616M7.07293 12.7342V27.9399C7.07293 29.6779 7.07294 30.5468 7.41116 31.2106C7.70868 31.7945 8.18341 32.2693 8.76731 32.5668C9.43112 32.905 10.3001 32.905 12.0381 32.905H26.9334C28.6714 32.905 29.5404 32.905 30.2042 32.5668C30.7881 32.2693 31.2628 31.7945 31.5603 31.2106C31.8986 30.5468 31.8986 29.6779 31.8986 27.9399V12.7342L22.4648 5.65891C21.3965 4.85768 20.8624 4.45706 20.2757 4.30264C19.7579 4.16632 19.2136 4.16632 18.6958 4.30264C18.1091 4.45706 17.575 4.85768 16.5067 5.65891L7.07293 12.7342Z" stroke="#FF4D4F" stroke-width="2.56817" stroke-linecap="round" stroke-linejoin="round"/>
</svg>
