<svg width="38" height="38" viewBox="0 0 38 38" fill="none" xmlns="http://www.w3.org/2000/svg">
<path d="M19.0648 34.1492C27.6341 34.1492 34.5808 27.2024 34.5808 18.6332C34.5808 10.0639 27.6341 3.11719 19.0648 3.11719C10.4956 3.11719 3.54883 10.0639 3.54883 18.6332C3.54883 27.2024 10.4956 34.1492 19.0648 34.1492Z" stroke="#FF4D4F" stroke-width="2.56817"/>
<path d="M17.297 14.5412C18.0831 13.1309 18.4762 12.4258 19.0638 12.4258C19.6514 12.4258 20.0446 13.1309 20.8306 14.5412L21.034 14.906C21.2575 15.3067 21.3692 15.5071 21.5433 15.6393C21.7175 15.7715 21.9344 15.8207 22.3681 15.9187L22.7632 16.0081C24.2898 16.3535 25.053 16.5262 25.2345 17.1102C25.4162 17.6942 24.8958 18.3026 23.8552 19.5197L23.5858 19.8345C23.2901 20.1804 23.1422 20.3532 23.0758 20.5672C23.0092 20.7812 23.0316 21.0117 23.0763 21.4732L23.1169 21.8933C23.2742 23.5169 23.3531 24.3289 22.8775 24.6898C22.4021 25.0507 21.6874 24.7216 20.2581 24.0636L19.8883 23.8932C19.4821 23.7062 19.279 23.6127 19.0638 23.6127C18.8486 23.6127 18.6455 23.7062 18.2393 23.8932L17.8696 24.0636C16.4402 24.7216 15.7255 25.0507 15.2501 24.6898C14.7747 24.3289 14.8533 23.5169 15.0107 21.8933L15.0514 21.4732C15.0961 21.0117 15.1184 20.7812 15.0519 20.5672C14.9854 20.3532 14.8375 20.1804 14.5418 19.8345L14.2725 19.5197C13.2318 18.3026 12.7115 17.6942 12.8931 17.1102C13.0747 16.5262 13.8379 16.3535 15.3645 16.0081L15.7595 15.9187C16.1932 15.8207 16.4101 15.7715 16.5844 15.6393C16.7585 15.5071 16.8702 15.3067 17.0936 14.906L17.297 14.5412Z" stroke="#FF4D4F" stroke-width="2.56817"/>
</svg>
