<svg width="34" height="34" viewBox="0 0 34 34" fill="none" xmlns="http://www.w3.org/2000/svg">
<path d="M23.8492 2.70605H10.318C9.57375 2.70605 8.96484 3.31496 8.96484 4.05918V29.7686C8.96484 30.5128 9.57375 31.1217 10.318 31.1217H23.8492C24.5934 31.1217 25.2023 30.5128 25.2023 29.7686V4.05918C25.2023 3.31496 24.5934 2.70605 23.8492 2.70605Z" stroke="#A227AC" stroke-width="1.69141" stroke-miterlimit="10" stroke-linecap="round" stroke-linejoin="round"/>
<path d="M15.0586 29.0928H19.118" stroke="#A227AC" stroke-width="1.69141" stroke-miterlimit="10" stroke-linecap="round" stroke-linejoin="round"/>
<path d="M8.96484 6.08887H25.2023" stroke="#A227AC" stroke-width="1.69141" stroke-miterlimit="10" stroke-linecap="round" stroke-linejoin="round"/>
<path d="M8.96484 27.0625H25.2023" stroke="#A227AC" stroke-width="1.69141" stroke-miterlimit="10" stroke-linecap="round" stroke-linejoin="round"/>
<path d="M19.7922 14.2072C19.7922 14.2072 19.7922 11.501 17.0859 11.501C14.3797 11.501 14.3797 14.2072 14.3797 14.2072C14.3797 18.0413 20.4687 15.927 20.4687 19.6197C20.4687 19.6197 20.4687 22.326 17.0859 22.326C13.7031 22.326 13.7031 18.9432 13.7031 18.9432" stroke="#A227AC" stroke-width="1.69141" stroke-miterlimit="10" stroke-linejoin="round"/>
<path d="M17.0859 9.47168V11.5014" stroke="#A227AC" stroke-width="1.69141" stroke-miterlimit="10" stroke-linejoin="round"/>
<path d="M17.0859 24.3568V22.3271" stroke="#A227AC" stroke-width="1.69141" stroke-miterlimit="10" stroke-linejoin="round"/>
</svg>
