<svg width="26" height="30" viewBox="0 0 26 30" fill="none" xmlns="http://www.w3.org/2000/svg">
<path d="M10.7832 0.132504C9.65871 0.44451 8.87555 1.10878 8.37352 2.15551C8.08235 2.76946 8.07231 2.83991 8.07231 4.24897C8.07231 5.05415 8.04219 5.77881 8.01207 5.86939C7.96186 6.0103 7.68073 6.03043 5.90356 6.03043C4.06615 6.03043 3.8051 6.05056 3.283 6.24179C2.55004 6.51353 2.0179 6.88593 1.45563 7.48981C0.89336 8.10376 0.572065 8.84855 0.441539 9.87515C0.300972 10.9823 0.311012 21.198 0.441539 21.9931C0.702591 23.4424 1.52591 24.62 2.65045 25.1635C3.68462 25.6566 3.66454 25.6566 9.65871 25.6566C14.1167 25.6566 15.3015 25.6868 15.3015 25.7875C15.3015 25.8479 15.191 26.3209 15.0504 26.8141C14.6689 28.1627 14.4279 29.0082 14.3878 29.1793C14.3376 29.3806 15.2412 29.451 15.4822 29.2598C15.5625 29.1893 16.1449 28.3439 16.7774 27.3878L17.912 25.6566H19.9201C22.1892 25.6566 22.38 25.6063 22.7113 24.9823C22.872 24.6804 22.8519 23.9356 22.6812 23.7041C22.2796 23.1807 22.1089 23.1405 20.0104 23.1405C17.7915 23.1405 17.9923 23.2109 17.3497 22.2346C17.1891 21.983 17.0184 21.7314 16.9581 21.671C16.9079 21.6005 16.5465 21.0671 16.175 20.4834L15.4922 19.4165H14.94C14.5685 19.4165 14.3978 19.4568 14.3978 19.5373C14.4079 19.7184 14.5283 20.1814 14.95 21.6207C15.1509 22.3051 15.2914 22.9291 15.2613 22.9995C15.2211 23.1203 14.2974 23.1405 9.90972 23.1405C6.57628 23.1405 4.46777 23.1002 4.23684 23.0398C4.02599 22.9794 3.72478 22.8184 3.55409 22.6674C2.93158 22.144 2.95166 22.4057 2.95166 15.914C2.95166 9.53295 2.95166 9.57321 3.47377 9.08004C4.05611 8.52648 3.73482 8.54661 13.1428 8.54661C22.631 8.54661 22.2093 8.51641 22.7816 9.14043C23.3138 9.69399 23.3138 9.7745 23.3238 14.4445L23.3339 18.7724L23.6953 19.1246C24.0066 19.4266 24.107 19.4668 24.5889 19.4668C25.0709 19.4668 25.1713 19.4266 25.4624 19.1347L25.7938 18.8126L25.8239 14.4043C25.854 9.68392 25.8239 9.19075 25.3721 8.30506C24.9303 7.42942 23.8861 6.54373 22.882 6.20153C22.7214 6.14114 21.6069 6.07069 20.4221 6.04049L18.2634 5.9801L18.2132 4.36975C18.163 2.78959 18.153 2.73927 17.8317 2.08506C17.3397 1.07859 16.5264 0.414314 15.4521 0.132504C14.7994 -0.0486622 11.4258 -0.0385971 10.7832 0.132504ZM15.2412 2.86004C15.3818 2.99088 15.5525 3.22237 15.6027 3.36328C15.7232 3.67528 15.7332 5.72849 15.6228 5.90965C15.5525 6.00023 14.9802 6.03043 13.0825 6.0103L10.6326 5.9801L10.6025 4.6415L10.5724 3.30289L10.9238 2.95062L11.2652 2.60842H13.1227C14.95 2.60842 14.9701 2.60842 15.2412 2.86004Z" fill="#A227AC"/>
</svg>
