<svg width="26" height="19" viewBox="0 0 26 19" fill="none" xmlns="http://www.w3.org/2000/svg">
<path d="M0 15.7513C0 17.3552 1.31278 18.668 2.91667 18.668L22.1667 18.668C23.7705 18.668 25.0833 17.3552 25.0833 15.7513V2.91797C25.0833 1.31409 23.7705 0.001303 22.1667 0.00130298L5.14974 0.00130278C4.68575 0.00130277 4.24045 0.185988 3.91243 0.513998L0.512695 3.91374C0.184684 4.24175 0 4.68705 0 5.15104L0 15.7513ZM1.16667 15.7513L1.16667 5.15104C1.16667 4.9967 1.22808 4.8481 1.33757 4.73861L4.7373 1.33887C4.84679 1.22938 4.99539 1.16797 5.14974 1.16797L22.1667 1.16797C23.1399 1.16797 23.9167 1.94469 23.9167 2.91797V15.7513C23.9167 16.7246 23.1399 17.5013 22.1667 17.5013L2.91667 17.5013C1.94338 17.5013 1.16667 16.7246 1.16667 15.7513ZM9.32536 11.0938C9.32597 11.122 9.32864 11.1502 9.33333 11.1781V12.8346C9.33333 14.1164 10.3849 15.168 11.6667 15.168L17.402 15.168C17.465 15.1784 17.5293 15.1784 17.5923 15.168L19.8333 15.168C21.1151 15.168 22.1667 14.1164 22.1667 12.8346V11.1826C22.1771 11.1196 22.1771 11.0553 22.1667 10.9924V7.68262C22.1771 7.61962 22.1771 7.55535 22.1667 7.49235V5.83464C22.1667 4.55286 21.1151 3.5013 19.8333 3.5013L17.598 3.5013C17.535 3.49089 17.4707 3.49089 17.4077 3.5013L14.098 3.5013C14.035 3.49089 13.9707 3.49089 13.9077 3.5013L11.6667 3.5013C10.3849 3.5013 9.33333 4.55286 9.33333 5.83464V7.48665C9.32292 7.54965 9.32292 7.61393 9.33333 7.67692V10.9946C9.32786 11.0274 9.32519 11.0605 9.32536 11.0938ZM10.5 12.8346V11.668L14 11.668C14.1547 11.668 14.3031 11.6065 14.4125 11.4971C14.5219 11.3877 14.5833 11.2393 14.5833 11.0846V7.68262C14.5937 7.61962 14.5937 7.55535 14.5833 7.49235V4.66797L16.9167 4.66797V7.48665C16.9063 7.54965 16.9063 7.61393 16.9167 7.67692V10.9867C16.9107 11.022 16.9081 11.0579 16.9087 11.0938C16.9094 11.1216 16.912 11.1494 16.9167 11.1769V14.0013L11.6667 14.0013C11.0153 14.0013 10.5 13.486 10.5 12.8346ZM10.5 10.5013V8.16797L13.4167 8.16797V10.5013L10.5 10.5013ZM10.5 7.0013V5.83464C10.5 5.18325 11.0153 4.66797 11.6667 4.66797L13.4167 4.66797V7.0013L10.5 7.0013ZM18.0833 14.0013V11.668L21 11.668V12.8346C21 13.486 20.4847 14.0013 19.8333 14.0013L18.0833 14.0013ZM18.0833 10.5013V8.16797L21 8.16797V10.5013L18.0833 10.5013ZM18.0833 7.0013V4.66797L19.8333 4.66797C20.4847 4.66797 21 5.18325 21 5.83464V7.0013L18.0833 7.0013Z" fill="#853249"/>
</svg>