<svg width="28" height="28" viewBox="0 0 28 28" fill="none" xmlns="http://www.w3.org/2000/svg">
<g clip-path="url(#clip0_33285_42880)">
<path d="M24.6647 5.00781H3.51531C2.28587 5.00781 1.28906 6.00462 1.28906 7.23406V20.035C1.28906 21.2644 2.28587 22.2612 3.51531 22.2612H24.6647C25.8941 22.2612 26.8909 21.2644 26.8909 20.035V7.23406C26.8909 6.00462 25.8941 5.00781 24.6647 5.00781Z" stroke="#853249" stroke-width="1.11312" stroke-miterlimit="10" stroke-linecap="round"/>
<path d="M11.8591 8.90625C10.6296 8.90625 9.63281 9.90305 9.63281 11.1325V13.3587H11.8591C13.0885 13.3587 14.0853 12.3619 14.0853 11.1325C14.0853 9.90305 13.0885 8.90625 11.8591 8.90625Z" stroke="#853249" stroke-width="1.11312" stroke-miterlimit="10" stroke-linecap="round"/>
<path d="M7.40594 8.90625C6.17649 8.90625 5.17969 9.90305 5.17969 11.1325C5.17969 12.3619 6.17649 13.3587 7.40594 13.3587H9.63219V11.1325C9.63219 9.90305 8.63538 8.90625 7.40594 8.90625Z" stroke="#853249" stroke-width="1.11312" stroke-miterlimit="10" stroke-linecap="round"/>
<path d="M6.28906 16.6975L9.62844 13.4043L12.9678 16.6975" stroke="#853249" stroke-width="1.11312" stroke-miterlimit="10"/>
<path d="M11.8603 8.34961C10.947 8.34961 10.1416 8.7982 9.63406 9.47999C9.12648 8.7982 8.32113 8.34961 7.40781 8.34961C5.87337 8.34961 4.625 9.59798 4.625 11.1324C4.625 12.6669 5.87337 13.9152 7.40781 13.9152H8.32391L5.90342 16.3018L6.68484 17.0943L9.63406 14.1868L12.5827 17.0943L13.3641 16.3018L10.9442 13.9152H11.8603C13.3948 13.9152 14.6431 12.6669 14.6431 11.1324C14.6431 9.59798 13.3948 8.34961 11.8603 8.34961ZM9.0775 12.8021H7.40781C6.48726 12.8021 5.73812 12.053 5.73812 11.1324C5.73812 10.2119 6.48726 9.46273 7.40781 9.46273C8.32837 9.46273 9.0775 10.2119 9.0775 11.1324V12.8021ZM11.8603 12.8021H10.1906V11.1324C10.1906 10.2119 10.9398 9.46273 11.8603 9.46273C12.7809 9.46273 13.53 10.2119 13.53 11.1324C13.53 12.053 12.7809 12.8021 11.8603 12.8021Z" fill="#853249"/>
<path d="M1.28906 12.8008V13.9139H4.70135C4.37186 13.5928 4.09414 13.2204 3.89377 12.8008H1.28906Z" fill="#853249"/>
<path d="M9.07812 16.2978V22.2625H10.1912V16.2978L9.63469 15.749L9.07812 16.2978Z" fill="#853249"/>
<path d="M14.5703 13.9139H26.331L26.8876 12.8008H15.3779C15.1781 13.2204 14.8998 13.5928 14.5703 13.9139Z" fill="#853249"/>
<path d="M9.07812 7.61531C9.27125 7.70825 9.45826 7.814 9.63469 7.93811C9.81112 7.81344 9.99812 7.7077 10.1912 7.61531V5.00781H9.07812V7.61531Z" fill="#853249"/>
<path d="M17.9862 19.4793C18.2936 19.4793 18.5428 19.2302 18.5428 18.9228C18.5428 18.6154 18.2936 18.3662 17.9862 18.3662C17.6789 18.3662 17.4297 18.6154 17.4297 18.9228C17.4297 19.2302 17.6789 19.4793 17.9862 19.4793Z" fill="#853249"/>
<path d="M19.6503 19.4793C19.9577 19.4793 20.2069 19.2302 20.2069 18.9228C20.2069 18.6154 19.9577 18.3662 19.6503 18.3662C19.3429 18.3662 19.0938 18.6154 19.0938 18.9228C19.0938 19.2302 19.3429 19.4793 19.6503 19.4793Z" fill="#853249"/>
<path d="M21.3222 19.4793C21.6296 19.4793 21.8787 19.2302 21.8787 18.9228C21.8787 18.6154 21.6296 18.3662 21.3222 18.3662C21.0148 18.3662 20.7656 18.6154 20.7656 18.9228C20.7656 19.2302 21.0148 19.4793 21.3222 19.4793Z" fill="#853249"/>
<path d="M22.9862 19.4793C23.2936 19.4793 23.5428 19.2302 23.5428 18.9228C23.5428 18.6154 23.2936 18.3662 22.9862 18.3662C22.6789 18.3662 22.4297 18.6154 22.4297 18.9228C22.4297 19.2302 22.6789 19.4793 22.9862 19.4793Z" fill="#853249"/>
</g>
<defs>
<clipPath id="clip0_33285_42880">
<rect width="27.8281" height="27.8281" fill="white" transform="translate(0.171875)"/>
</clipPath>
</defs>
</svg>
