<svg width="19" height="22" viewBox="0 0 19 22" fill="none" xmlns="http://www.w3.org/2000/svg">
<path d="M2.81147 0C2.72607 0 2.64179 0.0483 2.60913 0.145833L2.11876 1.60052L0.583866 1.61693C0.378533 1.61973 0.292885 1.88294 0.458085 2.00521L1.68855 2.92214L1.231 4.38594C1.17033 4.58287 1.39295 4.74421 1.56095 4.62474L2.81329 3.7388L4.06564 4.62474C4.23364 4.74421 4.45718 4.58194 4.39559 4.38594L3.93803 2.92214L5.1685 2.00521C5.3337 1.88294 5.2481 1.61973 5.0409 1.61693L3.506 1.60052L3.01564 0.145833C2.98297 0.0483 2.89687 0 2.81147 0ZM9.34663 0C9.26123 0 9.17513 0.0483 9.14246 0.145833L8.65209 1.60052L7.1172 1.61693C6.91187 1.61973 6.82622 1.88294 6.99142 2.00521L8.22371 2.92214L7.76616 4.38594C7.70456 4.58194 7.92628 4.74421 8.09428 4.62474L9.34663 3.7388L10.599 4.62474C10.767 4.74421 10.9905 4.58194 10.9289 4.38594L10.4714 2.92214L11.7018 2.00521C11.867 1.88294 11.7823 1.61973 11.5761 1.61693L10.0412 1.60052L9.55079 0.145833C9.51813 0.0483 9.43203 0 9.34663 0ZM15.88 0C15.7946 0 15.7085 0.0483 15.6758 0.145833L15.1854 1.60052L13.6505 1.61693C13.4452 1.61973 13.3596 1.88294 13.5248 2.00521L14.757 2.92214L14.2995 4.38594C14.2379 4.58194 14.4596 4.74421 14.6276 4.62474L15.88 3.7388L17.1323 4.62474C17.3003 4.74421 17.5239 4.58194 17.4623 4.38594L17.0047 2.92214L18.2352 2.00521C18.4004 1.88294 18.3157 1.61973 18.1094 1.61693L16.5745 1.60052L16.0841 0.145833C16.0515 0.0483 15.9654 0 15.88 0ZM0.946626 6.53333C0.822949 6.53158 0.700157 6.55443 0.585386 6.60055C0.470616 6.64667 0.366156 6.71514 0.278078 6.80198C0.19 6.88883 0.120059 6.99231 0.0723212 7.10641C0.0245833 7.22052 0 7.34298 0 7.46667C0 7.59036 0.0245833 7.71281 0.0723212 7.82692C0.120059 7.94103 0.19 8.04451 0.278078 8.13135C0.366156 8.21819 0.470616 8.28666 0.585386 8.33278C0.700157 8.3789 0.822949 8.40175 0.946626 8.4V21.4667H6.54663V16.8H12.1466V21.4667H17.7466V8.4C17.8703 8.40175 17.9931 8.3789 18.1079 8.33278C18.2226 8.28666 18.3271 8.21819 18.4152 8.13135C18.5033 8.04451 18.5732 7.94103 18.6209 7.82692C18.6687 7.71281 18.6933 7.59036 18.6933 7.46667C18.6933 7.34298 18.6687 7.22052 18.6209 7.10641C18.5732 6.99231 18.5033 6.88883 18.4152 6.80198C18.3271 6.71514 18.2226 6.64667 18.1079 6.60055C17.9931 6.55443 17.8703 6.53158 17.7466 6.53333H0.946626ZM2.81329 9.33333H4.67996V11.2H2.81329V9.33333ZM6.54663 9.33333H8.41329V11.2H6.54663V9.33333ZM10.28 9.33333H12.1466V11.2H10.28V9.33333ZM14.0133 9.33333H15.88V11.2H14.0133V9.33333ZM2.81329 13.0667H4.67996V14.9333H2.81329V13.0667ZM6.54663 13.0667H8.41329V14.9333H6.54663V13.0667ZM10.28 13.0667H12.1466V14.9333H10.28V13.0667ZM14.0133 13.0667H15.88V14.9333H14.0133V13.0667ZM2.81329 16.8H4.67996V18.6667H2.81329V16.8ZM14.0133 16.8H15.88V18.6667H14.0133V16.8Z" fill="#608460"/>
</svg>