<svg width="28" height="27" viewBox="0 0 28 27" fill="none" xmlns="http://www.w3.org/2000/svg">
<g clip-path="url(#clip0_33284_42860)">
<path d="M14.0864 12.3779C15.5966 12.3779 16.8252 11.1493 16.8252 9.63914C16.8252 8.12902 15.5965 6.90039 14.0864 6.90039C12.5763 6.90039 11.3477 8.12902 11.3477 9.63914C11.3477 11.1493 12.5762 12.3779 14.0864 12.3779ZM14.0864 8.54685C14.6887 8.54685 15.1786 9.03685 15.1786 9.63909C15.1786 10.2413 14.6886 10.7313 14.0864 10.7313C13.4842 10.7313 12.9942 10.2413 12.9942 9.63909C12.9942 9.03685 13.4841 8.54685 14.0864 8.54685Z" fill="#A227AC"/>
<path d="M14.0879 13.9238C11.5215 13.9238 9.43359 16.0117 9.43359 18.5781V19.4014H18.7422V18.5781C18.7422 16.0118 16.6543 13.9238 14.0879 13.9238ZM11.1946 17.7549C11.5536 16.4954 12.7148 15.5703 14.0879 15.5703C15.461 15.5703 16.6222 16.4954 16.9811 17.7549H11.1946Z" fill="#A227AC"/>
<path d="M26.3007 4.65705C25.6251 4.76874 24.9373 4.82538 24.2564 4.82538C20.6962 4.82549 17.2949 3.33029 14.679 0.615356L14.0861 0L13.4933 0.615301C10.8776 3.33007 7.47625 4.82521 3.91583 4.82532C3.23516 4.82532 2.54736 4.76874 1.87152 4.65699L0.875 4.49229L0.914681 5.5016C1.07033 9.46519 1.83706 13.041 3.19345 16.1297C4.28685 18.6196 5.76283 20.7987 7.58042 22.6067C10.6954 25.7053 13.7231 26.635 13.8505 26.673L14.0862 26.7434L14.3218 26.673C14.4492 26.635 17.4769 25.7053 20.5919 22.6067C22.4094 20.7987 23.8854 18.6196 24.9789 16.1297C26.3353 13.041 27.102 9.46519 27.2577 5.5016L27.2973 4.49229L26.3007 4.65705ZM19.4955 21.3746C17.1451 23.7368 14.8176 24.738 14.0846 25.013C13.36 24.7436 11.0839 23.7694 8.74154 21.4394C6.20789 18.9191 3.14214 14.291 2.61174 6.41135C3.04631 6.45158 3.48236 6.47189 3.91589 6.47189C5.92798 6.47183 7.90017 6.04813 9.77763 5.21258C11.3564 4.50996 12.8025 3.54631 14.0861 2.34271C15.3698 3.54653 16.8158 4.51007 18.3945 5.21269C20.272 6.0483 22.2442 6.47189 24.2564 6.47183C24.6899 6.47183 25.1259 6.45153 25.5603 6.4113C25.1387 12.6424 23.0515 17.8008 19.4955 21.3746Z" fill="#A227AC"/>
</g>
<defs>
<clipPath id="clip0_33284_42860">
<rect width="26.7434" height="26.7434" fill="white" transform="translate(0.714844)"/>
</clipPath>
</defs>
</svg>
