<svg width="32" height="32" viewBox="0 0 32 32" fill="none" xmlns="http://www.w3.org/2000/svg">
<g clip-path="url(#clip0_33285_42894)">
<path d="M8.44844 28.0082C10.2063 28.0082 11.6312 26.5832 11.6312 24.8254C11.6312 23.0676 10.2063 21.6426 8.44844 21.6426C6.69062 21.6426 5.26562 23.0676 5.26562 24.8254C5.26562 26.5832 6.69062 28.0082 8.44844 28.0082Z" stroke="#3F787D" stroke-width="1.59141" stroke-miterlimit="10"/>
<path d="M25.632 28.0082C27.3898 28.0082 28.8148 26.5832 28.8148 24.8254C28.8148 23.0676 27.3898 21.6426 25.632 21.6426C23.8742 21.6426 22.4492 23.0676 22.4492 24.8254C22.4492 26.5832 23.8742 28.0082 25.632 28.0082Z" stroke="#3F787D" stroke-width="1.59141" stroke-miterlimit="10"/>
<path d="M28.818 24.8255H30.0911C30.7277 24.8255 31.3642 24.1889 31.3642 23.5524C31.3642 23.5524 31.3642 18.5235 31.3642 17.4414C31.3642 16.3592 30.473 15.0861 30.473 15.0861L27.8631 11.585C27.3539 10.9484 26.5263 10.1846 25.6352 10.1846H20.5427C19.9061 10.1846 19.2695 10.8211 19.2695 11.4577V24.8255H22.4523M31.3642 17.8233C31.3642 17.8233 25.6352 17.8233 24.9986 17.8233C24.362 17.8233 23.7255 17.1868 23.7255 16.5502C23.7255 16.1683 23.7255 11.1394 23.7255 10.1846" stroke="#3F787D" stroke-width="1.59141" stroke-miterlimit="10"/>
<path d="M11.6302 24.8264H19.2689V6.93896C19.2689 6.3024 18.696 5.72949 18.0594 5.72949H1.95441C1.31784 5.72949 0.808594 6.23874 0.808594 6.8753V23.5532C0.808594 24.2535 1.3815 24.8264 2.08172 24.8264H5.26453" stroke="#3F787D" stroke-width="1.59141" stroke-miterlimit="10"/>
<path d="M9.72109 20.3699C6.22 20.3699 3.35547 17.5054 3.35547 14.0043C3.35547 10.5032 6.22 7.63867 9.72109 7.63867C13.2222 7.63867 16.0867 10.5032 16.0867 14.0043C16.0867 17.5054 13.2222 20.3699 9.72109 20.3699ZM9.72109 8.9118C6.92022 8.9118 4.62859 11.2034 4.62859 14.0043C4.62859 16.8052 6.92022 19.0968 9.72109 19.0968C12.522 19.0968 14.8136 16.8052 14.8136 14.0043C14.8136 11.2034 12.522 8.9118 9.72109 8.9118ZM10.3577 14.3226V10.1849H9.08453V13.686L6.79291 15.4047L7.55678 16.4232L10.3577 14.3226Z" fill="#3F787D"/>
</g>
<defs>
<clipPath id="clip0_33285_42894">
<rect width="31.8281" height="31.8281" fill="white" transform="translate(0.171875)"/>
</clipPath>
</defs>
</svg>
