<svg width="29" height="29" viewBox="0 0 29 29" fill="none" xmlns="http://www.w3.org/2000/svg">
<path d="M4.50781 10.7051V16.3395" stroke="#D55275" stroke-width="1.12687" stroke-miterlimit="10" stroke-linejoin="round"/>
<path d="M23.6641 10.7051V16.3395" stroke="#D55275" stroke-width="1.12687" stroke-miterlimit="10" stroke-linejoin="round"/>
<path d="M24.7895 16.3398H3.37891V24.7914H24.7895V16.3398Z" stroke="#D55275" stroke-width="1.12687" stroke-miterlimit="10" stroke-linecap="round" stroke-linejoin="round"/>
<path d="M25.6918 8.18469L24.228 2.81738H3.94422L2.48041 8.18469C2.34011 8.43091 2.25391 8.7115 2.25391 9.0152C2.25391 9.94881 3.0106 10.7055 3.94422 10.7055C4.87783 10.7055 5.63453 9.94881 5.63453 9.0152C5.63453 9.94881 6.39123 10.7055 7.32484 10.7055C8.25846 10.7055 9.01516 9.94881 9.01516 9.0152C9.01516 9.94881 9.77185 10.7055 10.7055 10.7055C11.6391 10.7055 12.3958 9.94881 12.3958 9.0152C12.3958 9.94881 13.1525 10.7055 14.0861 10.7055C15.0197 10.7055 15.7764 9.94881 15.7764 9.0152C15.7764 9.94881 16.5331 10.7055 17.4667 10.7055C18.4003 10.7055 19.157 9.94881 19.157 9.0152C19.157 9.94881 19.9137 10.7055 20.8473 10.7055C21.781 10.7055 22.5377 9.94881 22.5377 9.0152C22.5377 9.94881 23.2944 10.7055 24.228 10.7055C25.1616 10.7055 25.9183 9.94881 25.9183 9.0152C25.9183 8.7115 25.8321 8.43091 25.6918 8.18469Z" stroke="#D55275" stroke-width="1.12687" stroke-miterlimit="10" stroke-linecap="round" stroke-linejoin="round"/>
</svg>
