<svg width="32" height="32" viewBox="0 0 32 32" fill="none" xmlns="http://www.w3.org/2000/svg">
<path d="M16.0852 19.0971C17.843 19.0971 19.268 17.6721 19.268 15.9143C19.268 14.1564 17.843 12.7314 16.0852 12.7314C14.3273 12.7314 12.9023 14.1564 12.9023 15.9143C12.9023 17.6721 14.3273 19.0971 16.0852 19.0971Z" stroke="#448186" stroke-width="1.27312" stroke-miterlimit="10"/>
<path d="M26.2727 19.0971C28.0305 19.0971 29.4555 17.6721 29.4555 15.9143C29.4555 14.1564 28.0305 12.7314 26.2727 12.7314C24.5148 12.7314 23.0898 14.1564 23.0898 15.9143C23.0898 17.6721 24.5148 19.0971 26.2727 19.0971Z" stroke="#448186" stroke-width="1.27312" stroke-miterlimit="10"/>
<path d="M5.90156 19.0971C7.65938 19.0971 9.08437 17.6721 9.08437 15.9143C9.08437 14.1564 7.65938 12.7314 5.90156 12.7314C4.14374 12.7314 2.71875 14.1564 2.71875 15.9143C2.71875 17.6721 4.14374 19.0971 5.90156 19.0971Z" stroke="#448186" stroke-width="1.27312" stroke-miterlimit="10"/>
</svg>
