<svg width="34" height="28" viewBox="0 0 34 28" fill="none" xmlns="http://www.w3.org/2000/svg">
<path d="M1.9258 2.05767C1.3726 2.05767 0.898438 1.58884 0.898438 1.01581C0.898438 0.468837 1.3726 0 1.9258 0H4.61274C4.63908 0 4.69177 0 4.71811 0C5.66644 0.0260465 6.5094 0.208372 7.22065 0.651163C8.01093 1.14605 8.59046 1.9014 8.90657 3.0214C8.90657 3.04744 8.90657 3.07349 8.93292 3.09953L9.19634 4.1414H32.2461C32.8256 4.1414 33.2734 4.61023 33.2734 5.15721C33.2734 5.26139 33.2471 5.36558 33.2208 5.46977L30.5338 16.1749C30.4284 16.6437 30.007 16.9563 29.5328 16.9563H12.6736C13.0424 18.3107 13.4112 19.04 13.9117 19.3786C14.5175 19.7693 15.5712 19.7953 17.3362 19.7693H17.3625H29.2694C29.8489 19.7693 30.2967 20.2381 30.2967 20.7851C30.2967 21.3581 29.8226 21.8009 29.2694 21.8009H17.3625C15.1761 21.827 13.8326 21.7749 12.7526 21.0716C11.6462 20.3423 11.0667 19.0921 10.4871 16.826L6.95723 3.62047C6.95723 3.59442 6.95723 3.59442 6.93088 3.56837C6.77283 2.99535 6.5094 2.60465 6.14061 2.39628C5.77181 2.16186 5.2713 2.05767 4.69177 2.05767C4.66542 2.05767 4.63908 2.05767 4.61274 2.05767H1.9258ZM26.1873 22.9991C27.5834 22.9991 28.7162 24.1191 28.7162 25.4995C28.7162 26.88 27.5834 28 26.1873 28C24.7911 28 23.6584 26.88 23.6584 25.4995C23.6584 24.1191 24.7911 22.9991 26.1873 22.9991ZM15.0971 22.9991C16.4932 22.9991 17.626 24.1191 17.626 25.4995C17.626 26.88 16.4932 28 15.0971 28C13.7009 28 12.5682 26.88 12.5682 25.4995C12.5682 24.1191 13.7009 22.9991 15.0971 22.9991ZM9.77588 6.17302L12.1204 14.8986H28.7425L30.929 6.17302H9.77588Z" fill="#608460"/>
</svg>
