<svg width="30" height="30" viewBox="0 0 30 30" fill="none" xmlns="http://www.w3.org/2000/svg">
<path d="M15.0877 14.3179C15.7466 14.3179 16.2808 13.7837 16.2808 13.1248C16.2808 12.4658 15.7466 11.9316 15.0877 11.9316C14.4287 11.9316 13.8945 12.4658 13.8945 13.1248C13.8945 13.7837 14.4287 14.3179 15.0877 14.3179Z" fill="#E68401"/>
<path d="M11.5078 19.0908H18.6666" stroke="#E68401" stroke-width="1.19312" stroke-miterlimit="10" stroke-linecap="round" stroke-linejoin="round"/>
<path d="M17.7717 15.5105C18.3683 14.8543 18.6666 14.0191 18.6666 13.1243C18.6666 11.1556 17.0558 9.54492 15.0872 9.54492C13.1185 9.54492 11.5078 11.1556 11.5078 13.1243C11.5078 14.0191 11.8657 14.8543 12.4027 15.5105" stroke="#E68401" stroke-width="1.19312" stroke-miterlimit="10" stroke-linecap="round"/>
<path d="M27.6142 15.5107H2.55859V27.442H27.6142V15.5107Z" stroke="#E68401" stroke-width="1.19312" stroke-miterlimit="10" stroke-linecap="round" stroke-linejoin="round"/>
<path d="M25.5256 15.5101C25.7046 14.7346 25.8239 13.9591 25.8239 13.1239C25.8239 7.2179 20.9918 2.38574 15.0858 2.38574C9.17981 2.38574 4.34766 7.2179 4.34766 13.1239C4.34766 13.9591 4.46697 14.7346 4.64594 15.5101" stroke="#E68401" stroke-width="1.19312" stroke-miterlimit="10" stroke-linecap="round"/>
</svg>
