<svg width="28" height="28" viewBox="0 0 28 28" fill="none" xmlns="http://www.w3.org/2000/svg">
<path d="M8.16634 20.9967C5.62881 20.9826 4.25458 20.87 3.35813 19.9735C2.33301 18.9484 2.33301 17.2985 2.33301 13.9987V9.33203C2.33301 6.0322 2.33301 4.38228 3.35813 3.35716C4.38326 2.33203 6.03317 2.33203 9.33301 2.33203H18.6663C21.9661 2.33203 23.616 2.33203 24.6412 3.35716C25.6663 4.38228 25.6663 6.0322 25.6663 9.33203V13.9987C25.6663 17.2985 25.6663 18.9484 24.6412 19.9735C23.7898 20.8251 22.5071 20.9693 20.206 20.9937L19.2497 20.9967" stroke="#E68401" stroke-width="2"/>
<path d="M10.499 7H17.499" stroke="#E68401" stroke-width="2" stroke-linecap="round"/>
<path d="M8.16602 11.082H19.8327" stroke="#E68401" stroke-width="2" stroke-linecap="round"/>
<path d="M12.7048 16.2696C13.4506 15.6341 14.5475 15.6341 15.2933 16.2696C15.6128 16.542 16.0102 16.7066 16.4288 16.74C17.4055 16.8179 18.1811 17.5935 18.2591 18.5702C18.2925 18.9888 18.457 19.3862 18.7295 19.7058C19.3649 20.4516 19.3649 21.5485 18.7295 22.2942C18.457 22.6138 18.2925 23.0112 18.2591 23.4298C18.1811 24.4065 17.4055 25.1821 16.4288 25.26C16.0102 25.2935 15.6128 25.458 15.2933 25.7304C14.5475 26.3659 13.4506 26.3659 12.7048 25.7304C12.3852 25.458 11.9879 25.2935 11.5693 25.26C10.5926 25.1821 9.81694 24.4065 9.73899 23.4298C9.70559 23.0112 9.54101 22.6138 9.26865 22.2942C8.63311 21.5485 8.63311 20.4516 9.26865 19.7058C9.54101 19.3862 9.70559 18.9888 9.73899 18.5702C9.81695 17.5935 10.5926 16.8179 11.5693 16.74C11.9879 16.7066 12.3852 16.542 12.7048 16.2696Z" stroke="#E68401" stroke-width="2"/>
<path d="M12.249 21.232L13.249 22.1654L15.749 19.832" stroke="#E68401" stroke-width="2" stroke-linecap="round" stroke-linejoin="round"/>
</svg>