<svg width="31" height="30" viewBox="0 0 31 30" fill="none" xmlns="http://www.w3.org/2000/svg">
<g clip-path="url(#clip0_33285_42924)">
<path d="M28.2859 16.2002V28.2002H18.0859V16.2002" stroke="#5DBC5D" stroke-opacity="0.772549" stroke-width="1.25" stroke-miterlimit="10" stroke-linejoin="round"/>
<path d="M1.88672 16.5V28.2" stroke="#5DBC5D" stroke-opacity="0.772549" stroke-width="1.25" stroke-miterlimit="10" stroke-linecap="round" stroke-linejoin="round"/>
<path d="M29.4875 13.7998H0.6875V16.1998H29.4875V13.7998Z" stroke="#5DBC5D" stroke-opacity="0.772549" stroke-width="1.25" stroke-miterlimit="10" stroke-linecap="round" stroke-linejoin="round"/>
<path d="M18.0859 22.1992H28.2859" stroke="#5DBC5D" stroke-opacity="0.772549" stroke-width="1.25" stroke-miterlimit="10" stroke-linejoin="round"/>
<path d="M1.88672 20.3994H18.0867" stroke="#5DBC5D" stroke-opacity="0.772549" stroke-width="1.25" stroke-miterlimit="10" stroke-linejoin="round"/>
<path d="M21.9844 19.2002H24.3844" stroke="#5DBC5D" stroke-opacity="0.772549" stroke-width="1.25" stroke-miterlimit="10" stroke-linecap="round" stroke-linejoin="round"/>
<path d="M21.9844 25.2002H24.3844" stroke="#5DBC5D" stroke-opacity="0.772549" stroke-width="1.25" stroke-miterlimit="10" stroke-linecap="round" stroke-linejoin="round"/>
<path d="M16.2859 3H3.08594V10.8H16.2859V3Z" stroke="#5DBC5D" stroke-opacity="0.772549" stroke-width="1.25" stroke-miterlimit="10" stroke-linecap="round" stroke-linejoin="round"/>
<path d="M8.48828 13.7998V10.7998" stroke="#5DBC5D" stroke-opacity="0.772549" stroke-width="1.25" stroke-miterlimit="10" stroke-linejoin="round"/>
<path d="M10.8867 10.7998V13.7998" stroke="#5DBC5D" stroke-opacity="0.772549" stroke-width="1.25" stroke-miterlimit="10" stroke-linejoin="round"/>
<path d="M23.4859 8.40039H21.0859V13.8004H23.4859V8.40039Z" stroke="#5DBC5D" stroke-opacity="0.772549" stroke-width="1.25" stroke-miterlimit="10" stroke-linejoin="round"/>
<path d="M28.2867 7.19922H25.8867V13.7992H28.2867V7.19922Z" stroke="#5DBC5D" stroke-opacity="0.772549" stroke-width="1.25" stroke-miterlimit="10" stroke-linejoin="round"/>
<path d="M25.8883 6H23.4883V13.8H25.8883V6Z" stroke="#5DBC5D" stroke-opacity="0.772549" stroke-width="1.25" stroke-miterlimit="10" stroke-linejoin="round"/>
</g>
<defs>
<clipPath id="clip0_33285_42924">
<rect width="30" height="30" fill="white" transform="translate(0.0859375)"/>
</clipPath>
</defs>
</svg>
