<svg width="31" height="31" viewBox="0 0 31 31" fill="none" xmlns="http://www.w3.org/2000/svg">
<path d="M9.08093 15.0299C9.08093 14.5164 9.50682 14.0905 10.0204 14.0905H13.7782V9.39323C13.7782 8.7043 13.2145 8.14062 12.5256 8.14062H9.73229C5.78658 8.14062 2.35445 11.3723 2.50476 15.3055C2.57992 17.0967 3.33148 18.7126 4.52145 19.9026C5.77406 21.1427 7.49012 21.9193 9.39408 21.9193H12.5256C13.2145 21.9193 13.7782 21.3556 13.7782 20.6667V15.9694H10.0204C9.50682 15.9694 9.08093 15.5435 9.08093 15.0299Z" fill="#FF4F4F"/>
<path d="M25.5399 10.1573C24.2873 8.91724 22.5713 8.14062 20.6673 8.14062H17.5358C16.8469 8.14062 16.2832 8.7043 16.2832 9.39323V14.0905H20.041C20.5546 14.0905 20.9805 14.5164 20.9805 15.0299C20.9805 15.5435 20.5546 15.9694 20.041 15.9694H16.2832V20.6667C16.2832 21.3556 16.8469 21.9193 17.5358 21.9193H20.3291C24.2748 21.9193 27.707 18.6876 27.5441 14.7544C27.4815 12.9632 26.7174 11.3473 25.5399 10.1573Z" fill="#FF4F4F"/>
<path d="M16.2845 14.0938H13.7793V15.9727H16.2845V14.0938Z" fill="#FF4F4F"/>
</svg>
