<svg width="31" height="31" viewBox="0 0 31 31" fill="none" xmlns="http://www.w3.org/2000/svg">
<path d="M20.3416 2.50781H9.71956C6.26237 2.50781 5.00977 3.76042 5.00977 7.28023V22.7875C5.00977 26.3073 6.26237 27.5599 9.71956 27.5599H20.3291C23.7988 27.5599 25.0514 26.3073 25.0514 22.7875V7.28023C25.0514 3.76042 23.7988 2.50781 20.3416 2.50781ZM15.0306 24.1779C13.8281 24.1779 12.8385 23.1883 12.8385 21.9858C12.8385 20.7833 13.8281 19.7938 15.0306 19.7938C16.2331 19.7938 17.2227 20.7833 17.2227 21.9858C17.2227 23.1883 16.2331 24.1779 15.0306 24.1779ZM17.5358 7.83138H12.5254C12.0118 7.83138 11.5859 7.4055 11.5859 6.89193C11.5859 6.37836 12.0118 5.95247 12.5254 5.95247H17.5358C18.0494 5.95247 18.4753 6.37836 18.4753 6.89193C18.4753 7.4055 18.0494 7.83138 17.5358 7.83138Z" fill="#FF4F4F"/>
</svg>
