<svg width="31" height="31" viewBox="0 0 31 31" fill="none" xmlns="http://www.w3.org/2000/svg">
<path d="M4.89833 21.5234C4.66034 21.5234 4.42234 21.4358 4.23445 21.2479C2.51839 19.5193 1.56641 17.2395 1.56641 14.822C1.56641 9.79906 5.63737 5.71557 10.6478 5.71557L18.2511 5.74062L16.8858 4.43792C16.51 4.07466 16.4974 3.48594 16.8607 3.11016C17.224 2.73438 17.8127 2.72185 18.1885 3.0851L21.2448 6.0162C21.5204 6.27925 21.6081 6.6926 21.4703 7.04333C21.3325 7.39406 20.9818 7.63206 20.5935 7.63206L10.6478 7.60701C6.67703 7.60701 3.44531 10.8513 3.44531 14.8345C3.44531 16.751 4.19688 18.5673 5.56221 19.9326C5.92547 20.2959 5.92547 20.8971 5.56221 21.2604C5.37432 21.4358 5.13633 21.5234 4.89833 21.5234Z" fill="#43B75D"/>
<path d="M12.5267 27.242C12.2887 27.242 12.0633 27.1543 11.8754 26.979L8.81903 24.0479C8.54346 23.7848 8.45578 23.3715 8.59356 23.0207C8.73135 22.67 9.08208 22.432 9.47039 22.432L19.4286 22.4571C23.3993 22.4571 26.6311 19.2128 26.6311 15.2296C26.6311 13.3131 25.8795 11.4968 24.5142 10.1315C24.1509 9.7682 24.1509 9.16695 24.5142 8.80369C24.8774 8.44044 25.4787 8.44044 25.8419 8.80369C27.558 10.5323 28.51 12.812 28.51 15.2296C28.51 20.2525 24.439 24.336 19.4286 24.336L11.8253 24.3109L13.1906 25.6136C13.5664 25.9769 13.5789 26.5656 13.2157 26.9414C13.0153 27.1418 12.7773 27.242 12.5267 27.242Z" fill="#43B75D"/>
<path d="M11.2728 19.4167H18.7884C21.1934 19.4167 23.1725 17.4501 23.1725 15.0326C23.1725 12.6276 21.2059 10.6484 18.7884 10.6484H11.2728C8.86779 10.6484 6.88867 12.615 6.88867 15.0326C6.88867 17.4501 8.85526 19.4167 11.2728 19.4167Z" fill="#43B75D"/>
</svg>
